<svg preserveAspectRatio="none" width="100%" height="100%" overflow="visible" style="display: block;" viewBox="0 0 20 12.0124" fill="none" xmlns="http://www.w3.org/2000/svg">
<path id="Vector" d="M19.9896 5.15052C20.0213 5.04893 19.9785 4.94415 19.8896 4.88542C18.2608 3.7837 17.9227 1.42311 17.8893 0.676989C17.8846 0.551578 17.783 0.453154 17.6576 0.453154H15.07C14.9366 0.453154 14.8318 0.56269 14.8382 0.697626C14.9191 2.42481 14.5699 4.73619 14.5699 4.73619C14.0746 8.25882 12.7125 8.88906 11.968 8.88906C11.3156 8.88906 11.106 8.28105 11.3155 6.62371L12.0109 0.715089C12.0267 0.576978 11.9188 0.454741 11.7791 0.454741H8.97877C8.8613 0.454741 8.76287 0.540465 8.74859 0.656352L8.20567 4.75683C8.14852 5.21402 8.01993 5.66963 7.88976 6.11254C7.24682 8.32232 6.13717 8.88747 5.63235 8.88747C4.76876 8.88747 4.76876 8.0461 4.97831 6.48084L5.53234 2.98202C5.82602 1.07227 4.72431 0.372192 4.47507 0.238843C3.80992 -0.127866 2.13353 -0.189778 0.123776 0.915112C0.0158267 0.973849 -0.0286229 1.10879 0.0190017 1.2215L0.836557 3.11219C0.887356 3.22808 1.01912 3.28682 1.13818 3.24237C1.31598 3.17569 1.49695 3.11854 1.59855 3.10902C1.75254 3.09314 1.9859 3.08838 2.13671 3.23443C2.32879 3.42017 2.30657 3.77259 2.28911 3.9107L1.7446 7.30157C1.37154 10.0813 2.17322 12.0116 4.59572 12.0116C4.59572 12.0116 6.80074 12.1101 8.2009 10.0654C8.23424 10.0162 8.30727 10.0273 8.32473 10.0828C8.68667 11.2211 9.63758 12.0116 11.3838 12.0116C13.9968 12.0116 16.4669 10.6432 17.521 6.7523C17.5337 6.70467 17.5909 6.68404 17.629 6.71737C17.9131 6.9682 18.4783 7.35237 18.945 7.55398C19.072 7.60954 19.2165 7.54128 19.2593 7.41111C19.4292 6.892 19.8372 5.64582 19.9896 5.15211V5.15052Z" fill="var(--fill-0, black)" fill-opacity="0.1"/>
</svg>
