<svg preserveAspectRatio="none" width="100%" height="100%" overflow="visible" style="display: block;" viewBox="0 0 87.6 12.64" fill="none" xmlns="http://www.w3.org/2000/svg">
<path id="Vector" d="M64.2813 3.09738C64.3614 3.09738 64.4416 3.09738 64.5218 3.10821C64.725 3.14069 64.9388 3.24356 64.9602 3.50342C65.0244 4.2722 65.1848 5.61484 66.81 6.48648C68.8737 7.59633 71.0656 7.79123 71.0282 8.68452C70.9747 9.84309 68.3765 9.83768 65.698 8.70618C65.5911 8.66286 65.4681 8.70076 65.404 8.79821L64.1476 11.1262C64.0728 11.2399 64.1155 11.3969 64.2331 11.4618C64.8533 11.8138 67.2217 12.7395 69.8734 12.6313C73.1025 12.4959 74.7064 10.509 74.8026 8.19186C74.8026 8.16479 74.824 8.14854 74.8508 8.14854C75.1448 8.17561 75.503 8.1702 75.6313 8.16479C75.6527 8.16479 75.6741 8.18103 75.6741 8.20268C75.8238 9.5345 76.6792 12.0249 80.0259 12.4364C83.0305 12.8045 85.5539 11.8841 87.516 10.3033C87.6015 10.2383 87.6229 10.1192 87.5748 10.0218L86.5483 8.00237C86.4842 7.87785 86.3238 7.83995 86.2169 7.92657C84.7627 9.06349 82.977 9.62112 81.8223 9.58864C79.5394 9.52367 79.224 8.54376 79.1812 8.27848C79.1759 8.24599 79.2026 8.21351 79.24 8.21351C83.9554 8.45172 86.5055 5.78809 86.4788 3.44928C86.4681 2.35568 85.7731 0.466227 83.1267 0.146807C82.8808 0.114324 82.6135 0.092668 82.3141 0.092668C81.9024 0.092668 81.4854 0.141393 81.0738 0.228015C81.0684 0.228015 81.0577 0.228015 81.0524 0.228015C81.0203 0.233429 80.9882 0.244257 80.9562 0.249671C79.9992 0.471641 79.1171 0.920994 78.3579 1.55442C77.1817 2.52351 76.2675 3.93112 75.92 5.70146C75.92 5.72312 75.8986 5.74478 75.8719 5.74478C75.1288 5.78267 73.9526 5.62025 73.14 5.49032C72.862 5.45242 72.5679 5.39829 72.2739 5.33873C72.2632 5.33873 72.2525 5.33873 72.2525 5.33873C71.4452 5.16549 70.5898 4.91104 69.7718 4.52123C67.3393 3.36266 69.7184 1.58149 72.6962 3.35725C72.8032 3.42221 72.9422 3.38973 73.0117 3.28145L74.2627 1.38118C74.3375 1.26748 74.3054 1.11048 74.1878 1.0401C73.3485 0.542021 69.7398 -1.06049 66.516 1.09965C66.516 1.09965 65.4895 0.173877 63.9712 0.173877C61.822 0.173877 61.0361 1.45697 61.0361 1.45697L61.2179 0.368777C61.2446 0.222602 61.1323 0.087254 60.9826 0.087254H58.0957C57.9727 0.087254 57.8658 0.184705 57.8604 0.309224C57.807 1.15379 57.5557 4.17475 56.6896 5.80433C55.3691 8.35427 52.2308 9.62654 50.4987 9.57781C48.2158 9.51285 47.9004 8.53293 47.8576 8.26765C47.8523 8.23517 47.879 8.20268 47.9164 8.20268C52.6318 8.44089 55.182 5.77726 55.1552 3.43846C55.1445 2.24198 54.3159 0.0926679 51.0119 0.087254C48.2105 0.087254 45.7993 1.96588 44.8477 4.84065C44.837 4.87314 44.7996 4.88397 44.7782 4.86231C43.7998 3.93653 43.7303 1.1971 43.7303 0.33088C43.7303 0.195532 43.6234 0.092668 43.4951 0.092668H40.9289C40.8006 0.092668 40.6937 0.200946 40.6937 0.33088C40.6937 0.958891 40.6616 2.58847 40.3782 3.95819C39.5763 7.82912 38.197 8.97687 37.5447 8.90649C37.117 8.86318 36.962 8.23517 36.8925 8.0132C36.6359 7.17946 35.4437 2.02543 35.048 0.271326C35.0267 0.163049 34.9304 0.087254 34.8235 0.087254H31.5997C31.434 0.087254 31.3217 0.255085 31.3805 0.412088L31.5088 0.758577C33.6366 6.69221 28.3332 9.66444 25.6975 9.58864C23.4146 9.52367 23.0992 8.54376 23.0564 8.27848C23.0511 8.24599 23.0778 8.21351 23.1153 8.21351C27.8306 8.45172 30.3808 5.78809 30.3541 3.44928C30.3434 2.25281 29.5147 0.0926679 26.2107 0.087254C23.297 0.087254 20.8057 2.12829 19.9396 5.20339C19.9289 5.24128 19.8861 5.25752 19.854 5.23045C18.3999 3.97443 18.2502 1.61397 18.2128 0.823544C18.2074 0.693611 18.1005 0.59616 17.9775 0.59616H15.3418C15.2082 0.59616 15.1012 0.709852 15.1066 0.8452C15.1921 2.62637 14.8339 5.0139 14.8339 5.0139C14.3314 8.64662 12.9414 9.29629 12.1822 9.29629C11.5193 9.29629 11.3054 8.66828 11.5193 6.9629L12.225 0.872269C12.241 0.731508 12.1341 0.606988 11.9897 0.606988H9.1402C9.02258 0.606988 8.921 0.69361 8.90496 0.81813L8.3543 5.04638C8.29549 5.51739 8.16718 5.9884 8.03353 6.44317C7.37594 8.72242 6.24788 9.30712 5.73465 9.30712C4.85786 9.30712 4.85252 8.4409 5.06637 6.82755L5.63307 3.2219C5.93246 1.25124 4.80975 0.531194 4.55847 0.395846C3.8795 0.0168737 2.17405 -0.0480932 0.126446 1.08882C0.0141751 1.14838 -0.0285948 1.28914 0.0195213 1.40283L0.853534 3.35183C0.906996 3.47094 1.04065 3.53049 1.16362 3.48718C1.34539 3.4168 1.52716 3.36266 1.62874 3.35183C1.78378 3.33559 2.02436 3.33018 2.17405 3.48177C2.37186 3.67125 2.34513 4.03398 2.32909 4.18016L1.77309 7.67754C1.3935 10.5415 2.21148 12.5338 4.67609 12.5338C4.67609 12.5338 6.92686 12.6367 8.34895 10.5198C8.38103 10.4711 8.45053 10.4819 8.46657 10.5361C8.83011 11.7163 9.80313 12.5338 11.5834 12.5338C14.294 12.5338 16.8548 11.0775 17.8973 6.88711C17.908 6.84921 17.9508 6.8438 17.9722 6.87087C18.2448 7.29856 18.8757 7.80747 19.5226 8.07275C19.544 8.07816 19.5547 8.09982 19.5547 8.12147C19.5707 8.50045 19.8487 11.9545 23.9011 12.458C28.0766 12.9723 31.4768 10.8609 33.503 8.11065L34.3049 10.1842C34.3049 10.1842 35.1122 12.523 36.9139 12.523C39.1807 12.523 41.4635 10.4495 42.752 7.10908C42.8161 6.95207 42.8696 6.79507 42.923 6.63807C42.9337 6.60558 42.9765 6.59476 42.9979 6.62183C43.3775 7.02787 43.8212 7.32563 44.3184 7.55843C44.3291 7.55843 44.3345 7.57467 44.3345 7.5855C44.2596 8.47338 44.6873 11.9545 48.7077 12.4526C51.9101 12.8478 54.5725 11.7704 56.5773 10.0001C56.6094 9.97303 56.6575 10.0001 56.6522 10.0434L56.3795 12.2685C56.3635 12.4093 56.4704 12.5392 56.6148 12.5392H59.5391C59.6621 12.5392 59.7637 12.4472 59.7744 12.3281L60.2235 8.2081C60.4694 5.94509 61.2072 4.80817 62.0519 4.03398C62.934 3.25438 63.9605 3.14069 64.3026 3.12986L64.2813 3.09738ZM22.9976 5.68522C23.2008 4.48875 23.8584 3.7687 24.6175 3.28145C25.8204 2.50727 27.0073 2.61013 27.3067 3.10821C27.5954 3.58463 27.5045 4.51582 25.9862 5.28459C25.0666 5.75019 24.1685 5.82057 23.0564 5.7556C23.019 5.7556 22.9923 5.71771 22.9976 5.68522ZM47.8042 5.68522C48.0073 4.48875 48.6649 3.7687 49.4241 3.28145C50.627 2.50185 51.8138 2.61013 52.1132 3.10821C52.4019 3.58463 52.311 4.51582 50.7927 5.28459C49.8732 5.75019 48.975 5.82057 47.863 5.7556C47.8255 5.7556 47.7988 5.71771 47.8042 5.68522ZM79.1331 5.69064C79.3363 4.49417 79.9938 3.77412 80.753 3.28687C81.9559 2.50727 83.1428 2.61554 83.4422 3.11362C83.7309 3.59004 83.64 4.52123 82.1216 5.29001C81.2021 5.7556 80.3039 5.82598 79.1919 5.76102C79.1545 5.76102 79.1277 5.72312 79.1384 5.69064H79.1331Z" fill="var(--fill-0, black)" fill-opacity="0.1"/>
</svg>
