<svg preserveAspectRatio="none" width="100%" height="100%" overflow="visible" style="display: block;" viewBox="0 0 105.999 15.0992" fill="none" xmlns="http://www.w3.org/2000/svg">
<path id="Vector" d="M77.8029 3.70209C77.8995 3.69777 77.9961 3.70065 78.0912 3.71651C78.3406 3.75832 78.5958 3.87797 78.6232 4.18937C78.7025 5.10914 78.8971 6.71369 80.8577 7.75601C83.3518 9.08232 86.0073 9.31298 85.9583 10.3798C85.8963 11.7638 82.7521 11.7595 79.5112 10.4029C79.3815 10.3481 79.2316 10.3942 79.1566 10.5124L77.6385 13.2919C77.5506 13.4303 77.5967 13.6134 77.7394 13.6941C78.4891 14.1166 81.3522 15.2209 84.5613 15.0882C88.4696 14.9268 90.4058 12.5524 90.524 9.78152C90.524 9.75269 90.5499 9.72962 90.5788 9.7325C90.9377 9.76422 91.3688 9.75701 91.5202 9.75269C91.5475 9.75269 91.5692 9.77143 91.5721 9.79882C91.7508 11.389 92.7845 14.3645 96.8384 14.8576C100.473 15.3001 103.528 14.1958 105.898 12.3102C105.999 12.2309 106.027 12.0896 105.968 11.9757L104.726 9.56095C104.649 9.41246 104.456 9.36633 104.323 9.46868C102.567 10.8253 100.405 11.4928 99.0066 11.4524C96.2444 11.3745 95.8653 10.2025 95.8119 9.88532C95.8047 9.84351 95.8379 9.80747 95.8811 9.80891C101.587 10.0929 104.671 6.91264 104.641 4.11873C104.626 2.81116 103.786 0.552094 100.584 0.1715C100.285 0.131133 99.9596 0.108067 99.6006 0.106625C99.1003 0.106625 98.5958 0.16285 98.097 0.269532C98.0869 0.270973 98.0782 0.273856 98.0681 0.275298C98.0292 0.283948 97.9903 0.292598 97.9528 0.302689C96.7951 0.566511 95.7269 1.1028 94.8114 1.86255C93.3871 3.01731 92.2828 4.70548 91.8604 6.81893C91.8546 6.84633 91.8315 6.86795 91.8027 6.86939C90.906 6.9112 89.4788 6.71946 88.4999 6.56232C88.1611 6.51475 87.8108 6.4542 87.4533 6.38067L87.4273 6.37635C86.4499 6.17164 85.4191 5.86312 84.4287 5.39747C81.4834 4.01349 84.3624 1.88418 87.9651 4.01061C88.0948 4.08701 88.2635 4.04809 88.3471 3.92122L89.8579 1.64919C89.9488 1.51223 89.9069 1.3277 89.7657 1.24409C88.7536 0.645801 84.384 -1.26582 80.4829 1.31328C80.4829 1.31328 79.2431 0.208982 77.405 0.208982C74.8043 0.208982 73.8513 1.74001 73.8513 1.74001L74.069 0.438204C74.0979 0.263765 73.9638 0.103742 73.7864 0.103742H70.2919C70.1405 0.103742 70.0165 0.220516 70.0064 0.371888C69.9401 1.3796 69.6374 4.9866 68.5908 6.93427C66.9948 9.97903 63.1947 11.5 61.1028 11.4409C58.3406 11.363 57.9615 10.1909 57.9081 9.87378C57.9009 9.83198 57.9341 9.79594 57.9773 9.79738C63.6834 10.0814 66.7671 6.90111 66.7368 4.1072C66.7209 2.67852 65.7204 0.109509 61.7242 0.103742C58.3378 0.0994171 55.4184 2.3455 54.268 5.78095C54.255 5.81699 54.2089 5.83141 54.1815 5.80402C52.9965 4.69683 52.9114 1.42429 52.9157 0.389188C52.9157 0.230607 52.7874 0.1023 52.6288 0.1023H49.5235C49.3649 0.1023 49.2366 0.230607 49.2366 0.387747C49.2366 1.13884 49.1992 3.08651 48.856 4.72278C47.8829 9.34758 46.2164 10.72 45.4292 10.6364C44.9117 10.5816 44.7243 9.8363 44.6407 9.57104C44.3307 8.57486 42.8876 2.42047 42.4076 0.319989C42.3787 0.193124 42.2648 0.1023 42.1351 0.1023H38.234C38.0336 0.1023 37.8952 0.302689 37.9658 0.490104L38.1215 0.902415C40.6978 7.98955 34.2795 11.5432 31.0921 11.4538C28.3299 11.376 27.9507 10.2039 27.8974 9.88676C27.8902 9.84495 27.9233 9.80891 27.9666 9.81035C33.6726 10.0944 36.7563 6.91408 36.726 4.12017C36.7102 2.6915 35.7097 0.11095 31.7134 0.105184C28.19 0.100859 25.1727 2.54157 24.1246 6.21488C24.1116 6.25958 24.0568 6.27688 24.0222 6.2466C22.2634 4.74729 22.0789 1.92743 22.0385 0.981705C22.0313 0.828891 21.9059 0.707792 21.7531 0.707792H18.5656C18.4027 0.706351 18.2715 0.841865 18.2801 1.00477C18.3811 3.13264 17.9486 5.98134 17.9486 5.98134C17.3387 10.3207 15.6607 11.0963 14.7423 11.0963C13.9379 11.0963 13.6798 10.3481 13.9379 8.30527L14.7942 1.02784C14.8144 0.857724 14.6818 0.707792 14.5102 0.707792H11.0604C10.9162 0.707792 10.7951 0.814474 10.7764 0.957197L10.1089 6.00873C10.0382 6.57241 9.87967 7.13321 9.72109 7.67816C8.92818 10.4 7.56294 11.0963 6.94159 11.0963C5.8791 11.0963 5.87765 10.0598 6.13571 8.13372L6.81761 3.82463C7.1809 1.47187 5.82287 0.60976 5.51436 0.445412C4.69406 0.00138513 2.62818 -0.0750221 0.151432 1.28589C0.0188001 1.35942 -0.0359825 1.52232 0.0245667 1.66216L1.03228 3.99042C1.09427 4.13459 1.25862 4.20523 1.40711 4.15045C1.62624 4.06971 1.84681 3.99907 1.97223 3.9861C2.16253 3.96592 2.44942 3.96159 2.63539 4.14035C2.87182 4.36958 2.84443 4.80207 2.8228 4.97218L2.15244 9.14864C1.69255 12.5725 2.68008 14.9498 5.66573 14.9498C5.66573 14.9498 8.389 15.0724 10.1118 12.5437C10.1493 12.4875 10.2358 12.4976 10.2559 12.5625C10.6985 13.9709 11.872 14.9498 14.0273 14.9498C17.307 14.9498 20.408 13.2083 21.6637 8.2058C21.6738 8.16255 21.7314 8.15102 21.7545 8.1885C22.0875 8.70028 22.8473 9.30722 23.6287 9.6215C23.6517 9.63159 23.6676 9.65177 23.669 9.67772C23.6906 10.1333 24.0237 14.2593 28.9253 14.8576C33.9797 15.4731 38.0913 12.9517 40.5392 9.66619L41.5065 12.1401C41.5065 12.1401 42.484 14.9369 44.6652 14.9369C47.4057 14.9369 50.1723 12.4572 51.7292 8.46962C51.8042 8.28365 51.8734 8.09623 51.9368 7.90594C51.9498 7.86557 52.0003 7.85548 52.0291 7.88575C52.4904 8.36871 53.0267 8.72479 53.6279 9.00159C53.6409 9.00736 53.6495 9.02033 53.6481 9.03619C53.5573 10.1001 54.0762 14.2578 58.936 14.8504C62.8112 15.3232 66.0289 14.0358 68.4567 11.9195C68.4956 11.8849 68.5562 11.9166 68.5504 11.9685L68.2202 14.6298C68.1986 14.8013 68.3327 14.9513 68.5043 14.9513H72.0449C72.1905 14.9513 72.3145 14.8417 72.3304 14.6961L72.871 9.77143C73.1665 7.0669 74.0575 5.70887 75.0796 4.78333C76.145 3.85058 77.3877 3.71939 77.8014 3.70209H77.8029ZM27.8585 6.79731C28.105 5.37008 28.9022 4.51086 29.8148 3.92843C31.2708 3.00001 32.7038 3.12976 33.0671 3.72084C33.4146 4.2874 33.3064 5.40468 31.4712 6.32157C30.3568 6.87804 29.2713 6.96166 27.9262 6.88381C27.883 6.88093 27.8512 6.84056 27.8585 6.79875V6.79731ZM57.8707 6.79731C58.1172 5.37008 58.9144 4.51086 59.827 3.92843C61.283 3.00001 62.716 3.12832 63.0793 3.72084C63.4268 4.2874 63.3186 5.40468 61.4834 6.32157C60.369 6.87804 59.2835 6.96166 57.9384 6.88381C57.8952 6.88093 57.8635 6.84056 57.8707 6.79875V6.79731ZM95.7745 6.80596C96.021 5.37873 96.8182 4.51807 97.7308 3.93708C99.1868 3.00866 100.62 3.13697 100.983 3.72948C101.331 4.29605 101.222 5.41333 99.3872 6.33022C98.2728 6.88669 97.1873 6.97031 95.8408 6.89246C95.7975 6.88958 95.7658 6.84921 95.773 6.8074L95.7745 6.80596Z" fill="var(--fill-0, black)" fill-opacity="0.1"/>
</svg>
