<svg width="56" height="56" viewBox="0 0 56 56" fill="none" xmlns="http://www.w3.org/2000/svg">
<g clip-path="url(#clip0_81500_7441)">
<rect width="56" height="56" fill="url(#paint0_linear_81500_7441)"/>
<path d="M37.9901 27.3512C38.0218 27.2496 37.9789 27.1448 37.89 27.0861C36.2613 25.9844 35.9232 23.6238 35.8898 22.8777C35.8851 22.7523 35.7835 22.6538 35.658 22.6538H33.0704C32.9371 22.6538 32.8323 22.7634 32.8387 22.8983C32.9196 24.6255 32.5704 26.9369 32.5704 26.9369C32.0751 30.4595 30.713 31.0897 29.9685 31.0897C29.316 31.0897 29.1065 30.4817 29.316 28.8244L30.0114 22.9158C30.0272 22.7777 29.9193 22.6554 29.7796 22.6554H26.9793C26.8618 22.6554 26.7634 22.7411 26.7491 22.857L26.2062 26.9575C26.149 27.4147 26.0204 27.8703 25.8902 28.3132C25.2473 30.523 24.1377 31.0882 23.6328 31.0882C22.7692 31.0882 22.7692 30.2468 22.9788 28.6815L23.5328 25.1827C23.8265 23.273 22.7248 22.5729 22.4756 22.4395C21.8104 22.0728 20.134 22.0109 18.1243 23.1158C18.0163 23.1745 17.9719 23.3095 18.0195 23.4222L18.837 25.3129C18.8878 25.4288 19.0196 25.4875 19.1387 25.4431C19.3165 25.3764 19.4974 25.3192 19.599 25.3097C19.753 25.2938 19.9864 25.2891 20.1372 25.4351C20.3293 25.6208 20.3071 25.9733 20.2896 26.1114L19.7451 29.5023C19.372 32.2819 20.1737 34.2123 22.5962 34.2123C22.5962 34.2123 24.8012 34.3107 26.2014 32.2661C26.2347 32.2169 26.3078 32.228 26.3252 32.2835C26.6872 33.4218 27.6381 34.2123 29.3843 34.2123C31.9973 34.2123 34.4674 32.8439 35.5215 28.953C35.5342 28.9054 35.5914 28.8847 35.6295 28.9181C35.9136 29.1689 36.4788 29.5531 36.9455 29.7547C37.0725 29.8102 37.217 29.742 37.2598 29.6118C37.4297 29.0927 37.8377 27.8465 37.9901 27.3528V27.3512Z" fill="white" fill-opacity="0.3"/>
</g>
<defs>
<linearGradient id="paint0_linear_81500_7441" x1="11.9393" y1="-8.43642" x2="63.0003" y2="55.4283" gradientUnits="userSpaceOnUse">
<stop stop-color="#17E5EF"/>
<stop offset="1" stop-color="#E69DFF"/>
</linearGradient>
<clipPath id="clip0_81500_7441">
<rect width="56" height="56" fill="white"/>
</clipPath>
</defs>
</svg>
