<svg width="48" height="48" viewBox="0 0 48 48" fill="none" xmlns="http://www.w3.org/2000/svg">
<g clip-path="url(#clip0_81500_7448)">
<rect width="48" height="48" fill="url(#paint0_linear_81500_7448)"/>
<path d="M33.9901 23.3512C34.0218 23.2496 33.9789 23.1448 33.89 23.0861C32.2613 21.9844 31.9232 19.6238 31.8898 18.8777C31.8851 18.7523 31.7835 18.6538 31.658 18.6538H29.0704C28.9371 18.6538 28.8323 18.7634 28.8387 18.8983C28.9196 20.6255 28.5704 22.9369 28.5704 22.9369C28.0751 26.4595 26.713 27.0897 25.9685 27.0897C25.316 27.0897 25.1065 26.4817 25.316 24.8244L26.0114 18.9158C26.0272 18.7777 25.9193 18.6554 25.7796 18.6554H22.9793C22.8618 18.6554 22.7634 18.7411 22.7491 18.857L22.2062 22.9575C22.149 23.4147 22.0204 23.8703 21.8902 24.3132C21.2473 26.523 20.1377 27.0882 19.6328 27.0882C18.7692 27.0882 18.7692 26.2468 18.9788 24.6815L19.5328 21.1827C19.8265 19.273 18.7248 18.5729 18.4756 18.4395C17.8104 18.0728 16.134 18.0109 14.1243 19.1158C14.0163 19.1745 13.9719 19.3095 14.0195 19.4222L14.837 21.3129C14.8878 21.4288 15.0196 21.4875 15.1387 21.4431C15.3165 21.3764 15.4974 21.3192 15.599 21.3097C15.753 21.2938 15.9864 21.2891 16.1372 21.4351C16.3293 21.6208 16.3071 21.9733 16.2896 22.1114L15.7451 25.5023C15.372 28.2819 16.1737 30.2123 18.5962 30.2123C18.5962 30.2123 20.8012 30.3107 22.2014 28.2661C22.2347 28.2169 22.3078 28.228 22.3252 28.2835C22.6872 29.4218 23.6381 30.2123 25.3843 30.2123C27.9973 30.2123 30.4674 28.8439 31.5215 24.953C31.5342 24.9054 31.5914 24.8847 31.6295 24.9181C31.9136 25.1689 32.4788 25.5531 32.9455 25.7547C33.0725 25.8102 33.217 25.742 33.2598 25.6118C33.4297 25.0927 33.8377 23.8465 33.9901 23.3528V23.3512Z" fill="white" fill-opacity="0.3"/>
</g>
<defs>
<linearGradient id="paint0_linear_81500_7448" x1="10.2337" y1="-7.23122" x2="54.0003" y2="47.51" gradientUnits="userSpaceOnUse">
<stop stop-color="#17E5EF"/>
<stop offset="1" stop-color="#E69DFF"/>
</linearGradient>
<clipPath id="clip0_81500_7448">
<rect width="48" height="48" fill="white"/>
</clipPath>
</defs>
</svg>
