<svg width="72" height="72" viewBox="0 0 72 72" fill="none" xmlns="http://www.w3.org/2000/svg">
<g clip-path="url(#clip0_81500_7446)">
<rect width="72" height="72" fill="url(#paint0_linear_81500_7446)"/>
<path d="M52.6502 34.9187C52.7031 34.7493 52.6317 34.5747 52.4835 34.4768C49.7689 32.6406 49.2053 28.7063 49.1498 27.4628C49.1418 27.2538 48.9725 27.0897 48.7635 27.0897H44.4508C44.2286 27.0897 44.0539 27.2723 44.0645 27.4972C44.1995 30.3758 43.6174 34.2281 43.6174 34.2281C42.7919 40.0992 40.5218 41.1496 39.2809 41.1496C38.1935 41.1496 37.8442 40.1362 38.1935 37.374L39.3523 27.5263C39.3788 27.2961 39.1989 27.0924 38.9661 27.0924H34.2988C34.1031 27.0924 33.939 27.2352 33.9152 27.4284L33.0103 34.2625C32.9151 35.0245 32.7008 35.7839 32.4838 36.522C31.4123 40.205 29.5628 41.1469 28.7215 41.1469C27.2822 41.1469 27.2822 39.7446 27.6314 37.1359L28.5548 31.3045C29.0443 28.1216 27.2081 26.9548 26.7927 26.7325C25.6841 26.1214 22.8901 26.0182 19.5405 27.8597C19.3606 27.9576 19.2865 28.1824 19.3659 28.3703L20.7285 31.5215C20.8132 31.7146 21.0328 31.8125 21.2312 31.7384C21.5275 31.6273 21.8291 31.532 21.9985 31.5162C22.2551 31.4897 22.6441 31.4818 22.8954 31.7252C23.2156 32.0347 23.1785 32.6221 23.1494 32.8523L22.2419 38.5038C21.6201 43.1366 22.9563 46.3539 26.9938 46.3539C26.9938 46.3539 30.6688 46.5179 33.0024 43.1101C33.058 43.0281 33.1797 43.0466 33.2088 43.1392C33.812 45.0363 35.3969 46.3539 38.3072 46.3539C42.6623 46.3539 46.7791 44.0732 48.5359 37.5883C48.5571 37.5089 48.6524 37.4745 48.7159 37.5301C49.1895 37.9481 50.1314 38.5884 50.9092 38.9244C51.1209 39.017 51.3617 38.9033 51.4331 38.6863C51.7162 37.8211 52.3962 35.7442 52.6502 34.9213V34.9187Z" fill="white" fill-opacity="0.3"/>
</g>
<defs>
<linearGradient id="paint0_linear_81500_7446" x1="15.3505" y1="-10.8468" x2="81.0004" y2="71.2649" gradientUnits="userSpaceOnUse">
<stop stop-color="#17E5EF"/>
<stop offset="1" stop-color="#E69DFF"/>
</linearGradient>
<clipPath id="clip0_81500_7446">
<rect width="72" height="72" fill="white"/>
</clipPath>
</defs>
</svg>
