<svg width="17" height="16" viewBox="0 0 17 16" fill="none" xmlns="http://www.w3.org/2000/svg">
<path fill-rule="evenodd" clip-rule="evenodd" d="M14.9997 4.87626C14.9997 4.73627 14.9978 4.59435 14.9939 4.45436C14.9861 4.14718 14.9667 3.83805 14.9122 3.53475C14.8578 3.22757 14.7664 2.93983 14.6245 2.65986C14.4845 2.38573 14.3018 2.13298 14.084 1.91523C13.8663 1.69748 13.6135 1.51473 13.3394 1.37474C13.0594 1.23282 12.7736 1.14144 12.4664 1.087C12.1631 1.03256 11.854 1.01507 11.5468 1.00534C11.4049 1.0034 11.263 1.00146 11.123 0.999512C10.9558 0.999512 10.7886 0.999512 10.6214 0.999512H5.37981C5.21261 0.999512 5.04541 0.999512 4.87821 0.999512C4.73823 0.999512 4.5963 1.00146 4.45632 1.00534C4.14913 1.01312 3.84 1.03256 3.53671 1.087C3.22952 1.14338 2.94178 1.23282 2.66376 1.37669C2.38768 1.51667 2.13688 1.69943 1.91913 1.91718C1.70138 2.13493 1.51668 2.38573 1.3767 2.66181C1.23477 2.94177 1.14339 3.22757 1.08895 3.5367C1.03452 3.83999 1.01702 4.14912 1.0073 4.45631C1.00535 4.59629 1.00341 4.73627 1.00146 4.8782C1.00146 5.0454 1.00146 5.2126 1.00146 5.3798V10.6214C1.00146 10.7886 1.00146 10.9558 1.00146 11.123C1.00146 11.263 1.00341 11.4049 1.0073 11.5449C1.01507 11.8521 1.03452 12.1612 1.08895 12.4645C1.14339 12.7717 1.23477 13.0594 1.3767 13.3394C1.51668 13.6135 1.69943 13.8663 1.91719 14.084C2.13494 14.3018 2.38768 14.4845 2.66182 14.6245C2.94178 14.7664 3.22758 14.8578 3.53476 14.9122C3.83806 14.9667 4.14719 14.9842 4.45437 14.9939C4.59435 14.9978 4.73628 14.9997 4.87626 14.9997C5.04347 15.0017 5.21067 14.9997 5.37787 14.9997H10.6175C10.7847 14.9997 10.9519 14.9997 11.1191 14.9997C11.2591 14.9997 11.401 14.9978 11.541 14.9939C11.8482 14.9861 12.1573 14.9667 12.4606 14.9122C12.7678 14.8578 13.0555 14.7664 13.3336 14.6245C13.6077 14.4845 13.8604 14.3018 14.0782 14.084C14.2959 13.8663 14.4787 13.6155 14.6187 13.3394C14.7606 13.0594 14.852 12.7736 14.9064 12.4645C14.9609 12.1612 14.9784 11.8521 14.9881 11.5449C14.992 11.4049 14.9939 11.263 14.9939 11.123C14.9958 10.9558 14.9939 10.7886 14.9939 10.6214V5.37786C14.9997 5.21066 14.9997 5.04346 14.9997 4.87626ZM11.2494 10.1081C11.2494 10.285 11.2474 10.4464 11.2105 10.6233C11.1735 10.7964 11.1074 10.9577 11.0063 11.1035C10.9052 11.2494 10.775 11.368 10.6233 11.4574C10.4697 11.5488 10.3084 11.5993 10.1373 11.6343C9.81454 11.6985 9.59485 11.714 9.38682 11.6732C9.18657 11.6324 9.01742 11.541 8.88133 11.4166C8.68107 11.2319 8.5547 10.983 8.52748 10.7244C8.49637 10.4192 8.59747 10.0945 8.82494 9.85342C8.93965 9.73288 9.08547 9.63761 9.27989 9.56179C9.48208 9.48402 9.70567 9.43542 10.0498 9.36737C10.1412 9.34987 10.2306 9.33043 10.322 9.31293C10.4406 9.2896 10.5436 9.25849 10.6253 9.15739C10.7089 9.05629 10.7089 8.93187 10.7089 8.81133V5.72782C10.7089 5.49257 10.6039 5.42841 10.3784 5.47118C10.217 5.50229 6.75825 6.20026 6.75825 6.20026C6.56383 6.24692 6.49384 6.31108 6.49384 6.5541V11.0705C6.49384 11.2474 6.48412 11.4088 6.44718 11.5857C6.41024 11.7587 6.34414 11.9201 6.24304 12.0659C6.14194 12.2117 6.01168 12.3303 5.86003 12.4198C5.70644 12.5111 5.54507 12.5636 5.37398 12.5986C5.05124 12.6628 4.83155 12.6783 4.62352 12.6375C4.42326 12.5967 4.25412 12.5034 4.11802 12.3789C3.91777 12.1942 3.80112 11.9454 3.77196 11.6868C3.74085 11.3816 3.83223 11.0569 4.06164 10.8158C4.17635 10.6953 4.32217 10.6 4.51659 10.5242C4.71878 10.4464 4.94237 10.3978 5.28649 10.3297C5.37787 10.3123 5.4673 10.2928 5.55868 10.2753C5.67728 10.252 5.78032 10.2209 5.86198 10.1198C5.94363 10.0187 5.95335 9.90008 5.95335 9.77954C5.95335 8.82299 5.95335 4.57102 5.95335 4.57102C5.95335 4.50102 5.95919 4.45436 5.96307 4.43103C5.98057 4.32216 6.02334 4.22689 6.10306 4.16079C6.16916 4.10635 6.2547 4.06747 6.36164 4.04414H6.36358L10.5281 3.2023C10.565 3.19452 10.8644 3.14202 10.8994 3.13814C11.1249 3.11869 11.2513 3.26645 11.2513 3.50559L11.2494 10.1081Z" fill="white"/>
</svg>
