<svg width="24" height="24" viewBox="0 0 24 24" fill="none" xmlns="http://www.w3.org/2000/svg">
<path fill-rule="evenodd" clip-rule="evenodd" d="M22.5006 8.06786C22.5006 7.81701 22.5006 7.56616 22.5006 7.31531C22.5006 7.10529 22.4977 6.89236 22.4919 6.68234C22.4802 6.22147 22.4511 5.75769 22.3694 5.30265C22.2877 4.84178 22.1506 4.41008 21.9377 3.99005C21.7277 3.57877 21.4535 3.19957 21.1268 2.87288C20.8001 2.54619 20.4209 2.272 20.0096 2.06198C19.5896 1.84905 19.1608 1.71196 18.6999 1.63028C18.2449 1.54861 17.7811 1.52236 17.3202 1.50777C17.1073 1.50486 16.8944 1.50194 16.6844 1.49902C16.4335 1.49902 16.1827 1.49902 15.9318 1.49902H8.06786C7.81701 1.49902 7.56616 1.49902 7.31531 1.49902C7.10529 1.49902 6.89236 1.50194 6.68234 1.50777C6.22147 1.51944 5.75769 1.54861 5.30265 1.63028C4.84178 1.71487 4.41008 1.84905 3.99297 2.0649C3.57877 2.27492 3.20249 2.5491 2.8758 2.8758C2.5491 3.20249 2.272 3.57877 2.06198 3.99297C1.84905 4.413 1.71196 4.84178 1.63028 5.30557C1.54861 5.7606 1.52236 6.22439 1.50777 6.68526C1.50486 6.89527 1.50194 7.10529 1.49902 7.31531C1.49902 7.56616 1.49902 7.81701 1.49902 8.06786V15.9289C1.49902 16.1797 1.49902 16.4306 1.49902 16.6814C1.49902 16.8915 1.50194 17.1044 1.50777 17.3144C1.51944 17.7753 1.54861 18.2391 1.63028 18.6941C1.71196 19.155 1.84905 19.5867 2.06198 20.0067C2.272 20.418 2.54619 20.7972 2.87288 21.1239C3.19957 21.4506 3.57877 21.7248 3.99005 21.9348C4.41008 22.1477 4.83886 22.2848 5.29973 22.3665C5.75477 22.4481 6.21855 22.4744 6.67942 22.489C6.88944 22.4948 7.10237 22.4977 7.31239 22.4977C7.56324 22.5006 7.81409 22.4977 8.06495 22.4977H15.926C16.1768 22.4977 16.4277 22.4977 16.6785 22.4977C16.8885 22.4977 17.1015 22.4948 17.3115 22.489C17.7724 22.4773 18.2361 22.4481 18.6912 22.3665C19.1521 22.2848 19.5837 22.1477 20.0009 21.9348C20.4121 21.7248 20.7913 21.4506 21.118 21.1239C21.4447 20.7972 21.7189 20.4209 21.9289 20.0067C22.1419 19.5867 22.279 19.1579 22.3606 18.6941C22.4423 18.2391 22.4686 17.7753 22.4831 17.3144C22.489 17.1044 22.4919 16.8915 22.4919 16.6814C22.4948 16.4306 22.4919 16.1797 22.4919 15.9289L22.5006 8.06786Z" fill="url(#paint0_linear_32437_12364)"/>
<path fill-rule="evenodd" clip-rule="evenodd" d="M16.3466 4.70764C16.297 4.71348 15.8449 4.79223 15.7895 4.8039L9.54732 6.064H9.54441C9.38106 6.099 9.25272 6.15734 9.15646 6.23901C9.03687 6.33819 8.9727 6.48111 8.94645 6.64446C8.94061 6.67946 8.93186 6.74947 8.93186 6.85448C8.93186 6.85448 8.93186 13.2308 8.93186 14.6659C8.93186 14.8497 8.91728 15.0247 8.79477 15.1764C8.67226 15.328 8.51766 15.3718 8.33973 15.4097C8.20264 15.436 8.06846 15.4651 7.93137 15.4914C7.41508 15.5964 7.07963 15.6664 6.77628 15.7831C6.48459 15.8968 6.26874 16.0398 6.09373 16.2206C5.74953 16.5794 5.60952 17.0694 5.65911 17.5274C5.69994 17.9182 5.87496 18.2916 6.17832 18.5658C6.3825 18.7525 6.63627 18.8954 6.93671 18.9537C7.24881 19.015 7.57842 18.9946 8.06263 18.8954C8.31931 18.8429 8.56142 18.7612 8.79185 18.6271C9.01937 18.4929 9.2148 18.3149 9.36648 18.0962C9.51816 17.8774 9.61733 17.6353 9.67275 17.3757C9.72817 17.1103 9.74276 16.8682 9.74276 16.6027V9.82971C9.74276 9.46801 9.84485 9.37175 10.1395 9.29883C10.1395 9.29883 15.3286 8.25167 15.5707 8.205C15.9091 8.14083 16.0666 8.23708 16.0666 8.59003V13.2162C16.0666 13.4 16.0637 13.5837 15.9412 13.7354C15.8186 13.8871 15.664 13.9309 15.4861 13.9688C15.349 13.995 15.2148 14.0242 15.0778 14.0504C14.5615 14.1555 14.226 14.2255 13.9227 14.3421C13.631 14.4559 13.4151 14.5988 13.2401 14.7797C12.8959 15.1384 12.7442 15.6285 12.7938 16.0864C12.8347 16.4773 13.0213 16.8507 13.3247 17.1249C13.5289 17.3115 13.7827 17.4486 14.0831 17.5099C14.3952 17.5711 14.7248 17.5507 15.209 17.4515C15.4657 17.399 15.7078 17.3232 15.9382 17.1861C16.1658 17.0519 16.3612 16.874 16.5129 16.6552C16.6645 16.4365 16.7637 16.1944 16.8191 15.9348C16.8746 15.6693 16.8775 15.4272 16.8775 15.1618V5.25894C16.8746 4.90016 16.685 4.67848 16.3466 4.70764Z" fill="white"/>
<defs>
<linearGradient id="paint0_linear_32437_12364" x1="11.9998" y1="22.4193" x2="11.9998" y2="1.95167" gradientUnits="userSpaceOnUse">
<stop stop-color="#FA233B"/>
<stop offset="1" stop-color="#FB5C74"/>
</linearGradient>
</defs>
</svg>
