<svg width="24" height="24" viewBox="0 0 24 24" fill="none" xmlns="http://www.w3.org/2000/svg">
<path fill-rule="evenodd" clip-rule="evenodd" d="M11.9996 4.60005C10.4256 4.60005 9.14961 5.87604 9.14961 7.45005C9.14961 9.02406 10.4256 10.3 11.9996 10.3C13.5736 10.3 14.8496 9.02406 14.8496 7.45005C14.8496 5.87604 13.5736 4.60005 11.9996 4.60005ZM7.34961 7.45005C7.34961 4.88192 9.43148 2.80005 11.9996 2.80005C14.5677 2.80005 16.6496 4.88192 16.6496 7.45005C16.6496 10.0182 14.5677 12.1 11.9996 12.1C9.43148 12.1 7.34961 10.0182 7.34961 7.45005ZM17.5914 13.27C18.0885 13.27 18.4914 13.673 18.4914 14.17L18.4915 16.2701H20.5914C21.0885 16.2701 21.4914 16.6731 21.4914 17.1701C21.4914 17.6672 21.0885 18.0701 20.5914 18.0701H18.4916L18.4916 20.17C18.4916 20.6671 18.0887 21.07 17.5917 21.07C17.0946 21.0701 16.6916 20.6671 16.6916 20.1701L16.6916 18.0701H14.5914C14.0943 18.0701 13.6914 17.6672 13.6914 17.1701C13.6914 16.6731 14.0943 16.2701 14.5914 16.2701H16.6915L16.6914 14.1701C16.6914 13.673 17.0943 13.2701 17.5914 13.27ZM11.9996 15.3195C10.7274 15.3195 9.45524 15.4049 8.19167 15.5757C6.01987 15.8693 4.39961 17.7233 4.39961 19.9149V20.1528C4.39961 20.6499 3.99667 21.0528 3.49961 21.0528C3.00255 21.0528 2.59961 20.6499 2.59961 20.1528V19.9149C2.59961 16.8224 4.88593 14.2062 7.95054 13.792C9.29412 13.6103 10.6469 13.5195 11.9996 13.5195C12.4967 13.5195 12.8996 13.9225 12.8996 14.4195C12.8996 14.9166 12.4967 15.3195 11.9996 15.3195Z" fill="black"/>
</svg>
