<svg width="24" height="24" viewBox="0 0 24 24" fill="none" xmlns="http://www.w3.org/2000/svg">
<path d="M11.2588 14.2568C11.6557 13.8189 12.3433 13.8189 12.7402 14.2568L17.6641 19.6885C18.2465 20.3311 17.791 21.36 16.9238 21.3604H7.07715C6.20982 21.3603 5.75365 20.3312 6.33594 19.6885L11.2588 14.2568Z" fill="black"/>
<path d="M19.4443 3.45996C21.0459 3.46005 22.3438 4.75878 22.3438 6.36035V14.1475C22.3436 15.7489 21.0458 17.0468 19.4443 17.0469H18.5664C18.0021 17.0469 17.464 16.8087 17.085 16.3906L14.0547 13.0479C12.9433 11.8217 11.0165 11.8216 9.90527 13.0479L6.87598 16.3906C6.49695 16.8087 5.95884 17.0468 5.39453 17.0469H4.55566C2.95413 17.0469 1.65542 15.749 1.65527 14.1475V6.36035C1.65527 4.75873 2.95404 3.45996 4.55566 3.45996H19.4443Z" fill="black"/>
</svg>
