<svg width="24" height="24" viewBox="0 0 24 24" fill="none" xmlns="http://www.w3.org/2000/svg">
<path d="M8.60622 8.02102C8.90308 7.23244 10.0185 7.23244 10.3154 8.02102L11.6804 11.6471C11.7695 11.8837 11.9527 12.0728 12.1863 12.1694L15.7595 13.6458C16.5121 13.9567 16.5121 15.0227 15.7595 15.3337L12.1863 16.8101C11.9527 16.9066 11.7695 17.0957 11.6804 17.3323L10.3154 20.9585C10.0185 21.747 8.90308 21.747 8.60622 20.9585L7.24116 17.3323C7.15209 17.0957 6.96892 16.9066 6.73527 16.8101L3.1621 15.3337C2.40951 15.0227 2.40951 13.9567 3.1621 13.6458L6.73527 12.1694C6.96892 12.0728 7.15209 11.8837 7.24116 11.6471L8.60622 8.02102Z" fill="black"/>
<path d="M16.5371 2.8832C16.7546 2.30554 17.5716 2.30554 17.7891 2.8832L18.5658 4.9463C18.631 5.11962 18.7652 5.25813 18.9363 5.32885L20.9876 6.17643C21.5389 6.40422 21.5389 7.1851 20.9876 7.41289L18.9363 8.26047C18.7652 8.33119 18.631 8.46971 18.5658 8.64303L17.7891 10.7061C17.5716 11.2838 16.7546 11.2838 16.5371 10.7061L15.7604 8.64302C15.6952 8.46971 15.561 8.33119 15.3899 8.26047L13.3385 7.41289C12.7873 7.1851 12.7873 6.40422 13.3385 6.17643L15.3899 5.32885C15.561 5.25813 15.6952 5.11961 15.7604 4.9463L16.5371 2.8832Z" fill="black"/>
</svg>
