<svg width="24" height="24" viewBox="0 0 24 24" fill="none" xmlns="http://www.w3.org/2000/svg">
<path d="M11.4001 4.4001C13.951 4.4001 16.2096 5.65678 17.5886 7.58696H15.7365C15.2394 7.58696 14.8365 7.98991 14.8365 8.48696C14.8365 8.98402 15.2394 9.38696 15.7365 9.38696H19.0463C19.1116 9.39423 19.1781 9.39438 19.2446 9.38696H19.5143C20.0114 9.38696 20.4143 8.98402 20.4143 8.48696V4.70919C20.4143 4.21213 20.0114 3.80919 19.5143 3.80919C19.0173 3.80918 18.6143 4.21213 18.6143 4.70919V5.97364C16.8906 3.91238 14.2992 2.6001 11.4001 2.6001C6.2086 2.6001 2 6.80861 2 12.0001C2 12.4972 2.40294 12.9001 2.9 12.9001C3.39706 12.9001 3.8 12.4972 3.8 12.0001C3.8 7.80275 7.20268 4.4001 11.4001 4.4001Z" fill="black"/>
<path d="M2.37967 15.513C2.37967 15.016 2.78261 14.613 3.27966 14.613H3.55161C3.6166 14.606 3.68159 14.6061 3.7455 14.613H7.0575C7.55456 14.613 7.95751 15.016 7.95751 15.513C7.95751 16.0101 7.55456 16.413 7.0575 16.413H5.20521C6.58421 18.3434 8.84292 19.6001 11.3939 19.6001C11.8909 19.6001 12.2939 20.0031 12.2939 20.5001C12.2939 20.9972 11.8909 21.4001 11.3939 21.4001C8.49483 21.4001 5.90342 20.0879 4.17966 18.0266V19.2908C4.17966 19.7879 3.77672 20.1908 3.27966 20.1908C2.78261 20.1908 2.37967 19.7879 2.37967 19.2908V15.513Z" fill="black"/>
<path fill-rule="evenodd" clip-rule="evenodd" d="M19.2022 11.9413C19.0583 11.615 18.7354 11.4045 18.3788 11.4045C18.0222 11.4045 17.6993 11.615 17.5554 11.9413L14.0368 19.9169C13.8362 20.3717 14.0422 20.903 14.4969 21.1036C14.9517 21.3042 15.483 21.0982 15.6836 20.6435L16.7806 18.157H19.977L21.074 20.6435C21.2746 21.0982 21.8059 21.3042 22.2607 21.1036C22.7154 20.903 22.9214 20.3717 22.7208 19.9169L19.2022 11.9413ZM18.3788 14.5343L19.1829 16.357H17.5747L18.3788 14.5343Z" fill="black"/>
</svg>
