<svg width="24" height="24" viewBox="0 0 24 24" fill="none" xmlns="http://www.w3.org/2000/svg">
<path fill-rule="evenodd" clip-rule="evenodd" d="M11.9997 2.52856C12.4968 2.52856 12.8997 2.93151 12.8997 3.42856V11.1H20.5712C21.0682 11.1 21.4712 11.5029 21.4712 12C21.4712 12.497 21.0682 12.9 20.5712 12.9H12.8997V20.5714C12.8997 21.0685 12.4968 21.4714 11.9997 21.4714C11.5027 21.4714 11.0997 21.0685 11.0997 20.5714V12.9H3.42832C2.93126 12.9 2.52832 12.497 2.52832 12C2.52832 11.5029 2.93126 11.1 3.42832 11.1H11.0997V3.42856C11.0997 2.93151 11.5027 2.52856 11.9997 2.52856Z" fill="black"/>
</svg>
