<svg width="24" height="24" viewBox="0 0 24 24" fill="none" xmlns="http://www.w3.org/2000/svg">
<path fill-rule="evenodd" clip-rule="evenodd" d="M1.5 4.2C1.5 3.53726 2.03726 3 2.7 3H7.90317C8.23486 3 8.55175 3.13729 8.77861 3.37927L9.3594 3.99878H21.2682C22.0966 3.99878 22.7682 4.67035 22.7682 5.49878V19.1141C22.7682 19.9425 22.0966 20.6141 21.2682 20.6141H3.00303C2.17461 20.6141 1.50303 19.9425 1.50303 19.1141V11.0817C1.5 10.1077 1.5 10.5087 1.5 10.1077V4.2ZM10.9843 8.19235V14.8754L9.08458 12.8133C8.7478 12.4477 8.17843 12.4244 7.81286 12.7612C7.44729 13.098 7.42395 13.6673 7.76074 14.0329L11.2223 17.7903C11.3927 17.9752 11.6327 18.0805 11.8842 18.0805C12.1357 18.0805 12.3757 17.9752 12.5461 17.7903L16.0076 14.0329C16.3444 13.6673 16.3211 13.098 15.9555 12.7612C15.5899 12.4244 15.0206 12.4477 14.6838 12.8133L12.7843 14.8751V8.19235C12.7843 7.69529 12.3813 7.29235 11.8843 7.29235C11.3872 7.29235 10.9843 7.69529 10.9843 8.19235Z" fill="black"/>
</svg>
