<svg width="24" height="24" viewBox="0 0 24 24" fill="none" xmlns="http://www.w3.org/2000/svg">
<path fill-rule="evenodd" clip-rule="evenodd" d="M22.4977 7.31369C22.4977 7.10373 22.4948 6.89086 22.489 6.6809C22.4773 6.22016 22.4482 5.7565 22.3665 5.30159C22.2849 4.84085 22.1478 4.40927 21.9349 3.98936C21.725 3.57819 21.4509 3.1991 21.1243 2.8725C20.7977 2.5459 20.4186 2.27179 20.0074 2.06183C19.5875 1.84895 19.1588 1.7119 18.6981 1.63025C18.2432 1.5486 17.7795 1.52235 17.3188 1.50777C17.1059 1.50486 16.893 1.50194 16.6831 1.49902C16.4323 1.49902 16.1815 1.49902 15.9307 1.49902H8.06897C7.81819 1.49902 7.5674 1.49902 7.31662 1.49902C7.10666 1.49902 6.89379 1.50194 6.68383 1.50777C6.22309 1.51944 5.75943 1.5486 5.30452 1.63025C4.84378 1.71481 4.4122 1.84895 3.9952 2.06474C3.58112 2.2747 3.20494 2.54881 2.87834 2.87541C2.55174 3.20202 2.27471 3.57819 2.06476 3.99227C1.85188 4.41219 1.71483 4.84085 1.63318 5.30451C1.55153 5.75942 1.52528 6.22308 1.5107 6.68382C1.50779 6.89377 1.50487 7.10373 1.50195 7.31661C1.50195 7.56739 1.50195 7.81817 1.50195 8.06896V15.9307C1.50195 16.1815 1.50195 16.4323 1.50195 16.6831C1.50195 16.893 1.50487 17.1059 1.5107 17.3159C1.52237 17.7766 1.55153 18.2402 1.63318 18.6952C1.71483 19.1559 1.85188 19.5875 2.06476 20.0074C2.27471 20.4186 2.54883 20.7977 2.87543 21.1243C3.20203 21.4509 3.58112 21.725 3.99229 21.9349C4.4122 22.1478 4.84087 22.2849 5.30161 22.3665C5.75652 22.4482 6.22017 22.4744 6.68091 22.489C6.89087 22.4948 7.10375 22.4977 7.3137 22.4977C7.56449 22.5006 7.81527 22.4977 8.06605 22.4977H15.9249C16.1757 22.4977 16.4265 22.4977 16.6772 22.4977C16.8872 22.4977 17.1001 22.4948 17.31 22.489C17.7708 22.4773 18.2344 22.4482 18.6893 22.3665C19.1501 22.2849 19.5817 22.1478 19.9987 21.9349C20.4098 21.725 20.7889 21.4509 21.1155 21.1243C21.4421 20.7977 21.7162 20.4215 21.9262 20.0074C22.1391 19.5875 22.2761 19.1588 22.3578 18.6952C22.4394 18.2402 22.4657 17.7766 22.4802 17.3159C22.4861 17.1059 22.489 16.893 22.489 16.6831C22.4919 16.4323 22.489 16.1815 22.489 15.9307V8.06604C22.4977 7.81526 22.4977 7.56447 22.4977 7.31369ZM16.8726 15.1609C16.8726 15.4262 16.8697 15.6683 16.8143 15.9336C16.7589 16.1932 16.6597 16.4352 16.5081 16.6539C16.3565 16.8726 16.1611 17.0505 15.9336 17.1846C15.7033 17.3217 15.4612 17.3975 15.2046 17.45C14.7206 17.5462 14.391 17.5695 14.079 17.5083C13.7787 17.4471 13.525 17.31 13.3208 17.1234C13.0205 16.8464 12.8309 16.4731 12.7901 16.0853C12.7434 15.6274 12.8951 15.1405 13.2363 14.7789C13.4083 14.5981 13.627 14.4552 13.9186 14.3414C14.2219 14.2248 14.5573 14.1519 15.0734 14.0498C15.2105 14.0236 15.3446 13.9944 15.4816 13.9682C15.6595 13.9332 15.8141 13.8865 15.9366 13.7349C16.0619 13.5833 16.0619 13.3966 16.0619 13.2158V8.59093C16.0619 8.23809 15.9045 8.14186 15.5662 8.20601C15.3242 8.25267 10.1365 9.29954 10.1365 9.29954C9.84486 9.36953 9.73988 9.46576 9.73988 9.83027V16.6043C9.73988 16.8697 9.7253 17.1117 9.6699 17.3771C9.61449 17.6366 9.51534 17.8787 9.36371 18.0974C9.21207 18.3161 9.0167 18.4939 8.78924 18.6281C8.55887 18.7651 8.31684 18.8439 8.06022 18.8964C7.57615 18.9926 7.24663 19.0159 6.93461 18.9547C6.63426 18.8934 6.38056 18.7535 6.17643 18.5668C5.87608 18.2898 5.70111 17.9166 5.65737 17.5287C5.61071 17.0709 5.74777 16.5839 6.09187 16.2223C6.26391 16.0415 6.48262 15.8986 6.77423 15.7849C7.0775 15.6683 7.41285 15.5954 7.929 15.4933C8.06605 15.4671 8.20019 15.4379 8.33725 15.4116C8.51513 15.3767 8.66968 15.33 8.79216 15.1784C8.91463 15.0267 8.92921 14.8488 8.92921 14.668C8.92921 13.2333 8.92921 6.85587 8.92921 6.85587C8.92921 6.75089 8.93796 6.6809 8.94379 6.64591C8.97004 6.48261 9.03419 6.33972 9.15375 6.24057C9.2529 6.15892 9.38121 6.1006 9.54159 6.06561H9.54451L15.7908 4.80294C15.8462 4.79128 16.2952 4.71255 16.3477 4.70671C16.686 4.67755 16.8755 4.89917 16.8755 5.25785L16.8726 15.1609Z" fill="white"/>
</svg>
