<svg width="24" height="24" viewBox="0 0 24 24" fill="none" xmlns="http://www.w3.org/2000/svg">
<path fill-rule="evenodd" clip-rule="evenodd" d="M12.0763 3.4001C7.27744 3.4001 3.39961 7.25711 3.39961 11.9997C3.39961 16.7422 7.27744 20.5993 12.0763 20.5993C12.9925 20.5993 13.8738 20.4588 14.7005 20.1992C15.1747 20.0503 15.6799 20.314 15.8288 20.7882C15.9777 21.2624 15.714 21.7676 15.2398 21.9165C14.2405 22.2303 13.1774 22.3993 12.0763 22.3993C6.29708 22.3993 1.59961 17.7501 1.59961 11.9997C1.59961 6.2493 6.29708 1.6001 12.0763 1.6001C16.8491 1.6001 20.8802 4.76877 22.1429 9.10951C22.2914 9.61975 22.3518 10.1698 22.3779 10.5671C22.3913 10.771 22.3963 10.9462 22.398 11.0715C22.3989 11.1343 22.3989 11.1851 22.3986 11.2213L22.3982 11.2643L22.3981 11.271C22.3979 12.7281 22.1342 14.1886 21.549 15.3212C20.9566 16.4674 19.9526 17.4001 18.4996 17.4001C17.1675 17.4001 16.197 16.6256 15.6416 15.614C14.7601 16.699 13.4782 17.4001 11.9999 17.4001C9.19698 17.4001 7.0999 14.8798 7.0999 12.0001C7.0999 9.12032 9.19698 6.60007 11.9999 6.60007C13.2034 6.60007 14.2767 7.0647 15.1099 7.82292C15.1755 7.3905 15.5489 7.05914 15.9996 7.05914C16.4967 7.05914 16.8996 7.46209 16.8996 7.95915V11.9411C16.8998 11.9608 16.8999 11.9804 16.8999 12.0001C16.8999 12.0197 16.8998 12.0394 16.8996 12.059V13.5141C16.8996 14.7468 17.6872 15.6001 18.4996 15.6001C19.0466 15.6001 19.5426 15.2828 19.9499 14.4948C20.3631 13.6952 20.5988 12.5407 20.5981 11.2635L20.5981 11.253L20.5983 11.2434L20.5983 11.2431L20.5983 11.2429L20.5983 11.2428L20.5983 11.2426L20.5983 11.2424L20.5984 11.2375L20.5987 11.2101C20.5988 11.1847 20.5988 11.1458 20.5982 11.0958C20.5968 10.9953 20.5927 10.8521 20.5818 10.6851C20.5591 10.3408 20.5099 9.93984 20.4146 9.6123C19.3718 6.02768 16.0357 3.4001 12.0763 3.4001ZM15.0996 11.9493C15.0758 9.88486 13.6021 8.40007 11.9999 8.40007C10.3845 8.40007 8.8999 9.90926 8.8999 12.0001C8.8999 14.0909 10.3845 15.6001 11.9999 15.6001C13.6021 15.6001 15.0758 14.1153 15.0996 12.0509V11.9493Z" fill="black"/>
</svg>
