<svg width="24" height="24" viewBox="0 0 24 24" fill="none" xmlns="http://www.w3.org/2000/svg">
<path d="M20.08 3.48438C20.4337 3.18201 20.9671 3.19772 21.3017 3.53223C21.6529 3.88356 21.6527 4.4542 21.3017 4.80566L20.0478 6.05957V20.9014C20.0478 21.229 19.8697 21.531 19.5829 21.6895C19.2962 21.8476 18.946 21.8374 18.6689 21.6631L11.6484 18.2422L4.62787 21.6631C4.48033 21.756 4.31181 21.7997 4.1435 21.7988C3.84034 21.8838 3.50198 21.8086 3.26361 21.5703C2.92749 21.2341 2.91276 20.6983 3.21967 20.3447C3.23558 20.3309 3.25238 20.3179 3.26752 20.3027L20.0322 3.53809C20.0492 3.52101 20.0646 3.50243 20.08 3.48438Z" fill="black"/>
<path d="M17.1484 3.00098C17.4147 3.00101 17.6723 3.0379 17.9169 3.10547L3.24799 17.7754V5.90137C3.24799 4.29974 4.54675 3.00098 6.14838 3.00098H17.1484Z" fill="black"/>
</svg>
