<svg width="24" height="24" viewBox="0 0 24 24" fill="none" xmlns="http://www.w3.org/2000/svg">
<g clip-path="url(#clip0_18667_42444)">
<path d="M14.7797 23.0535C13.3741 22.5841 10.3861 20.6764 7.14661 18.1136C3.90711 15.5507 1.36279 13.0818 0.582361 11.8221C0.40601 11.5378 0.483732 11.1624 0.758606 10.9716C0.760503 10.9703 0.7622 10.9692 0.763898 10.9681C0.969944 10.8255 1.18763 10.6946 1.41671 10.5772L2.24639 10.1521L5.42647 8.52168L7.38101 7.51954L10.6137 5.86247L12.6247 4.83136L15.9104 3.14711L20.158 0.969277C20.5207 0.78333 20.9341 1.11035 20.8366 1.50609L19.6949 6.14107L18.8119 9.72616L18.2712 11.9205L17.4024 15.4477L16.8769 17.5804L16.0221 21.0503L15.7992 21.9556C15.7379 22.2053 15.6606 22.4472 15.5693 22.6805C15.5686 22.682 15.5681 22.6836 15.5674 22.6856C15.4457 22.9976 15.0976 23.1599 14.7797 23.0535Z" fill="url(#paint0_radial_18667_42444)"/>
<mask id="mask0_18667_42444" style="mask-type:alpha" maskUnits="userSpaceOnUse" x="0" y="0" width="21" height="24">
<path d="M14.7797 23.0535C13.374 22.5842 10.3861 20.6764 7.14661 18.1136C3.90711 15.5507 1.36278 13.0818 0.582361 11.8221C0.406008 11.5378 0.48373 11.1624 0.758605 10.9716C0.760501 10.9703 0.762198 10.9692 0.763895 10.9681C0.969941 10.8255 1.18763 10.6946 1.41671 10.5772L2.24639 10.1521L5.42647 8.52168L7.38101 7.51954L10.6137 5.86247L12.6247 4.83136L15.9104 3.14711L20.158 0.969277C20.5207 0.78333 20.9341 1.11035 20.8366 1.50609L19.6949 6.14107L18.8119 9.72616L18.2712 11.9205L17.4024 15.4477L16.8769 17.5804L16.0221 21.0503L15.7992 21.9556C15.7379 22.2053 15.6606 22.4472 15.5693 22.6805C15.5685 22.682 15.5681 22.6836 15.5674 22.6856C15.4457 22.9976 15.0976 23.1599 14.7797 23.0535Z" fill="#B3B3B3"/>
</mask>
<g mask="url(#mask0_18667_42444)">
<path d="M16.0219 21.0504C13.7092 19.7555 11.2009 18.0575 8.73457 16.1063C6.26821 14.1551 4.03854 12.1048 2.2462 10.1522L5.42628 8.52182C6.98196 10.1371 8.84879 11.8197 10.8643 13.4142C12.8798 15.0087 14.9469 16.4383 16.8767 17.5805L16.0219 21.0504Z" fill="url(#paint1_linear_18667_42444)"/>
<path d="M17.4023 15.4468C15.6997 14.3731 13.9338 13.1192 12.189 11.7389C10.4442 10.3585 8.8179 8.92874 7.38093 7.51867L10.6136 5.86161C11.7557 6.93199 13.0057 8.00805 14.3187 9.04684C15.6318 10.0856 16.9666 11.0545 18.2711 11.9196L17.4023 15.4468Z" fill="url(#paint2_linear_18667_42444)"/>
<path d="M18.8118 9.72503C17.7604 8.9951 16.6978 8.20686 15.6432 7.37248C14.5885 6.5381 13.5772 5.68565 12.6246 4.83023L15.9103 3.14597C16.5128 3.66311 17.1354 4.17608 17.7729 4.68044C18.4104 5.18481 19.0529 5.67262 19.6948 6.13994L18.8118 9.72503Z" fill="url(#paint3_linear_18667_42444)"/>
</g>
</g>
<defs>
<radialGradient id="paint0_radial_18667_42444" cx="0" cy="0" r="1" gradientUnits="userSpaceOnUse" gradientTransform="translate(9.0326 4.17012) rotate(93.6429) scale(26.5225 23.0422)">
<stop stop-color="#69FFFF"/>
<stop offset="1" stop-color="#1D9696"/>
</radialGradient>
<linearGradient id="paint1_linear_18667_42444" x1="5.84317" y1="9.25898" x2="23.5048" y2="22.6106" gradientUnits="userSpaceOnUse">
<stop stop-color="#FD9BFF"/>
<stop offset="1" stop-color="#985D99"/>
</linearGradient>
<linearGradient id="paint2_linear_18667_42444" x1="10.5401" y1="6.1832" x2="23.3425" y2="15.959" gradientUnits="userSpaceOnUse">
<stop stop-color="#FD9BFF"/>
<stop offset="1" stop-color="#985D99"/>
</linearGradient>
<linearGradient id="paint3_linear_18667_42444" x1="15.3303" y1="3.05106" x2="23.1982" y2="9.13525" gradientUnits="userSpaceOnUse">
<stop stop-color="#FD9BFF"/>
<stop offset="1" stop-color="#985D99"/>
</linearGradient>
<clipPath id="clip0_18667_42444">
<rect width="24" height="24" fill="white"/>
</clipPath>
</defs>
</svg>
