<svg width="24" height="24" viewBox="0 0 24 24" fill="none" xmlns="http://www.w3.org/2000/svg">
<path fill-rule="evenodd" clip-rule="evenodd" d="M11.9498 2.0957C6.75833 2.0957 2.5498 6.30423 2.5498 11.4957C2.5498 16.6872 6.75833 20.8957 11.9498 20.8957H19.4998C20.5215 20.8957 21.3498 20.0674 21.3498 19.0457V11.4957C21.3498 6.30423 17.1413 2.0957 11.9498 2.0957ZM15.5832 9.76426C15.5832 9.2672 15.1803 8.86426 14.6832 8.86426H9.6832C9.18615 8.86426 8.7832 9.2672 8.7832 9.76426C8.7832 10.2613 9.18615 10.6643 9.6832 10.6643H14.6832C15.1803 10.6643 15.5832 10.2613 15.5832 9.76426ZM13.8383 13.7643C13.8383 13.2672 13.4354 12.8643 12.9383 12.8643H9.6832C9.18615 12.8643 8.7832 13.2672 8.7832 13.7643C8.7832 14.2613 9.18615 14.6643 9.6832 14.6643H12.9383C13.4354 14.6643 13.8383 14.2613 13.8383 13.7643Z" fill="black"/>
</svg>
