<svg width="24" height="24" viewBox="0 0 24 24" fill="none" xmlns="http://www.w3.org/2000/svg">
<path fill-rule="evenodd" clip-rule="evenodd" d="M9.36068 3.4001C6.07232 3.4001 3.39961 6.07282 3.39961 9.36121C3.39961 12.2549 5.46986 14.6728 8.20764 15.2107C8.25925 15.1365 8.31843 15.0654 8.38538 14.9984L14.9937 8.38568C14.9961 8.38335 14.9984 8.38103 15.0007 8.37872C15.0667 8.31349 15.1366 8.25574 15.2095 8.20527C14.6705 5.4689 12.2534 3.4001 9.36068 3.4001ZM17.0447 8.26519C16.5109 4.50041 13.2714 1.6001 9.36068 1.6001C5.0782 1.6001 1.59961 5.07872 1.59961 9.36121C1.59961 13.2709 4.49828 16.5096 8.26151 17.0448C8.46863 17.3087 8.77089 17.5084 9.158 17.585C9.54592 17.6627 10.0235 17.6174 10.3909 17.578C10.5226 17.5639 10.6519 17.5488 10.7805 17.5338C11.0715 17.4998 11.3588 17.4663 11.6618 17.4453C12.0904 17.4157 12.47 17.4191 12.7845 17.477C13.0957 17.5342 13.2832 17.6335 13.3982 17.7486L17.5588 21.912C17.5811 21.9315 17.5821 21.9324 17.5821 21.9324L17.5832 21.9334L17.5855 21.9353L17.5903 21.9395L17.6013 21.9488C17.6093 21.9554 17.6184 21.9628 17.6286 21.9709C17.6491 21.987 17.6744 22.0061 17.7044 22.0269C17.7643 22.0686 17.844 22.1184 17.9427 22.1681C18.1401 22.2673 18.4191 22.368 18.767 22.3938C19.5011 22.4481 20.3442 22.1584 21.2043 21.2977C22.1136 20.3879 22.4438 19.5291 22.3957 18.7732C22.3726 18.4108 22.2642 18.1226 22.1536 17.9183C22.0986 17.8166 22.0429 17.7352 21.996 17.6742C21.9725 17.6436 21.9511 17.6179 21.9327 17.5969C21.9234 17.5865 21.915 17.5771 21.9074 17.569L21.8966 17.5577L21.8918 17.5526L21.8895 17.5503L21.8884 17.5492L21.8393 17.5L21.8873 17.548L21.8835 17.5442L17.7438 13.4019C17.6287 13.2867 17.5294 13.0989 17.4721 12.7871C17.4143 12.4722 17.4109 12.0923 17.4405 11.6633C17.4614 11.3601 17.4949 11.0725 17.5289 10.7812C17.5439 10.6526 17.559 10.5232 17.5731 10.3915C17.6124 10.0244 17.6575 9.5477 17.5805 9.16016C17.5047 8.7745 17.3067 8.47272 17.0447 8.26519ZM15.7901 10.1352L10.134 15.7951C10.155 15.7929 10.1766 15.7907 10.1989 15.7883C10.2983 15.7776 10.4084 15.7648 10.5259 15.7511C10.8328 15.7153 11.1901 15.6736 11.5378 15.6496C12.0269 15.6158 12.5792 15.6091 13.11 15.7066C13.644 15.8048 14.2152 16.0197 14.6715 16.4763L18.7535 20.561C18.7813 20.5746 18.8308 20.5936 18.8999 20.5987C19.0039 20.6064 19.3575 20.5994 19.9311 20.0253C20.5958 19.3602 20.6051 18.9784 20.5994 18.8875C20.5958 18.8315 20.5812 18.7959 20.5727 18.779L16.4706 14.6742C16.0144 14.2177 15.7998 13.6463 15.7017 13.1122C15.6042 12.5813 15.611 12.0288 15.6448 11.5395C15.6687 11.1916 15.7104 10.8341 15.7462 10.5269C15.7599 10.4094 15.7727 10.2992 15.7833 10.1997C15.7857 10.1776 15.788 10.1561 15.7901 10.1352ZM8.8801 6.57438C8.38376 6.61778 7.85379 6.85389 7.36489 7.35251C7.01689 7.70742 6.44707 7.71302 6.09216 7.36503C5.73725 7.01703 5.73164 6.44721 6.07964 6.0923C6.83327 5.32369 7.75092 4.86625 8.72329 4.78122C9.69663 4.6961 10.6584 4.99025 11.4838 5.60801C11.8817 5.90586 11.9628 6.46991 11.665 6.86784C11.3671 7.26577 10.8031 7.34691 10.4052 7.04906C9.90352 6.67359 9.37549 6.53106 8.8801 6.57438Z" fill="black"/>
</svg>
