<svg width="24" height="24" viewBox="0 0 24 24" fill="none" xmlns="http://www.w3.org/2000/svg">
<path fill-rule="evenodd" clip-rule="evenodd" d="M11.9996 4.60005C10.4256 4.60005 9.14961 5.87604 9.14961 7.45005C9.14961 9.02406 10.4256 10.3 11.9996 10.3C13.5736 10.3 14.8496 9.02406 14.8496 7.45005C14.8496 5.87604 13.5736 4.60005 11.9996 4.60005ZM7.34961 7.45005C7.34961 4.88192 9.43148 2.80005 11.9996 2.80005C14.5677 2.80005 16.6496 4.88192 16.6496 7.45005C16.6496 10.0182 14.5677 12.1 11.9996 12.1C9.43148 12.1 7.34961 10.0182 7.34961 7.45005ZM11.9996 15.3195C10.7274 15.3195 9.45524 15.4049 8.19167 15.5757C6.01987 15.8693 4.39961 17.7233 4.39961 19.9149V20.1528C4.39961 20.6499 3.99667 21.0528 3.49961 21.0528C3.00255 21.0528 2.59961 20.6499 2.59961 20.1528V19.9149C2.59961 16.8224 4.88593 14.2062 7.95054 13.792C9.29412 13.6103 10.6469 13.5195 11.9996 13.5195C12.4967 13.5195 12.8996 13.9225 12.8996 14.4195C12.8996 14.9166 12.4967 15.3195 11.9996 15.3195ZM21.1109 14.0585C21.4624 14.41 21.4624 14.9798 21.1109 15.3313L19.2724 17.1699L21.1108 19.0083C21.4623 19.3598 21.4623 19.9296 21.1108 20.2811C20.7594 20.6326 20.1895 20.6326 19.838 20.2811L17.9997 18.4428L16.1613 20.2812C15.8099 20.6327 15.24 20.6327 14.8885 20.2813C14.5371 19.9298 14.537 19.36 14.8885 19.0085L16.7269 17.17L14.8883 15.3314C14.5368 14.9799 14.5368 14.41 14.8883 14.0586C15.2398 13.7071 15.8096 13.7071 16.1611 14.0586L17.9996 15.8971L19.8381 14.0586C20.1895 13.7071 20.7594 13.7071 21.1109 14.0585Z" fill="black"/>
</svg>
