<svg width="24" height="24" viewBox="0 0 24 24" fill="none" xmlns="http://www.w3.org/2000/svg">
<path d="M18.2207 2.55179C19.8774 2.55193 21.2203 3.8947 21.2203 5.55147L21.2203 11.5695C21.2202 12.3649 20.9045 13.1283 20.342 13.6908L13.082 20.9507C11.9106 22.1222 10.011 22.1219 8.8394 20.9507L2.8214 14.9327C1.64994 13.7611 1.64987 11.8616 2.8214 10.6901L10.0813 3.43014C10.6439 2.86759 11.4071 2.55185 12.2026 2.55179L18.2207 2.55179ZM16.09 7.68211C15.2805 6.87263 13.9682 6.87268 13.1587 7.68211C12.3492 8.49161 12.3492 9.80392 13.1587 10.6134C13.9682 11.4227 15.2806 11.4229 16.09 10.6134C16.8994 9.80399 16.8993 8.4916 16.09 7.68211Z" fill="black"/>
</svg>
