<svg width="24" height="24" viewBox="0 0 24 24" fill="none" xmlns="http://www.w3.org/2000/svg">
<path d="M20.0996 12C20.0996 7.52649 16.4735 3.90039 12 3.90039C7.52649 3.90039 3.90039 7.52649 3.90039 12C3.90039 16.4735 7.52649 20.0996 12 20.0996C16.4735 20.0996 20.0996 16.4735 20.0996 12ZM21.9004 12C21.9004 17.4676 17.4676 21.9004 12 21.9004C6.53238 21.9004 2.09961 17.4676 2.09961 12C2.09961 6.53238 6.53238 2.09961 12 2.09961C17.4676 2.09961 21.9004 6.53238 21.9004 12Z" fill="black"/>
<path d="M15.2696 9.31826C15.6146 9.02009 16.1359 9.02591 16.4747 9.34561C16.8137 9.66552 16.8496 10.186 16.5714 10.5478L16.5118 10.6181L11.9825 15.4179C11.8135 15.5969 11.5783 15.6989 11.3321 15.7001C11.1166 15.7011 10.9091 15.6243 10.7462 15.4862L10.6788 15.4237L7.65147 12.2733L7.59092 12.204C7.30942 11.845 7.34008 11.3239 7.67588 11.0009C8.01191 10.6779 8.53422 10.6674 8.88193 10.9628L8.94834 11.0263L11.3214 13.495L15.2032 9.38174L15.2696 9.31826Z" fill="black"/>
</svg>
