<svg width="24" height="24" viewBox="0 0 24 24" fill="none" xmlns="http://www.w3.org/2000/svg">
<path fill-rule="evenodd" clip-rule="evenodd" d="M7.17148 1.80005C7.66854 1.80005 8.07148 2.20299 8.07148 2.70005V3.99512H15.9297V2.70005C15.9297 2.20299 16.3326 1.80005 16.8297 1.80005C17.3267 1.80005 17.7297 2.20299 17.7297 2.70005V3.99512H19.0252C20.4921 3.99512 21.6813 5.18429 21.6813 6.65121V18.9439C21.6813 20.4108 20.4921 21.6 19.0252 21.6H4.97641C3.50949 21.6 2.32031 20.4108 2.32031 18.9439V6.65122C2.32031 5.18429 3.50949 3.99512 4.97641 3.99512H6.27148V2.70005C6.27148 2.20299 6.67443 1.80005 7.17148 1.80005ZM16.8198 5.79512C16.8231 5.79515 16.8264 5.79517 16.8297 5.79517C16.833 5.79517 16.8363 5.79515 16.8396 5.79512H19.0252C19.498 5.79512 19.8813 6.1784 19.8813 6.65121V8.3855H4.12031V6.65122C4.12031 6.17841 4.5036 5.79512 4.97641 5.79512H7.16158L7.17148 5.79517L7.18139 5.79512H16.8198ZM4.12031 10.1855H19.8813V18.9439C19.8813 19.4167 19.498 19.8 19.0252 19.8H4.97641C4.5036 19.8 4.12031 19.4167 4.12031 18.9439V10.1855Z" fill="black"/>
</svg>
