<svg width="24" height="24" viewBox="0 0 24 24" fill="none" xmlns="http://www.w3.org/2000/svg">
<path d="M15.6016 15.2849C13.6987 15.2849 12.5166 14.0676 12.5166 11.9978V11.9934C12.5166 9.92358 13.7075 8.71509 15.6016 8.71509C17.2583 8.71509 18.4053 9.77856 18.4624 11.198V11.2419H16.9111L16.9023 11.176C16.8013 10.5168 16.3398 10.051 15.6016 10.051C14.7183 10.051 14.1602 10.7761 14.1602 11.989V11.9934C14.1602 13.2195 14.7227 13.949 15.606 13.949C16.3047 13.949 16.8013 13.5139 16.9111 12.8064L16.9199 12.7581H18.4712L18.4668 12.8064C18.4097 14.2258 17.2495 15.2849 15.6016 15.2849Z" fill="black"/>
<path d="M5.52734 11.9978C5.52734 14.0676 6.70947 15.2849 8.6123 15.2849C10.2603 15.2849 11.4204 14.2258 11.4775 12.8064L11.4819 12.7581H9.93066L9.92188 12.8064C9.81201 13.5139 9.31543 13.949 8.6167 13.949C7.7334 13.949 7.1709 13.2195 7.1709 11.9934V11.989C7.1709 10.7761 7.729 10.051 8.6123 10.051C9.35059 10.051 9.81201 10.5168 9.91309 11.176L9.92188 11.2419H11.4731V11.198C11.416 9.77856 10.269 8.71509 8.6123 8.71509C6.71826 8.71509 5.52734 9.92358 5.52734 11.9934V11.9978Z" fill="black"/>
<path fill-rule="evenodd" clip-rule="evenodd" d="M22.4004 17.25C22.4004 18.8516 21.1016 20.1504 19.5 20.1504H4.5C2.94849 20.1504 1.68127 18.9316 1.60352 17.3994L1.59961 17.25V6.75C1.59962 5.14839 2.89837 3.84961 4.5 3.84961H19.5L19.6494 3.85352C21.1816 3.93127 22.4004 5.19848 22.4004 6.75V17.25ZM20.5947 6.6377C20.5422 6.11983 20.1302 5.70777 19.6123 5.65527L19.5 5.65039H4.5C3.93039 5.65039 3.46151 6.08292 3.40527 6.6377L3.40039 6.75V17.25C3.40039 17.8575 3.89249 18.3496 4.5 18.3496H19.5C20.0696 18.3496 20.5385 17.9171 20.5947 17.3623L20.5996 17.25V6.75L20.5947 6.6377Z" fill="black"/>
</svg>
