<svg width="24" height="24" viewBox="0 0 24 24" fill="none" xmlns="http://www.w3.org/2000/svg">
<path fill-rule="evenodd" clip-rule="evenodd" d="M12.0052 4.64911L11.4633 5.27658C11.1384 5.65275 10.5701 5.69431 10.1939 5.36941C9.81772 5.04451 9.77615 4.47618 10.1011 4.10001L10.6653 3.44667C10.6797 3.4301 10.6946 3.41404 10.7101 3.39856C12.0218 2.08683 13.8009 1.34997 15.6559 1.3501C17.5109 1.35023 19.2899 2.08735 20.6014 3.39925C21.913 4.71116 22.6497 6.49039 22.6496 8.34553C22.6495 10.2007 21.9125 11.9798 20.6007 13.2915C20.5859 13.3063 20.5705 13.3207 20.5547 13.3344L19.9039 13.9C19.5287 14.226 18.9602 14.1862 18.6342 13.811C18.3082 13.4358 18.348 12.8674 18.7232 12.5413L19.3493 11.9972C20.3101 11.0252 20.8495 9.71313 20.8496 8.3454C20.8497 6.96758 20.3025 5.64618 19.3285 4.67188C18.3544 3.69758 17.0333 3.1502 15.6558 3.1501C14.2887 3.15 12.9772 3.68888 12.0052 4.64911ZM16.2936 7.7086C16.6451 8.06005 16.6451 8.6299 16.2937 8.98139L8.98108 16.2949C8.62962 16.6464 8.05978 16.6464 7.70828 16.2949C7.35679 15.9435 7.35676 15.3736 7.70821 15.0221L15.0208 7.70867C15.3723 7.35718 15.9421 7.35715 16.2936 7.7086ZM5.36275 10.1869C5.69189 10.5594 5.65678 11.1281 5.28431 11.4573L4.66521 12.0044C4.18772 12.4806 3.80819 13.0459 3.54818 13.6684C3.28509 14.2982 3.14961 14.9741 3.14961 15.6567C3.14961 16.3393 3.28509 17.0151 3.54818 17.645C3.81128 18.2748 4.19677 18.8462 4.68229 19.3259C5.67045 20.3025 7.00365 20.8501 8.39278 20.8501C9.75994 20.8501 11.0729 20.3197 12.0561 19.372L12.4974 18.7783C12.7939 18.3794 13.3577 18.2964 13.7566 18.5929C14.1555 18.8895 14.2385 19.4533 13.942 19.8522L13.4581 20.5031C13.4309 20.5397 13.4009 20.5742 13.3685 20.6063C12.0434 21.9157 10.2556 22.6501 8.39278 22.6501C6.52994 22.6501 4.7422 21.9158 3.41713 20.6063C2.76217 19.9592 2.24217 19.1884 1.88726 18.3388C1.53236 17.4891 1.34961 16.5775 1.34961 15.6567C1.34961 14.7359 1.53236 13.8242 1.88726 12.9746C2.24217 12.1249 2.76217 11.3542 3.41713 10.707C3.42902 10.6953 3.44122 10.6839 3.45374 10.6728L4.09238 10.1084C4.46484 9.77931 5.03361 9.81442 5.36275 10.1869Z" fill="black"/>
</svg>
