<svg width="24" height="24" viewBox="0 0 24 24" fill="none" xmlns="http://www.w3.org/2000/svg">
<path d="M2.34961 12.35C2.34961 7.15852 6.55852 2.94961 11.75 2.94961C12.2471 2.94961 12.6504 3.35294 12.6504 3.85C12.6504 4.34706 12.2471 4.75039 11.75 4.75039C7.55264 4.75039 4.15039 8.15264 4.15039 12.35C4.15039 16.5474 7.55264 19.9496 11.75 19.9496H19.2998C19.3274 19.9496 19.3496 19.9274 19.3496 19.8998V12.35C19.3496 11.8529 19.7529 11.4496 20.25 11.4496C20.7471 11.4496 21.1504 11.8529 21.1504 12.35V19.8998C21.1504 20.9215 20.3215 21.7504 19.2998 21.7504H11.75C6.55852 21.7504 2.34961 17.5415 2.34961 12.35Z" fill="black"/>
<path d="M18.6492 3.55005V5.64966H20.7498C21.2468 5.64966 21.6501 6.05299 21.6501 6.55005C21.6501 7.04708 21.2468 7.45044 20.7498 7.45044H18.6501V9.55005C18.6501 10.0471 18.2468 10.4504 17.7498 10.4504C17.2527 10.4505 16.8494 10.0471 16.8494 9.55005V7.45044H14.7498C14.2527 7.45044 13.8494 7.04708 13.8494 6.55005C13.8494 6.05299 14.2527 5.64966 14.7498 5.64966H16.8494V3.55005C16.8494 3.05301 17.2527 2.64967 17.7498 2.64966C18.2467 2.64978 18.6492 3.05307 18.6492 3.55005Z" fill="black"/>
</svg>
