<svg width="24" height="24" viewBox="0 0 24 24" fill="none" xmlns="http://www.w3.org/2000/svg">
<path fill-rule="evenodd" clip-rule="evenodd" d="M12 2.09961C17.4676 2.09961 21.9003 6.53244 21.9004 12C21.9004 17.4676 17.4676 21.9004 12 21.9004C6.53238 21.9004 2.09961 17.4676 2.09961 12C2.09968 6.53244 6.53242 2.09961 12 2.09961ZM16.4746 9.3457C16.1358 9.02609 15.6145 9.02021 15.2695 9.31836L15.2031 9.38184L11.3213 13.4951L8.94824 11.0264L8.88184 10.9629C8.53412 10.6675 8.01178 10.678 7.67578 11.001C7.34004 11.324 7.30941 11.8451 7.59082 12.2041L7.65137 12.2734L10.6787 15.4238L10.7461 15.4863C10.909 15.6244 11.1166 15.7012 11.332 15.7002C11.5782 15.699 11.8134 15.597 11.9824 15.418L16.5117 10.6182L16.5713 10.5479C16.8495 10.1861 16.8136 9.66562 16.4746 9.3457Z" fill="black"/>
</svg>
