<svg width="24" height="24" viewBox="0 0 24 24" fill="none" xmlns="http://www.w3.org/2000/svg">
<path d="M10.3584 4.14746C11.1797 3.57275 12.3117 3.77255 12.8867 4.59375C12.9819 4.72977 13.056 4.87432 13.1094 5.02344C13.9065 4.60377 14.9102 4.83263 15.4404 5.58984C15.9707 6.34719 15.8419 7.36913 15.1748 7.97461L15.123 7.97363C15.1669 8.0099 15.2099 8.04785 15.251 8.08887C15.3685 8.20637 15.4673 8.33595 15.5459 8.47363C16.258 7.92207 17.2858 7.97331 17.9395 8.62695C18.5931 9.2806 18.6443 10.3084 18.0928 11.0205C18.2305 11.0991 18.36 11.1979 18.4775 11.3154C19.1862 12.0245 19.1864 13.1739 18.4775 13.8828L18.4443 13.915C18.5772 13.9923 18.7026 14.0884 18.8164 14.2021C19.5252 14.9112 19.5253 16.0606 18.8164 16.7695L17.8027 17.7822C16.7736 18.8113 15.5859 19.6684 14.2842 20.3193L11.7549 21.584C10.9096 22.0064 9.88888 21.8401 9.2207 21.1719L6.26953 18.2217C6.22233 18.1745 6.17803 18.125 6.13574 18.0742C5.48886 17.4252 4.88061 16.7231 4.67578 16.4307L2.28223 13.0127C1.86114 12.4113 1.76836 11.639 2.03516 10.9551L2.73047 9.17285L4.08105 5.2041C4.39491 4.28281 5.33446 3.72838 6.29297 3.89746C7.25491 4.06734 7.93049 4.9073 7.92383 5.85254L10.3584 4.14746ZM14.2969 9.04395C14.1151 8.86215 13.8205 8.86215 13.6387 9.04395L10.4121 12.2695C10.2191 12.4624 9.92889 12.5205 9.67676 12.416C9.42461 12.3115 9.26074 12.065 9.26074 11.792V10.5215C9.26059 10.1772 8.98102 9.89846 8.63672 9.89844C8.32916 9.89842 8.06759 10.1228 8.02051 10.4268L7.37598 14.584C7.37448 14.5936 7.37301 14.6037 7.37109 14.6133L6.99316 16.5029C6.94563 16.7406 7.00331 16.9848 7.14648 17.1758C7.16965 17.1988 7.19152 17.2232 7.21484 17.2461L7.20996 17.25C7.21503 17.2553 7.21938 17.2614 7.22461 17.2666L10.1748 20.2178C10.4322 20.4752 10.8258 20.5388 11.1514 20.376L13.6797 19.1113C14.8517 18.5253 15.9221 17.7547 16.8486 16.8281L17.8613 15.8145C18.0431 15.6326 18.0431 15.338 17.8613 15.1562C17.6795 14.9748 17.3848 14.9746 17.2031 15.1562L17.0273 15.333C16.7637 15.5966 16.3359 15.5966 16.0723 15.333C15.8087 15.0694 15.8087 14.6415 16.0723 14.3779L17.5225 12.9277C17.7043 12.7459 17.7043 12.4513 17.5225 12.2695C17.3406 12.0879 17.046 12.0878 16.8643 12.2695L15.4141 13.7197C15.1505 13.9833 14.7226 13.9833 14.459 13.7197C14.1958 13.4562 14.1958 13.0292 14.459 12.7656L16.9854 10.2393C17.1668 10.0574 17.167 9.76274 16.9854 9.58105C16.8037 9.39937 16.509 9.39959 16.3271 9.58105L13.8008 12.1074C13.5373 12.3706 13.1102 12.3706 12.8467 12.1074C12.5831 11.8438 12.5831 11.4159 12.8467 11.1523L14.2969 9.70215C14.4786 9.5204 14.4785 9.22576 14.2969 9.04395ZM11.7803 5.36816C11.6328 5.15757 11.3424 5.10644 11.1318 5.25391L7.39551 7.87012C7.17191 8.02668 6.87575 8.03333 6.64551 7.88672C6.41525 7.74003 6.29634 7.46906 6.34375 7.2002L6.56348 5.94922C6.62328 5.61006 6.39677 5.28639 6.05762 5.22656C5.7549 5.1734 5.45847 5.34867 5.35938 5.63965L4.00293 9.62207C3.99976 9.63138 3.99674 9.64123 3.99316 9.65039L3.29297 11.4453C3.19021 11.7087 3.22551 12.0067 3.3877 12.2383L5.78125 15.6562C5.78239 15.6579 5.78396 15.6594 5.78516 15.6611L6.04492 14.3623L6.68652 10.2197C6.83552 9.25784 7.66337 8.54784 8.63672 8.54785C9.61373 8.54792 10.4254 9.25827 10.583 10.1904L12.6836 8.08887C12.835 7.93748 13.0075 7.82014 13.1904 7.7334L14.2207 7.0127C14.4311 6.86522 14.4822 6.57478 14.335 6.36426C14.1875 6.15369 13.8971 6.10263 13.6865 6.25L10.7607 8.29883C10.4554 8.51265 10.0341 8.43819 9.82031 8.13281C9.60653 7.82744 9.68097 7.4062 9.98633 7.19238L11.666 6.0166C11.8766 5.86913 11.9277 5.57877 11.7803 5.36816ZM21.1221 5.5127C21.4449 5.32638 21.8576 5.43695 22.0439 5.75977C22.2301 6.08257 22.1196 6.49528 21.7969 6.68164L20.4795 7.44238C20.1568 7.62836 19.744 7.51778 19.5576 7.19531C19.3712 6.87247 19.4818 6.45886 19.8047 6.27246L21.1221 5.5127ZM19.499 3.59863C19.7626 3.33531 20.1896 3.33526 20.4531 3.59863C20.7167 3.86224 20.7167 4.29011 20.4531 4.55371L19.3779 5.62891C19.1144 5.89224 18.6874 5.89213 18.4238 5.62891C18.1602 5.3653 18.1602 4.93743 18.4238 4.67383L19.499 3.59863ZM17.3701 2.25488C17.5565 1.93214 17.9702 1.82144 18.293 2.00781C18.6157 2.19424 18.7264 2.60786 18.54 2.93066L17.7793 4.24707C17.5929 4.5699 17.1803 4.68048 16.8574 4.49414C16.5346 4.30774 16.424 3.89511 16.6104 3.57227L17.3701 2.25488Z" fill="#00B8C1"/>
</svg>
