<svg width="24" height="24" viewBox="0 0 24 24" fill="none" xmlns="http://www.w3.org/2000/svg">
<path d="M21 11.25V18.25C21 18.7804 20.7893 19.2891 20.4142 19.6642C20.0391 20.0393 19.5304 20.25 19 20.25H5C4.46957 20.25 3.96086 20.0393 3.58579 19.6642C3.21071 19.2891 3 18.7804 3 18.25V11.25H21ZM16 2.25C16.2652 2.25 16.5196 2.35536 16.7071 2.54289C16.8946 2.73043 17 2.98478 17 3.25V4.25H19C19.5304 4.25 20.0391 4.46071 20.4142 4.83579C20.7893 5.21086 21 5.71957 21 6.25V9.25H3V6.25C3 5.71957 3.21071 5.21086 3.58579 4.83579C3.96086 4.46071 4.46957 4.25 5 4.25H7V3.25C7 2.98478 7.10536 2.73043 7.29289 2.54289C7.48043 2.35536 7.73478 2.25 8 2.25C8.26522 2.25 8.51957 2.35536 8.70711 2.54289C8.89464 2.73043 9 2.98478 9 3.25V4.25H15V3.25C15 2.98478 15.1054 2.73043 15.2929 2.54289C15.4804 2.35536 15.7348 2.25 16 2.25Z" fill="black"/>
</svg>
