<svg width="24" height="24" viewBox="0 0 24 24" fill="none" xmlns="http://www.w3.org/2000/svg">
<path fill-rule="evenodd" clip-rule="evenodd" d="M11.9996 3.2751C7.18092 3.2751 3.27461 7.18141 3.27461 12.0001C3.27461 16.8188 7.18092 20.7251 11.9996 20.7251C16.8183 20.7251 20.7246 16.8188 20.7246 12.0001C20.7246 7.18141 16.8183 3.2751 11.9996 3.2751ZM1.47461 12.0001C1.47461 6.1873 6.18681 1.4751 11.9996 1.4751C17.8124 1.4751 22.5246 6.1873 22.5246 12.0001C22.5246 17.8129 17.8124 22.5251 11.9996 22.5251C6.18681 22.5251 1.47461 17.8129 1.47461 12.0001ZM12.0084 6.7001C12.3603 6.7001 12.68 6.90526 12.8266 7.22523L16.4103 15.0475C16.6173 15.4993 16.4188 16.0335 15.967 16.2405C15.5151 16.4476 14.9809 16.2491 14.7739 15.7972L14.1185 14.3668H9.89817L9.24283 15.7972C9.03579 16.2491 8.50163 16.4476 8.04975 16.2405C7.59786 16.0335 7.39936 15.4993 7.60639 15.0475L11.1901 7.22523C11.3367 6.90526 11.6564 6.7001 12.0084 6.7001ZM10.7228 12.5668H13.2939L12.0084 9.76088L10.7228 12.5668Z" fill="black"/>
</svg>
