<svg width="24" height="24" viewBox="0 0 24 24" fill="none" xmlns="http://www.w3.org/2000/svg">
<path fill-rule="evenodd" clip-rule="evenodd" d="M3.75 3C2.23122 3 1 4.23122 1 5.75V8.73533C1 9.10165 1.26463 9.41438 1.62591 9.47499C2.68948 9.65342 3.5 10.5797 3.5 11.6938C3.5 12.808 2.68948 13.7343 1.62591 13.9127C1.26463 13.9733 1 14.286 1 14.6524V17.75C1 19.2688 2.23122 20.5 3.75 20.5H20.25C21.7688 20.5 23 19.2688 23 17.75V14.5231C23 14.2053 22.7996 13.9219 22.4999 13.816C21.625 13.5068 21 12.6723 21 11.6938C21 10.7154 21.625 9.88092 22.4999 9.57168C22.7996 9.46576 23 9.18242 23 8.86455V5.75C23 4.23122 21.7688 3 20.25 3H3.75ZM6.49658 12.0095C6.49658 13.5647 7.6709 14.7263 9.23877 14.7263C10.2417 14.7263 11.0415 14.282 11.9111 13.2283L12 13.1204L12.0952 13.2283C12.9585 14.282 13.7583 14.7263 14.7612 14.7263C16.3354 14.7263 17.5034 13.5647 17.5034 12.0095V11.9968C17.5034 10.4417 16.3354 9.27368 14.7612 9.27368C13.7583 9.27368 12.9585 9.71802 12.0952 10.7717L12 10.886L11.9111 10.7717C11.0415 9.71802 10.2417 9.27368 9.23877 9.27368C7.6709 9.27368 6.49658 10.4417 6.49658 11.9968V12.0095ZM11.0352 12.1047C10.3687 12.9236 9.93701 13.2346 9.35938 13.2346C8.63574 13.2346 8.11523 12.7141 8.11523 12.0095V11.9968C8.11523 11.2859 8.63574 10.7654 9.35938 10.7654C9.93701 10.7654 10.3687 11.0764 11.0352 11.8953L11.1177 12.0032L11.0352 12.1047ZM15.8848 12.0095C15.8848 12.7141 15.3706 13.2346 14.6406 13.2346C14.063 13.2346 13.6313 12.9236 12.9712 12.1047L12.8823 12.0032L12.9712 11.8953C13.6313 11.0764 14.063 10.7654 14.6406 10.7654C15.3706 10.7654 15.8848 11.2859 15.8848 11.9968V12.0095Z" fill="white"/>
<path fill-rule="evenodd" clip-rule="evenodd" d="M3.75 3C2.23122 3 1 4.23122 1 5.75V8.73533C1 9.10165 1.26463 9.41438 1.62591 9.47499C2.68948 9.65342 3.5 10.5797 3.5 11.6938C3.5 12.808 2.68948 13.7343 1.62591 13.9127C1.26463 13.9733 1 14.286 1 14.6524V17.75C1 19.2688 2.23122 20.5 3.75 20.5H20.25C21.7688 20.5 23 19.2688 23 17.75V14.5231C23 14.2053 22.7996 13.9219 22.4999 13.816C21.625 13.5068 21 12.6723 21 11.6938C21 10.7154 21.625 9.88092 22.4999 9.57168C22.7996 9.46576 23 9.18242 23 8.86455V5.75C23 4.23122 21.7688 3 20.25 3H3.75ZM6.49658 12.0095C6.49658 13.5647 7.6709 14.7263 9.23877 14.7263C10.2417 14.7263 11.0415 14.282 11.9111 13.2283L12 13.1204L12.0952 13.2283C12.9585 14.282 13.7583 14.7263 14.7612 14.7263C16.3354 14.7263 17.5034 13.5647 17.5034 12.0095V11.9968C17.5034 10.4417 16.3354 9.27368 14.7612 9.27368C13.7583 9.27368 12.9585 9.71802 12.0952 10.7717L12 10.886L11.9111 10.7717C11.0415 9.71802 10.2417 9.27368 9.23877 9.27368C7.6709 9.27368 6.49658 10.4417 6.49658 11.9968V12.0095ZM11.0352 12.1047C10.3687 12.9236 9.93701 13.2346 9.35938 13.2346C8.63574 13.2346 8.11523 12.7141 8.11523 12.0095V11.9968C8.11523 11.2859 8.63574 10.7654 9.35938 10.7654C9.93701 10.7654 10.3687 11.0764 11.0352 11.8953L11.1177 12.0032L11.0352 12.1047ZM15.8848 12.0095C15.8848 12.7141 15.3706 13.2346 14.6406 13.2346C14.063 13.2346 13.6313 12.9236 12.9712 12.1047L12.8823 12.0032L12.9712 11.8953C13.6313 11.0764 14.063 10.7654 14.6406 10.7654C15.3706 10.7654 15.8848 11.2859 15.8848 11.9968V12.0095Z" fill="url(#paint0_linear_19400_21557)"/>
<defs>
<linearGradient id="paint0_linear_19400_21557" x1="12" y1="16.3618" x2="4.63233" y2="-5.63651" gradientUnits="userSpaceOnUse">
<stop offset="0.139197" stop-color="#01C577"/>
<stop offset="1" stop-color="#E9EF47"/>
</linearGradient>
</defs>
</svg>
