<svg width="24" height="24" viewBox="0 0 24 24" fill="none" xmlns="http://www.w3.org/2000/svg">
<path fill-rule="evenodd" clip-rule="evenodd" d="M9.2998 4.10005C9.24458 4.10005 9.19981 4.14482 9.19981 4.20005V7.40005L14.6998 7.40005C15.744 7.40005 16.5998 8.24129 16.5998 9.29572V14.8001H19.7998C19.855 14.8001 19.8998 14.7553 19.8998 14.7001V4.20005C19.8998 4.14482 19.855 4.10005 19.7998 4.10005H9.2998ZM16.5998 16.6H19.7998C20.8491 16.6 21.6998 15.7494 21.6998 14.7001V4.20005C21.6998 3.15071 20.8491 2.30005 19.7998 2.30005H9.2998C8.25046 2.30005 7.39981 3.15071 7.39981 4.20005V7.40006L4.1998 7.40006C3.15046 7.40006 2.2998 8.25072 2.2998 9.30006L2.29981 19.8001C2.29982 20.8494 3.15047 21.7 4.19981 21.7H14.6998C15.7458 21.7 16.5998 20.8555 16.5998 19.8029V16.6ZM14.6998 9.20005L4.19981 9.20006C4.14458 9.20006 4.0998 9.24483 4.0998 9.30006L4.09981 19.8001C4.09981 19.8553 4.14458 19.9 4.19981 19.9H14.6998C14.7584 19.9 14.7998 19.8548 14.7998 19.8029V9.29572C14.7998 9.24558 14.7601 9.20005 14.6998 9.20005Z" fill="black"/>
</svg>
