<svg width="24" height="24" viewBox="0 0 24 24" fill="none" xmlns="http://www.w3.org/2000/svg">
<path fill-rule="evenodd" clip-rule="evenodd" d="M22.3994 17C22.3993 18.6014 21.1014 19.8992 19.5 19.8994H4.5C2.89842 19.8994 1.59969 18.6016 1.59961 17V11H22.3994V17ZM18 13.5C16.8954 13.5 16 14.3954 16 15.5C16 16.6046 16.8954 17.5 18 17.5C19.1046 17.5 20 16.6046 20 15.5C20 14.3954 19.1046 13.5 18 13.5ZM5 12.5C4.44772 12.5 4 12.9477 4 13.5C4 14.0523 4.44772 14.5 5 14.5H9C9.55228 14.5 10 14.0523 10 13.5C10 12.9477 9.55228 12.5 9 12.5H5Z" fill="black"/>
<path d="M19.5 4.09961C21.1014 4.09982 22.3994 5.39851 22.3994 7V9H1.59961V7C1.59961 5.39837 2.89838 4.09961 4.5 4.09961H19.5Z" fill="black"/>
</svg>
