<svg width="24" height="24" viewBox="0 0 24 24" fill="none" xmlns="http://www.w3.org/2000/svg">
<path d="M11.9498 2.55005C13.9219 2.55005 15.7522 3.15736 17.2638 4.19516L15.9637 5.49525C14.7989 4.76939 13.4233 4.35005 11.9498 4.35005C7.75244 4.35005 4.3498 7.75268 4.3498 11.95C4.3498 13.4236 4.76915 14.7991 5.49501 15.9639L4.19491 17.264C3.15711 15.7524 2.5498 13.9222 2.5498 11.95C2.5498 6.75857 6.75833 2.55005 11.9498 2.55005Z" fill="black"/>
<path fill-rule="evenodd" clip-rule="evenodd" d="M19.7853 6.75535L21.6526 4.88796C22.0041 4.53649 22.0041 3.96664 21.6526 3.61517C21.3012 3.26369 20.7313 3.26369 20.3799 3.61517L3.61517 20.3799C3.26369 20.7313 3.26369 21.3012 3.61517 21.6526C3.96664 22.0041 4.53649 22.0041 4.88796 21.6526L6.75511 19.7855C8.24329 20.7741 10.0293 21.35 11.9498 21.35H19.4998C20.5215 21.35 21.3498 20.5218 21.3498 19.5V11.95C21.3498 10.0295 20.7739 8.24353 19.7853 6.75535ZM18.4803 8.06029L8.06005 18.4806C9.19795 19.1598 10.5283 19.55 11.9498 19.55H19.4998C19.5274 19.55 19.5498 19.5277 19.5498 19.5V11.95C19.5498 10.5285 19.1595 9.19819 18.4803 8.06029Z" fill="black"/>
</svg>
