<svg width="24" height="24" viewBox="0 0 24 24" fill="none" xmlns="http://www.w3.org/2000/svg">
<path d="M19.6494 3.85352C21.1816 3.93127 22.4004 5.19848 22.4004 6.75V17.25C22.4004 18.8516 21.1016 20.1504 19.5 20.1504H4.5C2.94849 20.1504 1.68127 18.9316 1.60352 17.3994L1.59961 17.25V6.75C1.59962 5.14839 2.89837 3.84961 4.5 3.84961H19.5L19.6494 3.85352ZM8.49414 8.59961C6.53381 8.59966 5.30079 9.85087 5.30078 11.9932V11.998C5.3009 14.1402 6.52481 15.4003 8.49414 15.4004C10.1997 15.4004 11.4007 14.304 11.46 12.835L11.4648 12.7842H9.8584L9.84961 12.835C9.73581 13.567 9.22201 14.0175 8.49902 14.0176C7.58478 14.0176 7.00195 13.2622 7.00195 11.9932V11.9883C7.00206 10.7332 7.58004 9.98248 8.49414 9.98242C9.25829 9.98242 9.73621 10.4652 9.84082 11.1475L9.84961 11.2158H11.4551V11.1699C11.3959 9.70076 10.2089 8.59961 8.49414 8.59961ZM15.7285 8.59961C13.7682 8.59966 12.5352 9.85087 12.5352 11.9932V11.998C12.5353 14.1402 13.7592 15.4003 15.7285 15.4004C17.4341 15.4004 18.635 14.304 18.6943 12.835L18.6992 12.7842H17.0928L17.084 12.835C16.9702 13.567 16.4564 14.0175 15.7334 14.0176C14.8192 14.0176 14.2363 13.2622 14.2363 11.9932V11.9883C14.2364 10.7332 14.8144 9.98248 15.7285 9.98242C16.4927 9.98242 16.9706 10.4652 17.0752 11.1475L17.084 11.2158H18.6895V11.1699C18.6303 9.70076 17.4433 8.59961 15.7285 8.59961Z" fill="black"/>
</svg>
