<svg width="24" height="24" viewBox="0 0 24 24" fill="none" xmlns="http://www.w3.org/2000/svg">
<path d="M5 4.09863C5.46607 4.09863 5.84953 4.45328 5.89551 4.90723L5.90039 4.99902V16.999L5.90527 17.1113C5.96162 17.666 6.43047 18.0986 7 18.0986H19L19.0918 18.1035C19.5457 18.1495 19.9004 18.533 19.9004 18.999C19.9003 19.465 19.5457 19.8486 19.0918 19.8945L19 19.8994H7C5.44856 19.8994 4.18139 18.6805 4.10352 17.1484L4.09961 16.999V4.99902C4.09961 4.50197 4.50294 4.09863 5 4.09863Z" fill="black"/>
<path d="M18.251 5.5C18.5266 5.0865 19.0855 4.97447 19.499 5.25C19.9124 5.52569 20.0245 6.08453 19.749 6.49805L15.749 12.498C15.5995 12.7222 15.357 12.8679 15.0889 12.8945C14.8206 12.9211 14.5539 12.8263 14.3633 12.6357L11.6689 9.94141L8.2666 15.4707C8.00608 15.8938 7.45156 16.026 7.02832 15.7656C6.60508 15.5052 6.47308 14.9506 6.7334 14.5273L10.7334 8.02734L10.792 7.94336C10.9391 7.75594 11.1561 7.63358 11.3955 7.60547C11.6689 7.5735 11.9421 7.66769 12.1367 7.8623L14.8604 10.5859L18.251 5.5Z" fill="black"/>
</svg>
