<svg width="24" height="24" viewBox="0 0 24 24" fill="none" xmlns="http://www.w3.org/2000/svg">
<path fill-rule="evenodd" clip-rule="evenodd" d="M7.58793 3.20334C7.71411 2.84207 8.05493 2.6001 8.4376 2.6001H15.5626C15.9453 2.6001 16.2861 2.84207 16.4123 3.20334L17.3891 6.0001H21.5001C21.9972 6.0001 22.4001 6.40304 22.4001 6.9001V16.5001C22.4001 19.2063 20.2063 21.4001 17.5001 21.4001H6.5001C3.7939 21.4001 1.6001 19.2063 1.6001 16.5001V6.9001C1.6001 6.40304 2.00304 6.0001 2.5001 6.0001H6.61112L7.58793 3.20334ZM12.0001 10.6906C10.7022 10.6906 9.6501 11.7428 9.6501 13.0406C9.6501 14.3385 10.7022 15.3906 12.0001 15.3906C13.298 15.3906 14.3501 14.3385 14.3501 13.0406C14.3501 11.7428 13.298 10.6906 12.0001 10.6906ZM7.8501 13.0406C7.8501 10.7486 9.70812 8.89062 12.0001 8.89062C14.2921 8.89062 16.1501 10.7486 16.1501 13.0406C16.1501 15.3326 14.2921 17.1906 12.0001 17.1906C9.70812 17.1906 7.8501 15.3326 7.8501 13.0406Z" fill="black"/>
</svg>
