<svg width="24" height="24" viewBox="0 0 24 24" fill="none" xmlns="http://www.w3.org/2000/svg">
<path d="M4.34922 5.94878C4.54612 5.76152 4.82229 5.64899 5.11905 5.64899H18.8819C19.1786 5.64899 19.4548 5.76152 19.6517 5.94878C19.8471 6.13459 19.948 6.3768 19.948 6.61936V17.3708C19.948 17.6134 19.8471 17.8556 19.6517 18.0414C19.4548 18.2286 19.1786 18.3412 18.8819 18.3412H14.3C13.8029 18.3412 13.4 18.7439 13.4 19.2406C13.4 19.7374 13.8029 20.1401 14.3 20.1401H18.8819C19.628 20.1401 20.352 19.8586 20.8925 19.3445C21.4346 18.829 21.748 18.1201 21.748 17.3708V6.61936C21.748 5.8701 21.4346 5.16113 20.8925 4.64562C20.352 4.13156 19.628 3.8501 18.8819 3.8501H5.11905C4.37291 3.8501 3.6489 4.13156 3.10837 4.64562C2.56631 5.16113 2.25293 5.8701 2.25293 6.61936V8.14337C2.25293 8.64012 2.65587 9.04281 3.15293 9.04281C3.64999 9.04281 4.05293 8.64012 4.05293 8.14337V6.61936C4.05293 6.3768 4.15383 6.13459 4.34922 5.94878Z" fill="black"/>
<path d="M12.9591 16.6955C12.8248 16.6954 12.7073 16.606 12.6679 16.4776C11.7002 13.3238 9.20465 10.6975 6.05262 9.73105C5.92391 9.69158 5.83402 9.57387 5.83407 9.43925L5.83446 8.41589C5.83782 7.86674 6.28482 7.42285 6.83497 7.42285H17.1565C17.7088 7.42285 18.1565 7.87029 18.1565 8.42223V15.6963C18.1565 16.2483 17.7088 16.6957 17.1565 16.6957L12.9591 16.6955Z" fill="black"/>
<path d="M2.25293 11.7438C2.25293 11.247 2.65587 10.8443 3.15293 10.8443C7.79847 10.8443 11.5644 14.608 11.5644 19.2506C11.5644 19.7474 11.1615 20.1501 10.6644 20.1501C10.1674 20.1501 9.76442 19.7474 9.76442 19.2506C9.76442 15.6015 6.80435 12.6432 3.15293 12.6432C2.65587 12.6432 2.25293 12.2405 2.25293 11.7438Z" fill="black"/>
<path d="M2.25293 15.2972C2.25293 14.8005 2.65587 14.3978 3.15293 14.3978C5.83474 14.3978 8.00877 16.5705 8.00877 19.2507C8.00877 19.7474 7.60583 20.1501 7.10877 20.1501C6.61171 20.1501 6.20877 19.7474 6.20877 19.2507C6.20877 17.564 4.84062 16.1967 3.15293 16.1967C2.65587 16.1967 2.25293 15.794 2.25293 15.2972Z" fill="black"/>
<path d="M3.4083 20.1357C4.04343 20.1357 4.5583 19.6211 4.5583 18.9864C4.5583 18.3516 4.04343 17.8371 3.4083 17.8371C2.77317 17.8371 2.2583 18.3516 2.2583 18.9864C2.2583 19.6211 2.77317 20.1357 3.4083 20.1357Z" fill="black"/>
</svg>
