<svg width="24" height="24" viewBox="0 0 24 24" fill="none" xmlns="http://www.w3.org/2000/svg">
<path fill-rule="evenodd" clip-rule="evenodd" d="M3.61321 3.6137C3.96469 3.26223 4.53453 3.26223 4.88601 3.6137L11.9996 10.7273L19.1132 3.6137C19.4647 3.26223 20.0345 3.26223 20.386 3.6137C20.7375 3.96517 20.7375 4.53502 20.386 4.88649L13.2724 12.0001L20.386 19.1137C20.7375 19.4652 20.7375 20.035 20.386 20.3865C20.0345 20.738 19.4647 20.738 19.1132 20.3865L11.9996 13.2729L4.88601 20.3865C4.53453 20.738 3.96469 20.738 3.61321 20.3865C3.26174 20.035 3.26174 19.4652 3.61321 19.1137L10.7268 12.0001L3.61321 4.88649C3.26174 4.53502 3.26174 3.96517 3.61321 3.6137Z" fill="black"/>
</svg>
