<svg width="24" height="24" viewBox="0 0 24 24" fill="none" xmlns="http://www.w3.org/2000/svg">
<path fill-rule="evenodd" clip-rule="evenodd" d="M5.15345 3.60656C5.28251 3.2504 5.62078 3.01318 5.99961 3.01318H17.9996C18.3784 3.01318 18.7167 3.2504 18.8458 3.60656L20.8458 9.12578C20.8814 9.22409 20.8996 9.32785 20.8996 9.4324V18.9132C20.8996 20.5148 19.6012 21.8132 17.9996 21.8132H5.99961C4.39798 21.8132 3.09961 20.5148 3.09961 18.9132V9.4324C3.09961 9.32785 3.11783 9.22409 3.15345 9.12578L5.15345 3.60656ZM6.63074 4.81318L5.37582 8.27627H11.3219V4.81318H6.63074ZM13.1219 4.81318V8.27627H18.6234L17.3685 4.81318H13.1219ZM19.0996 10.0763H4.89961V18.9132C4.89961 19.5207 5.3921 20.0132 5.99961 20.0132H17.9996C18.6071 20.0132 19.0996 19.5207 19.0996 18.9132V10.0763Z" fill="black"/>
<path d="M9.38056 14.8782C9.38056 15.5357 8.84757 16.0687 8.19009 16.0687C7.5326 16.0687 6.99961 15.5357 6.99961 14.8782C6.99961 14.2207 7.5326 13.6877 8.19009 13.6877C8.84757 13.6877 9.38056 14.2207 9.38056 14.8782Z" fill="black"/>
<path d="M13.1901 14.8782C13.1901 15.5357 12.6571 16.0687 11.9996 16.0687C11.3421 16.0687 10.8091 15.5357 10.8091 14.8782C10.8091 14.2207 11.3421 13.6877 11.9996 13.6877C12.6571 13.6877 13.1901 14.2207 13.1901 14.8782Z" fill="black"/>
<path d="M16.9996 14.8782C16.9996 15.5357 16.4666 16.0687 15.8091 16.0687C15.1517 16.0687 14.6187 15.5357 14.6187 14.8782C14.6187 14.2207 15.1517 13.6877 15.8091 13.6877C16.4666 13.6877 16.9996 14.2207 16.9996 14.8782Z" fill="black"/>
</svg>
