<svg width="24" height="24" viewBox="0 0 24 24" fill="none" xmlns="http://www.w3.org/2000/svg">
<path fill-rule="evenodd" clip-rule="evenodd" d="M7.64983 2.76195C8.14558 2.3248 8.7912 2.1001 9.44521 2.1001H14.554C15.208 2.1001 15.8536 2.3248 16.3494 2.76195C16.8492 3.20271 17.1496 3.82176 17.1496 4.49524V5.1001H20.4996C20.9967 5.1001 21.3996 5.50304 21.3996 6.0001C21.3996 6.49715 20.9967 6.9001 20.4996 6.9001H19.8996V17.9999C19.8996 20.1538 18.1535 21.8999 15.9996 21.8999H7.99961C5.8457 21.8999 4.09961 20.1538 4.09961 17.9999V6.9001H3.49961C3.00255 6.9001 2.59961 6.49715 2.59961 6.0001C2.59961 5.50304 3.00255 5.1001 3.49961 5.1001H6.84961V4.49524C6.84961 3.82177 7.14998 3.20271 7.64983 2.76195ZM5.89961 6.9001V17.9999C5.89961 19.1597 6.83981 20.0999 7.99961 20.0999H15.9996C17.1594 20.0999 18.0996 19.1597 18.0996 17.9999V6.9001H5.89961ZM15.3496 5.1001H8.64961V4.49524C8.64961 4.3726 8.70157 4.23438 8.84032 4.11204C8.98317 3.98607 9.19636 3.9001 9.44521 3.9001H14.554C14.8029 3.9001 15.016 3.98607 15.1589 4.11204C15.2976 4.23438 15.3496 4.37261 15.3496 4.49524V5.1001ZM9.9 9.36963C10.3971 9.36963 10.8 9.77257 10.8 10.2696V16.2696C10.8 16.7667 10.3971 17.1696 9.9 17.1696C9.40294 17.1696 9 16.7667 9 16.2696V10.2696C9 9.77257 9.40294 9.36963 9.9 9.36963ZM14.1002 9.36963C14.5973 9.36963 15.0002 9.77257 15.0002 10.2696V16.2696C15.0002 16.7667 14.5973 17.1696 14.1002 17.1696C13.6031 17.1696 13.2002 16.7667 13.2002 16.2696V10.2696C13.2002 9.77257 13.6031 9.36963 14.1002 9.36963Z" fill="black"/>
</svg>
