<svg width="24" height="24" viewBox="0 0 24 24" fill="none" xmlns="http://www.w3.org/2000/svg">
<path fill-rule="evenodd" clip-rule="evenodd" d="M2.6001 4.49695C2.6001 3.44921 3.44946 2.59985 4.49719 2.59985H9.19949C10.2472 2.59985 11.0966 3.44921 11.0966 4.49695V9.19894C11.0966 10.2467 10.2472 11.096 9.19949 11.096H4.49719C3.44946 11.096 2.6001 10.2467 2.6001 9.19894V4.49695ZM4.49719 4.39985C4.44357 4.39985 4.4001 4.44332 4.4001 4.49695V9.19894C4.4001 9.25256 4.44357 9.29603 4.49719 9.29603H9.19949C9.25311 9.29603 9.29658 9.25256 9.29658 9.19894V4.49695C9.29658 4.44332 9.25311 4.39985 9.19949 4.39985H4.49719ZM12.9038 4.49695C12.9038 3.44921 13.7532 2.59985 14.8009 2.59985H19.5032C20.5509 2.59985 21.4003 3.44921 21.4003 4.49695V9.19894C21.4003 10.2467 20.5509 11.096 19.5032 11.096H14.8009C13.7532 11.096 12.9038 10.2467 12.9038 9.19894V4.49695ZM14.8009 4.39985C14.7473 4.39985 14.7038 4.44332 14.7038 4.49695V9.19894C14.7038 9.25256 14.7473 9.29603 14.8009 9.29603H19.5032C19.5568 9.29603 19.6003 9.25256 19.6003 9.19894V4.49695C19.6003 4.44332 19.5568 4.39985 19.5032 4.39985H14.8009ZM12.9038 14.8007C12.9038 13.7529 13.7532 12.9036 14.8009 12.9036H19.5032C20.5509 12.9036 21.4003 13.7529 21.4003 14.8007V19.5026C21.4003 20.5504 20.5509 21.3997 19.5032 21.3997H14.8009C13.7532 21.3997 12.9038 20.5504 12.9038 19.5026V14.8007ZM14.8009 14.7036C14.7473 14.7036 14.7038 14.747 14.7038 14.8007V19.5026C14.7038 19.5563 14.7473 19.5997 14.8009 19.5997H19.5032C19.5568 19.5997 19.6003 19.5563 19.6003 19.5026V14.8007C19.6003 14.747 19.5568 14.7036 19.5032 14.7036H14.8009ZM2.6001 14.8009C2.6001 13.7532 3.44946 12.9038 4.49719 12.9038H9.19949C10.2472 12.9038 11.0966 13.7532 11.0966 14.8009V19.5029C11.0966 20.5506 10.2472 21.4 9.19949 21.4H4.49719C3.44946 21.4 2.6001 20.5506 2.6001 19.5029V14.8009ZM4.49719 14.7038C4.44357 14.7038 4.4001 14.7473 4.4001 14.8009V19.5029C4.4001 19.5565 4.44357 19.6 4.49719 19.6H9.19949C9.25311 19.6 9.29658 19.5565 9.29658 19.5029V14.8009C9.29658 14.7473 9.25311 14.7038 9.19949 14.7038H4.49719Z" fill="black"/>
</svg>
