<svg width="32" height="31" viewBox="0 0 32 31" fill="none" xmlns="http://www.w3.org/2000/svg">
<g filter="url(#filter0_dd_30527_23668)">
<path fill-rule="evenodd" clip-rule="evenodd" d="M6.9 15.0374C7.39706 15.0374 7.8 15.4403 7.8 15.9374L7.8 20.9374C7.8 22.0972 8.7402 23.0374 9.9 23.0374H21.9C23.0598 23.0374 24 22.0972 24 20.9374V15.9374C24 15.4403 24.4029 15.0374 24.9 15.0374C25.3971 15.0374 25.8 15.4403 25.8 15.9374V20.9374C25.8 23.0913 24.0539 24.8374 21.9 24.8374H9.9C7.74609 24.8374 6 23.0913 6 20.9374L6 15.9374C6 15.4403 6.40294 15.0374 6.9 15.0374Z" fill="white"/>
<path fill-rule="evenodd" clip-rule="evenodd" d="M15.2636 18.6925C15.615 19.0439 16.1848 19.0439 16.5363 18.6925L20.4258 14.8039C20.7773 14.4524 20.7774 13.8826 20.426 13.5311C20.0745 13.1796 19.5047 13.1795 19.1532 13.5309L16.8 15.8836V6.9C16.8 6.40294 16.3971 6 15.9 6C15.4029 6 15 6.40294 15 6.9V15.8833L12.6477 13.531C12.2963 13.1795 11.7264 13.1795 11.3749 13.531C11.0235 13.8825 11.0235 14.4523 11.3749 14.8038L15.2636 18.6925Z" fill="white"/>
</g>
<defs>
<filter id="filter0_dd_30527_23668" x="-2.09961" y="-2.58154" width="36" height="36" filterUnits="userSpaceOnUse" color-interpolation-filters="sRGB">
<feFlood flood-opacity="0" result="BackgroundImageFix"/>
<feColorMatrix in="SourceAlpha" type="matrix" values="0 0 0 0 0 0 0 0 0 0 0 0 0 0 0 0 0 0 127 0" result="hardAlpha"/>
<feOffset/>
<feGaussianBlur stdDeviation="3"/>
<feComposite in2="hardAlpha" operator="out"/>
<feColorMatrix type="matrix" values="0 0 0 0 0 0 0 0 0 0 0 0 0 0 0 0 0 0 0.16 0"/>
<feBlend mode="normal" in2="BackgroundImageFix" result="effect1_dropShadow_30527_23668"/>
<feColorMatrix in="SourceAlpha" type="matrix" values="0 0 0 0 0 0 0 0 0 0 0 0 0 0 0 0 0 0 127 0" result="hardAlpha"/>
<feOffset/>
<feGaussianBlur stdDeviation="0.5"/>
<feComposite in2="hardAlpha" operator="out"/>
<feColorMatrix type="matrix" values="0 0 0 0 0 0 0 0 0 0 0 0 0 0 0 0 0 0 0.12 0"/>
<feBlend mode="normal" in2="effect1_dropShadow_30527_23668" result="effect2_dropShadow_30527_23668"/>
<feBlend mode="normal" in="SourceGraphic" in2="effect2_dropShadow_30527_23668" result="shape"/>
</filter>
</defs>
</svg>
