<svg width="24" height="24" viewBox="0 0 24 24" fill="none" xmlns="http://www.w3.org/2000/svg">
<path fill-rule="evenodd" clip-rule="evenodd" d="M2.99961 11.6189C3.49667 11.6189 3.89961 12.0218 3.89961 12.5189L3.89961 17.5189C3.89961 18.6787 4.83981 19.6189 5.99961 19.6189H17.9996C19.1594 19.6189 20.0996 18.6787 20.0996 17.5189V12.5189C20.0996 12.0218 20.5026 11.6189 20.9996 11.6189C21.4967 11.6189 21.8996 12.0218 21.8996 12.5189V17.5189C21.8996 19.6728 20.1535 21.4189 17.9996 21.4189H5.99961C3.8457 21.4189 2.09961 19.6728 2.09961 17.5189L2.09961 12.5189C2.09961 12.0218 2.50255 11.6189 2.99961 11.6189Z" fill="black"/>
<path fill-rule="evenodd" clip-rule="evenodd" d="M11.3632 15.274C11.7147 15.6255 12.2845 15.6255 12.6359 15.2741L16.5254 11.3854C16.8769 11.034 16.877 10.4641 16.5256 10.1126C16.1741 9.76111 15.6043 9.76105 15.2528 10.1125L12.8996 12.4652V3.48154C12.8996 2.98449 12.4967 2.58154 11.9996 2.58154C11.5026 2.58154 11.0996 2.98449 11.0996 3.48154V12.4648L8.74733 10.1125C8.39586 9.76108 7.82601 9.76108 7.47454 10.1125C7.12307 10.464 7.12307 11.0339 7.47454 11.3853L11.3632 15.274Z" fill="black"/>
</svg>
