<svg width="24" height="24" viewBox="0 0 24 24" fill="none" xmlns="http://www.w3.org/2000/svg">
<path fill-rule="evenodd" clip-rule="evenodd" d="M5.15345 3.60632C5.28251 3.25016 5.62078 3.01294 5.99961 3.01294H17.9996C18.3784 3.01294 18.7167 3.25016 18.8458 3.60632L20.8458 9.12554C20.8814 9.22384 20.8996 9.3276 20.8996 9.43216V18.9129C20.8996 20.5146 19.6012 21.8129 17.9996 21.8129H5.99961C4.39798 21.8129 3.09961 20.5146 3.09961 18.9129V9.43216C3.09961 9.3276 3.11783 9.22384 3.15345 9.12554L5.15345 3.60632ZM6.63074 4.81294L5.37582 8.27603H11.3219V4.81294H6.63074ZM13.1219 4.81294V8.27603H18.6234L17.3685 4.81294H13.1219ZM19.0996 10.076H4.89961V18.9129C4.89961 19.5205 5.3921 20.0129 5.99961 20.0129H17.9996C18.6071 20.0129 19.0996 19.5205 19.0996 18.9129V10.076ZM15.2222 12.4015C15.6007 12.7237 15.6463 13.2917 15.3242 13.6702L12.1363 17.4155C11.9738 17.6063 11.7391 17.7208 11.4887 17.7313C11.2382 17.7418 10.9948 17.6474 10.8169 17.4708L8.40919 15.0807C8.05643 14.7305 8.05435 14.1607 8.40453 13.8079C8.75471 13.4552 9.32456 13.4531 9.67731 13.8033L11.3954 15.5088L13.9535 12.5035C14.2757 12.125 14.8437 12.0794 15.2222 12.4015Z" fill="black"/>
</svg>
