<svg width="24" height="24" viewBox="0 0 24 24" fill="none" xmlns="http://www.w3.org/2000/svg">
<g clip-path="url(#clip0_21022_29521)">
<path d="M24.001 11.9988C24.001 18.6262 18.6284 23.9988 12.001 23.9988C5.37356 23.9988 0.000976562 18.6262 0.000976562 11.9988C0.000976562 5.37136 5.37356 -0.0012207 12.001 -0.0012207C18.6284 -0.0012207 24.001 5.37136 24.001 11.9988Z" fill="white"/>
<path d="M9.0247 14.2954C9.0247 14.3512 9.04022 14.4013 9.06704 14.444L10.1546 16.0047L10.159 16.0117L10.1682 16.0244C10.1805 16.041 10.2033 16.0704 10.2367 16.1084C10.304 16.1849 10.412 16.2933 10.5624 16.4033C10.8577 16.6192 11.3244 16.8479 12.0037 16.8479C12.6831 16.8479 13.1497 16.6192 13.4451 16.4033C13.5955 16.2933 13.7034 16.1849 13.7707 16.1084C13.8042 16.0704 13.827 16.041 13.8393 16.0244L13.8485 16.0117L13.8529 16.0047L16.9793 11.5181L16.982 11.5142C17.2481 11.1373 17.4043 10.6783 17.4043 10.1805C17.4043 8.90138 16.3673 7.86446 15.0882 7.86446C13.8942 7.86446 13.0132 8.75055 12.762 10.3032C12.4562 12.1927 11.2774 13.848 9.25485 14.019C9.12421 14.0425 9.0247 14.1579 9.0247 14.2954Z" fill="url(#paint0_linear_21022_29521)"/>
<path fill-rule="evenodd" clip-rule="evenodd" d="M12 24C18.6274 24 24 18.6274 24 12C24 5.37258 18.6274 0 12 0C5.37258 0 0 5.37258 0 12C0 18.6274 5.37258 24 12 24ZM6.60323 10.1805C6.60323 8.90138 7.64015 7.86446 8.91926 7.86446C9.2306 7.86446 9.52577 7.92548 9.79489 8.03549C10.1876 8.19604 10.6362 8.0078 10.7967 7.61504C10.9573 7.22229 10.7691 6.77375 10.3763 6.6132C9.92581 6.42904 9.43339 6.32792 8.91926 6.32792C6.79155 6.32792 5.06669 8.05278 5.06669 10.1805C5.06669 11.005 5.32657 11.7711 5.76881 12.3984L5.77026 12.4004L7.7945 15.3054C7.80725 15.3244 7.82035 15.3432 7.83378 15.3618L8.88018 16.8634L8.89014 16.8782C8.9012 16.8944 8.91564 16.9148 8.93352 16.939C8.96923 16.9872 9.01895 17.0504 9.08329 17.1235C9.21161 17.2693 9.40063 17.4573 9.65556 17.6437C10.171 18.0205 10.9487 18.3845 12.0037 18.3845C13.0588 18.3845 13.8365 18.0205 14.3519 17.6437C14.6069 17.4573 14.7959 17.2693 14.9242 17.1235C14.9885 17.0504 15.0383 16.9872 15.074 16.939C15.0918 16.9148 15.1063 16.8944 15.1173 16.8782L15.1273 16.8634L16.6823 14.6319L18.2372 12.4004L18.2387 12.3983C18.6809 11.7711 18.9408 11.005 18.9408 10.1805C18.9408 8.05278 17.2159 6.32792 15.0882 6.32792C12.8755 6.32792 11.569 8.05679 11.2452 10.0578C11.0078 11.5247 10.2053 12.3904 9.13615 12.487L9.13605 12.4859C9.12131 12.4873 9.10662 12.4888 9.09197 12.4905C9.03592 12.4945 8.97836 12.4965 8.91926 12.4965C8.13758 12.4965 7.44611 12.11 7.02549 11.5142C6.75941 11.1373 6.60323 10.6783 6.60323 10.1805Z" fill="url(#paint1_linear_21022_29521)"/>
</g>
<defs>
<linearGradient id="paint0_linear_21022_29521" x1="12" y1="18.3248" x2="-2.72189e-06" y2="-10.176" gradientUnits="userSpaceOnUse">
<stop offset="0.139197" stop-color="#01C577"/>
<stop offset="1" stop-color="#E9EF47"/>
</linearGradient>
<linearGradient id="paint1_linear_21022_29521" x1="12" y1="18.3248" x2="-2.72189e-06" y2="-10.176" gradientUnits="userSpaceOnUse">
<stop offset="0.139197" stop-color="#01C577"/>
<stop offset="1" stop-color="#E9EF47"/>
</linearGradient>
<clipPath id="clip0_21022_29521">
<rect width="24" height="24" fill="white"/>
</clipPath>
</defs>
</svg>
