<svg width="64" height="64" viewBox="0 0 64 64" fill="none" xmlns="http://www.w3.org/2000/svg">
<path fill-rule="evenodd" clip-rule="evenodd" d="M32.0007 6.8335C18.1015 6.8335 6.83398 18.101 6.83398 32.0002C6.83398 45.8993 18.1015 57.1668 32.0007 57.1668C45.8998 57.1668 57.1673 45.8993 57.1673 32.0002C57.1673 18.101 45.8998 6.8335 32.0007 6.8335ZM3.83398 32.0002C3.83398 16.4441 16.4446 3.8335 32.0007 3.8335C47.5567 3.8335 60.1673 16.4441 60.1673 32.0002C60.1673 47.5562 47.5567 60.1668 32.0007 60.1668C16.4446 60.1668 3.83398 47.5562 3.83398 32.0002Z" fill="#AEAEAE"/>
<path fill-rule="evenodd" clip-rule="evenodd" d="M32.0002 19.5001C32.8286 19.5001 33.5002 20.1717 33.5002 21.0001V33.4001C33.5002 34.2285 32.8286 34.9001 32.0002 34.9001C31.1718 34.9001 30.5002 34.2285 30.5002 33.4001V21.0001C30.5002 20.1717 31.1718 19.5001 32.0002 19.5001Z" fill="#AEAEAE"/>
<path d="M34.133 40.8667C34.133 42.0449 33.1779 43 31.9997 43C30.8215 43 29.8664 42.0449 29.8664 40.8667C29.8664 39.6885 30.8215 38.7333 31.9997 38.7333C33.1779 38.7333 34.133 39.6885 34.133 40.8667Z" fill="#AEAEAE"/>
</svg>
