<svg width="64" height="64" viewBox="0 0 64 64" fill="none" xmlns="http://www.w3.org/2000/svg">
<path fill-rule="evenodd" clip-rule="evenodd" d="M9.73311 5.9668H46.2664C48.6413 5.9668 50.5664 7.89197 50.5664 10.2668V25.0668C50.5664 25.8952 49.8949 26.5668 49.0664 26.5668C48.238 26.5668 47.5664 25.8952 47.5664 25.0668V17.5H8.43311V45.7335C8.43311 46.4514 9.01514 47.0335 9.73311 47.0335L23.9998 47.0335C24.8282 47.0335 25.4998 47.705 25.4998 48.5335C25.4998 49.3619 24.8282 50.0335 23.9998 50.0335L9.73311 50.0335C7.35828 50.0335 5.43311 48.1083 5.43311 45.7335V10.2668C5.43311 7.89197 7.35828 5.9668 9.73311 5.9668ZM47.5664 10.2668V14.5H8.43311V10.2668C8.43311 9.54883 9.01514 8.9668 9.73311 8.9668L46.2664 8.9668C46.9844 8.9668 47.5664 9.54883 47.5664 10.2668Z" fill="#AEAEAE"/>
<path d="M43.7334 36.5C44.5618 36.5 45.2334 37.1716 45.2334 38V44.2667C45.2334 45.0951 44.5618 45.7667 43.7334 45.7667C42.905 45.7667 42.2334 45.0951 42.2334 44.2667V38C42.2334 37.1716 42.905 36.5 43.7334 36.5Z" fill="#AEAEAE"/>
<path d="M43.7338 50.5335C44.6174 50.5335 45.3338 49.8171 45.3338 48.9335C45.3338 48.0498 44.6174 47.3335 43.7338 47.3335C42.8501 47.3335 42.1338 48.0498 42.1338 48.9335C42.1338 49.8171 42.8501 50.5335 43.7338 50.5335Z" fill="#AEAEAE"/>
<path fill-rule="evenodd" clip-rule="evenodd" d="M43.7342 29.4333C35.542 29.4333 28.9009 36.0745 28.9009 44.2667C28.9009 52.4589 35.542 59.1 43.7342 59.1C51.9264 59.1 58.5675 52.4589 58.5675 44.2667C58.5675 36.0745 51.9264 29.4333 43.7342 29.4333ZM31.9009 44.2667C31.9009 37.7313 37.1988 32.4333 43.7342 32.4333C50.2696 32.4333 55.5675 37.7313 55.5675 44.2667C55.5675 50.8021 50.2696 56.1 43.7342 56.1C37.1988 56.1 31.9009 50.8021 31.9009 44.2667Z" fill="#AEAEAE"/>
</svg>
