<svg width="64" height="64" viewBox="0 0 64 64" fill="none" xmlns="http://www.w3.org/2000/svg">
<path fill-rule="evenodd" clip-rule="evenodd" d="M32.0004 25.5658C25.1693 25.5658 19.0716 28.6749 15.0688 33.5484C14.543 34.1886 13.5978 34.2813 12.9576 33.7555C12.3175 33.2297 12.2247 32.2845 12.7505 31.6443C17.3025 26.1022 24.2394 22.5658 32.0004 22.5658C39.7602 22.5658 46.709 26.1014 51.2513 31.6457C51.7763 32.2865 51.6825 33.2316 51.0416 33.7566C50.4008 34.2817 49.4557 34.1878 48.9307 33.547C44.9397 28.6757 38.8325 25.5658 32.0004 25.5658Z" fill="#AEAEAE"/>
<path fill-rule="evenodd" clip-rule="evenodd" d="M32.0011 37.8877C28.6567 37.8877 25.6473 39.4898 23.6603 42.0472C23.152 42.7014 22.2097 42.8197 21.5555 42.3114C20.9013 41.8031 20.783 40.8608 21.2913 40.2066C23.8056 36.9705 27.6656 34.8877 32.0011 34.8877C36.339 34.8877 40.1971 36.983 42.7093 40.2045C43.2188 40.8578 43.1022 41.8003 42.4489 42.3098C41.7956 42.8192 40.8531 42.7026 40.3436 42.0493C38.3545 39.4986 35.3432 37.8877 32.0011 37.8877Z" fill="#AEAEAE"/>
<path fill-rule="evenodd" clip-rule="evenodd" d="M32.0007 13.2332C21.7349 13.2332 12.5488 18.1676 6.51822 25.9236C6.00971 26.5776 5.06731 26.6955 4.41332 26.187C3.75932 25.6785 3.64138 24.7361 4.14989 24.0821C10.706 15.6503 20.7413 10.2332 32.0007 10.2332C43.2602 10.2332 53.2955 15.6503 59.8516 24.0821C60.3601 24.7361 60.2421 25.6785 59.5881 26.187C58.9341 26.6955 57.9917 26.5776 57.4832 25.9236C51.4526 18.1676 42.2666 13.2332 32.0007 13.2332Z" fill="#AEAEAE"/>
<path d="M31.9467 52.2665C33.7847 52.2665 35.2747 50.7788 35.2747 48.9437C35.2747 47.1086 33.7847 45.621 31.9467 45.621C30.1087 45.621 28.6187 47.1086 28.6187 48.9437C28.6187 50.7788 30.1087 52.2665 31.9467 52.2665Z" fill="#AEAEAE"/>
</svg>
