<svg width="64" height="64" viewBox="0 0 64 64" fill="none" xmlns="http://www.w3.org/2000/svg">
<path d="M26.2521 29.9261C26.2521 30.8425 25.5092 31.5854 24.5929 31.5854C23.6765 31.5854 22.9336 30.8425 22.9336 29.9261C22.9336 29.0097 23.6765 28.2668 24.5929 28.2668C25.5092 28.2668 26.2521 29.0097 26.2521 29.9261Z" fill="#AEAEAE"/>
<path d="M32.1778 31.5854C33.0942 31.5854 33.8371 30.8425 33.8371 29.9261C33.8371 29.0097 33.0942 28.2668 32.1778 28.2668C31.2614 28.2668 30.5186 29.0097 30.5186 29.9261C30.5186 30.8425 31.2614 31.5854 32.1778 31.5854Z" fill="#AEAEAE"/>
<path d="M41.422 29.9261C41.422 30.8425 40.6792 31.5854 39.7628 31.5854C38.8464 31.5854 38.1035 30.8425 38.1035 29.9261C38.1035 29.0097 38.8464 28.2668 39.7628 28.2668C40.6792 28.2668 41.422 29.0097 41.422 29.9261Z" fill="#AEAEAE"/>
<path fill-rule="evenodd" clip-rule="evenodd" d="M11.834 9.73335C11.834 7.35853 13.7592 5.43335 16.134 5.43335H47.8673C50.2421 5.43335 52.1673 7.35852 52.1673 9.73335V41.2222C52.1673 42.8577 51.5176 44.4262 50.3611 45.5827L39.1834 56.7605C38.6783 57.2655 38.0948 57.6739 37.4613 57.9737C37.1874 58.334 36.7542 58.5666 36.2666 58.5666C36.1008 58.5666 35.9413 58.5397 35.7922 58.49C35.4736 58.5408 35.1496 58.5667 34.8229 58.5667H16.134C13.7592 58.5667 11.834 56.6415 11.834 54.2667V9.73335ZM37.7666 53.9346L47.0013 44.7H39.0666C38.3486 44.7 37.7666 45.282 37.7666 46V53.9346ZM49.1311 41.7H39.0666C36.6918 41.7 34.7666 43.6251 34.7666 46V55.5667H16.134C15.416 55.5667 14.834 54.9846 14.834 54.2667V9.73335C14.834 9.01538 15.416 8.43335 16.134 8.43335H47.8673C48.5853 8.43335 49.1673 9.01538 49.1673 9.73335V41.2222C49.1673 41.3831 49.1551 41.5428 49.1311 41.7Z" fill="#AEAEAE"/>
</svg>
