<svg width="24" height="24" viewBox="0 0 24 24" fill="none" xmlns="http://www.w3.org/2000/svg">
<path d="M3.21094 5.43677C3.21094 4.22864 4.19031 3.24927 5.39844 3.24927H18.6021C19.8102 3.24927 20.7896 4.22864 20.7896 5.43677V18.5618C20.7896 19.7699 19.8102 20.7493 18.6021 20.7493H5.39844C4.19031 20.7493 3.21094 19.7699 3.21094 18.5618V5.43677Z" fill="url(#paint0_linear_19503_11033)"/>
<path d="M11.5394 10.3212C11.7161 9.92357 12.2805 9.92355 12.4573 10.3212L13.0827 11.7279C13.1633 11.9093 13.3432 12.0261 13.5416 12.0261H14.8849C15.3278 12.0261 15.5539 12.5578 15.2466 12.8768L14.1479 14.0177C14.0345 14.1354 13.9855 14.3009 14.0165 14.4614L14.3084 15.9712C14.3892 16.3896 13.9451 16.7123 13.5722 16.5061L12.2413 15.7702C12.0901 15.6866 11.9065 15.6866 11.7553 15.7702L10.4244 16.5061C10.0515 16.7123 9.60736 16.3896 9.68823 15.9712L9.98009 14.4614C10.0111 14.3009 9.9621 14.1354 9.84872 14.0177L8.74993 12.8768C8.44268 12.5578 8.66877 12.0261 9.11168 12.0261H10.4552C10.6536 12.0261 10.8335 11.9093 10.9141 11.7279L11.5394 10.3212Z" fill="white"/>
<path d="M3.20898 5.43604C3.20898 4.22791 4.18836 3.24854 5.39648 3.24854H18.6001C19.8082 3.24854 20.7876 4.22791 20.7876 5.43604V7.62354H3.20898V5.43604Z" fill="#078850"/>
<ellipse opacity="0.7" cx="16.8943" cy="5.37719" rx="0.81615" ry="0.816151" fill="white"/>
<ellipse opacity="0.7" cx="7.10131" cy="5.37719" rx="0.81615" ry="0.816151" fill="white"/>
<defs>
<linearGradient id="paint0_linear_19503_11033" x1="-1.41635" y1="3.24881" x2="19.2504" y2="20.155" gradientUnits="userSpaceOnUse">
<stop stop-color="#BAE8D4"/>
<stop offset="1" stop-color="#5CC99A"/>
</linearGradient>
</defs>
</svg>
