<svg width="24" height="24" viewBox="0 0 24 24" fill="none" xmlns="http://www.w3.org/2000/svg">
<path d="M4.5 12.75C4.5 11.9216 5.17157 11.25 6 11.25C6.82843 11.25 7.5 11.9216 7.5 12.75V20.25C7.5 21.0784 6.82843 21.75 6 21.75C5.17157 21.75 4.5 21.0784 4.5 20.25V12.75Z" fill="black"/>
<path d="M10.5 3.75C10.5 2.92157 11.1716 2.25 12 2.25C12.8284 2.25 13.5 2.92157 13.5 3.75V20.25C13.5 21.0784 12.8284 21.75 12 21.75C11.1716 21.75 10.5 21.0784 10.5 20.25V3.75Z" fill="black"/>
<path d="M16.5 8.25C16.5 7.42157 17.1716 6.75 18 6.75C18.8284 6.75 19.5 7.42157 19.5 8.25V20.25C19.5 21.0784 18.8284 21.75 18 21.75C17.1716 21.75 16.5 21.0784 16.5 20.25V8.25Z" fill="black"/>
</svg>
