<svg width="64" height="64" viewBox="0 0 64 64" fill="none" xmlns="http://www.w3.org/2000/svg">
<path fill-rule="evenodd" clip-rule="evenodd" d="M19.9287 20.701V17.3566C19.9287 11.5019 24.675 6.75562 30.5297 6.75562H33.4718C39.3266 6.75562 44.0728 11.5019 44.0728 17.3566V20.701H56.1981C58.3675 20.701 60.0144 22.6544 59.6477 24.7926L54.5809 54.3365C54.2928 56.0167 52.836 57.2449 51.1313 57.2449H12.8675C11.1628 57.2449 9.706 56.0167 9.41785 54.3365L4.35108 24.7926C3.98437 22.6544 5.63126 20.701 7.80072 20.701H19.9287ZM22.9287 27.3258C22.9287 28.1542 22.2571 28.8258 21.4287 28.8258C20.6003 28.8258 19.9287 28.1542 19.9287 27.3258V23.701H7.80072C7.49079 23.701 7.25552 23.9801 7.30791 24.2855L12.3747 53.8294C12.4158 54.0694 12.624 54.2449 12.8675 54.2449H51.1313C51.3748 54.2449 51.5829 54.0694 51.6241 53.8294L56.6909 24.2855C56.7433 23.9801 56.508 23.701 56.1981 23.701H44.0728V27.3258C44.0728 28.1542 43.4013 28.8258 42.5728 28.8258C41.7444 28.8258 41.0728 28.1542 41.0728 27.3258V23.701H22.9287V27.3258ZM41.0728 20.701V17.3566C41.0728 13.1587 37.6698 9.75562 33.4718 9.75562H30.5297C26.3318 9.75562 22.9287 13.1587 22.9287 17.3566V20.701H41.0728Z" fill="#AEAEAE"/>
</svg>
