<svg width="64" height="64" viewBox="0 0 64 64" fill="none" xmlns="http://www.w3.org/2000/svg">
<path fill-rule="evenodd" clip-rule="evenodd" d="M59.1945 4.80604C59.7803 5.39183 59.7803 6.34157 59.1945 6.92736L15.2164 50.9054C15.155 51.0076 15.0803 51.1041 14.9924 51.1923C14.9032 51.2818 14.8055 51.3577 14.7019 51.42L6.92785 59.194C6.34206 59.7798 5.39231 59.7798 4.80653 59.194C4.22074 58.6082 4.22074 57.6585 4.80653 57.0727L11.8064 50.0729C7.51321 45.2787 4.90039 38.9434 4.90039 32.0001C4.90039 18.0191 15.4877 6.51091 29.0822 5.05543C29.1497 5.04377 29.2179 5.03675 29.2863 5.03436C30.1789 4.9456 31.0844 4.90015 32.0004 4.90015C32.9178 4.90015 33.8246 4.94577 34.7187 5.03486C34.7827 5.03737 34.8464 5.04394 34.9097 5.05456C40.7061 5.67351 45.9576 8.12062 50.0731 11.8061L57.0732 4.80604C57.659 4.22025 58.6087 4.22025 59.1945 4.80604ZM19.5792 42.3L13.9313 47.948C12.4393 46.2589 11.1807 44.3596 10.2056 42.3H19.5792ZM19.2303 39.3H9.02541C8.29457 36.9975 7.90039 34.5451 7.90039 32.0001C7.90039 29.4555 8.29479 27.0029 9.02578 24.7002H19.2252C18.8117 26.9684 18.5654 29.4075 18.5654 32.0001C18.5654 34.6021 18.8136 37.0404 19.2303 39.3ZM22.2851 39.3H22.3999C22.4573 39.3 22.5139 39.3033 22.5697 39.3096L37.179 24.7002H22.2788C21.8342 26.9536 21.5654 29.3938 21.5654 32.0001C21.5654 34.6203 21.837 37.0589 22.2851 39.3ZM22.9978 21.7002H39.9999C40.0572 21.7002 40.1139 21.7034 40.1695 21.7097L40.8152 21.0641C39.5616 16.9036 37.7944 13.5736 36.3126 11.2548C35.5327 10.0345 34.8345 9.09821 34.3366 8.47278C34.18 8.27608 34.0434 8.1103 33.9304 7.97625C33.2937 7.92583 32.6501 7.90015 32.0004 7.90015C31.35 7.90015 30.7056 7.92591 30.0682 7.97648C29.8337 8.25469 29.4975 8.6693 29.0929 9.21288C28.2627 10.328 27.1474 11.9816 26.0301 14.1096C24.9292 16.2062 23.83 18.756 22.9978 21.7002ZM25.768 8.71377C18.8779 10.5532 13.2033 15.3692 10.206 21.7002H19.8892C20.8075 18.179 22.0917 15.1569 23.3739 12.7149C24.2036 11.1349 25.0342 9.79415 25.768 8.71377ZM38.23 8.71271C38.4272 9.00299 38.6313 9.31202 38.8405 9.63938C40.2526 11.8491 41.9024 14.9055 43.1985 18.6807L47.9482 13.931C45.1951 11.4992 41.8836 9.68739 38.23 8.71271Z" fill="#AEAEAE"/>
<path fill-rule="evenodd" clip-rule="evenodd" d="M30.7666 40.8C30.7666 39.9716 31.4382 39.3 32.2666 39.3H41.7136C42.1618 37.0581 42.4333 34.6192 42.4333 31.9999C42.4333 30.822 42.3784 29.6783 42.2773 28.5708C42.202 27.7458 42.8097 27.016 43.6347 26.9406C44.4597 26.8653 45.1896 27.473 45.2649 28.298C45.3741 29.494 45.4333 30.7287 45.4333 31.9999C45.4333 34.6029 45.1851 37.041 44.7685 39.3H54.9754C55.7064 36.9973 56.1008 34.5447 56.1008 32C56.1008 29.4541 55.7065 27.0018 54.9759 24.7H49.9004C49.072 24.7 48.4004 24.0284 48.4004 23.2C48.4004 22.3715 49.072 21.7 49.9004 21.7H53.7956C53.513 21.1031 53.2066 20.5197 52.8776 19.951C52.4628 19.234 52.7078 18.3164 53.4249 17.9015C54.142 17.4867 55.0596 17.7318 55.4744 18.4489C57.7811 22.4364 59.1008 27.0664 59.1008 32C59.1008 46.9669 46.9678 59.1 32.0008 59.1C27.2434 59.1 22.7681 57.8728 18.8788 55.7165L18.1742 55.338C17.4444 54.9459 17.1706 54.0365 17.5627 53.3067C17.9548 52.577 18.8642 52.3032 19.594 52.6952L20.3165 53.0834L20.3254 53.0884C22.1007 54.0735 24.0136 54.8409 26.0285 55.3546C25.0241 53.9549 23.8041 52.0402 22.644 49.6581C22.2813 48.9133 22.591 48.0154 23.3358 47.6527C24.0806 47.29 24.9785 47.5998 25.3412 48.3446C26.5578 50.8429 27.8421 52.7791 28.8162 54.0841C29.3028 54.7362 29.7109 55.2292 29.9928 55.5545C30.1337 55.7171 30.2429 55.8376 30.3144 55.915C30.3501 55.9537 30.3765 55.9815 30.3926 55.9985L30.4102 56.0168L30.4279 56.0352L30.4421 56.0504C30.9574 56.0833 31.4771 56.1 32.0008 56.1C32.5235 56.1 33.0423 56.0833 33.5567 56.0505L33.5717 56.0345L33.5885 56.017L33.5893 56.0163L33.6022 56.0028L33.6291 55.9744L33.6657 55.9353C33.7242 55.8724 33.8141 55.7739 33.9311 55.6406C34.165 55.374 34.5065 54.9686 34.9201 54.4309C35.7477 53.3549 36.8604 51.7533 37.9754 49.6779C39.0648 47.65 40.1536 45.1755 40.9825 42.3H32.2666C31.4382 42.3 30.7666 41.6285 30.7666 40.8ZM40.6181 51.0977C41.897 48.7173 43.1766 45.7631 44.095 42.3H53.7951C50.7598 48.7113 44.9787 53.569 37.9702 55.355C38.7639 54.249 39.6917 52.8221 40.6181 51.0977Z" fill="#AEAEAE"/>
</svg>
