<svg width="64" height="64" viewBox="0 0 64 64" fill="none" xmlns="http://www.w3.org/2000/svg">
<path d="M13.0723 7.50903C12.7961 7.50903 12.5723 7.73289 12.5723 8.00903V18.1868C12.5723 19.0153 11.9007 19.6868 11.0723 19.6868C10.2438 19.6868 9.57227 19.0153 9.57227 18.1868V8.00903C9.57227 6.07604 11.1393 4.50903 13.0723 4.50903H25.3117C26.4042 4.50903 27.434 5.01912 28.0959 5.88814L32.4335 11.5823C32.5281 11.7065 32.6752 11.7794 32.8313 11.7794H50.4936C52.4266 11.7794 53.9936 13.3464 53.9936 15.2794V18.1868C53.9936 19.0153 53.322 19.6868 52.4936 19.6868C51.6652 19.6868 50.9936 19.0153 50.9936 18.1868V15.2794C50.9936 15.0032 50.7698 14.7794 50.4936 14.7794H32.8313C31.7389 14.7794 30.7091 14.2693 30.0471 13.4003L25.7095 7.70605C25.6149 7.5819 25.4678 7.50903 25.3117 7.50903H13.0723Z" fill="#AEAEAE"/>
<path fill-rule="evenodd" clip-rule="evenodd" d="M26.2866 29.0896C24.2791 29.0896 22.5149 29.9325 21.212 31.2002L21.1973 31.2146C19.9104 32.5016 19.0723 34.2747 19.0723 36.3038C19.0723 38.3113 19.9152 40.0755 21.1829 41.3784L21.1973 41.3931L30.2332 50.4287C31.2095 51.405 32.7924 51.405 33.7687 50.4287L42.8045 41.3931C44.0914 40.1061 44.9295 38.333 44.9295 36.3038C44.9295 34.2964 44.0866 32.5322 42.8189 31.2293L42.8045 31.2146C41.5175 29.9277 39.7444 29.0896 37.7152 29.0896C35.7077 29.0896 33.9435 29.9325 32.6406 31.2002L32.626 31.2146C32.4017 31.4389 32.1911 31.6779 31.9962 31.9304C31.8078 31.6842 31.6051 31.4501 31.3903 31.2293L31.3758 31.2146C30.0889 29.9277 28.3157 29.0896 26.2866 29.0896ZM34.7401 33.3432C33.9741 34.1126 33.5009 35.1367 33.5009 36.3038C33.5009 37.1323 32.8293 37.8038 32.0009 37.8038C31.1725 37.8038 30.5009 37.1323 30.5009 36.3038C30.5009 35.1719 30.0324 34.139 29.2473 33.3287C28.4779 32.5628 27.4538 32.0896 26.2866 32.0896C25.1546 32.0896 24.1217 32.5581 23.3114 33.3432C22.5454 34.1126 22.0723 35.1367 22.0723 36.3038C22.0723 37.436 22.541 38.4691 23.3264 39.2795L32.0009 47.9539L40.6832 39.2717C41.4534 38.5015 41.9295 37.4747 41.9295 36.3038C41.9295 35.1719 41.4611 34.139 40.6759 33.3287C39.9065 32.5628 38.8824 32.0896 37.7152 32.0896C36.5833 32.0896 35.5504 32.5581 34.7401 33.3432Z" fill="#AEAEAE"/>
<path fill-rule="evenodd" clip-rule="evenodd" d="M3.61375 25.0583C3.38265 22.9847 5.0057 21.1707 7.09221 21.1707H56.9066C58.9931 21.1707 60.6162 22.9846 60.3851 25.0583L56.8944 56.38C56.6969 58.152 55.1989 59.4923 53.4159 59.4923H10.5829C8.79995 59.4923 7.30196 58.152 7.10447 56.38L3.61375 25.0583ZM7.09221 24.1707C6.79415 24.1707 6.56228 24.4298 6.59529 24.726L10.086 56.0477C10.1142 56.3008 10.3282 56.4923 10.5829 56.4923H53.4159C53.6706 56.4923 53.8846 56.3008 53.9128 56.0477L57.4035 24.726C57.4366 24.4298 57.2047 24.1707 56.9066 24.1707H7.09221Z" fill="#AEAEAE"/>
</svg>
