<svg width="64" height="64" viewBox="0 0 64 64" fill="none" xmlns="http://www.w3.org/2000/svg">
<path d="M7.14264 4.25244C5.20965 4.25244 3.64265 5.81944 3.64264 7.75243L3.64258 55.4747C3.64258 57.4077 5.20958 58.9747 7.14258 58.9747H32.1444C32.9728 58.9747 33.6444 58.3031 33.6444 57.4747C33.6444 56.6462 32.9728 55.9747 32.1444 55.9747H7.14258C6.86644 55.9747 6.64258 55.7508 6.64258 55.4747L6.64264 7.75244C6.64264 7.4763 6.8665 7.25244 7.14264 7.25244H43.8678C44.1439 7.25244 44.3678 7.4763 44.3678 7.75244L44.3678 30.8138C44.3678 31.6423 45.0393 32.3138 45.8678 32.3138C46.6962 32.3138 47.3678 31.6423 47.3678 30.8138L47.3678 7.75244C47.3678 5.81944 45.8008 4.25244 43.8678 4.25244H7.14264Z" fill="#AEAEAE"/>
<path d="M15.0469 15.1453C14.2184 15.1453 13.5469 15.8168 13.5469 16.6453C13.5469 17.4737 14.2184 18.1453 15.0469 18.1453H35.9612C36.7896 18.1453 37.4612 17.4737 37.4612 16.6453C37.4612 15.8168 36.7896 15.1453 35.9612 15.1453H15.0469Z" fill="#AEAEAE"/>
<path d="M13.5469 27.5884C13.5469 26.76 14.2184 26.0884 15.0469 26.0884H35.9612C36.7896 26.0884 37.4612 26.76 37.4612 27.5884C37.4612 28.4168 36.7896 29.0884 35.9612 29.0884H15.0469C14.2184 29.0884 13.5469 28.4168 13.5469 27.5884Z" fill="#AEAEAE"/>
<path d="M15.0469 36.5337C14.2184 36.5337 13.5469 37.2053 13.5469 38.0337C13.5469 38.8621 14.2184 39.5337 15.0469 39.5337H26.4812C27.3096 39.5337 27.9812 38.8621 27.9812 38.0337C27.9812 37.2053 27.3096 36.5337 26.4812 36.5337H15.0469Z" fill="#AEAEAE"/>
<path fill-rule="evenodd" clip-rule="evenodd" d="M49.9739 34.4429C51.3407 33.0761 53.5568 33.0761 54.9236 34.4429L59.4109 38.9302C60.7777 40.297 60.7777 42.5131 59.4109 43.8799L46.2865 57.0043C45.5585 57.7323 44.5468 58.1029 43.5208 58.0173L39.3789 57.6719C37.6755 57.5299 36.3239 56.1783 36.1819 54.4749L35.8365 50.333C35.7509 49.307 36.1215 48.2953 36.8495 47.5673L49.9739 34.4429ZM52.8023 36.5642C52.607 36.3689 52.2904 36.3689 52.0952 36.5642L49.6448 39.0146L54.8392 44.209L57.2896 41.7586C57.4848 41.5634 57.4848 41.2468 57.2896 41.0515L52.8023 36.5642ZM52.7178 46.3304L47.5234 41.136L38.9708 49.6886C38.8668 49.7926 38.8139 49.9371 38.8261 50.0837L39.1715 54.2256C39.1918 54.4689 39.3849 54.662 39.6282 54.6823L43.7701 55.0277C43.9167 55.0399 44.0612 54.987 44.1652 54.883L52.7178 46.3304Z" fill="#AEAEAE"/>
</svg>
