<svg width="64" height="64" viewBox="0 0 64 64" fill="none" xmlns="http://www.w3.org/2000/svg">
<path d="M33.3438 4.26611C32.5153 4.26611 31.8438 4.93769 31.8438 5.76611C31.8438 6.59454 32.5153 7.26611 33.3438 7.26611H39.7438C40.5722 7.26611 41.2438 6.59454 41.2438 5.76611C41.2438 4.93769 40.5722 4.26611 39.7438 4.26611H33.3438Z" fill="#AEAEAE"/>
<path d="M16.248 29.2053C15.4196 29.2053 14.748 29.8769 14.748 30.7053C14.748 31.5337 15.4196 32.2053 16.248 32.2053H35.6736C36.502 32.2053 37.1736 31.5337 37.1736 30.7053C37.1736 29.8769 36.502 29.2053 35.6736 29.2053H16.248Z" fill="#AEAEAE"/>
<path d="M16.2481 37.1631C15.4197 37.1631 14.7481 37.8347 14.7481 38.6631C14.7481 39.4916 15.4197 40.1631 16.2481 40.1631H35.6736C36.502 40.1631 37.1736 39.4916 37.1736 38.6631C37.1736 37.8347 36.502 37.1631 35.6736 37.1631H16.2481Z" fill="#AEAEAE"/>
<path d="M16.2481 45.1194C15.4197 45.1194 14.7481 45.791 14.7481 46.6194C14.7481 47.4478 15.4197 48.1194 16.2481 48.1194H25.9608C26.7893 48.1194 27.4608 47.4478 27.4608 46.6194C27.4608 45.791 26.7893 45.1194 25.9608 45.1194H16.2481Z" fill="#AEAEAE"/>
<path fill-rule="evenodd" clip-rule="evenodd" d="M9.84435 16.2146C7.44665 16.2146 5.50293 18.1583 5.50293 20.556V55.95C5.50293 58.3477 7.44665 60.2914 9.84435 60.2914H41.7318C44.1295 60.2914 46.0732 58.3477 46.0732 55.95V20.556C46.0732 18.1583 44.1295 16.2146 41.7318 16.2146H9.84435ZM8.50293 20.556C8.50293 19.8152 9.1035 19.2146 9.84435 19.2146H41.7318C42.4727 19.2146 43.0732 19.8152 43.0732 20.556V55.95C43.0732 56.6908 42.4727 57.2914 41.7318 57.2914H9.84435C9.1035 57.2914 8.50293 56.6908 8.50293 55.95V20.556Z" fill="#AEAEAE"/>
<path d="M48.3145 5.76611C48.3145 4.93769 48.986 4.26611 49.8145 4.26611H53.4145C55.7893 4.26611 57.7145 6.19129 57.7145 8.56611V12.1661C57.7145 12.9945 57.0429 13.6661 56.2145 13.6661C55.386 13.6661 54.7145 12.9945 54.7145 12.1661V8.56611C54.7145 7.84814 54.1324 7.26611 53.4145 7.26611H49.8145C48.986 7.26611 48.3145 6.59454 48.3145 5.76611Z" fill="#AEAEAE"/>
<path d="M23.2725 4.26611C24.1009 4.26611 24.7725 4.93769 24.7725 5.76611C24.7725 6.59454 24.1009 7.26611 23.2725 7.26611H19.6725C18.9545 7.26611 18.3725 7.84814 18.3725 8.56611V12.1661C18.3725 12.9945 17.7009 13.6661 16.8725 13.6661C16.044 13.6661 15.3725 12.9945 15.3725 12.1661V8.56611C15.3725 6.19129 17.2976 4.26611 19.6725 4.26611H23.2725Z" fill="#AEAEAE"/>
<path d="M48.3145 47.0005C48.3145 47.8289 48.986 48.5005 49.8145 48.5005H53.4145C55.7893 48.5005 57.7145 46.5753 57.7145 44.2005V40.6005C57.7145 39.7721 57.0429 39.1005 56.2145 39.1005C55.386 39.1005 54.7145 39.7721 54.7145 40.6005V44.2005C54.7145 44.9185 54.1324 45.5005 53.4145 45.5005H49.8145C48.986 45.5005 48.3145 46.1721 48.3145 47.0005Z" fill="#AEAEAE"/>
<path d="M57.7139 18.6047C57.7139 17.7763 57.0423 17.1047 56.2139 17.1047C55.3854 17.1047 54.7139 17.7763 54.7139 18.6047V23.1641C54.7139 23.9925 55.3854 24.6641 56.2139 24.6641C57.0423 24.6641 57.7139 23.9925 57.7139 23.1641V18.6047Z" fill="#AEAEAE"/>
<path d="M56.2139 28.1028C57.0423 28.1028 57.7139 28.7744 57.7139 29.6028V34.1622C57.7139 34.9906 57.0423 35.6622 56.2139 35.6622C55.3854 35.6622 54.7139 34.9906 54.7139 34.1622V29.6028C54.7139 28.7744 55.3854 28.1028 56.2139 28.1028Z" fill="#AEAEAE"/>
</svg>
