<svg width="64" height="64" viewBox="0 0 64 64" fill="none" xmlns="http://www.w3.org/2000/svg">
<path fill-rule="evenodd" clip-rule="evenodd" d="M46.2664 5.9668H9.73311C7.35828 5.9668 5.43311 7.89197 5.43311 10.2668V45.7335C5.43311 48.1083 7.35828 50.0335 9.73311 50.0335L23.9998 50.0335C24.8282 50.0335 25.4998 49.3619 25.4998 48.5335C25.4998 47.705 24.8282 47.0335 23.9998 47.0335L9.73311 47.0335C9.01514 47.0335 8.43311 46.4514 8.43311 45.7335V17.5H47.5664V25.0668C47.5664 25.8952 48.238 26.5668 49.0664 26.5668C49.8949 26.5668 50.5664 25.8952 50.5664 25.0668V10.2668C50.5664 7.89197 48.6413 5.9668 46.2664 5.9668ZM47.5664 14.5V10.2668C47.5664 9.54883 46.9844 8.9668 46.2664 8.9668L9.73311 8.9668C9.01514 8.9668 8.43311 9.54883 8.43311 10.2668V14.5H47.5664Z" fill="#AEAEAE"/>
<path d="M45.2334 38.3999C45.2334 37.5715 44.5618 36.8999 43.7334 36.8999C42.905 36.8999 42.2334 37.5715 42.2334 38.3999V43.8666C42.2334 45.2105 43.3228 46.2999 44.6667 46.2999H49.6001C50.4285 46.2999 51.1001 45.6283 51.1001 44.7999C51.1001 43.9715 50.4285 43.2999 49.6001 43.2999H45.2334V38.3999Z" fill="#AEAEAE"/>
<path fill-rule="evenodd" clip-rule="evenodd" d="M28.8999 44.2667C28.8999 36.0745 35.541 29.4333 43.7332 29.4333C51.9255 29.4333 58.5666 36.0745 58.5666 44.2667C58.5666 52.4589 51.9255 59.1 43.7332 59.1C35.541 59.1 28.8999 52.4589 28.8999 44.2667ZM43.7332 32.4333C37.1979 32.4333 31.8999 37.7313 31.8999 44.2667C31.8999 50.8021 37.1979 56.1 43.7332 56.1C50.2686 56.1 55.5666 50.8021 55.5666 44.2667C55.5666 37.7313 50.2686 32.4333 43.7332 32.4333Z" fill="#AEAEAE"/>
</svg>
