<svg width="64" height="64" viewBox="0 0 64 64" fill="none" xmlns="http://www.w3.org/2000/svg">
<path d="M32.9668 21.4668C32.9668 20.6384 32.2952 19.9668 31.4668 19.9668C30.6384 19.9668 29.9668 20.6384 29.9668 21.4668V30.0001C29.9668 30.8286 30.6384 31.5001 31.4668 31.5001C32.2952 31.5001 32.9668 30.8286 32.9668 30.0001V21.4668Z" fill="#AEAEAE"/>
<path d="M33.5997 36.4002C33.5997 37.5784 32.6445 38.5335 31.4663 38.5335C30.2881 38.5335 29.333 37.5784 29.333 36.4002C29.333 35.222 30.2881 34.2668 31.4663 34.2668C32.6445 34.2668 33.5997 35.222 33.5997 36.4002Z" fill="#AEAEAE"/>
<path fill-rule="evenodd" clip-rule="evenodd" d="M16.133 4.90015C13.7582 4.90015 11.833 6.82532 11.833 9.20015V53.7335C11.833 56.1083 13.7582 58.0335 16.133 58.0335H34.8219C35.149 58.0335 35.4734 58.0075 35.7924 57.9567C35.9414 58.0063 36.1009 58.0332 36.2666 58.0332C36.7543 58.0332 37.1876 57.8004 37.4616 57.4399C38.0945 57.1402 38.6777 56.732 39.1824 56.2273L50.3602 45.0495C51.5166 43.893 52.1663 42.3245 52.1663 40.689V9.20015C52.1663 6.82532 50.2412 4.90015 47.8663 4.90015H16.133ZM37.7666 53.4004L47.0005 44.1665H39.0666C38.3486 44.1665 37.7666 44.7485 37.7666 45.4665V53.4004ZM49.1302 41.1665C49.1541 41.0094 49.1663 40.8499 49.1663 40.689V9.20015C49.1663 8.48218 48.5843 7.90015 47.8663 7.90015H16.133C15.415 7.90015 14.833 8.48217 14.833 9.20015V53.7335C14.833 54.4514 15.415 55.0335 16.133 55.0335H34.7666V45.4665C34.7666 43.0917 36.6918 41.1665 39.0666 41.1665H49.1302Z" fill="#AEAEAE"/>
</svg>
