<svg width="64" height="64" viewBox="0 0 64 64" fill="none" xmlns="http://www.w3.org/2000/svg">
<path fill-rule="evenodd" clip-rule="evenodd" d="M32.9014 10.3787C32.9014 9.55024 33.5729 8.87866 34.4014 8.87866C35.2298 8.87866 35.9014 9.55023 35.9014 10.3787V22.6409C35.9014 23.4693 35.2298 24.1409 34.4014 24.1409C33.5729 24.1409 32.9014 23.4693 32.9014 22.6409V10.3787ZM3.64258 11.7649C3.64258 10.9365 4.31415 10.2649 5.14258 10.2649H9.04144C10.7515 10.2649 12.2398 11.4342 12.6446 13.0956L13.0618 14.8081H27.6676C28.496 14.8081 29.1676 15.4797 29.1676 16.3081C29.1676 17.1365 28.496 17.8081 27.6676 17.8081H13.7926L18.7522 38.1663L50.7822 36.5488C51.0911 36.5332 51.3541 36.3191 51.4321 36.0199L55.9471 18.6943C56.0641 18.2455 55.7253 17.8071 55.2615 17.8071H40.7144C39.886 17.8071 39.2144 17.1356 39.2144 16.3071C39.2144 15.4787 39.886 14.8071 40.7144 14.8071H55.2615C57.6894 14.8071 59.4624 17.1014 58.8501 19.4508L54.3352 36.7764C53.927 38.3427 52.5501 39.4634 50.9335 39.545L19.4751 41.1336L20.4443 45.112C20.5217 45.4294 20.806 45.6528 21.1327 45.6528H52.9993C53.8277 45.6528 54.4993 46.3244 54.4993 47.1528C54.4993 47.9812 53.8277 48.6528 52.9993 48.6528H21.1327C19.4227 48.6528 17.9343 47.4835 17.5296 45.822L9.72983 13.8057C9.6525 13.4883 9.36815 13.2649 9.04144 13.2649H5.14258C4.31415 13.2649 3.64258 12.5933 3.64258 11.7649ZM47.3654 53.5471C46.5498 53.5471 45.8887 54.2083 45.8887 55.0238C45.8887 55.8394 46.5498 56.5005 47.3654 56.5005C48.1809 56.5005 48.8421 55.8394 48.8421 55.0238C48.8421 54.2083 48.1809 53.5471 47.3654 53.5471ZM42.8887 55.0238C42.8887 52.5514 44.893 50.5471 47.3654 50.5471C49.8378 50.5471 51.8421 52.5514 51.8421 55.0238C51.8421 57.4962 49.8378 59.5005 47.3654 59.5005C44.893 59.5005 42.8887 57.4962 42.8887 55.0238ZM21.2139 55.0238C21.2139 54.2083 21.875 53.5471 22.6906 53.5471C23.5061 53.5471 24.1673 54.2083 24.1673 55.0238C24.1673 55.8394 23.5061 56.5005 22.6906 56.5005C21.875 56.5005 21.2139 55.8394 21.2139 55.0238ZM22.6906 50.5471C20.2182 50.5471 18.2139 52.5514 18.2139 55.0238C18.2139 57.4962 20.2182 59.5005 22.6906 59.5005C25.163 59.5005 27.1673 57.4962 27.1673 55.0238C27.1673 52.5514 25.163 50.5471 22.6906 50.5471ZM32.5299 27.5881C32.5299 28.6215 33.3677 29.4593 34.4012 29.4593C35.4347 29.4593 36.2725 28.6215 36.2725 27.5881C36.2725 26.5546 35.4347 25.7168 34.4012 25.7168C33.3677 25.7168 32.5299 26.5546 32.5299 27.5881Z" fill="#AEAEAE"/>
</svg>
