<svg width="64" height="64" viewBox="0 0 64 64" fill="none" xmlns="http://www.w3.org/2000/svg">
<path fill-rule="evenodd" clip-rule="evenodd" d="M25.1885 44.591C18.2342 38.1859 17.7891 27.3559 24.1942 20.4016C30.5993 13.4473 41.4292 13.0021 48.3835 19.4073C54.9667 25.4705 55.7169 35.4989 50.3449 42.4513L59.2092 50.6156C59.8185 51.1768 59.8575 52.1258 59.2963 52.7351C58.7351 53.3445 57.7861 53.3835 57.1768 52.8222L48.3122 44.6577C41.8241 50.5789 31.7705 50.6531 25.1885 44.591ZM26.4008 22.434C21.1182 28.1696 21.4854 37.1017 27.2209 42.3843C32.9565 47.667 41.8886 47.2998 47.1712 41.5642C52.4539 35.8286 52.0867 26.8966 46.3511 21.6139C40.6155 16.3313 31.6835 16.6984 26.4008 22.434Z" fill="#AEAEAE"/>
<path d="M5.1416 19.7301C4.31317 19.7301 3.6416 20.4016 3.6416 21.2301C3.6416 22.0585 4.31317 22.7301 5.1416 22.7301L17.2849 22.7301C18.1133 22.7301 18.7849 22.0585 18.7849 21.2301C18.7849 20.4016 18.1133 19.7301 17.2849 19.7301L5.1416 19.7301Z" fill="#AEAEAE"/>
<path d="M3.6416 42.7657C3.6416 41.9373 4.31317 41.2657 5.1416 41.2657L17.2849 41.2657C18.1133 41.2657 18.7849 41.9373 18.7849 42.7657C18.7849 43.5941 18.1133 44.2657 17.2849 44.2657L5.1416 44.2657C4.31317 44.2657 3.6416 43.5941 3.6416 42.7657Z" fill="#AEAEAE"/>
<path d="M5.1416 30.4979C4.31317 30.4979 3.6416 31.1694 3.6416 31.9979C3.6416 32.8263 4.31317 33.4979 5.1416 33.4979H11.1528C11.9812 33.4979 12.6528 32.8263 12.6528 31.9979C12.6528 31.1694 11.9812 30.4979 11.1528 30.4979H5.1416Z" fill="#AEAEAE"/>
</svg>
