<svg width="24" height="24" viewBox="0 0 24 24" fill="none" xmlns="http://www.w3.org/2000/svg">
<path fill-rule="evenodd" clip-rule="evenodd" d="M19.7451 3.63085C20.0964 3.27954 20.6671 3.27987 21.0186 3.63085C21.37 3.98232 21.37 4.55282 21.0186 4.90429L18.1572 7.76464L19.7305 7.79687C22.0004 7.84375 22.9425 10.7248 21.1387 12.1035L17.8408 14.6221L19.0352 18.5986C19.6895 20.7794 17.2228 22.56 15.3584 21.2529L12 18.8975L8.64259 21.2529C7.43757 22.0978 5.98222 21.6519 5.27931 20.6426L4.25391 21.6689C3.90243 22.0203 3.33191 22.0204 2.98048 21.6689C2.62953 21.3175 2.62928 20.7468 2.98048 20.3955L5.04591 18.3291L5.05665 18.292L7.7422 15.6064L7.73145 15.6435L14.21 9.16503L14.2031 9.1455L15.6358 7.71288L15.6611 7.71386L19.7451 3.63085ZM6.66505 19.2568C6.63428 19.7334 7.18418 20.0774 7.60938 19.7793L12 16.7002L16.3916 19.7793C16.8576 20.1059 17.4739 19.6613 17.3106 19.1162L15.7598 13.9482L20.0459 10.6738C20.4965 10.3292 20.2613 9.60888 19.6943 9.59667L16.3936 9.52831L6.66505 19.2568Z" fill="black"/>
<path d="M9.73145 3.81737C10.4755 1.6612 13.5256 1.66107 14.2695 3.81737L14.9649 5.83691L13.5498 7.25194L12.5674 4.40429C12.3814 3.86534 11.6197 3.86546 11.4336 4.40429L9.6797 9.48632L4.30665 9.59667C3.73923 9.6085 3.50408 10.3292 3.95509 10.6738L7.45411 13.3476L6.14942 14.6523L6.15919 14.6221L2.86231 12.1035C1.05798 10.725 1.99944 7.84379 4.26954 7.79687L8.38673 7.71288L9.73145 3.81737Z" fill="black"/>
</svg>
