<svg width="24" height="24" viewBox="0 0 24 24" fill="none" xmlns="http://www.w3.org/2000/svg">
<path d="M14.0753 6.89677C13.2447 6.51779 12.5246 6.90308 12.0004 7.58841C11.4793 6.90308 10.7592 6.51779 9.92544 6.89677C9.00641 7.31365 8.74112 8.42533 9.26854 9.33173C9.55891 9.82796 10.3637 10.5755 11.0964 11.256C11.2849 11.431 11.4686 11.6016 11.6375 11.7624C11.8398 11.9549 12.161 11.9549 12.3632 11.7624C12.5322 11.6016 12.7159 11.431 12.9043 11.256C13.637 10.5755 14.4418 9.82796 14.7322 9.33173C15.2596 8.42533 14.9912 7.31365 14.0753 6.89677Z" fill="black"/>
<path fill-rule="evenodd" clip-rule="evenodd" d="M4.08789 4.49985L4.08789 9.64266C3.07536 9.59929 2.09961 10.3863 2.09961 11.5445V19.4998C2.09961 20.5492 2.95027 21.3998 3.99961 21.3998H19.9996C21.0489 21.3998 21.8996 20.5492 21.8996 19.4998V11.5445C21.8996 10.3863 20.9239 9.59929 19.9113 9.64266V4.49985C19.9113 3.45051 19.0607 2.59985 18.0113 2.59985H5.98789C4.93855 2.59985 4.08789 3.45051 4.08789 4.49985ZM18.1113 10.5873V4.49985C18.1113 4.44463 18.0666 4.39985 18.0113 4.39985L5.98789 4.39985C5.93266 4.39985 5.88789 4.44462 5.88789 4.49985L5.88789 10.5873C5.88789 10.5942 5.88861 10.6011 5.89 10.6077L7.28782 11.6949L11.9393 15.2099C11.975 15.2369 12.0242 15.2369 12.0599 15.2099L16.7114 11.695L18.1092 10.6077C18.1106 10.6011 18.1113 10.5942 18.1113 10.5873Z" fill="black"/>
</svg>
