<svg width="24" height="24" viewBox="0 0 24 24" fill="none" xmlns="http://www.w3.org/2000/svg">
<rect x="1.25879" y="1.25903" width="21.5" height="21.5" rx="3" fill="black" fill-opacity="0.1" stroke="white" stroke-opacity="0.5" stroke-width="1.5"/>
<path fill-rule="evenodd" clip-rule="evenodd" d="M9.3929 6.44995C9.80711 6.44995 10.1429 6.78574 10.1429 7.19995V7.83412H13.0935C13.5078 7.83412 13.8435 8.1699 13.8435 8.58412C13.8435 8.99833 13.5078 9.33412 13.0935 9.33412H11.9488C11.8816 9.90193 11.7377 10.4622 11.5162 10.9949C11.2705 11.5856 10.938 12.1369 10.5283 12.627C10.8087 12.8065 11.1624 12.9982 11.5348 13.1545C11.9899 13.3456 12.4129 13.4585 12.7356 13.4695L14.6212 9.39376C14.7439 9.12848 15.0096 8.95866 15.3018 8.95866C15.5941 8.95866 15.8598 9.12848 15.9825 9.39376L19.0304 15.9819C19.2043 16.3578 19.0405 16.8036 18.6646 16.9775C18.2887 17.1514 17.8429 16.9876 17.669 16.6117L16.9991 15.1637H13.6046L12.9347 16.6117C12.7608 16.9876 12.315 17.1514 11.9391 16.9775C11.5632 16.8036 11.3994 16.3578 11.5733 15.9819L12.0766 14.894C11.6867 14.8151 11.3013 14.6834 10.9541 14.5376C10.3855 14.2988 9.85035 13.9931 9.45903 13.7149C9.44092 13.7021 9.42289 13.6893 9.40493 13.6764C9.00691 13.9664 8.57449 14.2105 8.11704 14.4007C7.35103 14.7193 6.5342 14.8775 5.70622 14.8775C5.29201 14.8775 4.95622 14.5417 4.95622 14.1275C4.95622 13.7132 5.29201 13.3775 5.70622 13.3775C6.34227 13.3775 6.96285 13.2562 7.54109 13.0157C7.7966 12.9095 8.04242 12.7807 8.27546 12.632C7.79139 12.0589 7.41181 11.4008 7.15614 10.6867C7.01652 10.2967 7.21947 9.86739 7.60944 9.72777C7.99942 9.58815 8.42874 9.7911 8.56836 10.1811C8.75978 10.7157 9.04162 11.2082 9.39968 11.6382C9.70051 11.2729 9.94712 10.8616 10.1312 10.419C10.2755 10.0718 10.377 9.70681 10.435 9.33412H9.39621L9.3929 9.33412L9.38959 9.33412H5.7002C5.28598 9.33412 4.9502 8.99833 4.9502 8.58412C4.9502 8.1699 5.28598 7.83412 5.7002 7.83412H8.6429V7.19995C8.6429 6.78574 8.97868 6.44995 9.3929 6.44995ZM14.2985 13.6637H16.3052L15.3018 11.4949L14.2985 13.6637Z" fill="white" fill-opacity="0.5"/>
</svg>
