<svg width="24" height="24" viewBox="0 0 24 24" fill="none" xmlns="http://www.w3.org/2000/svg">
<path d="M1.25879 4.25903C1.25879 2.60218 2.60194 1.25903 4.25879 1.25903H19.7588C21.4156 1.25903 22.7588 2.60218 22.7588 4.25903V19.759C22.7588 21.4159 21.4156 22.759 19.7588 22.759H4.25879C2.60194 22.759 1.25879 21.4159 1.25879 19.759V4.25903Z" fill="white"/>
<path fill-rule="evenodd" clip-rule="evenodd" d="M9.3927 6.45C9.80692 6.45 10.1427 6.78579 10.1427 7.2V7.83416H13.0933C13.5076 7.83416 13.8433 8.16995 13.8433 8.58416C13.8433 8.99838 13.5076 9.33416 13.0933 9.33416H11.9486C11.8814 9.90198 11.7375 10.4623 11.516 10.995C11.2703 11.5857 10.9378 12.1369 10.5281 12.6271C10.8085 12.8066 11.1622 12.9982 11.5346 13.1546C11.9897 13.3457 12.4127 13.4585 12.7354 13.4695L14.621 9.39381C14.7437 9.12853 15.0094 8.95871 15.3017 8.95871C15.5939 8.95871 15.8596 9.12853 15.9823 9.39381L19.0302 15.9819C19.2041 16.3579 19.0403 16.8036 18.6644 16.9775C18.2885 17.1514 17.8427 16.9877 17.6688 16.6117L16.9989 15.1638H13.6044L12.9345 16.6117C12.7606 16.9877 12.3148 17.1514 11.9389 16.9775C11.563 16.8036 11.3992 16.3579 11.5731 15.9819L12.0764 14.894C11.6865 14.8152 11.3011 14.6834 10.9539 14.5376C10.3853 14.2989 9.85015 13.9931 9.45883 13.7149C9.44072 13.7022 9.42269 13.6894 9.40474 13.6765C9.00671 13.9664 8.57429 14.2106 8.11685 14.4008C7.35084 14.7193 6.53401 14.8775 5.70603 14.8775C5.29181 14.8775 4.95603 14.5417 4.95603 14.1275C4.95603 13.7133 5.29181 13.3775 5.70603 13.3775C6.34208 13.3775 6.96266 13.2562 7.5409 13.0158C7.79641 12.9095 8.04223 12.7808 8.27527 12.6321C7.79119 12.059 7.41161 11.4008 7.15594 10.6867C7.01632 10.2968 7.21927 9.86743 7.60925 9.72781C7.99922 9.58819 8.42854 9.79115 8.56816 10.1811C8.75958 10.7158 9.04142 11.2082 9.39948 11.6383C9.70031 11.2729 9.94692 10.8616 10.131 10.419C10.2753 10.0719 10.3768 9.70685 10.4348 9.33416H9.39601L9.3927 9.33417L9.38939 9.33416H5.7C5.28579 9.33416 4.95 8.99838 4.95 8.58416C4.95 8.16995 5.28579 7.83416 5.7 7.83416H8.6427V7.2C8.6427 6.78579 8.97849 6.45 9.3927 6.45ZM14.2983 13.6638H16.305L15.3017 11.495L14.2983 13.6638Z" fill="black"/>
</svg>
