<svg width="24" height="24" viewBox="0 0 24 24" fill="none" xmlns="http://www.w3.org/2000/svg">
<path fill-rule="evenodd" clip-rule="evenodd" d="M4.35117 5.4001C3.74366 5.4001 3.25117 5.89258 3.25117 6.5001V9.24177C4.31356 9.71907 5.07939 10.7552 5.07939 12.0006C5.07939 13.2461 4.31356 14.2822 3.25117 14.7595V17.5001C3.25117 18.1076 3.74366 18.6001 4.35117 18.6001L19.6369 18.6001C20.2444 18.6001 20.7369 18.1076 20.7369 17.5001V14.7595C19.6744 14.2822 18.9086 13.2461 18.9086 12.0006C18.9086 10.7551 19.6744 9.71901 20.7369 9.24172V6.5001C20.7369 5.89258 20.2444 5.4001 19.6369 5.4001H4.35117ZM1.45117 6.5001C1.45117 4.89847 2.74955 3.6001 4.35117 3.6001H19.6369C21.2385 3.6001 22.5369 4.89847 22.5369 6.5001V9.89712C22.5369 10.3314 22.2268 10.7037 21.7997 10.7823C21.1428 10.9031 20.7086 11.4335 20.7086 12.0006C20.7086 12.5677 21.1428 13.0981 21.7997 13.219C22.2268 13.2975 22.5369 13.6699 22.5369 14.1041V17.5001C22.5369 19.1017 21.2385 20.4001 19.6369 20.4001H4.35117C2.74955 20.4001 1.45117 19.1017 1.45117 17.5001V14.1041C1.45117 13.6699 1.76123 13.2976 2.1883 13.219C2.8452 13.0981 3.27939 12.5677 3.27939 12.0006C3.27939 11.4335 2.8452 10.9032 2.1883 10.7823C1.76123 10.7037 1.45117 10.3314 1.45117 9.89714V6.5001Z" fill="black"/>
</svg>
