<svg width="24" height="24" viewBox="0 0 24 24" fill="none" xmlns="http://www.w3.org/2000/svg">
<path d="M4.35215 3.6001C2.75052 3.6001 1.45215 4.89847 1.45215 6.5001V9.89714C1.45215 10.3314 1.76221 10.7037 2.18927 10.7823C2.84618 10.9032 3.28037 11.4335 3.28037 12.0006C3.28037 12.5677 2.84618 13.0981 2.18927 13.219C1.76221 13.2976 1.45215 13.6699 1.45215 14.1041V17.5001C1.45215 19.1017 2.75052 20.4001 4.35215 20.4001H19.6379C21.2395 20.4001 22.5379 19.1017 22.5379 17.5001V14.1041C22.5379 13.6699 22.2278 13.2975 21.8007 13.219C21.1438 13.0981 20.7095 12.5677 20.7095 12.0006C20.7095 11.4335 21.1438 10.9031 21.8007 10.7823C22.2278 10.7037 22.5379 10.3314 22.5379 9.89712V6.5001C22.5379 4.89847 21.2395 3.6001 19.6379 3.6001H4.35215Z" fill="black"/>
</svg>
