<svg width="24" height="24" viewBox="0 0 24 24" fill="none" xmlns="http://www.w3.org/2000/svg">
<path fill-rule="evenodd" clip-rule="evenodd" d="M4.49961 8.75142H12.7564C13.1248 9.77195 14.102 10.5014 15.2496 10.5014C16.3972 10.5014 17.3744 9.77195 17.7429 8.75142H19.4996C19.9967 8.75142 20.3996 8.34847 20.3996 7.85142C20.3996 7.35436 19.9967 6.95142 19.4996 6.95142L17.7429 6.95142C17.3744 5.93088 16.3972 5.20142 15.2496 5.20142C14.102 5.20142 13.1248 5.93088 12.7564 6.95142H4.49961C4.00255 6.95142 3.59961 7.35436 3.59961 7.85142C3.59961 8.34847 4.00255 8.75142 4.49961 8.75142ZM15.2496 7.00142C14.7802 7.00142 14.3996 7.38197 14.3996 7.85142C14.3996 8.32086 14.7802 8.70142 15.2496 8.70142C15.7191 8.70142 16.0996 8.32086 16.0996 7.85142C16.0996 7.38197 15.7191 7.00142 15.2496 7.00142Z" fill="black"/>
<path fill-rule="evenodd" clip-rule="evenodd" d="M19.4998 17.0483H11.2431C10.8746 18.0688 9.89739 18.7983 8.74981 18.7983C7.60222 18.7983 6.625 18.0688 6.25655 17.0483H4.49981C4.00275 17.0483 3.59981 16.6453 3.59981 16.1483C3.59981 15.6512 4.00275 15.2483 4.49981 15.2483H6.25655C6.625 14.2278 7.60222 13.4983 8.74981 13.4983C9.89739 13.4983 10.8746 14.2278 11.2431 15.2483H19.4998C19.9969 15.2483 20.3998 15.6512 20.3998 16.1483C20.3998 16.6453 19.9969 17.0483 19.4998 17.0483ZM8.74981 15.2983C9.21925 15.2983 9.59981 15.6788 9.59981 16.1483C9.59981 16.6177 9.21925 16.9983 8.74981 16.9983C8.28036 16.9983 7.89981 16.6177 7.89981 16.1483C7.89981 15.6788 8.28036 15.2983 8.74981 15.2983Z" fill="black"/>
</svg>
