<svg width="24" height="24" viewBox="0 0 24 24" fill="none" xmlns="http://www.w3.org/2000/svg">
<path fill-rule="evenodd" clip-rule="evenodd" d="M12.0003 16.4C11.5032 16.4 11.1003 15.997 11.1002 15.5L11.1002 12.8999H8.50027C8.00321 12.8999 7.60027 12.497 7.60027 11.9999C7.60027 11.5028 8.00321 11.0999 8.50027 11.0999H11.1001L11.1 8.49999C11.1 8.00293 11.5029 7.59998 12 7.59996C12.497 7.59995 12.9 8.00288 12.9 8.49993L12.9001 11.0999H15.5003C15.9973 11.0999 16.4003 11.5028 16.4003 11.9999C16.4003 12.497 15.9973 12.8999 15.5003 12.8999H12.9002L12.9002 15.4999C12.9003 15.997 12.4973 16.3999 12.0003 16.4Z" fill="black"/>
<path fill-rule="evenodd" clip-rule="evenodd" d="M4.5015 8.86391C2.7268 12.9698 4.61629 17.7372 8.72213 19.5124C12.8283 21.2878 17.5962 19.3983 19.3715 15.2922C19.5688 14.8359 20.0985 14.626 20.5548 14.8232C21.011 15.0205 21.221 15.5503 21.0237 16.0065C18.8538 21.0251 13.0264 23.3345 8.00778 21.1646C2.98917 18.9947 0.679818 13.1673 2.8497 8.14866L2.85048 8.14686C4.25308 4.9222 7.33809 2.5294 11.0968 2.21055C11.5921 2.16853 12.0277 2.53598 12.0697 3.03125C12.1117 3.52653 11.7443 3.96209 11.249 4.00411C8.18059 4.2644 5.65296 6.21749 4.5015 8.86391Z" fill="black"/>
<path fill-rule="evenodd" clip-rule="evenodd" d="M14.3294 3.3525C14.1503 3.81618 14.381 4.33723 14.8447 4.5163C15.0502 4.59565 15.2542 4.684 15.4564 4.78157C15.6585 4.87914 15.8546 4.98391 16.0446 5.09539C16.4732 5.34699 17.0247 5.20344 17.2763 4.77477C17.5279 4.3461 17.3844 3.79462 16.9557 3.54302C16.7238 3.40694 16.4848 3.27925 16.2387 3.1605C15.9927 3.04175 15.744 2.93403 15.4932 2.83718C15.0295 2.6581 14.5085 2.88882 14.3294 3.3525ZM18.3721 5.71781C17.9853 6.02997 17.9247 6.5966 18.2369 6.98341C18.5167 7.3301 18.7661 7.69805 18.9837 8.08282C19.2283 8.51552 19.7773 8.66799 20.21 8.42337C20.6427 8.17876 20.7952 7.62968 20.5506 7.19699C20.2849 6.72695 19.9799 6.27713 19.6377 5.85298C19.3255 5.46617 18.7589 5.40565 18.3721 5.71781ZM20.6864 9.78846C20.1955 9.86615 19.8604 10.3271 19.9381 10.8181C20.0072 11.2546 20.0408 11.6979 20.0375 12.1434C20.0338 12.6404 20.4337 13.0464 20.9307 13.0501C21.4277 13.0539 21.8337 12.654 21.8374 12.1569C21.8415 11.6119 21.8004 11.07 21.716 10.5367C21.6383 10.0458 21.1773 9.71076 20.6864 9.78846Z" fill="black"/>
</svg>
