<svg width="24" height="24" viewBox="0 0 24 24" fill="none" xmlns="http://www.w3.org/2000/svg">
<path d="M19.7317 3.63175C20.0832 3.28028 20.6537 3.2803 21.0051 3.63175C21.3563 3.98325 21.3565 4.55383 21.0051 4.90518L18.1448 7.76456L19.7425 7.79776C22.0158 7.84467 22.9587 10.7259 21.1516 12.1044L17.8499 14.623L19.0452 18.5985C19.7007 20.7794 17.2307 22.5608 15.3635 21.2538L12.0003 18.8993L8.63796 21.2538C7.43049 22.0992 5.97125 21.6522 5.26784 20.6415L4.2405 21.6698C3.88914 22.021 3.31852 22.0209 2.96706 21.6698C2.61566 21.3184 2.61574 20.7479 2.96706 20.3964L5.03835 18.3241L5.04909 18.287L15.6243 7.7128H15.6497L19.7317 3.63175Z" fill="black"/>
<path d="M9.72878 3.81729C10.4738 1.66084 13.5278 1.66083 14.2727 3.81729L14.9651 5.82413L6.1448 14.6444L6.15163 14.623L2.8489 12.1044C1.04179 10.7258 1.98544 7.84442 4.25905 7.79776L8.38308 7.7128L9.72878 3.81729Z" fill="black"/>
</svg>
