<svg width="24" height="24" viewBox="0 0 24 24" fill="none" xmlns="http://www.w3.org/2000/svg">
<path d="M3.02402 12.9124C3.51092 12.8138 3.9856 13.1287 4.08456 13.6155C4.72707 16.7798 7.21973 19.274 10.3834 19.9163C10.8705 20.0152 11.1854 20.4907 11.0865 20.9778C10.9875 21.4646 10.5128 21.7795 10.026 21.681C6.15311 20.8948 3.10713 17.8459 2.32089 13.9739C2.222 13.4869 2.53702 13.0114 3.02402 12.9124Z" fill="black"/>
<path d="M19.9156 13.6155C20.0146 13.1285 20.4901 12.8136 20.9771 12.9124C21.4642 13.0114 21.7791 13.4869 21.6803 13.9739C20.894 17.846 17.8481 20.8948 13.9752 21.681C13.4882 21.7797 13.0126 21.4648 12.9137 20.9778C12.8148 20.4908 13.1299 20.0154 13.6168 19.9163C16.7806 19.2741 19.2731 16.7799 19.9156 13.6155Z" fill="black"/>
<path d="M8.64316 12.846C9.11809 12.7001 9.62193 12.9669 9.76816 13.4417C10.0095 14.2273 10.903 14.9297 12.0934 14.93C13.2836 14.93 14.1732 14.2337 14.4205 13.4437C14.5691 12.9698 15.0744 12.7057 15.5484 12.8538C16.0227 13.0023 16.2867 13.5075 16.1383 13.9817C15.621 15.6341 13.9473 16.7298 12.0934 16.7298C10.2402 16.7295 8.55651 15.6273 8.04745 13.971C7.90176 13.4962 8.16854 12.9922 8.64316 12.846Z" fill="black"/>
<path d="M12.9137 3.01983C13.0125 2.53276 13.4881 2.21795 13.9752 2.3167C17.8482 3.10284 20.894 6.15171 21.6803 10.0237C21.7791 10.5108 21.4641 10.9863 20.9771 11.0853C20.4901 11.184 20.0145 10.8692 19.9156 10.3821C19.273 7.21748 16.7805 4.72249 13.6168 4.08038C13.1301 3.98134 12.8151 3.50664 12.9137 3.01983Z" fill="black"/>
<path d="M10.026 2.3167C10.513 2.21809 10.9877 2.53284 11.0865 3.01983C11.1852 3.50684 10.8704 3.98153 10.3834 4.08038C7.21977 4.72259 4.7271 7.21755 4.08456 10.3821C3.98564 10.8691 3.51098 11.1839 3.02402 11.0853C2.53703 10.9863 2.22208 10.5108 2.32089 10.0237C3.10717 6.15178 6.15299 3.10285 10.026 2.3167Z" fill="black"/>
<path d="M9.53183 8.65167C10.1877 8.65178 10.7193 9.1833 10.7193 9.83917C10.7193 10.495 10.1877 11.0266 9.53183 11.0267C8.87589 11.0267 8.34433 10.4951 8.34433 9.83917C8.34434 9.18323 8.87589 8.65167 9.53183 8.65167Z" fill="black"/>
<path d="M14.6559 8.65167C15.3117 8.65178 15.8433 9.1833 15.8434 9.83917C15.8434 10.495 15.3117 11.0266 14.6559 11.0267C13.9999 11.0267 13.4684 10.4951 13.4684 9.83917C13.4684 9.18323 13.9999 8.65167 14.6559 8.65167Z" fill="black"/>
</svg>
