<svg width="24" height="24" viewBox="0 0 24 24" fill="none" xmlns="http://www.w3.org/2000/svg">
<path fill-rule="evenodd" clip-rule="evenodd" d="M3.94905 11.1001H8.11395C8.18454 8.89587 8.51242 6.88769 9.02447 5.35153C9.1463 4.98605 9.28146 4.63842 9.43061 4.31597C6.48982 5.29871 4.30032 7.92239 3.94905 11.1001ZM11.9996 2.1001C6.53199 2.1001 2.09961 6.53248 2.09961 12.0001C2.09961 17.4677 6.53199 21.9001 11.9996 21.9001C17.4672 21.9001 21.8996 17.4677 21.8996 12.0001C21.8996 6.53248 17.4672 2.1001 11.9996 2.1001ZM11.9996 3.9001C11.9794 3.9001 11.8168 3.91159 11.5387 4.26444C11.2687 4.60714 10.9861 5.15881 10.7321 5.92074C10.2909 7.24429 9.98503 9.05284 9.91493 11.1001H14.0843C14.0142 9.05284 13.7083 7.24429 13.2671 5.92074C13.0131 5.15881 12.7306 4.60714 12.4605 4.26444C12.1824 3.91159 12.0199 3.9001 11.9996 3.9001ZM15.8853 11.1001C15.8147 8.89587 15.4868 6.88769 14.9747 5.35153C14.8529 4.98605 14.7178 4.63841 14.5686 4.31597C17.5094 5.29871 19.6989 7.92239 20.0502 11.1001H15.8853ZM14.0843 12.9001H9.91493C9.98503 14.9474 10.2909 16.7559 10.7321 18.0795C10.9861 18.8414 11.2687 19.3931 11.5387 19.7358C11.8168 20.0886 11.9794 20.1001 11.9996 20.1001C12.0199 20.1001 12.1824 20.0886 12.4605 19.7358C12.7306 19.3931 13.0131 18.8414 13.2671 18.0795C13.7083 16.7559 14.0142 14.9474 14.0843 12.9001ZM14.5686 19.6842C14.7178 19.3618 14.8529 19.0141 14.9747 18.6487C15.4868 17.1125 15.8147 15.1043 15.8853 12.9001H20.0502C19.6989 16.0778 17.5094 18.7015 14.5686 19.6842ZM9.43061 19.6842C9.28146 19.3618 9.1463 19.0141 9.02447 18.6487C8.51242 17.1125 8.18454 15.1043 8.11395 12.9001H3.94905C4.30032 16.0778 6.48982 18.7015 9.43061 19.6842Z" fill="black"/>
</svg>
