<svg width="24" height="24" viewBox="0 0 24 24" fill="none" xmlns="http://www.w3.org/2000/svg">
<g clip-path="url(#clip0_14727_674)">
<path fill-rule="evenodd" clip-rule="evenodd" d="M12.0001 0.909668C8.27096 0.909668 5.41191 1.62663 3.51298 3.52288C1.6137 5.41949 0.895508 8.27544 0.895508 12C0.895508 15.7246 1.6137 18.5806 3.51298 20.4772C5.41191 22.3734 8.27096 23.0904 12.0001 23.0904C15.7292 23.0904 18.5883 22.3734 20.4872 20.4772C22.3865 18.5806 23.1047 15.7246 23.1047 12C23.1047 8.27544 22.3865 5.41949 20.4872 3.52288C18.5883 1.62663 15.7292 0.909668 12.0001 0.909668ZM19.3635 11.742C19.3853 11.6727 19.3558 11.6013 19.2947 11.5612C18.1757 10.81 17.9434 9.20053 17.9205 8.69181C17.9173 8.6063 17.8475 8.53919 17.7613 8.53919H15.9835C15.8919 8.53919 15.8199 8.61388 15.8243 8.70588C15.8799 9.88351 15.64 11.4595 15.64 11.4595C15.2997 13.8613 14.3639 14.291 13.8524 14.291C13.4041 14.291 13.2602 13.8764 13.4041 12.7464L13.8818 8.71779C13.8927 8.62362 13.8186 8.54028 13.7226 8.54028H11.7987C11.718 8.54028 11.6504 8.59873 11.6406 8.67774L11.2675 11.4735C11.2283 11.7853 11.1399 12.0959 11.0505 12.3979C10.6088 13.9046 9.84643 14.2899 9.4996 14.2899C8.90629 14.2899 8.90629 13.7162 9.05025 12.649L9.43089 10.2634C9.63266 8.96132 8.87575 8.48399 8.70452 8.39307C8.24753 8.14304 7.0958 8.10083 5.71504 8.85417C5.64087 8.89422 5.61034 8.98622 5.64305 9.06307L6.20474 10.3522C6.23964 10.4312 6.33017 10.4712 6.41196 10.4409C6.53412 10.3955 6.65845 10.3565 6.72825 10.35C6.83405 10.3392 6.99437 10.3359 7.09798 10.4355C7.22995 10.5622 7.21468 10.8025 7.20269 10.8966L6.82859 13.2086C6.57229 15.1038 7.12307 16.42 8.78741 16.42C8.78741 16.42 10.3023 16.4871 11.2643 15.093C11.2872 15.0595 11.3373 15.067 11.3493 15.1049C11.598 15.881 12.2513 16.42 13.451 16.42C15.2462 16.42 16.9433 15.487 17.6675 12.8341C17.6762 12.8016 17.7155 12.7875 17.7417 12.8103C17.9369 12.9813 18.3252 13.2432 18.6458 13.3807C18.7331 13.4186 18.8323 13.372 18.8618 13.2833L18.8695 13.2597C18.9905 12.8929 19.261 12.0724 19.3635 11.743V11.742Z" fill="#282828"/>
</g>
<defs>
<clipPath id="clip0_14727_674">
<rect width="24" height="24" fill="white"/>
</clipPath>
</defs>
</svg>
