<svg width="24" height="24" viewBox="0 0 24 24" fill="none" xmlns="http://www.w3.org/2000/svg">
<path fill-rule="evenodd" clip-rule="evenodd" d="M4.49719 2.59998C3.44946 2.59998 2.6001 3.44933 2.6001 4.49707V9.19906C2.6001 10.2468 3.44946 11.0962 4.49719 11.0962H9.19949C10.2472 11.0962 11.0966 10.2468 11.0966 9.19906V4.49707C11.0966 3.44933 10.2472 2.59998 9.19949 2.59998H4.49719ZM14.8009 2.59998C13.7532 2.59998 12.9038 3.44933 12.9038 4.49707V9.19906C12.9038 10.2468 13.7532 11.0962 14.8009 11.0962H19.5032C20.5509 11.0962 21.4003 10.2468 21.4003 9.19906V4.49707C21.4003 3.44933 20.5509 2.59998 19.5032 2.59998H14.8009ZM4.49719 12.9039C3.44946 12.9039 2.6001 13.7533 2.6001 14.801V19.503C2.6001 20.5508 3.44946 21.4001 4.49719 21.4001H9.19949C10.2472 21.4001 11.0966 20.5508 11.0966 19.503V14.801C11.0966 13.7533 10.2472 12.9039 9.19949 12.9039H4.49719ZM14.8009 12.9037C13.7532 12.9037 12.9038 13.753 12.9038 14.8008V19.5028C12.9038 20.5505 13.7532 21.3999 14.8009 21.3999H19.5032C20.5509 21.3999 21.4003 20.5505 21.4003 19.5028V14.8008C21.4003 13.753 20.5509 12.9037 19.5032 12.9037H14.8009Z" fill="#282828"/>
</svg>
