<svg width="24" height="24" viewBox="0 0 24 24" fill="none" xmlns="http://www.w3.org/2000/svg">
<path fill-rule="evenodd" clip-rule="evenodd" d="M2.6001 4.49707C2.6001 3.44933 3.44946 2.59998 4.49719 2.59998H9.19949C10.2472 2.59998 11.0966 3.44933 11.0966 4.49707V9.19906C11.0966 10.2468 10.2472 11.0962 9.19949 11.0962H4.49719C3.44946 11.0962 2.6001 10.2468 2.6001 9.19906V4.49707ZM4.49719 4.39998C4.44357 4.39998 4.4001 4.44345 4.4001 4.49707V9.19906C4.4001 9.25268 4.44357 9.29615 4.49719 9.29615H9.19949C9.25311 9.29615 9.29658 9.25268 9.29658 9.19906V4.49707C9.29658 4.44345 9.25311 4.39998 9.19949 4.39998H4.49719ZM12.9038 4.49707C12.9038 3.44933 13.7532 2.59998 14.8009 2.59998H19.5032C20.5509 2.59998 21.4003 3.44933 21.4003 4.49707V9.19906C21.4003 10.2468 20.5509 11.0962 19.5032 11.0962H14.8009C13.7532 11.0962 12.9038 10.2468 12.9038 9.19906V4.49707ZM14.8009 4.39998C14.7473 4.39998 14.7038 4.44345 14.7038 4.49707V9.19906C14.7038 9.25268 14.7473 9.29615 14.8009 9.29615H19.5032C19.5568 9.29615 19.6003 9.25268 19.6003 9.19906V4.49707C19.6003 4.44345 19.5568 4.39998 19.5032 4.39998H14.8009ZM12.9038 14.8008C12.9038 13.753 13.7532 12.9037 14.8009 12.9037H19.5032C20.5509 12.9037 21.4003 13.753 21.4003 14.8008V19.5028C21.4003 20.5505 20.5509 21.3999 19.5032 21.3999H14.8009C13.7532 21.3999 12.9038 20.5505 12.9038 19.5028V14.8008ZM14.8009 14.7037C14.7473 14.7037 14.7038 14.7472 14.7038 14.8008V19.5028C14.7038 19.5564 14.7473 19.5999 14.8009 19.5999H19.5032C19.5568 19.5999 19.6003 19.5564 19.6003 19.5028V14.8008C19.6003 14.7472 19.5568 14.7037 19.5032 14.7037H14.8009ZM2.6001 14.801C2.6001 13.7533 3.44946 12.9039 4.49719 12.9039H9.19949C10.2472 12.9039 11.0966 13.7533 11.0966 14.801V19.503C11.0966 20.5507 10.2472 21.4001 9.19949 21.4001H4.49719C3.44946 21.4001 2.6001 20.5507 2.6001 19.503V14.801ZM4.49719 14.7039C4.44357 14.7039 4.4001 14.7474 4.4001 14.801V19.503C4.4001 19.5566 4.44357 19.6001 4.49719 19.6001H9.19949C9.25311 19.6001 9.29658 19.5566 9.29658 19.503V14.801C9.29658 14.7474 9.25311 14.7039 9.19949 14.7039H4.49719Z" fill="#282828"/>
</svg>
