<svg width="24" height="24" viewBox="0 0 24 24" fill="none" xmlns="http://www.w3.org/2000/svg">
<path fill-rule="evenodd" clip-rule="evenodd" d="M2.65477 7.7333C0.904836 5.99711 2.18974 3.09528 4.60499 3.09998L19.9062 3.12975C22.0556 3.13393 23.4041 5.49893 22.203 7.32609L13.8953 19.9636C12.5754 21.9714 9.43768 21.4342 8.91125 19.0669L7.79989 14.2173C7.45709 12.7214 8.15885 11.1813 9.51263 10.4585L14.906 7.57895C15.3445 7.34484 15.8897 7.51052 16.1238 7.94899C16.3579 8.38746 16.1923 8.9327 15.7538 9.1668L10.3604 12.0464C9.72333 12.3865 9.39309 13.1113 9.55441 13.8152L10.668 18.6747C10.8419 19.4613 11.9283 19.6789 12.3912 18.9748L20.6989 6.33732C21.0845 5.75067 20.6754 4.93125 19.9027 4.92974L4.60149 4.89998C3.73155 4.89829 3.35947 5.89686 3.92253 6.45551L6.8907 9.39975C7.24359 9.7498 7.2459 10.3196 6.89585 10.6725C6.5458 11.0254 5.97596 11.0277 5.62307 10.6777L2.65477 7.7333Z" fill="#282828"/>
</svg>
