<svg width="24" height="24" viewBox="0 0 24 24" fill="none" xmlns="http://www.w3.org/2000/svg">
<path fill-rule="evenodd" clip-rule="evenodd" d="M12.9704 6.01265L3.00059 6.01265C2.50353 6.01265 2.10059 5.60971 2.10059 5.11265C2.10059 4.6156 2.50353 4.21265 3.00059 4.21265L12.9704 4.21265C13.4675 4.21265 13.8704 4.61559 13.8704 5.11265C13.8704 5.6097 13.4675 6.01265 12.9704 6.01265ZM16.0996 5.11265C16.0996 4.6156 16.5026 4.21265 16.9996 4.21265H20.9362C21.4333 4.21265 21.8362 4.6156 21.8362 5.11265C21.8362 5.60971 21.4333 6.01265 20.9362 6.01265H17.8996V17.0001C17.8996 19.154 16.1535 20.9001 13.9996 20.9001C11.8457 20.9001 10.0996 19.154 10.0996 17.0001C10.0996 14.8462 11.8457 13.1001 13.9996 13.1001H16.0996V5.11265ZM16.0996 14.9001H13.9996C12.8398 14.9001 11.8996 15.8403 11.8996 17.0001C11.8996 18.1599 12.8398 19.1001 13.9996 19.1001C15.1594 19.1001 16.0996 18.1599 16.0996 17.0001V14.9001ZM12.9704 10.666L3.00059 10.666C2.50353 10.666 2.10059 10.263 2.10059 9.76597C2.10059 9.26892 2.50353 8.86597 3.00059 8.86597L12.9704 8.86597C13.4675 8.86597 13.8704 9.26891 13.8704 9.76597C13.8704 10.263 13.4675 10.666 12.9704 10.666ZM2.10059 14.6507C2.10059 14.1537 2.50353 13.7507 3.00059 13.7507H7.68925C8.18631 13.7507 8.58925 14.1537 8.58925 14.6507C8.58925 15.1478 8.18631 15.5507 7.68925 15.5507H3.00059C2.50353 15.5507 2.10059 15.1478 2.10059 14.6507Z" fill="black"/>
</svg>
