<svg width="24" height="24" viewBox="0 0 24 24" fill="none" xmlns="http://www.w3.org/2000/svg">
<path fill-rule="evenodd" clip-rule="evenodd" d="M21.4007 4.63527C21.7522 4.2838 21.7522 3.71395 21.4007 3.36248C21.0492 3.01101 20.4794 3.01101 20.1279 3.36248L3.36321 20.1272C3.01174 20.4786 3.01174 21.0485 3.36321 21.4C3.71469 21.7514 4.28453 21.7514 4.63601 21.4L7.73044 18.3055C9.01424 18.7878 10.4536 19.0789 11.9996 19.0789C14.9548 19.0789 17.5214 18.0226 19.357 16.5957C21.148 15.2034 22.3996 13.3233 22.3996 11.5889C22.3996 9.87192 21.1844 8.00792 19.4195 6.61643L21.4007 4.63527ZM15.3752 10.6608L11.072 14.9639C11.3677 15.0453 11.6788 15.0888 12 15.0888C13.93 15.0888 15.5 13.5188 15.5 11.5888C15.5 11.2676 15.4565 10.9564 15.3752 10.6608Z" fill="black"/>
<path d="M16.3358 4.88481C15.0378 4.39457 13.5763 4.09888 11.9996 4.09888C9.04259 4.09888 6.47583 5.16388 4.64126 6.59408C2.85266 7.98845 1.59961 9.86833 1.59961 11.5889C1.59961 13.3086 2.85152 15.1876 4.63883 16.5818L8.64255 12.5788C8.5498 12.2648 8.5 11.9325 8.5 11.5888C8.5 9.65878 10.07 8.08878 12 8.08878C12.3437 8.08878 12.676 8.13857 12.9901 8.23133L16.3358 4.88481Z" fill="black"/>
</svg>
