<svg width="24" height="24" viewBox="0 0 24 24" fill="none" xmlns="http://www.w3.org/2000/svg">
<path fill-rule="evenodd" clip-rule="evenodd" d="M11.1702 2.1347C11.6481 2.27123 11.9249 2.76935 11.7883 3.24729L10.4021 8.10009H15.5525L17.08 2.75288C17.2166 2.27494 17.7147 1.99817 18.1926 2.1347C18.6706 2.27123 18.9473 2.76935 18.8108 3.24729L17.4245 8.10009H20.399C20.8961 8.10009 21.299 8.50303 21.299 9.00009C21.299 9.49714 20.8961 9.90009 20.399 9.90009H16.9104L15.7106 14.1001H18.899C19.3961 14.1001 19.799 14.503 19.799 15.0001C19.799 15.4971 19.3961 15.9001 18.899 15.9001H15.1964L13.7638 20.915C13.6273 21.3929 13.1292 21.6697 12.6512 21.5332C12.1733 21.3966 11.8965 20.8985 12.0331 20.4206L13.3244 15.9001H8.17393L6.74136 20.915C6.60483 21.3929 6.10671 21.6697 5.62877 21.5332C5.15083 21.3966 4.87407 20.8985 5.01059 20.4206L6.30192 15.9001H3.89902C3.40197 15.9001 2.99902 15.4971 2.99902 15.0001C2.99902 14.503 3.40197 14.1001 3.89902 14.1001H6.81611L8.01589 9.90009H5.39902C4.90197 9.90009 4.49902 9.49714 4.49902 9.00009C4.49902 8.50303 4.90197 8.10009 5.39902 8.10009H8.53008L10.0576 2.75288C10.1941 2.27494 10.6922 1.99817 11.1702 2.1347ZM9.88789 9.90009L8.68812 14.1001H13.8386L15.0384 9.90009H9.88789Z" fill="black"/>
</svg>
