<svg width="24" height="24" viewBox="0 0 24 24" fill="none" xmlns="http://www.w3.org/2000/svg">
<path fill-rule="evenodd" clip-rule="evenodd" d="M11.4079 2.26531C11.7332 2.00974 12.1908 2.00881 12.5171 2.26306L21.1658 9.00183C21.3846 9.17236 21.5126 9.43431 21.5126 9.71177V20.0271C21.5126 21.0765 20.6619 21.9271 19.6126 21.9271H12.0086C12.0058 21.9272 12.0029 21.9272 12 21.9272C11.9972 21.9272 11.9943 21.9272 11.9915 21.9271H4.3873C3.33796 21.9271 2.4873 21.0765 2.4873 20.0271V9.71177C2.4873 9.43559 2.6141 9.17471 2.83127 9.00408L11.4079 2.26531ZM12.9 20.1271V14.2164C12.9 13.7193 12.4971 13.3164 12 13.3164C11.503 13.3164 11.1 13.7193 11.1 14.2164V20.1271H4.3873C4.33208 20.1271 4.2873 20.0824 4.2873 20.0271V10.1492L11.9663 4.11575L19.7126 10.1515V20.0271C19.7126 20.0824 19.6678 20.1271 19.6126 20.1271H12.9Z" fill="black"/>
</svg>
