<svg width="24" height="24" viewBox="0 0 24 24" fill="none" xmlns="http://www.w3.org/2000/svg">
<path fill-rule="evenodd" clip-rule="evenodd" d="M11.9978 20.5L11.9999 20.5L12.002 20.5C12.2276 20.5 12.4438 20.4094 12.6021 20.2486C13.2542 19.5861 14.0808 18.8185 14.9619 18.0004C15.4947 17.5056 16.0476 16.9922 16.5937 16.4725C17.9886 15.145 19.3767 13.7426 20.0123 12.6565L20.0133 12.6547C21.6243 9.8862 20.8572 6.32685 17.8832 4.97296C16.574 4.3757 15.3055 4.36964 14.159 4.81139C13.347 5.12425 12.6272 5.64895 12.0035 6.29159H11.9963C11.3726 5.64895 10.6527 5.12425 9.84072 4.81139C8.69424 4.36964 7.42576 4.3757 6.1165 4.97296C3.14248 6.32685 2.37544 9.8862 3.98641 12.6547L3.98744 12.6565C4.62299 13.7426 6.01115 15.145 7.40605 16.4725C7.95214 16.9922 8.50502 17.5056 9.03783 18.0004C9.91888 18.8185 10.7455 19.5861 11.3977 20.2486C11.5559 20.4094 11.7721 20.5 11.9978 20.5Z" fill="#00CBD5"/>
<path fill-rule="evenodd" clip-rule="evenodd" d="M11.9978 20.5L11.9999 20.5L12.002 20.5C12.2276 20.5 12.4438 20.4094 12.6021 20.2486C13.2542 19.5861 14.0808 18.8185 14.9619 18.0004C15.4947 17.5056 16.0476 16.9922 16.5937 16.4725C17.9886 15.145 19.3767 13.7426 20.0123 12.6565L20.0133 12.6547C21.6243 9.8862 20.8572 6.32685 17.8832 4.97296C16.574 4.3757 15.3055 4.36964 14.159 4.81139C13.347 5.12425 12.6272 5.64895 12.0035 6.29159H11.9963C11.3726 5.64895 10.6527 5.12425 9.84072 4.81139C8.69424 4.36964 7.42576 4.3757 6.1165 4.97296C3.14248 6.32685 2.37544 9.8862 3.98641 12.6547L3.98744 12.6565C4.62299 13.7426 6.01115 15.145 7.40605 16.4725C7.95214 16.9922 8.50502 17.5056 9.03783 18.0004C9.91888 18.8185 10.7455 19.5861 11.3977 20.2486C11.5559 20.4094 11.7721 20.5 11.9978 20.5Z" fill="url(#paint0_linear_82952_1702)"/>
<defs>
<linearGradient id="paint0_linear_82952_1702" x1="20.8386" y1="4.5" x2="3.16113" y2="4.5" gradientUnits="userSpaceOnUse">
<stop stop-color="white" stop-opacity="0"/>
<stop offset="1" stop-color="white" stop-opacity="0.4"/>
</linearGradient>
</defs>
</svg>
