<svg width="24" height="24" viewBox="0 0 24 24" fill="none" xmlns="http://www.w3.org/2000/svg">
<path fill-rule="evenodd" clip-rule="evenodd" d="M6.41694 2.09985C6.914 2.09985 7.31694 2.5028 7.31694 2.99985V16.6825H17.9601C17.9606 16.6825 17.961 16.6825 17.9614 16.6825C17.9619 16.6825 17.9623 16.6825 17.9628 16.6825H20.9996C21.4967 16.6825 21.8996 17.0855 21.8996 17.5825C21.8996 18.0796 21.4967 18.4825 20.9996 18.4825H18.8614V21.0003C18.8614 21.4974 18.4585 21.9003 17.9614 21.9003C17.4644 21.9003 17.0614 21.4974 17.0614 21.0003V18.4825H6.41694C5.91988 18.4825 5.51694 18.0796 5.51694 17.5825V6.93791H2.99961C2.50255 6.93791 2.09961 6.53497 2.09961 6.03791C2.09961 5.54085 2.50255 5.13791 2.99961 5.13791H5.51694V2.99985C5.51694 2.5028 5.91988 2.09985 6.41694 2.09985ZM8.55499 6.03791C8.55499 5.54085 8.95794 5.13791 9.45499 5.13791H17.9616C18.4586 5.13791 18.8616 5.54085 18.8616 6.03791V14.5445C18.8616 15.0415 18.4586 15.4445 17.9616 15.4445C17.4645 15.4445 17.0616 15.0415 17.0616 14.5445V6.93791H9.45499C8.95794 6.93791 8.55499 6.53497 8.55499 6.03791Z" fill="black"/>
</svg>
