<svg width="16" height="16" viewBox="0 0 16 16" fill="none" xmlns="http://www.w3.org/2000/svg">
<path fill-rule="evenodd" clip-rule="evenodd" d="M7.9999 14.5999C11.645 14.5999 14.5999 11.645 14.5999 7.9999C14.5999 4.35482 11.645 1.3999 7.9999 1.3999C4.35482 1.3999 1.3999 4.35482 1.3999 7.9999C1.3999 11.645 4.35482 14.5999 7.9999 14.5999ZM7.29704 10.7201C7.29704 11.1107 7.61365 11.4273 8.00422 11.4273C8.39479 11.4273 8.71141 11.1107 8.71141 10.7201V7.89137C8.71141 7.50081 8.39479 7.18419 8.00422 7.18419C7.61365 7.18419 7.29704 7.50081 7.29704 7.89137V10.7201ZM8.86106 5.40715C8.86106 4.93376 8.47731 4.55001 8.00392 4.55001C7.53053 4.55001 7.14678 4.93376 7.14678 5.40715C7.14678 5.88054 7.53053 6.26429 8.00392 6.26429C8.47731 6.26429 8.86106 5.88054 8.86106 5.40715Z" fill="black"/>
</svg>
