<svg width="24" height="24" viewBox="0 0 24 24" fill="none" xmlns="http://www.w3.org/2000/svg">
<path fill-rule="evenodd" clip-rule="evenodd" d="M4.09961 8.0001C4.09961 7.50304 4.50255 7.1001 4.99961 7.1001L18.9996 7.1001C19.4967 7.1001 19.8996 7.50304 19.8996 8.0001C19.8996 8.49716 19.4967 8.9001 18.9996 8.9001L4.99961 8.9001C4.50255 8.9001 4.09961 8.49715 4.09961 8.0001ZM4.09961 12.0001C4.09961 11.503 4.50255 11.1001 4.99961 11.1001L18.9996 11.1001C19.4967 11.1001 19.8996 11.503 19.8996 12.0001C19.8996 12.4972 19.4967 12.9001 18.9996 12.9001L4.99961 12.9001C4.50255 12.9001 4.09961 12.4972 4.09961 12.0001ZM4.09961 16.0001C4.09961 15.503 4.50255 15.1001 4.99961 15.1001L18.9996 15.1001C19.4967 15.1001 19.8996 15.503 19.8996 16.0001C19.8996 16.4972 19.4967 16.9001 18.9996 16.9001L4.99961 16.9001C4.50255 16.9001 4.09961 16.4972 4.09961 16.0001Z" fill="black"/>
</svg>
