<svg width="24" height="24" viewBox="0 0 24 24" fill="none" xmlns="http://www.w3.org/2000/svg">
<path fill-rule="evenodd" clip-rule="evenodd" d="M11.9996 3.9001C7.5261 3.9001 3.89961 7.52659 3.89961 12.0001C3.89961 16.4736 7.5261 20.1001 11.9996 20.1001C16.4731 20.1001 20.0996 16.4736 20.0996 12.0001C20.0996 7.52659 16.4731 3.9001 11.9996 3.9001ZM2.09961 12.0001C2.09961 6.53248 6.53199 2.1001 11.9996 2.1001C17.4672 2.1001 21.8996 6.53248 21.8996 12.0001C21.8996 17.4677 17.4672 21.9001 11.9996 21.9001C6.53199 21.9001 2.09961 17.4677 2.09961 12.0001Z" fill="black"/>
<path fill-rule="evenodd" clip-rule="evenodd" d="M11.9993 7.14794C12.6621 7.14794 13.1993 7.68519 13.1993 8.34794C13.1993 9.01068 12.6621 9.54794 11.9993 9.54794C11.3366 9.54794 10.7993 9.01068 10.7993 8.34794C10.7993 7.68519 11.3366 7.14794 11.9993 7.14794ZM11.9996 16.8519C11.5026 16.8519 11.0996 16.4489 11.0996 15.9519V11.6762C11.0996 11.1792 11.5026 10.7762 11.9996 10.7762C12.4967 10.7762 12.8996 11.1791 12.8996 11.6762V15.9519C12.8996 16.4489 12.4967 16.8519 11.9996 16.8519Z" fill="black"/>
</svg>
