<svg width="24" height="24" viewBox="0 0 24 24" fill="none" xmlns="http://www.w3.org/2000/svg">
<path fill-rule="evenodd" clip-rule="evenodd" d="M14.3259 1.57342C14.6774 1.92489 14.6774 2.49474 14.3259 2.84621L13.9586 3.21356C17.9874 4.1078 21.0002 7.70211 21.0002 12.0001C21.0002 12.4972 20.5973 12.9001 20.1002 12.9001C19.6031 12.9001 19.2002 12.4972 19.2002 12.0001C19.2002 8.91217 17.2562 6.27821 14.5253 5.25517C14.6549 5.57933 14.5884 5.96361 14.3259 6.22609C13.9745 6.57757 13.4046 6.57757 13.0532 6.22609L11.3632 4.53615C11.0117 4.18468 11.0117 3.61483 11.3632 3.26336L13.0532 1.57342C13.4046 1.22195 13.9745 1.22195 14.3259 1.57342ZM8.09985 10C8.09985 8.9507 8.95051 8.10004 9.99985 8.10004H13.9999C15.0492 8.10004 15.8999 8.9507 15.8999 10V14C15.8999 15.0494 15.0492 15.9 13.9999 15.9H9.99985C8.95051 15.9 8.09985 15.0494 8.09985 14V10ZM9.99985 9.90004C9.94463 9.90004 9.89985 9.94481 9.89985 10V14C9.89985 14.0553 9.94463 14.1 9.99985 14.1H13.9999C14.0551 14.1 14.0999 14.0553 14.0999 14V10C14.0999 9.94481 14.0551 9.90004 13.9999 9.90004H9.99985ZM12.8992 20.0826C12.9084 19.8409 12.8208 19.5961 12.6362 19.4116L10.9463 17.7216C10.5948 17.3701 10.025 17.3701 9.67352 17.7216C9.39377 18.0014 9.33668 18.4195 9.50226 18.7557C6.75648 17.7404 4.79902 15.0988 4.79902 12.0001H2.99902C2.99902 16.2829 5.99044 19.8671 9.99792 20.7771L9.67352 21.1015C9.32204 21.453 9.32204 22.0228 9.67352 22.3743C10.025 22.7258 10.5948 22.7258 10.9463 22.3743L12.4293 20.8913C12.7093 20.7388 12.8994 20.4418 12.8994 20.1004C12.8994 20.0945 12.8993 20.0885 12.8992 20.0826Z" fill="black"/>
</svg>
