<svg width="24" height="24" viewBox="0 0 24 24" fill="none" xmlns="http://www.w3.org/2000/svg">
<g clip-path="url(#clip0_14710_799)">
<path d="M13.9371 1.28316C16.7406 0.296195 19.7639 2.0417 20.3109 4.96308L20.3748 5.30463C20.5781 6.39014 21.1459 7.3737 21.9844 8.09248L22.2482 8.31864C24.5047 10.253 24.5047 13.7441 22.2482 15.6785L21.9844 15.9046C21.1459 16.6234 20.5781 17.607 20.3748 18.6925L20.3109 19.034C19.7639 21.9554 16.7406 23.7009 13.9371 22.7139L13.6093 22.5985C12.5676 22.2318 11.4319 22.2318 10.3902 22.5985L10.0624 22.7139C7.25893 23.7009 4.23563 21.9554 3.68862 19.034L3.62467 18.6925C3.42142 17.607 2.85356 16.6234 2.0151 15.9046L1.75129 15.6785C-0.505195 13.7441 -0.505196 10.253 1.75129 8.31864L2.0151 8.09248C2.85356 7.3737 3.42142 6.39014 3.62467 5.30463L3.68862 4.96308C4.23562 2.0417 7.25893 0.296194 10.0624 1.28316L10.3902 1.39855C11.4319 1.76529 12.5676 1.76529 13.6093 1.39855L13.9371 1.28316Z" fill="url(#paint0_linear_14710_799)"/>
<path d="M13.5968 3.16665C15.9076 2.35315 18.3995 3.79188 18.8504 6.19982L18.9031 6.48134C19.0706 7.37608 19.5387 8.18677 20.2298 8.77923L20.4472 8.96564C22.3071 10.5601 22.3071 13.4375 20.4472 15.032L20.2298 15.2184C19.5387 15.8108 19.0706 16.6215 18.9031 17.5163L18.8504 17.7978C18.3995 20.2057 15.9076 21.6445 13.5968 20.831L13.3266 20.7358C12.468 20.4336 11.5319 20.4336 10.6733 20.7358L10.4031 20.831C8.09232 21.6445 5.60036 20.2057 5.1495 17.7978L5.09678 17.5163C4.92925 16.6215 4.4612 15.8108 3.7701 15.2184L3.55265 15.032C1.69275 13.4375 1.69275 10.5601 3.55265 8.96564L3.7701 8.77923C4.4612 8.18677 4.92925 7.37608 5.09678 6.48134L5.1495 6.19982C5.60036 3.79188 8.09232 2.35314 10.4031 3.16665L10.6733 3.26176C11.5319 3.56405 12.468 3.56404 13.3266 3.26176L13.5968 3.16665Z" fill="url(#paint1_linear_14710_799)"/>
<path d="M13.7627 3.63861C15.7843 2.92691 17.9639 4.18535 18.3584 6.29193L18.4115 6.57294C18.6 7.57966 19.1268 8.49243 19.9044 9.15903L20.1216 9.34532C21.7487 10.7402 21.7487 13.2571 20.1216 14.652L19.9043 14.8389C19.1268 15.5055 18.6001 16.4176 18.4116 17.4243L18.3584 17.7059C17.9639 19.8124 15.7842 21.0709 13.7627 20.3592L13.4928 20.2643C12.5267 19.9242 11.4728 19.9243 10.5067 20.2644L10.2368 20.3589C8.21525 21.0705 6.03554 19.8121 5.64111 17.7056L5.58797 17.4246C5.3995 16.418 4.87332 15.5056 4.09591 14.839L3.87786 14.6522C2.25102 13.2574 2.25107 10.7404 3.87787 9.34555L4.09516 9.15865C4.87275 8.49205 5.39934 7.57997 5.58784 6.57326L5.64105 6.29163C6.03559 4.18527 8.21532 2.92683 10.2367 3.63829L10.5075 3.73374C11.4735 4.07371 12.5268 4.07317 13.4928 3.7331L13.7627 3.63861Z" stroke="white" stroke-opacity="0.2"/>
<path d="M12.7401 8.06969C12.7401 7.45398 13.1743 6.99878 13.78 6.99878C14.3858 6.99878 14.8336 7.44019 14.8336 8.06969V12.8211C14.8336 15.003 13.727 16.5417 11.5422 16.5417C10.4233 16.5417 8.77637 16.153 8.77637 14.8413C8.77637 14.2795 9.10575 13.8907 9.64485 13.8907C10.2765 13.8907 10.5664 14.4801 11.3177 14.4801C12.4107 14.4801 12.7401 13.7704 12.7401 12.8198V8.06969Z" fill="white"/>
</g>
<defs>
<linearGradient id="paint0_linear_14710_799" x1="14.12" y1="0.226216" x2="15.664" y2="24.2067" gradientUnits="userSpaceOnUse">
<stop stop-color="#FFB018"/>
<stop offset="1" stop-color="#FF9F0E"/>
</linearGradient>
<linearGradient id="paint1_linear_14710_799" x1="12.0405" y1="1.91664" x2="15.3222" y2="21.2163" gradientUnits="userSpaceOnUse">
<stop stop-color="#FFDA17"/>
<stop offset="1" stop-color="#FF9900"/>
</linearGradient>
<clipPath id="clip0_14710_799">
<rect width="24" height="24" fill="white"/>
</clipPath>
</defs>
</svg>
