<svg width="24" height="24" viewBox="0 0 24 24" fill="none" xmlns="http://www.w3.org/2000/svg">
<path fill-rule="evenodd" clip-rule="evenodd" d="M5.4002 4.49971C4.90314 4.49971 4.5002 4.90265 4.5002 5.39971L4.5002 7.5362C4.5002 8.03325 4.09725 8.4362 3.6002 8.4362C3.10314 8.4362 2.7002 8.03326 2.7002 7.5362L2.7002 5.39971C2.7002 3.90854 3.90903 2.69971 5.4002 2.69971H7.53685C8.03391 2.69971 8.43685 3.10265 8.43685 3.59971C8.43685 4.09676 8.03391 4.49971 7.53685 4.49971H5.4002ZM15.5635 3.59971C15.5635 3.10265 15.9664 2.69971 16.4635 2.69971H18.6002C20.0914 2.69971 21.3002 3.90855 21.3002 5.39973L21.3002 7.53621C21.3002 8.03326 20.8972 8.4362 20.4002 8.4362C19.9031 8.43619 19.5002 8.03325 19.5002 7.53619L19.5002 5.39972C19.5002 4.90266 19.0972 4.49971 18.6002 4.49971H16.4635C15.9664 4.49971 15.5635 4.09676 15.5635 3.59971ZM18.7639 12.9006L5.23542 12.9006C4.73837 12.9006 4.33542 12.4977 4.33542 12.0006C4.33542 11.5036 4.73837 11.1006 5.23542 11.1006L18.7639 11.1006C19.2609 11.1006 19.6639 11.5036 19.6639 12.0006C19.6639 12.4977 19.2609 12.9006 18.7639 12.9006ZM3.6002 15.5647C4.09725 15.5647 4.5002 15.9677 4.5002 16.4647V18.6012C4.5002 19.0985 4.90301 19.5012 5.39984 19.5012L7.53686 19.5012C8.03391 19.5012 8.43685 19.9042 8.43685 20.4012C8.43685 20.8983 8.03391 21.3012 7.53685 21.3012L5.39983 21.3012C3.90844 21.3012 2.7002 20.0921 2.7002 18.6012V16.4647C2.7002 15.9677 3.10314 15.5647 3.6002 15.5647ZM20.4002 15.5647C20.8972 15.5647 21.3002 15.9677 21.3002 16.4647L21.3002 18.6012C21.3002 20.0924 20.0914 21.3012 18.6002 21.3012L16.4635 21.3012C15.9664 21.3012 15.5635 20.8983 15.5635 20.4012C15.5635 19.9042 15.9664 19.5012 16.4635 19.5012L18.6002 19.5012C19.0972 19.5012 19.5002 19.0983 19.5002 18.6012L19.5002 16.4647C19.5002 15.9677 19.9031 15.5647 20.4002 15.5647Z" fill="black"/>
</svg>
