<svg width="24" height="24" viewBox="0 0 24 24" fill="none" xmlns="http://www.w3.org/2000/svg">
<path fill-rule="evenodd" clip-rule="evenodd" d="M11.9974 21.5017L11.9998 21.5017L12.0023 21.5017C12.2703 21.5017 12.5271 21.3941 12.715 21.2032C13.4896 20.4163 14.4712 19.5047 15.5176 18.5331C16.1503 17.9455 16.8069 17.3358 17.4555 16.7186C19.1121 15.142 20.7607 13.4766 21.5154 12.1867L21.5167 12.1846C23.4299 8.89668 22.5189 4.66958 18.987 3.06169C17.4321 2.35238 15.9256 2.34518 14.5641 2.86981C13.5998 3.24136 12.7448 3.86449 12.0041 4.62771H11.9956C11.2549 3.86449 10.3999 3.24136 9.43565 2.86981C8.07408 2.34518 6.56762 2.35238 5.01275 3.06169C1.48078 4.66958 0.569839 8.89668 2.48303 12.1846L2.48426 12.1867C3.23903 13.4766 4.88762 15.142 6.54422 16.7186C7.19276 17.3358 7.84936 17.9455 8.48213 18.5331C9.52846 19.5047 10.5101 20.4163 11.2847 21.2032C11.4726 21.3941 11.7294 21.5017 11.9974 21.5017Z" fill="#FE5B58"/>
</svg>
