<svg width="24" height="24" viewBox="0 0 24 24" fill="none" xmlns="http://www.w3.org/2000/svg">
<path d="M13.3003 2.34888C13.7973 2.34888 14.2007 2.75221 14.2007 3.24927C14.2007 3.74632 13.7973 4.14966 13.3003 4.14966H7.30029C6.1405 4.14966 5.20068 5.08947 5.20068 6.24927V17.7493C5.20068 18.9091 6.1405 19.8489 7.30029 19.8489H13.3003C13.7973 19.8489 14.2007 20.2522 14.2007 20.7493C14.2007 21.2463 13.7973 21.6497 13.3003 21.6497H7.30029C5.14638 21.6497 3.3999 19.9032 3.3999 17.7493V6.24927C3.3999 4.09536 5.14638 2.34888 7.30029 2.34888H13.3003Z" fill="black"/>
<path d="M15.9741 7.63892C16.3112 7.27393 16.8804 7.25119 17.2456 7.58813L21.3101 11.3381C21.4945 11.5085 21.6001 11.7482 21.6001 11.9993C21.6001 12.2504 21.4945 12.4901 21.3101 12.6604L17.2456 16.4104C16.8804 16.7473 16.3112 16.7245 15.9741 16.3596C15.6371 15.9944 15.6598 15.4252 16.0249 15.0881L18.397 12.8997H9.23486C8.73813 12.8993 8.33545 12.4961 8.33545 11.9993C8.33545 11.5024 8.73813 11.0993 9.23486 11.0989H18.397L16.0249 8.9104C15.6598 8.57332 15.6371 8.00417 15.9741 7.63892Z" fill="black"/>
</svg>
