<svg width="24" height="24" viewBox="0 0 24 24" fill="none" xmlns="http://www.w3.org/2000/svg">
<path d="M14 10.25C14 11.3567 13.1067 12.25 12 12.25C10.8933 12.25 10 11.3567 10 10.25C10 9.14333 10.8933 8.25 12 8.25C13.1067 8.25 14 9.14333 14 10.25Z" fill="black"/>
<path fill-rule="evenodd" clip-rule="evenodd" d="M12.4702 22.2673L12.4729 22.2656L12.479 22.2618L12.4998 22.2489C12.5173 22.2379 12.5423 22.2222 12.5741 22.2018C12.6378 22.1611 12.7291 22.1019 12.8441 22.0249C13.074 21.8709 13.3991 21.6457 13.7877 21.3559C14.5634 20.7774 15.6001 19.9354 16.64 18.8824C18.6876 16.8091 20.8996 13.764 20.8996 10.1993C20.8996 5.41788 16.8821 1.6001 11.9996 1.6001C7.1171 1.6001 3.09961 5.41788 3.09961 10.1993C3.09961 13.6179 5.31873 16.6647 7.35345 18.7633C8.39031 19.8327 9.42397 20.7015 10.1973 21.3026C10.5847 21.6037 10.9086 21.8391 11.1374 22.0004C11.2519 22.081 11.3427 22.1432 11.4059 22.1859C11.4375 22.2073 11.4622 22.2238 11.4796 22.2353L11.5 22.2487L11.506 22.2526L11.5078 22.2539C11.5078 22.2539 11.509 22.2546 11.9996 21.5001L11.509 22.2546C11.7999 22.4438 12.1743 22.4485 12.4702 22.2673ZM12.4702 22.2673L11.9996 21.5001C12.4697 22.2676 12.4702 22.2673 12.4702 22.2673ZM11.9996 6.1501C9.73 6.1501 7.89961 7.98049 7.89961 10.2501C7.89961 12.5197 9.73 14.3501 11.9996 14.3501C14.2692 14.3501 16.0996 12.5197 16.0996 10.2501C16.0996 7.98049 14.2692 6.1501 11.9996 6.1501Z" fill="black"/>
</svg>
