<svg width="24" height="24" viewBox="0 0 24 24" fill="none" xmlns="http://www.w3.org/2000/svg">
<path fill-rule="evenodd" clip-rule="evenodd" d="M16.5001 3.4001L5.0001 3.4001C4.39259 3.4001 3.9001 3.89258 3.9001 4.5001L3.9001 19.5001C3.9001 20.1076 4.39258 20.6001 5.0001 20.6001H16.5001C17.1076 20.6001 17.6001 20.1076 17.6001 19.5001V17.5001C17.6001 17.003 18.0031 16.6001 18.5001 16.6001C18.9972 16.6001 19.4001 17.003 19.4001 17.5001V19.5001C19.4001 21.1017 18.1017 22.4001 16.5001 22.4001H5.0001C3.39847 22.4001 2.1001 21.1017 2.1001 19.5001L2.1001 4.5001C2.1001 2.89847 3.39847 1.6001 5.0001 1.6001L16.5001 1.6001C18.1018 1.6001 19.4001 2.89847 19.4001 4.5001V6.5001C19.4001 6.99715 18.9972 7.4001 18.5001 7.4001C18.0031 7.4001 17.6001 6.99715 17.6001 6.5001V4.5001C17.6001 3.89258 17.1076 3.4001 16.5001 3.4001ZM12.9052 7.76489C13.242 8.13046 13.2186 8.69983 12.8531 9.03662L10.6132 11.1001L20.9995 11.1001C21.4965 11.1001 21.8995 11.503 21.8995 12.0001C21.8995 12.4972 21.4965 12.9001 20.9995 12.9001L10.6132 12.9001L12.8531 14.9636C13.2186 15.3004 13.242 15.8698 12.9052 16.2353C12.5684 16.6009 11.999 16.6242 11.6335 16.2874L7.69819 12.662C7.51322 12.4916 7.40799 12.2516 7.40799 12.0001C7.40799 11.7486 7.51322 11.5086 7.69819 11.3382L11.6335 7.71277C11.999 7.37599 12.5684 7.39932 12.9052 7.76489Z" fill="black"/>
</svg>
