<svg width="24" height="24" viewBox="0 0 24 24" fill="none" xmlns="http://www.w3.org/2000/svg">
<path d="M10.4248 16.4502C11.0461 16.4502 11.5498 15.9465 11.5498 15.3252C11.5498 14.7039 11.0461 14.2002 10.4248 14.2002C9.80348 14.2002 9.2998 14.7039 9.2998 15.3252C9.2998 15.9465 9.80348 16.4502 10.4248 16.4502Z" fill="black"/>
<path d="M15.1499 16.2251C15.1499 16.8464 14.6462 17.3501 14.0249 17.3501C13.4036 17.3501 12.8999 16.8464 12.8999 16.2251C12.8999 15.6038 13.4036 15.1001 14.0249 15.1001C14.6462 15.1001 15.1499 15.6038 15.1499 16.2251Z" fill="black"/>
<path fill-rule="evenodd" clip-rule="evenodd" d="M5.8999 3.5001C5.8999 3.00304 6.30285 2.6001 6.7999 2.6001H17.1999C17.697 2.6001 18.0999 3.00304 18.0999 3.5001C18.0999 3.99715 17.697 4.4001 17.1999 4.4001H15.5998V8.54789C15.5998 8.56444 15.6039 8.58073 15.6118 8.5953L20.0284 16.7975C21.1485 18.8777 19.6419 21.4 17.2794 21.4H6.72033C4.35782 21.4 2.85124 18.8777 3.9713 16.7975L8.38789 8.5953C8.39574 8.58073 8.39984 8.56444 8.39984 8.54789V4.4001H6.7999C6.30285 4.4001 5.8999 3.99715 5.8999 3.5001ZM10.1998 4.4001V8.54789C10.1998 8.86232 10.1218 9.17183 9.97274 9.44868L9.35274 10.6001H14.6469L14.0269 9.44868C13.8779 9.17183 13.7998 8.86232 13.7998 8.54789V4.4001H10.1998ZM15.6162 12.4001H8.38351L5.55615 17.6509C5.08181 18.5318 5.71983 19.6 6.72033 19.6H17.2794C18.2799 19.6 18.9179 18.5318 18.4435 17.6509L15.6162 12.4001Z" fill="black"/>
</svg>
