<svg width="24" height="24" viewBox="0 0 24 24" fill="none" xmlns="http://www.w3.org/2000/svg">
<path fill-rule="evenodd" clip-rule="evenodd" d="M6.86475 7.23539C6.86475 4.39925 9.1639 2.1001 12 2.1001C14.8362 2.1001 17.1353 4.39925 17.1353 7.23539V9.51196H17.4115C19.0131 9.51196 20.3115 10.8103 20.3115 12.412V19.0002C20.3115 20.6018 19.0131 21.9002 17.4115 21.9002H6.58799C4.98637 21.9002 3.68799 20.6018 3.68799 19.0002V12.412C3.68799 10.8103 4.98636 9.51196 6.58799 9.51196H6.86475V7.23539ZM15.3353 9.51186V7.23539C15.3353 5.39336 13.8421 3.9001 12 3.9001C10.158 3.9001 8.66475 5.39336 8.66475 7.23539V9.51186H15.3353ZM6.58799 11.312C5.98048 11.312 5.48799 11.8045 5.48799 12.412V19.0002C5.48799 19.6077 5.98048 20.1002 6.58799 20.1002H17.4115C18.019 20.1002 18.5115 19.6077 18.5115 19.0002V12.412C18.5115 11.8045 18.019 11.312 17.4115 11.312H6.58799ZM12.0001 13.7471C12.4972 13.7471 12.9001 14.15 12.9001 14.6471V16.7647C12.9001 17.2618 12.4972 17.6647 12.0001 17.6647C11.503 17.6647 11.1001 17.2618 11.1001 16.7647V14.6471C11.1001 14.15 11.503 13.7471 12.0001 13.7471Z" fill="black"/>
</svg>
