<svg width="24" height="24" viewBox="0 0 24 24" fill="none" xmlns="http://www.w3.org/2000/svg">
<path d="M14.5679 11.1151H9.48279C9.53499 8.65393 9.80725 6.48905 10.2847 4.91373C10.5528 4.02934 10.8675 3.39221 11.195 2.99281C11.51 2.60874 11.7844 2.5 12.0274 2.5C12.2688 2.5 12.5424 2.60815 12.857 2.99236C13.1842 3.39181 13.4986 4.02904 13.7664 4.91352C14.2435 6.48896 14.5157 8.65393 14.5679 11.1151Z" fill="black"/>
<path d="M13.7664 19.0865C14.2435 17.5111 14.5157 15.3461 14.5679 12.885H9.48279C9.53499 15.3461 9.80725 17.511 10.2847 19.0863C10.5528 19.9707 10.8675 20.6078 11.195 21.0072C11.51 21.3913 11.7844 21.5 12.0274 21.5C12.2688 21.5 12.5423 21.3918 12.857 21.0076C13.1842 20.6082 13.4986 19.971 13.7664 19.0865Z" fill="black"/>
<path d="M7.85451 11.1144H2.34961C2.34961 7.59289 5.25621 4.21198 8.49343 2.66841C8.98394 2.43452 9.37294 2.95314 9.13246 3.44081C9.00149 3.70639 8.86686 4.02011 8.73291 4.3997C8.18957 6.19238 7.90664 8.54661 7.85451 11.1144Z" fill="black"/>
<path d="M2.34961 12.884H7.85451C7.90664 15.4518 8.18957 17.806 8.73291 19.5987C8.86686 19.9783 9.00149 20.292 9.13246 20.5576C9.37294 21.0453 8.98394 21.5639 8.49343 21.33C5.25621 19.7864 2.34961 16.4055 2.34961 12.884Z" fill="black"/>
<path d="M16.1447 11.1144H21.6496C21.6496 7.59289 18.743 4.21198 15.5058 2.66841C15.0153 2.43452 14.6263 2.95314 14.8668 3.44081C14.9977 3.70639 15.1324 4.02011 15.2663 4.3997C15.8096 6.19238 16.0926 8.54661 16.1447 11.1144Z" fill="black"/>
<path d="M21.6496 12.884H16.1447C16.0926 15.4518 15.8096 17.806 15.2663 19.5987C15.1324 19.9783 14.9977 20.292 14.8668 20.5576C14.6263 21.0453 15.0153 21.5639 15.5058 21.33C18.743 19.7864 21.6496 16.4055 21.6496 12.884Z" fill="black"/>
</svg>
