<svg width="24" height="24" viewBox="0 0 24 24" fill="none" xmlns="http://www.w3.org/2000/svg">
<path d="M12.0006 5.10088C12.7413 4.339 13.5962 3.71696 14.5605 3.34606C15.9221 2.82234 17.4285 2.88419 18.9834 3.59225C22.5154 5.19733 23.4263 9.41704 21.5131 12.6992L21.5119 12.7013C20.7571 13.989 19.1085 15.6515 17.4519 17.2253C16.8034 17.8413 16.1471 18.4497 15.5144 19.0362L15.514 19.0366C14.4677 20.0065 13.486 20.9165 12.7115 21.702C12.5238 21.8924 12.2675 21.9997 12 22C11.7325 21.9997 11.4763 21.8924 11.2886 21.702C10.514 20.9165 9.53237 20.0065 8.48604 19.0366C7.85326 18.45 7.19667 17.8414 6.54812 17.2253C4.89153 15.6515 3.24294 13.989 2.48817 12.7013L2.48694 12.6992C0.573745 9.41704 1.48469 5.19733 5.01665 3.59225C6.57153 2.88419 8.07906 2.82234 9.44064 3.34606C10.4049 3.71696 11.2598 4.339 12.0006 5.10088Z" fill="#FE5B58"/>
<path d="M12.0006 5.10088C12.7413 4.339 13.5962 3.71696 14.5605 3.34606C15.9221 2.82234 17.4285 2.88419 18.9834 3.59225C22.5154 5.19733 23.4263 9.41704 21.5131 12.6992L21.5119 12.7013C20.7571 13.989 19.1085 15.6515 17.4519 17.2253C16.8034 17.8413 16.1471 18.4497 15.5144 19.0362L15.514 19.0366C14.4677 20.0065 13.486 20.9165 12.7115 21.702C12.5238 21.8924 12.2675 21.9997 12 22C11.7325 21.9997 11.4763 21.8924 11.2886 21.702C10.514 20.9165 9.53237 20.0065 8.48604 19.0366C7.85326 18.45 7.19667 17.8414 6.54812 17.2253C4.89153 15.6515 3.24294 13.989 2.48817 12.7013L2.48694 12.6992C0.573745 9.41704 1.48469 5.19733 5.01665 3.59225C6.57153 2.88419 8.07906 2.82234 9.44064 3.34606C10.4049 3.71696 11.2598 4.339 12.0006 5.10088Z" fill="url(#paint0_linear_15082_361)"/>
<defs>
<linearGradient id="paint0_linear_15082_361" x1="15.4598" y1="3" x2="-1.54149" y2="3" gradientUnits="userSpaceOnUse">
<stop stop-color="#FF8BE9"/>
<stop offset="1" stop-color="#FFE0F9"/>
</linearGradient>
</defs>
</svg>
