<svg width="24" height="24" viewBox="0 0 24 24" fill="none" xmlns="http://www.w3.org/2000/svg">
<path fill-rule="evenodd" clip-rule="evenodd" d="M12.0001 3.9001C7.52659 3.9001 3.9001 7.52659 3.9001 12.0001C3.9001 16.4736 7.52659 20.1001 12.0001 20.1001C16.4736 20.1001 20.1001 16.4736 20.1001 12.0001C20.1001 7.52659 16.4736 3.9001 12.0001 3.9001ZM2.1001 12.0001C2.1001 6.53248 6.53248 2.1001 12.0001 2.1001C17.4677 2.1001 21.9001 6.53248 21.9001 12.0001C21.9001 17.4677 17.4677 21.9001 12.0001 21.9001C6.53248 21.9001 2.1001 17.4677 2.1001 12.0001Z" fill="black"/>
<path fill-rule="evenodd" clip-rule="evenodd" d="M16.4 11.9999C16.4 12.497 15.9971 12.8999 15.5 12.8999H8.5C8.00294 12.8999 7.6 12.497 7.6 11.9999C7.6 11.5029 8.00294 11.0999 8.5 11.0999H15.5C15.9971 11.0999 16.4 11.5029 16.4 11.9999Z" fill="black"/>
</svg>
