<svg width="24" height="24" viewBox="0 0 24 24" fill="none" xmlns="http://www.w3.org/2000/svg">
<path fill-rule="evenodd" clip-rule="evenodd" d="M9.39992 3.00011C10.3999 3.40011 11.3 4.00003 12 4.80003C12.7 4.00003 13.6001 3.40011 14.6001 3.00011C15.9001 2.50011 17.4001 2.50011 18.9001 3.20011C22.4001 4.70011 23.3001 8.90011 21.4001 12.1001C20.7878 13.2371 19.4106 14.6036 18.0044 15.9989C17.8029 16.1989 17.6007 16.3995 17.4001 16.6001C17.1001 16.9001 16.7751 17.2001 16.4501 17.5001C16.1251 17.8001 15.8001 18.1001 15.5001 18.4001C14.9722 18.928 14.4443 19.428 13.9459 19.9001C13.5001 20.3224 13.0778 20.7224 12.7001 21.1001C12.5001 21.3001 12.3001 21.4001 12.1001 21.4001C12.0688 21.4001 12.035 21.4001 12 21.399C11.965 21.4001 11.9312 21.4001 11.8999 21.4001C11.6999 21.4001 11.4999 21.3001 11.2999 21.1001C10.9222 20.7224 10.4999 20.3224 10.0541 19.9001C9.55566 19.428 9.02779 18.928 8.49992 18.4001C8.19992 18.1001 7.87492 17.8001 7.54992 17.5001C7.22492 17.2001 6.89992 16.9001 6.59992 16.6001C6.39941 16.3996 6.19733 16.1991 5.99584 15.9992C4.58962 14.6039 3.21216 13.2371 2.59992 12.1001C0.699921 8.90011 1.59992 4.70011 5.09992 3.20011C6.59992 2.50011 8.09992 2.50011 9.39992 3.00011ZM12 19.1C12.6989 18.4011 13.4976 17.7023 14.2963 17.0034L14.3001 17.0001C14.9001 16.4001 15.6001 15.8001 16.2001 15.3001C17.9001 13.7001 19.3001 12.2001 19.9001 11.2001C21.4001 8.70011 20.6001 5.80011 18.2001 4.80011C17.1001 4.30011 16.1001 4.30011 15.2001 4.70011C14.3001 5.00011 13.4001 5.80011 12.7001 6.80011C12.5001 7.00011 12.3001 7.20011 12.0001 7.20011C11.7001 7.20011 11.4999 7.00011 11.2999 6.80011C10.5999 5.80011 9.69992 5.00011 8.79992 4.70011C7.89992 4.30011 6.89992 4.30011 5.79992 4.80011C3.39992 5.80011 2.59992 8.70011 4.09992 11.2001C4.69992 12.2001 6.09992 13.7001 7.79992 15.3001C8.39992 15.8001 9.09992 16.4001 9.69992 17.0001L9.70367 17.0034C10.5024 17.7023 11.3011 18.4011 12 19.1Z" fill="black"/>
</svg>
