<svg width="24" height="24" viewBox="0 0 24 24" fill="none" xmlns="http://www.w3.org/2000/svg">
<path fill-rule="evenodd" clip-rule="evenodd" d="M11.9996 3.40034C8.04556 3.40034 4.89961 6.47664 4.89961 10.1995C4.89961 12.8799 6.68049 15.4836 8.64577 17.5106C9.6089 18.504 10.5752 19.3168 11.3019 19.8817C11.5795 20.0975 11.8211 20.2762 12.0127 20.4141C12.202 20.2842 12.4393 20.1163 12.7115 19.9133C13.4358 19.3731 14.3992 18.59 15.3593 17.6178C17.3116 15.641 19.0996 13.0357 19.0996 10.1995C19.0996 6.47664 15.9537 3.40034 11.9996 3.40034ZM11.9996 21.5003C12.4697 22.2678 12.4702 22.2675 12.4702 22.2675L12.4729 22.2659L12.479 22.2621L12.4998 22.2492C12.5173 22.2382 12.5423 22.2224 12.5741 22.2021C12.6378 22.1614 12.7291 22.1021 12.8441 22.0251C13.074 21.8712 13.3991 21.646 13.7877 21.3561C14.5634 20.7776 15.6001 19.9356 16.64 18.8827C18.6876 16.8094 20.8996 13.7643 20.8996 10.1995C20.8996 5.41812 16.8821 1.60034 11.9996 1.60034C7.1171 1.60034 3.09961 5.41813 3.09961 10.1995C3.09961 13.6182 5.31873 16.6649 7.35345 18.7635C8.39031 19.833 9.42397 20.7018 10.1973 21.3029C10.5847 21.604 10.9086 21.8393 11.1374 22.0006C11.2519 22.0813 11.3427 22.1435 11.4059 22.1862C11.4375 22.2075 11.4622 22.224 11.4796 22.2355L11.5 22.249L11.506 22.2529L11.5078 22.2541C11.5078 22.2541 11.509 22.2549 11.9996 21.5003ZM11.9996 21.5003L11.509 22.2549C11.7999 22.444 12.1743 22.4488 12.4702 22.2675L11.9996 21.5003ZM8.09961 10.2325C8.09961 8.07546 9.84255 6.33252 11.9996 6.33252C14.1567 6.33252 15.8996 8.07546 15.8996 10.2325C15.8996 12.3896 14.1567 14.1325 11.9996 14.1325C9.84255 14.1325 8.09961 12.3896 8.09961 10.2325ZM11.9996 8.13252C10.8367 8.13252 9.89961 9.06957 9.89961 10.2325C9.89961 11.3955 10.8367 12.3325 11.9996 12.3325C13.1626 12.3325 14.0996 11.3955 14.0996 10.2325C14.0996 9.06957 13.1626 8.13252 11.9996 8.13252Z" fill="black"/>
</svg>
