<svg width="24" height="24" viewBox="0 0 24 24" fill="none" xmlns="http://www.w3.org/2000/svg">
<path fill-rule="evenodd" clip-rule="evenodd" d="M11.6441 3.49644C11.6441 2.99938 11.2411 2.59644 10.7441 2.59644H5.5001C3.89847 2.59644 2.6001 3.89481 2.6001 5.49644V18.4964C2.6001 20.0981 3.89847 21.3964 5.5001 21.3964H18.5001C20.1017 21.3964 21.4001 20.0981 21.4001 18.4964V13.3011C21.4001 12.8041 20.9972 12.4011 20.5001 12.4011C20.003 12.4011 19.6001 12.8041 19.6001 13.3011V18.4964C19.6001 19.1039 19.1076 19.5964 18.5001 19.5964H5.5001C4.89258 19.5964 4.4001 19.1039 4.4001 18.4964V5.49644C4.4001 4.88892 4.89258 4.39644 5.5001 4.39644H10.7441C11.2411 4.39644 11.6441 3.99349 11.6441 3.49644Z" fill="black"/>
<path fill-rule="evenodd" clip-rule="evenodd" d="M21.1424 2.86965C21.4907 3.22431 21.4855 3.79414 21.1308 4.14239L10.7542 14.3315C10.3995 14.6797 9.82972 14.6745 9.48147 14.3199C9.13321 13.9652 9.13841 13.3954 9.49307 13.0471L19.8697 2.85805C20.2243 2.5098 20.7941 2.51499 21.1424 2.86965Z" fill="black"/>
<path fill-rule="evenodd" clip-rule="evenodd" d="M20.5001 2.6001C20.9972 2.6001 21.4001 3.00304 21.4001 3.5001V9.0001C21.4001 9.49715 20.9972 9.9001 20.5001 9.9001C20.003 9.9001 19.6001 9.49715 19.6001 9.0001L19.6001 4.4001L15.0001 4.4001C14.503 4.4001 14.1001 3.99715 14.1001 3.5001C14.1001 3.00304 14.503 2.6001 15.0001 2.6001L20.5001 2.6001Z" fill="black"/>
</svg>
