<svg width="24" height="24" viewBox="0 0 24 24" fill="none" xmlns="http://www.w3.org/2000/svg">
<path d="M13.5137 13.6652C12.7507 14.4284 11.5138 14.4284 10.7509 13.6652C9.98798 12.902 9.98798 11.6647 10.7509 10.9015C11.5138 10.1383 12.7507 10.1383 13.5137 10.9015C14.2766 11.6647 14.2766 12.902 13.5137 13.6652Z" fill="black"/>
<path fill-rule="evenodd" clip-rule="evenodd" d="M17.7064 4.99505C18.0577 4.64358 18.6274 4.64358 18.9787 4.99505C23.0025 9.02024 23.0025 15.5464 18.9787 19.5715C18.6274 19.923 18.0577 19.923 17.7064 19.5715C17.355 19.2201 17.355 18.6502 17.7064 18.2987C21.0275 14.9765 21.0275 9.59008 17.7064 6.26784C17.355 5.91637 17.355 5.34652 17.7064 4.99505ZM6.28679 4.99507C6.63814 5.34654 6.63814 5.91639 6.28679 6.26786C2.96569 9.5901 2.96569 14.9765 6.28679 18.2988C6.63814 18.6502 6.63814 19.2201 6.28679 19.5716C5.93544 19.923 5.36579 19.923 5.01444 19.5716C0.990631 15.5464 0.99063 9.02025 5.01444 4.99507C5.36579 4.64359 5.93544 4.64359 6.28679 4.99507ZM9.21401 7.55328C9.56536 7.90475 9.56536 8.4746 9.21401 8.82607C7.30539 10.7353 7.30539 13.8309 9.21401 15.7402C9.56536 16.0916 9.56536 16.6615 9.21401 17.013C8.86266 17.3644 8.29301 17.3644 7.94165 17.013C5.33033 14.4007 5.33033 10.1655 7.94166 7.55328C8.29301 7.20181 8.86266 7.2018 9.21401 7.55328ZM14.7792 7.55364C15.1305 7.20217 15.7002 7.20217 16.0515 7.55364C18.6628 10.1659 18.6628 14.4011 16.0515 17.0133C15.7002 17.3648 15.1305 17.3648 14.7792 17.0133C14.4278 16.6619 14.4278 16.092 14.7792 15.7405C16.6878 13.8313 16.6878 10.7357 14.7792 8.82644C14.4278 8.47496 14.4278 7.90511 14.7792 7.55364Z" fill="black"/>
</svg>
