<svg width="24" height="24" viewBox="0 0 24 24" fill="none" xmlns="http://www.w3.org/2000/svg">
<path d="M14.9996 12.0001C14.9996 13.6569 13.6564 15.0001 11.9996 15.0001C10.3427 15.0001 8.99957 13.6569 8.99957 12.0001C8.99957 10.3432 10.3427 9.00006 11.9996 9.00006C13.6564 9.00006 14.9996 10.3432 14.9996 12.0001Z" fill="black"/>
<path fill-rule="evenodd" clip-rule="evenodd" d="M11.9995 1.3501C12.4966 1.35009 12.8995 1.75302 12.8995 2.25008L12.8996 3.64771C16.8199 4.06528 19.9343 7.17975 20.3519 11.1001H21.749C22.2461 11.1001 22.649 11.503 22.649 12.0001C22.649 12.4971 22.2461 12.9001 21.749 12.9001H20.3519C19.9343 16.8204 16.8199 19.9348 12.8996 20.3524V21.7501C12.8996 22.2471 12.4966 22.6501 11.9996 22.6501C11.5025 22.6501 11.0996 22.2471 11.0996 21.7501V20.3524C7.17926 19.9348 4.06479 16.8204 3.64722 12.9L2.24959 12.9C1.75254 12.9 1.3496 12.4971 1.34961 12C1.34962 11.503 1.75257 11.1 2.24962 11.1L3.64722 11.1C4.06481 7.17976 7.17926 4.0653 11.0996 3.64771L11.0995 2.25012C11.0995 1.75306 11.5024 1.35011 11.9995 1.3501ZM11.9996 5.40006C8.35449 5.40006 5.39957 8.35498 5.39957 12.0001C5.39957 15.6451 8.35449 18.6001 11.9996 18.6001C15.6447 18.6001 18.5996 15.6451 18.5996 12.0001C18.5996 8.35498 15.6447 5.40006 11.9996 5.40006Z" fill="black"/>
</svg>
