<svg width="24" height="24" viewBox="0 0 24 24" fill="none" xmlns="http://www.w3.org/2000/svg">
<path d="M14.7061 3.24341C15.9655 2.75819 17.3605 2.76038 18.8193 3.42603L18.8184 3.427C22.0971 4.91958 22.9843 8.86222 21.1689 11.9827L21.168 11.9846C20.4471 13.2164 18.844 14.8423 17.1777 16.428C15.4728 18.0506 13.6754 19.6536 12.4277 20.9211C12.3151 21.0356 12.1616 21.1007 12.001 21.1008C11.8402 21.1008 11.686 21.0357 11.5732 20.9211C10.3255 19.6536 8.5282 18.0505 6.82324 16.428C5.15702 14.8423 3.55381 13.2164 2.83301 11.9846V11.9827C1.01808 8.86345 1.89244 4.91794 5.18359 3.42505V3.42603C6.64663 2.76117 8.04321 2.7581 9.30273 3.24341C10.3268 3.63801 11.2284 4.34533 12.001 5.22095C12.777 4.34503 13.6816 3.63813 14.7061 3.24341Z" fill="black" fill-opacity="0.1" stroke="white" stroke-width="1.2" stroke-linejoin="round"/>
</svg>
