<svg width="24" height="24" viewBox="0 0 24 24" fill="none" xmlns="http://www.w3.org/2000/svg">
<path fill-rule="evenodd" clip-rule="evenodd" d="M23.002 7.88209C23.002 7.61931 23.002 7.35653 23.002 7.09375C23.002 6.87375 22.9989 6.6507 22.9928 6.4307C22.9806 5.94792 22.95 5.46209 22.8645 4.98542C22.7789 4.50264 22.6353 4.05042 22.4122 3.61042C22.1922 3.17959 21.905 2.78237 21.5628 2.44014C21.2206 2.09792 20.8233 1.8107 20.3925 1.5907C19.9525 1.36764 19.5033 1.22403 19.0206 1.13848C18.5439 1.05292 18.0581 1.02542 17.5753 1.01014C17.3522 1.00709 17.1292 1.00403 16.9092 1.00098C16.6464 1.00098 16.3836 1.00098 16.1208 1.00098H7.88306C7.62029 1.00098 7.35751 1.00098 7.09473 1.00098C6.87473 1.00098 6.65168 1.00403 6.43168 1.01014C5.9489 1.02237 5.46306 1.05292 4.9864 1.13848C4.50362 1.22709 4.0514 1.36764 3.61445 1.59375C3.18056 1.81375 2.7864 2.10098 2.44418 2.4432C2.10195 2.78542 1.81168 3.17959 1.59168 3.61348C1.36862 4.05348 1.22501 4.50264 1.13945 4.98848C1.0539 5.46514 1.0264 5.95098 1.01112 6.43375C1.00806 6.65376 1.00501 6.87375 1.00195 7.09375C1.00195 7.35653 1.00195 7.61931 1.00195 7.88209V16.1168C1.00195 16.3796 1.00195 16.6424 1.00195 16.9051C1.00195 17.1251 1.00501 17.3482 1.01112 17.5682C1.02334 18.051 1.0539 18.5368 1.13945 19.0135C1.22501 19.4963 1.36862 19.9485 1.59168 20.3885C1.81168 20.8193 2.0989 21.2165 2.44112 21.5588C2.78334 21.901 3.18056 22.1882 3.6114 22.4082C4.0514 22.6313 4.50056 22.7749 4.98334 22.8604C5.46001 22.946 5.94584 22.9735 6.42862 22.9888C6.64862 22.9949 6.87168 22.9979 7.09168 22.9979C7.35445 23.001 7.61723 22.9979 7.88001 22.9979H16.1147C16.3775 22.9979 16.6403 22.9979 16.9031 22.9979C17.1231 22.9979 17.3461 22.9949 17.5661 22.9888C18.0489 22.9765 18.5347 22.946 19.0114 22.8604C19.4942 22.7749 19.9464 22.6313 20.3833 22.4082C20.8142 22.1882 21.2114 21.901 21.5536 21.5588C21.8958 21.2165 22.1831 20.8224 22.4031 20.3885C22.6261 19.9485 22.7697 19.4993 22.8553 19.0135C22.9408 18.5368 22.9683 18.051 22.9836 17.5682C22.9897 17.3482 22.9928 17.1251 22.9928 16.9051C22.9958 16.6424 22.9928 16.3796 22.9928 16.1168L23.002 7.88209Z" fill="white"/>
<path d="M11.3127 11.2905C12.7364 11.2905 13.8961 12.4503 13.8961 13.8739C13.8961 15.2976 12.7364 16.4574 11.3127 16.4574C9.88898 16.4574 8.72924 15.2976 8.72924 13.8739C8.72924 12.4503 9.88898 11.2905 11.3127 11.2905ZM11.3127 7.95679C8.04337 7.95679 5.39551 10.6067 5.39551 13.8739C5.39551 17.1412 8.04545 19.7911 11.3127 19.7911C14.5799 19.7911 17.2298 17.1412 17.2298 13.8739C17.2298 10.6067 14.5799 7.95679 11.3127 7.95679Z" fill="#04E632"/>
<path d="M19.394 6.04858C19.394 7.2769 18.3985 8.27245 17.1702 8.27245C15.9418 8.27245 14.9463 7.2769 14.9463 6.04858C14.9463 4.82025 15.9418 3.82471 17.1702 3.82471C18.3985 3.82471 19.394 4.82025 19.394 6.04858Z" fill="#04E632"/>
</svg>
