<svg width="24" height="24" viewBox="0 0 24 24" fill="none" xmlns="http://www.w3.org/2000/svg">
<path d="M0 6C0 2.68629 2.68629 0 6 0H18C21.3137 0 24 2.68629 24 6V18C24 21.3137 21.3137 24 18 24H6C2.68629 24 0 21.3137 0 18V6Z" fill="#D82A35"/>
<path d="M5.085 20.2678V8.34041H3.76367L5.47509 3.73047H8.78702V20.2678H5.085Z" fill="white"/>
<path d="M19.6213 3.72681H10.3937C10.1884 3.72681 10.0234 3.89179 10.0234 4.09514V12.4134C10.0234 12.8221 10.3553 13.152 10.762 13.152H16.3869V17.1308H13.7586V14.9688H10.1539V19.8761C10.1539 20.0795 10.3208 20.2445 10.5241 20.2445H19.6213C19.8266 20.2445 19.9916 20.0795 19.9916 19.8761V4.09706C19.9916 3.89371 19.8247 3.72873 19.6213 3.72873V3.72681ZM13.6934 7.13393C13.6934 6.93058 13.8603 6.76559 14.0636 6.76559H15.9706C16.1758 6.76559 16.3408 6.93058 16.3408 7.13393V10.025C16.3408 10.2284 16.1739 10.3933 15.9706 10.3933H14.0636C13.8584 10.3933 13.6934 10.2284 13.6934 10.025V7.13393Z" fill="white"/>
</svg>
