<svg width="24" height="24" viewBox="0 0 24 24" fill="none" xmlns="http://www.w3.org/2000/svg">
<path d="M20.2815 3.44904C20.2815 2.95199 19.8785 2.54906 19.3814 2.54907C18.8844 2.54909 18.4815 2.95204 18.4815 3.4491L18.4815 5.29913H16.6314C16.1344 5.29913 15.7314 5.70207 15.7314 6.19913C15.7314 6.69618 16.1344 7.09913 16.6314 7.09913H18.4816L18.4816 8.9491C18.4817 9.44616 18.8846 9.84909 19.3817 9.84907C19.8787 9.84906 20.2817 9.4461 20.2816 8.94904L20.2816 7.09913H22.1314C22.6285 7.09913 23.0314 6.69618 23.0314 6.19913C23.0314 5.70207 22.6285 5.29913 22.1314 5.29913H20.2815L20.2815 3.44904Z" fill="black"/>
<path d="M12.1031 4.49775C10.391 4.49775 9.00313 5.88567 9.00313 7.59776V11.7478C9.00313 13.4598 10.391 14.8478 12.1031 14.8478C13.8152 14.8478 15.2031 13.4598 15.2031 11.7478V9.67275C15.2031 9.1757 15.6061 8.77275 16.1031 8.77275C16.6002 8.77275 17.0031 9.1757 17.0031 9.67275V11.7478C17.0031 14.4539 14.8093 16.6478 12.1031 16.6478C9.39693 16.6478 7.20312 14.4539 7.20312 11.7478V7.59776C7.20312 4.89156 9.39693 2.69775 12.1031 2.69775C12.7852 2.69775 13.437 2.83765 14.0294 3.09116C14.4864 3.28671 14.6984 3.81568 14.5028 4.27265C14.3073 4.72963 13.7783 4.94157 13.3213 4.74603C12.9485 4.58651 12.5374 4.49775 12.1031 4.49775Z" fill="black"/>
<path d="M4.504 12.3535C4.99803 12.2987 5.44293 12.6548 5.49772 13.1488C5.61775 14.2311 6.31589 15.5382 7.50709 16.5869C8.68342 17.6225 10.2774 18.348 12.1031 18.348C13.9289 18.348 15.5229 17.6225 16.6993 16.5869C17.8906 15.5382 18.5888 14.2311 18.7088 13.1488C18.7636 12.6548 19.2085 12.2987 19.7025 12.3535C20.1965 12.4082 20.5526 12.8532 20.4978 13.3472C20.3179 14.97 19.337 16.663 17.8887 17.9379C16.6186 19.0561 14.9394 19.8984 13.0031 20.1011V21.9911C13.0031 22.4882 12.6002 22.8911 12.1031 22.8911C11.6061 22.8911 11.2031 22.4882 11.2031 21.9911V20.1011C9.26694 19.8984 7.58775 19.0561 6.31767 17.9379C4.86943 16.6629 3.88865 14.97 3.70869 13.3472C3.6539 12.8532 4.00998 12.4082 4.504 12.3535Z" fill="black"/>
</svg>
