<svg width="24" height="24" viewBox="0 0 24 24" fill="none" xmlns="http://www.w3.org/2000/svg">
<path fill-rule="evenodd" clip-rule="evenodd" d="M7.49948 5.21992C5.51133 5.21992 3.89961 6.83164 3.89961 8.81979C3.89961 10.8079 5.51133 12.4197 7.49948 12.4197C9.3879 12.4197 10.7339 11.0059 11.1109 8.67603C11.5729 5.82112 13.4178 3.41992 16.4997 3.41992C19.482 3.41992 21.8996 5.83753 21.8996 8.81979C21.8996 9.97594 21.5352 11.0497 20.9151 11.9289C20.9146 11.9297 20.9141 11.9304 20.9136 11.9312L16.376 18.4429C16.374 18.446 16.3718 18.4493 16.3694 18.4528C16.3665 18.4571 16.3634 18.4617 16.36 18.4667C16.3453 18.4881 16.3259 18.5157 16.3015 18.5487C16.2527 18.6145 16.1841 18.7018 16.0946 18.8035C15.9162 19.0062 15.6521 19.269 15.2952 19.5299C14.5748 20.0566 13.4849 20.5682 11.9996 20.5682C10.5143 20.5682 9.42438 20.0566 8.70406 19.5299C8.34716 19.269 8.08303 19.0062 7.90459 18.8035C7.81516 18.7018 7.74649 18.6145 7.69776 18.5487C7.67336 18.5157 7.65388 18.4881 7.63921 18.4667C7.63713 18.4636 7.63514 18.4607 7.63326 18.4579C7.62953 18.4524 7.62617 18.4474 7.62319 18.4429L3.09025 11.9378C2.46631 11.0571 2.09961 9.98127 2.09961 8.81979C2.09961 5.83753 4.51721 3.41992 7.49948 3.41992C8.22042 3.41992 8.91048 3.56169 9.54166 3.8197C10.0018 4.00778 10.2223 4.53323 10.0342 4.99333C9.84612 5.45343 9.32066 5.67395 8.86056 5.48587C8.44186 5.31471 7.98286 5.21992 7.49948 5.21992ZM6.84703 14.1806L9.11794 17.4396L9.12417 17.4494C9.12686 17.4533 9.13352 17.4629 9.14416 17.4772C9.16548 17.506 9.20256 17.5538 9.25582 17.6143C9.36278 17.7358 9.53191 17.9054 9.76641 18.0769C10.2289 18.415 10.9544 18.7682 11.9996 18.7682C13.0448 18.7682 13.7703 18.415 14.2328 18.0769C14.4673 17.9054 14.6364 17.7358 14.7434 17.6143C14.7967 17.5538 14.8337 17.506 14.8551 17.4772C14.8657 17.4629 14.8723 17.4534 14.875 17.4494L14.8813 17.4396L19.4399 10.8976L19.4431 10.893C19.8568 10.3071 20.0996 9.59315 20.0996 8.81979C20.0996 6.83164 18.4879 5.21992 16.4997 5.21992C14.6112 5.21992 13.2648 6.63384 12.8878 8.96356C12.4258 11.8183 10.5815 14.2197 7.49948 14.2197C7.27865 14.2197 7.06091 14.2064 6.84703 14.1806Z" fill="black"/>
</svg>
