<svg width="24" height="24" viewBox="0 0 24 24" fill="none" xmlns="http://www.w3.org/2000/svg">
<path fill-rule="evenodd" clip-rule="evenodd" d="M4.00018 4.00001L20.0001 4C21.0494 4 21.9001 4.85066 21.9001 5.9V16.9C21.9001 19.0539 20.154 20.8 18.0001 20.8H6.0001C3.84617 20.8 2.10008 19.0539 2.1001 16.9L2.10018 5.89999C2.10019 4.85066 2.95085 4.00001 4.00018 4.00001ZM5.29114 6.27228C4.91479 5.94759 4.34649 5.98947 4.02179 6.36582C3.6971 6.74217 3.73898 7.31048 4.11533 7.63517L10.7588 13.3668C11.4719 13.982 12.528 13.982 13.2411 13.3668L19.8846 7.63517C20.261 7.31048 20.3028 6.74217 19.9782 6.36582C19.6535 5.98947 19.0852 5.94759 18.7088 6.27228L12.0653 12.0039C12.0278 12.0363 11.9722 12.0363 11.9346 12.0039L5.29114 6.27228Z" fill="black"/>
</svg>
