<svg width="24" height="24" viewBox="0 0 24 24" fill="none" xmlns="http://www.w3.org/2000/svg">
<path d="M0 6C0 2.68629 2.68629 0 6 0H18C21.3137 0 24 2.68629 24 6V18C24 21.3137 21.3137 24 18 24H6C2.68629 24 0 21.3137 0 18V6Z" fill="#259C55"/>
<path fill-rule="evenodd" clip-rule="evenodd" d="M6.88692 18.0917L6.5982 16.2695H4.48922L4.20241 18.0898H1.4873V18.0573L4.05901 5.8833H7.03033L9.60203 18.0592V18.0917H6.88692ZM5.54467 9.81447L4.87354 13.9693H6.21579L5.54467 9.81447Z" fill="white"/>
<path d="M10.083 18.0918V5.88525H12.8V15.6482H15.9951V18.0918H10.083Z" fill="white"/>
<path d="M16.5703 5.88525V18.0918L22.4824 18.0937V15.6482H19.2854L19.2873 5.88525H16.5703Z" fill="white"/>
</svg>
