<svg width="24" height="24" viewBox="0 0 24 24" fill="none" xmlns="http://www.w3.org/2000/svg">
<path fill-rule="evenodd" clip-rule="evenodd" d="M4.504 12.3536C4.99803 12.2988 5.44293 12.6549 5.49772 13.1489C5.61775 14.2313 6.31589 15.5384 7.50709 16.5871C8.68342 17.6227 10.2774 18.3481 12.1031 18.3481C13.9289 18.3481 15.5229 17.6227 16.6993 16.5871C17.8906 15.5383 18.5888 14.2313 18.7088 13.1489C18.7636 12.6549 19.2085 12.2988 19.7025 12.3536C20.1965 12.4084 20.5526 12.8533 20.4978 13.3473C20.3179 14.9702 19.337 16.6631 17.8887 17.9381C16.6186 19.0563 14.9394 19.8985 13.0031 20.1013V21.9913C13.0031 22.4883 12.6002 22.8913 12.1031 22.8913C11.6061 22.8913 11.2031 22.4883 11.2031 21.9913V20.1013C9.26694 19.8985 7.58775 19.0563 6.31767 17.9381C4.86943 16.6631 3.88865 14.9702 3.70869 13.3473C3.6539 12.8533 4.00998 12.4084 4.504 12.3536Z" fill="black"/>
<path d="M12.1029 2.69785C9.39671 2.69785 7.2029 4.89166 7.2029 7.59785V11.7479C7.2029 14.454 9.39671 16.6479 12.1029 16.6479C14.8091 16.6479 17.0029 14.454 17.0029 11.7479V9.39527C17.0029 8.89822 16.6 8.49527 16.1029 8.49527C15.2592 8.49527 14.5752 7.81128 14.5752 6.96754V3.91869C14.5752 3.55848 14.3604 3.23297 14.0292 3.09126C13.4368 2.83775 12.785 2.69785 12.1029 2.69785Z" fill="black"/>
<path fill-rule="evenodd" clip-rule="evenodd" d="M19.3534 2.54907C19.8505 2.54906 20.2534 2.95199 20.2534 3.44904L20.2535 5.29913H22.1034C22.6005 5.29913 23.0034 5.70207 23.0034 6.19913C23.0034 6.69618 22.6005 7.09913 22.1034 7.09913H20.2535L20.2536 8.94904C20.2536 9.4461 19.8507 9.84906 19.3536 9.84907C18.8566 9.84909 18.4536 9.44616 18.4536 8.9491L18.4535 7.09913H16.6034C16.1064 7.09913 15.7034 6.69618 15.7034 6.19913C15.7034 5.70207 16.1064 5.29913 16.6034 5.29913H18.4535L18.4534 3.4491C18.4534 2.95204 18.8563 2.54909 19.3534 2.54907Z" fill="black"/>
</svg>
