<svg width="17" height="16" viewBox="0 0 17 16" fill="none" xmlns="http://www.w3.org/2000/svg">
<path fill-rule="evenodd" clip-rule="evenodd" d="M15.0017 5.37908C15.0017 5.21183 15.0017 5.04458 15.0017 4.87733C15.0017 4.73731 14.9997 4.59534 14.9958 4.45532C14.9881 4.14805 14.9686 3.83884 14.9142 3.53546C14.8597 3.22819 14.7683 2.94037 14.6263 2.66032C14.4863 2.38611 14.3035 2.1333 14.0857 1.91549C13.8679 1.69768 13.6151 1.51487 13.3409 1.37485C13.0608 1.23288 12.7749 1.14148 12.4677 1.08703C12.1643 1.03257 11.8551 1.01507 11.5478 1.00535C11.4058 1.0034 11.2639 1.00146 11.1239 0.999512C10.9566 0.999512 10.7894 0.999512 10.6221 0.999512H5.37908C5.21183 0.999512 5.04458 0.999512 4.87733 0.999512C4.73731 0.999512 4.59534 1.00146 4.45532 1.00535C4.14805 1.01312 3.83884 1.03257 3.53546 1.08703C3.22819 1.14342 2.94037 1.23288 2.66227 1.37679C2.38611 1.51681 2.13524 1.69962 1.91743 1.91743C1.69962 2.13524 1.51487 2.38611 1.37485 2.66227C1.23288 2.94231 1.14148 3.22819 1.08703 3.5374C1.03257 3.84078 1.01507 4.15 1.00535 4.45727C1.0034 4.59729 1.00146 4.73731 0.999512 4.87733C0.999512 5.04458 0.999512 5.21183 0.999512 5.37908V10.6202C0.999512 10.7874 0.999512 10.9547 0.999512 11.1219C0.999512 11.2619 1.00146 11.4039 1.00535 11.5439C1.01312 11.8512 1.03257 12.1604 1.08703 12.4638C1.14148 12.7711 1.23288 13.0589 1.37485 13.3389C1.51487 13.6131 1.69767 13.8659 1.91549 14.0838C2.1333 14.3016 2.38611 14.4844 2.66032 14.6244C2.94037 14.7664 3.22624 14.8578 3.53351 14.9122C3.83689 14.9667 4.14611 14.9842 4.45338 14.9939C4.5934 14.9978 4.73537 14.9997 4.87539 14.9997C5.04264 15.0017 5.20988 14.9997 5.37713 14.9997H10.6182C10.7855 14.9997 10.9527 14.9997 11.12 14.9997C11.26 14.9997 11.4019 14.9978 11.542 14.9939C11.8492 14.9861 12.1585 14.9667 12.4618 14.9122C12.7691 14.8578 13.0569 14.7664 13.335 14.6244C13.6092 14.4844 13.8621 14.3016 14.0799 14.0838C14.2977 13.8659 14.4805 13.6151 14.6205 13.3389C14.7625 13.0589 14.8539 12.773 14.9083 12.4638C14.9628 12.1604 14.9803 11.8512 14.99 11.5439C14.9939 11.4039 14.9958 11.2619 14.9958 11.1219C14.9978 10.9547 14.9958 10.7874 14.9958 10.6202L15.0017 5.37908Z" fill="white"/>
<path d="M7.54194 7.52693C8.49107 7.52693 9.26423 8.30009 9.26423 9.24922C9.26423 10.1983 8.49107 10.9715 7.54194 10.9715C6.59281 10.9715 5.81965 10.1983 5.81965 9.24922C5.81965 8.30009 6.59281 7.52693 7.54194 7.52693ZM7.54194 5.30444C5.36241 5.30444 3.59717 7.07107 3.59717 9.24922C3.59717 11.4274 5.3638 13.194 7.54194 13.194C9.72009 13.194 11.4867 11.4274 11.4867 9.24922C11.4867 7.07107 9.72009 5.30444 7.54194 5.30444Z" fill="#04E632"/>
<path d="M12.9285 4.03239C12.9285 4.85127 12.2648 5.51497 11.446 5.51497C10.6271 5.51497 9.96338 4.85127 9.96338 4.03239C9.96338 3.2135 10.6271 2.5498 11.446 2.5498C12.2648 2.5498 12.9285 3.2135 12.9285 4.03239Z" fill="#04E632"/>
</svg>
