<svg width="24" height="24" viewBox="0 0 24 24" fill="none" xmlns="http://www.w3.org/2000/svg">
<path d="M11.9996 2.09888C13.9907 2.09888 15.7179 3.22883 16.5749 4.88248L7.5738 13.8836C7.11386 13.1127 6.84961 12.2116 6.84961 11.2487V7.24888C6.84961 4.40461 9.15534 2.09888 11.9996 2.09888Z" fill="black"/>
<path d="M17.1496 9.38978L21.6526 4.88674C22.0041 4.53527 22.0041 3.96542 21.6526 3.61395C21.3012 3.26247 20.7313 3.26247 20.3799 3.61395L3.61517 20.3786C3.26369 20.7301 3.26369 21.3 3.61517 21.6514C3.96664 22.0029 4.53649 22.0029 4.88796 21.6514L7.75592 18.7835C8.7404 19.3364 9.86802 19.7241 11.0996 19.8531V21.7431C11.0996 22.2401 11.5026 22.6431 11.9996 22.6431C12.4967 22.6431 12.8996 22.2401 12.8996 21.7431V19.8531C14.8359 19.6503 16.5151 18.8081 17.7852 17.6899C19.2335 16.4149 20.2143 14.722 20.3943 13.0991C20.4491 12.6051 20.093 12.1602 19.599 12.1054C19.105 12.0506 18.6601 12.4067 18.6053 12.9007C18.4853 13.9831 17.7871 15.2901 16.5958 16.3388C15.4194 17.3745 13.8254 18.0999 11.9996 18.0999C10.94 18.0999 9.95848 17.8556 9.09134 17.448L10.3954 16.1439C10.9003 16.3093 11.4395 16.3987 11.9996 16.3987C14.8439 16.3987 17.1496 14.093 17.1496 11.2487V9.38978Z" fill="black"/>
<path d="M6.3195 15.1379C5.78731 14.3849 5.47135 13.5964 5.39421 12.9007C5.33942 12.4067 4.89452 12.0506 4.40049 12.1054C3.90646 12.1602 3.55039 12.6051 3.60517 13.0991C3.73043 14.2286 4.24364 15.3921 5.0324 16.425L6.3195 15.1379Z" fill="black"/>
</svg>
