<svg width="24" height="24" viewBox="0 0 24 24" fill="none" xmlns="http://www.w3.org/2000/svg">
<path fill-rule="evenodd" clip-rule="evenodd" d="M2.63833 8.1739C0.933497 6.46871 2.17057 3.59542 4.55655 3.6001L19.4551 3.62932C21.578 3.63348 22.8829 5.97723 21.713 7.7713L13.624 20.1762C12.3239 22.1698 9.23754 21.6249 8.72518 19.2882L7.36841 13.1003C7.33273 12.9376 7.25077 12.7873 7.13108 12.6676L2.63833 8.1739ZM4.55302 5.4001C3.74027 5.39851 3.36396 6.35384 3.91125 6.90125L8.35624 11.3472L14.5725 8.00014C15.0101 7.7645 15.556 7.92826 15.7916 8.36591C16.0272 8.80356 15.8635 9.34937 15.4258 9.58501L9.17801 12.949L10.4834 18.9026C10.6505 19.6648 11.6797 19.8624 12.1162 19.193L20.2052 6.78812C20.5804 6.21281 20.1739 5.43073 19.4515 5.42932L4.55302 5.4001Z" fill="black"/>
</svg>
