<svg width="24" height="24" viewBox="0 0 24 24" fill="none" xmlns="http://www.w3.org/2000/svg">
<path fill-rule="evenodd" clip-rule="evenodd" d="M20.1045 3.33421C20.2921 3.50478 20.399 3.74656 20.399 4.0001V7.3445C20.3991 7.35163 20.3991 7.35874 20.399 7.36583V13.8446C20.3995 13.8561 20.3997 13.8677 20.3997 13.8793V16.4958C20.3997 18.4084 18.8492 19.9588 16.9367 19.9588C15.018 19.9588 13.4736 18.389 13.4736 16.4825C13.4736 14.5612 15.03 12.9793 16.9634 12.9793H18.599V8.34392L10.5197 9.11362V14.7594C10.5211 14.7796 10.5218 14.7999 10.5218 14.8204V17.437C10.5218 19.3495 8.97131 20.9 7.05873 20.9C5.1401 20.9 3.5957 19.3302 3.5957 17.4237C3.5957 15.5024 5.15208 13.9204 7.08549 13.9204H8.71973V8.30482C8.71964 8.29774 8.71964 8.29068 8.71973 8.28364V4.94129C8.71973 4.47729 9.07247 4.08935 9.53437 4.04534L19.4137 3.10416C19.6661 3.08011 19.9169 3.16364 20.1045 3.33421ZM10.5197 7.30547L18.599 6.53577V4.98992L10.5197 5.75962V7.30547ZM8.72176 15.7204H7.08549C6.1583 15.7204 5.3957 16.4843 5.3957 17.4237C5.3957 18.3482 6.14632 19.1 7.05873 19.1C7.9772 19.1 8.72176 18.3554 8.72176 17.437V15.7204ZM18.5997 14.7793H16.9634C16.0362 14.7793 15.2736 15.5432 15.2736 16.4825C15.2736 17.407 16.0243 18.1588 16.9367 18.1588C17.8551 18.1588 18.5997 17.4143 18.5997 16.4958V14.7793Z" fill="black"/>
</svg>
