<svg width="24" height="24" viewBox="0 0 24 24" fill="none" xmlns="http://www.w3.org/2000/svg">
<path fill-rule="evenodd" clip-rule="evenodd" d="M13.8987 6.6001L13.9006 6.6001L13.9026 6.60011L13.9072 6.60013L13.9185 6.60027L13.9496 6.60104C13.9738 6.60184 14.0053 6.60329 14.0431 6.60592C14.1186 6.61117 14.2205 6.62115 14.3424 6.64018C14.5844 6.67801 14.9145 6.75302 15.2761 6.9037C16.0124 7.21045 16.8764 7.83343 17.3594 9.04084C17.544 9.50234 17.3195 10.0261 16.858 10.2107C16.3965 10.3953 15.8727 10.1709 15.6881 9.70935C15.4693 9.16223 15.1286 8.85225 14.7987 8.66902V13.5001C14.7987 13.5421 14.7958 13.5834 14.7903 13.6238C14.7961 13.7068 14.7991 13.7906 14.7991 13.8751C14.7991 15.8219 13.2209 17.4001 11.2741 17.4001C9.32725 17.4001 7.74902 15.8219 7.74902 13.8751C7.74902 11.9283 9.32725 10.3501 11.2741 10.3501C11.9006 10.3501 12.4889 10.5135 12.9987 10.8001V7.5001C12.9987 7.2614 13.0935 7.03248 13.2623 6.8637C13.4311 6.69492 13.66 6.6001 13.8987 6.6001ZM12.9946 13.8394C12.9946 14.7897 12.2242 15.5601 11.2739 15.5601C10.3236 15.5601 9.55322 14.7897 9.55322 13.8394C9.55322 12.889 10.3236 12.1187 11.2739 12.1187C12.2242 12.1187 12.9946 12.889 12.9946 13.8394Z" fill="black"/>
<path fill-rule="evenodd" clip-rule="evenodd" d="M17.5006 2.6001L6.50058 2.60011C4.34667 2.60011 2.60059 4.3462 2.60059 6.50011L2.60059 17.5001C2.60059 19.654 4.34668 21.4001 6.50059 21.4001H17.5006C19.6545 21.4001 21.4006 19.654 21.4006 17.5001V6.5001C21.4006 4.34619 19.6545 2.6001 17.5006 2.6001ZM6.50058 4.40011L17.5006 4.4001C18.6604 4.4001 19.6006 5.3403 19.6006 6.5001V17.5001C19.6006 18.6599 18.6604 19.6001 17.5006 19.6001H6.50059C5.34079 19.6001 4.40059 18.6599 4.40059 17.5001L4.40059 6.50011C4.40059 5.34031 5.34079 4.40011 6.50058 4.40011Z" fill="black"/>
</svg>
