<svg width="24" height="24" viewBox="0 0 24 24" fill="none" xmlns="http://www.w3.org/2000/svg">
<path fill-rule="evenodd" clip-rule="evenodd" d="M7.2695 5.13438C5.27158 5.13438 3.65195 6.754 3.65195 8.75192C3.65195 9.52946 3.89589 10.2464 4.31151 10.8351C4.9685 11.7657 6.04854 12.3695 7.2695 12.3695C9.13442 12.3695 10.51 10.9856 10.9024 8.56023C11.4082 5.43478 13.4489 2.73438 16.9051 2.73438C20.2285 2.73438 22.9227 5.42852 22.9227 8.75192C22.9227 10.0397 22.5168 11.2363 21.826 12.2161L21.8237 12.2193L16.9682 19.1874C16.9631 19.1951 16.9572 19.2038 16.9506 19.2135C16.9333 19.2387 16.9108 19.2706 16.8829 19.3083C16.8271 19.3836 16.7494 19.4824 16.6489 19.5966C16.4485 19.8244 16.1532 20.1179 15.7551 20.409C14.95 20.9976 13.7353 21.5661 12.0873 21.5661C10.4393 21.5661 9.22459 20.9976 8.41955 20.409C8.02137 20.1179 7.72612 19.8244 7.5257 19.5966C7.42519 19.4824 7.34754 19.3836 7.29176 19.3083C7.26383 19.2706 7.24129 19.2387 7.224 19.2135C7.21739 19.2038 7.21154 19.1951 7.20645 19.1875L2.34867 12.2162C1.65788 11.2364 1.25195 10.0398 1.25195 8.75192C1.25195 5.42852 3.9461 2.73438 7.2695 2.73438C8.07253 2.73438 8.84167 2.89232 9.54532 3.17996C10.1588 3.43073 10.4528 4.13133 10.202 4.7448C9.95126 5.35826 9.25065 5.65229 8.63719 5.40151C8.21684 5.22968 7.75579 5.13438 7.2695 5.13438ZM7.05034 14.7655L9.19905 17.8491L9.20594 17.8599C9.20851 17.8636 9.21328 17.8703 9.22029 17.8798C9.23952 17.9058 9.27506 17.9516 9.32734 18.011C9.43246 18.1305 9.60105 18.2998 9.83602 18.4716C10.2973 18.8089 11.0262 19.1661 12.0873 19.1661C13.1485 19.1661 13.8773 18.8089 14.3386 18.4716C14.5736 18.2998 14.7422 18.1305 14.8473 18.011C14.8996 17.9516 14.9351 17.9058 14.9543 17.8798C14.9613 17.8703 14.9661 17.8636 14.9687 17.8599L14.9756 17.8491L19.8631 10.8351C20.2787 10.2464 20.5227 9.52946 20.5227 8.75192C20.5227 6.754 18.903 5.13438 16.9051 5.13438C15.04 5.13438 13.6641 6.51841 13.2716 8.94361C12.7659 12.0689 10.7259 14.7695 7.2695 14.7695C7.19613 14.7695 7.12307 14.7681 7.05034 14.7655Z" fill="url(#paint0_linear_12270_41796)"/>
<defs>
<linearGradient id="paint0_linear_12270_41796" x1="2.25992" y1="7.01389" x2="18.845" y2="20.8935" gradientUnits="userSpaceOnUse">
<stop stop-color="#1BBD49"/>
<stop offset="0.43" stop-color="#36A3DF"/>
<stop offset="0.77" stop-color="#A74EFF"/>
</linearGradient>
</defs>
</svg>
