<svg width="24" height="24" viewBox="0 0 24 24" fill="none" xmlns="http://www.w3.org/2000/svg">
<path fill-rule="evenodd" clip-rule="evenodd" d="M11.9986 2.1001C9.15437 2.1001 6.84863 4.40583 6.84863 7.2501V11.2499C6.84863 14.0942 9.15437 16.3999 11.9986 16.3999C14.8429 16.3999 17.1486 14.0942 17.1486 11.2499V7.2501C17.1486 4.40583 14.8429 2.1001 11.9986 2.1001ZM8.64863 7.2501C8.64863 5.39995 10.1485 3.9001 11.9986 3.9001C13.8488 3.9001 15.3486 5.39994 15.3486 7.2501V11.2499C15.3486 13.1001 13.8488 14.5999 11.9986 14.5999C10.1485 14.5999 8.64863 13.1001 8.64863 11.2499V7.2501Z" fill="black"/>
<path d="M5.39323 12.9007C5.33844 12.4067 4.89354 12.0506 4.39951 12.1054C3.90548 12.1602 3.54941 12.6051 3.6042 13.0991C3.78416 14.7219 4.76493 16.4149 6.21317 17.6899C7.48326 18.808 9.16245 19.6503 11.0987 19.8531V21.7431C11.0987 22.2401 11.5016 22.6431 11.9987 22.6431C12.4957 22.6431 12.8987 22.2401 12.8987 21.7431V19.8531C14.8349 19.6503 16.5141 18.8081 17.7842 17.6899C19.2325 16.4149 20.2134 14.722 20.3933 13.0991C20.4481 12.6051 20.092 12.1602 19.598 12.1054C19.104 12.0506 18.6591 12.4067 18.6043 12.9007C18.4843 13.9831 17.7861 15.2901 16.5948 16.3388C15.4184 17.3745 13.8244 18.0999 11.9987 18.0999C10.1729 18.0999 8.57893 17.3745 7.40259 16.3389C6.21139 15.2902 5.51326 13.9831 5.39323 12.9007Z" fill="black"/>
</svg>
