<svg width="24" height="24" viewBox="0 0 24 24" fill="none" xmlns="http://www.w3.org/2000/svg">
<path d="M0 6C0 2.68629 2.68629 0 6 0H18C21.3137 0 24 2.68629 24 6V18C24 21.3137 21.3137 24 18 24H6C2.68629 24 0 21.3137 0 18V6Z" fill="#E8B52E"/>
<path d="M5.19329 20.2697V8.34041H3.87207L5.58144 3.73047H8.89502V20.2697H5.19329Z" fill="white"/>
<path d="M19.5635 3.73043H10.5176C10.313 3.73043 10.1486 3.89678 10.1486 4.09945V9.09754H13.7643V6.84515H16.3187V8.83559L10.0186 17.8203V20.2467H19.8904V17.0192H14.6094L19.2193 10.5469C19.3646 10.3442 19.4794 10.1683 19.5654 10.0153C19.6514 9.86427 19.7241 9.71705 19.7815 9.57173C19.8388 9.42833 19.879 9.26963 19.9 9.09563C19.921 8.92163 19.9325 8.71322 19.9325 8.46848V4.09754C19.9325 3.89295 19.7662 3.72852 19.5635 3.72852V3.73043Z" fill="white"/>
</svg>
