<svg width="24" height="24" viewBox="0 0 24 24" fill="none" xmlns="http://www.w3.org/2000/svg">
<path fill-rule="evenodd" clip-rule="evenodd" d="M19.9996 4L3.99969 4.00001C2.95036 4.00001 2.0997 4.85066 2.09969 5.89999L2.09961 16.9C2.09959 19.0539 3.84569 20.8 5.99961 20.8H17.9996C20.1535 20.8 21.8996 19.0539 21.8996 16.9V5.9C21.8996 4.85066 21.0489 4 19.9996 4ZM19.2569 5.8L4.74459 5.80001L11.9354 12.0038C11.973 12.0362 12.0285 12.0362 12.0661 12.0038L19.2569 5.8ZM3.89968 7.44839L3.89961 16.9C3.8996 18.0598 4.8398 19 5.99961 19H17.9996C19.1594 19 20.0996 18.0598 20.0996 16.9V7.45031L13.2419 13.3667C12.5288 13.9819 11.4727 13.9819 10.7596 13.3667L3.89968 7.44839Z" fill="black"/>
</svg>
