<svg width="24" height="24" viewBox="0 0 24 24" fill="none" xmlns="http://www.w3.org/2000/svg">
<path fill-rule="evenodd" clip-rule="evenodd" d="M11.9996 19.6001C7.80224 19.6001 4.39961 16.1975 4.39961 12.0001C4.39961 7.80273 7.80224 4.4001 11.9996 4.4001C12.4967 4.4001 12.8996 3.99715 12.8996 3.5001C12.8996 3.00304 12.4967 2.6001 11.9996 2.6001C6.80813 2.6001 2.59961 6.80862 2.59961 12.0001C2.59961 17.1916 6.80813 21.4001 11.9996 21.4001C17.1911 21.4001 21.3996 17.1916 21.3996 12.0001C21.3996 11.503 20.9967 11.1001 20.4996 11.1001C20.0026 11.1001 19.5996 11.503 19.5996 12.0001C19.5996 16.1975 16.197 19.6001 11.9996 19.6001ZM8.1393 13.8906C8.62644 15.4761 10.2349 16.5263 11.9996 16.5263C13.7648 16.5263 15.3635 15.4826 15.8585 13.9014C16.007 13.4271 15.7428 12.9222 15.2685 12.7737C14.7941 12.6252 14.2892 12.8893 14.1407 13.3637C13.9157 14.0825 13.1011 14.7263 11.9996 14.7263C10.8977 14.7263 10.0794 14.0765 9.85992 13.362C9.71393 12.8869 9.21042 12.62 8.73528 12.766C8.26015 12.912 7.99332 13.4155 8.1393 13.8906ZM18.7507 7.84293C17.7035 7.24369 16.7997 6.42086 16.5038 5.53444C16.1258 4.40191 16.8541 3.90364 17.2872 3.90364C17.3029 3.90364 17.3185 3.90324 17.334 3.90245C17.5529 3.92397 17.8177 4.09212 17.9627 4.35424C18.121 4.64034 18.422 4.81809 18.7489 4.81858C19.0759 4.81907 19.3774 4.64221 19.5365 4.35659C19.6938 4.07429 19.9891 3.9001 20.2133 3.9001C20.6436 3.9001 21.3727 4.39953 20.9963 5.53197C20.6967 6.43476 19.8026 7.24524 18.7507 7.84293ZM17.1866 2.10566C15.5162 2.17257 14.06 3.89791 14.7964 6.10434C15.3208 7.67523 16.7761 8.81084 17.9961 9.48355C18.4652 9.7425 19.0344 9.74265 19.5036 9.48401C20.7323 8.81044 22.177 7.68874 22.7046 6.09936C23.45 3.85591 21.9279 2.1001 20.2133 2.1001C19.6587 2.1001 19.1575 2.2972 18.7513 2.59475C18.344 2.29631 17.8417 2.1001 17.2872 2.1001C17.2532 2.1001 17.2196 2.10198 17.1866 2.10566Z" fill="black"/>
<path d="M9.58678 11.1029C10.2045 11.1029 10.7052 10.6022 10.7052 9.98449C10.7052 9.3668 10.2045 8.86606 9.58678 8.86606C8.96909 8.86606 8.46836 9.3668 8.46836 9.98449C8.46836 10.6022 8.96909 11.1029 9.58678 11.1029Z" fill="black"/>
<path d="M14.413 11.1029C15.0306 11.1029 15.5314 10.6022 15.5314 9.98449C15.5314 9.3668 15.0306 8.86606 14.413 8.86606C13.7953 8.86606 13.2945 9.3668 13.2945 9.98449C13.2945 10.6022 13.7953 11.1029 14.413 11.1029Z" fill="black"/>
</svg>
