<svg width="24" height="24" viewBox="0 0 24 24" fill="none" xmlns="http://www.w3.org/2000/svg">
<path fill-rule="evenodd" clip-rule="evenodd" d="M19.2508 1.59985H5.15078C3.85291 1.59985 2.80078 2.65198 2.80078 3.94985V20.3999C2.80078 21.6977 3.85291 22.7499 5.15078 22.7499H19.2508C20.5487 22.7499 21.6008 21.6977 21.6008 20.3999V19.8573C21.6008 20.7856 20.8487 21.5376 19.9204 21.5376H5.44319C4.63237 21.5376 3.97432 20.8796 3.97432 20.0688C3.97432 19.2581 4.63237 18.6001 5.44319 18.6001H17.1826V18.5946H19.2506C20.5431 18.5946 21.6006 17.5371 21.6006 16.2446V18.8031L21.6008 18.8116V3.94985C21.6008 2.65198 20.5487 1.59985 19.2508 1.59985ZM17.7021 9.83786C17.7492 9.86967 17.7721 9.9263 17.7556 9.98102C17.6741 10.247 17.4534 10.9195 17.3611 11.2001C17.3382 11.2707 17.2599 11.3076 17.1919 11.2777C16.9399 11.1683 16.6351 10.9609 16.4812 10.826C16.4614 10.8081 16.4303 10.819 16.4233 10.8451C15.8538 12.9466 14.5202 13.6853 13.109 13.6853C12.1667 13.6853 11.6526 13.259 11.4573 12.6437C11.4477 12.6132 11.4089 12.6075 11.3905 12.6342C10.6346 13.7387 9.44353 13.6853 9.44353 13.6853C8.13539 13.6853 7.70273 12.6425 7.90379 11.1415L8.19774 9.3104C8.20729 9.23596 8.21937 9.04636 8.11566 8.94583C8.03422 8.86693 7.90825 8.86884 7.8249 8.87775C7.76954 8.88347 7.67219 8.91465 7.57612 8.95028C7.51186 8.97382 7.4406 8.94265 7.41324 8.87966L6.97168 7.8591C6.94495 7.79802 6.96977 7.72549 7.02767 7.69368C8.11376 7.09687 9.01851 7.13059 9.378 7.33037C9.51288 7.40227 10.1084 7.78084 9.94936 8.81221L9.65031 10.7013C9.5377 11.5462 9.53833 12.0005 10.0041 12.0005C10.2764 12.0005 10.8751 11.6951 11.2225 10.5015C11.2919 10.2622 11.3618 10.0166 11.3924 9.76914L11.6851 7.55434C11.6933 7.49135 11.7468 7.4449 11.8098 7.4449H13.3221C13.3972 7.4449 13.4558 7.51107 13.4469 7.58551L13.0715 10.7763C12.9582 11.6715 13.0715 11.9999 13.424 11.9999C13.8267 11.9999 14.5622 11.6595 14.8294 9.75705C14.8294 9.75705 15.0184 8.50936 14.9745 7.5766C14.9713 7.50407 15.0273 7.44426 15.0998 7.4449H16.4971C16.5645 7.4449 16.6192 7.49771 16.6224 7.56515C16.6396 7.96854 16.8228 9.24296 17.7021 9.83786Z" fill="black"/>
</svg>
