<svg width="24" height="24" viewBox="0 0 24 24" fill="none" xmlns="http://www.w3.org/2000/svg">
<path d="M15.3771 2.82055C15.11 2.75941 14.8296 2.82327 14.6153 2.99403C14.401 3.16479 14.2762 3.42387 14.2762 3.69786V15.6788C14.2707 15.719 14.2679 15.7601 14.2679 15.8018C14.2679 17.7949 12.6629 19.4018 10.6941 19.4018C8.7253 19.4018 7.12031 17.7949 7.12031 15.8018C7.12031 13.8086 8.7253 12.2018 10.6941 12.2018C11.2363 12.2018 11.748 12.3228 12.2062 12.5387C12.6558 12.7506 13.1921 12.5578 13.404 12.1082C13.6159 11.6586 13.4231 11.1223 12.9735 10.9104C12.2805 10.5839 11.5073 10.4018 10.6941 10.4018C7.7213 10.4018 5.32031 12.8244 5.32031 15.8018C5.32031 18.7791 7.7213 21.2018 10.6941 21.2018C13.6141 21.2018 15.9824 18.8644 16.0656 15.9599C16.0726 15.9147 16.0762 15.8685 16.0762 15.8214V4.94409C16.4377 5.1008 16.7959 5.28981 17.132 5.5008C17.8222 5.93407 18.3452 6.4136 18.6129 6.81454C18.6196 6.82448 18.6264 6.83429 18.6334 6.84396C19.0962 7.48041 19.3565 8.35782 19.41 9.29711C19.4634 10.2353 19.305 11.1473 19.0224 11.8051C18.8262 12.2618 19.0374 12.7911 19.4941 12.9873C19.9508 13.1835 20.48 12.9723 20.6762 12.5156C21.084 11.5662 21.274 10.3702 21.2071 9.19477C21.1405 8.02608 20.8145 6.79054 20.0997 5.79976C19.6393 5.11738 18.8941 4.48171 18.0891 3.97632C17.2685 3.46115 16.311 3.03436 15.3771 2.82055Z" fill="black"/>
</svg>
