<svg width="24" height="24" viewBox="0 0 24 24" fill="none" xmlns="http://www.w3.org/2000/svg">
<path d="M8.2343 12.0122C7.72143 12.0122 7.30566 12.3878 7.30566 12.8511V21.6733C7.30566 22.1366 7.72143 22.5122 8.2343 22.5122H12.377C12.8899 22.5122 13.3057 22.1366 13.3057 21.6733V12.8511C13.3057 12.3878 12.8899 12.0122 12.377 12.0122H8.2343Z" fill="url(#paint0_linear_33256_4003)"/>
<path d="M8.2343 12.0122C7.72143 12.0122 7.30566 12.3878 7.30566 12.8511V21.6733C7.30566 22.1366 7.72143 22.5122 8.2343 22.5122H12.377C12.8899 22.5122 13.3057 22.1366 13.3057 21.6733V12.8511C13.3057 12.3878 12.8899 12.0122 12.377 12.0122H8.2343Z" fill="url(#paint1_linear_33256_4003)" fill-opacity="0.2" style="mix-blend-mode:color-burn"/>
<path d="M17.2344 7.79906C17.2344 6.55764 18.2407 5.55127 19.4822 5.55127C20.7236 5.55127 21.73 6.55764 21.73 7.79906V12.0832C21.73 13.3246 20.7236 14.3309 19.4822 14.3309C18.2407 14.3309 17.2344 13.3246 17.2344 12.0832V7.79906Z" fill="#CD6B26"/>
<path d="M19.6239 3.96746C19.6239 2.63593 18.2114 1.77983 17.031 2.39455C16.5681 2.63561 16.0675 2.89601 15.6799 3.09691L15.6192 3.12838C13.9108 4.01391 12.4479 4.7722 10.9467 4.7722H7.17768C5.68871 4.7722 4.44051 5.35316 3.5729 6.32245C2.71448 7.28147 2.26953 8.57265 2.26953 9.94537C2.26953 11.3181 2.71448 12.6093 3.5729 13.5683C4.44051 14.5376 5.68871 15.1185 7.17768 15.1185H10.9467C12.4479 15.1185 13.9108 15.8768 15.6192 16.7623L15.6799 16.7938C16.1972 17.0619 16.8542 17.2939 17.3818 17.4609C18.5379 17.8269 19.6239 16.9313 19.6239 15.7942V3.96746Z" fill="url(#paint2_linear_33256_4003)"/>
<path d="M8.84473 6.74634V13.135H8.8252V6.74634H8.84473Z" fill="white" stroke="white" stroke-width="1.29351"/>
<defs>
<linearGradient id="paint0_linear_33256_4003" x1="7.30566" y1="12.5954" x2="15.8237" y2="16.687" gradientUnits="userSpaceOnUse">
<stop stop-color="#FFD917"/>
<stop offset="1" stop-color="#FF9800"/>
</linearGradient>
<linearGradient id="paint1_linear_33256_4003" x1="10.3057" y1="22.5122" x2="10.3057" y2="14.7387" gradientUnits="userSpaceOnUse">
<stop stop-opacity="0"/>
<stop offset="1"/>
</linearGradient>
<linearGradient id="paint2_linear_33256_4003" x1="2.26953" y1="3.04433" x2="18.2038" y2="18.1857" gradientUnits="userSpaceOnUse">
<stop stop-color="#FFD917"/>
<stop offset="1" stop-color="#FF9800"/>
</linearGradient>
</defs>
</svg>
