<svg width="24" height="24" viewBox="0 0 24 24" fill="none" xmlns="http://www.w3.org/2000/svg">
<path fill-rule="evenodd" clip-rule="evenodd" d="M18.0377 2.24619C18.3405 2.11627 18.7623 1.95826 19.2107 2.01049C19.7769 2.07645 20.258 2.34145 20.6068 2.8052C20.8849 3.17496 20.9463 3.61654 20.9725 3.93056C21 4.26043 21 4.6794 21 5.15543V14.7905C21 15.2665 21 15.6856 20.9725 16.0155C20.9463 16.3295 20.8849 16.7711 20.6068 17.1408C20.258 17.6046 19.7769 17.8696 19.2107 17.9355C18.7623 17.9878 18.3405 17.8298 18.0377 17.6998C17.7123 17.5602 17.3095 17.3513 16.8377 17.1067L16.6354 17.0017C16.0277 16.6863 15.4534 16.3911 14.8996 16.1414V20.9999C14.8996 21.4969 14.4967 21.8999 13.9996 21.8999H9.99961C9.50255 21.8999 9.09961 21.4969 9.09961 20.9999V15.3828H8.13636C6.58101 15.3828 5.27265 14.7749 4.36272 13.758C3.46335 12.7528 3 11.4028 3 9.97302C3 8.54319 3.46335 7.19322 4.36272 6.18805C5.27265 5.17108 6.58101 4.56326 8.13636 4.56326H12C13.4716 4.56326 14.9204 3.83456 16.6355 2.94428L16.8376 2.83939C17.3095 2.59471 17.7123 2.38584 18.0377 2.24619ZM11 13.0728H9V6.62279H11V13.0728Z" fill="black"/>
</svg>
