<svg width="24" height="24" viewBox="0 0 24 24" fill="none" xmlns="http://www.w3.org/2000/svg">
<path fill-rule="evenodd" clip-rule="evenodd" d="M5.55129 10.862C5.55129 8.78566 6.10485 7.13495 7.04696 6.01932C7.97323 4.92246 9.34568 4.25679 11.1893 4.25679C11.6863 4.25679 12.0893 3.85384 12.0893 3.35679C12.0893 2.85973 11.6863 2.45679 11.1893 2.45679C8.87036 2.45679 6.97383 3.31606 5.67173 4.85798C4.38642 6.38 3.75222 8.47993 3.75129 10.8568L3.72392 13.2497L3.72386 13.26C3.72386 14.6801 3.17289 15.8758 2.58419 16.7053C2.22174 17.216 2.25203 17.8334 2.4192 18.2668C2.58252 18.6902 3.01802 19.2568 3.76994 19.2568H7.82815C8.04437 20.9262 9.47149 22.2158 11.1998 22.2158C12.9281 22.2158 14.3552 20.9262 14.5715 19.2568H18.6097C19.3496 19.2568 19.786 18.7068 19.9536 18.2855C20.1246 17.8555 20.158 17.2483 19.8114 16.7391C19.2471 15.9099 18.7108 14.7016 18.7108 13.26V12.9007C18.7108 12.4037 18.3079 12.0007 17.8108 12.0007C17.3138 12.0007 16.9108 12.4037 16.9108 12.9007V13.26C16.9108 14.9805 17.4911 16.4231 18.1317 17.4568H4.24888C4.91672 16.4251 5.52261 14.9849 5.52386 13.2653L5.55123 10.8723L5.55129 10.862ZM12.7383 19.2568H9.66136C9.85283 19.926 10.4691 20.4158 11.1998 20.4158C11.9305 20.4158 12.5468 19.926 12.7383 19.2568Z" fill="black"/>
<path fill-rule="evenodd" clip-rule="evenodd" d="M16.0427 3.0842C16.0427 2.86329 16.2218 2.6842 16.4427 2.6842H17.4427C17.6636 2.6842 17.8427 2.86329 17.8427 3.0842V3.96869C17.8427 4.01023 17.8684 4.04745 17.9072 4.06219C18.2177 4.17994 18.5027 4.3495 18.7517 4.56037C18.784 4.58764 18.8298 4.59176 18.8664 4.57065L19.6993 4.08975C19.8906 3.9793 20.1353 4.04484 20.2457 4.23616L20.7457 5.10219C20.8562 5.2935 20.7906 5.53814 20.5993 5.6486L19.776 6.12394C19.7392 6.14521 19.7198 6.18745 19.7278 6.22924C19.7613 6.4058 19.7789 6.58812 19.7789 6.77463C19.7789 6.92724 19.7672 7.07702 19.7445 7.22314C19.7381 7.26394 19.7575 7.30444 19.7933 7.32508L20.5997 7.79068C20.7911 7.90114 20.8566 8.14577 20.7461 8.33709L20.2461 9.20311C20.1357 9.39443 19.8911 9.45998 19.6997 9.34953L18.9422 8.91218C18.9046 8.89046 18.8573 8.8955 18.8251 8.92466C18.5592 9.16547 18.2486 9.3576 17.9072 9.48708C17.8684 9.50181 17.8427 9.53903 17.8427 9.58058V10.3569C17.8427 10.5778 17.6636 10.7569 17.4427 10.7569H16.4427C16.2218 10.7569 16.0427 10.5778 16.0427 10.3569V9.62565C16.0427 9.58243 16.0149 9.54411 15.9739 9.53063C15.6052 9.40965 15.2691 9.2167 14.9821 8.96832C14.9499 8.94044 14.9035 8.93603 14.8667 8.95733L14.1862 9.35021C13.9948 9.46067 13.7502 9.39512 13.6397 9.2038L13.1397 8.33778C13.0293 8.14646 13.0948 7.90183 13.2862 7.79137L13.9759 7.39312C14.0124 7.37205 14.0318 7.33038 14.0244 7.2889C13.9945 7.12206 13.9789 6.95021 13.9789 6.77463C13.9789 6.56459 14.0013 6.35988 14.0436 6.16269C14.0527 6.12025 14.0334 6.07679 13.9958 6.05509L13.2876 5.6462C13.0963 5.53574 13.0308 5.29111 13.1412 5.09979L13.6412 4.23376C13.7517 4.04245 13.9963 3.9769 14.1876 4.08735L14.9463 4.52537C14.9821 4.54604 15.0269 4.54255 15.0591 4.51659C15.3286 4.29912 15.6377 4.12896 15.9739 4.01863C16.0149 4.00516 16.0427 3.96683 16.0427 3.92362V3.0842ZM16.8789 5.72274C16.298 5.72274 15.827 6.19369 15.827 6.77463C15.827 7.35558 16.298 7.82653 16.8789 7.82653C17.4599 7.82653 17.9308 7.35558 17.9308 6.77463C17.9308 6.19369 17.4599 5.72274 16.8789 5.72274Z" fill="black"/>
</svg>
