<svg width="24" height="24" viewBox="0 0 24 24" fill="none" xmlns="http://www.w3.org/2000/svg">
<path fill-rule="evenodd" clip-rule="evenodd" d="M18.7866 3.99207C18.5326 4.10107 18.1917 4.2772 17.6777 4.54369C17.6003 4.58382 17.5223 4.62439 17.4437 4.66527C15.8397 5.49945 13.9866 6.46313 11.9996 6.46313H10.8996V13.4826H11.9996C13.9866 13.4826 15.8397 14.4463 17.4437 15.2805C17.5223 15.3214 17.6003 15.3619 17.6777 15.4021C18.1917 15.6686 18.5326 15.8447 18.7866 15.9537C18.926 16.0135 18.9998 16.0346 19.0277 16.042C19.0337 16.0406 19.0385 16.0393 19.0421 16.0382C19.0508 16.0355 19.0545 16.0334 19.0555 16.0328C19.0554 16.033 19.0557 16.0328 19.0555 16.0328C19.0617 16.0022 19.0712 15.9465 19.0787 15.8572C19.0989 15.6158 19.0996 15.2771 19.0996 14.7489V5.19691C19.0996 4.66864 19.0989 4.32993 19.0787 4.0886C19.0712 3.99924 19.0621 3.94387 19.056 3.91319C19.0558 3.91309 19.0561 3.91327 19.056 3.91319C19.055 3.91262 19.0508 3.91028 19.0421 3.90758C19.0385 3.90646 19.0337 3.90514 19.0277 3.90377C18.9998 3.91115 18.926 3.93226 18.7866 3.99207ZM9.09961 13.4826V6.46313H8.13597C7.10323 6.46313 6.31598 6.85389 5.77828 7.45484C5.23109 8.0664 4.89961 8.94607 4.89961 9.97289C4.89961 10.9997 5.23109 11.8794 5.77828 12.4909C6.31598 13.0919 7.10323 13.4826 8.13597 13.4826H9.09961ZM9.09961 15.2826H8.13597C6.60812 15.2826 5.32719 14.6862 4.43686 13.6912C3.55602 12.7067 3.09961 11.3815 3.09961 9.97289C3.09961 8.56427 3.55602 7.23905 4.43685 6.2546C5.32719 5.25953 6.60812 4.66313 8.13597 4.66313H11.9996C13.5372 4.66313 15.0358 3.88603 16.7877 2.97757L16.8805 2.92948C17.3548 2.68354 17.7548 2.47613 18.0768 2.33796C18.3784 2.20851 18.7788 2.06077 19.1987 2.10969C19.7388 2.1726 20.1948 2.42409 20.5265 2.86518C20.7864 3.21075 20.8464 3.62736 20.8724 3.93876C20.8996 4.26439 20.8996 4.67971 20.8996 5.15862V14.7871C20.8996 15.2661 20.8996 15.6814 20.8724 16.007C20.8464 16.3184 20.7864 16.735 20.5265 17.0806C20.1948 17.5217 19.7388 17.7732 19.1987 17.8361C18.7788 17.885 18.3784 17.7373 18.0768 17.6078C17.7548 17.4696 17.3548 17.2622 16.8805 17.0163L16.7877 16.9682C16.1276 16.6259 15.5034 16.3022 14.8996 16.0318V20.9998C14.8996 21.4969 14.4967 21.8998 13.9996 21.8998H9.99961C9.50255 21.8998 9.09961 21.4969 9.09961 20.9998V15.2826ZM10.8996 15.2826V20.0998H13.0996V15.407C12.7325 15.327 12.3672 15.2826 11.9996 15.2826H10.8996Z" fill="black"/>
</svg>
