<svg width="24" height="24" viewBox="0 0 24 24" fill="none" xmlns="http://www.w3.org/2000/svg">
<path fill-rule="evenodd" clip-rule="evenodd" d="M7.84775 5.66263C6.90563 6.77826 6.35207 8.42897 6.35207 10.5053V10.5156H6.35201L6.32464 12.9086C6.32339 14.6282 5.7175 16.0684 5.04966 17.1001H18.9325C18.2918 16.0664 17.7116 14.6238 17.7116 12.9033V12.8925L17.7117 12.8925L17.739 10.6188C17.7381 8.51339 17.1729 6.83472 16.2113 5.69801C15.2645 4.57871 13.8637 3.9001 11.99 3.9001C10.1465 3.9001 8.77401 4.56577 7.84775 5.66263ZM6.47251 4.50129C7.77461 2.95937 9.67114 2.1001 11.99 2.1001C14.3402 2.1001 16.2639 2.97303 17.5856 4.53551C18.8918 6.07963 19.539 8.2111 19.539 10.6241V10.635L19.539 10.635L19.5116 12.9085C19.5129 14.3479 20.0486 15.5542 20.6122 16.3824C20.9588 16.8916 20.9254 17.4988 20.7544 17.9288C20.5868 18.3501 20.1504 18.9001 19.4104 18.9001H15.3719C15.1557 20.5695 13.7286 21.8591 12.0003 21.8591C10.272 21.8591 8.84485 20.5695 8.62862 18.9001H4.57072C3.8188 18.9001 3.3833 18.3335 3.21998 17.9101C3.05281 17.4767 3.02252 16.8593 3.38497 16.3486L4.11892 16.8695L3.38497 16.3486C3.97367 15.5191 4.52464 14.3234 4.52464 12.9033V12.893L4.5247 12.893L4.55207 10.5001C4.553 8.12325 5.18721 6.02331 6.47251 4.50129ZM10.4618 18.9001C10.6533 19.5693 11.2696 20.0591 12.0003 20.0591C12.731 20.0591 13.3473 19.5693 13.5387 18.9001H10.4618Z" fill="black"/>
</svg>
