<svg width="24" height="24" viewBox="0 0 24 24" fill="none" xmlns="http://www.w3.org/2000/svg">
<path d="M3.18719 6.79477C2.04742 6.79477 1.4984 8.19201 2.33329 8.96792L7.05407 13.3552L5.229 14.8479C4.96595 15.0631 4.60876 15.1231 4.28982 15.0058L1.00361 13.7971C0.690188 13.6818 0.357753 13.9139 0.35791 14.2478L0.358666 15.8567C0.358833 16.2117 0.554833 16.5376 0.868291 16.7041L3.71211 18.2148C4.39753 18.5789 5.21673 18.5891 5.91098 18.2421L22.6961 9.85323C24.1585 9.12239 24.0967 7.01497 22.5941 6.37101L22.0142 6.12249C19.5473 5.06528 16.6971 5.46794 14.6196 7.16716L11.7471 9.51665L3.98168 6.9239C3.72553 6.83837 3.45724 6.79477 3.18719 6.79477Z" fill="black"/>
</svg>
