<svg width="24" height="24" viewBox="0 0 24 24" fill="none" xmlns="http://www.w3.org/2000/svg">
<path d="M4.125 5.26149C4.125 4.39166 4.83014 3.68652 5.69997 3.68652H18.2997C19.1695 3.68652 19.8747 4.39166 19.8747 5.26149V13.1363H4.125V5.26149Z" fill="#04917D"/>
<path d="M2.93221 7.40513C2.89567 6.51082 3.61081 5.76587 4.50586 5.76587H19.4942C20.3893 5.76587 21.1044 6.51082 21.0679 7.40513L20.6283 18.1644C20.5593 19.8526 19.1706 21.1857 17.481 21.1857H6.51909C4.82945 21.1857 3.44076 19.8526 3.37178 18.1644L2.93221 7.40513Z" fill="url(#paint0_linear_19503_11037)"/>
<path d="M8.91016 7.8606C9.11006 7.86078 9.27246 8.02295 9.27246 8.2229V10.1125C9.27253 11.652 10.5201 12.8996 12.0596 12.8997C13.5991 12.8997 14.8476 11.6521 14.8477 10.1125V8.2229C14.8477 8.02284 15.0099 7.8606 15.21 7.8606H15.8398C16.0398 7.86069 16.2021 8.0229 16.2021 8.2229V10.1125C16.2021 12.4001 14.3472 14.2542 12.0596 14.2542C9.77204 14.254 7.91804 12.4001 7.91797 10.1125V8.2229C7.91797 8.02284 8.08021 7.8606 8.28027 7.8606H8.91016Z" fill="white" stroke="white" stroke-width="0.094498" stroke-linecap="square"/>
<defs>
<linearGradient id="paint0_linear_19503_11037" x1="-2.43774" y1="3.24882" x2="21.1313" y2="21.5705" gradientUnits="userSpaceOnUse">
<stop stop-color="#A7EAFF"/>
<stop offset="1" stop-color="#07D6BD"/>
</linearGradient>
</defs>
</svg>
