<svg width="24" height="24" viewBox="0 0 24 24" fill="none" xmlns="http://www.w3.org/2000/svg">
<path fill-rule="evenodd" clip-rule="evenodd" d="M3.67169 8.25626C3.43685 8.25615 3.32104 8.54629 3.49467 8.70771L8.61622 13.4689L6.16352 15.4753C5.65375 15.8923 4.96063 16.009 4.3414 15.7809L1.95533 14.9021L1.95607 15.6948C1.9561 15.7178 1.96873 15.7379 1.98752 15.7478L4.49912 17.0834C4.9269 17.3108 5.4385 17.3175 5.87246 17.1007L21.0573 9.51442C21.8272 9.12976 21.7918 8.02231 21.0053 7.68482C18.862 6.76518 16.3844 7.11428 14.5784 8.59165L11.7715 10.8878L4.1206 8.32943C3.97589 8.28104 3.8243 8.25633 3.67169 8.25626ZM2.26771 10.0235C0.897639 8.74978 1.79787 6.45684 3.67085 6.45771C4.01771 6.45787 4.36229 6.51403 4.69128 6.62404L11.3984 8.86678L13.4359 7.20002C15.7612 5.29784 18.953 4.84728 21.7153 6.03252C23.9143 6.97608 24.0008 10.0558 21.8646 11.123L6.67981 18.7092C5.72457 19.1865 4.59691 19.1723 3.65345 18.6706L1.14184 17.3351C0.534317 17.0121 0.155266 16.381 0.154625 15.6948L0.153321 14.3005C0.152426 13.3429 1.10697 12.6731 2.01106 13.0061L4.96354 14.0936C4.98255 14.1006 5.0044 14.0973 5.02102 14.0837L5.87967 13.3813L2.26771 10.0235Z" fill="black"/>
</svg>
