<svg width="24" height="24" viewBox="0 0 24 24" fill="none" xmlns="http://www.w3.org/2000/svg">
<path d="M15.0654 4.51733C15.2919 4.07487 15.8349 3.90028 16.2773 4.12671C19.3164 5.68218 21.4003 8.84636 21.4004 12.4988C21.4003 17.6901 17.1914 21.8992 12 21.8992C6.80861 21.8992 2.59974 17.6901 2.59961 12.4988C2.5997 8.84636 4.68363 5.68218 7.72266 4.12671C8.16513 3.90028 8.70813 4.07487 8.93457 4.51733C9.16085 4.95977 8.98535 5.50186 8.54297 5.72827C6.08164 6.98787 4.40048 9.54795 4.40039 12.4988C4.40052 16.696 7.80272 20.0994 12 20.0994C16.1973 20.0994 19.5995 16.696 19.5996 12.4988C19.5995 9.54795 17.9184 6.98787 15.457 5.72827C15.0146 5.50186 14.8392 4.95977 15.0654 4.51733Z" fill="black"/>
<path d="M12 2.09839C12.4971 2.09839 12.9004 2.50172 12.9004 2.99878V9.77222C12.9004 10.2693 12.4971 10.6726 12 10.6726C11.5029 10.6726 11.0996 10.2693 11.0996 9.77222V2.99878C11.0996 2.50172 11.5029 2.09839 12 2.09839Z" fill="black"/>
</svg>
