<svg width="24" height="24" viewBox="0 0 24 24" fill="none" xmlns="http://www.w3.org/2000/svg">
<path fill-rule="evenodd" clip-rule="evenodd" d="M14.9996 2.3501C15.4967 2.3501 15.8996 2.75304 15.8996 3.2501V20.7501C15.8996 21.2472 15.4967 21.6501 14.9996 21.6501C14.5026 21.6501 14.0996 21.2472 14.0996 20.7501V3.2501C14.0996 2.75304 14.5026 2.3501 14.9996 2.3501ZM2.99961 5.3501C3.49667 5.3501 3.89961 5.75304 3.89961 6.2501V20.7501C3.89961 21.2472 3.49667 21.6501 2.99961 21.6501C2.50255 21.6501 2.09961 21.2472 2.09961 20.7501V6.2501C2.09961 5.75304 2.50255 5.3501 2.99961 5.3501ZM8.99961 8.3501C9.49667 8.3501 9.89961 8.75304 9.89961 9.2501V20.7501C9.89961 21.2472 9.49667 21.6501 8.99961 21.6501C8.50255 21.6501 8.09961 21.2472 8.09961 20.7501V9.2501C8.09961 8.75304 8.50255 8.3501 8.99961 8.3501ZM20.9996 13.3501C21.4967 13.3501 21.8996 13.753 21.8996 14.2501V20.7501C21.8996 21.2472 21.4967 21.6501 20.9996 21.6501C20.5026 21.6501 20.0996 21.2472 20.0996 20.7501V14.2501C20.0996 13.753 20.5026 13.3501 20.9996 13.3501Z" fill="black"/>
</svg>
