<svg width="24" height="24" viewBox="0 0 24 24" fill="none" xmlns="http://www.w3.org/2000/svg">
<path fill-rule="evenodd" clip-rule="evenodd" d="M16.5 3.25C17.4665 3.25 18.25 4.0335 18.25 5L18.25 19C18.25 19.9665 17.4665 20.75 16.5 20.75C15.5335 20.75 14.75 19.9665 14.75 19L14.75 5C14.75 4.0335 15.5335 3.25 16.5 3.25Z" fill="black"/>
<path fill-rule="evenodd" clip-rule="evenodd" d="M7.5 3.25C8.4665 3.25 9.25 4.0335 9.25 5L9.25 19C9.25 19.9665 8.4665 20.75 7.5 20.75C6.5335 20.75 5.75 19.9665 5.75 19L5.75 5C5.75 4.0335 6.5335 3.25 7.5 3.25Z" fill="black"/>
</svg>
