<svg width="24" height="24" viewBox="0 0 24 24" fill="none" xmlns="http://www.w3.org/2000/svg">
<path d="M4.88397 17.7865L4.88397 14.316C4.88397 13.796 4.46245 13.3745 3.94247 13.3745C3.4225 13.3745 3.00098 13.796 3.00098 14.316V20.0575C3.00098 20.5775 3.4225 20.999 3.94247 20.999H9.69047C10.2104 20.999 10.632 20.5775 10.632 20.0575C10.632 19.5376 10.2104 19.116 9.69047 19.116L6.2174 19.116L11.0721 14.2668C11.44 13.8993 11.44 13.3035 11.0721 12.9361C10.7042 12.5686 10.1078 12.5686 9.73987 12.9361L4.88397 17.7865Z" fill="black"/>
<path d="M19.1154 6.21379V9.68414C19.1154 10.2041 19.5369 10.6256 20.0569 10.6256C20.5769 10.6256 20.9984 10.2041 20.9984 9.68414V3.94261C20.9984 3.42264 20.5769 3.00112 20.0569 3.00112H14.3089C13.7889 3.00112 13.3674 3.42264 13.3674 3.94261C13.3674 4.46259 13.7889 4.88411 14.3089 4.88411H17.7821L12.9273 9.73349C12.5594 10.101 12.5594 10.6967 12.9273 11.0642C13.2952 11.4317 13.8916 11.4317 14.2595 11.0642L19.1154 6.21379Z" fill="black"/>
</svg>
