<svg width="24" height="24" viewBox="0 0 24 24" fill="none" xmlns="http://www.w3.org/2000/svg">
<path fill-rule="evenodd" clip-rule="evenodd" d="M11.9996 4.60005C10.4256 4.60005 9.14961 5.87604 9.14961 7.45005C9.14961 9.02406 10.4256 10.3 11.9996 10.3C13.5736 10.3 14.8496 9.02406 14.8496 7.45005C14.8496 5.87604 13.5736 4.60005 11.9996 4.60005ZM7.34961 7.45005C7.34961 4.88192 9.43148 2.80005 11.9996 2.80005C14.5677 2.80005 16.6496 4.88192 16.6496 7.45005C16.6496 10.0182 14.5677 12.1 11.9996 12.1C9.43148 12.1 7.34961 10.0182 7.34961 7.45005ZM11.9996 15.3195C10.7274 15.3195 9.45524 15.4049 8.19167 15.5757C6.01987 15.8693 4.39961 17.7233 4.39961 19.9149V20.1528C4.39961 20.6499 3.99667 21.0528 3.49961 21.0528C3.00255 21.0528 2.59961 20.6499 2.59961 20.1528V19.9149C2.59961 16.8224 4.88593 14.2062 7.95054 13.792C9.29412 13.6103 10.6469 13.5195 11.9996 13.5195C13.3524 13.5195 14.7051 13.6104 16.0487 13.792C19.1133 14.2063 21.3996 16.8225 21.3996 19.915V20.1529C21.3996 20.6499 20.9967 21.0529 20.4996 21.0529C20.0026 21.0529 19.5996 20.6499 19.5996 20.1529V19.915C19.5996 17.7234 17.9794 15.8694 15.8075 15.5758C14.5439 15.405 13.2718 15.3195 11.9996 15.3195Z" fill="black"/>
</svg>
