<svg width="24" height="24" viewBox="0 0 24 24" fill="none" xmlns="http://www.w3.org/2000/svg">
<path fill-rule="evenodd" clip-rule="evenodd" d="M15.2999 1.40039C16.4998 1.40039 17.5996 1.90001 18.3995 2.7998C18.4986 2.89891 18.5001 3 18.5001 3C18.7861 3.35757 19.0184 3.81812 19.129 4.27051L19.7003 3.7002C20.1003 3.30024 20.6001 3.30021 21.0001 3.7002C21.4 4.10016 21.4 4.60005 21.0001 5L19.0431 6.95605L18.7003 9.7002C18.5004 11.4 18.9999 12.9999 20.0997 14.2998L20.0001 14.2002C20.4999 14.8 20.5997 15.4997 20.2999 16.0996C19.9999 16.7996 19.2997 17.2002 18.5997 17.2002H14.2745L13.1144 21.3838C12.92 22.0838 12.2823 22.5683 11.5558 22.5684C10.8188 22.5684 10.1752 22.0698 9.99035 21.3564L8.91418 17.2002H8.79992L4.20031 21.7998C4.00032 21.9998 3.79972 22.0996 3.59973 22.0996V22C3.39976 22 3.10012 21.9999 3.00012 21.7002C2.60017 21.3002 2.60027 20.8004 3.00012 20.4004L17.4269 5.97266L17.5001 5.5C17.6001 5.10002 17.4999 4.69978 17.2999 4.2998C17.2996 4.20005 17.0997 4 17.0997 4C16.5998 3.50007 15.9999 3.2002 15.2999 3.2002H8.09973C7.3998 3.20025 6.69988 3.50006 6.29992 4C5.79993 4.39999 5.79992 5 5.79992 5.5L6.29992 9.5C6.59992 11.6 5.90011 13.8004 4.50012 15.4004H6.09973L4.29992 17.2002C3.69992 17.1002 3.19953 16.8002 2.89953 16.2002C2.59953 15.5002 2.80031 14.7998 3.20031 14.2998C4.30009 12.9999 4.79966 11.3 4.59973 9.7002L4.09973 5.7002C3.99973 4.6002 4.30012 3.5998 5.00012 2.7998C5.80005 1.89999 6.8999 1.40045 8.09973 1.40039H15.2999ZM11.5616 20.2461L12.3976 17.2324H10.7814L11.5616 20.2461ZM10.5997 15.4004H18.5997C17.2997 13.8004 16.5995 11.6 16.8995 9.5L16.9689 9.03027L10.5997 15.4004Z" fill="black"/>
</svg>
