<svg width="24" height="24" viewBox="0 0 24 24" fill="none" xmlns="http://www.w3.org/2000/svg">
<path fill-rule="evenodd" clip-rule="evenodd" d="M15.5922 1.43262C17.9443 1.43262 19.9189 3.3626 19.6098 5.71387L19.0824 9.72461C18.8688 11.3504 19.3629 12.9985 20.476 14.3037C20.9803 14.8951 21.0089 15.6567 20.6996 16.2471C20.3944 16.829 19.7743 17.2324 19.0346 17.2324H14.6664L13.515 21.3838C13.3207 22.0838 12.683 22.5683 11.9564 22.5684C11.2195 22.5684 10.5758 22.0698 10.391 21.3564L9.32362 17.2324H4.9662C4.22651 17.2322 3.60618 16.8291 3.30116 16.2471C2.99189 15.6568 3.0208 14.895 3.52479 14.3037C4.63795 12.9984 5.13194 11.3504 4.91834 9.72461L4.391 5.71289C4.08213 3.36194 6.05679 1.4319 8.40858 1.43164L15.5922 1.43262ZM11.9623 20.2461L12.7982 17.2324H11.182L11.9623 20.2461ZM8.40858 3.23242C6.98232 3.23267 6.0282 4.35982 6.17518 5.47852L6.70252 9.48926C6.9823 11.6179 6.33711 13.7511 4.93202 15.4238C4.94093 15.4257 4.95181 15.4315 4.9662 15.4316H19.0346C19.0484 15.4316 19.059 15.4257 19.0678 15.4238C17.6631 13.7513 17.0187 11.6185 17.2982 9.49023L17.8256 5.47852C17.9725 4.35973 17.0187 3.23242 15.5922 3.23242H8.40858Z" fill="black"/>
</svg>
