<svg width="24" height="24" viewBox="0 0 24 24" fill="none" xmlns="http://www.w3.org/2000/svg">
<path d="M12.0235 0.75C11.146 0.75 10.2555 0.884996 9.35902 1.11947C8.72665 1.28644 8.37849 1.93066 8.54428 2.56303C8.71125 3.1954 9.35548 3.58026 9.98785 3.41447C10.696 3.22855 11.3592 3.11842 12.0235 3.11842C12.708 3.11842 13.3901 3.22855 14.0959 3.41447C14.7282 3.58026 15.3724 3.1954 15.5394 2.56303C15.7052 1.93066 15.3203 1.28644 14.688 1.11947C13.7927 0.884996 12.9188 0.75 12.0235 0.75ZM12.0235 4.30263C6.79165 4.30263 2.5498 8.54447 2.5498 13.7763C2.5498 19.0082 6.79165 23.25 12.0235 23.25C17.2553 23.25 21.4972 19.0082 21.4972 13.7763C21.4972 8.54447 17.2553 4.30263 12.0235 4.30263ZM20.313 4.30263C19.6593 4.30263 19.1288 4.83316 19.1288 5.48684C19.1288 6.14053 19.6593 6.67105 20.313 6.67105C20.9667 6.67105 21.4972 6.14053 21.4972 5.48684C21.4972 4.83316 20.9667 4.30263 20.313 4.30263ZM12.0235 9.03947C12.6772 9.03947 13.2077 9.57 13.2077 10.2237V13.2576L15.2434 15.2933C15.7052 15.7563 15.7052 16.5331 15.2434 16.9962C14.7803 17.458 14.0035 17.458 13.5405 16.9962L11.1721 14.6278C10.9506 14.4051 10.8393 14.0901 10.8393 13.7763V10.2237C10.8393 9.57 11.3698 9.03947 12.0235 9.03947Z" fill="black" stroke="black" stroke-width="0.003" stroke-linecap="round" stroke-linejoin="round"/>
</svg>
