<svg width="24" height="24" viewBox="0 0 24 24" fill="none" xmlns="http://www.w3.org/2000/svg">
<path d="M19.9233 3.58203C20.2768 3.28044 20.8096 3.29703 21.144 3.63086C21.4954 3.98231 21.4954 4.55284 21.144 4.9043L18.9135 7.13379L18.5737 9.72461C18.36 11.3504 18.8541 12.9984 19.9672 14.3037C20.4712 14.895 20.5001 15.6568 20.1908 16.2471C19.8858 16.829 19.2654 17.2322 18.5258 17.2324H14.0297L12.9819 21.3623C12.8019 22.0711 12.1633 22.5682 11.4321 22.5684C10.6871 22.568 10.0401 22.0532 9.87347 21.3271L8.93597 17.2324H8.81585L4.37933 21.6689C4.02786 22.0202 3.45731 22.0203 3.10589 21.6689C2.77225 21.3347 2.75599 20.8027 3.05706 20.4492C3.07512 20.4338 3.09369 20.4184 3.11077 20.4014L19.8754 3.63672C19.8927 3.61947 19.9077 3.60029 19.9233 3.58203Z" fill="black"/>
<path d="M15.0834 1.43262C16.3064 1.43279 17.4256 1.95641 18.1762 2.78809L3.8344 17.1299C3.37701 16.9752 3.00673 16.6558 2.79241 16.2471C2.48318 15.6567 2.51187 14.895 3.01605 14.3037C4.1291 12.9984 4.6232 11.3503 4.4096 9.72461L3.88226 5.71289C3.57341 3.36192 5.548 1.43183 7.89983 1.43164L15.0834 1.43262Z" fill="black"/>
</svg>
