<svg width="24" height="24" viewBox="0 0 24 24" fill="none" xmlns="http://www.w3.org/2000/svg">
<path d="M15.5923 1.43262C17.9442 1.43287 19.919 3.36276 19.6099 5.71387L19.0825 9.72461C18.8689 11.3504 19.3629 12.9984 20.4761 14.3037C20.9802 14.895 21.009 15.6568 20.6997 16.2471C20.3947 16.8291 19.7744 17.2323 19.0347 17.2324H14.7554L13.7075 21.3623C13.5276 22.0711 12.889 22.568 12.1577 22.5684C11.4127 22.5682 10.7659 22.0532 10.5991 21.3271L9.66163 17.2324H4.96632C4.22655 17.2324 3.60641 16.829 3.30128 16.2471C2.99196 15.6567 3.0206 14.8951 3.52492 14.3037C4.63802 12.9984 5.13208 11.3504 4.91847 9.72461L4.39113 5.71289C4.08224 3.36181 6.05674 1.43168 8.40871 1.43164L15.5923 1.43262Z" fill="black"/>
</svg>
