<svg width="24" height="24" viewBox="0 0 24 24" fill="none" xmlns="http://www.w3.org/2000/svg">
<path fill-rule="evenodd" clip-rule="evenodd" d="M1.45712 4.7575C1.45714 2.93497 2.93459 1.45752 4.75712 1.45752H15.5574C17.3799 1.45752 18.8574 2.93498 18.8574 4.75752V9.55752C18.8574 10.0546 18.4545 10.4575 17.9574 10.4575C17.4603 10.4575 17.0574 10.0546 17.0574 9.55752V4.75752C17.0574 3.92909 16.3858 3.25752 15.5574 3.25752H4.75712C3.9287 3.25752 3.25713 3.92909 3.25712 4.75751L3.25703 19.1575C3.25703 19.9859 3.9286 20.6575 4.75703 20.6575H9.55703C10.0541 20.6575 10.457 21.0604 10.457 21.5575C10.457 22.0545 10.0541 22.4575 9.55703 22.4575H4.75702C2.93448 22.4575 1.45702 20.98 1.45703 19.1574L1.45712 4.7575ZM5.65741 7.15752C5.65741 6.66046 6.06035 6.25752 6.55741 6.25752H13.7574C14.2545 6.25752 14.6574 6.66046 14.6574 7.15752C14.6574 7.65458 14.2545 8.05752 13.7574 8.05752H6.55741C6.06035 8.05752 5.65741 7.65458 5.65741 7.15752ZM5.65741 10.7575C5.65741 10.2605 6.06035 9.85752 6.55741 9.85752H13.7574C14.2545 9.85752 14.6574 10.2605 14.6574 10.7575C14.6574 11.2546 14.2545 11.6575 13.7574 11.6575H6.55741C6.06035 11.6575 5.65741 11.2546 5.65741 10.7575ZM17.612 12.521C17.9635 12.1695 18.5333 12.1695 18.8848 12.521L22.2789 15.9151C22.4477 16.0839 22.5425 16.3128 22.5425 16.5515C22.5425 16.7902 22.4477 17.0191 22.2789 17.1879L17.1877 22.2791C17.019 22.4478 16.79 22.5427 16.5513 22.5427H13.1572C12.6602 22.5427 12.2572 22.1397 12.2572 21.6427V18.2485C12.2572 18.0099 12.352 17.7809 12.5208 17.6122L17.612 12.521ZM14.0572 18.6213V20.7427H16.1785L20.3697 16.5515L18.2484 14.4302L14.0572 18.6213ZM5.65741 14.3575C5.65741 13.8605 6.06035 13.4575 6.55741 13.4575H10.1574C10.6545 13.4575 11.0574 13.8605 11.0574 14.3575C11.0574 14.8546 10.6545 15.2575 10.1574 15.2575H6.55741C6.06035 15.2575 5.65741 14.8546 5.65741 14.3575Z" fill="black"/>
</svg>
