<svg width="24" height="24" viewBox="0 0 24 24" fill="none" xmlns="http://www.w3.org/2000/svg">
<path fill-rule="evenodd" clip-rule="evenodd" d="M11.9996 4.60005C10.4256 4.60005 9.14961 5.87604 9.14961 7.45005C9.14961 9.02406 10.4256 10.3 11.9996 10.3C13.5736 10.3 14.8496 9.02406 14.8496 7.45005C14.8496 5.87604 13.5736 4.60005 11.9996 4.60005ZM7.34961 7.45005C7.34961 4.88192 9.43148 2.80005 11.9996 2.80005C14.5677 2.80005 16.6496 4.88192 16.6496 7.45005C16.6496 10.0182 14.5677 12.1 11.9996 12.1C9.43148 12.1 7.34961 10.0182 7.34961 7.45005ZM18.5323 12.8063C18.4517 12.8063 18.384 12.8352 18.3398 12.876L18.3321 12.883L11.06 19.442C10.9473 19.5474 10.8996 19.6737 10.8996 19.7812V21.0063H12.3094C12.4961 21.0063 12.6692 20.9347 12.7859 20.827L12.7932 20.8202L20.0608 14.2586C20.0607 14.2587 20.0609 14.2584 20.0608 14.2586C20.0804 14.2407 20.0895 14.2254 20.0936 14.2162C20.098 14.2064 20.0996 14.1975 20.0996 14.1891C20.0996 14.1766 20.096 14.1469 20.0551 14.1093L18.7135 12.8708C18.6754 12.835 18.6129 12.8063 18.5323 12.8063ZM19.9424 11.5555C19.1566 10.8209 17.9095 10.8277 17.1232 11.5493L9.84972 18.1096L9.84205 18.1166C9.3832 18.5401 9.09961 19.1372 9.09961 19.7812V22.8063H12.3094C12.936 22.8063 13.5461 22.5729 14.0027 22.1534L21.2687 15.5931L21.2704 15.5916C22.1127 14.8273 22.1041 13.551 21.2761 12.7866L19.9424 11.5555ZM11.9996 15.3195C10.7274 15.3195 9.45524 15.4049 8.19167 15.5757C6.01987 15.8693 4.39961 17.7233 4.39961 19.9149V20.1528C4.39961 20.6499 3.99667 21.0528 3.49961 21.0528C3.00255 21.0528 2.59961 20.6499 2.59961 20.1528V19.9149C2.59961 16.8224 4.88593 14.2062 7.95054 13.792C9.29412 13.6103 10.6469 13.5195 11.9996 13.5195C12.4967 13.5195 12.8996 13.9225 12.8996 14.4195C12.8996 14.9166 12.4967 15.3195 11.9996 15.3195Z" fill="black"/>
</svg>
