<svg width="24" height="24" viewBox="0 0 24 24" fill="none" xmlns="http://www.w3.org/2000/svg">
<path fill-rule="evenodd" clip-rule="evenodd" d="M12.2548 3.22871C12.5456 2.99352 12.9302 2.90848 13.2932 2.99919C16.1831 3.72131 18.9219 5.23543 20.5947 7.92109C20.6713 8.04408 20.6506 8.20326 20.5478 8.30542L19.2704 9.57453C19.1684 9.67585 18.9969 9.6482 18.9263 9.52303C17.8606 7.63323 15.8933 6.44946 14.2554 5.80955L14.4197 11.7175H14.4195L14.4265 11.8957C15.1591 12.2806 15.8423 12.8205 16.3458 13.3805C16.3946 13.4348 16.4729 13.514 16.5142 13.5906C16.532 13.6236 16.5207 13.6627 16.4941 13.6892L15.286 14.8882C15.1921 14.9813 15.0311 14.9698 14.9295 14.8852C14.8773 14.8417 14.8235 14.7982 14.771 14.7398C14.7043 14.6656 14.6186 14.4675 14.5187 14.3913C14.5232 16.0552 14.0232 17.5429 12.8629 18.5843C11.7787 19.5574 9.93489 20.0071 8.29516 19.3618C7.0863 18.8861 5.95473 17.7592 5.57991 16.2723C5.2466 14.95 5.53806 13.6416 6.18417 12.685C7.20168 11.1786 8.86406 10.4066 11.0404 10.6886C11.3505 10.7112 11.6671 10.7875 11.9869 10.852C11.9953 10.8538 12.0037 10.8547 12.012 10.8549L11.8144 4.19543C11.801 3.822 11.9641 3.46393 12.2548 3.22871ZM12.0222 13.4005C10.8808 12.8605 10.2907 12.9485 9.9891 12.9485C9.14518 12.9485 8.51119 13.4191 8.14407 13.9681C7.77695 14.517 7.69182 15.2253 7.88002 15.814C8.09261 16.4788 8.56511 16.9523 9.19535 17.1979C9.96226 17.4736 10.7326 17.2917 11.2579 16.8798C11.9367 16.3475 12.1404 15.6524 12.1404 14.6327L12.1537 13.7667C12.1537 13.6166 12.2012 13.4852 12.0222 13.4005Z" fill="white"/>
</svg>
