<svg width="24" height="24" viewBox="0 0 24 24" fill="none" xmlns="http://www.w3.org/2000/svg">
<path fill-rule="evenodd" clip-rule="evenodd" d="M12.0001 2.99995C10.3709 2.99995 9.05013 4.32071 9.05013 5.94995V6.14995H14.9501V5.94995C14.9501 4.32071 13.6294 2.99995 12.0001 2.99995ZM16.7501 6.14995V5.94995C16.7501 3.3266 14.6235 1.19995 12.0001 1.19995C9.37678 1.19995 7.25013 3.3266 7.25013 5.94995V6.14995H7.15046C5.38216 6.14995 3.90906 7.5054 3.76221 9.2676L3.07887 17.4676C2.91369 19.4499 4.47799 21.15 6.46713 21.15H17.5331C19.5222 21.15 21.0865 19.4499 20.9214 17.4676L20.238 9.26761C20.0912 7.50541 18.6181 6.14995 16.8498 6.14995H16.7501ZM7.15046 7.94995C6.31832 7.94995 5.6251 8.58781 5.55599 9.41708L4.87266 17.6171C4.79492 18.5499 5.53106 19.35 6.46713 19.35H17.5331C18.4692 19.35 19.2053 18.5499 19.1276 17.6171L18.4443 9.41708C18.3752 8.58781 17.6819 7.94995 16.8498 7.94995H7.15046ZM9.25013 10.1571C9.74719 10.1571 10.1501 10.56 10.1501 11.0571V11.45C10.1501 12.4717 10.9784 13.3 12.0001 13.3C13.0219 13.3 13.8501 12.4717 13.8501 11.45V11.0571C13.8501 10.56 14.2531 10.1571 14.7501 10.1571C15.2472 10.1571 15.6501 10.56 15.6501 11.0571V11.45C15.6501 13.4658 14.016 15.1 12.0001 15.1C9.98429 15.1 8.35013 13.4658 8.35013 11.45V11.0571C8.35013 10.56 8.75307 10.1571 9.25013 10.1571Z" fill="black"/>
</svg>
