<svg width="24" height="24" viewBox="0 0 24 24" fill="none" xmlns="http://www.w3.org/2000/svg">
<path d="M4.99961 3.84985C3.39798 3.84985 2.09961 5.14823 2.09961 6.74985V17.2499C2.09961 18.8515 3.39798 20.1499 4.99961 20.1499H8.16961C8.66667 20.1499 9.06961 19.7469 9.06961 19.2499C9.06961 18.7528 8.66667 18.3499 8.16961 18.3499H4.99961C4.3921 18.3499 3.89961 17.8574 3.89961 17.2499V6.74985C3.89961 6.14234 4.3921 5.64985 4.99961 5.64985H18.9996C19.6071 5.64985 20.0996 6.14234 20.0996 6.74985V9.09985C20.0996 9.59691 20.5026 9.99985 20.9996 9.99985C21.4967 9.99985 21.8996 9.59691 21.8996 9.09985V6.74985C21.8996 5.14823 20.6012 3.84985 18.9996 3.84985H4.99961Z" fill="black"/>
<path fill-rule="evenodd" clip-rule="evenodd" d="M12.5257 20.1499L19.9994 20.1499C21.0488 20.1499 21.8994 19.2992 21.8994 18.2499L21.8994 13.5178C21.8994 12.4684 21.0488 11.6178 19.9994 11.6178H12.5257C11.4764 11.6178 10.6257 12.4684 10.6257 13.5178V18.2499C10.6257 19.2992 11.4764 20.1499 12.5257 20.1499ZM19.9994 18.3499L12.5257 18.3499C12.4705 18.3499 12.4257 18.3051 12.4257 18.2499V13.5178C12.4257 13.4625 12.4705 13.4178 12.5257 13.4178H19.9994C20.0546 13.4178 20.0994 13.4625 20.0994 13.5178L20.0994 18.2499C20.0994 18.3051 20.0546 18.3499 19.9994 18.3499Z" fill="black"/>
</svg>
