<svg width="24" height="24" viewBox="0 0 24 24" fill="none" xmlns="http://www.w3.org/2000/svg">
<path d="M17.9455 3.84393L17.6185 1.73633L16.4907 2.96074C15.136 2.29166 13.6079 1.91029 11.9996 1.91029C6.39409 1.91029 1.84961 6.46672 1.84961 12.087C1.84961 17.7072 6.39409 22.2637 11.9996 22.2637C17.6051 22.2637 22.1496 17.7072 22.1496 12.087C22.1496 8.69475 20.4946 5.69059 17.9455 3.84393Z" fill="#FFDC00"/>
<path d="M16.1378 15.3788L11.947 8.13942C14.0624 7.03543 16.6049 4.74049 17.6192 1.73633C15.0033 3.65658 11.6934 4.13163 8.79051 4.11156C8.38345 4.11156 8.12986 4.54646 8.33006 4.90107L9.17756 6.36635L13.3216 13.5456C12.8212 13.4385 12.294 13.4051 11.7468 13.4519C9.20425 13.6727 7.30238 15.6063 7.48923 17.7608C7.67608 19.9152 9.8916 21.4875 12.4274 21.2601C14.9699 21.0393 16.8718 19.1056 16.685 16.9512C16.6316 16.3758 16.438 15.9074 16.1311 15.3722L16.1378 15.3788Z" fill="url(#paint0_linear_55536_35559)"/>
<defs>
<linearGradient id="paint0_linear_55536_35559" x1="12.5475" y1="1.74302" x2="12.5475" y2="21.2868" gradientUnits="userSpaceOnUse">
<stop stop-color="#00CECC"/>
<stop offset="0.2" stop-color="#00CAAB"/>
<stop offset="0.46" stop-color="#00C784"/>
<stop offset="0.6" stop-color="#00C675"/>
<stop offset="0.74" stop-color="#00C36D"/>
<stop offset="1" stop-color="#00C065"/>
</linearGradient>
</defs>
</svg>
