<svg width="24" height="24" viewBox="0 0 24 24" fill="none" xmlns="http://www.w3.org/2000/svg">
<path fill-rule="evenodd" clip-rule="evenodd" d="M9.88281 12.8682C10.5886 12.9401 11.1396 13.536 11.1396 14.2607V20.002C11.1388 20.7736 10.5128 21.4014 9.73926 21.4014H3.99805C3.22451 21.4014 2.59852 20.7736 2.59766 20.002V14.2607L2.60547 14.1182C2.67678 13.4133 3.27067 12.8611 3.99609 12.8604H9.73926L9.88281 12.8682ZM4.39844 19.6006H9.33887V14.6611H4.39844V19.6006Z" fill="black"/>
<path d="M20.9248 18.5537C21.0904 18.5537 21.2245 18.6879 21.2246 18.8535V20.9502C21.2246 21.1159 21.0905 21.25 20.9248 21.25H18.8271C18.6615 21.25 18.5273 21.1159 18.5273 20.9502V18.8535C18.5275 18.6879 18.6615 18.5537 18.8271 18.5537H20.9248Z" fill="black"/>
<path d="M15.5342 18.5508C15.6999 18.5508 15.834 18.6849 15.834 18.8506V20.9482C15.8339 21.1139 15.6998 21.248 15.5342 21.248H13.4375C13.2719 21.2479 13.1377 21.1138 13.1377 20.9482V18.8506C13.1377 18.685 13.2719 18.5509 13.4375 18.5508H15.5342Z" fill="black"/>
<path d="M18.2285 15.8564C18.3942 15.8564 18.5283 15.9906 18.5283 16.1562V18.2529C18.5281 18.4184 18.394 18.5527 18.2285 18.5527H16.1309C15.9653 18.5527 15.8313 18.4184 15.8311 18.2529V16.1562C15.8311 15.9906 15.9652 15.8564 16.1309 15.8564H18.2285Z" fill="black"/>
<path d="M20.9277 13.1631C21.0934 13.1631 21.2275 13.2972 21.2275 13.4629V15.5596C21.2275 15.7253 21.0934 15.8604 20.9277 15.8604H18.8311C18.6654 15.8604 18.5303 15.7253 18.5303 15.5596V13.4629C18.5303 13.2972 18.6654 13.1631 18.8311 13.1631H20.9277Z" fill="black"/>
<path d="M15.5371 13.1602C15.7027 13.1602 15.8368 13.2944 15.8369 13.46V15.5576C15.8367 15.7231 15.7026 15.8574 15.5371 15.8574H13.4395C13.274 15.8573 13.1399 15.723 13.1396 15.5576V13.46C13.1398 13.2944 13.2739 13.1603 13.4395 13.1602H15.5371Z" fill="black"/>
<path fill-rule="evenodd" clip-rule="evenodd" d="M9.88281 2.60742C10.5886 2.67931 11.1396 3.27527 11.1396 4V9.74121C11.1389 10.5129 10.5129 11.1406 9.73926 11.1406H3.99805C3.22442 11.1406 2.59839 10.5129 2.59766 9.74121V4L2.60547 3.85742C2.67678 3.1526 3.27067 2.60036 3.99609 2.59961H9.73926L9.88281 2.60742ZM4.39844 9.33984H9.33887V4.40039H4.39844V9.33984Z" fill="black"/>
<path fill-rule="evenodd" clip-rule="evenodd" d="M20.1455 2.60742C20.8513 2.67931 21.4023 3.27527 21.4023 4V9.74121C21.4016 10.5129 20.7756 11.1406 20.002 11.1406H14.2607C13.4871 11.1406 12.8611 10.5129 12.8604 9.74121V4L12.8682 3.85742C12.9395 3.1526 13.5334 2.60036 14.2588 2.59961H20.002L20.1455 2.60742ZM14.6611 9.33984H19.6016V4.40039H14.6611V9.33984Z" fill="black"/>
</svg>
