<svg width="24" height="24" viewBox="0 0 24 24" fill="none" xmlns="http://www.w3.org/2000/svg">
<path fill-rule="evenodd" clip-rule="evenodd" d="M1.75 5.84995C1.75 4.80061 2.60066 3.94995 3.65 3.94995H20.35C21.3993 3.94995 22.25 4.80061 22.25 5.84995V18.15C22.25 19.1993 21.3993 20.05 20.35 20.05H3.65C2.60066 20.05 1.75 19.1993 1.75 18.15V5.84995ZM3.65 5.74995C3.59477 5.74995 3.55 5.79472 3.55 5.84995V18.15C3.55 18.2052 3.59477 18.25 3.65 18.25H20.35C20.4052 18.25 20.45 18.2052 20.45 18.15V5.84995C20.45 5.79472 20.4052 5.74995 20.35 5.74995H3.65ZM5.6 8.69995C5.6 8.2029 6.00294 7.79995 6.5 7.79995H17.5C17.9971 7.79995 18.4 8.2029 18.4 8.69995V15.2999C18.4 15.797 17.9971 16.1999 17.5 16.1999H6.5C6.00294 16.1999 5.6 15.797 5.6 15.2999V8.69995ZM7.4 9.59995V14.4H16.6V9.59995H7.4Z" fill="black"/>
</svg>
