<svg width="24" height="24" viewBox="0 0 24 24" fill="none" xmlns="http://www.w3.org/2000/svg">
<path fill-rule="evenodd" clip-rule="evenodd" d="M11.9996 21.9001C17.4672 21.9001 21.8996 17.4677 21.8996 12.0001C21.8996 6.53248 17.4672 2.1001 11.9996 2.1001C6.53199 2.1001 2.09961 6.53248 2.09961 12.0001C2.09961 17.4677 6.53199 21.9001 11.9996 21.9001ZM10.676 13.4437C10.676 14.0168 11.0058 14.4407 11.6024 14.4407C12.1362 14.4407 12.4032 14.1189 12.4817 13.6007C12.5445 12.8863 12.7957 12.5095 13.8241 11.9128C14.8918 11.2769 15.4885 10.4526 15.4885 9.25144C15.4885 7.47718 14.0283 6.26818 11.9007 6.26818C10.2835 6.26818 9.05878 6.92763 8.57204 7.99533C8.42288 8.29365 8.35222 8.58413 8.35222 8.92171C8.35222 9.4477 8.6741 9.77743 9.2158 9.77743C9.64758 9.77743 9.93806 9.58116 10.1108 9.09442C10.362 8.3015 10.9429 7.86971 11.8144 7.86971C12.78 7.86971 13.4473 8.46637 13.4473 9.32209C13.4473 10.0758 13.1176 10.5075 12.1441 11.0963C11.1628 11.6773 10.676 12.3211 10.676 13.2945V13.4437ZM10.4719 16.7331C10.4719 17.3533 10.9822 17.8479 11.6181 17.8479C12.254 17.8479 12.7565 17.3533 12.7565 16.7331C12.7565 16.1129 12.254 15.6262 11.6181 15.6262C10.9822 15.6262 10.4719 16.1129 10.4719 16.7331Z" fill="black"/>
</svg>
