<svg width="24" height="24" viewBox="0 0 24 24" fill="none" xmlns="http://www.w3.org/2000/svg">
<path d="M8.4477 2.8999C10.421 2.90021 12.0627 4.31819 12.4094 6.19002C12.4313 6.30832 12.3745 6.42558 12.2745 6.49286C10.7078 7.54719 9.67788 9.33451 9.67788 11.3609L9.6929 11.7862C9.76163 12.7418 10.0608 13.6318 10.5327 14.404C10.5622 14.4522 10.5481 14.5152 10.5007 14.546C9.75719 15.0304 9.09262 15.6361 8.54816 16.3384C8.48859 16.4152 8.39728 16.4615 8.2999 16.4615H2.49897C2.19017 16.4613 1.9345 16.2781 1.81831 16.0242C1.81313 16.0129 1.80991 16.0008 1.8053 15.9893C1.78935 15.9492 1.77409 15.9082 1.76526 15.8655C1.74181 15.7532 1.74481 15.6326 1.77827 15.5121L1.85134 15.2495L1.95344 14.8741C2.08802 14.3853 2.29629 13.9235 2.56303 13.4974C3.43779 12.0961 4.94757 11.0796 6.5839 10.7519C6.69172 10.7303 6.71287 10.5632 6.61493 10.5133C5.30632 9.84869 4.40788 8.49465 4.4078 6.92724C4.4078 4.70335 6.21236 2.90028 8.43769 2.8999H8.4477Z" fill="black"/>
<path d="M15.5522 7.53799C13.3268 7.53834 11.5221 9.34137 11.5221 11.5653C11.5222 13.1327 12.4207 14.4866 13.7293 15.1512C13.8274 15.201 13.8064 15.3685 13.6985 15.3901C12.0621 15.7177 10.5523 16.7343 9.67751 18.1357C9.41072 18.5619 9.20272 19.0236 9.06815 19.5125L8.9659 19.8872L8.89257 20.1504C8.8591 20.2709 8.85673 20.3911 8.88017 20.5033C8.889 20.5461 8.90346 20.5871 8.91942 20.6272C8.92408 20.6388 8.92762 20.6509 8.93285 20.6623C9.04905 20.9162 9.30464 21.0998 9.61347 21.0999H21.5012C21.5938 21.0999 21.6817 21.0835 21.7625 21.0535C21.7894 21.0434 21.8157 21.0323 21.841 21.0194C21.9924 20.9421 22.1121 20.8146 22.1818 20.6623C22.1978 20.6275 22.2105 20.5911 22.221 20.5539C22.2343 20.5068 22.2442 20.4582 22.2479 20.4084C22.2543 20.3245 22.2463 20.2375 22.2221 20.1504L22.0465 19.5125C21.8929 18.9545 21.6436 18.4319 21.3204 17.9571C20.4319 16.6483 18.9821 15.7037 17.4161 15.3901C17.3083 15.3685 17.2873 15.201 17.3853 15.1512C18.694 14.4866 19.5925 13.1327 19.5925 11.5653C19.5925 9.34137 17.7878 7.53834 15.5625 7.53799H15.5522Z" fill="black"/>
</svg>
