<svg width="24" height="24" viewBox="0 0 24 24" fill="none" xmlns="http://www.w3.org/2000/svg">
<path fill-rule="evenodd" clip-rule="evenodd" d="M14.0184 3.32121C14.013 3.32452 14.0008 3.33312 13.984 3.35389L6.01223 13.2478C5.99277 13.272 5.98953 13.288 5.98856 13.2982C5.98723 13.3124 5.98962 13.3323 5.9999 13.3537C6.01017 13.3752 6.02416 13.3896 6.03601 13.3974C6.04457 13.403 6.05908 13.4106 6.0901 13.4106H10.1445C10.4041 13.4106 10.6511 13.5227 10.822 13.7181C10.9929 13.9135 11.0711 14.1733 11.0364 14.4306L10.182 20.7828C10.1785 20.8092 10.1807 20.8241 10.182 20.8303C10.1834 20.8368 10.1854 20.8416 10.1882 20.8462C10.1948 20.8569 10.2115 20.875 10.2416 20.888C10.2718 20.901 10.2964 20.9006 10.3087 20.898C10.314 20.8969 10.3189 20.895 10.3246 20.8916C10.33 20.8882 10.3423 20.8797 10.359 20.8589L18.3308 10.9649C18.3503 10.9408 18.3535 10.9247 18.3545 10.9145C18.3558 10.9004 18.3534 10.8805 18.3431 10.859C18.3329 10.8376 18.3189 10.8232 18.307 10.8154C18.2985 10.8097 18.284 10.8022 18.2529 10.8022L14.1986 10.8022C13.9389 10.8022 13.692 10.6901 13.5211 10.4947C13.3502 10.2992 13.272 10.0395 13.3066 9.78222L14.161 3.42996C14.1646 3.40353 14.1624 3.3887 14.161 3.38251C14.1597 3.376 14.1576 3.37119 14.1548 3.36653C14.1483 3.35584 14.1316 3.33773 14.1014 3.32476C14.0712 3.31178 14.0466 3.31214 14.0343 3.31476C14.029 3.31589 14.0241 3.31772 14.0184 3.32121ZM12.5824 2.22455C13.7889 0.727176 16.2013 1.76416 15.9449 3.66991L15.2277 9.00219L18.2529 9.00219C19.8492 9.00219 20.7339 10.8513 19.7324 12.0943L11.7606 21.9882C10.5542 23.4856 8.14176 22.4486 8.39809 20.5429L9.11532 15.2106H6.0901C4.49386 15.2106 3.6091 13.3615 4.61059 12.1185L12.5824 2.22455Z" fill="black"/>
</svg>
