<svg width="24" height="24" viewBox="0 0 24 24" fill="none" xmlns="http://www.w3.org/2000/svg">
<path d="M9.58727 11.1029C10.205 11.1029 10.7057 10.6022 10.7057 9.98449C10.7057 9.3668 10.205 8.86606 9.58727 8.86606C8.96958 8.86606 8.46885 9.3668 8.46885 9.98449C8.46885 10.6022 8.96958 11.1029 9.58727 11.1029Z" fill="black"/>
<path d="M14.4134 11.1029C15.0311 11.1029 15.5319 10.6022 15.5319 9.98449C15.5319 9.3668 15.0311 8.86606 14.4134 8.86606C13.7958 8.86606 13.295 9.3668 13.295 9.98449C13.295 10.6022 13.7958 11.1029 14.4134 11.1029Z" fill="black"/>
<path fill-rule="evenodd" clip-rule="evenodd" d="M18.4266 1.92188C18.9237 1.92186 19.3266 2.32479 19.3267 2.82185L19.3267 4.67182H21.1769C21.6739 4.67182 22.0769 5.07477 22.0769 5.57182C22.0769 6.06888 21.6739 6.47182 21.1769 6.47182H19.3268L19.3268 8.32185C19.3268 8.8189 18.9239 9.22186 18.4269 9.22188C17.9298 9.22189 17.5268 8.81896 17.5268 8.3219L17.5268 6.47182H15.6769C15.1798 6.47182 14.7769 6.06888 14.7769 5.57182C14.7769 5.07477 15.1798 4.67182 15.6769 4.67182H17.5267L17.5267 2.8219C17.5266 2.32485 17.9296 1.92189 18.4266 1.92188ZM2.6001 12.0001C2.6001 6.80862 6.80862 2.6001 12.0001 2.6001C12.4972 2.6001 12.9001 3.00304 12.9001 3.5001C12.9001 3.99715 12.4972 4.4001 12.0001 4.4001C7.80273 4.4001 4.4001 7.80273 4.4001 12.0001C4.4001 16.1975 7.80273 19.6001 12.0001 19.6001C16.1975 19.6001 19.6001 16.1975 19.6001 12.0001C19.6001 11.503 20.003 11.1001 20.5001 11.1001C20.9972 11.1001 21.4001 11.503 21.4001 12.0001C21.4001 17.1916 17.1916 21.4001 12.0001 21.4001C6.80862 21.4001 2.6001 17.1916 2.6001 12.0001ZM8.73577 12.766C9.21091 12.62 9.71442 12.8869 9.86041 13.362C10.0799 14.0765 10.8982 14.7263 12.0001 14.7263C13.1016 14.7263 13.9162 14.0825 14.1412 13.3637C14.2897 12.8893 14.7946 12.6252 15.269 12.7737C15.7433 12.9222 16.0075 13.4271 15.859 13.9014C15.364 15.4826 13.7653 16.5263 12.0001 16.5263C10.2354 16.5263 8.62692 15.4761 8.13979 13.8906C7.99381 13.4155 8.26064 12.912 8.73577 12.766Z" fill="black"/>
</svg>
