<svg width="24" height="24" viewBox="0 0 24 24" fill="none" xmlns="http://www.w3.org/2000/svg">
<path fill-rule="evenodd" clip-rule="evenodd" d="M12.0002 4.9001C9.33405 4.9001 7.14848 6.92677 6.97223 9.50434L6.55478 15.6093C6.59197 15.6082 6.62931 15.6076 6.66676 15.6076H17.3334C17.371 15.6076 17.4083 15.6082 17.4456 15.6093L17.0281 9.50425C16.8519 6.92674 14.6663 4.9001 12.0002 4.9001ZM19.2891 16.1839L18.824 9.38146C18.5813 5.8325 15.5853 3.1001 12.0002 3.1001C8.41506 3.1001 5.4191 5.83257 5.17642 9.38155L4.7113 16.1837C3.744 16.8102 3.1001 17.889 3.1001 19.127V20.0001C3.1001 20.4972 3.50304 20.9001 4.0001 20.9001H20.0001C20.4972 20.9001 20.9001 20.4972 20.9001 20.0001V19.127C20.9001 17.8891 20.2563 16.8103 19.2891 16.1839ZM4.90031 19.1001H19.0999C19.0852 18.1775 18.3149 17.4076 17.3334 17.4076H6.66676C5.68532 17.4076 4.91502 18.1775 4.90031 19.1001Z" fill="black"/>
</svg>
