<svg width="64" height="64" viewBox="0 0 64 64" fill="none" xmlns="http://www.w3.org/2000/svg">
<path d="M31.999 22.6926C33.6685 22.6926 35.0212 24.0453 35.0215 25.7141C35.0214 26.8052 34.4425 27.7595 33.5752 28.2902C33.242 28.4942 33.0088 28.8596 33.0703 29.2453L34.7676 39.882C34.8967 40.6919 34.2713 41.425 33.4512 41.425H30.5449C29.7248 41.425 29.0994 40.6919 29.2285 39.882L30.9248 29.2424C30.9862 28.857 30.7526 28.4922 30.4199 28.2883C29.5542 27.7574 28.9766 26.804 28.9766 25.7141C28.9769 24.0454 30.3296 22.6926 31.999 22.6926Z" fill="#AEAEAE"/>
<path fill-rule="evenodd" clip-rule="evenodd" d="M30.3818 3.55391C31.4163 3.1181 32.5837 3.1181 33.6182 3.55391L52.9512 11.6994C54.4956 12.3502 55.5 13.8633 55.5 15.5393V30.3859C55.4999 44.2821 46.4631 56.5639 33.1963 60.6984C32.4173 60.9412 31.5827 60.9412 30.8037 60.6984C17.5369 56.5639 8.50015 44.2821 8.5 30.3859V15.5393C8.5 13.8633 9.50438 12.3502 11.0488 11.6994L30.3818 3.55391ZM32.4531 6.31855C32.1635 6.19653 31.8365 6.19653 31.5469 6.31855L12.2139 14.4641C11.7815 14.6463 11.5 15.07 11.5 15.5393V30.3859C11.5001 42.969 19.683 54.0903 31.6963 57.8342C31.894 57.8958 32.106 57.8958 32.3037 57.8342C44.317 54.0903 52.4999 42.969 52.5 30.3859V15.5393C52.5 15.07 52.2185 14.6463 51.7861 14.4641L32.4531 6.31855Z" fill="#AEAEAE"/>
</svg>
