<svg width="34" height="31" viewBox="0 0 34 31" fill="none" xmlns="http://www.w3.org/2000/svg">
<g filter="url(#filter0_dd_25502_17866)">
<path fill-rule="evenodd" clip-rule="evenodd" d="M17.9313 7.86181C17.9167 7.88461 17.9003 7.9229 17.9003 7.98648V11.8196C17.9003 12.0583 17.8054 12.2873 17.6366 12.4561C17.4677 12.6249 17.2387 12.7197 16.9999 12.7196C14.054 12.7183 11.7483 13.848 10.1845 15.6839C8.89156 17.2017 8.06955 19.2468 7.85567 21.6286C10.5712 18.4476 14.6652 17.6813 17.169 18.126C17.5986 18.2024 17.9116 18.5758 17.9116 19.0122V22.8679C17.9116 22.9314 17.928 22.9697 17.9426 22.9925C17.9589 23.0181 17.9804 23.0357 18.0009 23.0455C18.0214 23.0553 18.035 23.055 18.0398 23.0543C18.0398 23.0543 18.0544 23.0541 18.0835 23.0265L25.9294 15.5863C25.9558 15.5611 25.9825 15.5133 25.9818 15.4399C25.9811 15.3669 25.953 15.3037 25.9123 15.2626L18.0721 7.82783C18.043 7.80026 18.0284 7.79999 18.0284 7.79999C18.0237 7.79934 18.0101 7.79898 17.9897 7.80878C17.9691 7.81864 17.9476 7.83619 17.9313 7.86181ZM17.2116 6.18562C17.8638 5.873 18.6932 5.93615 19.3107 6.52168L27.1662 13.9709C27.9629 14.7475 28.0101 16.0925 27.169 16.8914L19.322 24.3326C18.7045 24.9181 17.8751 24.9813 17.2229 24.6687C16.5774 24.3593 16.1116 23.6906 16.1116 22.8679V19.8167C13.7662 19.7008 10.2618 20.7505 8.34855 24.035C8.2372 24.2261 8.07664 24.4291 7.85217 24.5762C7.62304 24.7263 7.26157 24.8526 6.85914 24.7181C6.46628 24.5868 6.25248 24.279 6.14871 24.0355C6.04496 23.7921 6.00853 23.5257 6.00437 23.2725C5.926 19.8474 6.90228 16.7612 8.81424 14.5167C10.5678 12.4581 13.0635 11.1626 16.1003 10.9504V7.98648C16.1003 7.16378 16.5661 6.49505 17.2116 6.18562Z" fill="white"/>
</g>
<defs>
<filter id="filter0_dd_25502_17866" x="0" y="0" width="33.7822" height="30.8542" filterUnits="userSpaceOnUse" color-interpolation-filters="sRGB">
<feFlood flood-opacity="0" result="BackgroundImageFix"/>
<feColorMatrix in="SourceAlpha" type="matrix" values="0 0 0 0 0 0 0 0 0 0 0 0 0 0 0 0 0 0 127 0" result="hardAlpha"/>
<feOffset/>
<feGaussianBlur stdDeviation="3"/>
<feComposite in2="hardAlpha" operator="out"/>
<feColorMatrix type="matrix" values="0 0 0 0 0 0 0 0 0 0 0 0 0 0 0 0 0 0 0.16 0"/>
<feBlend mode="normal" in2="BackgroundImageFix" result="effect1_dropShadow_25502_17866"/>
<feColorMatrix in="SourceAlpha" type="matrix" values="0 0 0 0 0 0 0 0 0 0 0 0 0 0 0 0 0 0 127 0" result="hardAlpha"/>
<feOffset/>
<feGaussianBlur stdDeviation="0.5"/>
<feComposite in2="hardAlpha" operator="out"/>
<feColorMatrix type="matrix" values="0 0 0 0 0 0 0 0 0 0 0 0 0 0 0 0 0 0 0.12 0"/>
<feBlend mode="normal" in2="effect1_dropShadow_25502_17866" result="effect2_dropShadow_25502_17866"/>
<feBlend mode="normal" in="SourceGraphic" in2="effect2_dropShadow_25502_17866" result="shape"/>
</filter>
</defs>
</svg>
