<svg width="24" height="24" viewBox="0 0 24 24" fill="none" xmlns="http://www.w3.org/2000/svg">
<circle cx="12" cy="12" r="12" fill="#EBEDF2"/>
<path fill-rule="evenodd" clip-rule="evenodd" d="M11.2961 7.85596C9.46815 7.85596 7.98633 9.33778 7.98633 11.1657C7.98633 12.9936 9.46815 14.4754 11.2961 14.4754C13.124 14.4754 14.6058 12.9936 14.6058 11.1657C14.6058 9.33778 13.124 7.85596 11.2961 7.85596ZM6.48633 11.1657C6.48633 8.50935 8.63972 6.35596 11.2961 6.35596C13.9524 6.35596 16.1058 8.50935 16.1058 11.1657C16.1058 12.1516 15.8092 13.0682 15.3003 13.8312L17.7667 16.2976C18.0596 16.5905 18.0596 17.0653 17.7667 17.3582C17.4738 17.6511 16.9989 17.6511 16.706 17.3582L14.2833 14.9355C13.4628 15.5866 12.4248 15.9754 11.2961 15.9754C8.63972 15.9754 6.48633 13.822 6.48633 11.1657Z" fill="black"/>
</svg>
