<svg width="24" height="24" viewBox="0 0 24 24" fill="none" xmlns="http://www.w3.org/2000/svg">
<path fill-rule="evenodd" clip-rule="evenodd" d="M2.99961 3.90039C1.39798 3.90039 0.0996094 5.19877 0.0996094 6.80039V17.629C0.0996094 18.1261 0.502553 18.529 0.999609 18.529H2.47176C2.78898 19.9841 4.08467 21.0736 5.63484 21.0736C7.18501 21.0736 8.48071 19.9841 8.79793 18.529H14.2591C14.5665 19.9972 15.8684 21.0998 17.4278 21.0998C18.9872 21.0998 20.2891 19.9972 20.5965 18.5291H22.9996C23.4966 18.5291 23.8996 18.1262 23.8996 17.6291V12.7121C23.8996 12.5794 23.8702 12.4483 23.8136 12.3283L21.7324 7.91527C21.5838 7.6002 21.2667 7.39917 20.9184 7.39917H18.1143L18.1138 4.80023C18.1137 4.30324 17.7108 3.90039 17.2138 3.90039H2.99961ZM20.4613 16.7291L22.0996 16.7291V12.9137L20.3478 9.19917H18.1145V14.698C19.1981 14.932 20.0798 15.7085 20.4613 16.7291ZM16.3145 14.8215L16.314 5.70039H2.99961C2.3921 5.70039 1.89961 6.19288 1.89961 6.80039V16.729H2.59175C3.04401 15.4863 4.23578 14.5989 5.63484 14.5989C7.0339 14.5989 8.22568 15.4863 8.67793 16.729H14.3944C14.7244 15.8461 15.4288 15.1459 16.3145 14.8215ZM5.63484 16.3989C4.841 16.3989 4.19746 17.0424 4.19746 17.8363C4.19746 18.6301 4.841 19.2736 5.63484 19.2736C6.42869 19.2736 7.07222 18.6301 7.07222 17.8363C7.07222 17.0424 6.42869 16.3989 5.63484 16.3989ZM15.9904 17.8624C15.9904 17.0685 16.634 16.425 17.4278 16.425C18.2217 16.425 18.8652 17.0685 18.8652 17.8624C18.8652 18.6562 18.2217 19.2998 17.4278 19.2998C16.634 19.2998 15.9904 18.6562 15.9904 17.8624Z" fill="black"/>
</svg>
