<svg width="24" height="24" viewBox="0 0 24 24" fill="none" xmlns="http://www.w3.org/2000/svg">
<path fill-rule="evenodd" clip-rule="evenodd" d="M1.75 12C1.75 6.33908 6.33908 1.75 12 1.75C17.6609 1.75 22.25 6.33908 22.25 12C22.25 12.4971 21.8471 12.9 21.35 12.9C20.8529 12.9 20.45 12.4971 20.45 12C20.45 7.33319 16.6668 3.55 12 3.55C7.33319 3.55 3.55 7.33319 3.55 12C3.55 16.6668 7.33319 20.45 12 20.45C12.4971 20.45 12.9 20.8529 12.9 21.35C12.9 21.8471 12.4971 22.25 12 22.25C6.33908 22.25 1.75 17.6609 1.75 12ZM8.625 9.60174C8.625 8.14136 10.204 7.22695 11.4706 7.95376L15.6738 10.3656C16.9489 11.0972 16.9456 12.9378 15.6679 13.6649L11.4647 16.0567C10.1981 16.7775 8.625 15.8627 8.625 14.4054V9.60174ZM10.437 9.55116C10.4311 9.56102 10.425 9.57557 10.425 9.60174V14.4054C10.425 14.4314 10.4311 14.446 10.437 14.4559C10.4443 14.4681 10.4568 14.4814 10.4747 14.4918C10.4927 14.5022 10.5104 14.5065 10.5246 14.5068C10.5361 14.5071 10.5518 14.5052 10.5745 14.4923L14.7776 12.1004C14.8007 12.0873 14.8102 12.0747 14.8158 12.0648C14.8228 12.0523 14.8281 12.0347 14.8282 12.0137C14.8282 11.9927 14.8229 11.9751 14.816 11.9626C14.8105 11.9526 14.8009 11.94 14.778 11.9268L10.5748 9.515C10.5521 9.50198 10.5364 9.50004 10.5249 9.50027C10.5107 9.50054 10.4929 9.50478 10.4749 9.5152C10.4569 9.52562 10.4444 9.53895 10.437 9.55116ZM18.6143 14.6285C18.8085 14.171 19.3369 13.9575 19.7944 14.1517L21.3132 14.7964C21.7708 14.9907 21.9842 15.519 21.79 15.9766C21.5958 16.4341 21.0675 16.6476 20.6099 16.4534L19.0911 15.8087C18.6335 15.6144 18.4201 15.0861 18.6143 14.6285ZM17.0115 17.0358C17.363 16.6843 17.9328 16.6843 18.2843 17.0358L19.451 18.2025C19.8025 18.554 19.8025 19.1238 19.451 19.4753C19.0995 19.8268 18.5297 19.8268 18.1782 19.4753L17.0115 18.3086C16.66 17.9571 16.66 17.3873 17.0115 17.0358ZM14.6498 18.6197C15.1107 18.4335 15.6352 18.6562 15.8214 19.1171L16.4395 20.6469C16.6257 21.1078 16.403 21.6323 15.9422 21.8185C15.4813 22.0047 14.9568 21.7821 14.7706 21.3212L14.1525 19.7913C13.9663 19.3305 14.1889 18.8059 14.6498 18.6197Z" fill="black"/>
</svg>
