<svg width="24" height="24" viewBox="0 0 24 24" fill="none" xmlns="http://www.w3.org/2000/svg">
<path fill-rule="evenodd" clip-rule="evenodd" d="M9.32746 3.01697C9.67159 2.44785 10.2883 2.1001 10.9533 2.1001H13.0453C13.7104 2.1001 14.3271 2.44785 14.6712 3.01697L15.9982 5.21159H18.8221C19.4873 5.21159 20.104 5.55948 20.4481 6.12878L21.4575 7.79886C21.8226 8.40288 21.8228 9.1595 21.458 9.7637L20.1053 12.0041L21.451 14.2292C21.8167 14.8339 21.8166 15.5916 21.4507 16.1962L20.4363 17.8725C20.0921 18.4412 19.4756 18.7887 18.8108 18.7887H16.0081L14.6836 20.9823C14.3396 21.552 13.7226 21.9002 13.0571 21.9002H10.9425C10.277 21.9002 9.65997 21.552 9.31598 20.9823L7.99148 18.7887H5.18785C4.52302 18.7887 3.90655 18.4412 3.56234 17.8725L2.5479 16.1962C2.18202 15.5916 2.18191 14.8339 2.54761 14.2292L3.89376 12.0034L2.54153 9.7637C2.17674 9.1595 2.17692 8.40288 2.542 7.79886L3.55141 6.12878C3.8955 5.55948 4.51227 5.21159 5.17748 5.21159H8.00042L9.32746 3.01697ZM10.9533 3.9001C10.9183 3.9001 10.8859 3.9184 10.8678 3.94835L9.27811 6.57728C9.1151 6.84686 8.823 7.01159 8.50796 7.01159H5.17748C5.14246 7.01159 5.11 7.0299 5.09189 7.05986L4.08248 8.72994C4.06327 8.76173 4.06326 8.80155 4.08246 8.83335L5.71578 11.5386C5.88862 11.8249 5.88848 12.1834 5.71543 12.4695L4.08784 15.1607C4.0686 15.1925 4.0686 15.2324 4.08786 15.2642L5.10229 16.9405C5.12041 16.9704 5.15285 16.9887 5.18785 16.9887H8.49939C8.81463 16.9887 9.10689 17.1537 9.26983 17.4235L10.8569 20.0519C10.875 20.0819 10.9074 20.1002 10.9425 20.1002H13.0571C13.0921 20.1002 13.1246 20.0819 13.1427 20.0519L14.7297 17.4235C14.8926 17.1537 15.1849 16.9887 15.5002 16.9887H18.8108C18.8458 16.9887 18.8782 16.9704 18.8964 16.9405L19.9108 15.2642C19.93 15.2324 19.93 15.1925 19.9108 15.1607L18.2837 12.4703C18.1106 12.1841 18.1105 11.8256 18.2833 11.5393L19.9171 8.83335C19.9363 8.80155 19.9363 8.76173 19.9171 8.72994L18.9076 7.05986C18.8895 7.0299 18.8571 7.01159 18.8221 7.01159H15.4907C15.1757 7.01159 14.8835 6.84686 14.7205 6.57728L13.1309 3.94835C13.1128 3.9184 13.0803 3.9001 13.0453 3.9001H10.9533ZM7.84977 11.9999C7.84977 9.70446 9.70438 7.84985 11.9998 7.84985C14.2952 7.84985 16.1498 9.70446 16.1498 11.9999C16.1498 14.2952 14.2952 16.1499 11.9998 16.1499C9.70438 16.1499 7.84977 14.2952 7.84977 11.9999ZM11.9998 9.64985C10.6985 9.64985 9.64977 10.6986 9.64977 11.9999C9.64977 13.3011 10.6985 14.3499 11.9998 14.3499C13.301 14.3499 14.3498 13.3011 14.3498 11.9999C14.3498 10.6986 13.301 9.64985 11.9998 9.64985Z" fill="black"/>
</svg>
