<svg width="24" height="24" viewBox="0 0 24 24" fill="none" xmlns="http://www.w3.org/2000/svg">
<path d="M21.543 21.7009C21.543 21.9771 21.3191 22.2009 21.043 22.2009H3.04297C2.76683 22.2009 2.54297 21.9771 2.54297 21.7009V20.7781C2.54297 20.5019 2.76683 20.2781 3.04297 20.2781H21.043C21.3191 20.2781 21.543 20.5019 21.543 20.7781V21.7009Z" fill="black"/>
<path d="M12.0381 2.19995C14.3515 2.19999 16.2273 3.94602 16.2275 6.09937C16.2275 6.48728 16.1651 6.86194 16.0518 7.21558L14.6191 14.0818C14.5468 14.4289 14.8484 14.7417 15.1992 14.6902C15.9825 14.5751 17.2632 14.4167 18.377 14.4167C20.1255 14.4169 21.5427 15.4958 21.543 16.8259V18.0486C21.543 18.3247 21.3191 18.5485 21.043 18.5486H3.04297C2.76683 18.5486 2.54297 18.3247 2.54297 18.0486V16.8259C2.54326 15.4957 3.96122 14.4168 5.70996 14.4167C6.82053 14.4168 8.09813 14.5824 8.88281 14.7029C9.23545 14.757 9.54036 14.4416 9.4668 14.0925L7.99219 7.11011C7.89952 6.7878 7.84864 6.44888 7.84863 6.09937C7.84887 3.94611 9.72478 2.20014 12.0381 2.19995Z" fill="black"/>
</svg>
