<svg width="24" height="24" viewBox="0 0 24 24" fill="none" xmlns="http://www.w3.org/2000/svg">
<path d="M18.0071 6.65885C17.8826 6.59365 17.7613 6.52247 17.6436 6.44507C17.3017 6.21661 16.9884 5.94733 16.7103 5.64322C16.0143 4.83788 15.7544 4.02084 15.6586 3.44894H15.6625C15.5826 2.9741 15.6155 2.66699 15.6207 2.66699H12.4504V15.0629C12.4504 15.2294 12.4504 15.3939 12.4435 15.5564C12.4435 15.5766 12.4415 15.5952 12.4405 15.6171C12.4405 15.6261 12.4405 15.6353 12.4386 15.6448V15.6517C12.3706 16.5549 11.8629 17.3647 11.0841 17.8122C10.6844 18.0421 10.2323 18.1628 9.7723 18.1621C8.29506 18.1621 7.09791 16.9441 7.09791 15.4399C7.09791 13.9358 8.29506 12.7178 9.7723 12.7178C10.0519 12.7176 10.3298 12.7621 10.5956 12.8497L10.5995 9.58555C8.96796 9.37252 7.32237 9.85906 6.06148 10.9279C5.51508 11.408 5.05557 11.9809 4.70386 12.6208C4.56996 12.8542 4.06516 13.7917 4.00388 15.3133C3.96548 16.1768 4.22194 17.0718 4.34427 17.4416V17.4493C4.42106 17.6671 4.71912 18.4102 5.20496 19.0366C5.59655 19.5391 6.05926 19.9806 6.57834 20.3466V20.3389L6.58597 20.3466C8.1208 21.4011 9.82251 21.3319 9.82251 21.3319C10.1171 21.32 11.1038 21.3319 12.2244 20.7949C13.4674 20.1996 14.175 19.3126 14.175 19.3126C14.6271 18.7825 14.9864 18.1787 15.238 17.5265C15.525 16.7639 15.6207 15.8493 15.6207 15.4837V8.90763C15.6591 8.93102 16.1715 9.27347 16.1715 9.27347C16.1715 9.27347 16.9094 9.75179 18.061 10.0631C18.887 10.2849 20 10.3314 20 10.3314V7.14912C19.6101 7.19193 18.8176 7.06749 18.0071 6.65885Z" fill="black"/>
</svg>
