<svg width="24" height="24" viewBox="0 0 24 24" fill="none" xmlns="http://www.w3.org/2000/svg">
<path d="M12.4364 1.00884C6.36569 0.767545 1.24914 5.49299 1.00884 11.5637C0.767544 17.6344 5.494 22.7499 11.5637 22.9912C17.6344 23.2325 22.7499 18.5071 22.9912 12.4364C23.2315 6.36569 18.5061 1.24914 12.4364 1.00884ZM17.0794 17.1236C16.9427 17.3649 16.6762 17.4856 16.4168 17.4494C16.3374 17.4383 16.258 17.4122 16.1836 17.37C14.7297 16.5425 13.1452 16.0036 11.4742 15.7683C9.8032 15.5331 8.1312 15.6145 6.50545 16.0096C6.15254 16.0951 5.79763 15.8789 5.71217 15.526C5.62671 15.1731 5.84288 14.8182 6.19578 14.7328C7.9834 14.2984 9.8213 14.2089 11.6572 14.4673C13.4931 14.7257 15.2345 15.3179 16.8341 16.2278C17.1488 16.4078 17.2594 16.8079 17.0804 17.1236H17.0794ZM18.5252 14.2361C18.301 14.6503 17.7822 14.8051 17.3679 14.5809C15.6668 13.661 13.8249 13.0567 11.8935 12.7853C9.96206 12.5138 8.02563 12.5872 6.13646 13.0024C6.03391 13.0246 5.93236 13.0286 5.83383 13.0145C5.49098 12.9662 5.1974 12.7109 5.11898 12.3519C5.01743 11.8915 5.309 11.436 5.76948 11.3345C7.85773 10.875 9.99825 10.7935 12.1317 11.0932C14.2642 11.3928 16.3002 12.0604 18.1803 13.0778C18.5956 13.302 18.7494 13.8198 18.5252 14.2351V14.2361ZM20.1278 10.9805C19.9167 11.3867 19.4773 11.5969 19.049 11.5365C18.9334 11.5205 18.8198 11.4843 18.7102 11.428C16.7295 10.3974 14.596 9.71674 12.369 9.40406C10.142 9.09137 7.90297 9.15773 5.71519 9.60212C5.14612 9.71775 4.59214 9.34976 4.47652 8.7817C4.3609 8.21264 4.72888 7.65866 5.29694 7.54303C7.71999 7.05139 10.1973 6.97799 12.6616 7.32385C15.1259 7.66972 17.4866 8.42378 19.6804 9.56492C20.1952 9.83236 20.3952 10.4668 20.1278 10.9816V10.9805Z" fill="#1ED760"/>
</svg>
