<svg width="16" height="16" viewBox="0 0 16 16" fill="none" xmlns="http://www.w3.org/2000/svg">
<path d="M8.29073 0.672645C4.24362 0.511779 0.832595 3.66207 0.672399 7.70918C0.511534 11.7563 3.66249 15.1667 7.70894 15.3275C11.7561 15.4884 15.1664 12.3381 15.3273 8.29098C15.4875 4.24387 12.3372 0.83284 8.29073 0.672645ZM11.3861 11.4158C11.2949 11.5767 11.1173 11.6571 10.9444 11.633C10.8914 11.6256 10.8384 11.6082 10.7888 11.58C9.81963 11.0284 8.76328 10.6691 7.64928 10.5123C6.53529 10.3554 5.42062 10.4097 4.33679 10.6731C4.10152 10.7301 3.86492 10.586 3.80794 10.3507C3.75097 10.1155 3.89508 9.87886 4.13034 9.82189C5.32209 9.53233 6.54735 9.47267 7.77127 9.64493C8.99519 9.81719 10.1561 10.212 11.2225 10.8186C11.4323 10.9386 11.506 11.2053 11.3867 11.4158H11.3861ZM12.3499 9.49077C12.2004 9.76692 11.8546 9.87015 11.5784 9.72068C10.4443 9.10738 9.21638 8.70454 7.92879 8.52357C6.64119 8.34259 5.35024 8.39152 4.0908 8.66834C4.02243 8.68309 3.95473 8.68577 3.88904 8.67639C3.66048 8.64422 3.46476 8.47397 3.41248 8.23468C3.34478 7.92769 3.53916 7.62406 3.84615 7.55636C5.23831 7.25005 6.66532 7.19575 8.08764 7.39549C9.50929 7.59524 10.8666 8.0403 12.12 8.71862C12.3968 8.86809 12.4994 9.21328 12.3499 9.4901V9.49077ZM13.4183 7.32042C13.2776 7.59121 12.9847 7.7313 12.6991 7.69109C12.622 7.68036 12.5463 7.65623 12.4732 7.6187C11.1528 6.93166 9.73048 6.47789 8.24583 6.26943C6.76117 6.06098 5.26847 6.10522 3.80995 6.40148C3.43058 6.47856 3.06126 6.23324 2.98417 5.85453C2.90709 5.47516 3.15241 5.10584 3.53112 5.02876C5.14648 4.70099 6.79803 4.65206 8.44088 4.88264C10.0837 5.11321 11.6575 5.61592 13.1201 6.37668C13.4632 6.55497 13.5966 6.97791 13.4183 7.32109V7.32042Z" fill="white"/>
</svg>
