<svg width="24" height="24" viewBox="0 0 24 24" fill="none" xmlns="http://www.w3.org/2000/svg">
<path fill-rule="evenodd" clip-rule="evenodd" d="M12.8135 3.65957C13.7335 3.55878 14.5371 4.27965 14.5371 5.20546C14.5373 5.3898 14.6965 5.53415 14.8799 5.51601L21.5508 4.85585C22.3887 4.77327 22.9998 5.6314 22.6485 6.39687L19.9883 12.1947L21.6338 18.1566C21.8139 18.8091 21.3628 19.4662 20.6895 19.5326L12.4121 20.349C12.2545 20.3644 12.119 20.2413 12.0908 20.0853C11.9179 19.1275 11.0251 18.4313 10.0186 18.5414L2.75881 19.3197C1.89875 19.4119 1.17129 18.6895 1.25686 17.8285L2.44533 5.88027C2.50886 5.2413 3.01039 4.73347 3.64846 4.66347L12.8135 3.65957ZM8.82326 8.88027C8.45217 8.68047 7.51695 8.64683 6.39553 9.24453C6.33547 9.27638 6.30979 9.34954 6.33694 9.41054L6.79397 10.434C6.82219 10.4967 6.89581 10.5284 6.96194 10.5043C7.06138 10.4684 7.16146 10.4375 7.21877 10.432C7.30516 10.4234 7.43452 10.4216 7.51858 10.5004C7.6256 10.601 7.6134 10.7909 7.60354 10.8656L7.29983 12.7006C7.09181 14.2049 7.53878 15.2494 8.89065 15.2494C8.89778 15.2497 10.1238 15.2999 10.9024 14.1967C10.9211 14.1699 10.9612 14.1752 10.9717 14.2055C11.1731 14.8217 11.7049 15.2494 12.6787 15.2494C14.1367 15.2494 15.5152 14.5085 16.1035 12.4027C16.1109 12.3772 16.1426 12.3665 16.1631 12.3842C16.3218 12.5194 16.6374 12.727 16.8975 12.8363C16.9679 12.8659 17.0483 12.8298 17.0723 12.7592C17.1671 12.4782 17.396 11.8034 17.4805 11.5365C17.4976 11.4822 17.4742 11.4258 17.4258 11.3939C16.5173 10.7979 16.3275 9.52077 16.3096 9.1166C16.3068 9.04874 16.2497 8.9955 16.1797 8.9955H14.7363C14.6618 8.99505 14.6034 9.05468 14.6065 9.12734C14.6515 10.0619 14.4561 11.3129 14.4561 11.3129C14.1801 13.2186 13.421 13.5607 13.0049 13.5609C12.641 13.5609 12.5237 13.2316 12.6406 12.3344L13.0283 9.1371C13.0373 9.06241 12.9764 8.99648 12.8985 8.99648H11.336C11.2707 8.99654 11.2155 9.0435 11.2071 9.10585L10.9053 11.3246C10.8734 11.5722 10.8013 11.8181 10.7295 12.058C10.3708 13.254 9.75148 13.5609 9.46975 13.5609C8.98874 13.5607 8.98762 13.1047 9.10451 12.2582L9.41408 10.3656C9.57843 9.3318 8.96272 8.95223 8.82326 8.88027Z" fill="black"/>
</svg>
