<svg width="24" height="24" viewBox="0 0 24 24" fill="none" xmlns="http://www.w3.org/2000/svg">
<path fill-rule="evenodd" clip-rule="evenodd" d="M14.3821 2.99937C14.3821 2.50231 14.785 2.09937 15.2821 2.09937H15.3732C18.0794 2.09937 20.2732 4.29317 20.2732 6.99936V7.23699C20.2732 7.73404 19.8702 8.13699 19.3732 8.13699C18.8761 8.13699 18.4732 7.73404 18.4732 7.23699V6.99936C18.4732 5.28728 17.0853 3.89937 15.3732 3.89937H15.2821C14.785 3.89937 14.3821 3.49642 14.3821 2.99937ZM6.55398 7.6818C6.55398 6.18059 7.77095 4.96362 9.27216 4.96362H14.7267C16.2279 4.96362 17.4449 6.1806 17.4449 7.68181V16.3182C17.4449 17.8194 16.2279 19.0364 14.7267 19.0364H9.27216C7.77095 19.0364 6.55398 17.8194 6.55398 16.3182V7.6818ZM9.27216 6.76362C8.76506 6.76362 8.35398 7.17471 8.35398 7.6818V16.3182C8.35398 16.8253 8.76506 17.2364 9.27216 17.2364H14.7267C15.2338 17.2364 15.6449 16.8253 15.6449 16.3182V7.68181C15.6449 7.17471 15.2338 6.76362 14.7267 6.76362H9.27216ZM10.2669 15.1407C10.2669 14.6437 10.6698 14.2407 11.1669 14.2407H12.8335C13.3306 14.2407 13.7335 14.6437 13.7335 15.1407C13.7335 15.6378 13.3306 16.0407 12.8335 16.0407H11.1669C10.6698 16.0407 10.2669 15.6378 10.2669 15.1407ZM4.44199 15.8542C4.93905 15.8542 5.34199 16.2571 5.34199 16.7542V16.9918C5.34199 18.7039 6.72991 20.0918 8.44199 20.0918H8.53308C9.03014 20.0918 9.43308 20.4947 9.43308 20.9918C9.43308 21.4889 9.03014 21.8918 8.53308 21.8918H8.44199C5.7358 21.8918 3.54199 19.698 3.54199 16.9918V16.7542C3.54199 16.2571 3.94494 15.8542 4.44199 15.8542Z" fill="black"/>
</svg>
