<svg width="24" height="24" viewBox="0 0 24 24" fill="none" xmlns="http://www.w3.org/2000/svg">
<path d="M10.2023 19.6377C6.47818 20.0051 3.26172 18.3217 3.01956 15.8752C2.77741 13.4302 5.60142 11.149 9.32724 10.7816C13.0531 10.4125 16.2679 12.0976 16.51 14.5408C16.7522 16.9874 13.9282 19.2687 10.2023 19.6361M17.6523 11.5181C17.335 11.4229 17.1179 11.3577 17.2832 10.9419C17.6423 10.0384 17.679 9.25853 17.2899 8.70241C16.5601 7.65864 14.5611 7.71543 12.2698 8.67402C12.2698 8.67402 11.55 8.98965 11.7337 8.41851C12.0861 7.28623 12.0327 6.33766 11.4849 5.78989C10.2424 4.54572 6.93744 5.83665 4.10341 8.67068C1.98248 10.7916 0.75 13.0428 0.75 14.9867C0.75 18.7075 5.52126 20.9704 10.189 20.9704C16.3079 20.9704 20.3795 17.4149 20.3795 14.5926C20.3795 12.8875 18.9432 11.9189 17.6523 11.5181Z" fill="black"/>
<path d="M21.7155 4.70938C20.2392 3.07109 18.0581 2.4465 16.0458 2.87403C15.5798 2.97256 15.2842 3.43181 15.3844 3.89608C15.483 4.36035 15.9405 4.65761 16.4065 4.55908C17.8377 4.25514 19.3858 4.70103 20.4379 5.86337C21.4867 7.02738 21.7723 8.6139 21.323 10.005C21.1761 10.4593 21.4249 10.9436 21.8775 11.0905C22.3301 11.2375 22.816 10.9887 22.9613 10.5378V10.5344C23.5926 8.57716 23.1935 6.34601 21.7155 4.70938Z" fill="black"/>
<path d="M19.4459 6.75683C18.7261 5.95856 17.6657 5.65629 16.6837 5.86504C16.2829 5.95021 16.0274 6.34434 16.1142 6.74514C16.1994 7.14428 16.5935 7.40146 16.9943 7.31462C17.4736 7.21442 17.993 7.36138 18.3454 7.7505C18.6978 8.14128 18.7913 8.67235 18.641 9.13829C18.5157 9.5274 18.7278 9.94658 19.1186 10.0718C19.5094 10.1971 19.9269 9.98332 20.0521 9.5942C20.3611 8.64062 20.1674 7.55343 19.4476 6.75516" fill="black"/>
<path d="M10.4078 15.2072C10.2775 15.4309 9.98857 15.5378 9.76312 15.4443C9.54101 15.3524 9.47087 15.1036 9.59779 14.8848C9.72805 14.6677 10.0053 14.5609 10.2257 14.6477C10.4512 14.7295 10.5313 14.9817 10.4078 15.2072ZM9.22036 16.7319C8.85964 17.3064 8.08809 17.5585 7.50692 17.293C6.9341 17.0325 6.76543 16.3645 7.12615 15.8034C7.48187 15.2456 8.2267 14.9967 8.80453 15.2389C9.38736 15.4877 9.57441 16.1507 9.22036 16.7319ZM10.5748 12.6637C8.80286 12.2028 6.79883 13.0862 6.02895 14.6477C5.24571 16.2409 6.0039 18.0095 7.79416 18.5873C9.64956 19.1852 11.8356 18.2683 12.5955 16.5499C13.3453 14.8681 12.4084 13.138 10.5748 12.6637Z" fill="black"/>
</svg>
