<svg width="24" height="24" viewBox="0 0 24 24" fill="none" xmlns="http://www.w3.org/2000/svg">
<path fill-rule="evenodd" clip-rule="evenodd" d="M4.64126 6.59506C6.47583 5.16486 9.04259 4.09985 11.9996 4.09985C14.9785 4.09985 17.5459 5.1553 19.377 6.58404C21.1648 7.97901 22.3996 9.85913 22.3996 11.5899C22.3996 13.3243 21.148 15.2044 19.357 16.5967C17.5214 18.0236 14.9548 19.0799 11.9996 19.0799C9.04259 19.0799 6.47583 18.0148 4.64126 16.5846C2.85266 15.1903 1.59961 13.3104 1.59961 11.5899C1.59961 9.86931 2.85266 7.98943 4.64126 6.59506ZM5.74796 8.01465C4.15656 9.25528 3.39961 10.6704 3.39961 11.5899C3.39961 12.5093 4.15656 13.9244 5.74796 15.1651C7.29339 16.3699 9.47662 17.2799 11.9996 17.2799C14.5244 17.2799 16.7078 16.3762 18.2522 15.1755C19.8413 13.9403 20.5996 12.5254 20.5996 11.5899C20.5996 10.6506 19.8494 9.2357 18.2697 8.00317C16.7333 6.80441 14.5507 5.89985 11.9996 5.89985C9.47662 5.89985 7.29339 6.80985 5.74796 8.01465ZM11.9996 8.98985C10.5667 8.98985 9.39961 10.1569 9.39961 11.5899C9.39961 13.0228 10.5667 14.1899 11.9996 14.1899C13.4326 14.1899 14.5996 13.0228 14.5996 11.5899C14.5996 10.1569 13.4326 8.98985 11.9996 8.98985ZM7.59961 11.5899C7.59961 9.1628 9.57255 7.18985 11.9996 7.18985C14.4267 7.18985 16.3996 9.1628 16.3996 11.5899C16.3996 14.0169 14.4267 15.9899 11.9996 15.9899C9.57255 15.9899 7.59961 14.0169 7.59961 11.5899Z" fill="black"/>
</svg>
