<svg width="24" height="24" viewBox="0 0 24 24" fill="none" xmlns="http://www.w3.org/2000/svg">
<path fill-rule="evenodd" clip-rule="evenodd" d="M13.0397 4.43456C13.0251 4.45736 13.0087 4.49566 13.0087 4.55923V8.39231C13.0087 8.63107 12.9138 8.86005 12.745 9.02884C12.5761 9.19764 12.3471 9.29241 12.1083 9.29231C9.16244 9.29103 6.85672 10.4208 5.2929 12.2566C3.99995 13.7745 3.17795 15.8196 2.96407 18.2013C5.67959 15.0204 9.77364 14.2541 12.2774 14.6988C12.707 14.7751 13.02 15.1486 13.02 15.5849V19.4406C13.02 19.5042 13.0364 19.5425 13.051 19.5653C13.0673 19.5909 13.0888 19.6084 13.1093 19.6183C13.1298 19.6281 13.1434 19.6277 13.1482 19.6271C13.1482 19.6271 13.1628 19.6268 13.1919 19.5992L21.0378 12.1591C21.0642 12.1339 21.0909 12.0861 21.0902 12.0127C21.0895 11.9396 21.0614 11.8764 21.0207 11.8353L13.1805 4.40059C13.1514 4.37301 13.1368 4.37275 13.1368 4.37275C13.1321 4.37209 13.1185 4.37173 13.0981 4.38154C13.0775 4.39139 13.056 4.40894 13.0397 4.43456ZM12.32 2.75837C12.9722 2.44575 13.8016 2.5089 14.4191 3.09444L22.2746 10.5437C23.0713 11.3203 23.1185 12.6652 22.2774 13.4642L14.4304 20.9054C13.8129 21.4909 12.9835 21.5541 12.3313 21.2415C11.6858 20.932 11.22 20.2633 11.22 19.4406V16.3894C8.87462 16.2736 5.37016 17.3233 3.45695 20.6077C3.3456 20.7989 3.18503 21.0018 2.96057 21.1489C2.73144 21.2991 2.36997 21.4254 1.96754 21.2909C1.57468 21.1596 1.36088 20.8518 1.25711 20.6083C1.15336 20.3649 1.11693 20.0985 1.11277 19.8453C1.0344 16.4202 2.01068 13.334 3.92264 11.0894C5.67618 9.03085 8.17185 7.73537 11.2087 7.52318V4.55923C11.2087 3.73653 11.6745 3.06781 12.32 2.75837Z" fill="black"/>
</svg>
