<svg width="24" height="24" viewBox="0 0 24 24" fill="none" xmlns="http://www.w3.org/2000/svg">
<path fill-rule="evenodd" clip-rule="evenodd" d="M11.0918 4.31781C7.69683 4.08041 4.7575 6.63138 4.52128 10.0094C4.28507 13.3874 6.84077 16.3226 10.2358 16.56C11.7949 16.6691 13.2566 16.1907 14.4064 15.3134C14.4948 15.246 14.5813 15.1762 14.6658 15.1042C15.8778 14.0717 16.6868 12.5768 16.8063 10.8684C17.0425 7.49043 14.4868 4.55522 11.0918 4.31781ZM2.72567 9.88383C3.03159 5.50897 6.83586 2.21581 11.2174 2.5222C15.5989 2.82859 18.9078 6.61915 18.6019 10.994C18.4702 12.8772 17.6891 14.5614 16.4938 15.8428L20.5619 20.4786C20.8897 20.8522 20.8526 21.4208 20.479 21.7486C20.1054 22.0765 19.5368 22.0394 19.209 21.6658L15.1254 17.0123C13.7027 17.9737 11.9571 18.4848 10.1102 18.3556C5.72867 18.0493 2.41975 14.2587 2.72567 9.88383Z" fill="black"/>
</svg>
