<svg width="24" height="24" viewBox="0 0 24 24" fill="none" xmlns="http://www.w3.org/2000/svg">
<path d="M12 4.12451C12.0009 4.12451 19.0361 4.12483 20.792 4.59521C21.7607 4.85452 22.5219 5.61579 22.7812 6.58447H22.7793C23.247 8.32836 23.25 11.9574 23.25 11.9995C23.25 11.9995 23.2497 15.6615 22.7793 17.4155C22.52 18.3842 21.7587 19.1455 20.79 19.4048C19.0357 19.8751 12.0009 19.8755 12 19.8755C12 19.8755 4.96441 19.8752 3.20996 19.4048C2.24129 19.1455 1.48001 18.3842 1.2207 17.4155C0.750255 15.6615 0.75 11.9995 0.75 11.9995C0.750016 11.9574 0.753045 8.32836 1.2207 6.58447C1.48001 5.61579 2.24128 4.85452 3.20996 4.59521C4.96431 4.12482 12 4.12451 12 4.12451ZM9.75 15.3745L15.5977 12.0005L9.75 8.62549V15.3745Z" fill="#FF0000"/>
</svg>
