<svg width="24" height="24" viewBox="0 0 24 24" fill="none" xmlns="http://www.w3.org/2000/svg">
<path d="M12 8.31414C12.8285 8.31414 13.4998 8.98569 13.5 9.81414C13.4999 10.3769 13.1899 10.8663 12.7314 11.1227C12.595 11.199 12.5081 11.3519 12.5459 11.5036L13.3418 14.6979C13.4202 15.0133 13.1815 15.319 12.8564 15.319H11.1426C10.8175 15.319 10.5788 15.0134 10.6572 14.6979L11.4531 11.5026C11.4908 11.3511 11.4038 11.1981 11.2676 11.1218C10.8098 10.8652 10.5001 10.3764 10.5 9.81414C10.5002 8.98569 11.1715 8.31415 12 8.31414Z" fill="black"/>
<path fill-rule="evenodd" clip-rule="evenodd" d="M11.2627 1.64824C11.7343 1.45126 12.2667 1.45122 12.7383 1.64824L19.5381 4.49004C20.242 4.78436 20.6999 5.46866 20.7002 6.22636V11.4119C20.7 16.4581 17.3914 20.9182 12.5342 22.4197C12.1867 22.5271 11.8143 22.5271 11.4668 22.4197C6.60945 20.9182 3.30003 16.4582 3.2998 11.4119V6.22636C3.30006 5.46855 3.75876 4.78429 4.46289 4.49004L11.2627 1.64824ZM11.9609 3.29375L5.16113 6.13457C5.12433 6.15001 5.10083 6.18675 5.10059 6.22636V11.4119C5.10081 15.676 7.89602 19.444 12 20.7137C16.1042 19.4441 18.9002 15.6761 18.9004 11.4119V6.22636C18.9001 6.18671 18.8757 6.14998 18.8389 6.13457L12.0391 3.29375C12.0143 3.28344 11.9857 3.28344 11.9609 3.29375Z" fill="black"/>
</svg>
