<svg width="24" height="24" viewBox="0 0 24 24" fill="none" xmlns="http://www.w3.org/2000/svg">
<path fill-rule="evenodd" clip-rule="evenodd" d="M4.3401 5.8877C4.67832 5.52346 5.24778 5.50236 5.61202 5.84059L11.9996 11.7719L18.3872 5.84059C18.7514 5.50237 19.3209 5.52346 19.6591 5.8877C19.9973 6.25194 19.9763 6.82139 19.612 7.15962L12.612 13.6596C12.2667 13.9803 11.7325 13.9803 11.3872 13.6596L4.38721 7.15962C4.02297 6.82139 4.00188 6.25194 4.3401 5.8877ZM4.3401 12.3877C4.67832 12.0235 5.24778 12.0024 5.61202 12.3406L11.9996 18.2719L18.3872 12.3406C18.7514 12.0024 19.3209 12.0235 19.6591 12.3877C19.9973 12.7519 19.9763 13.3214 19.612 13.6596L12.612 20.1596C12.2667 20.4803 11.7325 20.4803 11.3872 20.1596L4.38721 13.6596C4.02297 13.3214 4.00188 12.7519 4.3401 12.3877Z" fill="black"/>
</svg>
