<svg width="24" height="24" viewBox="0 0 24 24" fill="none" xmlns="http://www.w3.org/2000/svg">
<g clip-path="url(#clip0_71898_32524)">
<path d="M0 12C0 3.3601 3.3601 0 12 0C20.6399 0 24 3.3601 24 12C24 20.6399 20.6399 24 12 24C3.3601 24 0 20.6399 0 12Z" fill="#00CBD5"/>
<path d="M12.9736 5.3125C13.7113 5.23194 14.3553 5.80968 14.3555 6.55176C14.3555 6.6997 14.4836 6.81533 14.6309 6.80078L19.9805 6.27246C20.6526 6.20608 21.1431 6.894 20.8613 7.50781L18.7275 12.1562L20.0479 16.9365C20.1921 17.4595 19.83 17.9868 19.29 18.04L12.6514 18.6934C12.5249 18.7057 12.4162 18.6075 12.3936 18.4824C12.2547 17.7146 11.5387 17.1567 10.7314 17.2451L4.90918 17.8682C4.21935 17.9421 3.63544 17.3632 3.7041 16.6729L4.65723 7.09277C4.70835 6.58081 5.11066 6.17445 5.62207 6.11816L12.9736 5.3125ZM9.23438 9.3252C8.90156 9.14584 8.062 9.11499 7.05566 9.65137C7.00174 9.67997 6.97947 9.74603 7.00391 9.80078L7.41309 10.7188C7.4384 10.7751 7.5051 10.8039 7.56445 10.7822C7.65369 10.75 7.74357 10.7217 7.79492 10.7168C7.87244 10.7091 7.98818 10.7077 8.06348 10.7783C8.1595 10.8686 8.14849 11.0394 8.13965 11.1064L7.86719 12.752C7.68059 14.1014 8.08142 15.0388 9.29395 15.0391C9.29805 15.0392 10.4003 15.0848 11.0996 14.0938C11.1166 14.0703 11.1518 14.0756 11.1611 14.1025C11.3418 14.6553 11.8189 15.0389 12.6924 15.0391C14.0005 15.0391 15.2378 14.3747 15.7656 12.4854C15.7721 12.4622 15.8009 12.4529 15.8193 12.4688C15.9618 12.5901 16.2453 12.776 16.4785 12.874C16.5417 12.9004 16.6143 12.8679 16.6357 12.8047C16.7209 12.5523 16.9252 11.9473 17.001 11.708C17.0164 11.6593 16.9955 11.6087 16.9521 11.5801C16.1373 11.0455 15.9663 9.90007 15.9502 9.53711C15.9477 9.47623 15.8968 9.42871 15.834 9.42871H14.5391C14.4721 9.42831 14.4199 9.48154 14.4229 9.54688C14.4628 10.3749 14.2923 11.4796 14.2881 11.5068C14.0404 13.217 13.3586 13.5234 12.9854 13.5234C12.6589 13.5234 12.5543 13.2287 12.6592 12.4238L13.0068 9.55469C13.0146 9.48789 12.9603 9.42882 12.8906 9.42871H11.4883C11.4299 9.42877 11.3808 9.47065 11.373 9.52637L11.1016 11.5176C11.0729 11.7397 11.0087 11.9606 10.9443 12.1758C10.6226 13.2484 10.0673 13.5233 9.81445 13.5234C9.38264 13.5234 9.38143 13.1151 9.48633 12.3555L9.76367 10.6572C9.91095 9.73056 9.36012 9.39017 9.23438 9.3252Z" fill="white"/>
</g>
<defs>
<clipPath id="clip0_71898_32524">
<rect width="24" height="24" fill="white"/>
</clipPath>
</defs>
</svg>
