<svg width="24" height="24" viewBox="0 0 24 24" fill="none" xmlns="http://www.w3.org/2000/svg">
<path d="M8.96274 6.29639C9.31889 6.29639 9.64181 6.50687 9.78598 6.83252L15.0975 18.8384C15.2983 19.2928 15.0928 19.8238 14.6385 20.0249C14.184 20.226 13.6521 20.0205 13.451 19.5659L12.0877 16.4839H5.83872L4.47543 19.5659C4.27434 20.0205 3.7425 20.226 3.28793 20.0249C2.83365 19.8238 2.62814 19.2928 2.82895 18.8384L8.14047 6.83252L8.202 6.71631C8.36508 6.45782 8.65111 6.29654 8.96274 6.29639ZM6.63559 14.6831H11.2909L8.96274 9.42041L6.63559 14.6831Z" fill="black"/>
<path d="M17.8786 4.09972C18.232 3.81156 18.7532 3.83204 19.0827 4.16125L20.9841 6.06261C21.3355 6.41402 21.3353 6.98359 20.9841 7.33507C20.6326 7.68655 20.0631 7.68654 19.7116 7.33507L19.3464 6.96984V11.7305L19.7116 11.3653C20.0631 11.0138 20.6326 11.0138 20.9841 11.3653C21.3354 11.7168 21.3355 12.2863 20.9841 12.6377L19.0827 14.5391C18.7312 14.8904 18.1617 14.8904 17.8102 14.5391L15.9108 12.6397C15.5597 12.2883 15.5596 11.7186 15.9108 11.3672C16.2623 11.0158 16.8328 11.0158 17.1843 11.3672L17.5466 11.7295V6.97082L17.1843 7.33312C16.8328 7.68459 16.2623 7.68459 15.9108 7.33312C15.5597 6.98169 15.5596 6.41205 15.9108 6.06066L17.8102 4.16125L17.8786 4.09972Z" fill="black"/>
</svg>
