<svg width="24" height="24" viewBox="0 0 24 24" fill="none" xmlns="http://www.w3.org/2000/svg">
<path d="M23 12.0011C23 5.92592 18.0746 1.00171 11.9994 1.00171C5.92421 1.00171 1 5.92592 1 12.0011C1 17.1597 4.55161 21.4887 9.34239 22.6768V15.3624H7.07405V12.0011H9.34239V10.5531C9.34239 6.80889 11.0364 5.07428 14.7121 5.07428C15.4095 5.07428 16.6115 5.21119 17.1035 5.3481V8.39499C16.8436 8.36714 16.3934 8.35438 15.833 8.35438C14.0287 8.35438 13.3326 9.03778 13.3326 10.8142V12.0034H16.926L16.3087 15.3648H13.3326V22.9228C18.7789 22.2649 23 17.6273 23 12.0034V12.0011Z" fill="#0866FF"/>
<path d="M16.3079 15.3625L16.9251 12.0012H13.3318V10.8119C13.3318 9.03553 14.0291 8.35212 15.8322 8.35212C16.3926 8.35212 16.8428 8.36605 17.1027 8.39273V5.34585C16.6107 5.20893 15.4087 5.07202 14.7113 5.07202C11.0356 5.07202 9.34158 6.8078 9.34158 10.5508V11.9989H7.07324V15.3602H9.34158V22.6746C10.1921 22.8857 11.082 22.9983 11.9986 22.9983C12.45 22.9983 12.8943 22.9704 13.3318 22.9182V15.3602H16.3079V15.3625Z" fill="white"/>
</svg>
