<svg width="24" height="24" viewBox="0 0 24 24" fill="none" xmlns="http://www.w3.org/2000/svg">
<path d="M8.16064 0.934814C7.33222 0.934814 6.66064 1.60639 6.66064 2.43481C6.66064 3.26324 7.33222 3.93481 8.16064 3.93481H15.8394C16.6678 3.93481 17.3394 3.26324 17.3394 2.43481C17.3394 1.60639 16.6678 0.934814 15.8394 0.934814H8.16064Z" fill="black"/>
<path d="M7.84629 16.7479C7.84629 16.4498 8.08795 16.2081 8.38605 16.2081C8.68415 16.2081 8.92581 16.4498 8.92581 16.7479C8.92581 17.046 8.68415 17.2876 8.38605 17.2876C8.08795 17.2876 7.84629 17.046 7.84629 16.7479Z" fill="black"/>
<path fill-rule="evenodd" clip-rule="evenodd" d="M18.7769 2.43481H18.3324C18.3324 3.81701 17.2119 4.9375 15.8297 4.9375H8.17104C6.78885 4.9375 5.66836 3.81701 5.66836 2.43481H5.22392C3.66453 2.43481 2.40039 3.69895 2.40039 5.25834V19.9407C2.40039 21.5001 3.66453 22.7642 5.22392 22.7642H18.7769C20.3363 22.7642 21.6004 21.5001 21.6004 19.9407V5.25834C21.6004 3.69895 20.3363 2.43481 18.7769 2.43481ZM11.2106 8.07991C11.5621 8.43138 11.5621 9.00123 11.2106 9.35271L8.52897 12.0344C8.17755 12.3858 7.6078 12.3858 7.25631 12.0345L6.02779 10.8065C5.67625 10.4551 5.67614 9.8852 6.02754 9.53366C6.37894 9.18212 6.94879 9.18201 7.30033 9.53341L7.89245 10.1253L9.93783 8.07991C10.2893 7.72844 10.8592 7.72844 11.2106 8.07991ZM13.3828 9.496C12.8858 9.496 12.4828 9.89894 12.4828 10.396C12.4828 10.8931 12.8858 11.296 13.3828 11.296H17.335C17.832 11.296 18.235 10.8931 18.235 10.396C18.235 9.89894 17.832 9.496 17.335 9.496H13.3828ZM12.4828 16.7478C12.4828 16.2507 12.8858 15.8478 13.3828 15.8478H17.335C17.832 15.8478 18.235 16.2507 18.235 16.7478C18.235 17.2449 17.832 17.6478 17.335 17.6478H13.3828C12.8858 17.6478 12.4828 17.2449 12.4828 16.7478ZM8.38605 14.4081C7.09383 14.4081 6.04629 15.4557 6.04629 16.7479C6.04629 18.0401 7.09383 19.0876 8.38605 19.0876C9.67826 19.0876 10.7258 18.0401 10.7258 16.7479C10.7258 15.4557 9.67826 14.4081 8.38605 14.4081Z" fill="black"/>
</svg>
