<svg width="24" height="24" viewBox="0 0 24 24" fill="none" xmlns="http://www.w3.org/2000/svg">
<path fill-rule="evenodd" clip-rule="evenodd" d="M19.4996 4.1001L4.49961 4.10011C2.89798 4.10011 1.59961 5.39848 1.59961 7.00011V17.0001C1.59961 18.6017 2.89798 19.9001 4.49961 19.9001H19.4996C21.1012 19.9001 22.3996 18.6017 22.3996 17.0001V7.0001C22.3996 5.39847 21.1012 4.1001 19.4996 4.1001ZM4.99951 10.2379C4.99951 9.68563 5.44723 9.23792 5.99951 9.23792H12.4995C13.0518 9.23792 13.4995 9.68563 13.4995 10.2379C13.4995 10.7902 13.0518 11.2379 12.4995 11.2379H5.99951C5.44723 11.2379 4.99951 10.7902 4.99951 10.2379ZM11.4995 12.7623C10.9472 12.7623 10.4995 13.21 10.4995 13.7623C10.4995 14.3146 10.9472 14.7623 11.4995 14.7623H17.9995C18.5518 14.7623 18.9995 14.3146 18.9995 13.7623C18.9995 13.21 18.5518 12.7623 17.9995 12.7623H11.4995ZM14.7268 10.2379C14.7268 9.68563 15.1745 9.23792 15.7268 9.23792H17.9995C18.5518 9.23792 18.9995 9.68563 18.9995 10.2379C18.9995 10.7902 18.5518 11.2379 17.9995 11.2379H15.7268C15.1745 11.2379 14.7268 10.7902 14.7268 10.2379ZM5.99951 12.7623C5.44723 12.7623 4.99951 13.21 4.99951 13.7623C4.99951 14.3146 5.44723 14.7623 5.99951 14.7623H8.27224C8.82452 14.7623 9.27224 14.3146 9.27224 13.7623C9.27224 13.21 8.82452 12.7623 8.27224 12.7623H5.99951Z" fill="black"/>
</svg>
