<svg width="24" height="24" viewBox="0 0 24 24" fill="none" xmlns="http://www.w3.org/2000/svg">
<g clip-path="url(#clip0_26746_7353)">
<path d="M0 12C0 3.3601 3.3601 0 12 0C20.6399 0 24 3.3601 24 12C24 20.6399 20.6399 24 12 24C3.3601 24 0 20.6399 0 12Z" fill="#777777"/>
<path d="M12.0938 3.99878C13.8605 3.99878 15.307 5.35074 15.4316 7.06421C15.4357 7.11972 15.4814 7.1638 15.5371 7.16382H18.2588C18.5623 7.16382 18.8086 7.41013 18.8086 7.71362V15.6814C18.8086 17.3777 17.4336 18.7525 15.7373 18.7527H8.44141C6.74515 18.7525 5.37013 17.3777 5.37012 15.6814V7.71362C5.37012 7.41013 5.61643 7.16382 5.91992 7.16382H8.65039C8.70606 7.1638 8.75179 7.11972 8.75586 7.06421C8.88048 5.35077 10.327 3.99884 12.0938 3.99878ZM9.69434 10.3826C9.40892 10.2287 8.68927 10.2028 7.82617 10.6628C7.77993 10.6874 7.7603 10.7438 7.78125 10.7908L8.13281 11.5779C8.15456 11.6261 8.21183 11.6501 8.2627 11.6316C8.3391 11.604 8.41599 11.5801 8.45996 11.5759C8.5264 11.5693 8.6258 11.5682 8.69043 11.6287C8.77278 11.7061 8.76345 11.8524 8.75586 11.9099L8.52246 13.322C8.36249 14.4793 8.70604 15.283 9.74609 15.283C9.75606 15.2834 10.6963 15.3194 11.2939 14.4724C11.3084 14.4519 11.3397 14.4568 11.3477 14.4802C11.5028 14.954 11.9113 15.2829 12.6602 15.283C13.7819 15.283 14.8422 14.7128 15.2949 13.0925C15.3005 13.0727 15.326 13.0643 15.3418 13.0779C15.4639 13.1819 15.7062 13.3424 15.9062 13.4265C15.9604 13.4493 16.0225 13.4212 16.041 13.3669C16.114 13.1508 16.2894 12.6319 16.3545 12.4265C16.3679 12.3845 16.3501 12.3407 16.3125 12.3162C15.6136 11.8576 15.4679 10.8752 15.4541 10.5642C15.4519 10.512 15.4083 10.4714 15.3545 10.4714H14.2432C14.1859 10.4713 14.141 10.5171 14.1436 10.573C14.1778 11.2839 14.0316 12.2323 14.0283 12.2537C13.8159 13.7205 13.2312 13.9832 12.9111 13.9832C12.6312 13.9831 12.5409 13.73 12.6309 13.0398L12.9297 10.5798C12.9365 10.5224 12.89 10.4715 12.8301 10.4714H11.6279C11.5778 10.4714 11.5349 10.5075 11.5283 10.5554L11.2959 12.2634C11.2713 12.454 11.2164 12.6433 11.1611 12.8279C10.8851 13.7479 10.4082 13.9832 10.1914 13.9832C9.82152 13.9829 9.82121 13.6324 9.91113 12.9812L10.1484 11.5251C10.2749 10.7297 9.80165 10.4379 9.69434 10.3826ZM12.0938 5.36401C11.0951 5.36407 10.2725 6.09991 10.1475 7.05249C10.1396 7.11221 10.1869 7.16357 10.2471 7.16382H13.9404C14.0006 7.16357 14.0479 7.11221 14.04 7.05249C13.915 6.09987 13.0924 5.36401 12.0938 5.36401Z" fill="white"/>
</g>
<defs>
<clipPath id="clip0_26746_7353">
<rect width="24" height="24" fill="white"/>
</clipPath>
</defs>
</svg>
