<svg width="16" height="16" viewBox="0 0 16 16" fill="none" xmlns="http://www.w3.org/2000/svg">
<path d="M8.29076 0.672645C4.24363 0.511778 0.832595 3.66208 0.672399 7.70921C0.511533 11.7563 3.6625 15.1667 7.70896 15.3276C11.7561 15.4884 15.1665 12.3381 15.3273 8.29101C15.4875 4.24388 12.3372 0.832841 8.29076 0.672645ZM11.3861 11.4158C11.2949 11.5767 11.1173 11.6571 10.9444 11.633C10.8914 11.6256 10.8385 11.6082 10.7889 11.5801C9.81966 11.0284 8.76331 10.6691 7.64931 10.5123C6.53531 10.3555 5.42064 10.4097 4.3368 10.6732C4.10153 10.7301 3.86493 10.586 3.80795 10.3508C3.75098 10.1155 3.89509 9.87889 4.13036 9.82192C5.32211 9.53236 6.54737 9.4727 7.7713 9.64496C8.99522 9.81723 10.1561 10.212 11.2225 10.8186C11.4323 10.9386 11.5061 11.2054 11.3868 11.4158H11.3861ZM12.35 9.4908C12.2005 9.76695 11.8546 9.87018 11.5785 9.72071C10.4444 9.1074 9.21641 8.70457 7.92881 8.52359C6.64121 8.34262 5.35026 8.39155 4.09081 8.66837C4.02244 8.68312 3.95474 8.6858 3.88906 8.67642C3.66049 8.64424 3.46477 8.47399 3.41249 8.2347C3.34479 7.92772 3.53917 7.62408 3.84616 7.55638C5.23832 7.25007 6.66534 7.19577 8.08767 7.39552C9.50932 7.59526 10.8666 8.04032 12.12 8.71864C12.3969 8.86811 12.4994 9.21331 12.35 9.49013V9.4908ZM13.4184 7.32045C13.2776 7.59124 12.9847 7.73133 12.6992 7.69111C12.6221 7.68038 12.5463 7.65625 12.4733 7.61872C11.1528 6.93169 9.73051 6.47791 8.24585 6.26945C6.76119 6.061 5.26848 6.10523 3.80996 6.4015C3.43059 6.47858 3.06126 6.23326 2.98418 5.85455C2.9071 5.47518 3.15242 5.10585 3.53113 5.02877C5.14649 4.70101 6.79805 4.65208 8.4409 4.88265C10.0837 5.11323 11.6576 5.61593 13.1201 6.3767C13.4633 6.55499 13.5967 6.97793 13.4184 7.32112V7.32045Z" fill="#1ED760"/>
</svg>
