<svg width="24" height="24" viewBox="0 0 24 24" fill="none" xmlns="http://www.w3.org/2000/svg">
<path fill-rule="evenodd" clip-rule="evenodd" d="M21.9998 12.2287C21.9998 11.5158 21.9348 10.8304 21.8142 10.1724H12.2041V14.061H17.6956C17.4591 15.3177 16.7402 16.3824 15.6595 17.0952V19.6176H18.9572C20.8866 17.8675 21.9998 15.2902 21.9998 12.2287Z" fill="#4285F4"/>
<path fill-rule="evenodd" clip-rule="evenodd" d="M12.2039 22.0528C14.959 22.0528 17.2687 21.1526 18.957 19.6173L15.6593 17.0949C14.7456 17.6981 13.5768 18.0545 12.2039 18.0545C9.54631 18.0545 7.29683 16.2861 6.49445 13.9099H3.08545V16.5145C4.76444 19.8 8.21518 22.0528 12.2039 22.0528Z" fill="#34A853"/>
<path fill-rule="evenodd" clip-rule="evenodd" d="M6.49431 13.9099C6.29023 13.3067 6.17428 12.6624 6.17428 11.9998C6.17428 11.3372 6.29023 10.6929 6.49431 10.0897V7.48511H3.08531C2.39424 8.84226 2 10.3776 2 11.9998C2 13.622 2.39424 15.1574 3.08531 16.5145L6.49431 13.9099Z" fill="#FBBC05"/>
<path fill-rule="evenodd" clip-rule="evenodd" d="M12.2039 5.94561C13.702 5.94561 15.0471 6.45283 16.1046 7.44899L19.0312 4.56561C17.2641 2.94342 14.9543 1.94727 12.2039 1.94727C8.21518 1.94727 4.76444 4.20005 3.08545 7.48554L6.49445 10.0902C7.29684 7.71402 9.54631 5.94561 12.2039 5.94561Z" fill="#EA4335"/>
</svg>
