<svg width="24" height="24" viewBox="0 0 24 24" fill="none" xmlns="http://www.w3.org/2000/svg">
<path d="M9.10474 3.11956C9.28286 2.56897 9.63695 2.03576 10.2065 1.93327C11.3542 1.72673 12.5401 1.71488 13.7113 1.9119C14.2902 2.00928 14.6503 2.55183 14.8292 3.11086C15.0473 3.7923 15.5098 4.3979 16.1783 4.78382C16.8468 5.16982 17.6027 5.26756 18.302 5.11559C18.8756 4.99094 19.5256 5.03145 19.8994 5.484C20.6557 6.39961 21.2385 7.43237 21.6336 8.52942C21.8298 9.07409 21.5448 9.64759 21.1568 10.0772C20.6792 10.6061 20.3884 11.3069 20.3884 12.0756C20.3884 12.8304 20.6688 13.5198 21.1312 14.0451C21.5141 14.4803 21.7919 15.0583 21.5872 15.6006C21.3929 16.1156 21.1542 16.6216 20.8701 17.1138C20.5485 17.6707 20.1825 18.1859 19.7792 18.6575C19.4129 19.0858 18.7944 19.1318 18.2414 19.0234C17.5591 18.8897 16.8272 18.9927 16.1778 19.3676C15.5412 19.7352 15.0914 20.3019 14.8616 20.9437C14.6718 21.4735 14.3163 21.9805 13.7618 22.0771C12.5798 22.2829 11.3583 22.2824 10.1549 22.0601C9.60955 21.9594 9.26076 21.4606 9.07282 20.9388C8.84244 20.2991 8.39332 19.7344 7.75845 19.3679C7.12367 19.0014 6.41017 18.8948 5.74113 19.015C5.19526 19.1131 4.58885 19.0604 4.22897 18.6384C3.4345 17.7068 2.8232 16.6486 2.41052 15.5214C2.21714 14.9931 2.47823 14.4321 2.84193 14.003C3.28252 13.4832 3.54824 12.8105 3.54824 12.0757C3.54824 11.3262 3.27185 10.6414 2.81543 10.1175C2.44548 9.6928 2.17646 9.13443 2.36408 8.60339C2.57086 8.0181 2.8341 7.44341 3.1557 6.8864C3.43998 6.394 3.75903 5.93419 4.10795 5.50827C4.47511 5.06007 5.11431 5.01149 5.6824 5.12533C6.36829 5.26277 7.10511 5.16086 7.75853 4.78361C8.42406 4.39937 8.88547 3.79737 9.10474 3.11956Z" fill="url(#paint0_linear_33256_3989)"/>
<path fill-rule="evenodd" clip-rule="evenodd" d="M7.16309 12.0215C7.16309 9.34536 9.32461 7.18384 12.0008 7.18384C14.6769 7.18384 16.8385 9.34536 16.8385 12.0215C16.8385 14.6977 14.6769 16.8592 12.0008 16.8592C9.32461 16.8592 7.16309 14.6977 7.16309 12.0215ZM12.0008 8.49634C10.0495 8.49634 8.47559 10.0702 8.47559 12.0215C8.47559 13.9728 10.0495 15.5467 12.0008 15.5467C13.9521 15.5467 15.526 13.9728 15.526 12.0215C15.526 10.0702 13.9521 8.49634 12.0008 8.49634Z" fill="white"/>
<defs>
<linearGradient id="paint0_linear_33256_3989" x1="4.56211" y1="4.45036" x2="19.004" y2="19.9964" gradientUnits="userSpaceOnUse">
<stop stop-color="#B8B8B8"/>
<stop offset="1" stop-color="#6B6B6B"/>
</linearGradient>
</defs>
</svg>
