<svg width="24" height="24" viewBox="0 0 24 24" fill="none" xmlns="http://www.w3.org/2000/svg">
<path d="M17.7764 15.92C17.4822 15.9199 17.2434 15.682 17.2434 15.3888V5.33121C17.2434 5.038 17.4822 4.80018 17.7764 4.80007H20.3343C20.9509 4.80022 21.4507 5.29813 21.4508 5.91253V14.8075C21.4506 15.4218 20.9508 15.9198 20.3343 15.92H17.7764Z" fill="black"/>
<path d="M11.9739 22.2704C11.3181 22.7157 10.3646 22.6434 10.0068 22.4414C9.80244 22.326 9.61251 22.145 9.51272 21.9831C9.37958 21.7671 9.27355 21.5024 9.31065 21.0774L9.60486 17.939C9.66221 17.1486 9.52333 16.8518 9.14405 16.5128C8.62543 16.0493 7.94224 16.0016 7.15434 16.0014L4.55898 16.0014C3.24385 16.0013 2.27728 14.7897 2.62061 13.5473L2.61966 13.5464L4.47726 6.24294L4.47821 6.23915C4.71614 5.38788 5.51264 4.80008 6.41658 4.80005L14.9886 4.80007C15.3363 4.80043 15.6185 5.08123 15.6186 5.42778V14.9467C15.6186 15.5105 15.5343 16.0745 15.344 16.6102C15.0897 17.3255 14.7192 18.1208 14.3462 18.8141C13.8207 19.7908 13.7241 19.8885 13.2243 20.6931C12.9781 21.0894 12.7893 21.4067 12.5649 21.6872C12.3329 21.9771 12.0953 22.1877 11.9739 22.2704Z" fill="black"/>
</svg>
