<svg width="24" height="24" viewBox="0 0 24 24" fill="none" xmlns="http://www.w3.org/2000/svg">
<path d="M15.1973 9.99902C15.6943 9.99902 16.0977 10.4024 16.0977 10.8994V13.0996C16.0976 13.5966 15.6943 13.999 15.1973 13.999C14.7003 13.999 14.297 13.5966 14.2969 13.0996V10.8994C14.2969 10.4024 14.7002 9.99902 15.1973 9.99902Z" fill="black"/>
<path fill-rule="evenodd" clip-rule="evenodd" d="M20.75 4.09961C21.7991 4.09987 22.6504 4.95082 22.6504 6V10.0117C22.6504 10.2514 22.4795 10.4576 22.2441 10.5029L21.9209 10.5654C21.3307 10.6794 20.8232 11.2478 20.8232 12L20.8291 12.1387C20.887 12.8208 21.3672 13.3267 21.9209 13.4336L22.2441 13.4961C22.4795 13.5415 22.6504 13.7477 22.6504 13.9873V18C22.6504 19.0492 21.7991 19.9001 20.75 19.9004H6.25C3.5438 19.9004 1.34863 17.7062 1.34863 15V6C1.34863 4.95066 2.20066 4.09961 3.25 4.09961H20.75ZM3.25 5.90039C3.19477 5.90039 3.15039 5.94477 3.15039 6V15L3.1543 15.1592C3.23717 16.7973 4.59132 18.0996 6.25 18.0996H14.2969V16.2998C14.2969 15.8027 14.7002 15.3994 15.1973 15.3994C15.6943 15.3994 16.0977 15.8027 16.0977 16.2998V18.0996H20.75L20.7891 18.0918C20.8126 18.0816 20.8317 18.0627 20.8418 18.0391L20.8496 18V14.958C19.7553 14.437 19.0225 13.2919 19.0225 12C19.0225 10.7082 19.7548 9.56123 20.8496 9.04004V6C20.8496 5.95883 20.8246 5.92354 20.7891 5.9082L20.75 5.90039H16.0977V7.7002C16.0976 8.19716 15.6943 8.59961 15.1973 8.59961C14.7003 8.59961 14.297 8.19716 14.2969 7.7002V5.90039H3.25Z" fill="black"/>
</svg>
