<svg width="24" height="24" viewBox="0 0 24 24" fill="none" xmlns="http://www.w3.org/2000/svg">
<path fill-rule="evenodd" clip-rule="evenodd" d="M9.44521 2.19116C8.7912 2.19116 8.14558 2.41587 7.64983 2.85301C7.14998 3.29377 6.84961 3.91283 6.84961 4.58631V5.33569H3.49961C3.00255 5.33569 2.59961 5.73864 2.59961 6.23569C2.59961 6.73275 3.00255 7.13569 3.49961 7.13569H4.09961V18.0909C4.09961 20.2448 5.8457 21.9909 7.99961 21.9909H15.9996C18.1535 21.9909 19.8996 20.2448 19.8996 18.0909V7.13569H20.4996C20.9967 7.13569 21.3996 6.73275 21.3996 6.23569C21.3996 5.73864 20.9967 5.33569 20.4996 5.33569H17.1496V4.58631C17.1496 3.91283 16.8492 3.29377 16.3494 2.85301C15.8536 2.41587 15.208 2.19116 14.554 2.19116H9.44521ZM15.3496 5.33569V4.58631C15.3496 4.46367 15.2976 4.32544 15.1589 4.2031C15.016 4.07714 14.8029 3.99116 14.554 3.99116H9.44521C9.19636 3.99116 8.98317 4.07714 8.84032 4.2031C8.70157 4.32544 8.64961 4.46367 8.64961 4.58631V5.33569H15.3496ZM10.8 10.3607C10.8 9.86364 10.3971 9.46069 9.9 9.46069C9.40294 9.46069 9 9.86364 9 10.3607V16.3607C9 16.8577 9.40294 17.2607 9.9 17.2607C10.3971 17.2607 10.8 16.8577 10.8 16.3607V10.3607ZM14.1002 9.46069C14.5973 9.46069 15.0002 9.86364 15.0002 10.3607V16.3607C15.0002 16.8577 14.5973 17.2607 14.1002 17.2607C13.6031 17.2607 13.2002 16.8577 13.2002 16.3607V10.3607C13.2002 9.86364 13.6031 9.46069 14.1002 9.46069Z" fill="black"/>
</svg>
