<svg width="24" height="24" viewBox="0 0 24 24" fill="none" xmlns="http://www.w3.org/2000/svg">
<path d="M2.2998 7.02476C2.2998 6.01695 3.11409 5.19995 4.11855 5.19995H19.8811C20.8855 5.19995 21.6998 6.01694 21.6998 7.02476V16.9751C21.6998 17.983 20.8855 18.8 19.8811 18.8H4.11855C3.11409 18.8 2.2998 17.983 2.2998 16.9751V7.02476Z" fill="url(#paint0_linear_66900_6157)"/>
<path d="M12.415 8.24609C12.608 8.24609 12.7942 8.32307 12.9307 8.45996C13.0666 8.59677 13.1436 8.78236 13.1436 8.97559V9.9082C13.1431 10.311 12.8166 10.6377 12.415 10.6377C12.0138 10.6374 11.6889 10.3108 11.6885 9.9082V9.70508H10.2012V14.0273C10.5994 14.0315 10.9209 14.3572 10.9209 14.7578C10.9206 15.1607 10.5949 15.4873 10.1934 15.4873H8.76758C8.36637 15.4869 8.04135 15.1604 8.04102 14.7578C8.04102 14.3622 8.35465 14.0412 8.74609 14.0293V9.70508H7.27637V9.9082C7.27595 10.3109 6.95121 10.6375 6.5498 10.6377C6.14829 10.6377 5.82269 10.311 5.82227 9.9082V8.97559C5.82227 8.57247 6.14803 8.24611 6.5498 8.24609H12.415Z" fill="white"/>
<path d="M16.1455 6.78467C16.6117 6.78479 17.0355 6.96205 17.3574 7.25146C17.6794 6.96173 18.1039 6.78474 18.5703 6.78467H18.835C19.1694 6.78493 19.4402 7.05654 19.4404 7.39209C19.4404 7.72786 19.1696 8.00022 18.835 8.00049H18.5703C18.2357 8.00065 17.964 8.27315 17.9639 8.60889V15.3911C17.9642 15.7267 18.2358 15.9993 18.5703 15.9995H18.835C19.1695 15.9998 19.4403 16.2722 19.4404 16.6079C19.4401 16.9434 19.1694 17.216 18.835 17.2163H18.5703C18.1035 17.2162 17.6794 17.0378 17.3574 16.7476C17.0355 17.0375 16.612 17.2162 16.1455 17.2163H15.708C15.3734 17.2163 15.1019 16.9435 15.1016 16.6079C15.1017 16.2721 15.3733 15.9996 15.708 15.9995H16.1455C16.4799 15.9993 16.7516 15.7266 16.752 15.3911V8.60889C16.7518 8.27321 16.48 8.00074 16.1455 8.00049H15.708C15.3734 8.00043 15.1018 7.72877 15.1016 7.39307C15.1016 7.05716 15.3732 6.78472 15.708 6.78467H16.1455Z" fill="#C8BAFF"/>
<defs>
<linearGradient id="paint0_linear_66900_6157" x1="-0.481978" y1="3.68848" x2="14.1746" y2="22.5687" gradientUnits="userSpaceOnUse">
<stop stop-color="#B8A7FF"/>
<stop offset="1" stop-color="#896BFF"/>
</linearGradient>
</defs>
</svg>
