<svg width="24" height="24" viewBox="0 0 24 24" fill="none" xmlns="http://www.w3.org/2000/svg">
<path fill-rule="evenodd" clip-rule="evenodd" d="M11.1064 2.9416C12.0495 2.28919 13.114 2.23134 13.9668 2.72285C14.7911 3.1981 15.2803 4.11011 15.2803 5.11543V5.16328L15.2754 5.21113L14.9902 7.86543C14.9538 8.20591 15.2222 8.50382 15.5654 8.5041H18.3809C20.4369 8.5041 21.9296 10.4603 21.3867 12.4436L19.8379 18.1008C19.467 19.4548 18.2369 20.3769 16.833 20.3771H7.03516H4.7168L4.49023 20.3654C3.44763 20.2594 2.61893 19.4304 2.5127 18.3879L2.50098 18.1613V11.2922C2.50113 10.0685 3.4931 9.07651 4.7168 9.07636H7.49805C7.73807 8.51925 8.07122 7.76982 8.44824 6.98847C8.82804 6.2014 9.26038 5.36636 9.69238 4.65937C10.0977 3.99607 10.5865 3.30153 11.1064 2.9416ZM13.0674 4.28242C12.8845 4.17717 12.5682 4.11956 12.1309 4.42207C11.9604 4.54027 11.6427 4.92 11.2285 5.59785C10.8407 6.2325 10.4384 7.00789 10.0703 7.7707C9.7037 8.53044 9.3776 9.26309 9.14355 9.80683C9.02677 10.0782 8.93341 10.3022 8.86914 10.4572C8.85725 10.4859 8.84577 10.5125 8.83594 10.5363V18.5764H16.833C17.4256 18.5762 17.945 18.1968 18.1016 17.6252L19.6504 11.968C19.8794 11.1308 19.249 10.3049 18.3809 10.3049H15.5654C14.1527 10.3046 13.0497 9.07952 13.2002 7.67402L13.4775 5.0832C13.4679 4.67299 13.2736 4.4013 13.0674 4.28242ZM4.7168 10.8771C4.48754 10.8773 4.30191 11.0629 4.30176 11.2922V18.1613C4.30216 18.3904 4.48769 18.5762 4.7168 18.5764H7.02148V10.8771H4.7168Z" fill="black"/>
</svg>
