<svg width="24" height="24" viewBox="0 0 24 24" fill="none" xmlns="http://www.w3.org/2000/svg">
<path fill-rule="evenodd" clip-rule="evenodd" d="M14.2972 6.90019C14.2973 7.39716 14.7006 7.7996 15.1976 7.7996C15.6946 7.7996 16.0979 7.39716 16.098 6.90019V4.39941C16.098 4.23372 16.2323 4.09941 16.398 4.09941H21.4507C22.1135 4.09941 22.6507 4.63667 22.6507 5.29941V9.25468C22.6507 9.52912 22.4259 9.74727 22.1585 9.80937C21.1626 10.0409 20.4212 10.9332 20.4212 11.9998C20.4212 13.0664 21.1626 13.9579 22.1585 14.1893C22.4259 14.2513 22.6507 14.4695 22.6507 14.7439V18.7002C22.6507 19.3629 22.1135 19.9002 21.4507 19.9002H16.398C16.2323 19.9002 16.098 19.7659 16.098 19.6002V17.1004C16.098 16.6033 15.6947 16.2 15.1976 16.2C14.7006 16.2 14.2972 16.6033 14.2972 17.1004V19.6002C14.2972 19.7659 14.1629 19.9002 13.9972 19.9002H5.84971C3.3644 19.9002 1.34966 17.8854 1.34971 15.4001L1.34961 6.09939C1.3496 4.9948 2.24504 4.09936 3.34962 4.09937L13.9972 4.09941C14.1629 4.09941 14.2972 4.23372 14.2972 4.39941V6.90019ZM15.1976 9.5496C14.7006 9.5496 14.2972 9.95294 14.2972 10.45V13.5496C14.2972 14.0467 14.7006 14.45 15.1976 14.45C15.6947 14.45 16.098 14.0467 16.098 13.5496V10.45C16.098 9.95294 15.6947 9.5496 15.1976 9.5496Z" fill="black"/>
</svg>
