<svg width="24" height="24" viewBox="0 0 24 24" fill="none" xmlns="http://www.w3.org/2000/svg">
<path d="M2.53168 12.7532C3.02609 12.6703 3.49474 13.002 3.57841 13.4941C4.27694 17.6256 7.91591 20.7475 12.2538 20.6894C15.326 20.648 18.0055 19.0224 19.5159 16.6011H18.3134C17.8118 16.601 17.4047 16.1957 17.4047 15.6963C17.4048 15.1969 17.8119 14.7915 18.3134 14.7915H21.3413C21.8428 14.7915 22.2499 15.1969 22.25 15.6963V19.7159C22.25 20.2154 21.8429 20.6207 21.3413 20.6207C20.8396 20.6207 20.4325 20.2154 20.4325 19.7159V18.45C18.5426 20.8748 15.6023 22.4543 12.2785 22.499C7.03075 22.5694 2.63166 18.7933 1.78655 13.7954C1.70335 13.3029 2.03711 12.8362 2.53168 12.7532Z" fill="black"/>
<path fill-rule="evenodd" clip-rule="evenodd" d="M12.0469 7.25565C12.3889 7.25566 12.6983 7.45136 12.8363 7.75516L16.1382 14.5196C16.3306 14.9432 16.1329 15.4378 15.6966 15.6246C15.2605 15.8114 14.7508 15.6201 14.5582 15.1968L13.5805 13.5442H10.5132L9.38765 15.1968C9.19508 15.6201 8.68539 15.8114 8.24926 15.6246C7.813 15.4378 7.61524 14.9432 7.8077 14.5196L11.2574 7.75516C11.3955 7.45137 11.7048 7.25565 12.0469 7.25565ZM11.2751 11.868H12.8186L12.0469 10.1703L11.2751 11.868Z" fill="black"/>
<path d="M11.8133 1.5C17.0613 1.50038 21.4087 5.33528 22.1859 10.344C22.2625 10.8374 21.9225 11.2998 21.427 11.3764C20.9313 11.4526 20.4669 11.1142 20.3901 10.6207C19.7477 6.48032 16.1515 3.31 11.8133 3.30962C8.74064 3.30962 6.03811 4.89891 4.49503 7.29981L5.69848 7.31649C6.20003 7.3233 6.60114 7.73369 6.5944 8.23308C6.58762 8.73251 6.17544 9.13284 5.67383 9.12611L2.64601 9.08489C2.14464 9.07801 1.74352 8.66749 1.75008 8.16831L1.80429 4.14868C1.81108 3.64923 2.22422 3.24987 2.72584 3.25663C3.22728 3.26359 3.62856 3.67389 3.62177 4.17321L3.60403 5.4372C5.52673 3.03843 8.4895 1.5 11.8133 1.5Z" fill="black"/>
</svg>
