<svg width="24" height="24" viewBox="0 0 24 24" fill="none" xmlns="http://www.w3.org/2000/svg">
<path fill-rule="evenodd" clip-rule="evenodd" d="M8.55106 3.76001C9.04811 3.75872 9.4521 4.16062 9.45339 4.65767L9.45647 5.84155H14.118C14.615 5.84155 15.018 6.2445 15.018 6.74155C15.018 7.23861 14.615 7.64155 14.118 7.64155H12.1926C12.1056 8.54383 11.8873 9.43556 11.5363 10.2795C11.1428 11.2259 10.5976 12.1028 9.91956 12.8693C10.3945 13.2012 10.9681 13.5565 11.568 13.8324C12.0796 14.0676 12.5728 14.2275 13.0172 14.2847C13.0869 14.268 13.1597 14.2594 13.2346 14.26L13.2743 14.2604L15.6824 9.055C15.8297 8.73666 16.1485 8.53288 16.4992 8.53288C16.85 8.53288 17.1688 8.73666 17.3161 9.055L19.9799 14.813C19.9856 14.8247 19.991 14.8365 19.9962 14.8484L21.8995 18.9625C22.1082 19.4136 21.9117 19.9485 21.4606 20.1572C21.0095 20.3659 20.4746 20.1694 20.2659 19.7182L18.5935 16.1034L14.4205 16.0697L12.7326 19.7182C12.5239 20.1694 11.989 20.3659 11.5379 20.1572C11.0868 19.9485 10.8903 19.4136 11.099 18.9625L12.4615 16.0172C11.882 15.9051 11.3218 15.7003 10.816 15.4678C10.042 15.1119 9.3331 14.6616 8.78479 14.2716C8.71261 14.2209 8.64125 14.1692 8.57074 14.1165C7.9502 14.5857 7.27003 14.9779 6.5475 15.2784C5.42408 15.7455 4.22551 15.9778 3.00953 15.9778C2.51247 15.9778 2.10953 15.5749 2.10953 15.0778C2.10953 14.5808 2.51247 14.1778 3.00953 14.1778C3.9952 14.1778 4.95826 13.9898 5.85636 13.6163C6.33413 13.4177 6.7899 13.1685 7.21537 12.8755C6.42453 11.9904 5.80907 10.9565 5.40468 9.82699C5.23714 9.35903 5.48068 8.84384 5.94865 8.6763C6.41662 8.50875 6.9318 8.7523 7.09934 9.22026C7.42685 10.135 7.92515 10.9703 8.56473 11.6841C9.11171 11.0675 9.5542 10.3582 9.87432 9.58839C10.1325 8.96756 10.3021 8.31065 10.3822 7.64155H8.5588C8.55877 7.64155 8.55883 7.64155 8.5588 7.64155H2.99961C2.50255 7.64155 2.09961 7.23861 2.09961 6.74155C2.09961 6.2445 2.50255 5.84155 2.99961 5.84155H7.65646L7.6534 4.66235C7.65211 4.16529 8.054 3.7613 8.55106 3.76001ZM15.2502 14.2763L17.7577 14.2966L16.4992 11.5764L15.2502 14.2763Z" fill="black"/>
</svg>
