<svg width="24" height="24" viewBox="0 0 24 24" fill="none" xmlns="http://www.w3.org/2000/svg">
<path fill-rule="evenodd" clip-rule="evenodd" d="M11.9991 2.1001C9.16292 2.1001 6.86377 4.39925 6.86377 7.23539V9.41187H6.5874C4.93055 9.41187 3.5874 10.755 3.5874 12.4119V19.0001C3.5874 20.657 4.93055 22.0001 6.5874 22.0001H17.4109C19.0678 22.0001 20.4109 20.657 20.4109 19.0001V12.4119C20.4109 10.755 19.0678 9.41187 17.4109 9.41187H8.66377V7.23539C8.66377 5.39336 10.157 3.9001 11.9991 3.9001H12.5285C14.0781 3.9001 15.3344 5.15634 15.3344 6.70598C15.3344 7.20304 15.7373 7.60598 16.2344 7.60598C16.7314 7.60598 17.1344 7.20304 17.1344 6.70598C17.1344 4.16222 15.0722 2.1001 12.5285 2.1001H11.9991ZM12.8995 14.647C12.8995 14.1499 12.4966 13.747 11.9995 13.747C11.5025 13.747 11.0995 14.1499 11.0995 14.647V16.7646C11.0995 17.2617 11.5025 17.6646 11.9995 17.6646C12.4966 17.6646 12.8995 17.2617 12.8995 16.7646V14.647Z" fill="black"/>
</svg>
