<svg width="24" height="24" viewBox="0 0 24 24" fill="none" xmlns="http://www.w3.org/2000/svg">
<path fill-rule="evenodd" clip-rule="evenodd" d="M12 6.16992C14.0213 6.16992 15.66 7.80882 15.6602 9.83008C15.66 11.8513 14.0213 13.4902 12 13.4902C9.97883 13.4901 8.33998 11.8512 8.33984 9.83008C8.33997 7.8089 9.97882 6.17005 12 6.16992ZM12 7.9707C10.9729 7.97083 10.1408 8.80301 10.1406 9.83008C10.1408 10.8571 10.9729 11.6903 12 11.6904C13.0272 11.6904 13.8602 10.8572 13.8604 9.83008C13.8602 8.80294 13.0272 7.9707 12 7.9707Z" fill="black"/>
<path fill-rule="evenodd" clip-rule="evenodd" d="M12 2.09961C17.4676 2.09961 21.9004 6.53238 21.9004 12C21.9004 17.4676 17.4676 21.9004 12 21.9004C6.53238 21.9004 2.09961 17.4676 2.09961 12C2.09961 6.53238 6.53238 2.09961 12 2.09961ZM12.0098 16.3398C10.8474 16.3398 9.68288 16.4668 8.52539 16.7227L8.11328 16.8281C7.33572 17.0535 6.78335 17.3872 6.37207 17.8223C7.82939 19.2312 9.81269 20.0996 12 20.0996C14.1933 20.0996 16.1812 19.2263 17.6396 17.8105C17.1649 17.3101 16.4986 16.945 15.4932 16.7227L15.0586 16.6328C14.0448 16.437 13.0266 16.3399 12.0098 16.3398ZM12 3.90039C7.52649 3.90039 3.90039 7.52649 3.90039 12C3.90039 13.6346 4.38607 15.155 5.21875 16.4277C5.91578 15.7536 6.79828 15.3026 7.86621 15.0303L8.13672 14.9658C9.41995 14.6821 10.7148 14.5391 12.0098 14.5391C13.1428 14.5391 14.2754 14.6489 15.4004 14.8662L15.8818 14.9658C17.0736 15.2294 18.0388 15.6922 18.7891 16.4141C19.6165 15.144 20.0996 13.6289 20.0996 12C20.0996 7.52649 16.4735 3.90039 12 3.90039Z" fill="black"/>
</svg>
