<svg width="24" height="24" viewBox="0 0 24 24" fill="none" xmlns="http://www.w3.org/2000/svg">
<path d="M4.46779 4.1001C2.81083 4.10009 1.46764 5.44339 1.46777 7.10034L1.46857 16.9003C1.4687 18.5571 2.81181 19.9001 4.46857 19.9001H16.0729C16.9013 19.9001 17.5729 19.2285 17.5729 18.4001V15.844L21.0286 17.8667C21.6952 18.2569 22.5337 17.7761 22.5337 17.0036L22.5337 7.21689C22.5337 6.43225 21.6714 5.95327 21.0052 6.36795L17.5729 8.50474V5.60015C17.5729 4.77173 16.9013 4.10016 16.0729 4.10015L4.46779 4.1001Z" fill="url(#paint0_linear_37107_8332)"/>
<path d="M13.293 12.4395C13.6418 12.2503 13.6418 11.7498 13.293 11.5606L8.19841 8.79633C7.86525 8.61557 7.45996 8.85677 7.45996 9.23581L7.45996 14.7643C7.45996 15.1433 7.86525 15.3845 8.19841 15.2038L13.293 12.4395Z" fill="white"/>
<defs>
<linearGradient id="paint0_linear_37107_8332" x1="-1.55289" y1="2.34412" x2="15.7248" y2="23.1469" gradientUnits="userSpaceOnUse">
<stop stop-color="#B8A7FF"/>
<stop offset="1" stop-color="#896BFF"/>
</linearGradient>
</defs>
</svg>
