<svg width="24" height="24" viewBox="0 0 24 24" fill="none" xmlns="http://www.w3.org/2000/svg">
<path d="M6.27606 17.0608L11.6764 21.1301C11.9492 21.3356 12.3139 21.3685 12.6186 21.215C12.9233 21.0614 13.1157 20.7478 13.1157 20.4048L13.1157 3.71674C13.1157 3.37374 12.9233 3.06016 12.6186 2.90662C12.3139 2.75309 11.9492 2.78594 11.6764 2.99149L6.2761 7.06078H2.21582C1.66354 7.06078 1.21582 7.50849 1.21582 8.06078V16.0608C1.21582 16.6131 1.66354 17.0608 2.21582 17.0608H6.27606Z" fill="black"/>
<path fill-rule="evenodd" clip-rule="evenodd" d="M15.6526 7.18108C16.025 6.85186 16.5938 6.88686 16.923 7.25926C18.0414 8.52438 18.7215 10.1841 18.7215 12.0001C18.7215 13.816 18.0414 15.4757 16.923 16.7409C16.5938 17.1133 16.025 17.1483 15.6526 16.819C15.2802 16.4898 15.2452 15.9211 15.5744 15.5487C16.4147 14.5981 16.9215 13.358 16.9215 12.0001C16.9215 10.6422 16.4147 9.40202 15.5744 8.45147C15.2452 8.07907 15.2802 7.51029 15.6526 7.18108Z" fill="black"/>
<path opacity="0.3" fill-rule="evenodd" clip-rule="evenodd" d="M18.3151 4.06733C18.6778 3.72756 19.2474 3.74621 19.5872 4.109C21.5255 6.17858 22.7131 8.95235 22.7131 12C22.7131 15.0477 21.5255 17.8215 19.5872 19.8911C19.2474 20.2538 18.6778 20.2725 18.3151 19.9327C17.9523 19.5929 17.9336 19.0234 18.2734 18.6606C19.9135 16.9094 20.9131 14.5703 20.9131 12C20.9131 9.42977 19.9135 7.09068 18.2734 5.33944C17.9336 4.97665 17.9523 4.40711 18.3151 4.06733Z" fill="black"/>
</svg>
