<svg width="24" height="24" viewBox="0 0 24 24" fill="none" xmlns="http://www.w3.org/2000/svg">
<path fill-rule="evenodd" clip-rule="evenodd" d="M6.19808 17.002L11.6764 21.1301C11.9492 21.3356 12.3139 21.3685 12.6186 21.215C12.9233 21.0614 13.1157 20.7478 13.1157 20.4048L13.1157 3.71674C13.1157 3.37374 12.9233 3.06016 12.6186 2.90662C12.3139 2.75309 11.9492 2.78594 11.6764 2.99149L6.1981 7.11955H2.21582C1.66354 7.11955 1.21582 7.56727 1.21582 8.11955V16.002C1.21582 16.5543 1.66353 17.002 2.21582 17.002H6.19808Z" fill="black"/>
<path fill-rule="evenodd" clip-rule="evenodd" d="M22.7677 8.35845C23.1192 8.70991 23.1192 9.27976 22.7678 9.63124L20.399 12.0002L22.7677 14.3689C23.1191 14.7204 23.1191 15.2902 22.7677 15.6417C22.4162 15.9932 21.8464 15.9932 21.4949 15.6417L19.1262 13.273L16.7576 15.6418C16.4061 15.9933 15.8363 15.9933 15.4848 15.6419C15.1333 15.2904 15.1333 14.7206 15.4847 14.3691L17.8534 12.0002L15.4845 9.6313C15.133 9.27982 15.133 8.70998 15.4845 8.3585C15.8359 8.00703 16.4058 8.00703 16.7573 8.3585L19.1262 10.7274L21.4949 8.35849C21.8464 8.00701 22.4163 8.00699 22.7677 8.35845Z" fill="black"/>
</svg>
