<svg width="24" height="24" viewBox="0 0 24 24" fill="none" xmlns="http://www.w3.org/2000/svg">
<path fill-rule="evenodd" clip-rule="evenodd" d="M2.09961 4.0001C2.09961 2.95076 2.95027 2.1001 3.99961 2.1001H19.9996C21.0489 2.1001 21.8996 2.95076 21.8996 4.0001V9.0001C21.8996 10.0494 21.049 10.9001 19.9996 10.9001H3.99961C2.95027 10.9001 2.09961 10.0494 2.09961 9.0001V4.0001ZM3.99961 3.9001C3.94438 3.9001 3.89961 3.94487 3.89961 4.0001V9.0001C3.89961 9.05533 3.94438 9.1001 3.99961 9.1001H19.9996C20.0548 9.1001 20.0996 9.05533 20.0996 9.0001V4.0001C20.0996 3.94487 20.0548 3.9001 19.9996 3.9001H3.99961Z" fill="black"/>
<path fill-rule="evenodd" clip-rule="evenodd" d="M2.09961 15.0001C2.09961 13.9508 2.95027 13.1001 3.99961 13.1001H19.9996C21.0489 13.1001 21.8996 13.9508 21.8996 15.0001V20.0001C21.8996 21.0494 21.049 21.9001 19.9996 21.9001H3.99961C2.95027 21.9001 2.09961 21.0494 2.09961 20.0001V15.0001ZM3.99961 14.9001C3.94438 14.9001 3.89961 14.9449 3.89961 15.0001V20.0001C3.89961 20.0553 3.94438 20.1001 3.99961 20.1001H19.9996C20.0548 20.1001 20.0996 20.0553 20.0996 20.0001V15.0001C20.0996 14.9449 20.0548 14.9001 19.9996 14.9001H3.99961Z" fill="black"/>
</svg>
