<svg width="24" height="24" viewBox="0 0 24 24" fill="none" xmlns="http://www.w3.org/2000/svg">
<path fill-rule="evenodd" clip-rule="evenodd" d="M5.86321 3.3637C6.21468 3.01223 6.78453 3.01223 7.13601 3.3637L11.136 7.3637C11.4875 7.71517 11.4875 8.28502 11.136 8.63649C10.7845 8.98797 10.2147 8.98797 9.86321 8.63649L7.39961 6.17289V20.3656C7.39961 20.8626 6.99667 21.2656 6.49961 21.2656C6.00255 21.2656 5.59961 20.8626 5.59961 20.3656V6.17289L3.13601 8.63649C2.78453 8.98797 2.21469 8.98797 1.86321 8.63649C1.51174 8.28502 1.51174 7.71517 1.86321 7.3637L5.86321 3.3637Z" fill="black"/>
<path fill-rule="evenodd" clip-rule="evenodd" d="M18.136 21.1365C17.7845 21.488 17.2147 21.488 16.8632 21.1365L12.8632 17.1365C12.5117 16.785 12.5117 16.2152 12.8632 15.8637C13.2147 15.5122 13.7845 15.5122 14.136 15.8637L16.5996 18.3273L16.5996 4.0001C16.5996 3.50304 17.0026 3.1001 17.4996 3.1001C17.9967 3.1001 18.3996 3.50304 18.3996 4.0001L18.3996 18.3273L20.8632 15.8637C21.2147 15.5122 21.7845 15.5122 22.136 15.8637C22.4875 16.2152 22.4875 16.785 22.136 17.1365L18.136 21.1365Z" fill="black"/>
</svg>
