<svg width="24" height="24" viewBox="0 0 24 24" fill="none" xmlns="http://www.w3.org/2000/svg">
<path d="M23.7383 11.7513C23.7743 11.6323 23.7245 11.5091 23.6221 11.4398C21.7088 10.1454 21.31 7.37234 21.2727 6.4946C21.2657 6.34785 21.1467 6.23294 20.9999 6.23294H17.9597C17.8018 6.23156 17.68 6.36169 17.6869 6.51952C17.7825 8.54912 17.3713 11.264 17.3713 11.264C16.7898 15.4035 15.1894 16.1442 14.313 16.1442C13.5461 16.1442 13.2996 15.4298 13.5461 13.4819L14.3629 6.5389C14.3823 6.37692 14.2549 6.23294 14.0915 6.23294H10.8007C10.6636 6.23294 10.5473 6.334 10.5293 6.47106L9.8925 11.2903C9.82605 11.8289 9.67376 12.3633 9.52285 12.8838C8.76694 15.481 7.46418 16.1456 6.87164 16.1456C5.85822 16.1456 5.85684 15.1571 6.10189 13.3185L6.75258 9.20812C7.09869 6.96393 5.80285 6.14018 5.50934 5.98374C4.72713 5.54902 2.75845 5.47565 0.395197 6.77426C0.269213 6.84348 0.215219 7.00131 0.273366 7.13421L1.23417 9.35487C1.2937 9.49193 1.44876 9.55976 1.58859 9.50854C1.79764 9.43101 2.00946 9.36317 2.12991 9.35071C2.31127 9.33133 2.58539 9.32718 2.7626 9.49885C2.98827 9.71759 2.96196 10.1302 2.94119 10.2921L2.30158 14.2766C1.86409 17.5425 2.80552 19.8116 5.65194 19.8116C5.65194 19.8116 8.24362 19.9279 9.88835 17.5245C9.9285 17.4663 10.0129 17.4788 10.0337 17.5453C10.4587 18.884 11.5774 19.8116 13.6277 19.8116C16.6984 19.8116 19.6002 18.2042 20.8393 13.6314C20.8545 13.5747 20.9224 13.5511 20.9653 13.5899C21.3003 13.8834 21.9635 14.3347 22.5117 14.5728C22.6599 14.6379 22.8302 14.5576 22.88 14.4039C23.0807 13.7934 23.5598 12.3287 23.737 11.75L23.7383 11.7513Z" fill="#00CBD5"/>
</svg>
