<svg width="24" height="24" viewBox="0 0 24 24" fill="none" xmlns="http://www.w3.org/2000/svg">
<path d="M19.4614 13.3534C20.303 12.2126 20.8004 10.8023 20.8004 9.27584C20.8004 5.47836 17.7219 2.3999 13.9245 2.3999C12.3981 2.3999 10.9879 2.89725 9.84707 3.73874C9.88348 3.76564 9.91835 3.79558 9.95133 3.82857L19.3707 13.2479C19.404 13.2813 19.4343 13.3166 19.4614 13.3534Z" fill="black"/>
<path d="M17.9974 14.8162C16.8574 15.6557 15.4489 16.1518 13.9245 16.1518C13.3721 16.1518 12.8349 16.0866 12.3202 15.9636L6.48928 20.3781C5.76502 20.9924 4.6832 20.9466 4.01395 20.2681L2.93213 19.1863C2.26287 18.5171 2.21703 17.4352 2.82212 16.711L7.24104 10.8982C7.11521 10.378 7.04854 9.83471 7.04854 9.27584C7.04854 7.75153 7.54454 6.34307 8.38397 5.20306C8.41074 5.23921 8.44051 5.27385 8.47328 5.30662L17.8926 14.726C17.9258 14.7591 17.9608 14.7892 17.9974 14.8162Z" fill="black"/>
</svg>
