<svg width="24" height="24" viewBox="0 0 24 24" fill="none" xmlns="http://www.w3.org/2000/svg">
<path fill-rule="evenodd" clip-rule="evenodd" d="M14.3879 15.3596C14.036 15.0086 14.0448 14.4485 14.4075 14.1087L16.6325 12.0245L14.4744 9.87144C14.1225 9.52038 14.1313 8.96032 14.4941 8.62051C14.8569 8.28069 15.4362 8.28981 15.7881 8.64086L18.5833 11.4295C18.9352 11.7806 18.9264 12.3406 18.5636 12.6805L15.6818 15.38C15.3191 15.7198 14.7398 15.7107 14.3879 15.3596ZM9.61134 8.6408C9.96323 8.99186 9.95441 9.55192 9.59166 9.89173L7.36669 11.976L9.52479 14.129C9.87667 14.4801 9.86786 15.0401 9.50511 15.3799C9.14235 15.7198 8.56302 15.7106 8.21113 15.3596L5.4159 12.5709C5.06401 12.2199 5.07282 11.6598 5.43558 11.32L8.31737 8.62044C8.68012 8.28063 9.25945 8.28974 9.61134 8.6408ZM19.4996 4.1001L4.49961 4.10011C2.89798 4.10011 1.59961 5.39848 1.59961 7.00011V17.0001C1.59961 18.6017 2.89798 19.9001 4.49961 19.9001H19.4996C21.1012 19.9001 22.3996 18.6017 22.3996 17.0001V7.0001C22.3996 5.39847 21.1012 4.1001 19.4996 4.1001Z" fill="black"/>
</svg>
