<svg width="24" height="24" viewBox="0 0 24 24" fill="none" xmlns="http://www.w3.org/2000/svg">
<path d="M21.9905 11.3515C22.0223 11.2499 21.9794 11.1451 21.8905 11.0863C20.2618 9.98463 19.9236 7.62404 19.8903 6.87792C19.8855 6.75251 19.7839 6.65408 19.6585 6.65408H17.0709C16.9376 6.65408 16.8328 6.76362 16.8392 6.89855C16.9201 8.62574 16.5709 10.9371 16.5709 10.9371C16.0756 14.4598 14.7135 15.09 13.969 15.09C13.3165 15.09 13.107 14.482 13.3165 12.8246L14.0118 6.91602C14.0277 6.77791 13.9198 6.65567 13.7801 6.65567H10.9797C10.8623 6.65567 10.7639 6.74139 10.7496 6.85728L10.2066 10.9578C10.1495 11.415 10.0209 11.8706 9.89073 12.3135C9.2478 14.5233 8.13815 15.0884 7.63333 15.0884C6.76974 15.0884 6.76974 14.247 6.97928 12.6818L7.53332 9.18295C7.827 7.2732 6.72529 6.57312 6.47605 6.43977C5.81089 6.07306 4.13451 6.01115 2.12475 7.11604C2.0168 7.17478 1.97235 7.30971 2.01998 7.42242L2.83753 9.31312C2.88833 9.42901 3.02009 9.48774 3.13916 9.44329C3.31695 9.37662 3.49793 9.31947 3.59953 9.30995C3.75351 9.29407 3.98687 9.28931 4.13768 9.43536C4.32977 9.62109 4.30755 9.97351 4.29008 10.1116L3.74558 13.5025C3.37252 16.2822 4.1742 18.2126 6.5967 18.2126C6.5967 18.2126 8.80172 18.311 10.2019 16.2663C10.2352 16.2171 10.3082 16.2282 10.3257 16.2838C10.6877 17.422 11.6386 18.2126 13.3848 18.2126C15.9978 18.2126 18.4679 16.8442 19.522 12.9532C19.5347 12.9056 19.5919 12.885 19.63 12.9183C19.9141 13.1691 20.4793 13.5533 20.946 13.7549C21.073 13.8105 21.2174 13.7422 21.2603 13.612C21.4302 13.0929 21.8382 11.8467 21.9905 11.353V11.3515Z" fill="black"/>
</svg>
