<svg width="272" height="64" viewBox="0 0 272 64" fill="none" xmlns="http://www.w3.org/2000/svg">
<g clip-path="url(#clip0_24146_10945)">
<g clip-path="url(#clip1_24146_10945)">
<path fill-rule="evenodd" clip-rule="evenodd" d="M10.9099 21.001C7.82844 21.001 5.33043 23.4768 5.33043 26.5307C5.33043 27.7203 5.70641 28.815 6.34723 29.7145C7.36191 31.139 9.02744 32.0604 10.9099 32.0604C11.049 32.0604 11.184 32.0558 11.3151 32.0469C11.3541 32.0425 11.3934 32.0384 11.4328 32.0348L11.4331 32.0377C13.9173 31.8153 15.9158 29.8311 16.5236 26.1088C17.418 20.6308 21.0798 15.7182 27.4002 15.7182C33.4256 15.7182 38.3101 20.5591 38.3101 26.5307C38.3101 28.8435 37.5744 30.9938 36.3225 32.7543C36.3208 32.7567 36.3191 32.759 36.3174 32.7614L28.0134 44.572C28.0042 44.5857 27.9939 44.6008 27.9826 44.6172C27.9489 44.6659 27.906 44.7262 27.8535 44.7964C27.7487 44.9365 27.6051 45.1174 27.4208 45.325C27.0535 45.7386 26.516 46.2679 25.7929 46.7918C24.3276 47.8535 22.1249 48.8712 19.1551 48.8712C16.1852 48.8712 13.9825 47.8535 12.5172 46.7918C11.7941 46.2679 11.2566 45.7386 10.8893 45.325C10.705 45.1174 10.5614 44.9365 10.4566 44.7964C10.4041 44.7262 10.3612 44.6659 10.3275 44.6172C10.3162 44.6008 10.3059 44.5857 10.2967 44.572L7.50972 40.6082C7.47165 40.5561 7.4345 40.5032 7.39829 40.4497L1.98761 32.7543C0.7357 30.9938 0 28.8435 0 26.5307C0 20.5591 4.88453 15.7182 10.9099 15.7182C12.3649 15.7182 13.7597 16.0019 15.0361 16.519C16.3986 17.071 17.0516 18.6132 16.4947 19.9635C15.9377 21.3139 14.3817 21.9611 13.0191 21.4091C12.372 21.1469 11.6614 21.001 10.9099 21.001ZM11.8184 37.496C11.8143 37.4883 11.8112 37.4809 11.8089 37.4736C11.8059 37.4638 11.8033 37.4507 11.8033 37.4322C11.8033 37.4099 11.8071 37.3947 11.8117 37.3828C11.8168 37.3696 11.8252 37.3554 11.8375 37.3416C11.8566 37.3201 11.8781 37.3071 11.8993 37.3004C17.6578 36.7974 20.9434 32.1109 21.7856 26.9527C22.4283 23.0161 24.6138 21.001 27.4002 21.001C30.4817 21.001 32.9797 23.4768 32.9797 26.5307C32.9797 27.7203 32.6037 28.815 31.9629 29.7145L31.9581 29.7212L23.5889 41.6245L23.5787 41.6404C23.5764 41.6435 23.5736 41.6473 23.5702 41.6519C23.5466 41.6834 23.4965 41.7479 23.4194 41.8348C23.2637 42.01 23.0075 42.2659 22.6469 42.5271C21.9451 43.0357 20.8216 43.5883 19.1551 43.5883C17.4885 43.5883 16.365 43.0357 15.6632 42.5271C15.3026 42.2659 15.0464 42.01 14.8907 41.8348C14.8136 41.7479 14.7635 41.6834 14.7399 41.6519C14.7365 41.6473 14.7337 41.6435 14.7314 41.6404L14.7212 41.6245L11.8184 37.496Z" fill="white"/>
</g>
<g clip-path="url(#clip2_24146_10945)">
<path fill-rule="evenodd" clip-rule="evenodd" d="M258.624 24.4743C259.647 22.661 262.092 21.3257 265.029 21.4218L265.024 21.4314C269.571 21.5803 272.513 26.35 271.989 31.6264C271.506 36.473 268.788 43.7381 261.107 43.7381C259.097 43.7381 257.202 43.1569 255.927 42.2298C255.886 42.201 255.831 42.2226 255.823 42.2731L254.445 51.0103C254.397 51.3009 254.14 51.5219 253.844 51.5219H249.69C249.315 51.5219 249.029 51.1856 249.089 50.8158L250.477 42.2755C250.487 42.213 250.42 42.177 250.372 42.213C249.312 43.0248 248.097 43.5459 246.466 43.899C244.826 44.2544 243.251 44.0431 241.87 42.7582C241.853 42.7438 241.829 42.739 241.81 42.751C240.835 43.2986 239.624 43.7717 238.174 43.9758C237.069 44.1295 236.151 44.1007 235.448 44.0191C235.147 43.9878 234.866 43.9446 234.602 43.8846H234.595C234.509 43.8654 234.424 43.8437 234.34 43.8221C234.091 43.7573 233.944 43.702 233.944 43.702C232.222 43.0848 231.427 41.7303 231.336 39.8546C231.281 38.7337 231.87 34.9632 232.2 32.8436C232.262 32.4516 232.314 32.1161 232.352 31.8642C232.784 29.0062 232.676 26.8231 230.049 26.8231C226.876 26.8231 225.834 30.2935 225.452 32.6063L223.43 43.6732C223.386 43.935 223.161 44.1295 222.894 44.1295H218.199C217.865 44.1295 217.61 43.8317 217.663 43.5027L218.331 39.5279C218.34 39.4607 218.261 39.4223 218.216 39.4727C215.706 42.3139 211.724 44.228 207.826 44.437C202.811 44.7083 198.02 42.7005 197.374 42.3355C197.155 42.2106 197.086 41.932 197.22 41.7183L199.55 37.8612C199.665 37.6787 199.896 37.609 200.095 37.6931C202.725 38.793 205.573 39.2109 207.567 39.0548V39.0476H207.651C209.38 38.8939 210.862 38.0965 210.931 37.1143C211.023 35.8307 209.243 35.3196 206.98 34.6697C205.496 34.2435 203.804 33.7575 202.295 32.9546C199.577 31.5097 199.455 29.5279 199.368 28.1173C199.359 27.9663 199.35 27.8218 199.338 27.6853C199.259 26.7535 195.801 25.6223 193.385 27.8534C191.596 29.5058 190.565 31.8282 190.111 35.9783L189.283 43.8606C189.256 44.1007 189.055 44.2833 188.812 44.2833H184.883C184.599 44.2833 184.381 44.0383 184.412 43.7573L184.818 40.1524C184.825 40.0875 184.751 40.0515 184.705 40.0995C182.685 42.2851 178.699 44.0647 175.66 44.3769C172.322 44.7204 168.772 44.3649 166.512 42.2634C165.943 41.7351 165.48 41.1731 165.093 40.5727C165.079 40.5487 165.055 40.5366 165.026 40.5438C164.868 40.585 164.282 40.751 163.434 40.9907C160.225 41.8984 153.275 43.864 151.706 44.1223V44.1175C151.319 44.2112 150.923 44.2881 150.51 44.3481C146.552 44.9149 143.884 43.7669 142.481 42.3379C142.46 42.3163 142.429 42.3115 142.402 42.3235C137.459 44.5186 133.929 44.0215 132.325 42.2995C131.513 41.4277 131.124 39.9002 131.484 37.1503C131.633 36.0191 132.43 31.4175 132.43 31.4175C132.906 28.156 132.226 26.9216 130.391 26.8111C128.237 26.6814 125.766 28.4755 125.333 31.8258L123.345 43.8894C123.306 44.1175 123.109 44.2857 122.879 44.2857L118.083 44.2929C117.792 44.2929 117.569 44.0335 117.614 43.7453L119.56 31.4151C120.045 28.4851 119.531 26.7583 117.413 26.8087C115.696 26.8495 113.553 27.9711 112.931 31.4151L110.76 43.8918C110.722 44.1175 110.525 44.2833 110.294 44.2833H105.914C105.63 44.2833 105.412 44.0383 105.443 43.7573L105.849 40.1476C105.856 40.0827 105.781 40.0467 105.738 40.0947C103.017 42.9767 98.0961 44.3649 96.0546 44.4634C93.2639 44.6075 89.0922 44.3817 86.7506 41.567C81.0154 44.485 77.7971 43.8125 76.2433 42.1458C75.4339 41.274 74.98 40.2172 75.2514 37.5682C75.3763 36.3481 76.2529 31.3935 76.2529 31.3935C76.7284 28.132 76.1544 26.9768 74.2139 26.7871C72.4366 26.6118 69.6026 28.2497 69.1559 31.8018L67.1217 43.8846C67.0833 44.1127 66.8864 44.2784 66.6558 44.2784H61.8573C61.5643 44.2784 61.3433 44.0191 61.3889 43.7309L63.3799 31.3935C63.8651 28.4634 63.3271 26.7703 61.2328 26.7871C59.5156 26.8015 57.3733 27.9495 56.7513 31.3935L54.3881 43.8942C54.3448 44.1175 54.1503 44.2784 53.9221 44.2784H49.3398C49.0443 44.2784 48.821 44.0119 48.8738 43.7213C49.3253 41.2571 51.141 31.2902 51.5973 27.7742C51.7414 26.679 51.2395 26.153 50.0915 26.3644C49.8945 26.4004 49.652 26.4869 49.4502 26.5685C49.2149 26.6646 48.9459 26.5589 48.8402 26.326L47.3608 23.0405C47.2551 22.8099 47.3536 22.5385 47.5817 22.4232C49.0059 21.7027 51.0714 20.9174 52.5892 20.7733C53.7564 20.6628 55.6586 20.5884 56.8426 21.9477C57.3397 22.5193 57.4838 22.7667 57.7696 23.6217C57.8008 23.7105 57.9113 23.7418 57.9786 23.6745C59.3043 22.3512 61.2088 21.4193 63.9923 21.4193C66.5862 21.4193 68.5147 22.7451 68.7981 25.19C68.8053 25.2596 68.8894 25.2836 68.9302 25.226C70.6354 22.8147 73.1235 21.4193 76.457 21.4193C81.0106 21.4193 82.9031 25.0411 81.9689 30.0798C81.9689 30.0798 81.1835 34.7846 81.013 35.8798C80.8425 36.963 80.8521 37.5201 81.5245 37.8059C82.1898 38.0893 83.9694 37.364 84.8052 36.7588C84.8196 36.7468 84.8244 36.7324 84.8244 36.7132C84.8004 36.497 84.7788 36.1824 84.7668 35.9783C84.3609 27.9687 88.5158 23.4416 92.9421 21.9933C97.6518 20.4443 102.842 22.1158 103.586 26.6286C104.802 33.9993 96.78 37.5946 91.6212 38.6705C91.5659 38.6826 91.5515 38.7546 91.5947 38.7882C93.7202 40.4814 97.5509 39.8137 100.611 38.2815C103.466 36.8525 105.104 35.1761 106.187 33.1227C107.405 30.8099 108.26 27.2818 108.43 22.0534C108.44 21.7988 108.647 21.5899 108.901 21.5899H113.351C113.618 21.5899 113.832 21.8084 113.825 22.075C113.808 22.5457 113.88 23.4416 113.918 23.7754C113.925 23.8306 113.993 23.8498 114.031 23.809C115.359 22.4232 117.307 21.477 120.17 21.477C122.821 21.477 124.704 22.7643 124.978 25.2212C124.985 25.2884 125.067 25.3173 125.11 25.2644C126.969 23.0717 128.876 21.4193 132.634 21.4193C137.01 21.4193 139.114 24.8778 138.146 30.0966C138.146 30.0966 137.337 34.8135 137.166 35.9086C136.996 36.9894 137.006 38.2214 137.678 38.5072C138.29 38.7666 139.825 37.938 140.723 37.3184C140.74 37.3088 140.75 37.292 140.752 37.2728L141.213 34.1242L144.34 13.381C144.376 13.148 144.576 12.9775 144.809 12.9775H149.393C149.684 12.9775 149.905 13.2393 149.859 13.5275L148.144 24.078C148.135 24.1428 148.212 24.1813 148.257 24.1332C149.768 22.5529 151.918 21.3809 154.761 21.4314C159.937 21.525 162.593 26.1819 161.659 31.4247C161.459 32.5487 161.193 33.6559 160.849 34.7246L160.854 34.7198C160.761 35.1233 160.619 35.5043 160.496 35.8343C160.288 36.3921 160.135 36.8044 160.364 36.9341C160.64 37.0902 162.386 36.5138 163.506 35.9951C163.525 35.9855 163.534 35.9663 163.534 35.9446C163.169 27.9975 167.303 23.4344 171.71 21.9933C176.417 20.4443 181.693 22.1687 182.347 26.6286C183.456 34.2106 174.983 37.7603 170.334 38.6826C170.3 38.6874 170.29 38.733 170.317 38.7546C172.536 40.6543 176.847 39.6 179.349 38.2791C182.174 36.79 183.526 35.1737 184.609 33.1203C185.433 31.5544 186.132 29.2656 186.545 26.4845C186.795 24.1573 186.888 22.5842 186.919 21.8661C186.931 21.6115 187.14 21.4169 187.393 21.4169H191.483C191.776 21.4169 191.997 21.6763 191.951 21.9645L191.656 23.7994C191.644 23.8667 191.728 23.9075 191.771 23.8546C192.258 23.2518 193.872 21.5827 196.79 21.5827C199.449 21.5827 201.476 23.1486 201.697 23.3263C201.709 23.3359 201.726 23.3359 201.74 23.3263C207.72 19.3899 215.084 22.32 216.635 23.235C216.854 23.3647 216.916 23.6481 216.777 23.857L214.335 26.9672C214.097 27.3275 213.542 27.2218 213.343 27.1041C207.716 23.7826 202.667 27.6349 207.298 29.8108C208.818 30.5241 210.132 31.0308 211.222 31.3791C211.806 31.564 213.165 32.0563 213.652 32.2533C215.202 32.8777 216.561 34.0762 216.741 35.5316C216.746 35.5676 216.784 35.5868 216.813 35.5628C217.555 34.9143 218.309 33.6607 218.931 32.2173C219.573 30.7354 220.336 26.3476 220.336 26.3476C220.641 24.4262 220.893 22.9108 220.97 22.6034L222.435 13.393C222.474 13.1624 222.671 12.9943 222.904 12.9943H227.729C228.022 12.9943 228.245 13.2585 228.195 13.5491L226.331 24.2269C226.319 24.299 226.413 24.3374 226.453 24.2749C227.409 22.87 229.508 21.3377 232.22 21.3377C237.914 21.3377 238.901 25.4854 238.128 30.4424C238.128 30.4424 237.602 34.4628 237.172 37.5706C237.042 38.8699 238.865 38.8507 239.787 38.2503C240.256 37.9428 240.962 37.3808 241.144 36.5283C241.896 33.0338 243.263 22.5241 243.263 22.5241C243.291 22.3224 243.315 22.1374 243.335 21.9885C243.366 21.7532 243.565 21.5803 243.803 21.5803H248.558C248.839 21.5803 249.06 21.8204 249.029 22.099C248.729 24.873 247.956 30.93 247.043 35.7621C246.822 36.9341 247.293 37.2536 247.915 37.0134C249.649 36.3433 250.953 35.2386 251.726 32.6207C252.038 31.5616 252.264 30.2815 252.456 29.0783C252.749 27.2554 253.573 21.9789 253.573 21.9789C253.609 21.7484 253.808 21.5779 254.041 21.5779L258.314 21.5827C258.595 21.5827 258.813 21.8252 258.785 22.1038L258.496 24.4358C258.489 24.5103 258.588 24.5391 258.624 24.4743ZM93.8235 27.0296C91.1985 28.5235 89.8535 32.0419 90.4347 34.446H90.4323C90.4419 34.4844 90.4756 34.5085 90.514 34.4988C91.9838 34.1242 99.7652 30.8771 98.3699 27.3731C97.8895 26.1626 95.9874 25.7976 93.8235 27.0296ZM149.905 38.9852C151.915 38.9203 155.525 36.4346 156.296 31.9146V31.9195C156.86 28.6196 155.431 26.7895 153.262 26.7198C151.322 26.6574 148.277 27.8967 147.333 31.3479C147.059 32.3493 146.838 33.6511 146.634 35.0488C146.266 37.6522 147.114 39.074 149.905 38.9852ZM172.728 26.8856C170.081 28.2689 168.561 31.8306 169.202 34.3812L169.2 34.3788C169.21 34.4148 169.243 34.4388 169.279 34.4316C170.492 34.1554 178.53 30.7258 177.133 27.3034C176.648 26.1122 174.928 25.7352 172.728 26.8856ZM260.331 38.9828C263.245 38.8915 266.05 36.6387 266.653 31.9819V31.9843C267.082 28.6748 265.363 26.7751 263.552 26.7174C261.436 26.6478 258.701 27.8991 257.759 31.3455C257.485 32.3469 257.264 33.6487 257.06 35.0464C256.693 37.6498 257.541 39.0716 260.331 38.9828Z" fill="white"/>
<path d="M249.555 15.7945C249.555 17.3438 248.299 18.5997 246.75 18.5997C245.201 18.5997 243.945 17.3438 243.945 15.7945C243.945 14.2453 245.201 12.9894 246.75 12.9894C248.299 12.9894 249.555 14.2453 249.555 15.7945Z" fill="white"/>
</g>
</g>
<defs>
<clipPath id="clip0_24146_10945">
<rect width="272" height="38.5895" fill="white" transform="translate(0 13)"/>
</clipPath>
<clipPath id="clip1_24146_10945">
<rect width="38.3101" height="33.153" fill="white" transform="translate(0 15.7182)"/>
</clipPath>
<clipPath id="clip2_24146_10945">
<rect width="224.521" height="38.5895" fill="white" transform="translate(47.4795 13.0001)"/>
</clipPath>
</defs>
</svg>
