<svg width="128" height="128" viewBox="0 0 128 128" fill="none" xmlns="http://www.w3.org/2000/svg">
<rect width="128" height="128" fill="#C6D5E3"/>
<mask id="mask0_55377_13256" style="mask-type:alpha" maskUnits="userSpaceOnUse" x="0" y="0" width="128" height="128">
<rect width="128" height="128" fill="#C6D5E3"/>
</mask>
<g mask="url(#mask0_55377_13256)">
<path d="M63.9999 72.4324C75.9684 72.4324 85.6707 62.7301 85.6707 50.7616C85.6707 38.7932 75.9684 29.0908 63.9999 29.0908C52.0315 29.0908 42.3291 38.7932 42.3291 50.7616C42.3291 62.7301 52.0315 72.4324 63.9999 72.4324Z" fill="white"/>
<path d="M64.0843 136.199C78.9518 136.199 92.5432 135.37 102.88 132.499C108.623 130.903 114.43 128.415 117.556 123.629C120.109 119.673 120.045 114.058 117.11 109.081C110.346 97.4673 89.7994 87.0026 64.4033 87.0026H63.5738C38.1778 87.0026 17.6312 97.4673 10.8674 109.081C7.99603 114.058 7.86841 119.673 10.4208 123.629C13.5474 128.415 19.3541 130.967 25.0969 132.499C35.4978 135.306 49.0253 136.199 63.8929 136.199H64.0843Z" fill="white"/>
</g>
</svg>
