<svg viewBox="0 0 113 24" fill="none" xmlns="http://www.w3.org/2000/svg">
<g clip-path="url(#clip0_27943_3285)">
<g clip-path="url(#clip1_27943_3285)">
<path d="M0 12C0 3.3601 3.3601 0 12 0C20.6399 0 24 3.3601 24 12C24 20.6399 20.6399 24 12 24C3.3601 24 0 20.6399 0 12Z" fill="#00CBD5"/>
<path d="M20.5553 11.6838C20.582 11.5972 20.5452 11.507 20.4702 11.4565C19.0735 10.5116 18.7826 8.48769 18.7551 7.84745C18.7508 7.7399 18.6635 7.65617 18.5559 7.65617H16.3364C16.2216 7.65545 16.1321 7.75 16.1372 7.86549C16.2065 9.34663 15.9062 11.3287 15.9062 11.3287C15.4818 14.3502 14.3139 14.8908 13.6744 14.8908C13.115 14.8908 12.9352 14.3697 13.115 12.9477L13.7105 7.87993C13.7242 7.76155 13.6318 7.65689 13.512 7.65689H11.1098C11.0095 7.65689 10.925 7.73124 10.912 7.83012L10.4472 11.3475C10.3981 11.7401 10.2877 12.1299 10.1772 12.5103C9.62576 14.4058 8.67442 14.8908 8.24134 14.8908C7.50149 14.8908 7.50005 14.169 7.67978 12.8272L8.15473 9.82663C8.40736 8.18814 7.46179 7.5876 7.24742 7.47355C6.67719 7.15668 5.23936 7.10327 3.51497 8.05099C3.42257 8.10152 3.3836 8.21701 3.42546 8.31373L4.12706 9.93563C4.17036 10.0352 4.28441 10.0858 4.38618 10.0475C4.53921 9.99048 4.69295 9.9414 4.78101 9.93274C4.91382 9.91903 5.11304 9.91542 5.24224 10.0403C5.40682 10.1998 5.38733 10.5015 5.37217 10.6199L4.90516 13.528C4.5854 15.9122 5.27256 17.568 7.35063 17.568C7.35063 17.568 9.24248 17.6524 10.4428 15.8985C10.4717 15.8559 10.5338 15.8653 10.5497 15.9136C10.8593 16.8902 11.6764 17.568 13.1734 17.568C15.4146 17.568 17.5331 16.3943 18.4376 13.0567C18.4484 13.0156 18.4982 12.9982 18.5299 13.0264C18.7739 13.2408 19.259 13.5706 19.6588 13.7439C19.7671 13.7908 19.8913 13.733 19.9281 13.6212C20.0739 13.1758 20.424 12.1068 20.5539 11.6838H20.5553Z" fill="white"/>
</g>
<path d="M110.361 3.88715V7.42083H112.756V9.86358H110.361V15.2234C110.361 16.2432 110.811 16.6701 111.831 16.6701C112.211 16.6701 112.661 16.5989 112.78 16.5752V18.852C112.614 18.9231 112.092 19.1128 111.096 19.1128C108.962 19.1128 107.633 17.8322 107.633 15.674V9.86358H105.499V7.42083H106.092C107.325 7.42083 107.871 6.6382 107.871 5.61842V3.88715H110.361Z" fill="currentColor"/>
<path d="M96.6202 11.3063V17.9705H93.8691V6.42083H96.549V7.96237C97.308 6.63428 98.6835 6.08881 99.9642 6.08881C102.786 6.08881 104.138 8.12838 104.138 10.666V17.9705H101.387V11.1403C101.387 9.71736 100.747 8.57899 99.0155 8.57899C97.4503 8.57899 96.6202 9.7885 96.6202 11.3063Z" fill="currentColor"/>
<path d="M88.4315 16.6899C87.8623 17.7334 86.5105 18.3026 85.1587 18.3026C82.4076 18.3026 80.7949 16.263 80.7949 13.7017V6.42084H83.546V13.2036C83.546 14.6266 84.21 15.8361 85.8701 15.8361C87.4591 15.8361 88.2892 14.7689 88.2892 13.251V6.42084H91.0402V15.8598C91.0402 16.8085 91.1114 17.5436 91.1588 17.9705H88.5263C88.4789 17.7097 88.4315 17.1642 88.4315 16.6899Z" fill="currentColor"/>
<path d="M72.8285 15.8598C74.536 15.8598 76.0539 14.6028 76.0539 12.1838C76.0539 9.78848 74.536 8.55525 72.8285 8.55525C71.1447 8.55525 69.6031 9.78848 69.6031 12.1838C69.6031 14.5791 71.1447 15.8598 72.8285 15.8598ZM72.8285 6.06506C76.291 6.06506 78.8286 8.65011 78.8286 12.1838C78.8286 15.7412 76.291 18.3262 72.8285 18.3262C69.3897 18.3262 66.8521 15.7412 66.8521 12.1838C66.8521 8.65011 69.3897 6.06506 72.8285 6.06506Z" fill="currentColor"/>
<path d="M60.3577 8.60268C58.6739 8.60268 57.1798 9.85963 57.1798 12.1838C57.1798 14.508 58.6739 15.8123 60.4051 15.8123C62.2076 15.8123 63.0376 14.5554 63.2985 13.6779L65.7175 14.5554C65.1721 16.3578 63.4408 18.3262 60.4051 18.3262C57.0138 18.3262 54.4287 15.6938 54.4287 12.1838C54.4287 8.62639 57.0138 6.06506 60.334 6.06506C63.4408 6.06506 65.1483 8.00978 65.6227 9.85963L63.1562 10.7608C62.8953 9.74105 62.1127 8.60268 60.3577 8.60268Z" fill="currentColor"/>
<path d="M47.9349 8.60268C46.251 8.60268 44.7569 9.85963 44.7569 12.1838C44.7569 14.508 46.251 15.8123 47.9823 15.8123C49.7847 15.8123 50.6148 14.5554 50.8756 13.6779L53.2947 14.5554C52.7492 16.3578 51.0179 18.3262 47.9823 18.3262C44.5909 18.3262 42.0059 15.6938 42.0059 12.1838C42.0059 8.62639 44.5909 6.06506 47.9111 6.06506C51.0179 6.06506 52.7255 8.00978 53.1998 9.85963L50.7334 10.7608C50.4725 9.74105 49.6898 8.60268 47.9349 8.60268Z" fill="currentColor"/>
<path d="M30 14.84C30 12.7767 31.5178 11.6383 33.4863 11.3537L36.4508 10.9031C37.1148 10.8083 37.3045 10.4762 37.3045 10.0731C37.3045 9.10071 36.6405 8.31809 35.1227 8.31809C33.676 8.31809 32.8696 9.24301 32.7511 10.4051L30.2372 9.83591C30.4506 7.84376 32.253 6.06506 35.0989 6.06506C38.6563 6.06506 40.0082 8.08092 40.0082 10.3814V16.1207C40.0082 17.1642 40.1267 17.8519 40.1505 17.9705H37.5891C37.5654 17.8994 37.4705 17.425 37.4705 16.5001C36.9251 17.3776 35.7867 18.3262 33.9131 18.3262C31.4941 18.3262 30 16.6661 30 14.84ZM34.4349 16.1681C35.9764 16.1681 37.3045 15.4329 37.3045 13.1799V12.6581L34.2926 13.1087C33.4388 13.251 32.7511 13.7253 32.7511 14.674C32.7511 15.4566 33.344 16.1681 34.4349 16.1681Z" fill="currentColor"/>
</g>
<defs>
<clipPath id="clip0_27943_3285"><rect width="113" height="24" fill="white"/>
</clipPath>
<clipPath id="clip1_27943_3285"><rect width="113" height="24" fill="white"/>
</clipPath>
</defs>
</svg>
