<svg viewBox="0 0 167 24" fill="none" xmlns="http://www.w3.org/2000/svg">
<path d="M64.8545 8.89792C64.9347 8.89792 65.0149 8.89792 65.0951 8.90875C65.2982 8.94123 65.5121 9.04409 65.5335 9.30396C65.5976 10.0727 65.758 11.4154 67.3833 12.287C69.4469 13.3969 71.6389 13.5918 71.6014 14.4851C71.548 15.6436 68.9497 15.6382 66.2712 14.5067C66.1643 14.4634 66.0414 14.5013 65.9772 14.5987L64.7208 16.9267C64.646 17.0404 64.6888 17.1974 64.8064 17.2624C65.4265 17.6143 67.7949 18.5401 70.4467 18.4318C73.6758 18.2964 75.2797 16.3095 75.3759 13.9924C75.3759 13.9653 75.3973 13.9491 75.424 13.9491C75.718 13.9762 76.0762 13.9707 76.2046 13.9653C76.2259 13.9653 76.2473 13.9816 76.2473 14.0032C76.397 15.335 77.2524 17.8254 80.5992 18.2369C83.6037 18.605 86.1272 17.6847 88.0892 16.1038C88.1748 16.0388 88.1962 15.9197 88.148 15.8223L87.1216 13.8029C87.0574 13.6784 86.897 13.6405 86.7901 13.7271C85.3359 14.864 83.5503 15.4217 82.3955 15.3892C80.1126 15.3242 79.7972 14.3443 79.7545 14.079C79.7491 14.0465 79.7758 14.014 79.8133 14.014C84.5286 14.2523 87.0788 11.5886 87.0521 9.24982C87.0414 8.15621 86.3464 6.26676 83.7 5.94734C83.454 5.91486 83.1867 5.89321 82.8873 5.89321C82.4757 5.89321 82.0587 5.94193 81.647 6.02855C81.6417 6.02855 81.631 6.02855 81.6256 6.02855C81.5936 6.03397 81.5615 6.04479 81.5294 6.05021C80.5724 6.27218 79.6903 6.72153 78.9311 7.35496C77.755 8.32404 76.8408 9.73166 76.4932 11.502C76.4932 11.5237 76.4719 11.5453 76.4451 11.5453C75.702 11.5832 74.5258 11.4208 73.7132 11.2909C73.4352 11.253 73.1412 11.1988 72.8471 11.1393C72.8364 11.1393 72.8257 11.1393 72.8257 11.1393C72.0184 10.966 71.163 10.7116 70.3451 10.3218C67.9125 9.1632 70.2916 7.38203 73.2695 9.15778C73.3764 9.22275 73.5154 9.19027 73.5849 9.08199L74.8359 7.18171C74.9108 7.06802 74.8787 6.91102 74.7611 6.84064C73.9217 6.34256 70.313 4.74005 67.0892 6.90019C67.0892 6.90019 66.0627 5.97441 64.5444 5.97441C62.3952 5.97441 61.6093 7.25751 61.6093 7.25751L61.7911 6.16931C61.8178 6.02314 61.7056 5.88779 61.5559 5.88779H58.6689C58.5459 5.88779 58.439 5.98524 58.4337 6.10976C58.3802 6.95433 58.1289 9.97528 57.2628 11.6049C55.9423 14.1548 52.8041 15.4271 51.0719 15.3784C48.7891 15.3134 48.4736 14.3335 48.4309 14.0682C48.4255 14.0357 48.4523 14.0032 48.4897 14.0032C53.2051 14.2414 55.7552 11.5778 55.7285 9.23899C55.7178 8.04252 54.8891 5.8932 51.5851 5.88779C48.7837 5.88779 46.3726 7.76641 45.4209 10.6412C45.4102 10.6737 45.3728 10.6845 45.3514 10.6628C44.3731 9.73707 44.3036 6.99764 44.3036 6.13142C44.3036 5.99607 44.1967 5.89321 44.0683 5.89321H41.5021C41.3738 5.89321 41.2669 6.00148 41.2669 6.13142C41.2669 6.75943 41.2348 8.38901 40.9515 9.75873C40.1496 13.6297 38.7702 14.7774 38.118 14.707C37.6903 14.6637 37.5352 14.0357 37.4657 13.8137C37.2091 12.98 36.0169 7.82597 35.6213 6.07186C35.5999 5.96359 35.5037 5.88779 35.3967 5.88779H32.173C32.0072 5.88779 31.895 6.05562 31.9538 6.21262L32.0821 6.55911C34.2099 12.4927 28.9064 15.465 26.2707 15.3892C23.9879 15.3242 23.6725 14.3443 23.6297 14.079C23.6243 14.0465 23.6511 14.014 23.6885 14.014C28.4039 14.2523 30.954 11.5886 30.9273 9.24982C30.9166 8.05335 30.0879 5.8932 26.784 5.88779C23.8703 5.88779 21.3789 7.92883 20.5128 11.0039C20.5021 11.0418 20.4594 11.0581 20.4273 11.031C18.9731 9.77497 18.8234 7.41451 18.786 6.62408C18.7807 6.49415 18.6737 6.3967 18.5508 6.3967H15.9151C15.7814 6.3967 15.6745 6.51039 15.6798 6.64574C15.7654 8.42691 15.4072 10.8144 15.4072 10.8144C14.9046 14.4472 13.5146 15.0968 12.7554 15.0968C12.0925 15.0968 11.8787 14.4688 12.0925 12.7634L12.7982 6.67281C12.8143 6.53205 12.7073 6.40753 12.563 6.40753H9.71344C9.59582 6.40753 9.49424 6.49415 9.4782 6.61867L8.92754 10.8469C8.86873 11.3179 8.74042 11.7889 8.60677 12.2437C7.94918 14.523 6.82113 15.1077 6.30789 15.1077C5.43111 15.1077 5.42576 14.2414 5.63961 12.6281L6.20631 9.02244C6.5057 7.05178 5.38299 6.33173 5.13172 6.19638C4.45274 5.81741 2.7473 5.75244 0.699688 6.88936C0.587417 6.94891 0.544647 7.08968 0.592764 7.20337L1.42678 9.15237C1.48024 9.27148 1.61389 9.33103 1.73686 9.28772C1.91863 9.21734 2.1004 9.1632 2.20198 9.15237C2.35702 9.13613 2.5976 9.13071 2.7473 9.2823C2.94511 9.47179 2.91838 9.83452 2.90234 9.9807L2.34633 13.4781C1.96675 16.342 2.78472 18.3343 5.24933 18.3343C5.24933 18.3343 7.5001 18.4372 8.9222 16.3204C8.95427 16.2716 9.02377 16.2825 9.03981 16.3366C9.40336 17.5168 10.3764 18.3343 12.1567 18.3343C14.8672 18.3343 17.4281 16.878 18.4706 12.6876C18.4813 12.6497 18.524 12.6443 18.5454 12.6714C18.8181 13.0991 19.4489 13.608 20.0958 13.8733C20.1172 13.8787 20.1279 13.9004 20.1279 13.922C20.1439 14.301 20.4219 17.755 24.4744 18.2585C28.6498 18.7729 32.05 16.6614 34.0762 13.9112L34.8782 15.9847C34.8782 15.9847 35.6854 18.3235 37.4871 18.3235C39.7539 18.3235 42.0368 16.25 43.3252 12.9096C43.3894 12.7526 43.4428 12.5956 43.4963 12.4386C43.507 12.4061 43.5498 12.3953 43.5711 12.4224C43.9507 12.8284 44.3945 13.1262 44.8917 13.359C44.9024 13.359 44.9077 13.3752 44.9077 13.386C44.8329 14.2739 45.2606 17.755 49.2809 18.2531C52.4833 18.6483 55.1457 17.571 57.1506 15.8006C57.1826 15.7736 57.2308 15.8006 57.2254 15.8439L56.9528 18.0691C56.9367 18.2098 57.0436 18.3398 57.188 18.3398H60.1124C60.2353 18.3398 60.3369 18.2477 60.3476 18.1286L60.7967 14.0086C61.0426 11.7456 61.7804 10.6087 62.6251 9.83452C63.5072 9.05492 64.5337 8.94123 64.8759 8.9304L64.8545 8.89792ZM23.5709 11.4858C23.774 10.2893 24.4316 9.56924 25.1908 9.08199C26.3937 8.3078 27.5806 8.41067 27.8799 8.90875C28.1686 9.38517 28.0778 10.3164 26.5594 11.0851C25.6399 11.5507 24.7417 11.6211 23.6297 11.5561C23.5923 11.5561 23.5655 11.5182 23.5709 11.4858ZM48.3774 11.4858C48.5806 10.2893 49.2381 9.56924 49.9973 9.08199C51.2002 8.30239 52.3871 8.41067 52.6865 8.90875C52.9752 9.38517 52.8843 10.3164 51.3659 11.0851C50.4464 11.5507 49.5482 11.6211 48.4362 11.5561C48.3988 11.5561 48.3721 11.5182 48.3774 11.4858ZM79.7063 11.4912C79.9095 10.2947 80.5671 9.57465 81.3262 9.0874C82.5292 8.3078 83.716 8.41608 84.0154 8.91416C84.3041 9.39058 84.2132 10.3218 82.6949 11.0905C81.7753 11.5561 80.8772 11.6265 79.7651 11.5616C79.7277 11.5616 79.701 11.5237 79.7117 11.4912H79.7063Z" fill="#00CBD5"/>
<path d="M159.008 3.05518V6.58886H161.403V9.03161H159.008V14.3914C159.008 15.4112 159.458 15.8381 160.478 15.8381C160.858 15.8381 161.308 15.767 161.427 15.7432V18.02C161.261 18.0911 160.739 18.2809 159.743 18.2809C157.609 18.2809 156.28 17.0002 156.28 14.842V9.03161H154.146V6.58886H154.739C155.972 6.58886 156.518 5.80623 156.518 4.78645V3.05518H159.008Z" fill="currentColor"/>
<path d="M145.03 11.3558V18.1385H142.279V0.96814H145.03V7.70349C145.812 6.6837 147.117 6.25681 148.326 6.25681C151.172 6.25681 152.548 8.29639 152.548 10.834V18.1385H149.797V11.3083C149.797 9.88536 149.156 8.74699 147.425 8.74699C145.907 8.74699 145.077 9.88536 145.03 11.3558Z" fill="currentColor"/>
<path d="M127.795 18.7788L130.333 18.1148C130.522 19.5378 131.637 20.605 133.226 20.605C135.408 20.605 136.499 19.4903 136.499 17.1424V15.9329C136.001 16.8341 134.839 17.6168 133.155 17.6168C130.072 17.6168 127.819 15.2452 127.819 11.9961C127.819 8.91298 129.977 6.37537 133.155 6.37537C134.957 6.37537 136.072 7.11056 136.57 8.0592V6.58881H139.226V17.0476C139.226 20.1307 137.637 23.0003 133.297 23.0003C130.238 23.0003 128.103 21.103 127.795 18.7788ZM133.605 15.2689C135.36 15.2689 136.57 13.9882 136.57 11.9961C136.57 10.0276 135.313 8.74697 133.605 8.74697C131.85 8.74697 130.593 10.0276 130.593 11.9961C130.593 14.0119 131.803 15.2689 133.605 15.2689Z" fill="currentColor"/>
<path d="M125.475 18.1386H122.748V6.58887H125.475V18.1386Z" fill="currentColor"/>
<path d="M124.1 1.00012C123.128 1.00012 122.321 1.80647 122.321 2.80254C122.321 3.79861 123.128 4.58124 124.1 4.58124C125.096 4.58124 125.902 3.79861 125.902 2.80254C125.902 1.80647 125.096 1.00012 124.1 1.00012Z" fill="currentColor"/>
<path d="M111.273 15.0081L113.669 14.344C113.764 15.3875 114.546 16.3125 116.017 16.3125C117.155 16.3125 117.748 15.6958 117.748 14.9844C117.748 14.3677 117.321 13.8934 116.396 13.7037L114.689 13.3242C112.649 12.8736 111.582 11.5455 111.582 9.95657C111.582 7.94071 113.432 6.23315 115.827 6.23315C119.052 6.23315 120.096 8.32016 120.286 9.45853L117.961 10.1226C117.866 9.45853 117.368 8.39131 115.827 8.39131C114.855 8.39131 114.167 9.00793 114.167 9.71941C114.167 10.336 114.617 10.7866 115.329 10.9289L117.084 11.2847C119.266 11.759 120.404 13.0871 120.404 14.7946C120.404 16.5496 118.981 18.4943 116.04 18.4943C112.696 18.4943 111.416 16.3125 111.273 15.0081Z" fill="currentColor"/>
<path d="M101.615 11.4744V18.1386H98.8638V6.58886H101.544V8.1304C102.303 6.8023 103.678 6.25684 104.959 6.25684C107.781 6.25684 109.133 8.29641 109.133 10.834V18.1386H106.382V11.3083C106.382 9.88539 105.741 8.74702 104.01 8.74702C102.445 8.74702 101.615 9.95653 101.615 11.4744Z" fill="currentColor"/>
<path d="M95.8094 18.1386H93.082V6.58887H95.8094V18.1386Z" fill="currentColor"/>
<path d="M94.4335 1C93.4611 1 92.6548 1.80634 92.6548 2.80242C92.6548 3.79849 93.4611 4.58112 94.4335 4.58112C95.4296 4.58112 96.2359 3.79849 96.2359 2.80242C96.2359 1.80634 95.4296 1 94.4335 1Z" fill="currentColor"/>
</svg>
