<svg viewBox="0 0 116 24" fill="none" xmlns="http://www.w3.org/2000/svg">
<g clip-path="url(#clip0_39273_7401)">
<path d="M0 12C0 3.3601 3.3601 0 12 0C20.6399 0 24 3.3601 24 12C24 20.6399 20.6399 24 12 24C3.3601 24 0 20.6399 0 12Z" fill="#00CBD5"/>
<path d="M20.5553 11.6838C20.582 11.5972 20.5452 11.5069 20.4702 11.4564C19.0735 10.5116 18.7826 8.48763 18.7551 7.84738C18.7508 7.73984 18.6635 7.65611 18.5559 7.65611H16.3364C16.2216 7.65538 16.1321 7.74994 16.1372 7.86543C16.2065 9.34657 15.9062 11.3286 15.9062 11.3286C15.4818 14.3501 14.3139 14.8908 13.6744 14.8908C13.115 14.8908 12.9352 14.3696 13.115 12.9477L13.7105 7.87987C13.7242 7.76149 13.6318 7.65683 13.512 7.65683H11.1098C11.0095 7.65683 10.925 7.73117 10.912 7.83006L10.4472 11.3474C10.3981 11.7401 10.2877 12.1299 10.1772 12.5102C9.62576 14.4057 8.67442 14.8908 8.24134 14.8908C7.50149 14.8908 7.50005 14.169 7.67978 12.8271L8.15473 9.82657C8.40736 8.18808 7.46179 7.58754 7.24742 7.47349C6.67719 7.15662 5.23936 7.1032 3.51497 8.05093C3.42257 8.10146 3.3836 8.21695 3.42546 8.31367L4.12706 9.93557C4.17036 10.0352 4.28441 10.0857 4.38618 10.0474C4.53921 9.99042 4.69295 9.94134 4.78101 9.93268C4.91382 9.91896 5.11304 9.91536 5.24224 10.0402C5.40682 10.1997 5.38733 10.5015 5.37217 10.6198L4.90516 13.528C4.5854 15.9121 5.27256 17.5679 7.35063 17.5679C7.35063 17.5679 9.24248 17.6524 10.4428 15.8984C10.4717 15.8558 10.5338 15.8652 10.5497 15.9136C10.8593 16.8902 11.6764 17.5679 13.1734 17.5679C15.4146 17.5679 17.5331 16.3943 18.4376 13.0566C18.4484 13.0155 18.4982 12.9982 18.5299 13.0263C18.7739 13.2407 19.259 13.5706 19.6588 13.7438C19.7671 13.7907 19.8913 13.733 19.9281 13.6211C20.0739 13.1757 20.424 12.1068 20.5539 11.6838H20.5553Z" fill="white"/>
</g>
<path d="M108.078 14.0949C108.122 14.5839 108.322 15.0136 108.678 15.3841C109.049 15.7546 109.582 15.9398 110.278 15.9398C110.812 15.9398 111.212 15.8212 111.479 15.5841C111.76 15.3322 111.901 15.0359 111.901 14.6951C111.901 14.3987 111.797 14.1468 111.59 13.9393C111.382 13.7319 111.064 13.5837 110.634 13.4948L109.034 13.1391C108.071 12.9317 107.344 12.5464 106.855 11.9833C106.366 11.4054 106.122 10.7386 106.122 9.98286C106.122 9.50867 106.226 9.06413 106.433 8.64922C106.641 8.21949 106.922 7.84903 107.278 7.53785C107.633 7.21185 108.048 6.95994 108.523 6.78212C109.012 6.58948 109.538 6.49316 110.101 6.49316C110.856 6.49316 111.486 6.6043 111.99 6.82657C112.509 7.03403 112.931 7.29335 113.257 7.60453C113.583 7.91571 113.82 8.24912 113.968 8.60476C114.131 8.94558 114.235 9.24935 114.279 9.51608L112.101 10.1384C112.071 9.99027 112.02 9.81986 111.946 9.62722C111.871 9.43458 111.753 9.25676 111.59 9.09376C111.442 8.93076 111.242 8.7974 110.99 8.69367C110.753 8.57513 110.456 8.51585 110.101 8.51585C109.641 8.51585 109.263 8.64181 108.967 8.89372C108.686 9.13081 108.545 9.41976 108.545 9.76058C108.545 10.0569 108.641 10.3014 108.834 10.4941C109.026 10.6867 109.293 10.8201 109.634 10.8942L111.279 11.2276C112.301 11.4499 113.072 11.8574 113.59 12.4501C114.124 13.028 114.391 13.7171 114.391 14.5172C114.391 14.9321 114.302 15.3471 114.124 15.762C113.961 16.1621 113.709 16.5325 113.368 16.8733C113.042 17.1993 112.62 17.4661 112.101 17.6735C111.582 17.881 110.982 17.9847 110.301 17.9847C109.515 17.9847 108.849 17.8736 108.3 17.6513C107.752 17.429 107.3 17.1549 106.944 16.8289C106.589 16.4881 106.322 16.1324 106.144 15.762C105.966 15.3767 105.863 15.0285 105.833 14.7173L108.078 14.0949Z" fill="currentColor"/>
<path d="M102.439 6.82689H104.684V9.11631H102.439V14.1397C102.439 14.6139 102.55 14.9621 102.772 15.1844C102.995 15.3918 103.343 15.4956 103.817 15.4956C103.995 15.4956 104.173 15.4881 104.35 15.4733C104.528 15.4437 104.647 15.4215 104.706 15.4066V17.5405C104.632 17.5701 104.469 17.6146 104.217 17.6738C103.965 17.7479 103.602 17.785 103.128 17.785C102.12 17.785 101.328 17.5034 100.75 16.9403C100.172 16.3772 99.8828 15.5845 99.8828 14.562V9.11631H97.8823V6.82689H98.438C99.0159 6.82689 99.4382 6.66389 99.705 6.33789C99.9717 6.01189 100.105 5.61179 100.105 5.13761V3.51501H102.439V6.82689Z" fill="currentColor"/>
<path d="M96.7552 9.38323C96.4588 9.33878 96.1773 9.31655 95.9106 9.31655C94.9029 9.31655 94.162 9.59069 93.6878 10.139C93.2285 10.6872 92.9988 11.4726 92.9988 12.4951V17.6518H90.4204V6.82709H92.9321V8.56082C93.184 7.96809 93.5915 7.50873 94.1546 7.18273C94.7177 6.85673 95.3549 6.69373 96.0662 6.69373C96.2292 6.69373 96.3699 6.70113 96.4885 6.71595C96.607 6.73077 96.6959 6.74559 96.7552 6.76041V9.38323Z" fill="currentColor"/>
<path d="M85.6498 11.0498C85.635 10.7386 85.5683 10.4422 85.4497 10.1607C85.346 9.86431 85.183 9.60499 84.9607 9.38272C84.7385 9.16045 84.4643 8.98263 84.1383 8.84926C83.8123 8.7159 83.427 8.64922 82.9825 8.64922C82.5824 8.64922 82.2194 8.72331 81.8934 8.87149C81.5822 9.00485 81.3154 9.19008 81.0932 9.42717C80.8709 9.64945 80.6931 9.90877 80.5597 10.2051C80.4263 10.4867 80.3523 10.7682 80.3374 11.0498H85.6498ZM88.117 14.5617C87.9688 15.0359 87.754 15.4804 87.4724 15.8953C87.1909 16.3102 86.8426 16.6733 86.4277 16.9845C86.0128 17.2957 85.5386 17.5402 85.0052 17.718C84.4717 17.8958 83.879 17.9847 83.227 17.9847C82.4861 17.9847 81.7822 17.8587 81.1154 17.6068C80.4486 17.3401 79.8633 16.9622 79.3594 16.4732C78.8556 15.9694 78.4481 15.3619 78.1369 14.6506C77.8406 13.9245 77.6924 13.1021 77.6924 12.1834C77.6924 11.3239 77.8332 10.5459 78.1147 9.84949C78.4111 9.15304 78.8038 8.56031 79.2928 8.07131C79.7818 7.56749 80.3448 7.18221 80.982 6.91548C81.6192 6.63394 82.2786 6.49316 82.9603 6.49316C83.7901 6.49316 84.531 6.62653 85.183 6.89326C85.8498 7.15998 86.4055 7.53785 86.85 8.02685C87.3094 8.51585 87.6576 9.10858 87.8947 9.80504C88.1318 10.4867 88.2504 11.2572 88.2504 12.1167C88.2504 12.3241 88.243 12.5094 88.2281 12.6724C88.2133 12.8205 88.1985 12.9095 88.1837 12.9391H80.2708C80.2856 13.354 80.3745 13.7319 80.5375 14.0727C80.7005 14.4135 80.9153 14.7099 81.1821 14.9618C81.4488 15.2137 81.7526 15.4137 82.0934 15.5619C82.449 15.6953 82.8269 15.762 83.227 15.762C84.0124 15.762 84.6125 15.5841 85.0274 15.2285C85.4571 14.8581 85.7609 14.4061 85.9387 13.8726L88.117 14.5617Z" fill="currentColor"/>
<path d="M71.384 8.87149C70.9839 8.87149 70.606 8.94558 70.2504 9.09376C69.8948 9.24195 69.5762 9.45681 69.2946 9.73836C69.0279 10.0199 68.813 10.3681 68.65 10.783C68.487 11.198 68.4055 11.6795 68.4055 12.2278C68.4055 12.7761 68.487 13.2651 68.65 13.6948C68.813 14.1097 69.0279 14.4654 69.2946 14.7617C69.5762 15.0433 69.9022 15.2581 70.2726 15.4063C70.6431 15.5545 71.0283 15.6286 71.4284 15.6286C71.8433 15.6286 72.2064 15.5619 72.5176 15.4286C72.8436 15.2952 73.1103 15.1322 73.3178 14.9396C73.54 14.7321 73.7179 14.5172 73.8512 14.295C73.9846 14.0579 74.0809 13.8356 74.1402 13.6281L76.4074 14.4506C76.274 14.8803 76.074 15.3026 75.8072 15.7175C75.5405 16.1324 75.1997 16.5103 74.7848 16.8511C74.3847 17.1919 73.9031 17.4661 73.34 17.6735C72.7769 17.881 72.1397 17.9847 71.4284 17.9847C70.6283 17.9847 69.8873 17.8439 69.2057 17.5624C68.5241 17.266 67.9313 16.8585 67.4275 16.3399C66.9385 15.8212 66.5458 15.2137 66.2495 14.5172C65.9679 13.8208 65.8271 13.0576 65.8271 12.2278C65.8271 11.398 65.9679 10.6349 66.2495 9.9384C66.531 9.22713 66.9237 8.61958 67.4275 8.11576C67.9313 7.59712 68.5167 7.19703 69.1835 6.91548C69.8503 6.63394 70.5764 6.49316 71.3618 6.49316C72.0879 6.49316 72.7324 6.59689 73.2955 6.80435C73.8586 7.0118 74.3476 7.28594 74.7625 7.62676C75.1775 7.95276 75.5109 8.33062 75.7628 8.76035C76.0147 9.19008 76.1999 9.61981 76.3185 10.0495L74.0068 10.8942C73.9475 10.6571 73.8512 10.42 73.7179 10.1829C73.5993 9.93099 73.4289 9.70872 73.2066 9.51608C72.9992 9.32345 72.7473 9.16785 72.4509 9.04931C72.1545 8.93076 71.7989 8.87149 71.384 8.87149Z" fill="currentColor"/>
<path d="M57.0994 17.6515H54.521V6.82681H57.0327V8.27159C57.3883 7.64922 57.8551 7.20467 58.433 6.93794C59.0257 6.6564 59.6259 6.51562 60.2334 6.51562C60.9002 6.51562 61.4782 6.62676 61.9672 6.84904C62.4562 7.07131 62.8562 7.38249 63.1674 7.78258C63.4934 8.16786 63.7379 8.61981 63.9009 9.13845C64.0639 9.65709 64.1454 10.2128 64.1454 10.8055V17.6515H61.5671V11.25C61.5671 10.5832 61.3967 10.0201 61.0558 9.56077C60.7298 9.08659 60.1593 8.8495 59.3443 8.8495C58.6034 8.8495 58.0403 9.10141 57.6551 9.60523C57.2846 10.0942 57.0994 10.6944 57.0994 11.4056V17.6515Z" fill="currentColor"/>
<path d="M47.216 15.6731C47.6161 15.6731 47.994 15.599 48.3496 15.4508C48.7201 15.3026 49.0461 15.0877 49.3276 14.8062C49.6092 14.5098 49.8315 14.1468 49.9945 13.7171C50.1575 13.2873 50.239 12.7909 50.239 12.2278C50.239 11.6647 50.1575 11.1757 49.9945 10.7608C49.8315 10.3311 49.6092 9.97545 49.3276 9.6939C49.0461 9.39754 48.7201 9.18267 48.3496 9.04931C47.994 8.90113 47.6161 8.82704 47.216 8.82704C46.8159 8.82704 46.4307 8.90113 46.0602 9.04931C45.7046 9.18267 45.386 9.39754 45.1044 9.6939C44.8377 9.97545 44.6154 10.3311 44.4376 10.7608C44.2746 11.1757 44.1931 11.6647 44.1931 12.2278C44.1931 12.7909 44.2746 13.2873 44.4376 13.7171C44.6154 14.1468 44.8377 14.5098 45.1044 14.8062C45.386 15.0877 45.7046 15.3026 46.0602 15.4508C46.4307 15.599 46.8159 15.6731 47.216 15.6731ZM47.216 6.49316C48.031 6.49316 48.7794 6.64135 49.461 6.93771C50.1426 7.21926 50.7354 7.61935 51.2392 8.13799C51.743 8.64181 52.1357 9.24195 52.4172 9.9384C52.6988 10.6349 52.8396 11.398 52.8396 12.2278C52.8396 13.0576 52.6988 13.8282 52.4172 14.5395C52.1357 15.2359 51.743 15.8435 51.2392 16.3621C50.7354 16.8659 50.1426 17.266 49.461 17.5624C48.7794 17.8439 48.031 17.9847 47.216 17.9847C46.4159 17.9847 45.6675 17.8439 44.9711 17.5624C44.2894 17.266 43.6967 16.8659 43.1929 16.3621C42.7039 15.8435 42.3186 15.2359 42.0371 14.5395C41.7555 13.8282 41.6147 13.0576 41.6147 12.2278C41.6147 11.398 41.7555 10.6349 42.0371 9.9384C42.3186 9.24195 42.7039 8.64181 43.1929 8.13799C43.6967 7.61935 44.2894 7.21926 44.9711 6.93771C45.6675 6.64135 46.4159 6.49316 47.216 6.49316Z" fill="currentColor"/>
<path d="M35.5568 8.87173C35.1567 8.87173 34.7789 8.94583 34.4232 9.09401C34.0676 9.24219 33.749 9.45705 33.4675 9.7386C33.2007 10.0201 32.9859 10.3684 32.8229 10.7833C32.6599 11.1982 32.5784 11.6798 32.5784 12.2281C32.5784 12.7763 32.6599 13.2653 32.8229 13.6951C32.9859 14.11 33.2007 14.4656 33.4675 14.762C33.749 15.0435 34.075 15.2584 34.4455 15.4066C34.8159 15.5548 35.2012 15.6288 35.6013 15.6288C36.0162 15.6288 36.3792 15.5622 36.6904 15.4288C37.0164 15.2954 37.2832 15.1324 37.4906 14.9398C37.7129 14.7323 37.8907 14.5175 38.0241 14.2952C38.1574 14.0581 38.2538 13.8358 38.313 13.6284L40.5802 14.4508C40.4468 14.8805 40.2468 15.3028 39.9801 15.7178C39.7133 16.1327 39.3725 16.5105 38.9576 16.8513C38.5575 17.1922 38.0759 17.4663 37.5128 17.6738C36.9497 17.8812 36.3126 17.9849 35.6013 17.9849C34.8011 17.9849 34.0602 17.8442 33.3786 17.5626C32.6969 17.2663 32.1042 16.8588 31.6004 16.3401C31.1114 15.8215 30.7187 15.2139 30.4223 14.5175C30.1408 13.821 30 13.0579 30 12.2281C30 11.3982 30.1408 10.6351 30.4223 9.93865C30.7039 9.22737 31.0965 8.61982 31.6004 8.116C32.1042 7.59737 32.6895 7.19727 33.3563 6.91573C34.0231 6.63418 34.7492 6.49341 35.5346 6.49341C36.2607 6.49341 36.9053 6.59714 37.4684 6.80459C38.0315 7.01205 38.5205 7.28618 38.9354 7.627C39.3503 7.953 39.6837 8.33087 39.9356 8.7606C40.1875 9.19033 40.3728 9.62005 40.4913 10.0498L38.1797 10.8944C38.1204 10.6573 38.0241 10.4202 37.8907 10.1831C37.7722 9.93124 37.6018 9.70896 37.3795 9.51633C37.172 9.32369 36.9201 9.1681 36.6237 9.04955C36.3274 8.93101 35.9717 8.87173 35.5568 8.87173Z" fill="currentColor"/>
<defs>
<clipPath id="clip0_39273_7401"><rect width="116" height="24" fill="white"/>
</clipPath>
</defs>
</svg>
