<svg viewBox="0 0 199 24" fill="none" xmlns="http://www.w3.org/2000/svg">
<path d="M64.2813 9.16458C64.3615 9.16458 64.4416 9.16458 64.5218 9.1754C64.725 9.20788 64.9388 9.31071 64.9602 9.5705C65.0244 10.339 65.1848 11.6813 66.81 12.5527C68.8737 13.6622 71.0656 13.857 71.0282 14.7501C70.9747 15.9083 68.3765 15.9029 65.698 14.7717C65.5911 14.7284 65.4681 14.7663 65.404 14.8637L64.1476 17.191C64.0728 17.3047 64.1155 17.4616 64.2331 17.5266C64.8533 17.8784 67.2217 18.8039 69.8734 18.6956C73.1025 18.5603 74.7064 16.574 74.8026 14.2575C74.8026 14.2305 74.824 14.2142 74.8508 14.2142C75.1448 14.2413 75.503 14.2359 75.6313 14.2305C75.6527 14.2305 75.6741 14.2467 75.6741 14.2684C75.8238 15.5998 76.6792 18.0895 80.0259 18.5008C83.0305 18.8688 85.5539 17.9487 87.516 16.3683C87.6015 16.3034 87.6229 16.1843 87.5748 16.0869L86.5483 14.0681C86.4842 13.9436 86.3238 13.9057 86.2169 13.9923C84.7627 15.1289 82.977 15.6864 81.8223 15.6539C79.5394 15.589 79.224 14.6093 79.1812 14.3441C79.1759 14.3117 79.2026 14.2792 79.24 14.2792C83.9554 14.5173 86.5055 11.8545 86.4788 9.51638C86.4681 8.42309 85.7731 6.5342 83.1267 6.21488C82.8808 6.18241 82.6135 6.16076 82.3141 6.16076C81.9024 6.16076 81.4854 6.20947 81.0738 6.29606C81.0684 6.29606 81.0577 6.29606 81.0524 6.29606C81.0203 6.30148 80.9882 6.3123 80.9562 6.31771C79.9992 6.53962 79.1171 6.98884 78.3579 7.62207C77.1817 8.59088 76.2675 9.99807 75.92 11.7679C75.92 11.7895 75.8986 11.8112 75.8719 11.8112C75.1288 11.8491 73.9526 11.6867 73.14 11.5568C72.862 11.5189 72.5679 11.4648 72.2739 11.4053C72.2632 11.4053 72.2525 11.4053 72.2525 11.4053C71.4452 11.2321 70.5898 10.9777 69.7718 10.588C67.3393 9.42978 69.7184 7.64914 72.6962 9.42437C72.8032 9.48932 72.9422 9.45684 73.0117 9.3486L74.2627 7.44888C74.3375 7.33522 74.3054 7.17827 74.1878 7.10791C73.3485 6.60998 69.7398 5.00794 66.516 7.16744C66.516 7.16744 65.4895 6.24194 63.9712 6.24194C61.822 6.24194 61.0361 7.52465 61.0361 7.52465L61.2179 6.43678C61.2446 6.29065 61.1323 6.15534 60.9826 6.15534H58.0957C57.9727 6.15534 57.8658 6.25277 57.8604 6.37725C57.807 7.22157 57.5557 10.2416 56.6896 11.8707C55.3691 14.4199 52.2308 15.6918 50.4987 15.6431C48.2158 15.5781 47.9004 14.5985 47.8576 14.3333C47.8523 14.3008 47.879 14.2684 47.9164 14.2684C52.6318 14.5065 55.182 11.8437 55.1552 9.50555C55.1445 8.30944 54.3159 6.16076 51.0119 6.15534C48.2105 6.15534 45.7993 8.03341 44.8477 10.9073C44.837 10.9398 44.7996 10.9506 44.7782 10.929C43.7998 10.0035 43.7303 7.26486 43.7303 6.3989C43.7303 6.26359 43.6234 6.16076 43.4951 6.16076H40.9289C40.8006 6.16076 40.6937 6.269 40.6937 6.3989C40.6937 7.02672 40.6616 8.65582 40.3782 10.0251C39.5763 13.8949 38.197 15.0423 37.5447 14.972C37.117 14.9287 36.962 14.3008 36.8925 14.0789C36.6359 13.2454 35.4437 8.09294 35.048 6.33936C35.0267 6.23112 34.9304 6.15534 34.8235 6.15534H31.5997C31.434 6.15534 31.3217 6.32312 31.3805 6.48008L31.5088 6.82647C33.6366 12.7583 28.3332 15.7297 25.6975 15.6539C23.4146 15.589 23.0992 14.6093 23.0564 14.3441C23.0511 14.3117 23.0778 14.2792 23.1153 14.2792C27.8306 14.5173 30.3808 11.8545 30.3541 9.51638C30.3434 8.32026 29.5147 6.16076 26.2107 6.15534C23.297 6.15534 20.8057 8.19578 19.9396 11.27C19.9289 11.3078 19.8861 11.3241 19.854 11.297C18.3999 10.0414 18.2502 7.68161 18.2128 6.89142C18.2074 6.76152 18.1005 6.6641 17.9775 6.6641H15.3418C15.2082 6.6641 15.1012 6.77776 15.1066 6.91306C15.1921 8.69371 14.8339 11.0805 14.8339 11.0805C14.3314 14.7122 12.9414 15.3617 12.1822 15.3617C11.5193 15.3617 11.3054 14.7338 11.5193 13.029L12.225 6.94013C12.241 6.79941 12.1341 6.67492 11.9897 6.67492H9.1402C9.02258 6.67492 8.921 6.76152 8.90496 6.886L8.3543 11.113C8.29549 11.5839 8.16718 12.0547 8.03353 12.5094C7.37594 14.788 6.24788 15.3725 5.73465 15.3725C4.85786 15.3725 4.85252 14.5065 5.06637 12.8936L5.63307 9.28906C5.93246 7.31899 4.80975 6.59915 4.55847 6.46384C3.8795 6.08498 2.17405 6.02004 0.126446 7.15662C0.0141751 7.21615 -0.0285948 7.35687 0.0195213 7.47053L0.853534 9.41896C0.906996 9.53803 1.04065 9.59756 1.16362 9.55426C1.34539 9.4839 1.52716 9.42978 1.62874 9.41896C1.78378 9.40272 2.02436 9.39731 2.17405 9.54885C2.37186 9.73828 2.34513 10.1009 2.32909 10.247L1.77309 13.7434C1.3935 16.6065 2.21148 18.5982 4.67609 18.5982C4.67609 18.5982 6.92686 18.701 8.34895 16.5848C8.38103 16.5361 8.45053 16.5469 8.46657 16.6011C8.83012 17.781 9.80313 18.5982 11.5834 18.5982C14.294 18.5982 16.8548 17.1423 17.8973 12.9532C17.908 12.9153 17.9508 12.9099 17.9722 12.9369C18.2448 13.3645 18.8757 13.8733 19.5226 14.1385C19.544 14.1439 19.5547 14.1655 19.5547 14.1872C19.5707 14.566 19.8487 18.0191 23.9011 18.5224C28.0766 19.0366 31.4768 16.9258 33.503 14.1764L34.3049 16.2493C34.3049 16.2493 35.1122 18.5874 36.9139 18.5874C39.1807 18.5874 41.4635 16.5145 42.752 13.1751C42.8161 13.0181 42.8696 12.8612 42.923 12.7042C42.9337 12.6717 42.9765 12.6609 42.9979 12.688C43.3775 13.0939 43.8212 13.3916 44.3184 13.6243C44.3291 13.6243 44.3345 13.6405 44.3345 13.6514C44.2596 14.539 44.6873 18.0191 48.7077 18.517C51.9101 18.9121 54.5725 17.8351 56.5773 16.0653C56.6094 16.0382 56.6575 16.0653 56.6522 16.1086L56.3795 18.333C56.3635 18.4737 56.4704 18.6036 56.6148 18.6036H59.5391C59.6621 18.6036 59.7637 18.5116 59.7744 18.3925L60.2235 14.2738C60.4694 12.0114 61.2072 10.8749 62.0519 10.1009C62.934 9.32154 63.9605 9.20788 64.3026 9.19705L64.2813 9.16458ZM22.9976 11.7517C23.2008 10.5555 23.8584 9.8357 24.6175 9.3486C25.8204 8.57464 27.0073 8.67747 27.3067 9.1754C27.5954 9.65169 27.5045 10.5826 25.9862 11.3511C25.0666 11.8166 24.1685 11.887 23.0564 11.822C23.019 11.822 22.9923 11.7841 22.9976 11.7517ZM47.8042 11.7517C48.0073 10.5555 48.6649 9.8357 49.4241 9.3486C50.627 8.56923 51.8138 8.67747 52.1132 9.1754C52.4019 9.65169 52.311 10.5826 50.7927 11.3511C49.8732 11.8166 48.975 11.887 47.863 11.822C47.8255 11.822 47.7988 11.7841 47.8042 11.7517ZM79.1331 11.7571C79.3363 10.561 79.9938 9.84112 80.753 9.35401C81.9559 8.57464 83.1428 8.68288 83.4422 9.18082C83.7309 9.6571 83.64 10.588 82.1216 11.3566C81.2021 11.822 80.3039 11.8924 79.1919 11.8274C79.1545 11.8274 79.1277 11.7895 79.1384 11.7571H79.1331Z" fill="#00CBD5"/>
<path d="M189.848 11.6191H195.463C195.416 10.2798 194.524 9.08152 192.644 9.08152C190.929 9.08152 189.942 10.3973 189.848 11.6191ZM195.769 14.6032L198.072 15.3316C197.461 17.3288 195.651 18.95 192.902 18.95C189.801 18.95 187.052 16.6944 187.052 12.8175C187.052 9.199 189.73 6.80237 192.62 6.80237C196.145 6.80237 198.213 9.12851 198.213 12.747C198.213 13.1934 198.166 13.5693 198.142 13.6163H189.777C189.848 15.3551 191.211 16.6004 192.902 16.6004C194.547 16.6004 195.393 15.731 195.769 14.6032Z" fill="currentColor"/>
<path d="M173.43 19.232L175.944 18.5741C176.132 19.9839 177.237 21.0412 178.811 21.0412C180.973 21.0412 182.053 19.9369 182.053 17.6107V16.4124C181.56 17.3053 180.409 18.0807 178.74 18.0807C175.686 18.0807 173.454 15.731 173.454 12.512C173.454 9.45748 175.592 6.94336 178.74 6.94336C180.526 6.94336 181.63 7.67175 182.124 8.6116V7.15483H184.755V17.5167C184.755 20.5713 183.181 23.4144 178.881 23.4144C175.85 23.4144 173.736 21.5346 173.43 19.232ZM179.187 15.7545C180.926 15.7545 182.124 14.4857 182.124 12.512C182.124 10.5618 180.879 9.293 179.187 9.293C177.448 9.293 176.203 10.5618 176.203 12.512C176.203 14.5092 177.401 15.7545 179.187 15.7545Z" fill="currentColor"/>
<path d="M161.301 15.496C161.301 13.4519 162.805 12.324 164.755 12.0421L167.692 11.5956C168.35 11.5017 168.538 11.1727 168.538 10.7733C168.538 9.80991 167.88 9.03453 166.376 9.03453C164.943 9.03453 164.144 9.95089 164.026 11.1022L161.536 10.5383C161.747 8.5646 163.533 6.80237 166.353 6.80237C169.877 6.80237 171.216 8.79956 171.216 11.0787V16.7648C171.216 17.7987 171.334 18.4801 171.357 18.5976H168.82C168.796 18.5271 168.702 18.0572 168.702 17.1408C168.162 18.0102 167.034 18.95 165.178 18.95C162.781 18.95 161.301 17.3053 161.301 15.496ZM165.695 16.8118C167.222 16.8118 168.538 16.0835 168.538 13.8513V13.3344L165.554 13.7808C164.708 13.9218 164.026 14.3917 164.026 15.3316C164.026 16.107 164.614 16.8118 165.695 16.8118Z" fill="currentColor"/>
<path d="M157.371 3.65381V7.15478H159.745V9.57491H157.371V14.8851C157.371 15.8954 157.818 16.3184 158.828 16.3184C159.204 16.3184 159.651 16.2479 159.768 16.2244V18.4801C159.604 18.5505 159.087 18.7385 158.1 18.7385C155.985 18.7385 154.669 17.4697 154.669 15.3315V9.57491H152.555V7.15478H153.142C154.364 7.15478 154.904 6.37939 154.904 5.36905V3.65381H157.371Z" fill="currentColor"/>
<path d="M142.408 15.496L144.781 14.8381C144.875 15.872 145.65 16.7883 147.107 16.7883C148.235 16.7883 148.822 16.1774 148.822 15.4725C148.822 14.8616 148.399 14.3917 147.483 14.2037L145.791 13.8278C143.771 13.3814 142.713 12.0656 142.713 10.4913C142.713 8.49411 144.546 6.80237 146.919 6.80237C150.115 6.80237 151.148 8.87005 151.336 9.99788L149.034 10.6558C148.94 9.99788 148.446 8.94054 146.919 8.94054C145.956 8.94054 145.274 9.55145 145.274 10.2563C145.274 10.8672 145.721 11.3137 146.426 11.4547L148.164 11.8071C150.326 12.277 151.454 13.5928 151.454 15.2846C151.454 17.0233 150.044 18.95 147.13 18.95C143.818 18.95 142.549 16.7883 142.408 15.496Z" fill="currentColor"/>
<path d="M141.883 7.15483L137.184 11.9951L141.977 18.5976H138.64L135.28 13.9218L133.871 15.4021V18.5976H131.168V1.58618H133.871V11.7836L138.264 7.15483H141.883Z" fill="currentColor"/>
<path d="M123.771 9.31649C122.103 9.31649 120.623 10.5618 120.623 12.8644C120.623 15.1671 122.103 16.4594 123.818 16.4594C125.604 16.4594 126.426 15.2141 126.685 14.3447L129.081 15.2141C128.541 16.9998 126.826 18.95 123.818 18.95C120.458 18.95 117.897 16.3419 117.897 12.8644C117.897 9.33998 120.458 6.80237 123.748 6.80237C126.826 6.80237 128.517 8.72907 128.987 10.5618L126.544 11.4547C126.285 10.4443 125.51 9.31649 123.771 9.31649Z" fill="currentColor"/>
<path d="M105.768 15.496C105.768 13.4519 107.271 12.324 109.222 12.0421L112.159 11.5956C112.817 11.5017 113.004 11.1727 113.004 10.7733C113.004 9.80991 112.347 9.03453 110.843 9.03453C109.41 9.03453 108.611 9.95089 108.493 11.1022L106.003 10.5383C106.214 8.5646 108 6.80237 110.819 6.80237C114.344 6.80237 115.683 8.79956 115.683 11.0787V16.7648C115.683 17.7987 115.801 18.4801 115.824 18.5976H113.286C113.263 18.5271 113.169 18.0572 113.169 17.1408C112.629 18.0102 111.501 18.95 109.644 18.95C107.248 18.95 105.768 17.3053 105.768 15.496ZM110.161 16.8118C111.689 16.8118 113.004 16.0835 113.004 13.8513V13.3344L110.02 13.7808C109.175 13.9218 108.493 14.3917 108.493 15.3316C108.493 16.107 109.081 16.8118 110.161 16.8118Z" fill="currentColor"/>
<path d="M95.2308 18.5976H92.5757V1.58618H95.2543V8.56462C95.7712 7.67175 97.087 6.84938 98.8492 6.84938C102.28 6.84938 104.136 9.45748 104.136 12.8175C104.136 16.2714 102.092 18.8795 98.7552 18.8795C97.134 18.8795 95.8887 18.1747 95.2308 17.0703V18.5976ZM101.387 12.841C101.387 10.5618 100.118 9.26951 98.3088 9.26951C96.5701 9.26951 95.2308 10.5618 95.2308 12.841C95.2308 15.0966 96.5701 16.4594 98.3088 16.4594C100.095 16.4594 101.387 15.0966 101.387 12.841Z" fill="currentColor"/>
</svg>
