<svg viewBox="0 0 102 24" fill="none" xmlns="http://www.w3.org/2000/svg">
<g clip-path="url(#clip0_10055_18548)">
<path d="M8.38931 2.06897C7.54609 2.06897 6.864 2.75106 6.864 3.59428V12.7972C6.864 14.0647 6.12819 14.9563 4.43907 14.9563C3.61733 14.9563 3.03191 14.7575 2.58614 14.3628C2.08665 13.917 1.36964 13.8176 0.786909 14.1506L0.773482 14.1587C-0.12076 14.6689 -0.273829 15.9123 0.491514 16.5997C1.49049 17.4967 2.83319 17.9612 4.43907 17.9612C7.51118 17.9612 9.91463 16.1593 9.91463 12.7972V3.5916C9.91463 2.74838 9.23253 2.06628 8.38931 2.06628V2.06897Z" fill="currentColor"/>
<path d="M17.6164 6.20654C14.1227 6.20654 11.7407 8.76574 11.7407 12.0822C11.7407 15.3987 14.1012 17.9579 17.8393 17.9579C19.1981 17.9579 20.3689 17.6061 21.3088 16.9616C22.1091 16.4111 22.0581 15.2107 21.2175 14.7247C20.7771 14.4696 20.2266 14.4884 19.8077 14.7811C19.3109 15.1302 18.6503 15.3531 17.8823 15.3531C16.3677 15.3531 15.1431 14.73 14.743 13.2611H22.0527C22.7026 13.2611 23.2423 12.7428 23.245 12.093V12.0795C23.245 8.80871 20.9087 6.20386 17.6137 6.20386L17.6164 6.20654ZM14.7 11.0376C15.033 9.61433 16.0803 8.78991 17.6164 8.78991C18.8195 8.78991 20.0198 9.43441 20.377 11.0376H14.7Z" fill="currentColor"/>
<path d="M26.465 1.40002C25.6728 1.40002 25.0283 2.04184 25.0283 2.83672V16.2154C25.0283 17.0076 25.6701 17.6521 26.465 17.6521C27.2599 17.6521 27.9017 17.0103 27.9017 16.2154V2.83672C27.9017 2.04452 27.2599 1.40002 26.465 1.40002Z" fill="currentColor"/>
<path d="M31.9621 1.40002C31.1699 1.40002 30.5254 2.04184 30.5254 2.83672V16.2154C30.5254 17.0076 31.1672 17.6521 31.9621 17.6521C32.757 17.6521 33.3988 17.0103 33.3988 16.2154V2.83672C33.3988 2.04452 32.757 1.40002 31.9621 1.40002Z" fill="currentColor"/>
<path d="M44.4141 6.51843H44.2637C43.6783 6.51843 43.1573 6.89439 42.9747 7.45027L41.0117 13.3904C40.9445 13.5945 40.6572 13.6025 40.5793 13.4011L38.2537 7.38582C38.0523 6.86217 37.5475 6.51843 36.9862 6.51843H36.8278C35.8557 6.51843 35.1977 7.50935 35.5764 8.40628L39.3037 17.2064C39.3279 17.2601 39.3279 17.3245 39.3064 17.3782C38.909 18.4443 38.3639 19.07 37.4696 19.3117C36.86 19.4755 36.4223 20.0046 36.4223 20.633V20.6625C36.4223 21.5138 37.1984 22.1636 38.0335 21.9971C39.9885 21.6078 41.3769 20.1979 42.3007 17.6468L45.6897 8.33914C46.0119 7.45296 45.3567 6.51575 44.4141 6.51575V6.51843Z" fill="currentColor"/>
<path d="M57.0596 8.47879C54.6991 7.76715 54.1002 7.25424 54.1002 6.29823C54.1002 5.40668 54.8575 4.74069 56.1492 4.74069C57.2341 4.74069 57.9726 5.12739 58.507 5.75309C58.9635 6.28481 59.7503 6.38685 60.3573 6.03775C61.1575 5.57586 61.367 4.49095 60.7654 3.79006C59.6537 2.49838 58.0693 1.75989 56.1492 1.75989C53.4772 1.75989 51.0308 3.4517 51.0308 6.38954C51.0308 9.32738 53.3456 10.3505 55.7276 11.0407C58.0424 11.7093 59.0897 12.1524 59.0897 13.3098C59.0897 14.1772 58.4452 14.956 56.5977 14.956C55.2335 14.956 54.2882 14.4914 53.6545 13.7127C53.1791 13.1272 52.3655 12.9554 51.7156 13.334L51.6162 13.3931C50.8482 13.8416 50.6387 14.8566 51.1651 15.571C52.25 17.0479 54.0573 17.961 56.5091 17.961C59.8255 17.961 62.1618 16.1805 62.1618 13.2642C62.1618 10.082 59.5355 9.25756 57.0649 8.47879H57.0596Z" fill="currentColor"/>
<path d="M70.2158 6.20719C68.9858 6.20719 67.9815 6.58583 67.294 7.28135C67.149 7.42905 66.8993 7.33238 66.8993 7.12291V3.50298C66.8993 2.71078 66.2575 2.06628 65.4626 2.06628C64.6677 2.06628 64.0259 2.7081 64.0259 3.50298V16.213C64.0259 17.0052 64.6677 17.6497 65.4626 17.6497C66.2575 17.6497 66.8993 17.0079 66.8993 16.213V11.6398C66.8993 9.7036 67.9466 8.87917 69.3484 8.87917C70.64 8.87917 71.5531 9.65794 71.5531 11.1725V16.213C71.5531 17.0052 72.1949 17.6497 72.9898 17.6497C73.7847 17.6497 74.4265 17.0079 74.4265 16.213V10.8154C74.4265 7.85603 72.5789 6.20719 70.2184 6.20719H70.2158Z" fill="currentColor"/>
<path d="M82.1682 6.20667C78.8973 6.20667 76.2925 8.76586 76.2925 12.0823C76.2925 15.3988 78.8973 17.958 82.1682 17.958C85.439 17.958 88.068 15.3988 88.068 12.0823C88.068 8.76586 85.4417 6.20667 82.1682 6.20667ZM82.1682 15.1545C80.4764 15.1545 79.1632 13.8869 79.1632 12.0823C79.1632 10.2777 80.4764 9.01023 82.1682 9.01023C83.86 9.01023 85.1946 10.2777 85.1946 12.0823C85.1946 13.8869 83.8815 15.1545 82.1682 15.1545Z" fill="currentColor"/>
<path d="M96.5702 6.20727C95.0745 6.20727 93.9546 6.7175 93.1624 7.59563C93.0926 7.67351 92.9637 7.62248 92.9637 7.51775C92.9637 7.49627 92.9584 7.47747 92.9584 7.45867C92.9584 7.43988 92.9557 7.42108 92.953 7.40497C92.9476 7.36468 92.9449 7.3244 92.9342 7.28681C92.7999 6.63425 92.2225 6.14282 91.527 6.14282C90.8315 6.14282 90.2568 6.63425 90.1199 7.28681C90.1118 7.3244 90.1064 7.36468 90.1011 7.40497C90.1011 7.42376 90.0984 7.43988 90.0957 7.45867C90.0957 7.47747 90.0903 7.49896 90.0903 7.51775V20.6628C90.0903 21.455 90.7321 22.0995 91.527 22.0995C92.3219 22.0995 92.9342 21.4846 92.961 20.7139V20.7219V20.6628V16.6455C92.961 16.5407 93.0899 16.4924 93.1598 16.5676C93.952 17.4484 95.0718 17.9559 96.5675 17.9559C99.551 17.9559 101.997 15.3968 101.997 12.0803C101.997 8.76378 99.5484 6.20459 96.5675 6.20459L96.5702 6.20727ZM96.0358 15.2222C94.2769 15.2222 92.9637 13.9547 92.9637 12.083C92.9637 10.2112 94.2769 8.94371 96.0358 8.94371C97.7948 8.94371 99.1294 10.2112 99.1294 12.083C99.1294 13.9547 97.8163 15.2222 96.0358 15.2222Z" fill="currentColor"/>
</g>
<defs>
<clipPath id="clip0_10055_18548"><rect width="102" height="24" fill="white"/>
</clipPath>
</defs>
</svg>
