<svg viewBox="0 0 80 22" fill="none" xmlns="http://www.w3.org/2000/svg">
<g clip-path="url(#clip0_59491_13513)">
<path d="M77.0022 7.23901H79.1979V9.4782H77.0022V14.3914C77.0022 14.8551 77.1109 15.1957 77.3283 15.4131C77.5457 15.616 77.8862 15.7175 78.35 15.7175C78.5239 15.7175 78.6979 15.7102 78.8718 15.6957C79.0457 15.6668 79.1616 15.645 79.2196 15.6305V17.7175C79.1471 17.7465 78.9877 17.79 78.7413 17.848C78.495 17.9204 78.1399 17.9567 77.6761 17.9567C76.6906 17.9567 75.9152 17.6813 75.3499 17.1306C74.7847 16.5798 74.5021 15.8044 74.5021 14.8044V9.4782H72.5455V7.23901H73.089C73.6543 7.23901 74.0673 7.07959 74.3282 6.76074C74.5891 6.44189 74.7195 6.05057 74.7195 5.58679V3.9998H77.0022V7.23901Z" fill="currentColor"/>
<path d="M69.3333 11.3696C69.3188 11.0652 69.2536 10.7754 69.1377 10.5C69.0362 10.2101 68.8768 9.9565 68.6594 9.7391C68.442 9.5217 68.1739 9.34779 67.855 9.21735C67.5362 9.08691 67.1593 9.02169 66.7246 9.02169C66.3332 9.02169 65.9782 9.09416 65.6593 9.23909C65.355 9.36953 65.0941 9.55069 64.8767 9.78258C64.6593 9.99998 64.4854 10.2536 64.3549 10.5435C64.2245 10.8188 64.152 11.0942 64.1375 11.3696H69.3333ZM71.7464 14.8044C71.6015 15.2682 71.3913 15.703 71.116 16.1088C70.8406 16.5146 70.5 16.8697 70.0942 17.1741C69.6884 17.4784 69.2246 17.7176 68.7029 17.8915C68.1811 18.0654 67.6014 18.1524 66.9637 18.1524C66.239 18.1524 65.5506 18.0292 64.8984 17.7828C64.2462 17.5219 63.6738 17.1523 63.181 16.6741C62.6882 16.1813 62.2897 15.5871 61.9853 14.8914C61.6954 14.1812 61.5505 13.3769 61.5505 12.4783C61.5505 11.6377 61.6882 10.8768 61.9636 10.1956C62.2534 9.51446 62.6375 8.93473 63.1158 8.45646C63.594 7.96369 64.1448 7.58687 64.768 7.326C65.3912 7.05063 66.0361 6.91294 66.7028 6.91294C67.5144 6.91294 68.2391 7.04338 68.8768 7.30426C69.529 7.56513 70.0725 7.93471 70.5073 8.41298C70.9565 8.89125 71.2971 9.47098 71.529 10.1522C71.7609 10.8188 71.8769 11.5725 71.8769 12.4131C71.8769 12.616 71.8696 12.7972 71.8551 12.9566C71.8406 13.1015 71.8261 13.1885 71.8116 13.2175H64.0723C64.0868 13.6233 64.1738 13.9928 64.3332 14.3262C64.4926 14.6595 64.7028 14.9494 64.9636 15.1958C65.2245 15.4421 65.5216 15.6378 65.855 15.7827C66.2028 15.9132 66.5724 15.9784 66.9637 15.9784C67.7318 15.9784 68.3188 15.8045 68.7246 15.4566C69.1449 15.0943 69.442 14.6523 69.6159 14.1305L71.7464 14.8044Z" fill="currentColor"/>
<path d="M57.0813 11.7174L61.5162 17.8262H58.4292L55.3204 13.5L54.016 14.8696V17.8262H51.516V2.08668H54.016V11.5217L58.0813 7.23898H61.4293L57.0813 11.7174Z" fill="currentColor"/>
<path d="M44.8891 9.23909C44.4978 9.23909 44.1282 9.31156 43.7804 9.45649C43.4325 9.60142 43.1209 9.81157 42.8456 10.0869C42.5847 10.3623 42.3745 10.7029 42.2151 11.1087C42.0557 11.5145 41.976 11.9855 41.976 12.5218C41.976 13.058 42.0557 13.5363 42.2151 13.9566C42.3745 14.3624 42.5847 14.7102 42.8456 15.0001C43.1209 15.2755 43.4398 15.4856 43.8021 15.6306C44.1644 15.7755 44.5412 15.848 44.9326 15.848C45.3384 15.848 45.6935 15.7827 45.9978 15.6523C46.3167 15.5219 46.5775 15.3624 46.7804 15.174C46.9978 14.9711 47.1717 14.761 47.3022 14.5436C47.4326 14.3117 47.5268 14.0943 47.5848 13.8914L49.8022 14.6957C49.6718 15.116 49.4762 15.5291 49.2153 15.9349C48.9544 16.3407 48.6211 16.7103 48.2153 17.0436C47.8239 17.377 47.3529 17.6451 46.8022 17.848C46.2514 18.0509 45.6282 18.1524 44.9326 18.1524C44.1499 18.1524 43.4253 18.0147 42.7586 17.7393C42.0919 17.4494 41.5122 17.0509 41.0194 16.5436C40.5411 16.0364 40.1571 15.4421 39.8672 14.761C39.5918 14.0798 39.4542 13.3334 39.4542 12.5218C39.4542 11.7102 39.5918 10.9638 39.8672 10.2826C40.1426 9.58692 40.5267 8.99271 41.0194 8.49994C41.5122 7.99268 42.0847 7.60137 42.7369 7.326C43.389 7.05063 44.0992 6.91294 44.8673 6.91294C45.5775 6.91294 46.208 7.0144 46.7587 7.2173C47.3094 7.4202 47.7877 7.68832 48.1935 8.02167C48.5993 8.34052 48.9254 8.71009 49.1718 9.13039C49.4182 9.55069 49.5993 9.97099 49.7153 10.3913L47.4544 11.2174C47.3964 10.9855 47.3022 10.7536 47.1717 10.5217C47.0558 10.2753 46.8891 10.058 46.6717 9.86954C46.4688 9.68113 46.2225 9.52895 45.9326 9.41301C45.6427 9.29706 45.2949 9.23909 44.8891 9.23909Z" fill="currentColor"/>
<path d="M35.0456 17.8262V7.23896H37.5457V17.8262H35.0456ZM34.6543 3.52148C34.6543 3.0577 34.8137 2.66638 35.1326 2.34754C35.4514 2.02869 35.8355 1.86926 36.2848 1.86926C36.7485 1.86926 37.1398 2.02869 37.4587 2.34754C37.7775 2.66638 37.937 3.0577 37.937 3.52148C37.937 3.98526 37.7775 4.37657 37.4587 4.69542C37.1398 4.99978 36.7485 5.15195 36.2848 5.15195C35.8355 5.15195 35.4514 4.99978 35.1326 4.69542C34.8137 4.37657 34.6543 3.98526 34.6543 3.52148Z" fill="currentColor"/>
<path d="M30.9752 7.23901H33.1709V9.4782H30.9752V14.3914C30.9752 14.8551 31.0839 15.1957 31.3013 15.4131C31.5187 15.616 31.8593 15.7175 32.323 15.7175C32.497 15.7175 32.6709 15.7102 32.8448 15.6957C33.0187 15.6668 33.1347 15.645 33.1926 15.6305V17.7175C33.1202 17.7465 32.9607 17.79 32.7144 17.848C32.468 17.9204 32.1129 17.9567 31.6491 17.9567C30.6636 17.9567 29.8882 17.6813 29.323 17.1306C28.7577 16.5798 28.4751 15.8044 28.4751 14.8044V9.4782H26.5186V7.23901H27.062C27.6273 7.23901 28.0403 7.07959 28.3012 6.76074C28.5621 6.44189 28.6925 6.05057 28.6925 5.58679V3.9998H30.9752V7.23901Z" fill="currentColor"/>
<g clip-path="url(#clip1_59491_13513)">
<path d="M0 11.0006C0 3.08114 3.07992 0.0012207 10.9994 0.0012207C18.9189 0.0012207 21.9988 3.08114 21.9988 11.0006C21.9988 18.9201 18.9189 22 10.9994 22C3.07992 22 0 18.9201 0 11.0006Z" fill="#00CBD5"/>
<path fill-rule="evenodd" clip-rule="evenodd" d="M17.3247 5.86768C17.8309 5.86768 18.2413 6.27806 18.2413 6.78429V9.30688C18.2413 9.48996 18.0919 9.6355 17.9144 9.67693C17.2527 9.83139 16.7603 10.4267 16.7603 11.1382C16.7603 11.8497 17.2528 12.4445 17.9144 12.5989C18.0919 12.6402 18.2413 12.7858 18.2413 12.9689V15.4921C18.2413 15.9984 17.8309 16.4088 17.3247 16.4088H7.42527C5.4003 16.4088 3.75875 14.7672 3.75879 12.7422L3.75891 7.15095C3.75892 6.44224 4.33345 5.86772 5.04217 5.86772L17.3247 5.86768Z" fill="white"/>
<path d="M6.92614 9.07179C7.74863 8.63343 8.43457 8.65844 8.70656 8.80504C8.809 8.85792 9.25936 9.13569 9.13891 9.89352L8.91244 11.2819C8.82671 11.9027 8.82805 12.237 9.18098 12.237C9.38774 12.2367 9.84094 12.0116 10.1039 11.1351C10.1565 10.9591 10.2094 10.7787 10.2328 10.5971L10.4548 8.96974C10.461 8.92416 10.5011 8.8902 10.5487 8.89007H11.6945C11.7517 8.89007 11.7959 8.93824 11.7894 8.99301L11.5056 11.3374C11.4199 11.9953 11.5055 12.237 11.7724 12.237C12.0774 12.237 12.6342 11.9866 12.8367 10.589C12.8367 10.589 12.9799 9.67114 12.9468 8.98585C12.9446 8.93262 12.988 8.88885 13.0426 8.88918H14.1015C14.1526 8.8894 14.1943 8.92823 14.1964 8.9778C14.2095 9.27402 14.3483 10.211 15.0146 10.6481C15.0501 10.6715 15.0675 10.7129 15.0548 10.7528C14.9929 10.9484 14.8255 11.4426 14.7559 11.6489C14.7383 11.7006 14.6786 11.7279 14.627 11.7062C14.4363 11.626 14.2054 11.4732 14.089 11.3741C14.0738 11.361 14.0494 11.3694 14.0442 11.3884C13.6127 12.9324 12.6025 13.4749 11.5334 13.4749C10.8193 13.4749 10.4297 13.1614 10.282 12.7096C10.2743 12.6874 10.2447 12.6837 10.231 12.7033C9.66042 13.5117 8.76228 13.4752 8.7558 13.4749C7.76447 13.4749 7.4369 12.709 7.58944 11.6059L7.81233 10.2605C7.81955 10.2056 7.82804 10.0666 7.74967 9.99288C7.68817 9.93523 7.59371 9.93644 7.53036 9.94275C7.48835 9.94676 7.41448 9.96918 7.34149 9.99556C7.29294 10.0133 7.23862 9.98973 7.21796 9.94364L6.88318 9.19352C6.86332 9.1488 6.88212 9.09514 6.92614 9.07179Z" fill="#01D5DF"/>
</g>
</g>
<defs>
<clipPath id="clip0_59491_13513"><rect width="80" height="22" fill="white"/>
</clipPath>
<clipPath id="clip1_59491_13513">
<rect fill="white" transform="translate(0 0.0012207)"/>
</clipPath>
</defs>
</svg>
