<svg viewBox="0 0 94 24" fill="none" xmlns="http://www.w3.org/2000/svg">
<path d="M85.594 11.0571H90.9017C90.8573 9.79122 90.0134 8.65859 88.2367 8.65859C86.6155 8.65859 85.6828 9.90226 85.594 11.0571ZM91.1904 13.8775L93.3668 14.566C92.7894 16.4537 91.0794 17.9861 88.481 17.9861C85.5495 17.9861 82.9512 15.8541 82.9512 12.1897C82.9512 8.76964 85.4829 6.50439 88.2145 6.50439C91.5458 6.50439 93.5001 8.70301 93.5001 12.1231C93.5001 12.545 93.4557 12.9004 93.4335 12.9448H85.5273C85.5939 14.5882 86.882 15.7652 88.481 15.7652C90.0356 15.7652 90.8351 14.9435 91.1904 13.8775Z" fill="currentColor"/>
<path d="M73.8398 11.4125V17.6531H71.2637V6.83765H73.7732V8.28119C74.4839 7.03752 75.7719 6.52673 76.9712 6.52673C79.614 6.52673 80.8798 8.43664 80.8798 10.8129V17.6531H78.3037V11.2571C78.3037 9.9246 77.7041 8.8586 76.0829 8.8586C74.6171 8.8586 73.8398 9.99122 73.8398 11.4125Z" fill="currentColor"/>
<path d="M68.4034 17.653H65.8495V6.83761H68.4034V17.653ZM65.4497 3.04C65.4497 2.10725 66.2048 1.35217 67.1153 1.35217C68.0481 1.35217 68.8032 2.10725 68.8032 3.04C68.8032 3.97275 68.0481 4.70562 67.1153 4.70562C66.2048 4.70562 65.4497 3.97275 65.4497 3.04Z" fill="currentColor"/>
<path d="M63.5777 17.6531H54.7388V15.41L60.2242 9.10289H54.8498V6.83765H63.4666V9.01405L57.9145 15.3878H63.5777V17.6531Z" fill="currentColor"/>
<path d="M43.186 14.7214C43.186 12.7893 44.6074 11.7233 46.4506 11.4568L49.2267 11.0349C49.8485 10.946 50.0262 10.6351 50.0262 10.2576C50.0262 9.34705 49.4043 8.61418 47.983 8.61418C46.6283 8.61418 45.8732 9.4803 45.7622 10.5685L43.4081 10.0355C43.608 8.17001 45.2958 6.50439 47.9608 6.50439C51.292 6.50439 52.5579 8.3921 52.5579 10.5463V15.9207C52.5579 16.8979 52.669 17.5419 52.6912 17.6529H50.2927C50.2705 17.5863 50.1816 17.1421 50.1816 16.276C49.6708 17.0977 48.6048 17.9861 46.8504 17.9861C44.5852 17.9861 43.186 16.4315 43.186 14.7214ZM47.339 15.9651C48.7825 15.9651 50.0262 15.2767 50.0262 13.1669V12.6783L47.2057 13.1002C46.4062 13.2335 45.7622 13.6777 45.7622 14.566C45.7622 15.2989 46.3174 15.9651 47.339 15.9651Z" fill="currentColor"/>
<path d="M30.2891 18.2526L32.6653 17.6308C32.843 18.9633 33.8868 19.9626 35.3748 19.9626C37.4179 19.9626 38.4395 18.9189 38.4395 16.7202V15.5876C37.9731 16.4315 36.8849 17.1644 35.3081 17.1644C32.4211 17.1644 30.3113 14.9436 30.3113 11.9011C30.3113 9.01398 32.3322 6.6377 35.3081 6.6377C36.996 6.6377 38.0397 7.32615 38.5061 8.21448V6.83757H40.9934V16.6314C40.9934 19.5185 39.5055 22.2057 35.4414 22.2057C32.5765 22.2057 30.5778 20.429 30.2891 18.2526ZM35.7301 14.9658C37.3735 14.9658 38.5061 13.7665 38.5061 11.9011C38.5061 10.0578 37.3291 8.85852 35.7301 8.85852C34.0867 8.85852 32.9096 10.0578 32.9096 11.9011C32.9096 13.7888 34.0423 14.9658 35.7301 14.9658Z" fill="currentColor"/>
<path d="M18.8242 14.7214C18.8242 12.7893 20.2455 11.7233 22.0888 11.4568L24.8649 11.0349C25.4867 10.946 25.6644 10.6351 25.6644 10.2576C25.6644 9.34705 25.0425 8.61418 23.6212 8.61418C22.2665 8.61418 21.5114 9.4803 21.4004 10.5685L19.0463 10.0355C19.2462 8.17001 20.934 6.50439 23.599 6.50439C26.9302 6.50439 28.1961 8.3921 28.1961 10.5463V15.9207C28.1961 16.8979 28.3071 17.5419 28.3294 17.6529H25.9309C25.9087 17.5863 25.8198 17.1421 25.8198 16.276C25.309 17.0977 24.243 17.9861 22.4886 17.9861C20.2233 17.9861 18.8242 16.4315 18.8242 14.7214ZM22.9772 15.9651C24.4207 15.9651 25.6644 15.2767 25.6644 13.1669V12.6783L22.8439 13.1002C22.0444 13.2335 21.4004 13.6777 21.4004 14.566C21.4004 15.2989 21.9556 15.9651 22.9772 15.9651Z" fill="currentColor"/>
<path d="M3.05395 17.6531H0.5V6.83765H2.96512V8.21456C3.58695 7.10415 4.94165 6.52673 6.1631 6.52673C7.58443 6.52673 8.82809 7.17077 9.40551 8.43664C10.2494 7.01531 11.5153 6.52673 12.9144 6.52673C14.8687 6.52673 16.7342 7.7704 16.7342 10.6353V17.6531H14.2469V11.0572C14.2469 9.79135 13.6029 8.83639 12.1593 8.83639C10.8046 8.83639 9.9163 9.90239 9.9163 11.2349V17.6531H7.38456V11.0572C7.38456 9.81355 6.76273 8.83639 5.29698 8.83639C3.92007 8.83639 3.05395 9.85797 3.05395 11.2349V17.6531Z" fill="currentColor"/>
</svg>
