<svg viewBox="0 0 190 24" fill="none" xmlns="http://www.w3.org/2000/svg">
<path d="M74.556 4.17627V7.45468H76.7782V9.72096H74.556V14.6936C74.556 15.6397 74.974 16.0357 75.9201 16.0357C76.2722 16.0357 76.6902 15.9697 76.8002 15.9477V18.06C76.6462 18.126 76.1622 18.302 75.2381 18.302C73.2578 18.302 72.0257 17.1139 72.0257 15.1116V9.72096H70.0454V7.45468H70.5955C71.7396 7.45468 72.2457 6.72859 72.2457 5.78247V4.17627H74.556Z" fill="currentColor"/>
<path d="M61.8077 11.9872V18.17H59.2554V7.45465H61.7417V8.88482C62.4458 7.65267 63.7219 7.14661 64.9101 7.14661C67.5284 7.14661 68.7826 9.03884 68.7826 11.3931V18.17H66.2302V11.8332C66.2302 10.513 65.6362 9.45689 64.03 9.45689C62.5778 9.45689 61.8077 10.579 61.8077 11.9872Z" fill="currentColor"/>
<path d="M54.2104 16.9819C53.6823 17.95 52.4281 18.4781 51.174 18.4781C48.6217 18.4781 47.1255 16.5858 47.1255 14.2096V7.45471H49.6778V13.7475C49.6778 15.0677 50.2939 16.1898 51.8341 16.1898C53.3083 16.1898 54.0784 15.1997 54.0784 13.7915V7.45471H56.6307V16.2118C56.6307 17.0919 56.6967 17.774 56.7407 18.17H54.2984C54.2544 17.928 54.2104 17.422 54.2104 16.9819Z" fill="currentColor"/>
<path d="M39.7346 16.2118C41.3188 16.2118 42.727 15.0456 42.727 12.8013C42.727 10.5791 41.3188 9.43492 39.7346 9.43492C38.1724 9.43492 36.7423 10.5791 36.7423 12.8013C36.7423 15.0236 38.1724 16.2118 39.7346 16.2118ZM39.7346 7.12463C42.947 7.12463 45.3013 9.52293 45.3013 12.8013C45.3013 16.1017 42.947 18.5 39.7346 18.5C36.5442 18.5 34.1899 16.1017 34.1899 12.8013C34.1899 9.52293 36.5442 7.12463 39.7346 7.12463Z" fill="currentColor"/>
<path d="M28.1652 9.47893C26.603 9.47893 25.2169 10.6451 25.2169 12.8013C25.2169 14.9576 26.603 16.1678 28.2092 16.1678C29.8814 16.1678 30.6515 15.0016 30.8936 14.1875L33.1379 15.0016C32.6318 16.6738 31.0256 18.5 28.2092 18.5C25.0628 18.5 22.6646 16.0577 22.6646 12.8013C22.6646 9.50093 25.0628 7.12463 28.1432 7.12463C31.0256 7.12463 32.6098 8.92886 33.0498 10.6451L30.7616 11.4812C30.5195 10.5351 29.7934 9.47893 28.1652 9.47893Z" fill="currentColor"/>
<path d="M16.6394 9.47893C15.0772 9.47893 13.691 10.6451 13.691 12.8013C13.691 14.9576 15.0772 16.1678 16.6834 16.1678C18.3556 16.1678 19.1257 15.0016 19.3677 14.1875L21.612 15.0016C21.1059 16.6738 19.4997 18.5 16.6834 18.5C13.537 18.5 11.1387 16.0577 11.1387 12.8013C11.1387 9.50093 13.537 7.12463 16.6174 7.12463C19.4997 7.12463 21.0839 8.92886 21.524 10.6451L19.2357 11.4812C18.9936 10.5351 18.2676 9.47893 16.6394 9.47893Z" fill="currentColor"/>
<path d="M0 15.2656C0 13.3514 1.40817 12.2953 3.2344 12.0312L5.98474 11.6132C6.60082 11.5252 6.77684 11.2171 6.77684 10.8431C6.77684 9.94098 6.16077 9.21489 4.75259 9.21489C3.41042 9.21489 2.66233 10.073 2.55232 11.1511L0.220027 10.6231C0.418052 8.77484 2.09026 7.12463 4.73059 7.12463C8.031 7.12463 9.28515 8.99487 9.28515 11.1291V16.4538C9.28515 17.4219 9.39517 18.06 9.41717 18.17H7.04087C7.01887 18.104 6.93086 17.6639 6.93086 16.8058C6.4248 17.6199 5.36867 18.5 3.63045 18.5C1.38617 18.5 0 16.9599 0 15.2656ZM4.11451 16.4978C5.54469 16.4978 6.77684 15.8157 6.77684 13.7255V13.2414L3.98249 13.6594C3.1904 13.7915 2.55232 14.2315 2.55232 15.1116C2.55232 15.8377 3.10239 16.4978 4.11451 16.4978Z" fill="currentColor"/>
<path d="M181.277 15.4198L182.487 15.0017C182.686 16.2999 183.632 17.312 185.37 17.312C186.69 17.312 187.702 16.5639 187.702 15.4418C187.702 14.4736 187.042 13.9456 185.92 13.6815L184.226 13.2855C182.664 12.9335 181.651 12.0093 181.651 10.4911C181.651 8.79694 183.28 7.41077 185.194 7.41077C187.658 7.41077 188.648 8.86295 188.956 10.1171L187.79 10.5572C187.614 9.54503 186.844 8.55491 185.194 8.55491C184.028 8.55491 182.95 9.281 182.95 10.4031C182.95 11.2612 183.5 11.8333 184.6 12.0753L186.272 12.4494C188.032 12.8674 189 13.8356 189 15.3538C189 16.9159 187.702 18.4561 185.348 18.4561C182.796 18.4561 181.453 16.8279 181.277 15.4198Z" fill="currentColor"/>
<path d="M171.938 15.4198L173.149 15.0017C173.347 16.2999 174.293 17.312 176.031 17.312C177.351 17.312 178.363 16.5639 178.363 15.4418C178.363 14.4736 177.703 13.9456 176.581 13.6815L174.887 13.2855C173.325 12.9335 172.313 12.0093 172.313 10.4911C172.313 8.79694 173.941 7.41077 175.855 7.41077C178.319 7.41077 179.309 8.86295 179.617 10.1171L178.451 10.5572C178.275 9.54503 177.505 8.55491 175.855 8.55491C174.689 8.55491 173.611 9.281 173.611 10.4031C173.611 11.2612 174.161 11.8333 175.261 12.0753L176.933 12.4494C178.693 12.8674 179.661 13.8356 179.661 15.3538C179.661 16.9159 178.363 18.4561 176.009 18.4561C173.457 18.4561 172.114 16.8279 171.938 15.4198Z" fill="currentColor"/>
<path d="M162.033 12.0755H169.03C168.964 10.1393 167.732 8.57706 165.532 8.57706C163.573 8.57706 162.143 10.1393 162.033 12.0755ZM169.184 14.7818L170.35 15.1999C169.756 16.9821 168.172 18.4563 165.752 18.4563C162.979 18.4563 160.647 16.41 160.647 12.8896C160.647 9.61119 162.891 7.38892 165.51 7.38892C168.568 7.38892 170.416 9.61119 170.416 12.6916C170.416 12.8676 170.416 12.9996 170.394 13.1756H161.989V13.2636C161.989 15.6619 163.705 17.2681 165.752 17.2681C167.622 17.2681 168.744 16.168 169.184 14.7818Z" fill="currentColor"/>
<path d="M151.205 11.8993V18.1701H149.885V7.6748H151.161V9.34701C151.755 8.22487 152.966 7.41077 154.572 7.41077C157.036 7.41077 158.29 9.14898 158.29 11.3273V18.1701H156.97V11.5473C156.97 9.89708 156.156 8.59891 154.132 8.59891C152.306 8.59891 151.205 10.1171 151.205 11.8993Z" fill="currentColor"/>
<path d="M146.701 18.1701H145.38V7.67482H146.701V18.1701ZM144.94 3.31828C144.94 2.6802 145.424 2.21814 146.041 2.21814C146.657 2.21814 147.141 2.6802 147.141 3.31828C147.141 3.95636 146.657 4.41841 146.041 4.41841C145.424 4.41841 144.94 3.95636 144.94 3.31828Z" fill="currentColor"/>
<path d="M135.161 15.4198L136.371 15.0017C136.569 16.2999 137.515 17.312 139.254 17.312C140.574 17.312 141.586 16.5639 141.586 15.4418C141.586 14.4736 140.926 13.9456 139.804 13.6815L138.11 13.2855C136.547 12.9335 135.535 12.0093 135.535 10.4911C135.535 8.79694 137.163 7.41077 139.078 7.41077C141.542 7.41077 142.532 8.86295 142.84 10.1171L141.674 10.5572C141.498 9.54503 140.728 8.55491 139.078 8.55491C137.911 8.55491 136.833 9.281 136.833 10.4031C136.833 11.2612 137.383 11.8333 138.484 12.0753L140.156 12.4494C141.916 12.8674 142.884 13.8356 142.884 15.3538C142.884 16.9159 141.586 18.4561 139.232 18.4561C136.679 18.4561 135.337 16.8279 135.161 15.4198Z" fill="currentColor"/>
<path d="M131.596 16.6959V16.5419C131.09 17.576 129.968 18.4561 128.295 18.4561C125.655 18.4561 124.379 16.4759 124.379 14.2756V7.6748H125.699V14.0556C125.699 15.7278 126.491 17.268 128.537 17.268C130.408 17.268 131.508 15.8378 131.508 14.0776V7.6748H132.828V16.1679C132.828 16.96 132.894 17.7081 132.96 18.1701H131.706C131.64 17.9281 131.596 17.378 131.596 16.6959Z" fill="currentColor"/>
<path d="M113.441 18.17H112.143V2.28406H113.463V9.69898C113.925 8.66485 115.157 7.38869 117.269 7.38869C120.196 7.38869 122.022 9.80899 122.022 12.9114C122.022 16.0138 120.13 18.4561 117.225 18.4561C115.201 18.4561 113.969 17.2459 113.441 16.1238V18.17ZM117.071 17.2679C119.227 17.2679 120.702 15.4637 120.702 12.9114C120.702 10.3811 119.227 8.57684 117.071 8.57684C114.893 8.57684 113.441 10.3811 113.441 12.9114C113.441 15.4637 114.893 17.2679 117.071 17.2679Z" fill="currentColor"/>
<path d="M106.768 7.65298V9.03915C106.504 8.97315 106.196 8.92914 105.844 8.92914C104.062 8.92914 102.742 10.0733 102.742 12.4716V18.1703H101.421V7.67498H102.72V9.63323C103.358 8.15905 104.546 7.54297 105.954 7.54297C106.306 7.54297 106.57 7.58697 106.768 7.65298Z" fill="currentColor"/>
<path d="M93.7342 18.4561C90.8298 18.4561 88.5195 16.1899 88.5195 12.9335C88.5195 9.63304 90.7858 7.41077 93.7342 7.41077C96.6385 7.41077 98.9488 9.63304 98.9488 12.9335C98.9488 16.1899 96.6385 18.4561 93.7342 18.4561ZM89.8617 12.9335C89.8617 15.6618 91.6879 17.268 93.7342 17.268C95.7804 17.268 97.6067 15.6618 97.6067 12.9335C97.6067 10.1831 95.7804 8.59891 93.7342 8.59891C91.6879 8.59891 89.8617 10.1831 89.8617 12.9335Z" fill="currentColor"/>
<path d="M87.7592 8.86287H84.8329V18.17H83.5127V8.86287H81.3564V7.67472H83.5127V5.49645C83.5127 3.27418 84.8769 2.10803 86.6371 2.10803C87.1872 2.10803 87.5832 2.21805 87.8252 2.32806V3.51621C87.6272 3.4282 87.2972 3.34018 86.8351 3.34018C85.779 3.34018 84.8329 3.89025 84.8329 5.56246V7.67472H87.7592V8.86287Z" fill="currentColor"/>
</svg>
