<svg viewBox="0 0 175 24" fill="none" xmlns="http://www.w3.org/2000/svg">
<path d="M64.2813 9.54727C64.3615 9.54727 64.4416 9.54727 64.5218 9.55809C64.725 9.59057 64.9388 9.6934 64.9602 9.95319C65.0244 10.7217 65.1848 12.064 66.81 12.9354C68.8737 14.0449 71.0656 14.2397 71.0282 15.1328C70.9747 16.291 68.3765 16.2856 65.698 15.1544C65.5911 15.1111 65.4681 15.149 65.404 15.2464L64.1476 17.5737C64.0728 17.6874 64.1155 17.8443 64.2331 17.9093C64.8533 18.2611 67.2217 19.1866 69.8734 19.0783C73.1025 18.943 74.7064 16.9567 74.8026 14.6402C74.8026 14.6132 74.824 14.5969 74.8508 14.5969C75.1448 14.624 75.503 14.6186 75.6313 14.6132C75.6527 14.6132 75.6741 14.6294 75.6741 14.6511C75.8238 15.9825 76.6792 18.4721 80.0259 18.8835C83.0305 19.2515 85.5539 18.3314 87.516 16.751C87.6015 16.6861 87.6229 16.567 87.5748 16.4696L86.5483 14.4508C86.4842 14.3263 86.3238 14.2884 86.2169 14.375C84.7627 15.5116 82.977 16.0691 81.8223 16.0366C79.5394 15.9717 79.224 14.992 79.1812 14.7268C79.1759 14.6944 79.2026 14.6619 79.24 14.6619C83.9554 14.9 86.5055 12.2372 86.4788 9.89907C86.4681 8.80578 85.7731 6.91689 83.1267 6.59757C82.8808 6.5651 82.6135 6.54345 82.3141 6.54345C81.9024 6.54345 81.4854 6.59216 81.0738 6.67875C81.0684 6.67875 81.0577 6.67875 81.0524 6.67875C81.0203 6.68417 80.9882 6.69499 80.9562 6.7004C79.9992 6.92231 79.1171 7.37153 78.3579 8.00477C77.1817 8.97357 76.2675 10.3808 75.92 12.1506C75.92 12.1722 75.8986 12.1939 75.8719 12.1939C75.1288 12.2318 73.9526 12.0694 73.14 11.9395C72.862 11.9016 72.5679 11.8475 72.2739 11.788C72.2632 11.788 72.2525 11.788 72.2525 11.788C71.4452 11.6148 70.5898 11.3604 69.7718 10.9707C67.3393 9.81247 69.7184 8.03183 72.6962 9.80706C72.8032 9.87201 72.9422 9.83953 73.0117 9.73129L74.2627 7.83157C74.3375 7.71791 74.3054 7.56096 74.1878 7.4906C73.3485 6.99267 69.7398 5.39063 66.516 7.55013C66.516 7.55013 65.4895 6.62463 63.9712 6.62463C61.822 6.62463 61.0361 7.90734 61.0361 7.90734L61.2179 6.81947C61.2446 6.67334 61.1323 6.53803 60.9826 6.53803H58.0957C57.9727 6.53803 57.8658 6.63546 57.8604 6.75994C57.807 7.60426 57.5557 10.6243 56.6896 12.2534C55.3691 14.8026 52.2308 16.0745 50.4987 16.0258C48.2158 15.9608 47.9004 14.9812 47.8576 14.716C47.8523 14.6835 47.879 14.6511 47.9164 14.6511C52.6318 14.8892 55.182 12.2264 55.1552 9.88824C55.1445 8.69213 54.3159 6.54345 51.0119 6.53803C48.2105 6.53803 45.7993 8.4161 44.8477 11.29C44.837 11.3225 44.7996 11.3333 44.7782 11.3117C43.7998 10.3862 43.7303 7.64755 43.7303 6.78159C43.7303 6.64628 43.6234 6.54345 43.4951 6.54345H40.9289C40.8006 6.54345 40.6937 6.65169 40.6937 6.78159C40.6937 7.40941 40.6616 9.03851 40.3782 10.4078C39.5763 14.2776 38.197 15.425 37.5447 15.3547C37.117 15.3114 36.962 14.6835 36.8925 14.4616C36.6359 13.6281 35.4437 8.47564 35.048 6.72205C35.0267 6.61381 34.9304 6.53803 34.8235 6.53803H31.5997C31.434 6.53803 31.3217 6.70582 31.3805 6.86277L31.5088 7.20916C33.6366 13.141 28.3332 16.1124 25.6975 16.0366C23.4146 15.9717 23.0992 14.992 23.0564 14.7268C23.0511 14.6944 23.0778 14.6619 23.1153 14.6619C27.8306 14.9 30.3808 12.2372 30.3541 9.89907C30.3434 8.70295 29.5147 6.54345 26.2107 6.53803C23.297 6.53803 20.8057 8.57847 19.9396 11.6527C19.9289 11.6905 19.8861 11.7068 19.854 11.6797C18.3999 10.4241 18.2502 8.0643 18.2128 7.27411C18.2074 7.14421 18.1005 7.04679 17.9775 7.04679H15.3418C15.2082 7.04679 15.1012 7.16045 15.1066 7.29576C15.1921 9.0764 14.8339 11.4632 14.8339 11.4632C14.3314 15.0949 12.9414 15.7443 12.1822 15.7443C11.5193 15.7443 11.3054 15.1165 11.5193 13.4116L12.225 7.32282C12.241 7.1821 12.1341 7.05761 11.9897 7.05761H9.1402C9.02258 7.05761 8.921 7.14421 8.90496 7.26869L8.3543 11.4957C8.29549 11.9666 8.16718 12.4374 8.03353 12.8921C7.37594 15.1706 6.24788 15.7552 5.73465 15.7552C4.85786 15.7552 4.85252 14.8892 5.06637 13.2763L5.63307 9.67175C5.93246 7.70168 4.80975 6.98184 4.55847 6.84653C3.8795 6.46767 2.17405 6.40273 0.126446 7.53931C0.0141751 7.59884 -0.0285948 7.73956 0.0195213 7.85322L0.853534 9.80165C0.906996 9.92072 1.04065 9.98025 1.16362 9.93695C1.34539 9.86659 1.52716 9.81247 1.62874 9.80165C1.78378 9.78541 2.02436 9.78 2.17405 9.93154C2.37186 10.121 2.34513 10.4836 2.32909 10.6297L1.77309 14.1261C1.3935 16.9892 2.21148 18.9809 4.67609 18.9809C4.67609 18.9809 6.92686 19.0837 8.34895 16.9675C8.38103 16.9188 8.45053 16.9296 8.46657 16.9838C8.83012 18.1636 9.80313 18.9809 11.5834 18.9809C14.294 18.9809 16.8548 17.525 17.8973 13.3359C17.908 13.298 17.9508 13.2926 17.9722 13.3196C18.2448 13.7472 18.8757 14.256 19.5226 14.5212C19.544 14.5266 19.5547 14.5482 19.5547 14.5699C19.5707 14.9487 19.8487 18.4018 23.9011 18.9051C28.0766 19.4193 31.4768 17.3085 33.503 14.5591L34.3049 16.632C34.3049 16.632 35.1122 18.9701 36.9139 18.9701C39.1807 18.9701 41.4635 16.8972 42.752 13.5578C42.8161 13.4008 42.8696 13.2439 42.923 13.0869C42.9337 13.0544 42.9765 13.0436 42.9979 13.0707C43.3775 13.4766 43.8212 13.7743 44.3184 14.007C44.3291 14.007 44.3345 14.0232 44.3345 14.0341C44.2596 14.9217 44.6873 18.4018 48.7077 18.8997C51.9101 19.2948 54.5725 18.2178 56.5773 16.4479C56.6094 16.4209 56.6575 16.4479 56.6522 16.4912L56.3795 18.7157C56.3635 18.8564 56.4704 18.9863 56.6148 18.9863H59.5391C59.6621 18.9863 59.7637 18.8943 59.7744 18.7752L60.2235 14.6565C60.4694 12.3941 61.2072 11.2576 62.0519 10.4836C62.934 9.70423 63.9605 9.59057 64.3026 9.57974L64.2813 9.54727ZM22.9976 12.1343C23.2008 10.9382 23.8584 10.2184 24.6175 9.73129C25.8204 8.95733 27.0073 9.06016 27.3067 9.55809C27.5954 10.0344 27.5045 10.9653 25.9862 11.7338C25.0666 12.1993 24.1685 12.2697 23.0564 12.2047C23.019 12.2047 22.9923 12.1668 22.9976 12.1343ZM47.8042 12.1343C48.0073 10.9382 48.6649 10.2184 49.4241 9.73129C50.627 8.95192 51.8138 9.06016 52.1132 9.55809C52.4019 10.0344 52.311 10.9653 50.7927 11.7338C49.8732 12.1993 48.975 12.2697 47.863 12.2047C47.8255 12.2047 47.7988 12.1668 47.8042 12.1343ZM79.1331 12.1398C79.3363 10.9436 79.9938 10.2238 80.753 9.7367C81.9559 8.95733 83.1428 9.06558 83.4422 9.56351C83.7309 10.0398 83.64 10.9707 82.1216 11.7392C81.2021 12.2047 80.3039 12.2751 79.1919 12.2101C79.1545 12.2101 79.1277 12.1722 79.1384 12.1398H79.1331Z" fill="#00CBD5"/>
<path d="M171.691 3.71716V7.25085H174.086V9.6936H171.691V15.0534C171.691 16.0732 172.141 16.5001 173.161 16.5001C173.541 16.5001 173.991 16.4289 174.11 16.4052V18.682C173.944 18.7531 173.422 18.9428 172.426 18.9428C170.292 18.9428 168.964 17.6622 168.964 15.504V9.6936H166.829V7.25085H167.422C168.655 7.25085 169.201 6.46822 169.201 5.44843V3.71716H171.691Z" fill="currentColor"/>
<path d="M157.95 12.1363V18.8005H155.199V7.25085H157.879V8.79239C158.638 7.46429 160.014 6.91882 161.294 6.91882C164.116 6.91882 165.468 8.9584 165.468 11.496V18.8005H162.717V11.9703C162.717 10.5474 162.077 9.40901 160.346 9.40901C158.78 9.40901 157.95 10.6185 157.95 12.1363Z" fill="currentColor"/>
<path d="M149.762 17.5199C149.192 18.5634 147.841 19.1326 146.489 19.1326C143.738 19.1326 142.125 17.093 142.125 14.5317V7.25085H144.876V14.0336C144.876 15.4566 145.54 16.6661 147.2 16.6661C148.789 16.6661 149.619 15.5989 149.619 14.0811V7.25085H152.37V16.6898C152.37 17.6385 152.441 18.3737 152.489 18.8006H149.856C149.809 18.5397 149.762 17.9942 149.762 17.5199Z" fill="currentColor"/>
<path d="M134.159 16.6898C135.866 16.6898 137.384 15.4328 137.384 13.0138C137.384 10.6185 135.866 9.38526 134.159 9.38526C132.475 9.38526 130.933 10.6185 130.933 13.0138C130.933 15.4091 132.475 16.6898 134.159 16.6898ZM134.159 6.89508C137.621 6.89508 140.159 9.48013 140.159 13.0138C140.159 16.5712 137.621 19.1563 134.159 19.1563C130.72 19.1563 128.182 16.5712 128.182 13.0138C128.182 9.48013 130.72 6.89508 134.159 6.89508Z" fill="currentColor"/>
<path d="M121.688 9.43269C120.004 9.43269 118.51 10.6896 118.51 13.0138C118.51 15.338 120.004 16.6424 121.735 16.6424C123.538 16.6424 124.368 15.3854 124.629 14.5079L127.048 15.3854C126.502 17.1878 124.771 19.1563 121.735 19.1563C118.344 19.1563 115.759 16.5238 115.759 13.0138C115.759 9.45641 118.344 6.89508 121.664 6.89508C124.771 6.89508 126.478 8.83979 126.953 10.6896L124.486 11.5909C124.225 10.5711 123.443 9.43269 121.688 9.43269Z" fill="currentColor"/>
<path d="M109.265 9.43269C107.581 9.43269 106.087 10.6896 106.087 13.0138C106.087 15.338 107.581 16.6424 109.312 16.6424C111.115 16.6424 111.945 15.3854 112.206 14.5079L114.625 15.3854C114.079 17.1878 112.348 19.1563 109.312 19.1563C105.921 19.1563 103.336 16.5238 103.336 13.0138C103.336 9.45641 105.921 6.89508 109.241 6.89508C112.348 6.89508 114.056 8.83979 114.53 10.6896L112.063 11.5909C111.803 10.5711 111.02 9.43269 109.265 9.43269Z" fill="currentColor"/>
<path d="M91.3301 15.67C91.3301 13.6067 92.8479 12.4683 94.8163 12.1838L97.7808 11.7331C98.4449 11.6383 98.6346 11.3063 98.6346 10.9031C98.6346 9.93073 97.9706 9.1481 96.4527 9.1481C95.0061 9.1481 94.1997 10.073 94.0811 11.2351L91.5672 10.6659C91.7807 8.67378 93.5831 6.89508 96.429 6.89508C99.9864 6.89508 101.338 8.91094 101.338 11.2114V16.9507C101.338 17.9942 101.457 18.6819 101.481 18.8005H98.9192C98.8955 18.7294 98.8006 18.2551 98.8006 17.3301C98.2552 18.2076 97.1168 19.1563 95.2432 19.1563C92.8242 19.1563 91.3301 17.4961 91.3301 15.67ZM95.765 16.9981C97.3065 16.9981 98.6346 16.2629 98.6346 14.0099V13.4881L95.6227 13.9387C94.7689 14.081 94.0811 14.5554 94.0811 15.504C94.0811 16.2866 94.674 16.9981 95.765 16.9981Z" fill="currentColor"/>
</svg>
