<svg viewBox="0 0 70 24" fill="none" xmlns="http://www.w3.org/2000/svg">
<g clip-path="url(#clip0_71784_8087)">
<path d="M0 12C0 3.3601 3.3601 0 12 0C20.6399 0 24 3.3601 24 12C24 20.6399 20.6399 24 12 24C3.3601 24 0 20.6399 0 12Z" fill="#00CBD5"/>
<path d="M12.9737 5.31209C13.7115 5.23139 14.3565 5.8101 14.3565 6.55232C14.3568 6.70006 14.4839 6.81585 14.631 6.80135L19.9815 6.27205C20.6534 6.20594 21.1439 6.89377 20.8624 7.5074L18.7276 12.1558L20.0479 16.9361C20.1923 17.4591 19.831 17.9862 19.2911 18.0396L12.6515 18.6939C12.5252 18.7061 12.4163 18.6079 12.3936 18.483C12.2549 17.7149 11.539 17.1563 10.7315 17.2447L4.90927 17.8687C4.21957 17.9426 3.63577 17.3636 3.7042 16.6734L4.65732 7.09334C4.70828 6.581 5.11134 6.17385 5.62314 6.11775L12.9737 5.31209ZM9.23447 9.32479C8.90161 9.14545 8.06209 9.11553 7.05576 9.65193C7.00213 9.68059 6.97976 9.74577 7.004 9.80037L7.41318 10.7183C7.43849 10.7746 7.50519 10.8034 7.56455 10.7818C7.65378 10.7496 7.74363 10.7223 7.79502 10.7174C7.87253 10.7096 7.98917 10.7073 8.06455 10.7779C8.16038 10.8682 8.14858 11.039 8.13974 11.106L7.86728 12.7525C7.68073 14.102 8.08221 15.0396 9.29502 15.0396C9.3159 15.0404 10.4058 15.0776 11.0997 14.0943C11.1165 14.0702 11.1529 14.0758 11.1622 14.1031C11.3431 14.6557 11.82 15.0396 12.6935 15.0396C14.0013 15.0395 15.2378 14.3748 15.7657 12.4859C15.772 12.4627 15.8009 12.4525 15.8194 12.4683C15.9618 12.5897 16.2452 12.7765 16.4786 12.8746C16.5417 12.901 16.6143 12.8684 16.6358 12.8053C16.7209 12.5531 16.9262 11.9481 17.002 11.7086C17.0176 11.6596 16.9959 11.6083 16.9522 11.5797C16.1371 11.0449 15.9673 9.89923 15.9513 9.5367C15.9487 9.47596 15.8976 9.42852 15.8351 9.4283H14.5392C14.4724 9.42796 14.4202 9.48129 14.4229 9.54647C14.4634 10.3849 14.2882 11.5074 14.2882 11.5074C14.0405 13.2177 13.3587 13.524 12.9854 13.524C12.6591 13.5239 12.5544 13.2282 12.6593 12.4234L13.0069 9.55525C13.0149 9.48826 12.9606 9.42833 12.8907 9.4283H11.4884C11.43 9.42849 11.3807 9.47109 11.3731 9.52693L11.1017 11.5181C11.073 11.7403 11.0089 11.9611 10.9444 12.1763C10.6226 13.2491 10.0673 13.524 9.81455 13.524C9.38284 13.5239 9.38153 13.1146 9.48642 12.3551L9.76377 10.6568C9.91114 9.7294 9.35958 9.38934 9.23447 9.32479Z" fill="white"/>
</g>
<path fill-rule="evenodd" clip-rule="evenodd" d="M44.6504 6.77551C45.4603 6.77555 46.1806 6.92575 46.8105 7.22571C47.4403 7.51067 47.9649 7.90827 48.3848 8.41809C48.8197 8.92805 49.15 9.53543 49.375 10.2404C49.6 10.9303 49.7129 11.6804 49.7129 12.4904C49.7129 13.3153 49.5925 14.0803 49.3525 14.7853C49.1126 15.4752 48.7673 16.0826 48.3174 16.6075C47.8674 17.1175 47.3198 17.5234 46.6748 17.8234C46.045 18.1082 45.3402 18.2501 44.5605 18.2501C43.7657 18.2501 43.0826 18.1083 42.5127 17.8234C41.9429 17.5235 41.5155 17.1631 41.2305 16.7433V22.256H38.6426V7.02258H41.1621V8.50793C41.4321 8.02794 41.8678 7.62309 42.4678 7.29309C43.0678 6.94813 43.7954 6.77551 44.6504 6.77551ZM44.1553 9.0929C43.7203 9.0929 43.3229 9.17597 42.9629 9.34094C42.6029 9.50594 42.295 9.73821 42.04 10.0382C41.7851 10.3232 41.5826 10.6759 41.4326 11.0958C41.2827 11.5157 41.208 11.9805 41.208 12.4904C41.208 13.5404 41.485 14.3809 42.04 15.0109C42.595 15.6257 43.3004 15.9327 44.1553 15.9327C45.0252 15.9327 45.7305 15.6258 46.2705 15.0109C46.8255 14.3809 47.1025 13.5403 47.1025 12.4904C47.1025 11.4556 46.8328 10.6307 46.293 10.0157C45.753 9.40079 45.0402 9.09294 44.1553 9.0929Z" fill="currentColor"/>
<path d="M32.3008 6.68567C33.0658 6.68567 33.7039 6.79758 34.2139 7.02258C34.7388 7.23257 35.1661 7.49571 35.4961 7.81067C35.826 8.12563 36.0658 8.46341 36.2158 8.82336C36.3807 9.16817 36.4862 9.47535 36.5312 9.74524L34.3262 10.3751C34.2962 10.2254 34.2438 10.0531 34.1689 9.85852C34.094 9.66363 33.9734 9.4834 33.8086 9.31848C33.6586 9.15353 33.4561 9.01819 33.2012 8.91321C32.9612 8.79321 32.6608 8.73352 32.3008 8.73352C31.8359 8.73355 31.4533 8.8604 31.1533 9.11536C30.8683 9.35536 30.7256 9.64829 30.7256 9.99329C30.7256 10.2932 30.8236 10.5405 31.0186 10.7355C31.2135 10.9304 31.4833 11.0657 31.8281 11.1407L33.4932 11.4777C34.5282 11.7027 35.308 12.1159 35.833 12.7159C36.3729 13.3009 36.6435 13.9979 36.6436 14.8077C36.6436 15.2277 36.553 15.6485 36.373 16.0685C36.208 16.4733 35.9533 16.8486 35.6084 17.1935C35.2785 17.5233 34.851 17.7931 34.3262 18.0031C33.8013 18.213 33.1937 18.3184 32.5039 18.3185C31.7089 18.3185 31.0335 18.2056 30.4785 17.9806C29.9235 17.7556 29.4664 17.4776 29.1064 17.1476C28.7466 16.8027 28.4759 16.4434 28.2959 16.0685C28.1159 15.6786 28.0105 15.3258 27.9805 15.0109L30.2539 14.381C30.299 14.8758 30.5014 15.3108 30.8613 15.6857C31.2363 16.0605 31.7766 16.2482 32.4814 16.2482C33.0212 16.2481 33.4264 16.1277 33.6963 15.8878C33.981 15.633 34.1229 15.3331 34.123 14.9884C34.123 14.6884 34.0186 14.4328 33.8086 14.2228C33.5986 14.0128 33.2758 13.8626 32.8408 13.7726L31.2207 13.4132C30.2458 13.2032 29.5106 12.8132 29.0156 12.2433C28.5206 11.6583 28.2734 10.9829 28.2734 10.2179C28.2735 9.73796 28.3789 9.28823 28.5889 8.86829C28.7988 8.43336 29.0834 8.05825 29.4434 7.74329C29.8033 7.41332 30.2232 7.15766 30.7031 6.97766C31.1981 6.78268 31.7308 6.68569 32.3008 6.68567Z" fill="currentColor"/>
<path fill-rule="evenodd" clip-rule="evenodd" d="M56.6973 6.68567C57.5223 6.68567 58.2797 6.83586 58.9697 7.13586C59.6597 7.42085 60.2595 7.82575 60.7695 8.35071C61.2795 8.86066 61.6769 9.46806 61.9619 10.173C62.2469 10.8779 62.3896 11.6504 62.3896 12.4904C62.3896 13.3303 62.2469 14.1102 61.9619 14.8302C61.6769 15.5352 61.2795 16.1509 60.7695 16.6759C60.2596 17.1857 59.6596 17.5908 58.9697 17.8907C58.2798 18.1757 57.5222 18.3185 56.6973 18.3185C55.8873 18.3185 55.1298 18.1757 54.4248 17.8907C53.7349 17.5908 53.1349 17.1858 52.625 16.6759C52.13 16.1509 51.7401 15.5352 51.4551 14.8302C51.1701 14.1103 51.0273 13.3303 51.0273 12.4904C51.0274 11.6504 51.1701 10.8779 51.4551 10.173C51.7401 9.46804 52.13 8.86067 52.625 8.35071C53.135 7.82574 53.7349 7.42086 54.4248 7.13586C55.1298 6.83587 55.8873 6.68568 56.6973 6.68567ZM56.6973 9.04797C56.2924 9.04798 55.9023 9.12264 55.5273 9.27258C55.1673 9.40758 54.8446 9.6259 54.5596 9.9259C54.2897 10.2109 54.0647 10.5711 53.8848 11.006C53.7199 11.4258 53.6377 11.9206 53.6377 12.4904C53.6377 13.0604 53.7198 13.5632 53.8848 13.9982C54.0648 14.4331 54.2896 14.8007 54.5596 15.1007C54.8446 15.3857 55.1673 15.6031 55.5273 15.7531C55.9023 15.903 56.2923 15.9777 56.6973 15.9777C57.1022 15.9777 57.4848 15.903 57.8447 15.7531C58.2197 15.6031 58.55 15.3857 58.835 15.1007C59.1199 14.8007 59.3448 14.4331 59.5098 13.9982C59.6748 13.5632 59.7578 13.0604 59.7578 12.4904C59.7578 11.9206 59.6747 11.4259 59.5098 11.006C59.3448 10.5711 59.1198 10.2109 58.835 9.9259C58.55 9.6259 58.2197 9.40758 57.8447 9.27258C57.4848 9.12266 57.1022 9.04797 56.6973 9.04797Z" fill="currentColor"/>
<path d="M67.6348 7.02258H69.9072V9.34094H67.6348V14.4259C67.6348 14.9057 67.7477 15.2586 67.9727 15.4835C68.1977 15.6933 68.5505 15.798 69.0303 15.798C69.2102 15.798 69.3904 15.7905 69.5703 15.7755C69.7498 15.7456 69.8696 15.7231 69.9297 15.7081V17.8683C69.8545 17.8983 69.6892 17.9431 69.4346 18.0031C69.1796 18.078 68.8118 18.1154 68.332 18.1154C67.3123 18.1153 66.5097 17.8307 65.9248 17.2609C65.3398 16.6909 65.0479 15.8877 65.0479 14.8527V9.34094H63.0225V7.02258H63.585C64.1697 7.02258 64.5972 6.85819 64.8672 6.52844C65.1372 6.19844 65.2725 5.79262 65.2725 5.31262V3.67004H67.6348V7.02258Z" fill="currentColor"/>
<defs>
<clipPath id="clip0_71784_8087"><rect width="70" height="24" fill="white"/>
</clipPath>
</defs>
</svg>
