<svg viewBox="0 0 161 24" fill="none" xmlns="http://www.w3.org/2000/svg">
<path d="M64.7222 8.43844C64.8024 8.43844 64.8826 8.43844 64.9628 8.44927C65.1659 8.48176 65.3798 8.58462 65.4011 8.84449C65.4653 9.61326 65.6257 10.9559 67.2509 11.8275C69.3146 12.9374 71.5065 13.1323 71.4691 14.0256C71.4157 15.1842 68.8174 15.1787 66.1389 14.0472C66.032 14.0039 65.909 14.0418 65.8449 14.1393L64.5885 16.4673C64.5137 16.5809 64.5564 16.7379 64.6741 16.8029C65.2942 17.1548 67.6626 18.0806 70.3143 17.9723C73.5435 17.837 75.1473 15.8501 75.2436 13.5329C75.2436 13.5059 75.2649 13.4896 75.2917 13.4896C75.5857 13.5167 75.9439 13.5113 76.0722 13.5059C76.0936 13.5059 76.115 13.5221 76.115 13.5437C76.2647 14.8756 77.1201 17.366 80.4668 17.7774C83.4714 18.1456 85.9948 17.2252 87.9569 15.6443C88.0424 15.5794 88.0638 15.4603 88.0157 15.3628L86.9892 13.3434C86.9251 13.2189 86.7647 13.181 86.6578 13.2676C85.2036 14.4046 83.418 14.9622 82.2632 14.9297C79.9803 14.8647 79.6649 13.8848 79.6221 13.6195C79.6168 13.5871 79.6435 13.5546 79.6809 13.5546C84.3963 13.7928 86.9465 11.1292 86.9197 8.79035C86.909 7.69674 86.214 5.80729 83.5676 5.48787C83.3217 5.45539 83.0544 5.43373 82.755 5.43373C82.3434 5.43373 81.9264 5.48246 81.5147 5.56908C81.5093 5.56908 81.4987 5.56908 81.4933 5.56908C81.4612 5.57449 81.4292 5.58532 81.3971 5.59074C80.4401 5.81271 79.558 6.26206 78.7988 6.89548C77.6226 7.86457 76.7084 9.27218 76.3609 11.0425C76.3609 11.0642 76.3395 11.0858 76.3128 11.0858C75.5697 11.1237 74.3935 10.9613 73.5809 10.8314C73.3029 10.7935 73.0088 10.7394 72.7148 10.6798C72.7041 10.6798 72.6934 10.6798 72.6934 10.6798C71.8861 10.5066 71.0307 10.2521 70.2128 9.8623C67.7802 8.70373 70.1593 6.92255 73.1371 8.69831C73.2441 8.76328 73.3831 8.73079 73.4526 8.62252L74.7036 6.72224C74.7784 6.60855 74.7464 6.45154 74.6287 6.38116C73.7894 5.88309 70.1807 4.28057 66.9569 6.44072C66.9569 6.44072 65.9304 5.51494 64.4121 5.51494C62.2629 5.51494 61.477 6.79803 61.477 6.79803L61.6588 5.70984C61.6855 5.56367 61.5732 5.42832 61.4235 5.42832H58.5366C58.4136 5.42832 58.3067 5.52577 58.3013 5.65029C58.2479 6.49486 57.9966 9.51581 57.1305 11.1454C55.81 13.6953 52.6718 14.9676 50.9396 14.9189C48.6567 14.8539 48.3413 13.874 48.2985 13.6087C48.2932 13.5762 48.3199 13.5437 48.3573 13.5437C53.0727 13.782 55.6229 11.1183 55.5962 8.77952C55.5855 7.58305 54.7568 5.43373 51.4528 5.42832C48.6514 5.42832 46.2402 7.30694 45.2886 10.1817C45.2779 10.2142 45.2405 10.225 45.2191 10.2034C44.2407 9.2776 44.1712 6.53817 44.1712 5.67194C44.1712 5.5366 44.0643 5.43373 43.936 5.43373H41.3698C41.2415 5.43373 41.1346 5.54201 41.1346 5.67194C41.1346 6.29996 41.1025 7.92954 40.8192 9.29925C40.0172 13.1702 38.6379 14.3179 37.9857 14.2476C37.558 14.2042 37.4029 13.5762 37.3334 13.3543C37.0768 12.5205 35.8846 7.36649 35.489 5.61239C35.4676 5.50411 35.3713 5.42832 35.2644 5.42832H32.0406C31.8749 5.42832 31.7626 5.59615 31.8214 5.75315L31.9498 6.09964C34.0776 12.0333 28.7741 15.0055 26.1384 14.9297C23.8556 14.8647 23.5401 13.8848 23.4974 13.6195C23.492 13.5871 23.5187 13.5546 23.5562 13.5546C28.2715 13.7928 30.8217 11.1292 30.795 8.79035C30.7843 7.59388 29.9556 5.43373 26.6516 5.42832C23.7379 5.42832 21.2466 7.46936 20.3805 10.5445C20.3698 10.5823 20.327 10.5986 20.295 10.5715C18.8408 9.3155 18.6911 6.95504 18.6537 6.16461C18.6483 6.03468 18.5414 5.93722 18.4184 5.93722H15.7827C15.6491 5.93722 15.5422 6.05092 15.5475 6.18626C15.6331 7.96744 15.2749 10.355 15.2749 10.355C14.7723 13.9877 13.3823 14.6374 12.6231 14.6374C11.9602 14.6374 11.7463 14.0093 11.9602 12.304L12.6659 6.21333C12.6819 6.07257 12.575 5.94805 12.4307 5.94805H9.58111C9.4635 5.94805 9.36192 6.03467 9.34588 6.15919L8.79522 10.3874C8.73641 10.8585 8.6081 11.3295 8.47444 11.7842C7.81686 14.0635 6.6888 14.6482 6.17556 14.6482C5.29878 14.6482 5.29343 13.782 5.50728 12.1686L6.07399 8.56296C6.37337 6.59231 5.25066 5.87226 4.99939 5.73691C4.32042 5.35794 2.61497 5.29297 0.567364 6.42989C0.455093 6.48944 0.412323 6.6302 0.460439 6.7439L1.29445 8.6929C1.34791 8.812 1.48157 8.87156 1.60453 8.82824C1.78631 8.75786 1.96808 8.70373 2.06966 8.6929C2.2247 8.67666 2.46528 8.67124 2.61497 8.82283C2.81278 9.01232 2.78605 9.37505 2.77001 9.52122L2.214 13.0186C1.83442 15.8826 2.6524 17.8749 5.11701 17.8749C5.11701 17.8749 7.36777 17.9777 8.78987 15.8609C8.82195 15.8122 8.89145 15.823 8.90749 15.8771C9.27103 17.0574 10.244 17.8749 12.0243 17.8749C14.7349 17.8749 17.2957 16.4185 18.3382 12.2282C18.3489 12.1903 18.3917 12.1849 18.4131 12.2119C18.6857 12.6396 19.3166 13.1485 19.9635 13.4138C19.9849 13.4192 19.9956 13.4409 19.9956 13.4625C20.0116 13.8415 20.2896 17.2956 24.3421 17.7991C28.5175 18.3134 31.9177 16.202 33.9439 13.4517L34.7458 15.5252C34.7458 15.5252 35.5531 17.864 37.3548 17.864C39.6216 17.864 41.9044 15.7905 43.1929 12.4501C43.257 12.2931 43.3105 12.1361 43.364 11.9791C43.3747 11.9466 43.4174 11.9358 43.4388 11.9629C43.8184 12.3689 44.2621 12.6667 44.7593 12.8995C44.77 12.8995 44.7754 12.9157 44.7754 12.9266C44.7005 13.8144 45.1282 17.2956 49.1486 17.7937C52.351 18.1889 55.0134 17.1115 57.0182 15.3412C57.0503 15.3141 57.0984 15.3412 57.0931 15.3845L56.8204 17.6096C56.8044 17.7503 56.9113 17.8803 57.0557 17.8803H59.9801C60.103 17.8803 60.2046 17.7882 60.2153 17.6691L60.6644 13.5492C60.9103 11.2862 61.6481 10.1492 62.4928 9.37505C63.3749 8.59545 64.4014 8.48176 64.7436 8.47093L64.7222 8.43844ZM23.4386 11.0263C23.6417 9.82982 24.2993 9.10977 25.0585 8.62252C26.2614 7.84833 27.4482 7.95119 27.7476 8.44927C28.0363 8.9257 27.9454 9.85689 26.4271 10.6257C25.5075 11.0913 24.6094 11.1616 23.4974 11.0967C23.4599 11.0967 23.4332 11.0588 23.4386 11.0263ZM48.2451 11.0263C48.4482 9.82982 49.1058 9.10977 49.865 8.62252C51.0679 7.84292 52.2548 7.95119 52.5541 8.44927C52.8428 8.9257 52.752 9.85689 51.2336 10.6257C50.3141 11.0913 49.4159 11.1616 48.3039 11.0967C48.2665 11.0967 48.2397 11.0588 48.2451 11.0263ZM79.574 11.0317C79.7772 9.83523 80.4348 9.11518 81.1939 8.62793C82.3968 7.84833 83.5837 7.95661 83.8831 8.45469C84.1718 8.93111 84.0809 9.8623 82.5626 10.6311C81.643 11.0967 80.7448 11.167 79.6328 11.1021C79.5954 11.1021 79.5687 11.0642 79.5794 11.0317H79.574Z" fill="#00CBD5"/>
<path d="M153.111 22.1451H150.17L152.945 16.0975L148.012 5.92334H151.119L154.439 13.2279L157.546 5.92334H160.463L153.111 22.1451Z" fill="currentColor"/>
<path d="M139.045 10.4294H144.713C144.666 9.0776 143.764 7.86808 141.867 7.86808C140.136 7.86808 139.14 9.19618 139.045 10.4294ZM145.021 13.4413L147.345 14.1765C146.729 16.1924 144.903 17.8288 142.128 17.8288C138.997 17.8288 136.223 15.5521 136.223 11.6389C136.223 7.98666 138.926 5.56763 141.843 5.56763C145.401 5.56763 147.488 7.91551 147.488 11.5678C147.488 12.0184 147.44 12.3978 147.417 12.4453H138.974C139.045 14.2003 140.42 15.4572 142.128 15.4572C143.788 15.4572 144.642 14.5797 145.021 13.4413Z" fill="currentColor"/>
<path d="M135.548 5.92334L131.019 17.473H128.268L123.572 5.92334H126.607L129.667 14.1765L132.655 5.92334H135.548Z" fill="currentColor"/>
<path d="M123.074 5.85228V8.65077C122.766 8.60333 122.458 8.57962 122.173 8.57962C120.039 8.57962 119.066 9.81285 119.066 11.971V17.4731H116.315V5.92342H118.995V7.77327C119.541 6.51632 120.821 5.78113 122.339 5.78113C122.671 5.78113 122.956 5.82856 123.074 5.85228Z" fill="currentColor"/>
<path d="M110.878 16.1924C110.309 17.2359 108.957 17.8051 107.605 17.8051C104.854 17.8051 103.241 15.7655 103.241 13.2042V5.92334H105.992V12.7061C105.992 14.1291 106.656 15.3386 108.316 15.3386C109.905 15.3386 110.735 14.2714 110.735 12.7536V5.92334H113.487V15.3623C113.487 16.311 113.558 17.0462 113.605 17.473H110.973C110.925 17.2122 110.878 16.6667 110.878 16.1924Z" fill="currentColor"/>
<path d="M92.2407 14.3426L94.636 13.6785C94.7309 14.722 95.5135 15.6469 96.9839 15.6469C98.1223 15.6469 98.7152 15.0303 98.7152 14.3188C98.7152 13.7022 98.2883 13.2279 97.3634 13.0382L95.6558 12.6587C93.6163 12.2081 92.549 10.88 92.549 9.29104C92.549 7.27518 94.3989 5.56763 96.7942 5.56763C100.02 5.56763 101.063 7.65464 101.253 8.793L98.9286 9.45705C98.8338 8.793 98.3357 7.72579 96.7942 7.72579C95.8218 7.72579 95.1341 8.3424 95.1341 9.05388C95.1341 9.6705 95.5847 10.1211 96.2962 10.2634L98.0511 10.6191C100.233 11.0935 101.371 12.4216 101.371 14.1291C101.371 15.8841 99.9484 17.8288 97.0076 17.8288C93.6637 17.8288 92.383 15.6469 92.2407 14.3426Z" fill="currentColor"/>
</svg>
