<svg viewBox="0 0 137 23" fill="none" xmlns="http://www.w3.org/2000/svg">
<path d="M64.8716 8.35507C64.9518 8.35507 65.032 8.35507 65.1122 8.3659C65.3153 8.39838 65.5292 8.50125 65.5506 8.76111C65.6147 9.52989 65.7751 10.8725 67.4004 11.7442C69.464 12.854 71.656 13.0489 71.6185 13.9422C71.5651 15.1008 68.9668 15.0954 66.2883 13.9639C66.1814 13.9206 66.0584 13.9585 65.9943 14.0559L64.7379 16.3839C64.6631 16.4976 64.7058 16.6546 64.8235 16.7195C65.4436 17.0714 67.812 17.9972 70.4637 17.8889C73.6929 17.7536 75.2967 15.7667 75.393 13.4495C75.393 13.4225 75.4144 13.4062 75.4411 13.4062C75.7351 13.4333 76.0933 13.4279 76.2216 13.4225C76.243 13.4225 76.2644 13.4387 76.2644 13.4604C76.4141 14.7922 77.2695 17.2826 80.6162 17.694C83.6208 18.0622 86.1442 17.1418 88.1063 15.561C88.1919 15.496 88.2132 15.3769 88.1651 15.2794L87.1386 13.2601C87.0745 13.1355 86.9141 13.0976 86.8072 13.1843C85.353 14.3212 83.5674 14.8788 82.4126 14.8463C80.1297 14.7814 79.8143 13.8014 79.7715 13.5362C79.7662 13.5037 79.7929 13.4712 79.8304 13.4712C84.5457 13.7094 87.0959 11.0458 87.0691 8.70697C87.0585 7.61337 86.3634 5.72392 83.7171 5.4045C83.4711 5.37201 83.2038 5.35036 82.9044 5.35036C82.4928 5.35036 82.0758 5.39908 81.6641 5.48571C81.6588 5.48571 81.6481 5.48571 81.6427 5.48571C81.6106 5.49112 81.5786 5.50195 81.5465 5.50736C80.5895 5.72933 79.7074 6.17868 78.9482 6.81211C77.772 7.7812 76.8578 9.18881 76.5103 10.9592C76.5103 10.9808 76.489 11.0025 76.4622 11.0025C75.7191 11.0404 74.5429 10.8779 73.7303 10.748C73.4523 10.7101 73.1582 10.656 72.8642 10.5964C72.8535 10.5964 72.8428 10.5964 72.8428 10.5964C72.0355 10.4232 71.1801 10.1687 70.3622 9.77892C67.9296 8.62035 70.3087 6.83918 73.2866 8.61494C73.3935 8.6799 73.5325 8.64742 73.602 8.53914L74.853 6.63887C74.9279 6.52517 74.8958 6.36817 74.7782 6.29779C73.9388 5.79971 70.3301 4.1972 67.1063 6.35734C67.1063 6.35734 66.0798 5.43157 64.5615 5.43157C62.4123 5.43157 61.6264 6.71466 61.6264 6.71466L61.8082 5.62647C61.8349 5.48029 61.7227 5.34494 61.573 5.34494H58.686C58.563 5.34494 58.4561 5.44239 58.4508 5.56691C58.3973 6.41148 58.146 9.43244 57.2799 11.062C55.9594 13.612 52.8212 14.8842 51.089 14.8355C48.8062 14.7705 48.4907 13.7906 48.448 13.5253C48.4426 13.4929 48.4693 13.4604 48.5068 13.4604C53.2221 13.6986 55.7723 11.0349 55.7456 8.69615C55.7349 7.49968 54.9062 5.35036 51.6022 5.34494C48.8008 5.34494 46.3897 7.22357 45.438 10.0983C45.4273 10.1308 45.3899 10.1417 45.3685 10.12C44.3902 9.19422 44.3207 6.45479 44.3207 5.58857C44.3207 5.45322 44.2137 5.35036 44.0854 5.35036H41.5192C41.3909 5.35036 41.284 5.45864 41.284 5.58857C41.284 6.21658 41.2519 7.84616 40.9686 9.21588C40.1666 13.0868 38.7873 14.2346 38.1351 14.1642C37.7074 14.1209 37.5523 13.4929 37.4828 13.2709C37.2262 12.4371 36.034 7.28312 35.6384 5.52902C35.617 5.42074 35.5208 5.34494 35.4138 5.34494H32.1901C32.0243 5.34494 31.9121 5.51278 31.9709 5.66978L32.0992 6.01627C34.227 11.9499 28.9235 14.9221 26.2878 14.8463C24.005 14.7814 23.6895 13.8014 23.6468 13.5362C23.6414 13.5037 23.6682 13.4712 23.7056 13.4712C28.421 13.7094 30.9711 11.0458 30.9444 8.70697C30.9337 7.5105 30.105 5.35036 26.8011 5.34494C23.8874 5.34494 21.396 7.38598 20.5299 10.4611C20.5192 10.499 20.4765 10.5152 20.4444 10.4881C18.9902 9.23212 18.8405 6.87166 18.8031 6.08123C18.7977 5.9513 18.6908 5.85385 18.5679 5.85385H15.9322C15.7985 5.85385 15.6916 5.96754 15.6969 6.10289C15.7825 7.88406 15.4243 10.2716 15.4243 10.2716C14.9217 13.9043 13.5317 14.554 12.7725 14.554C12.1096 14.554 11.8958 13.926 12.1096 12.2206L12.8153 6.12996C12.8313 5.9892 12.7244 5.86468 12.5801 5.86468H9.73053C9.61291 5.86468 9.51133 5.9513 9.49529 6.07582L8.94463 10.3041C8.88582 10.7751 8.75751 11.2461 8.62386 11.7009C7.96627 13.9801 6.83822 14.5648 6.32498 14.5648C5.44819 14.5648 5.44285 13.6986 5.6567 12.0852L6.2234 8.47959C6.52279 6.50893 5.40008 5.78888 5.14881 5.65354C4.46983 5.27456 2.76439 5.2096 0.716778 6.34652C0.604507 6.40607 0.561737 6.54683 0.609853 6.66052L1.44387 8.60952C1.49733 8.72863 1.63098 8.78818 1.75395 8.74487C1.93572 8.67449 2.11749 8.62035 2.21907 8.60952C2.37411 8.59328 2.61469 8.58787 2.76439 8.73946C2.9622 8.92894 2.93547 9.29167 2.91943 9.43785L2.36342 12.9352C1.98384 15.7992 2.80181 17.7915 5.26642 17.7915C5.26642 17.7915 7.51719 17.8944 8.93929 15.7775C8.97136 15.7288 9.04086 15.7396 9.0569 15.7938C9.42045 16.974 10.3935 17.7915 12.1738 17.7915C14.8843 17.7915 17.4451 16.3352 18.4877 12.1448C18.4984 12.1069 18.5411 12.1015 18.5625 12.1286C18.8352 12.5563 19.466 13.0652 20.1129 13.3304C20.1343 13.3359 20.145 13.3575 20.145 13.3792C20.161 13.7581 20.439 17.2122 24.4915 17.7157C28.6669 18.23 32.0671 16.1186 34.0933 13.3683L34.8953 15.4419C34.8953 15.4419 35.7025 17.7807 37.5042 17.7807C39.771 17.7807 42.0539 15.7071 43.3423 12.3668C43.4065 12.2098 43.4599 12.0528 43.5134 11.8958C43.5241 11.8633 43.5668 11.8524 43.5882 11.8795C43.9678 12.2856 44.4115 12.5833 44.9087 12.8161C44.9194 12.8161 44.9248 12.8324 44.9248 12.8432C44.8499 13.7311 45.2776 17.2122 49.298 17.7103C52.5004 18.1055 55.1628 17.0281 57.1677 15.2578C57.1997 15.2307 57.2479 15.2578 57.2425 15.3011L56.9699 17.5262C56.9538 17.667 57.0607 17.7969 57.2051 17.7969H60.1295C60.2524 17.7969 60.354 17.7049 60.3647 17.5858L60.8138 13.4658C61.0597 11.2028 61.7975 10.0659 62.6422 9.29167C63.5243 8.51207 64.5508 8.39838 64.893 8.38755L64.8716 8.35507ZM23.588 10.9429C23.7911 9.74644 24.4487 9.02639 25.2079 8.53914C26.4108 7.76496 27.5976 7.86782 27.897 8.3659C28.1857 8.84232 28.0948 9.77351 26.5765 10.5423C25.657 11.0079 24.7588 11.0783 23.6468 11.0133C23.6094 11.0133 23.5826 10.9754 23.588 10.9429ZM48.3945 10.9429C48.5977 9.74644 49.2552 9.02639 50.0144 8.53914C51.2173 7.75954 52.4042 7.86782 52.7036 8.3659C52.9923 8.84232 52.9014 9.77351 51.383 10.5423C50.4635 11.0079 49.5653 11.0783 48.4533 11.0133C48.4159 11.0133 48.3891 10.9754 48.3945 10.9429ZM79.7234 10.9483C79.9266 9.75186 80.5842 9.03181 81.3433 8.54456C82.5462 7.76496 83.7331 7.87323 84.0325 8.37131C84.3212 8.84773 84.2303 9.77893 82.712 10.5477C81.7924 11.0133 80.8942 11.0837 79.7822 11.0187C79.7448 11.0187 79.7181 10.9808 79.7288 10.9483H79.7234Z" fill="#00CBD5"/>
<path d="M109.98 5.68262C110.834 5.68262 111.594 5.84101 112.258 6.15723C112.922 6.45762 113.475 6.87655 113.918 7.41406C114.376 7.95156 114.724 8.59198 114.961 9.33496C115.198 10.0623 115.317 10.8533 115.317 11.707C115.317 12.5765 115.19 13.383 114.938 14.126C114.685 14.8532 114.321 15.4936 113.847 16.0469C113.372 16.5844 112.795 17.011 112.115 17.3271C111.451 17.6275 110.708 17.7783 109.886 17.7783C109.048 17.7783 108.328 17.6275 107.728 17.3271C107.127 17.011 106.676 16.6319 106.376 16.1895V21.999H103.648V5.94336H106.305V7.50879C106.589 7.00285 107.048 6.57635 107.681 6.22852C108.313 5.86495 109.079 5.68268 109.98 5.68262ZM96.8457 5.58789C97.6518 5.58789 98.3238 5.70635 98.8613 5.94336C99.4147 6.16471 99.866 6.44142 100.214 6.77344C100.562 7.10544 100.815 7.46139 100.973 7.84082C101.147 8.20447 101.257 8.52888 101.305 8.81348L98.9805 9.47754C98.9488 9.31943 98.8935 9.13718 98.8145 8.93164C98.7354 8.72617 98.6084 8.53617 98.4346 8.3623C98.2765 8.18861 98.0634 8.04613 97.7949 7.93555C97.542 7.80906 97.2252 7.74609 96.8457 7.74609C96.3557 7.74614 95.9529 7.88073 95.6367 8.14941C95.3363 8.40238 95.1855 8.71057 95.1855 9.07422C95.1856 9.39032 95.2887 9.65094 95.4941 9.85645C95.6997 10.062 95.9841 10.2051 96.3477 10.2842L98.1025 10.6396C99.1933 10.8768 100.016 11.3111 100.569 11.9434C101.139 12.56 101.423 13.2956 101.423 14.1494C101.423 14.5921 101.328 15.0348 101.139 15.4775C100.965 15.9044 100.696 16.2994 100.332 16.6631C99.9842 17.0109 99.5337 17.2953 98.9805 17.5166C98.4271 17.7379 97.7868 17.8486 97.0596 17.8486C96.2216 17.8486 95.5098 17.7303 94.9248 17.4932C94.3401 17.2561 93.8579 16.9639 93.4785 16.6162C93.0991 16.2526 92.8138 15.8728 92.624 15.4775C92.4344 15.0667 92.3237 14.6952 92.292 14.3633L94.6875 13.6992C94.735 14.2208 94.9488 14.6791 95.3281 15.0742C95.7234 15.4695 96.293 15.667 97.0361 15.667C97.605 15.6669 98.0319 15.5409 98.3164 15.2881C98.6168 15.0193 98.7666 14.7025 98.7666 14.3389C98.7665 14.0228 98.6558 13.7545 98.4346 13.5332C98.2132 13.3119 97.8735 13.1535 97.415 13.0586L95.708 12.6787C94.6803 12.4574 93.9055 12.0461 93.3838 11.4453C92.8621 10.8288 92.6006 10.1178 92.6006 9.31152C92.6006 8.8057 92.7114 8.33128 92.9326 7.88867C93.154 7.43016 93.4545 7.03417 93.834 6.70215C94.2134 6.35442 94.6563 6.08618 95.1621 5.89648C95.6838 5.69097 96.245 5.58792 96.8457 5.58789ZM122.798 5.58789C123.667 5.58789 124.466 5.74629 125.193 6.0625C125.921 6.3629 126.553 6.78941 127.091 7.34277C127.628 7.88029 128.047 8.52066 128.348 9.26367C128.648 10.0068 128.798 10.8216 128.798 11.707C128.798 12.5922 128.648 13.4141 128.348 14.1729C128.047 14.916 127.628 15.5648 127.091 16.1182C126.553 16.6557 125.921 17.0822 125.193 17.3984C124.466 17.6988 123.667 17.8486 122.798 17.8486C121.944 17.8486 121.145 17.6988 120.402 17.3984C119.675 17.0823 119.043 16.6555 118.506 16.1182C117.984 15.5648 117.573 14.916 117.272 14.1729C116.972 13.4141 116.821 12.5922 116.821 11.707C116.821 10.8216 116.972 10.0068 117.272 9.26367C117.573 8.52068 117.984 7.88027 118.506 7.34277C119.043 6.78964 119.675 6.36285 120.402 6.0625C121.145 5.74632 121.944 5.58792 122.798 5.58789ZM134.445 5.94336H136.841V8.38672H134.445V13.7461C134.445 14.252 134.564 14.6242 134.801 14.8613C135.038 15.0825 135.409 15.1933 135.915 15.1934C136.105 15.1934 136.295 15.1847 136.484 15.1689C136.674 15.1373 136.801 15.1135 136.864 15.0977V17.375C136.785 17.4066 136.611 17.4534 136.343 17.5166C136.074 17.5956 135.686 17.6357 135.181 17.6357C134.106 17.6357 133.259 17.3352 132.643 16.7344C132.026 16.1337 131.718 15.2879 131.718 14.1973V8.38672H129.583V5.94336H130.176C130.792 5.94336 131.244 5.76971 131.528 5.42188C131.813 5.07415 131.955 4.64731 131.955 4.1416V2.41016H134.445V5.94336ZM122.798 8.07812C122.371 8.07816 121.96 8.15736 121.564 8.31543C121.185 8.45774 120.845 8.68684 120.545 9.00293C120.26 9.30333 120.024 9.68311 119.834 10.1416C119.66 10.5843 119.572 11.1062 119.572 11.707C119.572 12.3077 119.66 12.8375 119.834 13.2959C120.024 13.7543 120.26 14.1419 120.545 14.458C120.845 14.7583 121.185 14.9874 121.564 15.1455C121.96 15.3036 122.371 15.3828 122.798 15.3828C123.225 15.3828 123.628 15.3036 124.008 15.1455C124.403 14.9875 124.75 14.7582 125.051 14.458C125.351 14.1418 125.589 13.7543 125.763 13.2959C125.937 12.8375 126.023 12.3077 126.023 11.707C126.023 11.1063 125.937 10.5843 125.763 10.1416C125.589 9.68309 125.351 9.30333 125.051 9.00293C124.75 8.68689 124.403 8.4577 124.008 8.31543C123.628 8.15732 123.225 8.07812 122.798 8.07812ZM109.459 8.12598C109.001 8.126 108.582 8.21282 108.202 8.38672C107.823 8.56063 107.498 8.8059 107.229 9.12207C106.961 9.42239 106.748 9.79386 106.59 10.2363C106.432 10.679 106.353 11.1695 106.353 11.707C106.353 12.8136 106.645 13.6993 107.229 14.3633C107.814 15.0114 108.558 15.3349 109.459 15.335C110.376 15.335 111.119 15.0114 111.688 14.3633C112.273 13.6993 112.566 12.8136 112.566 11.707C112.566 10.6161 112.281 9.74589 111.712 9.09766C111.143 8.44959 110.392 8.12598 109.459 8.12598Z" fill="currentColor"/>
</svg>
