<svg viewBox="0 0 124 24" fill="none" xmlns="http://www.w3.org/2000/svg">
<g clip-path="url(#clip0_27977_22083)">
<path d="M0 12C0 3.3601 3.3601 0 12 0C20.6399 0 24 3.3601 24 12C24 20.6399 20.6399 24 12 24C3.3601 24 0 20.6399 0 12Z" fill="#00CBD5"/>
<path d="M20.5553 11.6838C20.582 11.5972 20.5452 11.5069 20.4702 11.4564C19.0735 10.5116 18.7826 8.48763 18.7551 7.84738C18.7508 7.73984 18.6635 7.65611 18.5559 7.65611H16.3364C16.2216 7.65538 16.1321 7.74994 16.1372 7.86543C16.2065 9.34657 15.9062 11.3286 15.9062 11.3286C15.4818 14.3501 14.3139 14.8908 13.6744 14.8908C13.115 14.8908 12.9352 14.3696 13.115 12.9477L13.7105 7.87987C13.7242 7.76149 13.6318 7.65683 13.512 7.65683H11.1098C11.0095 7.65683 10.925 7.73117 10.912 7.83006L10.4472 11.3474C10.3981 11.7401 10.2877 12.1299 10.1772 12.5102C9.62576 14.4057 8.67442 14.8908 8.24134 14.8908C7.50149 14.8908 7.50005 14.169 7.67978 12.8271L8.15473 9.82657C8.40736 8.18808 7.46179 7.58754 7.24742 7.47349C6.67719 7.15662 5.23936 7.1032 3.51497 8.05093C3.42257 8.10146 3.3836 8.21695 3.42546 8.31367L4.12706 9.93557C4.17036 10.0352 4.28441 10.0857 4.38618 10.0474C4.53921 9.99042 4.69295 9.94134 4.78101 9.93268C4.91382 9.91896 5.11304 9.91536 5.24224 10.0402C5.40682 10.1997 5.38733 10.5015 5.37217 10.6198L4.90516 13.528C4.5854 15.9121 5.27256 17.5679 7.35063 17.5679C7.35063 17.5679 9.24248 17.6524 10.4428 15.8984C10.4717 15.8558 10.5338 15.8652 10.5497 15.9136C10.8593 16.8902 11.6764 17.5679 13.1734 17.5679C15.4146 17.5679 17.5331 16.3943 18.4376 13.0566C18.4484 13.0155 18.4982 12.9982 18.5299 13.0263C18.7739 13.2407 19.259 13.5706 19.6588 13.7438C19.7671 13.7907 19.8913 13.733 19.9281 13.6211C20.0739 13.1757 20.424 12.1068 20.5539 11.6838H20.5553Z" fill="white"/>
</g>
<path d="M115.094 11.0571H120.402C120.357 9.79122 119.513 8.65859 117.737 8.65859C116.116 8.65859 115.183 9.90226 115.094 11.0571ZM120.69 13.8775L122.867 14.566C122.289 16.4537 120.579 17.9861 117.981 17.9861C115.05 17.9861 112.451 15.8541 112.451 12.1897C112.451 8.76964 114.983 6.50439 117.715 6.50439C121.046 6.50439 123 8.70301 123 12.1231C123 12.545 122.956 12.9004 122.933 12.9448H115.027C115.094 14.5882 116.382 15.7652 117.981 15.7652C119.536 15.7652 120.335 14.9435 120.69 13.8775Z" fill="currentColor"/>
<path d="M103.34 11.4125V17.6531H100.764V6.83765H103.273V8.28119C103.984 7.03752 105.272 6.52673 106.471 6.52673C109.114 6.52673 110.38 8.43664 110.38 10.8129V17.6531H107.804V11.2571C107.804 9.9246 107.204 8.8586 105.583 8.8586C104.117 8.8586 103.34 9.99122 103.34 11.4125Z" fill="currentColor"/>
<path d="M97.9034 17.653H95.3495V6.83761H97.9034V17.653ZM94.9497 3.04C94.9497 2.10725 95.7048 1.35217 96.6153 1.35217C97.5481 1.35217 98.3032 2.10725 98.3032 3.04C98.3032 3.97275 97.5481 4.70562 96.6153 4.70562C95.7048 4.70562 94.9497 3.97275 94.9497 3.04Z" fill="currentColor"/>
<path d="M93.0777 17.6531H84.2388V15.41L89.7242 9.10289H84.3498V6.83765H92.9666V9.01405L87.4145 15.3878H93.0777V17.6531Z" fill="currentColor"/>
<path d="M72.686 14.7214C72.686 12.7893 74.1074 11.7233 75.9506 11.4568L78.7267 11.0349C79.3485 10.946 79.5262 10.6351 79.5262 10.2576C79.5262 9.34705 78.9043 8.61418 77.483 8.61418C76.1283 8.61418 75.3732 9.4803 75.2622 10.5685L72.9081 10.0355C73.108 8.17001 74.7958 6.50439 77.4608 6.50439C80.792 6.50439 82.0579 8.3921 82.0579 10.5463V15.9207C82.0579 16.8979 82.169 17.5419 82.1912 17.6529H79.7927C79.7705 17.5863 79.6816 17.1421 79.6816 16.276C79.1708 17.0977 78.1048 17.9861 76.3504 17.9861C74.0852 17.9861 72.686 16.4315 72.686 14.7214ZM76.839 15.9651C78.2825 15.9651 79.5262 15.2767 79.5262 13.1669V12.6783L76.7057 13.1002C75.9062 13.2335 75.2622 13.6777 75.2622 14.566C75.2622 15.2989 75.8174 15.9651 76.839 15.9651Z" fill="currentColor"/>
<path d="M59.7891 18.2526L62.1653 17.6308C62.343 18.9633 63.3868 19.9626 64.8748 19.9626C66.9179 19.9626 67.9395 18.9189 67.9395 16.7202V15.5876C67.4731 16.4315 66.3849 17.1644 64.8081 17.1644C61.9211 17.1644 59.8113 14.9436 59.8113 11.9011C59.8113 9.01398 61.8322 6.6377 64.8081 6.6377C66.496 6.6377 67.5397 7.32615 68.0061 8.21448V6.83757H70.4934V16.6314C70.4934 19.5185 69.0055 22.2057 64.9414 22.2057C62.0765 22.2057 60.0778 20.429 59.7891 18.2526ZM65.2301 14.9658C66.8735 14.9658 68.0061 13.7665 68.0061 11.9011C68.0061 10.0578 66.8291 8.85852 65.2301 8.85852C63.5867 8.85852 62.4096 10.0578 62.4096 11.9011C62.4096 13.7888 63.5423 14.9658 65.2301 14.9658Z" fill="currentColor"/>
<path d="M48.3242 14.7214C48.3242 12.7893 49.7455 11.7233 51.5888 11.4568L54.3649 11.0349C54.9867 10.946 55.1644 10.6351 55.1644 10.2576C55.1644 9.34705 54.5425 8.61418 53.1212 8.61418C51.7665 8.61418 51.0114 9.4803 50.9004 10.5685L48.5463 10.0355C48.7462 8.17001 50.434 6.50439 53.099 6.50439C56.4302 6.50439 57.6961 8.3921 57.6961 10.5463V15.9207C57.6961 16.8979 57.8071 17.5419 57.8294 17.6529H55.4309C55.4087 17.5863 55.3198 17.1421 55.3198 16.276C54.809 17.0977 53.743 17.9861 51.9886 17.9861C49.7233 17.9861 48.3242 16.4315 48.3242 14.7214ZM52.4772 15.9651C53.9207 15.9651 55.1644 15.2767 55.1644 13.1669V12.6783L52.3439 13.1002C51.5444 13.2335 50.9004 13.6777 50.9004 14.566C50.9004 15.2989 51.4556 15.9651 52.4772 15.9651Z" fill="currentColor"/>
<path d="M32.5539 17.6531H30V6.83765H32.4651V8.21456C33.0869 7.10415 34.4417 6.52673 35.6631 6.52673C37.0844 6.52673 38.3281 7.17077 38.9055 8.43664C39.7494 7.01531 41.0153 6.52673 42.4144 6.52673C44.3687 6.52673 46.2342 7.7704 46.2342 10.6353V17.6531H43.7469V11.0572C43.7469 9.79135 43.1029 8.83639 41.6593 8.83639C40.3046 8.83639 39.4163 9.90239 39.4163 11.2349V17.6531H36.8846V11.0572C36.8846 9.81355 36.2627 8.83639 34.797 8.83639C33.4201 8.83639 32.5539 9.85797 32.5539 11.2349V17.6531Z" fill="currentColor"/>
<defs>
<clipPath id="clip0_27977_22083"><rect width="124" height="24" fill="white"/>
</clipPath>
</defs>
</svg>
