<svg viewBox="0 0 167 24" fill="none" xmlns="http://www.w3.org/2000/svg">
<path d="M64.2813 9.87912C64.3615 9.87912 64.4416 9.87912 64.5218 9.88995C64.725 9.92243 64.9388 10.0253 64.9602 10.2852C65.0244 11.0539 65.1848 12.3966 66.81 13.2682C68.8737 14.3781 71.0656 14.573 71.0282 15.4663C70.9747 16.6248 68.3765 16.6194 65.698 15.4879C65.5911 15.4446 65.4681 15.4825 65.404 15.58L64.1476 17.9079C64.0728 18.0216 64.1155 18.1786 64.2331 18.2436C64.8533 18.5955 67.2217 19.5213 69.8734 19.413C73.1025 19.2776 74.7064 17.2907 74.8026 14.9736C74.8026 14.9465 74.824 14.9303 74.8508 14.9303C75.1448 14.9574 75.503 14.9519 75.6313 14.9465C75.6527 14.9465 75.6741 14.9628 75.6741 14.9844C75.8238 16.3162 76.6792 18.8066 80.0259 19.2181C83.0305 19.5862 85.5539 18.6659 87.516 17.085C87.6015 17.02 87.6229 16.9009 87.5748 16.8035L86.5483 14.7841C86.4842 14.6596 86.3238 14.6217 86.2169 14.7083C84.7627 15.8452 82.977 16.4029 81.8223 16.3704C79.5394 16.3054 79.224 15.3255 79.1812 15.0602C79.1759 15.0277 79.2026 14.9952 79.24 14.9952C83.9554 15.2335 86.5055 12.5698 86.4788 10.231C86.4681 9.13741 85.7731 7.24797 83.1267 6.92855C82.8808 6.89606 82.6135 6.87441 82.3141 6.87441C81.9024 6.87441 81.4854 6.92313 81.0738 7.00975C81.0684 7.00975 81.0577 7.00975 81.0524 7.00975C81.0203 7.01517 80.9882 7.026 80.9562 7.03141C79.9992 7.25338 79.1171 7.70273 78.3579 8.33616C77.1817 9.30525 76.2675 10.7129 75.92 12.4832C75.92 12.5049 75.8986 12.5265 75.8719 12.5265C75.1288 12.5644 73.9526 12.402 73.14 12.2721C72.862 12.2342 72.5679 12.18 72.2739 12.1205C72.2632 12.1205 72.2525 12.1205 72.2525 12.1205C71.4452 11.9472 70.5898 11.6928 69.7718 11.303C67.3393 10.1444 69.7184 8.36323 72.6962 10.139C72.8032 10.204 72.9422 10.1715 73.0117 10.0632L74.2627 8.16291C74.3375 8.04922 74.3054 7.89222 74.1878 7.82184C73.3485 7.32376 69.7398 5.72125 66.516 7.88139C66.516 7.88139 65.4895 6.95561 63.9712 6.95561C61.822 6.95561 61.0361 8.23871 61.0361 8.23871L61.2179 7.15052C61.2446 7.00434 61.1323 6.86899 60.9826 6.86899H58.0957C57.9727 6.86899 57.8658 6.96644 57.8604 7.09096C57.807 7.93553 57.5557 10.9565 56.6896 12.5861C55.3691 15.136 52.2308 16.4083 50.4987 16.3596C48.2158 16.2946 47.9004 15.3147 47.8576 15.0494C47.8523 15.0169 47.879 14.9844 47.9164 14.9844C52.6318 15.2226 55.182 12.559 55.1552 10.2202C55.1445 9.02372 54.3159 6.87441 51.0119 6.86899C48.2105 6.86899 45.7993 8.74761 44.8477 11.6224C44.837 11.6549 44.7996 11.6657 44.7782 11.644C43.7998 10.7183 43.7303 7.97884 43.7303 7.11262C43.7303 6.97727 43.6234 6.87441 43.4951 6.87441H40.9289C40.8006 6.87441 40.6937 6.98268 40.6937 7.11262C40.6937 7.74063 40.6616 9.37021 40.3782 10.7399C39.5763 14.6109 38.197 15.7586 37.5447 15.6882C37.117 15.6449 36.962 15.0169 36.8925 14.7949C36.6359 13.9612 35.4437 8.80717 35.048 7.05306C35.0267 6.94479 34.9304 6.86899 34.8235 6.86899H31.5997C31.434 6.86899 31.3217 7.03682 31.3805 7.19383L31.5088 7.54032C33.6366 13.4739 28.3332 16.4462 25.6975 16.3704C23.4146 16.3054 23.0992 15.3255 23.0564 15.0602C23.0511 15.0277 23.0778 14.9952 23.1153 14.9952C27.8306 15.2335 30.3808 12.5698 30.3541 10.231C30.3434 9.03455 29.5147 6.87441 26.2107 6.86899C23.297 6.86899 20.8057 8.91003 19.9396 11.9851C19.9289 12.023 19.8861 12.0393 19.854 12.0122C18.3999 10.7562 18.2502 8.39571 18.2128 7.60528C18.2074 7.47535 18.1005 7.3779 17.9775 7.3779H15.3418C15.2082 7.3779 15.1012 7.49159 15.1066 7.62694C15.1921 9.40811 14.8339 11.7956 14.8339 11.7956C14.3314 15.4284 12.9414 16.078 12.1822 16.078C11.5193 16.078 11.3054 15.45 11.5193 13.7446L12.225 7.65401C12.241 7.51325 12.1341 7.38873 11.9897 7.38873H9.1402C9.02258 7.38873 8.921 7.47535 8.90496 7.59987L8.3543 11.8281C8.29549 12.2991 8.16718 12.7701 8.03353 13.2249C7.37594 15.5042 6.24788 16.0889 5.73465 16.0889C4.85786 16.0889 4.85252 15.2226 5.06637 13.6093L5.63307 10.0036C5.93246 8.03298 4.80975 7.31293 4.55847 7.17758C3.8795 6.79861 2.17405 6.73365 0.126446 7.87056C0.0141751 7.93012 -0.0285948 8.07088 0.0195213 8.18457L0.853534 10.1336C0.906996 10.2527 1.04065 10.3122 1.16362 10.2689C1.34539 10.1985 1.52716 10.1444 1.62874 10.1336C1.78378 10.1173 2.02436 10.1119 2.17405 10.2635C2.37186 10.453 2.34513 10.8157 2.32909 10.9619L1.77309 14.4593C1.3935 17.3232 2.21148 19.3155 4.67609 19.3155C4.67609 19.3155 6.92686 19.4184 8.34895 17.3016C8.38103 17.2528 8.45053 17.2637 8.46657 17.3178C8.83012 18.498 9.80313 19.3155 11.5834 19.3155C14.294 19.3155 16.8548 17.8592 17.8973 13.6688C17.908 13.6309 17.9508 13.6255 17.9722 13.6526C18.2448 14.0803 18.8757 14.5892 19.5226 14.8545C19.544 14.8599 19.5547 14.8816 19.5547 14.9032C19.5707 15.2822 19.8487 18.7363 23.9011 19.2397C28.0766 19.7541 31.4768 17.6426 33.503 14.8924L34.3049 16.9659C34.3049 16.9659 35.1122 19.3047 36.9139 19.3047C39.1807 19.3047 41.4635 17.2312 42.752 13.8908C42.8161 13.7338 42.8696 13.5768 42.923 13.4198C42.9337 13.3873 42.9765 13.3765 42.9979 13.4036C43.3775 13.8096 43.8212 14.1074 44.3184 14.3402C44.3291 14.3402 44.3345 14.3564 44.3345 14.3672C44.2596 15.2551 44.6873 18.7363 48.7077 19.2343C51.9101 19.6295 54.5725 18.5522 56.5773 16.7818C56.6094 16.7548 56.6575 16.7818 56.6522 16.8251L56.3795 19.0503C56.3635 19.191 56.4704 19.321 56.6148 19.321H59.5391C59.6621 19.321 59.7637 19.2289 59.7744 19.1098L60.2235 14.9898C60.4694 12.7268 61.2072 11.5899 62.0519 10.8157C62.934 10.0361 63.9605 9.92243 64.3026 9.9116L64.2813 9.87912ZM22.9976 12.467C23.2008 11.2705 23.8584 10.5504 24.6175 10.0632C25.8204 9.289 27.0073 9.39187 27.3067 9.88995C27.5954 10.3664 27.5045 11.2976 25.9862 12.0663C25.0666 12.5319 24.1685 12.6023 23.0564 12.5373C23.019 12.5373 22.9923 12.4994 22.9976 12.467ZM47.8042 12.467C48.0073 11.2705 48.6649 10.5504 49.4241 10.0632C50.627 9.28359 51.8138 9.39187 52.1132 9.88995C52.4019 10.3664 52.311 11.2976 50.7927 12.0663C49.8732 12.5319 48.975 12.6023 47.863 12.5373C47.8255 12.5373 47.7988 12.4994 47.8042 12.467ZM79.1331 12.4724C79.3363 11.2759 79.9938 10.5559 80.753 10.0686C81.9559 9.289 83.1428 9.39728 83.4422 9.89536C83.7309 10.3718 83.64 11.303 82.1216 12.0717C81.2021 12.5373 80.3039 12.6077 79.1919 12.5428C79.1545 12.5428 79.1277 12.5049 79.1384 12.4724H79.1331Z" fill="#00CBD5"/>
<path d="M157.273 15.9894L159.668 15.3254C159.763 16.3689 160.546 17.2938 162.016 17.2938C163.155 17.2938 163.747 16.6772 163.747 15.9657C163.747 15.3491 163.321 14.8748 162.396 14.685L160.688 14.3056C158.648 13.855 157.581 12.5269 157.581 10.9379C157.581 8.92203 159.431 7.21448 161.826 7.21448C165.052 7.21448 166.095 9.30149 166.285 10.4399L163.961 11.1039C163.866 10.4399 163.368 9.37264 161.826 9.37264C160.854 9.37264 160.166 9.98925 160.166 10.7007C160.166 11.3173 160.617 11.768 161.328 11.9102L163.083 12.266C165.265 12.7403 166.404 14.0684 166.404 15.776C166.404 17.5309 164.981 19.4757 162.04 19.4757C158.696 19.4757 157.415 17.2938 157.273 15.9894Z" fill="currentColor"/>
<path d="M140.527 19.1199H137.799V7.57018H140.432V9.04058C141.096 7.85478 142.543 7.23816 143.847 7.23816C145.365 7.23816 146.693 7.92592 147.309 9.27774C148.211 7.75991 149.562 7.23816 151.057 7.23816C153.144 7.23816 155.136 8.56626 155.136 11.6256V19.1199H152.48V12.0762C152.48 10.7244 151.792 9.70463 150.25 9.70463C148.804 9.70463 147.855 10.843 147.855 12.266V19.1199H145.151V12.0762C145.151 10.7481 144.487 9.70463 142.922 9.70463C141.452 9.70463 140.527 10.7956 140.527 12.266V19.1199Z" fill="currentColor"/>
<path d="M132.124 17.8392C131.555 18.8827 130.203 19.4519 128.852 19.4519C126.1 19.4519 124.488 17.4123 124.488 14.851V7.57019H127.239V14.353C127.239 15.7759 127.903 16.9854 129.563 16.9854C131.152 16.9854 131.982 15.9182 131.982 14.4004V7.57019H134.733V17.0092C134.733 17.9578 134.804 18.693 134.852 19.1199H132.219C132.172 18.859 132.124 18.3135 132.124 17.8392Z" fill="currentColor"/>
<path d="M113.259 19.1199H110.58V1.94946H113.283V8.99312C113.805 8.09191 115.133 7.26185 116.912 7.26185C120.374 7.26185 122.248 9.89433 122.248 13.2857C122.248 16.772 120.185 19.4044 116.817 19.4044C115.18 19.4044 113.924 18.693 113.259 17.5783V19.1199ZM119.473 13.3094C119.473 11.009 118.192 9.7046 116.366 9.7046C114.611 9.7046 113.259 11.009 113.259 13.3094C113.259 15.5862 114.611 16.9617 116.366 16.9617C118.169 16.9617 119.473 15.5862 119.473 13.3094Z" fill="currentColor"/>
<path d="M107.526 19.1199H104.775V1.94946H107.526V19.1199Z" fill="currentColor"/>
<path d="M91.7969 15.9894C91.7969 13.9261 93.3147 12.7877 95.2831 12.5031L98.2476 12.0525C98.9117 11.9577 99.1014 11.6257 99.1014 11.2225C99.1014 10.2501 98.4374 9.4675 96.9195 9.4675C95.4729 9.4675 94.6665 10.3924 94.5479 11.5545L92.034 10.9853C92.2475 8.99318 94.0499 7.21448 96.8958 7.21448C100.453 7.21448 101.805 9.23034 101.805 11.5308V17.2701C101.805 18.3136 101.924 19.0013 101.947 19.1199H99.386C99.3623 19.0488 99.2674 18.5745 99.2674 17.6495C98.722 18.527 97.5836 19.4757 95.71 19.4757C93.291 19.4757 91.7969 17.8155 91.7969 15.9894ZM96.2318 17.3175C97.7733 17.3175 99.1014 16.5823 99.1014 14.3293V13.8075L96.0895 14.2581C95.2357 14.4004 94.5479 14.8748 94.5479 15.8234C94.5479 16.606 95.1408 17.3175 96.2318 17.3175Z" fill="currentColor"/>
</svg>
