<svg viewBox="0 0 220 24" fill="none" xmlns="http://www.w3.org/2000/svg">
<g clip-path="url(#clip0_28831_25646)">
<path d="M0 12C0 3.3601 3.3601 0 12 0C20.6399 0 24 3.3601 24 12C24 20.6399 20.6399 24 12 24C3.3601 24 0 20.6399 0 12Z" fill="#00CBD5"/>
<path d="M20.5553 11.6838C20.582 11.5972 20.5452 11.507 20.4702 11.4565C19.0735 10.5116 18.7826 8.48769 18.7551 7.84745C18.7508 7.7399 18.6635 7.65617 18.5559 7.65617H16.3364C16.2216 7.65545 16.1321 7.75 16.1372 7.86549C16.2065 9.34663 15.9062 11.3287 15.9062 11.3287C15.4818 14.3502 14.3139 14.8908 13.6744 14.8908C13.115 14.8908 12.9352 14.3697 13.115 12.9477L13.7105 7.87993C13.7242 7.76155 13.6318 7.65689 13.512 7.65689H11.1098C11.0095 7.65689 10.925 7.73124 10.912 7.83012L10.4472 11.3475C10.3981 11.7401 10.2877 12.1299 10.1772 12.5103C9.62576 14.4058 8.67442 14.8908 8.24134 14.8908C7.50149 14.8908 7.50005 14.169 7.67978 12.8272L8.15473 9.82663C8.40736 8.18814 7.46179 7.5876 7.24742 7.47355C6.67719 7.15668 5.23936 7.10327 3.51497 8.05099C3.42257 8.10152 3.3836 8.21701 3.42546 8.31373L4.12706 9.93563C4.17036 10.0352 4.28441 10.0858 4.38618 10.0475C4.53921 9.99048 4.69295 9.9414 4.78101 9.93274C4.91382 9.91903 5.11304 9.91542 5.24224 10.0403C5.40682 10.1998 5.38733 10.5015 5.37217 10.6199L4.90516 13.528C4.5854 15.9122 5.27256 17.568 7.35063 17.568C7.35063 17.568 9.24248 17.6524 10.4428 15.8985C10.4717 15.8559 10.5338 15.8653 10.5497 15.9136C10.8593 16.8902 11.6764 17.568 13.1734 17.568C15.4146 17.568 17.5331 16.3943 18.4376 13.0567C18.4484 13.0156 18.4982 12.9982 18.5299 13.0264C18.7739 13.2408 19.259 13.5706 19.6588 13.7439C19.7671 13.7908 19.8913 13.733 19.9281 13.6212C20.0739 13.1758 20.424 12.1068 20.5539 11.6838H20.5553Z" fill="white"/>
</g>
<path d="M104.556 4.04486V7.32327H106.778V9.58955H104.556V14.5622C104.556 15.5083 104.974 15.9043 105.92 15.9043C106.272 15.9043 106.69 15.8383 106.8 15.8163V17.9286C106.646 17.9946 106.162 18.1706 105.238 18.1706C103.258 18.1706 102.026 16.9825 102.026 14.9802V9.58955H100.045V7.32327H100.595C101.74 7.32327 102.246 6.59718 102.246 5.65106V4.04486H104.556Z" fill="white"/>
<path d="M91.8077 11.8559V18.0386H89.2554V7.3233H91.7417V8.75348C92.4458 7.52132 93.7219 7.01526 94.9101 7.01526C97.5284 7.01526 98.7826 8.90749 98.7826 11.2618V18.0386H96.2302V11.7018C96.2302 10.3817 95.6362 9.32555 94.03 9.32555C92.5778 9.32555 91.8077 10.4477 91.8077 11.8559Z" fill="white"/>
<path d="M84.2104 16.8505C83.6823 17.8186 82.4281 18.3467 81.174 18.3467C78.6217 18.3467 77.1255 16.4544 77.1255 14.0781V7.3233H79.6778V13.6161C79.6778 14.9363 80.2939 16.0584 81.8341 16.0584C83.3083 16.0584 84.0784 15.0683 84.0784 13.6601V7.3233H86.6307V16.0804C86.6307 16.9605 86.6967 17.6426 86.7407 18.0386H84.2984C84.2544 17.7966 84.2104 17.2905 84.2104 16.8505Z" fill="white"/>
<path d="M69.7346 16.0804C71.3188 16.0804 72.727 14.9143 72.727 12.67C72.727 10.4477 71.3188 9.30357 69.7346 9.30357C68.1724 9.30357 66.7423 10.4477 66.7423 12.67C66.7423 14.8923 68.1724 16.0804 69.7346 16.0804ZM69.7346 6.99329C72.947 6.99329 75.3013 9.39158 75.3013 12.67C75.3013 15.9704 72.947 18.3687 69.7346 18.3687C66.5442 18.3687 64.1899 15.9704 64.1899 12.67C64.1899 9.39158 66.5442 6.99329 69.7346 6.99329Z" fill="white"/>
<path d="M58.1652 9.34758C56.603 9.34758 55.2169 10.5137 55.2169 12.67C55.2169 14.8263 56.603 16.0364 58.2092 16.0364C59.8814 16.0364 60.6515 14.8703 60.8936 14.0562L63.1379 14.8703C62.6318 16.5425 61.0256 18.3687 58.2092 18.3687C55.0628 18.3687 52.6646 15.9264 52.6646 12.67C52.6646 9.36958 55.0628 6.99329 58.1432 6.99329C61.0256 6.99329 62.6098 8.79751 63.0498 10.5137L60.7616 11.3498C60.5195 10.4037 59.7934 9.34758 58.1652 9.34758Z" fill="white"/>
<path d="M46.6394 9.34758C45.0772 9.34758 43.691 10.5137 43.691 12.67C43.691 14.8263 45.0772 16.0364 46.6834 16.0364C48.3556 16.0364 49.1257 14.8703 49.3677 14.0562L51.612 14.8703C51.1059 16.5425 49.4997 18.3687 46.6834 18.3687C43.537 18.3687 41.1387 15.9264 41.1387 12.67C41.1387 9.36958 43.537 6.99329 46.6174 6.99329C49.4997 6.99329 51.0839 8.79751 51.524 10.5137L49.2357 11.3498C48.9936 10.4037 48.2676 9.34758 46.6394 9.34758Z" fill="white"/>
<path d="M30 15.1343C30 13.2201 31.4082 12.1639 33.2344 11.8999L35.9847 11.4818C36.6008 11.3938 36.7768 11.0858 36.7768 10.7117C36.7768 9.80964 36.1608 9.08355 34.7526 9.08355C33.4104 9.08355 32.6623 9.94165 32.5523 11.0198L30.22 10.4917C30.4181 8.64349 32.0903 6.99329 34.7306 6.99329C38.031 6.99329 39.2852 8.86352 39.2852 10.9978V16.3224C39.2852 17.2906 39.3952 17.9286 39.4172 18.0387H37.0409C37.0189 17.9727 36.9309 17.5326 36.9309 16.6745C36.4248 17.4886 35.3687 18.3687 33.6305 18.3687C31.3862 18.3687 30 16.8285 30 15.1343ZM34.1145 16.3665C35.5447 16.3665 36.7768 15.6844 36.7768 13.5941V13.11L33.9825 13.5281C33.1904 13.6601 32.5523 14.1002 32.5523 14.9803C32.5523 15.7064 33.1024 16.3665 34.1145 16.3665Z" fill="white"/>
<path d="M211.277 15.2883L212.487 14.8702C212.686 16.1684 213.632 17.1805 215.37 17.1805C216.69 17.1805 217.702 16.4324 217.702 15.3103C217.702 14.3422 217.042 13.8141 215.92 13.5501L214.226 13.154C212.664 12.802 211.651 11.8779 211.651 10.3597C211.651 8.66547 213.28 7.2793 215.194 7.2793C217.658 7.2793 218.648 8.73148 218.956 9.98563L217.79 10.4257C217.614 9.41356 216.844 8.42344 215.194 8.42344C214.028 8.42344 212.95 9.14953 212.95 10.2717C212.95 11.1298 213.5 11.7018 214.6 11.9439L216.272 12.3179C218.032 12.736 219 13.7041 219 15.2223C219 16.7845 217.702 18.3247 215.348 18.3247C212.796 18.3247 211.453 16.6965 211.277 15.2883Z" fill="white"/>
<path d="M201.938 15.2883L203.149 14.8702C203.347 16.1684 204.293 17.1805 206.031 17.1805C207.351 17.1805 208.363 16.4324 208.363 15.3103C208.363 14.3422 207.703 13.8141 206.581 13.5501L204.887 13.154C203.325 12.802 202.313 11.8779 202.313 10.3597C202.313 8.66547 203.941 7.2793 205.855 7.2793C208.319 7.2793 209.309 8.73148 209.617 9.98563L208.451 10.4257C208.275 9.41356 207.505 8.42344 205.855 8.42344C204.689 8.42344 203.611 9.14953 203.611 10.2717C203.611 11.1298 204.161 11.7018 205.261 11.9439L206.933 12.3179C208.693 12.736 209.661 13.7041 209.661 15.2223C209.661 16.7845 208.363 18.3247 206.009 18.3247C203.457 18.3247 202.114 16.6965 201.938 15.2883Z" fill="white"/>
<path d="M192.033 11.944H199.03C198.964 10.0078 197.732 8.44559 195.532 8.44559C193.573 8.44559 192.143 10.0078 192.033 11.944ZM199.184 14.6504L200.35 15.0684C199.756 16.8506 198.172 18.3248 195.752 18.3248C192.979 18.3248 190.647 16.2786 190.647 12.7581C190.647 9.47972 192.891 7.25745 195.51 7.25745C198.568 7.25745 200.416 9.47972 200.416 12.5601C200.416 12.7361 200.416 12.8681 200.394 13.0442H191.989V13.1322C191.989 15.5305 193.705 17.1367 195.752 17.1367C197.622 17.1367 198.744 16.0365 199.184 14.6504Z" fill="white"/>
<path d="M181.205 11.7679V18.0386H179.885V7.54333H181.161V9.21554C181.755 8.0934 182.966 7.2793 184.572 7.2793C187.036 7.2793 188.29 9.01751 188.29 11.1958V18.0386H186.97V11.4158C186.97 9.76561 186.156 8.46744 184.132 8.46744C182.306 8.46744 181.205 9.98563 181.205 11.7679Z" fill="white"/>
<path d="M176.701 18.0387H175.38V7.54335H176.701V18.0387ZM174.94 3.18681C174.94 2.54873 175.424 2.08667 176.041 2.08667C176.657 2.08667 177.141 2.54873 177.141 3.18681C177.141 3.82489 176.657 4.28694 176.041 4.28694C175.424 4.28694 174.94 3.82489 174.94 3.18681Z" fill="white"/>
<path d="M165.161 15.2883L166.371 14.8702C166.569 16.1684 167.515 17.1805 169.254 17.1805C170.574 17.1805 171.586 16.4324 171.586 15.3103C171.586 14.3422 170.926 13.8141 169.804 13.5501L168.11 13.154C166.547 12.802 165.535 11.8779 165.535 10.3597C165.535 8.66547 167.163 7.2793 169.078 7.2793C171.542 7.2793 172.532 8.73148 172.84 9.98563L171.674 10.4257C171.498 9.41356 170.728 8.42344 169.078 8.42344C167.911 8.42344 166.833 9.14953 166.833 10.2717C166.833 11.1298 167.383 11.7018 168.484 11.9439L170.156 12.3179C171.916 12.736 172.884 13.7041 172.884 15.2223C172.884 16.7845 171.586 18.3247 169.232 18.3247C166.679 18.3247 165.337 16.6965 165.161 15.2883Z" fill="white"/>
<path d="M161.596 16.5645V16.4105C161.09 17.4446 159.968 18.3247 158.295 18.3247C155.655 18.3247 154.379 16.3445 154.379 14.1442V7.5434H155.699V13.9242C155.699 15.5964 156.491 17.1366 158.537 17.1366C160.408 17.1366 161.508 15.7064 161.508 13.9462V7.5434H162.828V16.0365C162.828 16.8286 162.894 17.5766 162.96 18.0387H161.706C161.64 17.7967 161.596 17.2466 161.596 16.5645Z" fill="white"/>
<path d="M143.441 18.0386H142.143V2.15265H143.463V9.56757C143.925 8.53344 145.157 7.25728 147.269 7.25728C150.196 7.25728 152.022 9.67759 152.022 12.78C152.022 15.8824 150.13 18.3247 147.225 18.3247C145.201 18.3247 143.969 17.1145 143.441 15.9924V18.0386ZM147.071 17.1365C149.227 17.1365 150.702 15.3323 150.702 12.78C150.702 10.2497 149.227 8.44543 147.071 8.44543C144.893 8.44543 143.441 10.2497 143.441 12.78C143.441 15.3323 144.893 17.1365 147.071 17.1365Z" fill="white"/>
<path d="M136.768 7.52151V8.90769C136.504 8.84168 136.196 8.79767 135.844 8.79767C134.062 8.79767 132.742 9.94181 132.742 12.3401V18.0388H131.421V7.54352H132.72V9.50176C133.358 8.02758 134.546 7.4115 135.954 7.4115C136.306 7.4115 136.57 7.4555 136.768 7.52151Z" fill="white"/>
<path d="M123.734 18.3247C120.83 18.3247 118.52 16.0584 118.52 12.802C118.52 9.50157 120.786 7.2793 123.734 7.2793C126.639 7.2793 128.949 9.50157 128.949 12.802C128.949 16.0584 126.639 18.3247 123.734 18.3247ZM119.862 12.802C119.862 15.5303 121.688 17.1365 123.734 17.1365C125.78 17.1365 127.607 15.5303 127.607 12.802C127.607 10.0516 125.78 8.46744 123.734 8.46744C121.688 8.46744 119.862 10.0516 119.862 12.802Z" fill="white"/>
<path d="M117.759 8.73146H114.833V18.0386H113.513V8.73146H111.356V7.54331H113.513V5.36504C113.513 3.14277 114.877 1.97662 116.637 1.97662C117.187 1.97662 117.583 2.08664 117.825 2.19665V3.3848C117.627 3.29679 117.297 3.20878 116.835 3.20878C115.779 3.20878 114.833 3.75884 114.833 5.43105V7.54331H117.759V8.73146Z" fill="white"/>
<defs>
<clipPath id="clip0_28831_25646"><rect width="220" height="24" fill="white"/>
</clipPath>
</defs>
</svg>
