<svg viewBox="0 0 193 24" fill="none" xmlns="http://www.w3.org/2000/svg">
<path d="M183.704 10.9566H189.372C189.325 9.60482 188.424 8.3953 186.526 8.3953C184.795 8.3953 183.799 9.7234 183.704 10.9566ZM189.68 13.9686L192.005 14.7038C191.388 16.7196 189.562 18.356 186.787 18.356C183.657 18.356 180.882 16.0793 180.882 12.1662C180.882 8.51388 183.585 6.09485 186.503 6.09485C190.06 6.09485 192.147 8.44273 192.147 12.095C192.147 12.5456 192.1 12.9251 192.076 12.9725H183.633C183.704 14.7275 185.08 15.9844 186.787 15.9844C188.447 15.9844 189.301 15.1069 189.68 13.9686Z" fill="white"/>
<path d="M171.152 11.3362V18.0004H168.401V6.45068H171.081V7.99222C171.84 6.66412 173.215 6.11865 174.496 6.11865C177.318 6.11865 178.67 8.15823 178.67 10.6958V18.0004H175.919V11.1702C175.919 9.7472 175.279 8.60883 173.547 8.60883C171.982 8.60883 171.152 9.81835 171.152 11.3362Z" fill="white"/>
<path d="M165.346 18.0004H162.619V6.45068H165.346V18.0004Z" fill="white"/>
<path d="M163.971 1C162.999 1 162.192 1.80634 162.192 2.80242C162.192 3.79849 162.999 4.58112 163.971 4.58112C164.967 4.58112 165.774 3.79849 165.774 2.80242C165.774 1.80634 164.967 1 163.971 1Z" fill="white"/>
<path d="M160.193 18.0004H150.754V15.6051L156.612 8.86972H150.873V6.45068H160.075V8.77485L154.146 15.5814H160.193V18.0004Z" fill="white"/>
<path d="M138.417 14.8698C138.417 12.8065 139.935 11.6681 141.903 11.3835L144.868 10.9329C145.532 10.8381 145.722 10.506 145.722 10.1029C145.722 9.1305 145.057 8.34787 143.54 8.34787C142.093 8.34787 141.287 9.27279 141.168 10.4349L138.654 9.86569C138.868 7.87355 140.67 6.09485 143.516 6.09485C147.073 6.09485 148.425 8.11071 148.425 10.4112V16.1504C148.425 17.1939 148.544 17.8817 148.567 18.0003H146.006C145.982 17.9291 145.888 17.4548 145.888 16.5299C145.342 17.4074 144.204 18.356 142.33 18.356C139.911 18.356 138.417 16.6959 138.417 14.8698ZM142.852 16.1979C144.393 16.1979 145.722 15.4627 145.722 13.2097V12.6879L142.71 13.1385C141.856 13.2808 141.168 13.7551 141.168 14.7038C141.168 15.4864 141.761 16.1979 142.852 16.1979Z" fill="white"/>
<path d="M124.645 18.6407L127.182 17.9766C127.372 19.3996 128.487 20.4668 130.076 20.4668C132.257 20.4668 133.348 19.3521 133.348 17.0043V15.7947C132.85 16.6959 131.688 17.4786 130.004 17.4786C126.921 17.4786 124.668 15.107 124.668 11.8579C124.668 8.7748 126.826 6.23718 130.004 6.23718C131.807 6.23718 132.921 6.97238 133.419 7.92102V6.45063H136.076V16.9094C136.076 19.9925 134.487 22.8621 130.147 22.8621C127.087 22.8621 124.953 20.9648 124.645 18.6407ZM130.455 15.1307C132.21 15.1307 133.419 13.85 133.419 11.8579C133.419 9.88945 132.163 8.60878 130.455 8.60878C128.7 8.60878 127.443 9.88945 127.443 11.8579C127.443 13.8737 128.653 15.1307 130.455 15.1307Z" fill="white"/>
<path d="M112.401 14.8698C112.401 12.8065 113.919 11.6681 115.888 11.3835L118.852 10.9329C119.516 10.8381 119.706 10.506 119.706 10.1029C119.706 9.1305 119.042 8.34787 117.524 8.34787C116.077 8.34787 115.271 9.27279 115.152 10.4349L112.639 9.86569C112.852 7.87355 114.654 6.09485 117.5 6.09485C121.058 6.09485 122.41 8.11071 122.41 10.4112V16.1504C122.41 17.1939 122.528 17.8817 122.552 18.0003H119.99C119.967 17.9291 119.872 17.4548 119.872 16.5299C119.326 17.4074 118.188 18.356 116.315 18.356C113.895 18.356 112.401 16.6959 112.401 14.8698ZM116.836 16.1979C118.378 16.1979 119.706 15.4627 119.706 13.2097V12.6879L116.694 13.1385C115.84 13.2808 115.152 13.7551 115.152 14.7038C115.152 15.4864 115.745 16.1979 116.836 16.1979Z" fill="white"/>
<path d="M95.5603 18.0004H92.833V6.45068H95.4655V7.92107C96.1295 6.73527 97.5762 6.11865 98.8806 6.11865C100.398 6.11865 101.727 6.80642 102.343 8.15823C103.244 6.6404 104.596 6.11865 106.09 6.11865C108.177 6.11865 110.169 7.44675 110.169 10.5061V18.0004H107.513V10.9567C107.513 9.60491 106.825 8.58512 105.284 8.58512C103.837 8.58512 102.889 9.72349 102.889 11.1464V18.0004H100.185V10.9567C100.185 9.62862 99.5209 8.58512 97.9557 8.58512C96.4853 8.58512 95.5603 9.67605 95.5603 11.1464V18.0004Z" fill="white"/>
<path d="M64.4518 8.735C64.5319 8.735 64.6121 8.735 64.6923 8.74582C64.8955 8.77829 65.1093 8.88112 65.1307 9.1409C65.1948 9.90941 65.3552 11.2516 66.9804 12.1229C69.044 13.2324 71.2358 13.4272 71.1984 14.3202C71.145 15.4784 68.5468 15.473 65.8684 14.3419C65.7615 14.2986 65.6386 14.3365 65.5744 14.4339L64.3181 16.7611C64.2433 16.8747 64.286 17.0317 64.4036 17.0966C65.0238 17.4484 67.3921 18.3739 70.0437 18.2656C73.2727 18.1303 74.8764 16.1441 74.9727 13.8277C74.9727 13.8007 74.9941 13.7844 75.0208 13.7844C75.3148 13.8115 75.673 13.8061 75.8013 13.8007C75.8227 13.8007 75.8441 13.8169 75.8441 13.8386C75.9938 15.1699 76.8491 17.6595 80.1957 18.0708C83.2002 18.4388 85.7235 17.5188 87.6855 15.9384C87.771 15.8735 87.7924 15.7544 87.7443 15.657L86.7178 13.6383C86.6537 13.5138 86.4933 13.476 86.3864 13.5625C84.9323 14.6991 83.1467 15.2565 81.992 15.2241C79.7092 15.1591 79.3938 14.1795 79.3511 13.9143C79.3457 13.8819 79.3724 13.8494 79.4099 13.8494C84.125 14.0875 86.6751 11.4248 86.6483 9.08678C86.6376 7.99355 85.9427 6.10474 83.2964 5.78543C83.0505 5.75296 82.7832 5.73131 82.4838 5.73131C82.0722 5.73131 81.6552 5.78002 81.2435 5.86661C81.2382 5.86661 81.2275 5.86661 81.2222 5.86661C81.1901 5.87202 81.158 5.88285 81.1259 5.88826C80.169 6.11015 79.2869 6.55935 78.5278 7.19256C77.3516 8.16132 76.4375 9.56845 76.09 11.3382C76.09 11.3598 76.0686 11.3815 76.0419 11.3815C75.2988 11.4194 74.1227 11.257 73.3101 11.1271C73.0321 11.0892 72.7381 11.0351 72.444 10.9756C72.4333 10.9756 72.4226 10.9756 72.4226 10.9756C71.6154 10.8024 70.76 10.548 69.9421 10.1584C67.5097 9.00019 69.8886 7.21962 72.8664 8.99478C72.9733 9.05972 73.1123 9.02725 73.1818 8.91901L74.4327 7.01938C74.5076 6.90572 74.4755 6.74877 74.3579 6.67842C73.5186 6.18051 69.91 4.57854 66.6864 6.73795C66.6864 6.73795 65.66 5.81249 64.1417 5.81249C61.9926 5.81249 61.2067 7.09515 61.2067 7.09515L61.3885 6.00732C61.4152 5.8612 61.303 5.7259 61.1533 5.7259H58.2664C58.1435 5.7259 58.0366 5.82331 58.0312 5.94779C57.9778 6.79207 57.7265 9.812 56.8604 11.441C55.54 13.9901 52.4019 15.2619 50.6698 15.2132C48.387 15.1483 48.0716 14.1687 48.0289 13.9035C48.0235 13.871 48.0502 13.8386 48.0877 13.8386C52.8028 14.0767 55.3529 11.414 55.3261 9.07596C55.3154 7.87989 54.4868 5.73131 51.183 5.7259C48.3817 5.7259 45.9706 7.60388 45.0191 10.4777C45.0084 10.5102 44.9709 10.521 44.9496 10.4993C43.9712 9.57387 43.9017 6.83537 43.9017 5.96944C43.9017 5.83414 43.7948 5.73131 43.6665 5.73131H41.1004C40.9721 5.73131 40.8652 5.83955 40.8652 5.96944C40.8652 6.59724 40.8331 8.22626 40.5498 9.59551C39.7479 13.4651 38.3686 14.6125 37.7164 14.5421C37.2887 14.4988 37.1337 13.871 37.0642 13.6491C36.8076 12.8157 35.6154 7.66341 35.2198 5.90991C35.1985 5.80166 35.1022 5.7259 34.9953 5.7259H31.7717C31.6059 5.7259 31.4937 5.89367 31.5525 6.05062L31.6808 6.39699C33.8085 12.3286 28.5053 15.2998 25.8697 15.2241C23.5869 15.1591 23.2715 14.1795 23.2288 13.9143C23.2234 13.8819 23.2501 13.8494 23.2876 13.8494C28.0027 14.0875 30.5528 11.4248 30.5261 9.08678C30.5154 7.89072 29.6867 5.73131 26.3829 5.7259C23.4693 5.7259 20.9781 7.76624 20.112 10.8403C20.1014 10.8782 20.0586 10.8944 20.0265 10.8673C18.5724 9.61175 18.4227 7.2521 18.3853 6.46194C18.3799 6.33205 18.273 6.23463 18.1501 6.23463H15.5145C15.3808 6.23463 15.2739 6.34828 15.2793 6.48358C15.3648 8.26415 15.0066 10.6509 15.0066 10.6509C14.5041 14.2824 13.1141 14.9318 12.355 14.9318C11.6921 14.9318 11.4783 14.304 11.6921 12.5992L12.3978 6.51064C12.4138 6.36993 12.3069 6.24545 12.1625 6.24545H9.31313C9.19552 6.24545 9.09395 6.33205 9.07791 6.45652L8.52727 10.6833C8.46846 11.1542 8.34016 11.625 8.20651 12.0796C7.54895 14.3581 6.42095 14.9426 5.90773 14.9426C5.03099 14.9426 5.02564 14.0767 5.23948 12.4639L5.80616 8.85948C6.10553 6.88949 4.98287 6.16968 4.73161 6.03438C4.05267 5.65554 2.3473 5.5906 0.29978 6.72713C0.187514 6.78666 0.144746 6.92737 0.19286 7.04103L1.02684 8.98936C1.0803 9.10843 1.21395 9.16796 1.3369 9.12467C1.51867 9.05431 1.70043 9.00019 1.80201 8.98936C1.95704 8.97313 2.19761 8.96772 2.3473 9.11925C2.5451 9.30868 2.51837 9.67128 2.50233 9.81741L1.94635 13.3136C1.56678 16.1766 2.38472 18.1682 4.84922 18.1682C4.84922 18.1682 7.09989 18.271 8.52192 16.1549C8.554 16.1062 8.6235 16.117 8.63954 16.1712C9.00307 17.351 9.97604 18.1682 11.7563 18.1682C14.4667 18.1682 17.0274 16.7124 18.0699 12.5234C18.0806 12.4856 18.1233 12.4801 18.1447 12.5072C18.4174 12.9348 19.0482 13.4435 19.6951 13.7087C19.7164 13.7141 19.7271 13.7357 19.7271 13.7574C19.7432 14.1362 20.0212 17.5891 24.0734 18.0924C28.2487 18.6066 31.6487 16.4959 33.6748 13.7466L34.4767 15.8194C34.4767 15.8194 35.284 18.1574 37.0856 18.1574C39.3523 18.1574 41.635 16.0846 42.9234 12.7453C42.9876 12.5884 43.041 12.4314 43.0945 12.2745C43.1052 12.242 43.148 12.2312 43.1693 12.2582C43.5489 12.6641 43.9926 12.9618 44.4898 13.1945C44.5005 13.1945 44.5058 13.2108 44.5058 13.2216C44.431 14.1092 44.8587 17.5891 48.8789 18.087C52.0811 18.4821 54.7434 17.4051 56.7482 15.6354C56.7802 15.6083 56.8284 15.6354 56.823 15.6787L56.5504 17.903C56.5343 18.0437 56.6413 18.1736 56.7856 18.1736H59.7099C59.8328 18.1736 59.9344 18.0816 59.9451 17.9625L60.3941 13.844C60.6401 11.5817 61.3778 10.4452 62.2225 9.67128C63.1046 8.89195 64.131 8.77829 64.4731 8.76747L64.4518 8.735ZM23.17 11.322C23.3731 10.1259 24.0307 9.40609 24.7898 8.91901C25.9926 8.14508 27.1795 8.24791 27.4788 8.74582C27.7675 9.22208 27.6766 10.153 26.1584 10.9215C25.2389 11.3869 24.3407 11.4573 23.2288 11.3923C23.1913 11.3923 23.1646 11.3544 23.17 11.322ZM47.9754 11.322C48.1785 10.1259 48.8361 9.40609 49.5952 8.91901C50.7981 8.13967 51.9849 8.24791 52.2843 8.74582C52.5729 9.22208 52.4821 10.153 50.9638 10.9215C50.0443 11.3869 49.1462 11.4573 48.0342 11.3923C47.9968 11.3923 47.97 11.3544 47.9754 11.322ZM79.3029 11.3274C79.5061 10.1313 80.1637 9.4115 80.9228 8.92442C82.1256 8.14508 83.3124 8.25333 83.6118 8.75123C83.9005 9.22749 83.8096 10.1584 82.2914 10.9269C81.3718 11.3923 80.4737 11.4627 79.3617 11.3977C79.3243 11.3977 79.2976 11.3598 79.3083 11.3274H79.3029Z" fill="white"/>
</svg>
