<svg viewBox="0 0 183 24" fill="none" xmlns="http://www.w3.org/2000/svg">
<path d="M64.2813 9.11062C64.3615 9.11062 64.4416 9.11062 64.5218 9.12145C64.725 9.15392 64.9388 9.25676 64.9602 9.51655C65.0244 10.2851 65.1848 11.6273 66.81 12.4987C68.8737 13.6082 71.0656 13.8031 71.0282 14.6961C70.9747 15.8543 68.3765 15.8489 65.698 14.7178C65.5911 14.6745 65.4681 14.7123 65.404 14.8098L64.1476 17.1371C64.0728 17.2507 64.1155 17.4077 64.2331 17.4726C64.8533 17.8244 67.2217 18.7499 69.8734 18.6417C73.1025 18.5064 74.7064 16.5201 74.8026 14.2036C74.8026 14.1765 74.824 14.1603 74.8508 14.1603C75.1448 14.1874 75.503 14.1819 75.6313 14.1765C75.6527 14.1765 75.6741 14.1928 75.6741 14.2144C75.8238 15.5458 76.6792 18.0355 80.0259 18.4468C83.0305 18.8149 85.5539 17.8948 87.516 16.3144C87.6015 16.2494 87.6229 16.1304 87.5748 16.0329L86.5483 14.0142C86.4842 13.8897 86.3238 13.8518 86.2169 13.9384C84.7627 15.075 82.977 15.6324 81.8223 15.6C79.5394 15.535 79.224 14.5554 79.1812 14.2902C79.1759 14.2577 79.2026 14.2252 79.24 14.2252C83.9554 14.4634 86.5055 11.8005 86.4788 9.46242C86.4681 8.36914 85.7731 6.48025 83.1267 6.16092C82.8808 6.12845 82.6135 6.1068 82.3141 6.1068C81.9024 6.1068 81.4854 6.15551 81.0738 6.24211C81.0684 6.24211 81.0577 6.24211 81.0524 6.24211C81.0203 6.24752 80.9882 6.25834 80.9562 6.26376C79.9992 6.48566 79.1171 6.93488 78.3579 7.56812C77.1817 8.53692 76.2675 9.94412 75.92 11.7139C75.92 11.7356 75.8986 11.7572 75.8719 11.7572C75.1288 11.7951 73.9526 11.6328 73.14 11.5029C72.862 11.465 72.5679 11.4108 72.2739 11.3513C72.2632 11.3513 72.2525 11.3513 72.2525 11.3513C71.4452 11.1781 70.5898 10.9237 69.7718 10.5341C67.3393 9.37583 69.7184 7.59518 72.6962 9.37041C72.8032 9.43536 72.9422 9.40289 73.0117 9.29464L74.2627 7.39493C74.3375 7.28127 74.3054 7.12431 74.1878 7.05395C73.3485 6.55602 69.7398 4.95398 66.516 7.11349C66.516 7.11349 65.4895 6.18799 63.9712 6.18799C61.822 6.18799 61.0361 7.4707 61.0361 7.4707L61.2179 6.38283C61.2446 6.2367 61.1323 6.10139 60.9826 6.10139H58.0957C57.9727 6.10139 57.8658 6.19881 57.8604 6.32329C57.807 7.16761 57.5557 10.1877 56.6896 11.8168C55.3691 14.366 52.2308 15.6379 50.4987 15.5891C48.2158 15.5242 47.9004 14.5446 47.8576 14.2794C47.8523 14.2469 47.879 14.2144 47.9164 14.2144C52.6318 14.4526 55.182 11.7897 55.1552 9.4516C55.1445 8.25548 54.3159 6.1068 51.0119 6.10139C48.2105 6.10139 45.7993 7.97945 44.8477 10.8534C44.837 10.8859 44.7996 10.8967 44.7782 10.875C43.7998 9.94953 43.7303 7.21091 43.7303 6.34494C43.7303 6.20963 43.6234 6.1068 43.4951 6.1068H40.9289C40.8006 6.1068 40.6937 6.21505 40.6937 6.34494C40.6937 6.97277 40.6616 8.60187 40.3782 9.97118C39.5763 13.841 38.197 14.9884 37.5447 14.918C37.117 14.8747 36.962 14.2469 36.8925 14.025C36.6359 13.1915 35.4437 8.03899 35.048 6.28541C35.0267 6.17716 34.9304 6.10139 34.8235 6.10139H31.5997C31.434 6.10139 31.3217 6.26917 31.3805 6.42613L31.5088 6.77251C33.6366 12.7044 28.3332 15.6757 25.6975 15.6C23.4146 15.535 23.0992 14.5554 23.0564 14.2902C23.0511 14.2577 23.0778 14.2252 23.1153 14.2252C27.8306 14.4634 30.3808 11.8005 30.3541 9.46242C30.3434 8.26631 29.5147 6.1068 26.2107 6.10139C23.297 6.10139 20.8057 8.14182 19.9396 11.216C19.9289 11.2539 19.8861 11.2701 19.854 11.2431C18.3999 9.98742 18.2502 7.62766 18.2128 6.83746C18.2074 6.70757 18.1005 6.61014 17.9775 6.61014H15.3418C15.2082 6.61014 15.1012 6.7238 15.1066 6.85911C15.1921 8.63975 14.8339 11.0266 14.8339 11.0266C14.3314 14.6582 12.9414 15.3077 12.1822 15.3077C11.5193 15.3077 11.3054 14.6799 11.5193 12.975L12.225 6.88617C12.241 6.74545 12.1341 6.62097 11.9897 6.62097H9.1402C9.02258 6.62097 8.921 6.70757 8.90496 6.83205L8.3543 11.059C8.29549 11.5299 8.16718 12.0008 8.03353 12.4554C7.37594 14.734 6.24788 15.3185 5.73465 15.3185C4.85786 15.3185 4.85252 14.4526 5.06637 12.8397L5.63307 9.23511C5.93246 7.26503 4.80975 6.5452 4.55847 6.40989C3.8795 6.03103 2.17405 5.96608 0.126446 7.10266C0.0141751 7.1622 -0.0285948 7.30292 0.0195213 7.41658L0.853534 9.365C0.906996 9.48407 1.04065 9.54361 1.16362 9.50031C1.34539 9.42995 1.52716 9.37583 1.62874 9.365C1.78378 9.34876 2.02436 9.34335 2.17405 9.4949C2.37186 9.68433 2.34513 10.047 2.32909 10.1931L1.77309 13.6894C1.3935 16.5525 2.21148 18.5443 4.67609 18.5443C4.67609 18.5443 6.92686 18.6471 8.34895 16.5309C8.38103 16.4822 8.45053 16.493 8.46657 16.5471C8.83012 17.727 9.80313 18.5443 11.5834 18.5443C14.294 18.5443 16.8548 17.0883 17.8973 12.8992C17.908 12.8613 17.9508 12.8559 17.9722 12.883C18.2448 13.3106 18.8757 13.8193 19.5226 14.0845C19.544 14.0899 19.5547 14.1116 19.5547 14.1332C19.5707 14.5121 19.8487 17.9651 23.9011 18.4685C28.0766 18.9826 31.4768 16.8719 33.503 14.1224L34.3049 16.1953C34.3049 16.1953 35.1122 18.5334 36.9139 18.5334C39.1807 18.5334 41.4635 16.4605 42.752 13.1211C42.8161 12.9642 42.8696 12.8072 42.923 12.6503C42.9337 12.6178 42.9765 12.607 42.9979 12.634C43.3775 13.0399 43.8212 13.3376 44.3184 13.5704C44.3291 13.5704 44.3345 13.5866 44.3345 13.5974C44.2596 14.485 44.6873 17.9651 48.7077 18.4631C51.9101 18.8582 54.5725 17.7811 56.5773 16.0113C56.6094 15.9842 56.6575 16.0113 56.6522 16.0546L56.3795 18.279C56.3635 18.4198 56.4704 18.5497 56.6148 18.5497H59.5391C59.6621 18.5497 59.7637 18.4577 59.7744 18.3386L60.2235 14.2198C60.4694 11.9575 61.2072 10.8209 62.0519 10.047C62.934 9.26758 63.9605 9.15392 64.3026 9.1431L64.2813 9.11062ZM22.9976 11.6977C23.2008 10.5016 23.8584 9.78175 24.6175 9.29464C25.8204 8.52068 27.0073 8.62352 27.3067 9.12145C27.5954 9.59773 27.5045 10.5286 25.9862 11.2972C25.0666 11.7626 24.1685 11.833 23.0564 11.7681C23.019 11.7681 22.9923 11.7302 22.9976 11.6977ZM47.8042 11.6977C48.0073 10.5016 48.6649 9.78175 49.4241 9.29464C50.627 8.51527 51.8138 8.62352 52.1132 9.12145C52.4019 9.59773 52.311 10.5286 50.7927 11.2972C49.8732 11.7626 48.975 11.833 47.863 11.7681C47.8255 11.7681 47.7988 11.7302 47.8042 11.6977ZM79.1331 11.7031C79.3363 10.507 79.9938 9.78716 80.753 9.30005C81.9559 8.52068 83.1428 8.62893 83.4422 9.12686C83.7309 9.60314 83.64 10.5341 82.1216 11.3026C81.2021 11.7681 80.3039 11.8384 79.1919 11.7735C79.1545 11.7735 79.1277 11.7356 79.1384 11.7031H79.1331Z" fill="white"/>
<path d="M175.163 14.5694C175.211 15.0911 175.424 15.5496 175.804 15.9449C176.199 16.3402 176.768 16.5378 177.511 16.5378C178.08 16.5378 178.507 16.4113 178.792 16.1583C179.092 15.8896 179.243 15.5734 179.243 15.2097C179.243 14.8935 179.132 14.6247 178.911 14.4034C178.689 14.182 178.349 14.0239 177.891 13.929L176.183 13.5496C175.155 13.3282 174.381 12.9172 173.859 12.3164C173.337 11.6997 173.076 10.9883 173.076 10.1819C173.076 9.67597 173.187 9.20165 173.408 8.75895C173.63 8.30044 173.93 7.90517 174.31 7.57315C174.689 7.22531 175.132 6.95653 175.638 6.7668C176.159 6.56127 176.721 6.4585 177.322 6.4585C178.128 6.4585 178.8 6.57708 179.337 6.81424C179.891 7.03559 180.341 7.31227 180.689 7.6443C181.037 7.97632 181.29 8.33206 181.448 8.71152C181.622 9.07516 181.733 9.39928 181.78 9.68387L179.456 10.3479C179.424 10.1898 179.369 10.008 179.29 9.80245C179.211 9.59692 179.084 9.40719 178.911 9.23327C178.752 9.05935 178.539 8.91706 178.27 8.80638C178.017 8.6799 177.701 8.61665 177.322 8.61665C176.831 8.61665 176.428 8.75104 176.112 9.01983C175.812 9.2728 175.661 9.58111 175.661 9.94475C175.661 10.261 175.764 10.5218 175.97 10.7274C176.175 10.9329 176.46 11.0752 176.824 11.1543L178.578 11.51C179.669 11.7472 180.492 12.182 181.045 12.8144C181.614 13.431 181.899 14.1662 181.899 15.02C181.899 15.4627 181.804 15.9054 181.614 16.3481C181.44 16.775 181.171 17.1702 180.808 17.5339C180.46 17.8817 180.009 18.1663 179.456 18.3877C178.903 18.609 178.262 18.7197 177.535 18.7197C176.697 18.7197 175.986 18.6011 175.401 18.3639C174.816 18.1268 174.333 17.8343 173.954 17.4864C173.574 17.1228 173.29 16.7433 173.1 16.3481C172.91 15.937 172.8 15.5654 172.768 15.2334L175.163 14.5694Z" fill="white"/>
<path d="M169.146 6.81445H171.542V9.2572H169.146V14.617C169.146 15.123 169.265 15.4945 169.502 15.7317C169.739 15.953 170.111 16.0637 170.617 16.0637C170.807 16.0637 170.996 16.0558 171.186 16.04C171.376 16.0084 171.502 15.9846 171.565 15.9688V18.2456C171.486 18.2772 171.313 18.3246 171.044 18.3879C170.775 18.4669 170.388 18.5064 169.882 18.5064C168.807 18.5064 167.961 18.206 167.344 17.6052C166.727 17.0044 166.419 16.1586 166.419 15.0676V9.2572H164.285V6.81445H164.878C165.494 6.81445 165.945 6.64053 166.229 6.2927C166.514 5.94486 166.656 5.51797 166.656 5.01203V3.28076H169.146V6.81445Z" fill="white"/>
<path d="M163.082 9.542C162.766 9.49457 162.466 9.47085 162.181 9.47085C161.106 9.47085 160.315 9.76335 159.81 10.3483C159.319 10.9333 159.074 11.7713 159.074 12.8622V18.3644H156.323V6.81466H159.003V8.66451C159.272 8.03208 159.707 7.54195 160.308 7.19412C160.908 6.84628 161.588 6.67236 162.347 6.67236C162.521 6.67236 162.671 6.68027 162.798 6.69608C162.924 6.71189 163.019 6.7277 163.082 6.74351V9.542Z" fill="white"/>
<path d="M151.233 11.3203C151.217 10.9883 151.146 10.672 151.02 10.3716C150.909 10.0554 150.735 9.77874 150.498 9.54158C150.261 9.30442 149.968 9.11469 149.62 8.97239C149.272 8.8301 148.861 8.75895 148.387 8.75895C147.96 8.75895 147.573 8.838 147.225 8.99611C146.893 9.13841 146.608 9.33604 146.371 9.58901C146.134 9.82617 145.944 10.1029 145.802 10.4191C145.66 10.7195 145.581 11.0199 145.565 11.3203H151.233ZM153.865 15.0674C153.707 15.5734 153.478 16.0477 153.178 16.4904C152.877 16.9331 152.506 17.3204 152.063 17.6525C151.62 17.9845 151.114 18.2454 150.545 18.4351C149.976 18.6248 149.344 18.7197 148.648 18.7197C147.857 18.7197 147.106 18.5853 146.395 18.3165C145.683 18.0319 145.059 17.6287 144.521 17.107C143.984 16.5694 143.549 15.9212 143.217 15.1623C142.901 14.3876 142.743 13.5101 142.743 12.5298C142.743 11.6128 142.893 10.7827 143.193 10.0396C143.509 9.29651 143.928 8.66409 144.45 8.14233C144.972 7.60477 145.573 7.19369 146.253 6.9091C146.933 6.6087 147.636 6.4585 148.363 6.4585C149.249 6.4585 150.039 6.60079 150.735 6.88538C151.446 7.16998 152.039 7.57315 152.514 8.0949C153.004 8.61665 153.375 9.24908 153.628 9.99218C153.881 10.7195 154.008 11.5416 154.008 12.4586C154.008 12.68 154 12.8776 153.984 13.0515C153.968 13.2097 153.952 13.3045 153.937 13.3361H145.494C145.51 13.7788 145.604 14.182 145.778 14.5457C145.952 14.9093 146.181 15.2255 146.466 15.4943C146.751 15.7631 147.075 15.9765 147.438 16.1346C147.818 16.2769 148.221 16.3481 148.648 16.3481C149.486 16.3481 150.126 16.1583 150.569 15.7789C151.027 15.3836 151.352 14.9014 151.541 14.3322L153.865 15.0674Z" fill="white"/>
<path d="M136.012 8.99611C135.585 8.99611 135.181 9.07516 134.802 9.23327C134.423 9.39138 134.083 9.62063 133.782 9.92103C133.498 10.2214 133.268 10.593 133.094 11.0357C132.921 11.4784 132.834 11.9922 132.834 12.5772C132.834 13.1622 132.921 13.684 133.094 14.1425C133.268 14.5852 133.498 14.9646 133.782 15.2809C134.083 15.5813 134.43 15.8105 134.826 15.9686C135.221 16.1267 135.632 16.2058 136.059 16.2058C136.502 16.2058 136.889 16.1346 137.221 15.9923C137.569 15.85 137.853 15.6761 138.075 15.4706C138.312 15.2492 138.502 15.02 138.644 14.7828C138.786 14.5298 138.889 14.2927 138.952 14.0713L141.371 14.9488C141.229 15.4073 141.016 15.8579 140.731 16.3006C140.446 16.7433 140.083 17.1465 139.64 17.5102C139.213 17.8738 138.699 18.1663 138.099 18.3877C137.498 18.609 136.818 18.7197 136.059 18.7197C135.205 18.7197 134.415 18.5695 133.687 18.2691C132.96 17.9529 132.328 17.5181 131.79 16.9647C131.268 16.4113 130.849 15.7631 130.533 15.02C130.233 14.2769 130.083 13.4626 130.083 12.5772C130.083 11.6918 130.233 10.8776 130.533 10.1345C130.834 9.37557 131.253 8.72733 131.79 8.18977C132.328 7.63639 132.952 7.2095 133.664 6.9091C134.375 6.6087 135.15 6.4585 135.988 6.4585C136.763 6.4585 137.45 6.56917 138.051 6.79052C138.652 7.01187 139.174 7.30437 139.616 7.66801C140.059 8.01585 140.415 8.41902 140.684 8.87753C140.952 9.33604 141.15 9.79455 141.276 10.2531L138.81 11.1543C138.747 10.9013 138.644 10.6483 138.502 10.3954C138.375 10.1266 138.193 9.88941 137.956 9.68387C137.735 9.47834 137.466 9.31232 137.15 9.18584C136.834 9.05935 136.454 8.99611 136.012 8.99611Z" fill="white"/>
<path d="M120.771 18.3641H118.02V6.81445H120.699V8.35599C121.079 7.69194 121.577 7.21762 122.194 6.93303C122.826 6.63262 123.466 6.48242 124.115 6.48242C124.826 6.48242 125.443 6.601 125.964 6.83816C126.486 7.07532 126.913 7.40735 127.245 7.83424C127.593 8.24531 127.854 8.72754 128.028 9.28091C128.202 9.83429 128.289 10.4272 128.289 11.0596V18.3641H125.538V11.5339C125.538 10.8225 125.356 10.2216 124.992 9.73152C124.644 9.22557 124.035 8.9726 123.166 8.9726C122.375 8.9726 121.775 9.24139 121.363 9.77895C120.968 10.3007 120.771 10.941 120.771 11.6999V18.3641Z" fill="white"/>
<path d="M110.225 16.2532C110.652 16.2532 111.055 16.1742 111.434 16.0161C111.83 15.8579 112.178 15.6287 112.478 15.3283C112.778 15.0121 113.016 14.6247 113.189 14.1662C113.363 13.7077 113.45 13.178 113.45 12.5772C113.45 11.9764 113.363 11.4547 113.189 11.012C113.016 10.5535 112.778 10.174 112.478 9.8736C112.178 9.55739 111.83 9.32813 111.434 9.18584C111.055 9.02773 110.652 8.94868 110.225 8.94868C109.798 8.94868 109.387 9.02773 108.992 9.18584C108.612 9.32813 108.272 9.55739 107.972 9.8736C107.687 10.174 107.45 10.5535 107.26 11.012C107.087 11.4547 107 11.9764 107 12.5772C107 13.178 107.087 13.7077 107.26 14.1662C107.45 14.6247 107.687 15.0121 107.972 15.3283C108.272 15.6287 108.612 15.8579 108.992 16.0161C109.387 16.1742 109.798 16.2532 110.225 16.2532ZM110.225 6.4585C111.095 6.4585 111.893 6.6166 112.62 6.93282C113.348 7.23322 113.98 7.66011 114.518 8.21348C115.055 8.75104 115.474 9.39138 115.775 10.1345C116.075 10.8776 116.225 11.6918 116.225 12.5772C116.225 13.4626 116.075 14.2848 115.775 15.0437C115.474 15.7868 115.055 16.435 114.518 16.9884C113.98 17.526 113.348 17.9529 112.62 18.2691C111.893 18.5695 111.095 18.7197 110.225 18.7197C109.371 18.7197 108.573 18.5695 107.83 18.2691C107.102 17.9529 106.47 17.526 105.932 16.9884C105.411 16.435 105 15.7868 104.699 15.0437C104.399 14.2848 104.249 13.4626 104.249 12.5772C104.249 11.6918 104.399 10.8776 104.699 10.1345C105 9.39138 105.411 8.75104 105.932 8.21348C106.47 7.66011 107.102 7.23322 107.83 6.93282C108.573 6.6166 109.371 6.4585 110.225 6.4585Z" fill="white"/>
<path d="M97.785 8.99635C97.3581 8.99635 96.9549 9.07541 96.5754 9.23351C96.196 9.39162 95.8561 9.62088 95.5557 9.92128C95.2711 10.2217 95.0418 10.5932 94.8679 11.0359C94.694 11.4786 94.607 11.9925 94.607 12.5775C94.607 13.1625 94.694 13.6842 94.8679 14.1427C95.0418 14.5854 95.2711 14.9649 95.5557 15.2811C95.8561 15.5815 96.2039 15.8108 96.5992 15.9689C96.9944 16.127 97.4055 16.206 97.8324 16.206C98.2751 16.206 98.6625 16.1349 98.9945 15.9926C99.3423 15.8503 99.6269 15.6764 99.8483 15.4708C100.085 15.2495 100.275 15.0202 100.417 14.7831C100.56 14.5301 100.663 14.2929 100.726 14.0716L103.145 14.9491C103.002 15.4076 102.789 15.8582 102.504 16.3009C102.22 16.7436 101.856 17.1468 101.414 17.5104C100.987 17.874 100.473 18.1665 99.872 18.3879C99.2712 18.6092 98.5913 18.7199 97.8324 18.7199C96.9786 18.7199 96.1881 18.5697 95.4608 18.2693C94.7335 17.9531 94.1011 17.5183 93.5635 16.9649C93.0418 16.4116 92.6228 15.7633 92.3066 15.0202C92.0062 14.2771 91.856 13.4629 91.856 12.5775C91.856 11.6921 92.0062 10.8778 92.3066 10.1347C92.607 9.37581 93.0259 8.72757 93.5635 8.19001C94.1011 7.63664 94.7256 7.20975 95.4371 6.90934C96.1486 6.60894 96.9233 6.45874 97.7612 6.45874C98.536 6.45874 99.2237 6.56942 99.8245 6.79076C100.425 7.01211 100.947 7.30461 101.39 7.66826C101.832 8.01609 102.188 8.41926 102.457 8.87777C102.726 9.33628 102.923 9.79479 103.05 10.2533L100.583 11.1545C100.52 10.9015 100.417 10.6486 100.275 10.3956C100.149 10.1268 99.9668 9.88966 99.7297 9.68412C99.5083 9.47858 99.2395 9.31257 98.9233 9.18608C98.6071 9.0596 98.2277 8.99635 97.785 8.99635Z" fill="white"/>
</svg>
