<svg viewBox="0 0 121 24" fill="none" xmlns="http://www.w3.org/2000/svg">
<path d="M64.8711 8.35507C64.9513 8.35507 65.0315 8.35507 65.1117 8.3659C65.3148 8.39838 65.5287 8.50125 65.5501 8.76111C65.6142 9.52989 65.7746 10.8725 67.3999 11.7442C69.4635 12.854 71.6555 13.0489 71.618 13.9422C71.5646 15.1008 68.9663 15.0954 66.2878 13.9639C66.1809 13.9206 66.058 13.9585 65.9938 14.0559L64.7374 16.3839C64.6626 16.4976 64.7054 16.6546 64.823 16.7195C65.4431 17.0714 67.8115 17.9972 70.4633 17.8889C73.6924 17.7536 75.2963 15.7667 75.3925 13.4495C75.3925 13.4225 75.4139 13.4062 75.4406 13.4062C75.7346 13.4333 76.0928 13.4279 76.2212 13.4225C76.2425 13.4225 76.2639 13.4387 76.2639 13.4604C76.4136 14.7922 77.269 17.2826 80.6158 17.694C83.6203 18.0622 86.1438 17.1418 88.1058 15.561C88.1914 15.496 88.2128 15.3769 88.1646 15.2794L87.1382 13.2601C87.074 13.1355 86.9136 13.0976 86.8067 13.1843C85.3525 14.3212 83.5669 14.8788 82.4121 14.8463C80.1292 14.7814 79.8138 13.8014 79.7711 13.5362C79.7657 13.5037 79.7924 13.4712 79.8299 13.4712C84.5452 13.7094 87.0954 11.0458 87.0687 8.70697C87.058 7.61337 86.363 5.72392 83.7166 5.4045C83.4706 5.37201 83.2033 5.35036 82.9039 5.35036C82.4923 5.35036 82.0753 5.39908 81.6636 5.48571C81.6583 5.48571 81.6476 5.48571 81.6422 5.48571C81.6102 5.49112 81.5781 5.50195 81.546 5.50736C80.589 5.72933 79.7069 6.17868 78.9477 6.81211C77.7716 7.7812 76.8574 9.18881 76.5098 10.9592C76.5098 10.9808 76.4885 11.0025 76.4617 11.0025C75.7186 11.0404 74.5424 10.8779 73.7298 10.748C73.4518 10.7101 73.1578 10.656 72.8637 10.5964C72.853 10.5964 72.8423 10.5964 72.8423 10.5964C72.035 10.4232 71.1796 10.1687 70.3617 9.77892C67.9291 8.62035 70.3082 6.83918 73.2861 8.61494C73.393 8.6799 73.532 8.64742 73.6015 8.53914L74.8525 6.63887C74.9274 6.52517 74.8953 6.36817 74.7777 6.29779C73.9383 5.79971 70.3296 4.1972 67.1058 6.35734C67.1058 6.35734 66.0793 5.43157 64.561 5.43157C62.4118 5.43157 61.6259 6.71466 61.6259 6.71466L61.8077 5.62647C61.8344 5.48029 61.7222 5.34494 61.5725 5.34494H58.6855C58.5625 5.34494 58.4556 5.44239 58.4503 5.56691C58.3968 6.41148 58.1455 9.43244 57.2794 11.062C55.9589 13.612 52.8207 14.8842 51.0885 14.8355C48.8057 14.7705 48.4902 13.7906 48.4475 13.5253C48.4421 13.4929 48.4689 13.4604 48.5063 13.4604C53.2217 13.6986 55.7718 11.0349 55.7451 8.69615C55.7344 7.49968 54.9057 5.35036 51.6017 5.34494C48.8003 5.34494 46.3892 7.22357 45.4375 10.0983C45.4268 10.1308 45.3894 10.1417 45.368 10.12C44.3897 9.19422 44.3202 6.45479 44.3202 5.58857C44.3202 5.45322 44.2133 5.35036 44.0849 5.35036H41.5187C41.3904 5.35036 41.2835 5.45864 41.2835 5.58857C41.2835 6.21658 41.2514 7.84616 40.9681 9.21588C40.1662 13.0868 38.7868 14.2346 38.1346 14.1642C37.7069 14.1209 37.5518 13.4929 37.4823 13.2709C37.2257 12.4371 36.0335 7.28312 35.6379 5.52902C35.6165 5.42074 35.5203 5.34494 35.4133 5.34494H32.1896C32.0238 5.34494 31.9116 5.51278 31.9704 5.66978L32.0987 6.01627C34.2265 11.9499 28.923 14.9221 26.2873 14.8463C24.0045 14.7814 23.6891 13.8014 23.6463 13.5362C23.6409 13.5037 23.6677 13.4712 23.7051 13.4712C28.4205 13.7094 30.9706 11.0458 30.9439 8.70697C30.9332 7.5105 30.1045 5.35036 26.8006 5.34494C23.8869 5.34494 21.3955 7.38598 20.5294 10.4611C20.5187 10.499 20.476 10.5152 20.4439 10.4881C18.9897 9.23212 18.84 6.87166 18.8026 6.08123C18.7973 5.9513 18.6903 5.85385 18.5674 5.85385H15.9317C15.798 5.85385 15.6911 5.96754 15.6964 6.10289C15.782 7.88406 15.4238 10.2716 15.4238 10.2716C14.9212 13.9043 13.5312 14.554 12.772 14.554C12.1091 14.554 11.8953 13.926 12.1091 12.2206L12.8148 6.12996C12.8309 5.9892 12.7239 5.86468 12.5796 5.86468H9.73004C9.61242 5.86468 9.51084 5.9513 9.49481 6.07582L8.94414 10.3041C8.88533 10.7751 8.75703 11.2461 8.62337 11.7009C7.96578 13.9801 6.83773 14.5648 6.32449 14.5648C5.44771 14.5648 5.44236 13.6986 5.65621 12.0852L6.22291 8.47959C6.5223 6.50893 5.39959 5.78888 5.14832 5.65354C4.46935 5.27456 2.7639 5.2096 0.71629 6.34652C0.604019 6.40607 0.561249 6.54683 0.609365 6.66052L1.44338 8.60952C1.49684 8.72863 1.6305 8.78818 1.75346 8.74487C1.93523 8.67449 2.117 8.62035 2.21858 8.60952C2.37362 8.59328 2.6142 8.58787 2.7639 8.73946C2.96171 8.92894 2.93498 9.29167 2.91894 9.43785L2.36293 12.9352C1.98335 15.7992 2.80132 17.7915 5.26593 17.7915C5.26593 17.7915 7.5167 17.8944 8.9388 15.7775C8.97087 15.7288 9.04038 15.7396 9.05641 15.7938C9.41996 16.974 10.393 17.7915 12.1733 17.7915C14.8838 17.7915 17.4447 16.3352 18.4872 12.1448C18.4979 12.1069 18.5406 12.1015 18.562 12.1286C18.8347 12.5563 19.4655 13.0652 20.1124 13.3304C20.1338 13.3359 20.1445 13.3575 20.1445 13.3792C20.1605 13.7581 20.4385 17.2122 24.491 17.7157C28.6664 18.23 32.0666 16.1186 34.0928 13.3683L34.8948 15.4419C34.8948 15.4419 35.702 17.7807 37.5037 17.7807C39.7705 17.7807 42.0534 15.7071 43.3418 12.3668C43.406 12.2098 43.4594 12.0528 43.5129 11.8958C43.5236 11.8633 43.5664 11.8524 43.5877 11.8795C43.9673 12.2856 44.4111 12.5833 44.9083 12.8161C44.919 12.8161 44.9243 12.8324 44.9243 12.8432C44.8495 13.7311 45.2772 17.2122 49.2975 17.7103C52.4999 18.1055 55.1623 17.0281 57.1672 15.2578C57.1992 15.2307 57.2474 15.2578 57.242 15.3011L56.9694 17.5262C56.9533 17.667 57.0602 17.7969 57.2046 17.7969H60.129C60.2519 17.7969 60.3535 17.7049 60.3642 17.5858L60.8133 13.4658C61.0592 11.2028 61.797 10.0659 62.6417 9.29167C63.5238 8.51207 64.5503 8.39838 64.8925 8.38755L64.8711 8.35507ZM23.5875 10.9429C23.7906 9.74644 24.4482 9.02639 25.2074 8.53914C26.4103 7.76496 27.5972 7.86782 27.8965 8.3659C28.1852 8.84232 28.0944 9.77351 26.576 10.5423C25.6565 11.0079 24.7583 11.0783 23.6463 11.0133C23.6089 11.0133 23.5821 10.9754 23.5875 10.9429ZM48.394 10.9429C48.5972 9.74644 49.2547 9.02639 50.0139 8.53914C51.2168 7.75954 52.4037 7.86782 52.7031 8.3659C52.9918 8.84232 52.9009 9.77351 51.3825 10.5423C50.463 11.0079 49.5648 11.0783 48.4528 11.0133C48.4154 11.0133 48.3887 10.9754 48.394 10.9429ZM79.7229 10.9483C79.9261 9.75186 80.5837 9.03181 81.3428 8.54456C82.5458 7.76496 83.7326 7.87323 84.032 8.37131C84.3207 8.84773 84.2298 9.77893 82.7115 10.5477C81.7919 11.0133 80.8938 11.0837 79.7817 11.0187C79.7443 11.0187 79.7176 10.9808 79.7283 10.9483H79.7229Z" fill="white"/>
<path d="M120.41 17.8655H117.967V8.93809L114.302 17.8655H112.237L108.572 9.00994V17.8655H106.201V5.13H109.47L113.296 14.3269L117.033 5.13H120.41V17.8655Z" fill="white"/>
<path d="M95.6688 15.5663H97.6447C99.7284 15.5663 101.471 14.273 101.471 11.5068C101.471 8.7405 99.7463 7.42923 97.6626 7.42923H95.6688V15.5663ZM97.7345 17.8655H93.1899V5.13H97.7525C101.381 5.13 104.039 7.48312 104.039 11.5068C104.039 15.5304 101.363 17.8655 97.7345 17.8655Z" fill="white"/>
</svg>
