<svg viewBox="0 0 106 24" fill="none" xmlns="http://www.w3.org/2000/svg">
<path d="M77.8029 8.15247C77.8995 8.14815 77.9961 8.15103 78.0912 8.16689C78.3406 8.2087 78.5958 8.32835 78.6232 8.63975C78.7025 9.55952 78.8971 11.1641 80.8577 12.2064C83.3518 13.5327 86.0073 13.7634 85.9583 14.8302C85.8963 16.2142 82.7521 16.2098 79.5112 14.8532C79.3815 14.7985 79.2316 14.8446 79.1566 14.9628L77.6385 17.7423C77.5506 17.8807 77.5967 18.0638 77.7394 18.1445C78.4891 18.5669 81.3522 19.6712 84.5613 19.5386C88.4696 19.3771 90.4058 17.0027 90.524 14.2319C90.524 14.2031 90.5499 14.18 90.5788 14.1829C90.9377 14.2146 91.3688 14.2074 91.5202 14.2031C91.5475 14.2031 91.5692 14.2218 91.5721 14.2492C91.7508 15.8393 92.7845 18.8149 96.8384 19.3079C100.473 19.7505 103.528 18.6462 105.898 16.7605C105.999 16.6813 106.027 16.54 105.968 16.4261L104.726 14.0113C104.649 13.8628 104.456 13.8167 104.323 13.9191C102.567 15.2757 100.405 15.9431 99.0066 15.9028C96.2444 15.8249 95.8653 14.6529 95.8119 14.3357C95.8047 14.2939 95.8379 14.2578 95.8811 14.2593C101.587 14.5433 104.671 11.363 104.641 8.56911C104.626 7.26153 103.786 5.00247 100.584 4.62188C100.285 4.58151 99.9596 4.55845 99.6006 4.557C99.1003 4.557 98.5958 4.61323 98.097 4.71991C98.0869 4.72135 98.0782 4.72423 98.0681 4.72568C98.0292 4.73433 97.9903 4.74298 97.9528 4.75307C96.7951 5.01689 95.7269 5.55318 94.8114 6.31293C93.3871 7.46769 92.2828 9.15586 91.8604 11.2693C91.8546 11.2967 91.8316 11.3183 91.8027 11.3198C90.906 11.3616 89.4788 11.1698 88.4999 11.0127C88.1611 10.9651 87.8108 10.9046 87.4533 10.8311L87.4273 10.8267C86.4499 10.622 85.4191 10.3135 84.4287 9.84785C81.4834 8.46387 84.3624 6.33456 87.965 8.46098C88.0948 8.53739 88.2635 8.49847 88.3471 8.3716L89.8579 6.09957C89.9488 5.96261 89.9069 5.77808 89.7657 5.69446C88.7536 5.09618 84.384 3.18456 80.4829 5.76366C80.4829 5.76366 79.2431 4.65936 77.405 4.65936C74.8043 4.65936 73.8513 6.19039 73.8513 6.19039L74.069 4.88858C74.0979 4.71414 73.9638 4.55412 73.7864 4.55412H70.2919C70.1405 4.55412 70.0165 4.67089 70.0064 4.82227C69.9401 5.82998 69.6374 9.43698 68.5908 11.3846C66.9949 14.4294 63.1947 15.9503 61.1028 15.8912C58.3406 15.8134 57.9615 14.6413 57.9081 14.3242C57.9009 14.2824 57.9341 14.2463 57.9773 14.2478C63.6834 14.5318 66.7671 11.3515 66.7368 8.55758C66.7209 7.1289 65.7204 4.55989 61.7242 4.55412C58.3378 4.5498 55.4184 6.79588 54.268 10.2313C54.255 10.2674 54.2089 10.2818 54.1815 10.2544C52.9964 9.14721 52.9114 5.87467 52.9157 4.83957C52.9157 4.68099 52.7874 4.55268 52.6288 4.55268H49.5235C49.3649 4.55268 49.2366 4.68099 49.2366 4.83813C49.2366 5.58922 49.1992 7.53689 48.856 9.17316C47.8829 13.798 46.2164 15.1704 45.4292 15.0868C44.9117 15.032 44.7243 14.2867 44.6407 14.0214C44.3307 13.0252 42.8876 6.87085 42.4076 4.77037C42.3787 4.6435 42.2648 4.55268 42.1351 4.55268H38.234C38.0336 4.55268 37.8952 4.75307 37.9658 4.94048L38.1215 5.35279C40.6978 12.4399 34.2795 15.9936 31.0921 15.9042C28.3299 15.8264 27.9507 14.6543 27.8974 14.3371C27.8902 14.2953 27.9233 14.2593 27.9666 14.2607C33.6726 14.5447 36.7563 11.3645 36.726 8.57055C36.7102 7.14188 35.7097 4.56133 31.7134 4.55556C28.19 4.55124 25.1727 6.99195 24.1246 10.6653C24.1116 10.71 24.0568 10.7273 24.0222 10.697C22.2634 9.19767 22.0789 6.3778 22.0385 5.43208C22.0313 5.27927 21.9059 5.15817 21.7531 5.15817H18.5656C18.4027 5.15673 18.2715 5.29224 18.2801 5.45515C18.3811 7.58302 17.9486 10.4317 17.9486 10.4317C17.3388 14.7711 15.6607 15.5467 14.7423 15.5467C13.9379 15.5467 13.6798 14.7985 13.9379 12.7557L14.7942 5.47822C14.8144 5.3081 14.6818 5.15817 14.5102 5.15817H11.0604C10.9162 5.15817 10.7951 5.26485 10.7764 5.40758L10.1089 10.4591C10.0382 11.0228 9.87967 11.5836 9.72109 12.1285C8.92818 14.8504 7.56294 15.5467 6.94159 15.5467C5.8791 15.5467 5.87766 14.5101 6.13571 12.5841L6.81761 8.27501C7.1809 5.92224 5.82287 5.06014 5.51436 4.89579C4.69406 4.45176 2.62818 4.37536 0.151432 5.73627C0.0188001 5.8098 -0.0359825 5.9727 0.0245667 6.11254L1.03228 8.4408C1.09427 8.58497 1.25862 8.65561 1.40711 8.60082C1.62624 8.52009 1.84681 8.44945 1.97223 8.43648C2.16253 8.41629 2.44942 8.41197 2.63539 8.59073C2.87182 8.81995 2.84443 9.25245 2.8228 9.42256L2.15244 13.599C1.69255 17.0229 2.68008 19.4002 5.66573 19.4002C5.66573 19.4002 8.389 19.5227 10.1118 16.9941C10.1493 16.9379 10.2358 16.948 10.2559 17.0128C10.6985 18.4213 11.872 19.4002 14.0273 19.4002C17.307 19.4002 20.408 17.6587 21.6637 12.6562C21.6738 12.6129 21.7314 12.6014 21.7545 12.6389C22.0875 13.1507 22.8473 13.7576 23.6287 14.0719C23.6517 14.082 23.6676 14.1021 23.669 14.1281C23.6906 14.5837 24.0237 18.7097 28.9253 19.3079C33.9797 19.9235 38.0913 17.4021 40.5392 14.1166L41.5065 16.5904C41.5065 16.5904 42.484 19.3872 44.6652 19.3872C47.4057 19.3872 50.1723 16.9076 51.7292 12.92C51.8042 12.734 51.8734 12.5466 51.9368 12.3563C51.9498 12.3159 52.0003 12.3059 52.0291 12.3361C52.4904 12.8191 53.0267 13.1752 53.6279 13.452C53.6409 13.4577 53.6495 13.4707 53.6481 13.4866C53.5573 14.5505 54.0762 18.7082 58.936 19.3007C62.8112 19.7736 66.0289 18.4862 68.4567 16.3699C68.4956 16.3353 68.5562 16.367 68.5504 16.4189L68.2202 19.0802C68.1986 19.2517 68.3327 19.4016 68.5042 19.4016H72.0449C72.1905 19.4016 72.3145 19.2921 72.3304 19.1465L72.871 14.2218C73.1665 11.5173 74.0575 10.1592 75.0796 9.23371C76.145 8.30096 77.3877 8.16977 77.8014 8.15247H77.8029ZM27.8585 11.2477C28.105 9.82046 28.9022 8.96124 29.8148 8.37881C31.2708 7.45039 32.7038 7.58014 33.0671 8.17121C33.4146 8.73778 33.3064 9.85506 31.4712 10.7719C30.3568 11.3284 29.2713 11.412 27.9262 11.3342C27.883 11.3313 27.8512 11.2909 27.8585 11.2491V11.2477ZM57.8707 11.2477C58.1172 9.82046 58.9144 8.96124 59.827 8.37881C61.283 7.45039 62.716 7.5787 63.0793 8.17121C63.4268 8.73778 63.3186 9.85506 61.4834 10.7719C60.369 11.3284 59.2835 11.412 57.9384 11.3342C57.8952 11.3313 57.8635 11.2909 57.8707 11.2491V11.2477ZM95.7745 11.2563C96.021 9.82911 96.8182 8.96844 97.7308 8.38746C99.1868 7.45904 100.62 7.58735 100.983 8.17986C101.331 8.74643 101.222 9.86371 99.3872 10.7806C98.2728 11.3371 97.1873 11.4207 95.8408 11.3428C95.7975 11.34 95.7658 11.2996 95.773 11.2578L95.7745 11.2563Z" fill="white"/>
</svg>
