<svg viewBox="0 0 88 24" fill="none" xmlns="http://www.w3.org/2000/svg">
<path d="M64.2813 9.09738C64.3615 9.09738 64.4416 9.09738 64.5218 9.10821C64.725 9.14069 64.9388 9.24356 64.9602 9.50342C65.0244 10.2722 65.1848 11.6148 66.81 12.4865C68.8737 13.5963 71.0656 13.7912 71.0282 14.6845C70.9747 15.8431 68.3765 15.8377 65.698 14.7062C65.5911 14.6629 65.4681 14.7008 65.404 14.7982L64.1476 17.1262C64.0728 17.2399 64.1155 17.3969 64.2331 17.4618C64.8533 17.8138 67.2217 18.7395 69.8734 18.6313C73.1025 18.4959 74.7064 16.509 74.8026 14.1919C74.8026 14.1648 74.824 14.1485 74.8508 14.1485C75.1448 14.1756 75.503 14.1702 75.6313 14.1648C75.6527 14.1648 75.6741 14.181 75.6741 14.2027C75.8238 15.5345 76.6792 18.0249 80.0259 18.4363C83.0305 18.8045 85.5539 17.8841 87.516 16.3033C87.6015 16.2383 87.6229 16.1192 87.5748 16.0218L86.5483 14.0024C86.4842 13.8779 86.3238 13.84 86.2169 13.9266C84.7627 15.0635 82.977 15.6211 81.8223 15.5886C79.5394 15.5237 79.224 14.5438 79.1812 14.2785C79.1759 14.246 79.2026 14.2135 79.24 14.2135C83.9554 14.4517 86.5055 11.7881 86.4788 9.44928C86.4681 8.35568 85.7731 6.46623 83.1267 6.14681C82.8808 6.11432 82.6135 6.09267 82.3141 6.09267C81.9024 6.09267 81.4854 6.14139 81.0738 6.22802C81.0684 6.22802 81.0577 6.22802 81.0524 6.22802C81.0203 6.23343 80.9882 6.24426 80.9562 6.24967C79.9992 6.47164 79.1171 6.92099 78.3579 7.55442C77.1817 8.52351 76.2675 9.93112 75.92 11.7015C75.92 11.7231 75.8986 11.7448 75.8719 11.7448C75.1288 11.7827 73.9526 11.6203 73.14 11.4903C72.862 11.4524 72.5679 11.3983 72.2739 11.3387C72.2632 11.3387 72.2525 11.3387 72.2525 11.3387C71.4452 11.1655 70.5898 10.911 69.7718 10.5212C67.3393 9.36266 69.7184 7.58149 72.6962 9.35725C72.8032 9.42221 72.9422 9.38973 73.0117 9.28145L74.2627 7.38118C74.3375 7.26748 74.3054 7.11048 74.1878 7.0401C73.3485 6.54202 69.7398 4.93951 66.516 7.09965C66.516 7.09965 65.4895 6.17388 63.9712 6.17388C61.822 6.17388 61.0361 7.45697 61.0361 7.45697L61.2179 6.36878C61.2446 6.2226 61.1323 6.08725 60.9826 6.08725H58.0957C57.9727 6.08725 57.8658 6.1847 57.8604 6.30922C57.807 7.15379 57.5557 10.1747 56.6896 11.8043C55.3691 14.3543 52.2308 15.6265 50.4987 15.5778C48.2158 15.5128 47.9004 14.5329 47.8576 14.2677C47.8523 14.2352 47.879 14.2027 47.9164 14.2027C52.6318 14.4409 55.182 11.7773 55.1552 9.43846C55.1445 8.24198 54.3159 6.09267 51.0119 6.08725C48.2105 6.08725 45.7993 7.96588 44.8477 10.8407C44.837 10.8731 44.7996 10.884 44.7782 10.8623C43.7998 9.93653 43.7303 7.1971 43.7303 6.33088C43.7303 6.19553 43.6234 6.09267 43.4951 6.09267H40.9289C40.8006 6.09267 40.6937 6.20095 40.6937 6.33088C40.6937 6.95889 40.6616 8.58847 40.3782 9.95819C39.5763 13.8291 38.197 14.9769 37.5447 14.9065C37.117 14.8632 36.962 14.2352 36.8925 14.0132C36.6359 13.1795 35.4437 8.02543 35.048 6.27133C35.0267 6.16305 34.9304 6.08725 34.8235 6.08725H31.5997C31.434 6.08725 31.3217 6.25508 31.3805 6.41209L31.5088 6.75858C33.6366 12.6922 28.3332 15.6644 25.6975 15.5886C23.4146 15.5237 23.0992 14.5438 23.0564 14.2785C23.0511 14.246 23.0778 14.2135 23.1153 14.2135C27.8306 14.4517 30.3808 11.7881 30.3541 9.44928C30.3434 8.25281 29.5147 6.09267 26.2107 6.08725C23.297 6.08725 20.8057 8.12829 19.9396 11.2034C19.9289 11.2413 19.8861 11.2575 19.854 11.2305C18.3999 9.97443 18.2502 7.61397 18.2128 6.82354C18.2074 6.69361 18.1005 6.59616 17.9775 6.59616H15.3418C15.2082 6.59616 15.1012 6.70985 15.1066 6.8452C15.1921 8.62637 14.8339 11.0139 14.8339 11.0139C14.3314 14.6466 12.9414 15.2963 12.1822 15.2963C11.5193 15.2963 11.3054 14.6683 11.5193 12.9629L12.225 6.87227C12.241 6.73151 12.1341 6.60699 11.9897 6.60699H9.1402C9.02258 6.60699 8.921 6.69361 8.90496 6.81813L8.3543 11.0464C8.29549 11.5174 8.16718 11.9884 8.03353 12.4432C7.37594 14.7224 6.24788 15.3071 5.73465 15.3071C4.85786 15.3071 4.85252 14.4409 5.06637 12.8276L5.63307 9.2219C5.93246 7.25124 4.80975 6.53119 4.55847 6.39585C3.8795 6.01687 2.17405 5.95191 0.126446 7.08882C0.0141751 7.14838 -0.0285948 7.28914 0.0195213 7.40283L0.853534 9.35183C0.906996 9.47094 1.04065 9.53049 1.16362 9.48718C1.34539 9.4168 1.52716 9.36266 1.62874 9.35183C1.78378 9.33559 2.02436 9.33018 2.17405 9.48177C2.37186 9.67125 2.34513 10.034 2.32909 10.1802L1.77309 13.6775C1.3935 16.5415 2.21148 18.5338 4.67609 18.5338C4.67609 18.5338 6.92686 18.6367 8.34895 16.5198C8.38103 16.4711 8.45053 16.4819 8.46657 16.5361C8.83012 17.7163 9.80313 18.5338 11.5834 18.5338C14.294 18.5338 16.8548 17.0775 17.8973 12.8871C17.908 12.8492 17.9508 12.8438 17.9722 12.8709C18.2448 13.2986 18.8757 13.8075 19.5226 14.0728C19.544 14.0782 19.5547 14.0998 19.5547 14.1215C19.5707 14.5004 19.8487 17.9545 23.9011 18.458C28.0766 18.9723 31.4768 16.8609 33.503 14.1106L34.3049 16.1842C34.3049 16.1842 35.1122 18.523 36.9139 18.523C39.1807 18.523 41.4635 16.4495 42.752 13.1091C42.8161 12.9521 42.8696 12.7951 42.923 12.6381C42.9337 12.6056 42.9765 12.5948 42.9979 12.6218C43.3775 13.0279 43.8212 13.3256 44.3184 13.5584C44.3291 13.5584 44.3345 13.5747 44.3345 13.5855C44.2596 14.4734 44.6873 17.9545 48.7077 18.4526C51.9101 18.8478 54.5725 17.7704 56.5773 16.0001C56.6094 15.973 56.6575 16.0001 56.6522 16.0434L56.3795 18.2685C56.3635 18.4093 56.4704 18.5392 56.6148 18.5392H59.5391C59.6621 18.5392 59.7637 18.4472 59.7744 18.3281L60.2235 14.2081C60.4694 11.9451 61.2072 10.8082 62.0519 10.034C62.934 9.25438 63.9605 9.14069 64.3026 9.12986L64.2813 9.09738ZM22.9976 11.6852C23.2008 10.4888 23.8584 9.7687 24.6175 9.28145C25.8204 8.50727 27.0073 8.61013 27.3067 9.10821C27.5954 9.58463 27.5045 10.5158 25.9862 11.2846C25.0666 11.7502 24.1685 11.8206 23.0564 11.7556C23.019 11.7556 22.9923 11.7177 22.9976 11.6852ZM47.8042 11.6852C48.0073 10.4888 48.6649 9.7687 49.4241 9.28145C50.627 8.50185 51.8138 8.61013 52.1132 9.10821C52.4019 9.58463 52.311 10.5158 50.7927 11.2846C49.8732 11.7502 48.975 11.8206 47.863 11.7556C47.8255 11.7556 47.7988 11.7177 47.8042 11.6852ZM79.1331 11.6906C79.3363 10.4942 79.9938 9.77412 80.753 9.28687C81.9559 8.50727 83.1428 8.61554 83.4422 9.11362C83.7309 9.59004 83.64 10.5212 82.1216 11.29C81.2021 11.7556 80.3039 11.826 79.1919 11.761C79.1545 11.761 79.1277 11.7231 79.1384 11.6906H79.1331Z" fill="white"/>
</svg>
