<svg viewBox="0 0 48 24" fill="none" xmlns="http://www.w3.org/2000/svg">
<path d="M38.5949 22.4584H36.0039V7.20547H38.5273V8.69247C39.068 7.7462 40.3297 6.95764 42.0194 6.95764C45.2638 6.95764 47.0887 9.43596 47.0887 12.6803C47.0887 15.9697 45.0835 18.448 41.9293 18.448C40.3522 18.448 39.1581 17.7721 38.5949 16.9385V22.4584ZM44.4752 12.6803C44.4752 10.6301 43.2811 9.27825 41.5238 9.27825C39.8115 9.27825 38.5723 10.6301 38.5723 12.6803C38.5723 14.7756 39.8115 16.1274 41.5238 16.1274C43.2586 16.1274 44.4752 14.7756 44.4752 12.6803Z" fill="white"/>
<path d="M28.2103 16.1724C29.8325 16.1724 31.2744 14.9783 31.2744 12.6802C31.2744 10.4047 29.8325 9.2331 28.2103 9.2331C26.6107 9.2331 25.1462 10.4047 25.1462 12.6802C25.1462 14.9558 26.6107 16.1724 28.2103 16.1724ZM28.2103 6.86743C31.4997 6.86743 33.9104 9.32322 33.9104 12.6802C33.9104 16.0597 31.4997 18.5155 28.2103 18.5155C24.9434 18.5155 22.5327 16.0597 22.5327 12.6802C22.5327 9.32322 24.9434 6.86743 28.2103 6.86743Z" fill="white"/>
<path d="M13.4021 11.7339V18.1776H10.7886V1.86572H13.4021V8.26429C14.1456 7.29549 15.3847 6.88995 16.5337 6.88995C19.2373 6.88995 20.5441 8.82755 20.5441 11.2383V18.1776H17.9306V11.6889C17.9306 10.3371 17.3223 9.25562 15.6776 9.25562C14.2357 9.25562 13.4471 10.3371 13.4021 11.7339Z" fill="white"/>
<path d="M0 15.2036L2.27554 14.5727C2.36566 15.5641 3.10915 16.4428 4.50601 16.4428C5.58745 16.4428 6.15071 15.857 6.15071 15.1811C6.15071 14.5953 5.74517 14.1447 4.86649 13.9644L3.24433 13.604C1.30674 13.1759 0.292891 11.9142 0.292891 10.4047C0.292891 8.4896 2.05024 6.86743 4.32577 6.86743C7.38986 6.86743 8.38118 8.85009 8.56142 9.93153L6.35348 10.5624C6.26336 9.93153 5.79023 8.91768 4.32577 8.91768C3.40204 8.91768 2.74867 9.50346 2.74867 10.1794C2.74867 10.7652 3.17674 11.1932 3.85264 11.3284L5.51986 11.6664C7.59263 12.117 8.67407 13.3787 8.67407 15.0008C8.67407 16.6681 7.32227 18.5155 4.52854 18.5155C1.3518 18.5155 0.13518 16.4428 0 15.2036Z" fill="white"/>
</svg>
