<svg viewBox="0 0 83 24" fill="none" xmlns="http://www.w3.org/2000/svg">
<path d="M80.3608 3.51215V7.04583H82.7561V9.48858H80.3608V14.8484C80.3608 15.8682 80.8114 16.2951 81.8312 16.2951C82.2107 16.2951 82.6613 16.2239 82.7798 16.2002V18.477C82.6138 18.5481 82.0921 18.7378 81.096 18.7378C78.9616 18.7378 77.6335 17.4572 77.6335 15.299V9.48858H75.499V7.04583H76.0919C77.3252 7.04583 77.8706 6.2632 77.8706 5.24342V3.51215H80.3608Z" fill="white"/>
<path d="M66.6202 10.9313V17.5955H63.8691V6.04583H66.549V7.58737C67.308 6.25928 68.6835 5.71381 69.9642 5.71381C72.7864 5.71381 74.1382 7.75338 74.1382 10.291V17.5955H71.3871V10.7653C71.3871 9.34236 70.7468 8.20399 69.0155 8.20399C67.4503 8.20399 66.6202 9.4135 66.6202 10.9313Z" fill="white"/>
<path d="M58.4315 16.3149C57.8623 17.3584 56.5105 17.9276 55.1587 17.9276C52.4076 17.9276 50.7949 15.888 50.7949 13.3267V6.04584H53.546V12.8286C53.546 14.2516 54.21 15.4611 55.8701 15.4611C57.4591 15.4611 58.2892 14.3939 58.2892 12.876V6.04584H61.0402V15.4848C61.0402 16.4335 61.1114 17.1686 61.1588 17.5955H58.5263C58.4789 17.3347 58.4315 16.7892 58.4315 16.3149Z" fill="white"/>
<path d="M42.8285 15.4848C44.536 15.4848 46.0539 14.2278 46.0539 11.8088C46.0539 9.41348 44.536 8.18025 42.8285 8.18025C41.1447 8.18025 39.6031 9.41348 39.6031 11.8088C39.6031 14.2041 41.1447 15.4848 42.8285 15.4848ZM42.8285 5.69006C46.291 5.69006 48.8286 8.27511 48.8286 11.8088C48.8286 15.3662 46.291 17.9512 42.8285 17.9512C39.3897 17.9512 36.8521 15.3662 36.8521 11.8088C36.8521 8.27511 39.3897 5.69006 42.8285 5.69006Z" fill="white"/>
<path d="M30.3577 8.22768C28.6739 8.22768 27.1798 9.48463 27.1798 11.8088C27.1798 14.133 28.6739 15.4373 30.4051 15.4373C32.2076 15.4373 33.0376 14.1804 33.2985 13.3029L35.7175 14.1804C35.1721 15.9828 33.4408 17.9512 30.4051 17.9512C27.0138 17.9512 24.4287 15.3188 24.4287 11.8088C24.4287 8.25139 27.0138 5.69006 30.334 5.69006C33.4408 5.69006 35.1483 7.63478 35.6227 9.48463L33.1562 10.3858C32.8953 9.36605 32.1127 8.22768 30.3577 8.22768Z" fill="white"/>
<path d="M17.9349 8.22768C16.251 8.22768 14.7569 9.48463 14.7569 11.8088C14.7569 14.133 16.251 15.4373 17.9823 15.4373C19.7847 15.4373 20.6148 14.1804 20.8756 13.3029L23.2947 14.1804C22.7492 15.9828 21.0179 17.9512 17.9823 17.9512C14.5909 17.9512 12.0059 15.3188 12.0059 11.8088C12.0059 8.25139 14.5909 5.69006 17.9111 5.69006C21.0179 5.69006 22.7255 7.63478 23.1998 9.48463L20.7334 10.3858C20.4725 9.36605 19.6898 8.22768 17.9349 8.22768Z" fill="white"/>
<path d="M0 14.465C0 12.4017 1.51782 11.2633 3.48625 10.9787L6.45076 10.5281C7.1148 10.4333 7.30453 10.1012 7.30453 9.69807C7.30453 8.72571 6.64048 7.94309 5.12266 7.94309C3.67598 7.94309 2.86964 8.86801 2.75106 10.0301L0.23716 9.46091C0.450604 7.46876 2.25302 5.69006 5.09894 5.69006C8.65635 5.69006 10.0082 7.70592 10.0082 10.0064V15.7457C10.0082 16.7892 10.1267 17.4769 10.1505 17.5955H7.58912C7.56541 17.5244 7.47054 17.05 7.47054 16.1251C6.92508 17.0026 5.78671 17.9512 3.91314 17.9512C1.49411 17.9512 0 16.2911 0 14.465ZM4.4349 15.7931C5.97644 15.7931 7.30453 15.0579 7.30453 12.8049V12.2831L4.2926 12.7337C3.43882 12.876 2.75106 13.3503 2.75106 14.299C2.75106 15.0816 3.34396 15.7931 4.4349 15.7931Z" fill="white"/>
</svg>
