<svg viewBox="0 0 80 22" fill="none" xmlns="http://www.w3.org/2000/svg">
<g clip-path="url(#clip0_59491_13511)">
<path d="M77.4836 7.23901H79.6793V9.4782H77.4836V14.3914C77.4836 14.8551 77.5923 15.1957 77.8097 15.4131C78.0271 15.616 78.3677 15.7175 78.8315 15.7175C79.0054 15.7175 79.1793 15.7102 79.3532 15.6957C79.5271 15.6668 79.6431 15.645 79.7011 15.6305V17.7175C79.6286 17.7465 79.4692 17.79 79.2228 17.848C78.9764 17.9204 78.6213 17.9567 78.1575 17.9567C77.172 17.9567 76.3966 17.6813 75.8314 17.1306C75.2662 16.5798 74.9835 15.8044 74.9835 14.8044V9.4782H73.027V7.23901H73.5705C74.1357 7.23901 74.5488 7.07959 74.8096 6.76074C75.0705 6.44189 75.2009 6.05057 75.2009 5.58679V3.9998H77.4836V7.23901Z" fill="white"/>
<path d="M69.8148 11.3696C69.8003 11.0652 69.735 10.7754 69.6191 10.5C69.5177 10.2101 69.3582 9.9565 69.1408 9.7391C68.9234 9.5217 68.6553 9.34779 68.3365 9.21735C68.0176 9.08691 67.6408 9.02169 67.206 9.02169C66.8147 9.02169 66.4596 9.09416 66.1408 9.23909C65.8364 9.36953 65.5755 9.55069 65.3581 9.78258C65.1407 9.99998 64.9668 10.2536 64.8364 10.5435C64.7059 10.8188 64.6335 11.0942 64.619 11.3696H69.8148ZM72.2279 14.8044C72.0829 15.2682 71.8728 15.703 71.5974 16.1088C71.322 16.5146 70.9815 16.8697 70.5756 17.1741C70.1698 17.4784 69.7061 17.7176 69.1843 17.8915C68.6626 18.0654 68.0828 18.1524 67.4451 18.1524C66.7205 18.1524 66.0321 18.0292 65.3799 17.7828C64.7277 17.5219 64.1552 17.1523 63.6624 16.6741C63.1697 16.1813 62.7711 15.5871 62.4667 14.8914C62.1769 14.1812 62.032 13.3769 62.032 12.4783C62.032 11.6377 62.1696 10.8768 62.445 10.1956C62.7349 9.51446 63.1189 8.93473 63.5972 8.45646C64.0755 7.96369 64.6262 7.58687 65.2494 7.326C65.8726 7.05063 66.5176 6.91294 67.1843 6.91294C67.9959 6.91294 68.7205 7.04338 69.3582 7.30426C70.0104 7.56513 70.5539 7.93471 70.9887 8.41298C71.438 8.89125 71.7786 9.47098 72.0105 10.1522C72.2424 10.8188 72.3583 11.5725 72.3583 12.4131C72.3583 12.616 72.3511 12.7972 72.3366 12.9566C72.3221 13.1015 72.3076 13.1885 72.2931 13.2175H64.5538C64.5683 13.6233 64.6552 13.9928 64.8146 14.3262C64.9741 14.6595 65.1842 14.9494 65.4451 15.1958C65.706 15.4421 66.0031 15.6378 66.3364 15.7827C66.6842 15.9132 67.0538 15.9784 67.4451 15.9784C68.2133 15.9784 68.8002 15.8045 69.206 15.4566C69.6264 15.0943 69.9235 14.6523 70.0974 14.1305L72.2279 14.8044Z" fill="white"/>
<path d="M57.5628 11.7174L61.9977 17.8262H58.9106L55.8019 13.5L54.4975 14.8696V17.8262H51.9974V2.08668H54.4975V11.5217L58.5628 7.23898H61.9107L57.5628 11.7174Z" fill="white"/>
<path d="M45.3705 9.23909C44.9792 9.23909 44.6096 9.31156 44.2618 9.45649C43.914 9.60142 43.6024 9.81157 43.327 10.0869C43.0661 10.3623 42.856 10.7029 42.6965 11.1087C42.5371 11.5145 42.4574 11.9855 42.4574 12.5218C42.4574 13.058 42.5371 13.5363 42.6965 13.9566C42.856 14.3624 43.0661 14.7102 43.327 15.0001C43.6024 15.2755 43.9212 15.4856 44.2835 15.6306C44.6459 15.7755 45.0227 15.848 45.414 15.848C45.8198 15.848 46.1749 15.7827 46.4793 15.6523C46.7981 15.5219 47.059 15.3624 47.2619 15.174C47.4793 14.9711 47.6532 14.761 47.7836 14.5436C47.9141 14.3117 48.0083 14.0943 48.0662 13.8914L50.2837 14.6957C50.1533 15.116 49.9576 15.5291 49.6967 15.9349C49.4359 16.3407 49.1025 16.7103 48.6967 17.0436C48.3054 17.377 47.8344 17.6451 47.2836 17.848C46.7329 18.0509 46.1097 18.1524 45.414 18.1524C44.6314 18.1524 43.9067 18.0147 43.24 17.7393C42.5734 17.4494 41.9936 17.0509 41.5009 16.5436C41.0226 16.0364 40.6385 15.4421 40.3487 14.761C40.0733 14.0798 39.9356 13.3334 39.9356 12.5218C39.9356 11.7102 40.0733 10.9638 40.3487 10.2826C40.624 9.58692 41.0081 8.99271 41.5009 8.49994C41.9936 7.99268 42.5661 7.60137 43.2183 7.326C43.8705 7.05063 44.5807 6.91294 45.3488 6.91294C46.059 6.91294 46.6894 7.0144 47.2401 7.2173C47.7909 7.4202 48.2692 7.68832 48.675 8.02167C49.0808 8.34052 49.4069 8.71009 49.6532 9.13039C49.8996 9.55069 50.0808 9.97099 50.1967 10.3913L47.9358 11.2174C47.8778 10.9855 47.7836 10.7536 47.6532 10.5217C47.5373 10.2753 47.3706 10.058 47.1532 9.86954C46.9503 9.68113 46.7039 9.52895 46.414 9.41301C46.1242 9.29706 45.7763 9.23909 45.3705 9.23909Z" fill="white"/>
<path d="M35.527 17.8262V7.23896H38.0271V17.8262H35.527ZM35.1357 3.52148C35.1357 3.0577 35.2951 2.66638 35.614 2.34754C35.9328 2.02869 36.3169 1.86926 36.7662 1.86926C37.23 1.86926 37.6213 2.02869 37.9401 2.34754C38.259 2.66638 38.4184 3.0577 38.4184 3.52148C38.4184 3.98526 38.259 4.37657 37.9401 4.69542C37.6213 4.99978 37.23 5.15195 36.7662 5.15195C36.3169 5.15195 35.9328 4.99978 35.614 4.69542C35.2951 4.37657 35.1357 3.98526 35.1357 3.52148Z" fill="white"/>
<path d="M31.4566 7.23901H33.6523V9.4782H31.4566V14.3914C31.4566 14.8551 31.5653 15.1957 31.7827 15.4131C32.0001 15.616 32.3407 15.7175 32.8045 15.7175C32.9784 15.7175 33.1523 15.7102 33.3262 15.6957C33.5002 15.6668 33.6161 15.645 33.6741 15.6305V17.7175C33.6016 17.7465 33.4422 17.79 33.1958 17.848C32.9494 17.9204 32.5943 17.9567 32.1306 17.9567C31.145 17.9567 30.3697 17.6813 29.8044 17.1306C29.2392 16.5798 28.9566 15.8044 28.9566 14.8044V9.4782H27V7.23901H27.5435C28.1087 7.23901 28.5218 7.07959 28.7827 6.76074C29.0435 6.44189 29.174 6.05057 29.174 5.58679V3.9998H31.4566V7.23901Z" fill="white"/>
<path d="M6.95508 9.05859C7.77388 8.62213 8.45672 8.64705 8.72754 8.79297C8.82934 8.84549 9.27817 9.12231 9.1582 9.87695L8.93262 11.2588C8.84734 11.8764 8.84837 12.2087 9.19922 12.209C9.40488 12.209 9.85727 11.9853 10.1191 11.1123C10.1715 10.9372 10.2238 10.7578 10.2471 10.5771L10.4678 8.95703C10.474 8.91159 10.514 8.87708 10.5615 8.87695H11.7021C11.759 8.87695 11.8034 8.92595 11.7969 8.98047L11.5137 11.3145C11.4284 11.9688 11.514 12.2088 11.7793 12.209C12.083 12.209 12.6383 11.96 12.8398 10.5684C12.8418 10.5555 12.9818 9.65093 12.9492 8.97363C12.9468 8.92044 12.9894 8.87662 13.0439 8.87695H14.0977C14.1487 8.87695 14.1902 8.91542 14.1924 8.96484C14.2054 9.25971 14.3436 10.1918 15.0068 10.627C15.0336 10.6444 15.0496 10.6725 15.0508 10.7021L15.0469 10.7324C14.9851 10.9274 14.8183 11.4189 14.749 11.624C14.7315 11.6756 14.6725 11.7023 14.6211 11.6807C14.4313 11.6008 14.2007 11.4493 14.085 11.3506C14.0699 11.3378 14.0461 11.3454 14.041 11.3643C13.6116 12.9013 12.6062 13.4423 11.542 13.4424C10.8311 13.4424 10.4429 13.1295 10.2959 12.6797C10.2882 12.6578 10.2588 12.6536 10.2451 12.6729C9.67511 13.4807 8.77637 13.4424 8.77637 13.4424C7.7898 13.4422 7.46341 12.679 7.61523 11.5811L7.83691 10.2422C7.84411 10.1877 7.85354 10.0481 7.77539 9.97461C7.71408 9.91739 7.61962 9.91949 7.55664 9.92578C7.51484 9.92977 7.44177 9.95227 7.36914 9.97852C7.32082 9.99613 7.26666 9.97263 7.24609 9.92676L6.91309 9.17969C6.89321 9.13515 6.91124 9.08188 6.95508 9.05859Z" fill="white"/>
<path fill-rule="evenodd" clip-rule="evenodd" d="M11 0C18.9199 0 22 3.08009 22 11C22 18.9199 18.9199 22 11 22C3.08009 22 0 18.9199 0 11C0 3.08009 3.08009 0 11 0ZM5.04199 5.86719C4.33324 5.86719 3.7588 6.44164 3.75879 7.15039V12.7412C3.75875 14.7662 5.39981 16.4081 7.4248 16.4082H17.3252C17.8314 16.4081 18.2412 15.9974 18.2412 15.4912V12.9688C18.2412 12.7858 18.0924 12.6402 17.915 12.5986C17.2534 12.4443 16.7608 11.8492 16.7607 11.1377C16.7607 10.4261 17.2534 9.83026 17.915 9.67578C18.0924 9.63421 18.2412 9.4886 18.2412 9.30566V6.7832C18.2411 6.27709 17.8313 5.86731 17.3252 5.86719H5.04199Z" fill="white"/>
</g>
<defs>
<clipPath id="clip0_59491_13511"><rect width="80" height="22" fill="white"/>
</clipPath>
</defs>
</svg>
