<svg viewBox="0 0 274 24" fill="none" xmlns="http://www.w3.org/2000/svg">
<path d="M59.4845 9.69902C59.5587 9.69902 59.6329 9.69902 59.7071 9.70904C59.8951 9.73909 60.093 9.83425 60.1128 10.0747C60.1721 10.7858 60.3206 12.0279 61.8245 12.8343C63.7342 13.861 65.7626 14.0413 65.728 14.8677C65.6785 15.9395 63.2741 15.9345 60.7955 14.8877C60.6966 14.8477 60.5828 14.8827 60.5234 14.9729L59.3608 17.1265C59.2915 17.2317 59.3311 17.3769 59.4399 17.437C60.0138 17.7626 62.2055 18.619 64.6593 18.5189C67.6475 18.3936 69.1317 16.5556 69.2207 14.4119C69.2207 14.3869 69.2405 14.3719 69.2653 14.3719C69.5374 14.3969 69.8688 14.3919 69.9876 14.3869C70.0074 14.3869 70.0272 14.4019 70.0272 14.422C70.1657 15.654 70.9572 17.9579 74.0542 18.3386C76.8346 18.6791 79.1697 17.8277 80.9854 16.3652C81.0646 16.3051 81.0843 16.1949 81.0398 16.1048L80.0899 14.2367C80.0306 14.1215 79.8821 14.0864 79.7832 14.1665C78.4375 15.2183 76.7851 15.7342 75.7165 15.7041C73.604 15.644 73.3121 14.7375 73.2726 14.4921C73.2676 14.462 73.2924 14.432 73.327 14.432C77.6905 14.6524 80.0504 12.1882 80.0256 10.0246C80.0157 9.01287 79.3726 7.26493 76.9237 6.96943C76.6961 6.93938 76.4487 6.91935 76.1717 6.91935C75.7907 6.91935 75.4048 6.96442 75.0239 7.04456C75.019 7.04456 75.0091 7.04456 75.0041 7.04456C74.9744 7.04956 74.9447 7.05958 74.9151 7.06459C74.0295 7.26994 73.2132 7.68563 72.5107 8.27162C71.4223 9.16813 70.5763 10.4703 70.2547 12.1081C70.2547 12.1281 70.2349 12.1481 70.2102 12.1481C69.5225 12.1832 68.4341 12.0329 67.6821 11.9127C67.4249 11.8777 67.1528 11.8276 66.8807 11.7725C66.8708 11.7725 66.8609 11.7725 66.8609 11.7725C66.1138 11.6122 65.3223 11.3768 64.5653 11.0162C62.3143 9.94443 64.5159 8.29666 67.2715 9.93943C67.3705 9.99953 67.4991 9.96948 67.5634 9.86931L68.7211 8.11135C68.7903 8.00617 68.7606 7.86093 68.6518 7.79582C67.8751 7.33505 64.5357 5.85255 61.5524 7.85091C61.5524 7.85091 60.6026 6.99447 59.1975 6.99447C57.2087 6.99447 56.4815 8.18147 56.4815 8.18147L56.6497 7.17478C56.6744 7.03955 56.5705 6.91434 56.432 6.91434H53.7605C53.6467 6.91434 53.5477 7.00449 53.5428 7.11968C53.4933 7.901 53.2608 10.6957 52.4593 12.2032C51.2373 14.5622 48.3333 15.7392 46.7304 15.6941C44.6179 15.634 44.326 14.7275 44.2864 14.4821C44.2815 14.452 44.3062 14.422 44.3408 14.422C48.7043 14.6423 51.0642 12.1782 51.0395 10.0146C51.0296 8.90769 50.2627 6.91935 47.2053 6.91434C44.6129 6.91434 42.3817 8.65226 41.5011 11.3117C41.4912 11.3418 41.4566 11.3518 41.4368 11.3318C40.5314 10.4753 40.4671 7.94106 40.4671 7.13972C40.4671 7.01451 40.3682 6.91935 40.2494 6.91935H37.8747C37.756 6.91935 37.657 7.01951 37.657 7.13972C37.657 7.72069 37.6274 9.22823 37.3652 10.4954C36.6231 14.0764 35.3467 15.1382 34.7431 15.0731C34.3473 15.033 34.2038 14.452 34.1395 14.2467C33.902 13.4754 32.7988 8.70735 32.4327 7.08462C32.4129 6.98446 32.3239 6.91434 32.2249 6.91434H29.2417C29.0883 6.91434 28.9844 7.0696 29.0389 7.21484L29.1576 7.53538C31.1266 13.0246 26.2189 15.7742 23.7799 15.7041C21.6674 15.644 21.3755 14.7375 21.3359 14.4921C21.331 14.462 21.3557 14.432 21.3904 14.432C25.7539 14.6524 28.1137 12.1882 28.089 10.0246C28.0791 8.91771 27.3123 6.91935 24.2548 6.91434C21.5586 6.91434 19.2531 8.80251 18.4517 11.6473C18.4418 11.6824 18.4022 11.6974 18.3725 11.6723C17.0268 10.5104 16.8883 8.32671 16.8537 7.59548C16.8487 7.47528 16.7498 7.38513 16.636 7.38513H14.197C14.0733 7.38513 13.9744 7.49031 13.9793 7.61552C14.0585 9.26329 13.727 11.472 13.727 11.472C13.262 14.8327 11.9757 15.4337 11.2731 15.4337C10.6597 15.4337 10.4618 14.8527 10.6597 13.275L11.3127 7.64056C11.3276 7.51034 11.2286 7.39515 11.095 7.39515H8.45814C8.3493 7.39515 8.2553 7.47528 8.24046 7.59047L7.73089 11.5021C7.67647 11.9378 7.55773 12.3735 7.43405 12.7942C6.82553 14.9028 5.78166 15.4437 5.30672 15.4437C4.49536 15.4437 4.49041 14.6423 4.6883 13.1498L5.21272 9.81422C5.48977 7.99115 4.45084 7.32503 4.21831 7.19982C3.59001 6.84923 2.01182 6.78913 0.11701 7.8409C0.0131173 7.89599 -0.026461 8.02621 0.0180646 8.13138L0.789842 9.93442C0.839315 10.0446 0.962997 10.0997 1.07678 10.0596C1.24499 9.99452 1.4132 9.94443 1.5072 9.93442C1.65067 9.91939 1.8733 9.91438 2.01182 10.0546C2.19487 10.2299 2.17014 10.5655 2.15529 10.7007L1.64078 13.9361C1.28952 16.5856 2.04645 18.4287 4.32715 18.4287C4.32715 18.4287 6.40996 18.5239 7.72594 16.5656C7.75562 16.5205 7.81994 16.5305 7.83478 16.5806C8.1712 17.6724 9.0716 18.4287 10.719 18.4287C13.2273 18.4287 15.5971 17.0814 16.5618 13.2049C16.5717 13.1699 16.6113 13.1649 16.6311 13.1899C16.8834 13.5856 17.4672 14.0564 18.0658 14.3018C18.0856 14.3068 18.0955 14.3268 18.0955 14.3468C18.1103 14.6974 18.3676 17.8928 22.1176 18.3586C25.9814 18.8344 29.1279 16.8811 31.0029 14.3368L31.745 16.255C31.745 16.255 32.4921 18.4187 34.1593 18.4187C36.257 18.4187 38.3694 16.5005 39.5617 13.4103C39.6211 13.265 39.6706 13.1198 39.7201 12.9745C39.7299 12.9445 39.7695 12.9345 39.7893 12.9595C40.1406 13.3351 40.5512 13.6106 41.0113 13.826C41.0212 13.826 41.0261 13.841 41.0261 13.851C40.9569 14.6724 41.3527 17.8928 45.073 18.3536C48.0365 18.7192 50.5002 17.7225 52.3554 16.0848C52.3851 16.0597 52.4296 16.0848 52.4247 16.1248L52.1724 18.1833C52.1575 18.3135 52.2565 18.4337 52.3901 18.4337H55.0962C55.21 18.4337 55.304 18.3486 55.3139 18.2384L55.7295 14.427C55.9571 12.3335 56.6398 11.2817 57.4215 10.5655C58.2378 9.84427 59.1876 9.73909 59.5043 9.72907L59.4845 9.69902ZM21.2815 12.093C21.4695 10.9862 22.078 10.3201 22.7805 9.86931C23.8937 9.1531 24.992 9.24826 25.269 9.70904C25.5362 10.1498 25.4521 11.0112 24.047 11.7224C23.1961 12.1531 22.365 12.2183 21.3359 12.1582C21.3013 12.1582 21.2766 12.1231 21.2815 12.093ZM44.2369 12.093C44.4249 10.9862 45.0334 10.3201 45.736 9.86931C46.8491 9.14809 47.9474 9.24826 48.2244 9.70904C48.4916 10.1498 48.4075 11.0112 47.0025 11.7224C46.1515 12.1531 45.3204 12.2183 44.2914 12.1582C44.2567 12.1582 44.232 12.1231 44.2369 12.093ZM73.2281 12.0981C73.416 10.9912 74.0246 10.3251 74.7271 9.87432C75.8402 9.1531 76.9385 9.25327 77.2156 9.71405C77.4827 10.1548 77.3986 11.0162 75.9936 11.7274C75.1426 12.1582 74.3115 12.2233 73.2825 12.1632C73.2478 12.1632 73.2231 12.1281 73.233 12.0981H73.2281Z" fill="white"/>
<path d="M159.388 4.30396V7.57396H161.605V9.83443H159.388V14.7943C159.388 15.738 159.805 16.133 160.749 16.133C161.1 16.133 161.517 16.0672 161.627 16.0452V18.1521C161.473 18.2179 160.99 18.3935 160.068 18.3935C158.093 18.3935 156.864 17.2084 156.864 15.2113V9.83443H154.889V7.57396H155.438C156.579 7.57396 157.084 6.84973 157.084 5.90604V4.30396H159.388Z" fill="white"/>
<path d="M146.673 12.0949V18.2618H144.127V7.57397H146.607V9.00048C147.309 7.77149 148.582 7.26672 149.767 7.26672C152.379 7.26672 153.63 9.15411 153.63 11.5024V18.2618H151.084V11.9413C151.084 10.6245 150.491 9.57109 148.889 9.57109C147.441 9.57109 146.673 10.6903 146.673 12.0949Z" fill="white"/>
<path d="M139.095 17.0767C138.568 18.0424 137.317 18.5691 136.066 18.5691C133.521 18.5691 132.028 16.6817 132.028 14.3115V7.57397H134.574V13.8506C134.574 15.1674 135.189 16.2867 136.725 16.2867C138.195 16.2867 138.963 15.2991 138.963 13.8945V7.57397H141.509V16.3086C141.509 17.1865 141.575 17.8668 141.619 18.2618H139.183C139.139 18.0204 139.095 17.5157 139.095 17.0767Z" fill="white"/>
<path d="M124.656 16.3086C126.237 16.3086 127.641 15.1454 127.641 12.9069C127.641 10.6903 126.237 9.54911 124.656 9.54911C123.098 9.54911 121.672 10.6903 121.672 12.9069C121.672 15.1235 123.098 16.3086 124.656 16.3086ZM124.656 7.24475C127.861 7.24475 130.209 9.6369 130.209 12.9069C130.209 16.1988 127.861 18.591 124.656 18.591C121.474 18.591 119.126 16.1988 119.126 12.9069C119.126 9.6369 121.474 7.24475 124.656 7.24475Z" fill="white"/>
<path d="M113.116 9.59301C111.558 9.59301 110.176 10.7562 110.176 12.9069C110.176 15.0576 111.558 16.2647 113.16 16.2647C114.828 16.2647 115.596 15.1015 115.838 14.2895L118.076 15.1015C117.572 16.7695 115.969 18.591 113.16 18.591C110.022 18.591 107.63 16.155 107.63 12.9069C107.63 9.61495 110.022 7.24475 113.095 7.24475C115.969 7.24475 117.55 9.04435 117.989 10.7562L115.706 11.5901C115.465 10.6464 114.74 9.59301 113.116 9.59301Z" fill="white"/>
<path d="M101.62 9.59301C100.062 9.59301 98.6796 10.7562 98.6796 12.9069C98.6796 15.0576 100.062 16.2647 101.664 16.2647C103.332 16.2647 104.1 15.1015 104.342 14.2895L106.58 15.1015C106.075 16.7695 104.473 18.591 101.664 18.591C98.5259 18.591 96.1338 16.155 96.1338 12.9069C96.1338 9.61495 98.5259 7.24475 101.598 7.24475C104.473 7.24475 106.054 9.04435 106.492 10.7562L104.21 11.5901C103.969 10.6464 103.244 9.59301 101.62 9.59301Z" fill="white"/>
<path d="M85.0239 15.3649C85.0239 13.4556 86.4285 12.4021 88.25 12.1388L90.9933 11.7218C91.6078 11.634 91.7834 11.3268 91.7834 10.9537C91.7834 10.0539 91.1689 9.32965 89.7643 9.32965C88.4256 9.32965 87.6794 10.1856 87.5697 11.2609L85.2434 10.7342C85.4409 8.89072 87.1088 7.24475 89.7424 7.24475C93.0343 7.24475 94.2853 9.11019 94.2853 11.239V16.55C94.2853 17.5156 94.395 18.1521 94.4169 18.2618H92.0467C92.0248 18.196 91.937 17.757 91.937 16.9011C91.4322 17.7131 90.3788 18.591 88.6451 18.591C86.4065 18.591 85.0239 17.0548 85.0239 15.3649ZM89.1279 16.5939C90.5544 16.5939 91.7834 15.9135 91.7834 13.8286V13.3458L88.9962 13.7628C88.2061 13.8945 87.5697 14.3334 87.5697 15.2113C87.5697 15.9355 88.1184 16.5939 89.1279 16.5939Z" fill="white"/>
<path d="M265.836 15.5185L267.043 15.1016C267.241 16.3964 268.184 17.4059 269.918 17.4059C271.235 17.4059 272.244 16.6598 272.244 15.5405C272.244 14.5749 271.586 14.0481 270.467 13.7848L268.777 13.3898C267.219 13.0386 266.209 12.1169 266.209 10.6026C266.209 8.91271 267.833 7.53009 269.742 7.53009C272.2 7.53009 273.188 8.97855 273.495 10.2295L272.332 10.6684C272.156 9.65888 271.388 8.6713 269.742 8.6713C268.579 8.6713 267.504 9.39553 267.504 10.5148C267.504 11.3707 268.053 11.9413 269.15 12.1827L270.818 12.5558C272.573 12.9728 273.539 13.9384 273.539 15.4527C273.539 17.0109 272.244 18.5471 269.896 18.5471C267.35 18.5471 266.012 16.9231 265.836 15.5185Z" fill="white"/>
<path d="M256.521 15.5185L257.728 15.1016C257.925 16.3964 258.869 17.4059 260.603 17.4059C261.919 17.4059 262.929 16.6598 262.929 15.5405C262.929 14.5749 262.27 14.0481 261.151 13.7848L259.461 13.3898C257.903 13.0386 256.894 12.1169 256.894 10.6026C256.894 8.91271 258.518 7.53009 260.427 7.53009C262.885 7.53009 263.873 8.97855 264.18 10.2295L263.017 10.6684C262.841 9.65888 262.073 8.6713 260.427 8.6713C259.264 8.6713 258.188 9.39553 258.188 10.5148C258.188 11.3707 258.737 11.9413 259.834 12.1827L261.502 12.5558C263.258 12.9728 264.224 13.9384 264.224 15.4527C264.224 17.0109 262.929 18.5471 260.581 18.5471C258.035 18.5471 256.696 16.9231 256.521 15.5185Z" fill="white"/>
<path d="M246.641 12.1827H253.62C253.554 10.2514 252.325 8.69322 250.131 8.69322C248.178 8.69322 246.751 10.2514 246.641 12.1827ZM253.774 14.8821L254.937 15.2991C254.345 17.0767 252.764 18.5471 250.35 18.5471C247.585 18.5471 245.259 16.5061 245.259 12.9947C245.259 9.7247 247.497 7.50812 250.109 7.50812C253.159 7.50812 255.003 9.72469 255.003 12.7972C255.003 12.9727 255.003 13.1044 254.981 13.28H246.598V13.3678C246.598 15.7599 248.309 17.362 250.35 17.362C252.216 17.362 253.335 16.2647 253.774 14.8821Z" fill="white"/>
<path d="M235.842 12.0071V18.2618H234.525V7.79345H235.798V9.46137C236.39 8.3421 237.597 7.53009 239.199 7.53009C241.657 7.53009 242.908 9.26385 242.908 11.4365V18.2618H241.592V11.656C241.592 10.01 240.78 8.71519 238.761 8.71519C236.939 8.71519 235.842 10.2295 235.842 12.0071Z" fill="white"/>
<path d="M231.348 18.2618H230.032V7.79345H231.348V18.2618ZM229.593 3.44808C229.593 2.81164 230.076 2.35077 230.69 2.35077C231.305 2.35077 231.787 2.81164 231.787 3.44808C231.787 4.08453 231.305 4.5454 230.69 4.5454C230.076 4.5454 229.593 4.08453 229.593 3.44808Z" fill="white"/>
<path d="M219.838 15.5185L221.045 15.1016C221.243 16.3964 222.187 17.4059 223.92 17.4059C225.237 17.4059 226.247 16.6598 226.247 15.5405C226.247 14.5749 225.588 14.0481 224.469 13.7848L222.779 13.3898C221.221 13.0386 220.211 12.1169 220.211 10.6026C220.211 8.91271 221.835 7.53009 223.745 7.53009C226.203 7.53009 227.19 8.97855 227.498 10.2295L226.334 10.6684C226.159 9.65888 225.391 8.6713 223.745 8.6713C222.582 8.6713 221.506 9.39553 221.506 10.5148C221.506 11.3707 222.055 11.9413 223.152 12.1827L224.82 12.5558C226.576 12.9728 227.542 13.9384 227.542 15.4527C227.542 17.0109 226.247 18.5471 223.898 18.5471C221.353 18.5471 220.014 16.9231 219.838 15.5185Z" fill="white"/>
<path d="M216.282 16.7914V16.6378C215.778 17.6693 214.658 18.5471 212.99 18.5471C210.357 18.5471 209.084 16.572 209.084 14.3774V7.79346H210.401V14.1579C210.401 15.8258 211.191 17.362 213.232 17.362C215.097 17.362 216.195 15.9355 216.195 14.1798V7.79346H217.511V16.2647C217.511 17.0548 217.577 17.801 217.643 18.2618H216.392C216.326 18.0204 216.282 17.4718 216.282 16.7914Z" fill="white"/>
<path d="M198.173 18.2619H196.878V2.41663H198.195V9.81253C198.656 8.78106 199.885 7.50817 201.991 7.50817C204.91 7.50817 206.732 9.92227 206.732 13.0167C206.732 16.1111 204.844 18.5472 201.948 18.5472C199.928 18.5472 198.699 17.3401 198.173 16.2209V18.2619ZM201.794 17.3621C203.945 17.3621 205.415 15.5625 205.415 13.0167C205.415 10.4929 203.945 8.69327 201.794 8.69327C199.621 8.69327 198.173 10.4929 198.173 13.0167C198.173 15.5625 199.621 17.3621 201.794 17.3621Z" fill="white"/>
<path d="M191.518 7.77148V9.15409C191.254 9.08825 190.947 9.04436 190.596 9.04436C188.818 9.04436 187.501 10.1856 187.501 12.5777V18.2618H186.185V7.79342H187.479V9.74664C188.116 8.27624 189.301 7.66174 190.706 7.66174C191.057 7.66174 191.32 7.70564 191.518 7.77148Z" fill="white"/>
<path d="M178.517 18.5471C175.62 18.5471 173.316 16.2867 173.316 13.0386C173.316 9.74667 175.576 7.53009 178.517 7.53009C181.414 7.53009 183.718 9.74667 183.718 13.0386C183.718 16.2867 181.414 18.5471 178.517 18.5471ZM174.655 13.0386C174.655 15.76 176.476 17.362 178.517 17.362C180.558 17.362 182.38 15.76 182.38 13.0386C182.38 10.2953 180.558 8.71519 178.517 8.71519C176.476 8.71519 174.655 10.2953 174.655 13.0386Z" fill="white"/>
<path d="M172.558 8.97854H169.639V18.2618H168.322V8.97854H166.171V7.79344H168.322V5.62076C168.322 3.40418 169.683 2.24103 171.438 2.24103C171.987 2.24103 172.382 2.35076 172.624 2.46049V3.64559C172.426 3.55781 172.097 3.47002 171.636 3.47002C170.583 3.47002 169.639 4.01868 169.639 5.6866V7.79344H172.558V8.97854Z" fill="white"/>
</svg>
