<svg viewBox="0 0 95 24" fill="none" xmlns="http://www.w3.org/2000/svg">
<path d="M69.7298 8.43259C69.8164 8.42858 69.9029 8.43125 69.9882 8.44595C70.2117 8.48472 70.4404 8.59566 70.465 8.88439C70.536 9.7372 70.7105 11.2249 72.4677 12.1914C74.7029 13.4211 77.0829 13.635 77.039 14.6242C76.9834 15.9074 74.1654 15.9034 71.2609 14.6456C71.1446 14.5948 71.0102 14.6375 70.943 14.7471L69.5825 17.3243C69.5037 17.4526 69.545 17.6224 69.673 17.6972C70.3448 18.0889 72.9109 19.1128 75.787 18.9898C79.2897 18.8401 81.025 16.6386 81.1309 14.0694C81.1309 14.0427 81.1542 14.0213 81.18 14.024C81.5017 14.0534 81.8881 14.0467 82.0237 14.0427C82.0483 14.0427 82.0677 14.0601 82.0702 14.0855C82.2305 15.5599 83.1569 18.3188 86.7901 18.7759C90.0474 19.1863 92.7853 18.1624 94.9094 16.414C94.9999 16.3405 95.0257 16.2095 94.9727 16.1039L93.859 13.8649C93.7905 13.7272 93.6174 13.6845 93.4985 13.7794C91.9248 15.0372 89.9867 15.6561 88.7334 15.6187C86.2578 15.5465 85.918 14.4598 85.8702 14.1657C85.8637 14.1269 85.8934 14.0935 85.9322 14.0948C91.0462 14.3582 93.8099 11.4094 93.7827 8.81889C93.7698 7.60651 93.0166 5.5119 90.1469 5.15901C89.8794 5.12159 89.5874 5.1002 89.2657 5.09886C88.8174 5.09886 88.3652 5.15099 87.9181 5.24991C87.909 5.25125 87.9013 5.25392 87.8923 5.25526C87.8574 5.26328 87.8225 5.2713 87.7889 5.28065C86.7514 5.52527 85.794 6.02252 84.9735 6.72696C83.6969 7.79765 82.7072 9.36293 82.3287 11.3225C82.3235 11.3479 82.3028 11.368 82.277 11.3693C81.4733 11.4081 80.1942 11.2303 79.3169 11.0846C79.0132 11.0405 78.6993 10.9843 78.3788 10.9162L78.3556 10.9122C77.4796 10.7223 76.5557 10.4363 75.6681 10.0045C73.0284 8.72131 75.6087 6.74701 78.8375 8.71864C78.9538 8.78948 79.105 8.75339 79.1799 8.63576L80.534 6.52913C80.6154 6.40214 80.5779 6.23105 80.4513 6.15352C79.5443 5.59879 75.6281 3.82633 72.1317 6.21768C72.1317 6.21768 71.0206 5.19377 69.3732 5.19377C67.0423 5.19377 66.1883 6.61334 66.1883 6.61334L66.3834 5.4063C66.4092 5.24456 66.2891 5.09619 66.1301 5.09619H62.9982C62.8625 5.09619 62.7514 5.20446 62.7424 5.34482C62.6829 6.27917 62.4116 9.62358 61.4736 11.4295C60.0432 14.2526 56.6374 15.6628 54.7626 15.608C52.287 15.5358 51.9472 14.4491 51.8994 14.155C51.8929 14.1162 51.9227 14.0828 51.9614 14.0841C57.0754 14.3475 59.8391 11.3987 59.812 8.8082C59.7978 7.48353 58.9011 5.10154 55.3195 5.09619C52.2844 5.09218 49.668 7.17475 48.637 10.3601C48.6253 10.3935 48.584 10.4069 48.5594 10.3815C47.4974 9.35491 47.4211 6.3206 47.425 5.36086C47.425 5.21382 47.31 5.09485 47.1679 5.09485H44.3848C44.2427 5.09485 44.1277 5.21382 44.1277 5.35952C44.1277 6.05594 44.0941 7.86182 43.7866 9.37897C42.9144 13.6671 41.4208 14.9396 40.7154 14.8621C40.2515 14.8113 40.0835 14.1202 40.0086 13.8743C39.7308 12.9506 38.4375 7.24426 38.0072 5.29669C37.9814 5.17906 37.8793 5.09485 37.763 5.09485H34.2667C34.0871 5.09485 33.9631 5.28065 34.0264 5.45442L34.1659 5.83672C36.4748 12.4079 30.7226 15.7029 27.8659 15.62C25.3903 15.5478 25.0505 14.4611 25.0027 14.167C24.9962 14.1283 25.0259 14.0948 25.0647 14.0962C30.1786 14.3595 32.9423 11.4107 32.9152 8.82023C32.901 7.49556 32.0043 5.10287 28.4227 5.09753C25.2649 5.09352 22.5607 7.35654 21.6213 10.7624C21.6097 10.8039 21.5606 10.8199 21.5296 10.7919C19.9533 9.40169 19.7879 6.78711 19.7517 5.91024C19.7453 5.76855 19.6329 5.65627 19.4959 5.65627H16.6392C16.4932 5.65493 16.3756 5.78058 16.3833 5.93163C16.4738 7.90459 16.0862 10.5459 16.0862 10.5459C15.5396 14.5694 14.0357 15.2885 13.2126 15.2885C12.4917 15.2885 12.2604 14.5948 12.4917 12.7007L13.2591 5.95301C13.2772 5.79528 13.1584 5.65627 13.0046 5.65627H9.91272C9.78351 5.65627 9.67498 5.75518 9.65818 5.88751L9.05996 10.5713C8.99665 11.0939 8.85452 11.6139 8.71239 12.1192C8.00176 14.6429 6.77819 15.2885 6.22131 15.2885C5.26906 15.2885 5.26777 14.3274 5.49905 12.5416L6.11019 8.5462C6.43579 6.36472 5.21867 5.56537 4.94217 5.41299C4.20699 5.00128 2.35547 4.93044 0.135719 6.19228C0.0168494 6.26045 -0.0322488 6.4115 0.0220176 6.54116L0.925166 8.69992C0.980724 8.83359 1.12802 8.89909 1.2611 8.8483C1.45749 8.77344 1.65518 8.70794 1.76759 8.69591C1.93814 8.6772 2.19526 8.67319 2.36193 8.83894C2.57383 9.05148 2.54928 9.45249 2.5299 9.61022L1.92909 13.4826C1.51693 16.6573 2.40199 18.8615 5.07784 18.8615C5.07784 18.8615 7.51853 18.9751 9.06254 16.6305C9.09614 16.5784 9.17366 16.5878 9.19175 16.6479C9.58841 17.9539 10.6401 18.8615 12.5718 18.8615C15.5112 18.8615 18.2904 17.2468 19.4158 12.6084C19.4248 12.5683 19.4765 12.5576 19.4972 12.5924C19.7957 13.0669 20.4766 13.6297 21.1769 13.9211C21.1975 13.9304 21.2118 13.9491 21.213 13.9732C21.2324 14.3956 21.5309 18.2212 25.9239 18.7759C30.4538 19.3467 34.1388 17.0088 36.3327 13.9625L37.1997 16.2563C37.1997 16.2563 38.0757 18.8495 40.0306 18.8495C42.4868 18.8495 44.9662 16.5503 46.3617 12.853C46.4288 12.6806 46.4909 12.5068 46.5477 12.3304C46.5593 12.293 46.6046 12.2836 46.6304 12.3117C47.0439 12.7595 47.5245 13.0896 48.0633 13.3463C48.0749 13.3516 48.0827 13.3637 48.0814 13.3784C48 14.3648 48.4651 18.2199 52.8206 18.7693C56.2937 19.2077 59.1776 18.014 61.3534 16.0518C61.3883 16.0197 61.4425 16.0491 61.4374 16.0972L61.1415 18.5647C61.1221 18.7238 61.2423 18.8628 61.396 18.8628H64.5693C64.6998 18.8628 64.8109 18.7612 64.8251 18.6262L65.3097 14.0601C65.5745 11.5524 66.373 10.2933 67.2891 9.43511C68.2439 8.57027 69.3577 8.44863 69.7285 8.43259H69.7298ZM24.9678 11.3025C25.1887 9.97914 25.9032 9.18247 26.7211 8.64245C28.0261 7.78161 29.3104 7.90192 29.636 8.44996C29.9474 8.97528 29.8505 10.0112 28.2057 10.8614C27.2069 11.3773 26.234 11.4549 25.0285 11.3827C24.9897 11.38 24.9613 11.3426 24.9678 11.3038V11.3025ZM51.8658 11.3025C52.0868 9.97914 52.8013 9.18247 53.6191 8.64245C54.9241 7.78161 56.2084 7.90058 56.534 8.44996C56.8454 8.97528 56.7485 10.0112 55.1037 10.8614C54.105 11.3773 53.132 11.4549 51.9265 11.3827C51.8878 11.38 51.8594 11.3426 51.8658 11.3038V11.3025ZM85.8366 11.3105C86.0575 9.98716 86.772 9.18916 87.5899 8.65047C88.8949 7.78963 90.1792 7.9086 90.5048 8.45798C90.8162 8.9833 90.7193 10.0192 89.0745 10.8694C88.0757 11.3853 87.1028 11.4629 85.896 11.3907C85.8573 11.388 85.8288 11.3506 85.8353 11.3118L85.8366 11.3105Z" fill="white"/>
</svg>
