<svg viewBox="0 0 70 24" fill="none" xmlns="http://www.w3.org/2000/svg">
<path fill-rule="evenodd" clip-rule="evenodd" d="M44.6504 6.77551C45.4603 6.77555 46.1806 6.92575 46.8105 7.22571C47.4403 7.51067 47.9649 7.90827 48.3848 8.41809C48.8197 8.92805 49.15 9.53543 49.375 10.2404C49.6 10.9303 49.7129 11.6804 49.7129 12.4904C49.7129 13.3153 49.5925 14.0803 49.3525 14.7853C49.1126 15.4752 48.7673 16.0826 48.3174 16.6075C47.8674 17.1175 47.3198 17.5234 46.6748 17.8234C46.045 18.1082 45.3402 18.2501 44.5605 18.2501C43.7657 18.2501 43.0826 18.1083 42.5127 17.8234C41.9429 17.5235 41.5155 17.1631 41.2305 16.7433V22.256H38.6426V7.02258H41.1621V8.50793C41.4321 8.02794 41.8678 7.62309 42.4678 7.29309C43.0678 6.94813 43.7954 6.77551 44.6504 6.77551ZM44.1553 9.0929C43.7203 9.0929 43.3229 9.17597 42.9629 9.34094C42.6029 9.50594 42.295 9.73821 42.04 10.0382C41.7851 10.3232 41.5826 10.6759 41.4326 11.0958C41.2827 11.5157 41.208 11.9805 41.208 12.4904C41.208 13.5404 41.485 14.3809 42.04 15.0109C42.595 15.6257 43.3004 15.9327 44.1553 15.9327C45.0252 15.9327 45.7305 15.6258 46.2705 15.0109C46.8255 14.3809 47.1025 13.5403 47.1025 12.4904C47.1025 11.4556 46.8328 10.6307 46.293 10.0157C45.753 9.40079 45.0402 9.09294 44.1553 9.0929Z" fill="white"/>
<path d="M32.3008 6.68567C33.0658 6.68567 33.7039 6.79758 34.2139 7.02258C34.7388 7.23257 35.1661 7.49571 35.4961 7.81067C35.826 8.12563 36.0658 8.46341 36.2158 8.82336C36.3807 9.16817 36.4862 9.47535 36.5312 9.74524L34.3262 10.3751C34.2962 10.2254 34.2438 10.0531 34.1689 9.85852C34.094 9.66363 33.9734 9.4834 33.8086 9.31848C33.6586 9.15353 33.4561 9.01819 33.2012 8.91321C32.9612 8.79321 32.6608 8.73352 32.3008 8.73352C31.8359 8.73355 31.4533 8.8604 31.1533 9.11536C30.8683 9.35536 30.7256 9.64829 30.7256 9.99329C30.7256 10.2932 30.8236 10.5405 31.0186 10.7355C31.2135 10.9304 31.4833 11.0657 31.8281 11.1407L33.4932 11.4777C34.5282 11.7027 35.308 12.1159 35.833 12.7159C36.3729 13.3009 36.6435 13.9979 36.6436 14.8077C36.6436 15.2277 36.553 15.6485 36.373 16.0685C36.208 16.4733 35.9533 16.8486 35.6084 17.1935C35.2785 17.5233 34.851 17.7931 34.3262 18.0031C33.8013 18.213 33.1937 18.3184 32.5039 18.3185C31.7089 18.3185 31.0335 18.2056 30.4785 17.9806C29.9235 17.7556 29.4664 17.4776 29.1064 17.1476C28.7466 16.8027 28.4759 16.4434 28.2959 16.0685C28.1159 15.6786 28.0105 15.3258 27.9805 15.0109L30.2539 14.381C30.299 14.8758 30.5014 15.3108 30.8613 15.6857C31.2363 16.0605 31.7766 16.2482 32.4814 16.2482C33.0212 16.2481 33.4264 16.1277 33.6963 15.8878C33.981 15.633 34.1229 15.3331 34.123 14.9884C34.123 14.6884 34.0186 14.4328 33.8086 14.2228C33.5986 14.0128 33.2758 13.8626 32.8408 13.7726L31.2207 13.4132C30.2458 13.2032 29.5106 12.8132 29.0156 12.2433C28.5206 11.6583 28.2734 10.9829 28.2734 10.2179C28.2735 9.73796 28.3789 9.28823 28.5889 8.86829C28.7988 8.43336 29.0834 8.05825 29.4434 7.74329C29.8033 7.41332 30.2232 7.15766 30.7031 6.97766C31.1981 6.78268 31.7308 6.68569 32.3008 6.68567Z" fill="white"/>
<path fill-rule="evenodd" clip-rule="evenodd" d="M56.6973 6.68567C57.5223 6.68567 58.2797 6.83586 58.9697 7.13586C59.6597 7.42085 60.2595 7.82575 60.7695 8.35071C61.2795 8.86066 61.6769 9.46806 61.9619 10.173C62.2469 10.8779 62.3896 11.6504 62.3896 12.4904C62.3896 13.3303 62.2469 14.1102 61.9619 14.8302C61.6769 15.5352 61.2795 16.1509 60.7695 16.6759C60.2596 17.1857 59.6596 17.5908 58.9697 17.8907C58.2798 18.1757 57.5222 18.3185 56.6973 18.3185C55.8873 18.3185 55.1298 18.1757 54.4248 17.8907C53.7349 17.5908 53.1349 17.1858 52.625 16.6759C52.13 16.1509 51.7401 15.5352 51.4551 14.8302C51.1701 14.1103 51.0273 13.3303 51.0273 12.4904C51.0274 11.6504 51.1701 10.8779 51.4551 10.173C51.7401 9.46804 52.13 8.86067 52.625 8.35071C53.135 7.82574 53.7349 7.42086 54.4248 7.13586C55.1298 6.83587 55.8873 6.68568 56.6973 6.68567ZM56.6973 9.04797C56.2924 9.04798 55.9023 9.12264 55.5273 9.27258C55.1673 9.40758 54.8446 9.6259 54.5596 9.9259C54.2897 10.2109 54.0647 10.5711 53.8848 11.006C53.7199 11.4258 53.6377 11.9206 53.6377 12.4904C53.6377 13.0604 53.7198 13.5632 53.8848 13.9982C54.0648 14.4331 54.2896 14.8007 54.5596 15.1007C54.8446 15.3857 55.1673 15.6031 55.5273 15.7531C55.9023 15.903 56.2923 15.9777 56.6973 15.9777C57.1022 15.9777 57.4848 15.903 57.8447 15.7531C58.2197 15.6031 58.55 15.3857 58.835 15.1007C59.1199 14.8007 59.3448 14.4331 59.5098 13.9982C59.6748 13.5632 59.7578 13.0604 59.7578 12.4904C59.7578 11.9206 59.6747 11.4259 59.5098 11.006C59.3448 10.5711 59.1198 10.2109 58.835 9.9259C58.55 9.6259 58.2197 9.40758 57.8447 9.27258C57.4848 9.12266 57.1022 9.04797 56.6973 9.04797Z" fill="white"/>
<path d="M67.6348 7.02258H69.9072V9.34094H67.6348V14.4259C67.6348 14.9057 67.7477 15.2586 67.9727 15.4835C68.1977 15.6933 68.5505 15.798 69.0303 15.798C69.2102 15.798 69.3904 15.7905 69.5703 15.7755C69.7498 15.7456 69.8696 15.7231 69.9297 15.7081V17.8683C69.8545 17.8983 69.6892 17.9431 69.4346 18.0031C69.1796 18.078 68.8118 18.1154 68.332 18.1154C67.3123 18.1153 66.5097 17.8307 65.9248 17.2609C65.3398 16.6909 65.0479 15.8877 65.0479 14.8527V9.34094H63.0225V7.02258H63.585C64.1697 7.02258 64.5972 6.85819 64.8672 6.52844C65.1372 6.19844 65.2725 5.79262 65.2725 5.31262V3.67004H67.6348V7.02258Z" fill="white"/>
<g clip-path="url(#clip0_71878_33094)">
<path d="M12 0C20.6399 1.39084e-07 24 3.3601 24 12C24 20.6399 20.6399 24 12 24C3.3601 24 6.375e-08 20.6399 0 12C0 3.3601 3.3601 0 12 0ZM12.9736 5.3125L5.62207 6.11816C5.11084 6.17462 4.70833 6.58093 4.65723 7.09277L3.7041 16.6729C3.63545 17.3631 4.21952 17.9418 4.90918 17.8682L10.7314 17.2441C11.5386 17.1558 12.2547 17.7147 12.3936 18.4824C12.4161 18.6073 12.5251 18.7055 12.6514 18.6934L19.29 18.0391C19.8299 17.9858 20.192 17.4595 20.0479 16.9365L18.7275 12.1562L20.8613 7.50781C21.1431 6.89401 20.6526 6.2051 19.9805 6.27148L14.6309 6.80078C14.4838 6.81509 14.3555 6.69955 14.3555 6.55176C14.3553 5.80972 13.7113 5.23194 12.9736 5.3125ZM7.05566 9.65137C8.06161 9.11517 8.90127 9.14506 9.23438 9.32422C9.35951 9.38879 9.91074 9.7293 9.76367 10.6562L9.48633 12.3555C9.38149 13.1147 9.38308 13.5232 9.81445 13.5234C10.0673 13.5233 10.6226 13.2484 10.9443 12.1758C11.0087 11.9606 11.0729 11.7397 11.1016 11.5176L11.373 9.52637C11.3808 9.47076 11.4301 9.42896 11.4883 9.42871H12.8906C12.9604 9.42882 13.0137 9.48784 13.0059 9.55469L12.6592 12.4238C12.5544 13.2283 12.6592 13.5232 12.9854 13.5234C13.3586 13.5233 14.0404 13.217 14.2881 11.5068C14.2922 11.4807 14.4627 10.3753 14.4229 9.54688C14.4201 9.48178 14.4724 9.42756 14.5391 9.42773H15.834C15.8966 9.42773 15.9474 9.47553 15.9502 9.53613C15.9662 9.89857 16.1374 11.0442 16.9521 11.5791C16.9957 11.6077 17.0164 11.6591 17.001 11.708C16.9252 11.9474 16.7209 12.5524 16.6357 12.8047C16.6143 12.8679 16.5416 12.9003 16.4785 12.874C16.2452 12.7759 15.9616 12.5891 15.8193 12.4678C15.8008 12.4524 15.772 12.4623 15.7656 12.4854C15.2378 14.3747 14.0005 15.0391 12.6924 15.0391C11.8192 15.0388 11.3418 14.6552 11.1611 14.1025C11.1517 14.0757 11.1165 14.0702 11.0996 14.0938C10.4003 15.0847 9.29805 15.0392 9.29395 15.0391C8.08173 15.0386 7.68061 14.1012 7.86719 12.752L8.13965 11.1055C8.14848 11.0381 8.15925 10.8674 8.06348 10.7773C7.98816 10.7074 7.8722 10.7091 7.79492 10.7168C7.74349 10.7218 7.65349 10.7501 7.56445 10.7822C7.50524 10.8036 7.43842 10.7748 7.41309 10.7188L7.00391 9.80078C6.97976 9.74617 7.00201 9.67997 7.05566 9.65137Z" fill="white"/>
</g>
<defs>
<clipPath id="clip0_71878_33094"><rect width="70" height="24" fill="white"/>
</clipPath>
</defs>
</svg>
