<svg viewBox="0 0 142 24" fill="none" xmlns="http://www.w3.org/2000/svg">
<path d="M64.2813 9.09091C64.3615 9.09091 64.4416 9.09091 64.5218 9.10174C64.725 9.13422 64.9388 9.23709 64.9602 9.49695C65.0244 10.2657 65.1848 11.6084 66.81 12.48C68.8737 13.5899 71.0656 13.7848 71.0282 14.6781C70.9747 15.8366 68.3765 15.8312 65.698 14.6997C65.5911 14.6564 65.4681 14.6943 65.404 14.7917L64.1476 17.1197C64.0728 17.2334 64.1155 17.3904 64.2331 17.4554C64.8533 17.8073 67.2217 18.7331 69.8734 18.6248C73.1025 18.4894 74.7064 16.5025 74.8026 14.1854C74.8026 14.1583 74.824 14.1421 74.8508 14.1421C75.1448 14.1691 75.503 14.1637 75.6313 14.1583C75.6527 14.1583 75.6741 14.1746 75.6741 14.1962C75.8238 15.528 76.6792 18.0184 80.0259 18.4299C83.0305 18.798 85.5539 17.8777 87.516 16.2968C87.6015 16.2318 87.6229 16.1127 87.5748 16.0153L86.5483 13.9959C86.4842 13.8714 86.3238 13.8335 86.2169 13.9201C84.7627 15.057 82.977 15.6147 81.8223 15.5822C79.5394 15.5172 79.224 14.5373 79.1812 14.272C79.1759 14.2395 79.2026 14.207 79.24 14.207C83.9554 14.4453 86.5055 11.7816 86.4788 9.44281C86.4681 8.34921 85.7731 6.45976 83.1267 6.14034C82.8808 6.10785 82.6135 6.0862 82.3141 6.0862C81.9024 6.0862 81.4854 6.13492 81.0738 6.22155C81.0684 6.22155 81.0577 6.22155 81.0524 6.22155C81.0203 6.22696 80.9882 6.23779 80.9562 6.2432C79.9992 6.46517 79.1171 6.91452 78.3579 7.54795C77.1817 8.51704 76.2675 9.92465 75.92 11.695C75.92 11.7167 75.8986 11.7383 75.8719 11.7383C75.1288 11.7762 73.9526 11.6138 73.14 11.4839C72.862 11.446 72.5679 11.3918 72.2739 11.3323C72.2632 11.3323 72.2525 11.3323 72.2525 11.3323C71.4452 11.159 70.5898 10.9046 69.7718 10.5148C67.3393 9.35619 69.7184 7.57502 72.6962 9.35078C72.8032 9.41574 72.9422 9.38326 73.0117 9.27498L74.2627 7.37471C74.3375 7.26101 74.3054 7.10401 74.1878 7.03363C73.3485 6.53555 69.7398 4.93304 66.516 7.09318C66.516 7.09318 65.4895 6.16741 63.9712 6.16741C61.822 6.16741 61.0361 7.4505 61.0361 7.4505L61.2179 6.36231C61.2446 6.21613 61.1323 6.08078 60.9826 6.08078H58.0957C57.9727 6.08078 57.8658 6.17823 57.8604 6.30275C57.807 7.14732 57.5557 10.1683 56.6896 11.7979C55.3691 14.3478 52.2308 15.6201 50.4987 15.5713C48.2158 15.5064 47.9004 14.5265 47.8576 14.2612C47.8523 14.2287 47.879 14.1962 47.9164 14.1962C52.6318 14.4344 55.182 11.7708 55.1552 9.43199C55.1445 8.23551 54.3159 6.0862 51.0119 6.08078C48.2105 6.08078 45.7993 7.95941 44.8477 10.8342C44.837 10.8667 44.7996 10.8775 44.7782 10.8558C43.7998 9.93006 43.7303 7.19063 43.7303 6.32441C43.7303 6.18906 43.6234 6.0862 43.4951 6.0862H40.9289C40.8006 6.0862 40.6937 6.19448 40.6937 6.32441C40.6937 6.95242 40.6616 8.582 40.3782 9.95172C39.5763 13.8227 38.197 14.9704 37.5447 14.9C37.117 14.8567 36.962 14.2287 36.8925 14.0067C36.6359 13.173 35.4437 8.01896 35.048 6.26486C35.0267 6.15658 34.9304 6.08078 34.8235 6.08078H31.5997C31.434 6.08078 31.3217 6.24862 31.3805 6.40562L31.5088 6.75211C33.6366 12.6857 28.3332 15.658 25.6975 15.5822C23.4146 15.5172 23.0992 14.5373 23.0564 14.272C23.0511 14.2395 23.0778 14.207 23.1153 14.207C27.8306 14.4453 30.3808 11.7816 30.3541 9.44281C30.3434 8.24634 29.5147 6.0862 26.2107 6.08078C23.297 6.08078 20.8057 8.12182 19.9396 11.1969C19.9289 11.2348 19.8861 11.2511 19.854 11.224C18.3999 9.96796 18.2502 7.6075 18.2128 6.81707C18.2074 6.68714 18.1005 6.58969 17.9775 6.58969H15.3418C15.2082 6.58969 15.1012 6.70338 15.1066 6.83873C15.1921 8.6199 14.8339 11.0074 14.8339 11.0074C14.3314 14.6402 12.9414 15.2898 12.1822 15.2898C11.5193 15.2898 11.3054 14.6618 11.5193 12.9564L12.225 6.8658C12.241 6.72504 12.1341 6.60052 11.9897 6.60052H9.1402C9.02258 6.60052 8.921 6.68714 8.90496 6.81166L8.3543 11.0399C8.29549 11.5109 8.16718 11.9819 8.03353 12.4367C7.37594 14.7159 6.24788 15.3006 5.73465 15.3006C4.85786 15.3006 4.85252 14.4344 5.06637 12.8211L5.63307 9.21543C5.93246 7.24477 4.80975 6.52472 4.55847 6.38938C3.8795 6.0104 2.17405 5.94544 0.126446 7.08236C0.0141751 7.14191 -0.0285948 7.28267 0.0195213 7.39636L0.853534 9.34536C0.906996 9.46447 1.04065 9.52402 1.16362 9.48071C1.34539 9.41033 1.52716 9.35619 1.62874 9.34536C1.78378 9.32912 2.02436 9.32371 2.17405 9.4753C2.37186 9.66478 2.34513 10.0275 2.32909 10.1737L1.77309 13.6711C1.3935 16.535 2.21148 18.5273 4.67609 18.5273C4.67609 18.5273 6.92686 18.6302 8.34895 16.5134C8.38103 16.4646 8.45053 16.4755 8.46657 16.5296C8.83012 17.7098 9.80313 18.5273 11.5834 18.5273C14.294 18.5273 16.8548 17.071 17.8973 12.8806C17.908 12.8427 17.9508 12.8373 17.9722 12.8644C18.2448 13.2921 18.8757 13.801 19.5226 14.0663C19.544 14.0717 19.5547 14.0933 19.5547 14.115C19.5707 14.494 19.8487 17.948 23.9011 18.4515C28.0766 18.9659 31.4768 16.8544 33.503 14.1042L34.3049 16.1777C34.3049 16.1777 35.1122 18.5165 36.9139 18.5165C39.1807 18.5165 41.4635 16.443 42.752 13.1026C42.8161 12.9456 42.8696 12.7886 42.923 12.6316C42.9337 12.5991 42.9765 12.5883 42.9979 12.6154C43.3775 13.0214 43.8212 13.3192 44.3184 13.552C44.3291 13.552 44.3345 13.5682 44.3345 13.579C44.2596 14.4669 44.6873 17.948 48.7077 18.4461C51.9101 18.8413 54.5725 17.764 56.5773 15.9936C56.6094 15.9666 56.6575 15.9936 56.6522 16.0369L56.3795 18.262C56.3635 18.4028 56.4704 18.5327 56.6148 18.5327H59.5391C59.6621 18.5327 59.7637 18.4407 59.7744 18.3216L60.2235 14.2016C60.4694 11.9386 61.2072 10.8017 62.0519 10.0275C62.934 9.24791 63.9605 9.13422 64.3026 9.12339L64.2813 9.09091ZM22.9976 11.6788C23.2008 10.4823 23.8584 9.76223 24.6175 9.27498C25.8204 8.5008 27.0073 8.60366 27.3067 9.10174C27.5954 9.57816 27.5045 10.5094 25.9862 11.2781C25.0666 11.7437 24.1685 11.8141 23.0564 11.7491C23.019 11.7491 22.9923 11.7112 22.9976 11.6788ZM47.8042 11.6788C48.0073 10.4823 48.6649 9.76223 49.4241 9.27498C50.627 8.49538 51.8138 8.60366 52.1132 9.10174C52.4019 9.57816 52.311 10.5094 50.7927 11.2781C49.8732 11.7437 48.975 11.8141 47.863 11.7491C47.8255 11.7491 47.7988 11.7112 47.8042 11.6788ZM79.1331 11.6842C79.3363 10.4877 79.9938 9.76765 80.753 9.2804C81.9559 8.5008 83.1428 8.60907 83.4422 9.10715C83.7309 9.58357 83.64 10.5148 82.1216 11.2835C81.2021 11.7491 80.3039 11.8195 79.1919 11.7545C79.1545 11.7545 79.1277 11.7166 79.1384 11.6842H79.1331Z" fill="white"/>
<path d="M132.328 22.8382H129.601V6.78248H132.257V8.34774C132.826 7.35167 134.155 6.52161 135.933 6.52161C139.348 6.52161 141.269 9.13037 141.269 12.5455C141.269 16.008 139.159 18.6168 135.838 18.6168C134.178 18.6168 132.921 17.9053 132.328 17.0278V22.8382ZM138.518 12.5455C138.518 10.3873 137.261 8.96436 135.411 8.96436C133.609 8.96436 132.305 10.3873 132.305 12.5455C132.305 14.7511 133.609 16.174 135.411 16.174C137.238 16.174 138.518 14.7511 138.518 12.5455Z" fill="white"/>
<path d="M121.397 16.2215C123.105 16.2215 124.623 14.9645 124.623 12.5455C124.623 10.1502 123.105 8.91694 121.397 8.91694C119.713 8.91694 118.172 10.1502 118.172 12.5455C118.172 14.9408 119.713 16.2215 121.397 16.2215ZM121.397 6.42676C124.86 6.42676 127.397 9.0118 127.397 12.5455C127.397 16.1029 124.86 18.6879 121.397 18.6879C117.959 18.6879 115.421 16.1029 115.421 12.5455C115.421 9.0118 117.959 6.42676 121.397 6.42676Z" fill="white"/>
<path d="M105.81 11.5494V18.3321H103.059V1.16174H105.81V7.89709C106.592 6.8773 107.897 6.45041 109.106 6.45041C111.952 6.45041 113.328 8.48999 113.328 11.0276V18.3321H110.577V11.5019C110.577 10.079 109.936 8.9406 108.205 8.9406C106.687 8.9406 105.857 10.079 105.81 11.5494Z" fill="white"/>
<path d="M91.7021 15.2017L94.0975 14.5376C94.1923 15.5811 94.975 16.5061 96.4454 16.5061C97.5837 16.5061 98.1766 15.8894 98.1766 15.178C98.1766 14.5614 97.7497 14.087 96.8248 13.8973L95.1173 13.5178C93.0777 13.0672 92.0105 11.7391 92.0105 10.1502C92.0105 8.13431 93.8603 6.42676 96.2556 6.42676C99.481 6.42676 100.525 8.51377 100.714 9.65214L98.3901 10.3162C98.2952 9.65214 97.7972 8.58492 96.2556 8.58492C95.2833 8.58492 94.5955 9.20153 94.5955 9.91301C94.5955 10.5296 95.0461 10.9802 95.7576 11.1225L97.5126 11.4783C99.6944 11.9526 100.833 13.2807 100.833 14.9882C100.833 16.7432 99.4099 18.6879 96.4691 18.6879C93.1251 18.6879 91.8444 16.5061 91.7021 15.2017Z" fill="white"/>
</svg>
