<svg viewBox="0 0 137 23" fill="none" xmlns="http://www.w3.org/2000/svg">
<path d="M64.8716 8.35507C64.9518 8.35507 65.032 8.35507 65.1122 8.3659C65.3153 8.39838 65.5292 8.50125 65.5506 8.76111C65.6147 9.52989 65.7751 10.8725 67.4004 11.7442C69.464 12.854 71.656 13.0489 71.6185 13.9422C71.5651 15.1008 68.9668 15.0954 66.2883 13.9639C66.1814 13.9206 66.0584 13.9585 65.9943 14.0559L64.7379 16.3839C64.6631 16.4976 64.7058 16.6546 64.8235 16.7195C65.4436 17.0714 67.812 17.9972 70.4637 17.8889C73.6929 17.7536 75.2967 15.7667 75.393 13.4495C75.393 13.4225 75.4144 13.4062 75.4411 13.4062C75.7351 13.4333 76.0933 13.4279 76.2216 13.4225C76.243 13.4225 76.2644 13.4387 76.2644 13.4604C76.4141 14.7922 77.2695 17.2826 80.6162 17.694C83.6208 18.0622 86.1442 17.1418 88.1063 15.561C88.1919 15.496 88.2132 15.3769 88.1651 15.2794L87.1386 13.2601C87.0745 13.1355 86.9141 13.0976 86.8072 13.1843C85.353 14.3212 83.5674 14.8788 82.4126 14.8463C80.1297 14.7814 79.8143 13.8014 79.7715 13.5362C79.7662 13.5037 79.7929 13.4712 79.8304 13.4712C84.5457 13.7094 87.0959 11.0458 87.0691 8.70697C87.0585 7.61337 86.3634 5.72392 83.7171 5.4045C83.4711 5.37201 83.2038 5.35036 82.9044 5.35036C82.4928 5.35036 82.0758 5.39908 81.6641 5.48571C81.6588 5.48571 81.6481 5.48571 81.6427 5.48571C81.6106 5.49112 81.5786 5.50195 81.5465 5.50736C80.5895 5.72933 79.7074 6.17868 78.9482 6.81211C77.772 7.7812 76.8578 9.18881 76.5103 10.9592C76.5103 10.9808 76.489 11.0025 76.4622 11.0025C75.7191 11.0404 74.5429 10.8779 73.7303 10.748C73.4523 10.7101 73.1582 10.656 72.8642 10.5964C72.8535 10.5964 72.8428 10.5964 72.8428 10.5964C72.0355 10.4232 71.1801 10.1687 70.3622 9.77892C67.9296 8.62035 70.3087 6.83918 73.2866 8.61494C73.3935 8.6799 73.5325 8.64742 73.602 8.53914L74.853 6.63887C74.9279 6.52517 74.8958 6.36817 74.7782 6.29779C73.9388 5.79971 70.3301 4.1972 67.1063 6.35734C67.1063 6.35734 66.0798 5.43157 64.5615 5.43157C62.4123 5.43157 61.6264 6.71466 61.6264 6.71466L61.8082 5.62647C61.8349 5.48029 61.7227 5.34494 61.573 5.34494H58.686C58.563 5.34494 58.4561 5.44239 58.4508 5.56691C58.3973 6.41148 58.146 9.43244 57.2799 11.062C55.9594 13.612 52.8212 14.8842 51.089 14.8355C48.8062 14.7705 48.4907 13.7906 48.448 13.5253C48.4426 13.4929 48.4693 13.4604 48.5068 13.4604C53.2221 13.6986 55.7723 11.0349 55.7456 8.69615C55.7349 7.49968 54.9062 5.35036 51.6022 5.34494C48.8008 5.34494 46.3897 7.22357 45.438 10.0983C45.4273 10.1308 45.3899 10.1417 45.3685 10.12C44.3902 9.19422 44.3207 6.45479 44.3207 5.58857C44.3207 5.45322 44.2137 5.35036 44.0854 5.35036H41.5192C41.3909 5.35036 41.284 5.45864 41.284 5.58857C41.284 6.21658 41.2519 7.84616 40.9686 9.21588C40.1666 13.0868 38.7873 14.2346 38.1351 14.1642C37.7074 14.1209 37.5523 13.4929 37.4828 13.2709C37.2262 12.4371 36.034 7.28312 35.6384 5.52902C35.617 5.42074 35.5208 5.34494 35.4138 5.34494H32.1901C32.0243 5.34494 31.9121 5.51278 31.9709 5.66978L32.0992 6.01627C34.227 11.9499 28.9235 14.9221 26.2878 14.8463C24.005 14.7814 23.6895 13.8014 23.6468 13.5362C23.6414 13.5037 23.6682 13.4712 23.7056 13.4712C28.421 13.7094 30.9711 11.0458 30.9444 8.70697C30.9337 7.5105 30.105 5.35036 26.8011 5.34494C23.8874 5.34494 21.396 7.38598 20.5299 10.4611C20.5192 10.499 20.4765 10.5152 20.4444 10.4881C18.9902 9.23212 18.8405 6.87166 18.8031 6.08123C18.7977 5.9513 18.6908 5.85385 18.5679 5.85385H15.9322C15.7985 5.85385 15.6916 5.96754 15.6969 6.10289C15.7825 7.88406 15.4243 10.2716 15.4243 10.2716C14.9217 13.9043 13.5317 14.554 12.7725 14.554C12.1096 14.554 11.8958 13.926 12.1096 12.2206L12.8153 6.12996C12.8313 5.9892 12.7244 5.86468 12.5801 5.86468H9.73053C9.61291 5.86468 9.51133 5.9513 9.49529 6.07582L8.94463 10.3041C8.88582 10.7751 8.75751 11.2461 8.62386 11.7009C7.96627 13.9801 6.83822 14.5648 6.32498 14.5648C5.44819 14.5648 5.44285 13.6986 5.6567 12.0852L6.2234 8.47959C6.52279 6.50893 5.40008 5.78888 5.14881 5.65354C4.46983 5.27456 2.76439 5.2096 0.716778 6.34652C0.604507 6.40607 0.561737 6.54683 0.609853 6.66052L1.44387 8.60952C1.49733 8.72863 1.63098 8.78818 1.75395 8.74487C1.93572 8.67449 2.11749 8.62035 2.21907 8.60952C2.37411 8.59328 2.61469 8.58787 2.76439 8.73946C2.9622 8.92894 2.93547 9.29167 2.91943 9.43785L2.36342 12.9352C1.98384 15.7992 2.80181 17.7915 5.26642 17.7915C5.26642 17.7915 7.51719 17.8944 8.93929 15.7775C8.97136 15.7288 9.04086 15.7396 9.0569 15.7938C9.42045 16.974 10.3935 17.7915 12.1738 17.7915C14.8843 17.7915 17.4451 16.3352 18.4877 12.1448C18.4984 12.1069 18.5411 12.1015 18.5625 12.1286C18.8352 12.5563 19.466 13.0652 20.1129 13.3304C20.1343 13.3359 20.145 13.3575 20.145 13.3792C20.161 13.7581 20.439 17.2122 24.4915 17.7157C28.6669 18.23 32.0671 16.1186 34.0933 13.3683L34.8953 15.4419C34.8953 15.4419 35.7025 17.7807 37.5042 17.7807C39.771 17.7807 42.0539 15.7071 43.3423 12.3668C43.4065 12.2098 43.4599 12.0528 43.5134 11.8958C43.5241 11.8633 43.5668 11.8524 43.5882 11.8795C43.9678 12.2856 44.4115 12.5833 44.9087 12.8161C44.9194 12.8161 44.9248 12.8324 44.9248 12.8432C44.8499 13.7311 45.2776 17.2122 49.298 17.7103C52.5004 18.1055 55.1628 17.0281 57.1677 15.2578C57.1997 15.2307 57.2479 15.2578 57.2425 15.3011L56.9699 17.5262C56.9538 17.667 57.0607 17.7969 57.2051 17.7969H60.1295C60.2524 17.7969 60.354 17.7049 60.3647 17.5858L60.8138 13.4658C61.0597 11.2028 61.7975 10.0659 62.6422 9.29167C63.5243 8.51207 64.5508 8.39838 64.893 8.38755L64.8716 8.35507ZM23.588 10.9429C23.7911 9.74644 24.4487 9.02639 25.2079 8.53914C26.4108 7.76496 27.5976 7.86782 27.897 8.3659C28.1857 8.84232 28.0948 9.77351 26.5765 10.5423C25.657 11.0079 24.7588 11.0783 23.6468 11.0133C23.6094 11.0133 23.5826 10.9754 23.588 10.9429ZM48.3945 10.9429C48.5977 9.74644 49.2552 9.02639 50.0144 8.53914C51.2173 7.75954 52.4042 7.86782 52.7036 8.3659C52.9923 8.84232 52.9014 9.77351 51.383 10.5423C50.4635 11.0079 49.5653 11.0783 48.4533 11.0133C48.4159 11.0133 48.3891 10.9754 48.3945 10.9429ZM79.7234 10.9483C79.9266 9.75186 80.5842 9.03181 81.3433 8.54456C82.5462 7.76496 83.7331 7.87323 84.0325 8.37131C84.3212 8.84773 84.2303 9.77893 82.712 10.5477C81.7924 11.0133 80.8942 11.0837 79.7822 11.0187C79.7448 11.0187 79.7181 10.9808 79.7288 10.9483H79.7234Z" fill="currentColor"/>
<path d="M109.981 5.6825C110.835 5.6825 111.594 5.84089 112.258 6.1571C112.922 6.45744 113.475 6.87662 113.917 7.41394C114.376 7.95146 114.724 8.59181 114.961 9.33484C115.199 10.0621 115.317 10.8531 115.317 11.7069C115.317 12.5764 115.191 13.3828 114.938 14.1259C114.685 14.853 114.321 15.4934 113.847 16.0468C113.373 16.5842 112.795 17.0108 112.116 17.327C111.452 17.6274 110.708 17.7782 109.886 17.7782C109.048 17.7782 108.329 17.6274 107.728 17.327C107.127 17.0109 106.677 16.6318 106.376 16.1893V21.9989H103.649V5.94324H106.305V7.50867C106.59 7.00292 107.048 6.57614 107.68 6.22839C108.313 5.86477 109.08 5.68251 109.981 5.6825ZM96.8462 5.58777C97.6524 5.58779 98.3243 5.70614 98.8618 5.94324C99.415 6.16452 99.8656 6.44143 100.213 6.77332C100.561 7.10525 100.814 7.46136 100.972 7.8407C101.146 8.20434 101.257 8.52876 101.304 8.81335L98.98 9.47742C98.9484 9.31931 98.893 9.13706 98.814 8.93152C98.7349 8.72614 98.6089 8.53598 98.4351 8.36218C98.277 8.18836 98.0631 8.04606 97.7944 7.93542C97.5416 7.80906 97.2254 7.746 96.8462 7.74597C96.3561 7.74597 95.9524 7.88051 95.6362 8.14929C95.3359 8.40223 95.186 8.71054 95.186 9.0741C95.186 9.39031 95.2891 9.65078 95.4946 9.85632C95.7002 10.0619 95.9845 10.205 96.3481 10.2841L98.103 10.6395C99.1939 10.8767 100.016 11.3118 100.57 11.9442C101.139 12.5607 101.423 13.2958 101.423 14.1493C101.423 14.592 101.328 15.0347 101.138 15.4774C100.964 15.9042 100.696 16.2994 100.333 16.663C99.9847 17.0108 99.5334 17.2961 98.98 17.5175C98.4267 17.7387 97.7862 17.8495 97.0591 17.8495C96.2213 17.8495 95.5102 17.7301 94.9253 17.493C94.3403 17.2559 93.8575 16.9639 93.478 16.6161C93.0986 16.2524 92.8142 15.8727 92.6245 15.4774C92.4349 15.0665 92.3241 14.6951 92.2925 14.3632L94.688 13.6991C94.7355 14.2207 94.9492 14.6789 95.3286 15.0741C95.7239 15.4693 96.2927 15.6669 97.0356 15.6669C97.6046 15.6669 98.0313 15.5407 98.3159 15.288C98.6163 15.0192 98.7671 14.7024 98.7671 14.3387C98.767 14.0228 98.6562 13.7543 98.4351 13.5331C98.2138 13.3118 97.8738 13.1533 97.4155 13.0585L95.7075 12.6786C94.68 12.4573 93.905 12.0468 93.3833 11.4462C92.8616 10.8296 92.6011 10.1177 92.6011 9.3114C92.6011 8.80548 92.7118 8.33124 92.9331 7.88855C93.1545 7.43004 93.455 7.03503 93.8345 6.703C94.2139 6.35518 94.6567 6.08609 95.1626 5.89636C95.6842 5.69092 96.2455 5.58777 96.8462 5.58777ZM122.798 5.58777C123.668 5.58778 124.467 5.74618 125.194 6.06238C125.921 6.36271 126.553 6.78953 127.09 7.34265C127.628 7.88018 128.048 8.52051 128.348 9.26355C128.649 10.0067 128.798 10.8215 128.798 11.7069C128.798 12.592 128.648 13.414 128.348 14.1727C128.048 14.9158 127.628 15.5647 127.09 16.118C126.553 16.6554 125.921 17.0822 125.194 17.3983C124.467 17.6987 123.668 17.8495 122.798 17.8495C121.945 17.8495 121.146 17.6987 120.403 17.3983C119.676 17.0821 119.043 16.6556 118.505 16.118C117.984 15.5647 117.572 14.9158 117.272 14.1727C116.972 13.414 116.822 12.592 116.822 11.7069C116.822 10.8215 116.972 10.0067 117.272 9.26355C117.572 8.52051 117.984 7.88018 118.505 7.34265C119.043 6.78931 119.676 6.36278 120.403 6.06238C121.146 5.74616 121.945 5.58777 122.798 5.58777ZM134.445 5.94324H136.84V8.3866H134.445V13.746C134.445 14.2519 134.564 14.624 134.801 14.8612C135.038 15.0824 135.41 15.1932 135.916 15.1932C136.105 15.1932 136.295 15.1846 136.485 15.1688C136.675 15.1372 136.802 15.1143 136.865 15.0985V17.3749C136.786 17.4065 136.611 17.4542 136.342 17.5175C136.074 17.5964 135.686 17.6356 135.18 17.6356C134.105 17.6356 133.26 17.335 132.643 16.7343C132.027 16.1335 131.718 15.2879 131.718 14.1971V8.3866H129.583V5.94324H130.176C130.793 5.94324 131.243 5.76955 131.528 5.42175C131.812 5.07396 131.956 4.64734 131.956 4.14148V2.41003H134.445V5.94324ZM122.798 8.078C122.371 8.078 121.96 8.1572 121.565 8.31531C121.186 8.45757 120.846 8.68672 120.545 9.00281C120.261 9.30321 120.023 9.68297 119.833 10.1415C119.66 10.5841 119.573 11.1062 119.573 11.7069C119.573 12.3076 119.66 12.8373 119.833 13.2958C120.023 13.7543 120.261 14.1417 120.545 14.4579C120.846 14.7582 121.186 14.9873 121.565 15.1454C121.96 15.3035 122.371 15.3827 122.798 15.3827C123.225 15.3827 123.628 15.3034 124.007 15.1454C124.403 14.9873 124.751 14.7582 125.051 14.4579C125.352 14.1417 125.589 13.7543 125.763 13.2958C125.937 12.8373 126.024 12.3076 126.024 11.7069C126.024 11.1062 125.937 10.5841 125.763 10.1415C125.589 9.68297 125.352 9.30321 125.051 9.00281C124.751 8.68664 124.403 8.45759 124.007 8.31531C123.628 8.1573 123.225 8.07802 122.798 8.078ZM109.459 8.12585C109.001 8.12585 108.582 8.21271 108.203 8.3866C107.823 8.56051 107.499 8.80573 107.23 9.12195C106.961 9.42231 106.747 9.79363 106.589 10.2362C106.431 10.6789 106.353 11.1694 106.353 11.7069C106.353 12.8135 106.645 13.6992 107.23 14.3632C107.815 15.0113 108.558 15.3348 109.459 15.3348C110.376 15.3348 111.12 15.0113 111.689 14.3632C112.274 13.6992 112.566 12.8135 112.566 11.7069C112.566 10.616 112.282 9.74577 111.712 9.09753C111.143 8.44943 110.392 8.12588 109.459 8.12585Z" fill="currentColor"/>
</svg>
