<svg viewBox="0 0 151 24" fill="none" xmlns="http://www.w3.org/2000/svg">
<path d="M64.8037 8.5665C64.8839 8.5665 64.9641 8.5665 65.0443 8.57732C65.2475 8.60981 65.4613 8.71267 65.4827 8.97254C65.5468 9.74131 65.7072 11.084 67.3325 11.9556C69.3961 13.0654 71.5881 13.2603 71.5507 14.1536C71.4972 15.3122 68.8989 15.3068 66.2205 14.1753C66.1135 14.132 65.9906 14.1699 65.9264 14.2673L64.6701 16.5953C64.5952 16.709 64.638 16.866 64.7556 16.931C65.3758 17.2829 67.7441 18.2086 70.3959 18.1004C73.625 17.965 75.2289 15.9781 75.3251 13.661C75.3251 13.6339 75.3465 13.6177 75.3732 13.6177C75.6673 13.6447 76.0255 13.6393 76.1538 13.6339C76.1751 13.6339 76.1965 13.6501 76.1965 13.6718C76.3462 15.0036 77.2016 17.494 80.5484 17.9055C83.553 18.2736 86.0764 17.3532 88.0384 15.7724C88.124 15.7074 88.1454 15.5883 88.0973 15.4909L87.0708 13.4715C87.0066 13.347 86.8462 13.3091 86.7393 13.3957C85.2851 14.5326 83.4995 15.0902 82.3447 15.0578C80.0619 14.9928 79.7464 14.0129 79.7037 13.7476C79.6983 13.7151 79.7251 13.6826 79.7625 13.6826C84.4779 13.9208 87.028 11.2572 87.0013 8.9184C86.9906 7.82479 86.2956 5.93534 83.6492 5.61592C83.4033 5.58344 83.1359 5.56178 82.8366 5.56178C82.4249 5.56178 82.0079 5.61051 81.5962 5.69713C81.5909 5.69713 81.5802 5.69713 81.5748 5.69713C81.5428 5.70255 81.5107 5.71337 81.4786 5.71879C80.5216 5.94076 79.6395 6.39011 78.8803 7.02354C77.7042 7.99262 76.79 9.40024 76.4425 11.1706C76.4425 11.1922 76.4211 11.2139 76.3943 11.2139C75.6512 11.2518 74.475 11.0894 73.6624 10.9594C73.3844 10.9215 73.0904 10.8674 72.7963 10.8078C72.7856 10.8078 72.7749 10.8078 72.7749 10.8078C71.9677 10.6346 71.1123 10.3802 70.2943 9.99035C67.8618 8.83178 70.2408 7.05061 73.2187 8.82636C73.3256 8.89133 73.4646 8.85885 73.5341 8.75057L74.7851 6.85029C74.86 6.7366 74.8279 6.5796 74.7103 6.50922C73.8709 6.01114 70.2622 4.40863 67.0384 6.56877C67.0384 6.56877 66.012 5.64299 64.4936 5.64299C62.3444 5.64299 61.5585 6.92609 61.5585 6.92609L61.7403 5.83789C61.767 5.69172 61.6548 5.55637 61.5051 5.55637H58.6181C58.4952 5.55637 58.3882 5.65382 58.3829 5.77834C58.3294 6.62291 58.0781 9.64386 57.2121 11.2734C55.8915 13.8234 52.7533 15.0957 51.0211 15.0469C48.7383 14.982 48.4229 14.002 48.3801 13.7368C48.3747 13.7043 48.4015 13.6718 48.4389 13.6718C53.1543 13.91 55.7044 11.2464 55.6777 8.90757C55.667 7.7111 54.8383 5.56178 51.5344 5.55637C48.7329 5.55637 46.3218 7.43499 45.3702 10.3098C45.3595 10.3423 45.322 10.3531 45.3006 10.3314C44.3223 9.40565 44.2528 6.66622 44.2528 5.8C44.2528 5.66465 44.1459 5.56178 44.0176 5.56178H41.4514C41.3231 5.56178 41.2161 5.67006 41.2161 5.8C41.2161 6.42801 41.1841 8.05759 40.9007 9.4273C40.0988 13.2982 38.7194 14.446 38.0672 14.3756C37.6395 14.3323 37.4845 13.7043 37.415 13.4823C37.1583 12.6486 35.9661 7.49454 35.5705 5.74044C35.5491 5.63216 35.4529 5.55637 35.346 5.55637H32.1222C31.9564 5.55637 31.8442 5.7242 31.903 5.8812L32.0313 6.22769C34.1591 12.1613 28.8556 15.1336 26.2199 15.0578C23.9371 14.9928 23.6217 14.0129 23.5789 13.7476C23.5736 13.7151 23.6003 13.6826 23.6377 13.6826C28.3531 13.9208 30.9032 11.2572 30.8765 8.9184C30.8658 7.72193 30.0372 5.56178 26.7332 5.55637C23.8195 5.55637 21.3281 7.59741 20.462 10.6725C20.4514 10.7104 20.4086 10.7266 20.3765 10.6996C18.9223 9.44355 18.7726 7.08309 18.7352 6.29266C18.7299 6.16273 18.6229 6.06528 18.5 6.06528H15.8643C15.7306 6.06528 15.6237 6.17897 15.6291 6.31432C15.7146 8.09549 15.3564 10.483 15.3564 10.483C14.8538 14.1157 13.4638 14.7654 12.7047 14.7654C12.0417 14.7654 11.8279 14.1374 12.0417 12.432L12.7474 6.34139C12.7635 6.20062 12.6565 6.0761 12.5122 6.0761H9.66266C9.54504 6.0761 9.44346 6.16273 9.42742 6.28725L8.87676 10.5155C8.81795 10.9865 8.68964 11.4575 8.55599 11.9123C7.8984 14.1915 6.77034 14.7762 6.25711 14.7762C5.38032 14.7762 5.37498 13.91 5.58883 12.2967L6.15553 8.69102C6.45492 6.72036 5.33221 6.00031 5.08093 5.86496C4.40196 5.48599 2.69651 5.42102 0.648907 6.55794C0.536636 6.61749 0.493866 6.75826 0.541982 6.87195L1.37599 8.82095C1.42946 8.94005 1.56311 8.99961 1.68608 8.9563C1.86785 8.88592 2.04962 8.83178 2.1512 8.82095C2.30624 8.80471 2.54682 8.79929 2.69651 8.95088C2.89432 9.14037 2.86759 9.5031 2.85155 9.64928L2.29555 13.1467C1.91596 16.0106 2.73394 18.0029 5.19855 18.0029C5.19855 18.0029 7.44932 18.1058 8.87141 15.9889C8.90349 15.9402 8.97299 15.951 8.98903 16.0052C9.35258 17.1854 10.3256 18.0029 12.1059 18.0029C14.8164 18.0029 17.3773 16.5466 18.4198 12.3562C18.4305 12.3183 18.4732 12.3129 18.4946 12.34C18.7673 12.7677 19.3981 13.2766 20.045 13.5419C20.0664 13.5473 20.0771 13.5689 20.0771 13.5906C20.0932 13.9696 20.3712 17.4236 24.4236 17.9271C28.599 18.4414 31.9992 16.33 34.0254 13.5798L34.8274 15.6533C34.8274 15.6533 35.6347 17.9921 37.4363 17.9921C39.7031 17.9921 41.986 15.9186 43.2744 12.5782C43.3386 12.4212 43.392 12.2642 43.4455 12.1072C43.4562 12.0747 43.499 12.0639 43.5204 12.0909C43.8999 12.497 44.3437 12.7947 44.8409 13.0275C44.8516 13.0275 44.8569 13.0438 44.8569 13.0546C44.7821 13.9425 45.2098 17.4236 49.2301 17.9217C52.4325 18.3169 55.095 17.2396 57.0998 15.4692C57.1319 15.4421 57.18 15.4692 57.1746 15.5125L56.902 17.7376C56.8859 17.8784 56.9929 18.0083 57.1372 18.0083H60.0616C60.1846 18.0083 60.2861 17.9163 60.2968 17.7972L60.7459 13.6772C60.9918 11.4142 61.7296 10.2773 62.5743 9.5031C63.4565 8.7235 64.4829 8.60981 64.8251 8.59898L64.8037 8.5665ZM23.5201 11.1543C23.7233 9.95787 24.3808 9.23782 25.14 8.75057C26.3429 7.97638 27.5298 8.07925 27.8292 8.57732C28.1179 9.05375 28.027 9.98494 26.5086 10.7537C25.5891 11.2193 24.6909 11.2897 23.5789 11.2247C23.5415 11.2247 23.5147 11.1868 23.5201 11.1543ZM48.3266 11.1543C48.5298 9.95787 49.1874 9.23782 49.9465 8.75057C51.1494 7.97097 52.3363 8.07925 52.6357 8.57732C52.9244 9.05375 52.8335 9.98494 51.3152 10.7537C50.3956 11.2193 49.4974 11.2897 48.3854 11.2247C48.348 11.2247 48.3213 11.1868 48.3266 11.1543ZM79.6555 11.1598C79.8587 9.96328 80.5163 9.24323 81.2755 8.75598C82.4784 7.97638 83.6652 8.08466 83.9646 8.58274C84.2533 9.05916 84.1624 9.99035 82.6441 10.7591C81.7245 11.2247 80.8264 11.2951 79.7143 11.2301C79.6769 11.2301 79.6502 11.1922 79.6609 11.1598H79.6555Z" fill="white"/>
<path d="M148.058 2.72388V6.25756H150.453V8.70031H148.058V14.0601C148.058 15.0799 148.509 15.5068 149.528 15.5068C149.908 15.5068 150.359 15.4357 150.477 15.4119V17.6887C150.311 17.7598 149.789 17.9496 148.793 17.9496C146.659 17.9496 145.331 16.6689 145.331 14.5107V8.70031H143.196V6.25756H143.789C145.022 6.25756 145.568 5.47494 145.568 4.45515V2.72388H148.058Z" fill="white"/>
<path d="M133.787 10.7635H139.455C139.408 9.4117 138.507 8.20219 136.609 8.20219C134.878 8.20219 133.882 9.53028 133.787 10.7635ZM139.763 13.7755L142.088 14.5106C141.471 16.5265 139.645 18.1629 136.87 18.1629C133.74 18.1629 130.965 15.8862 130.965 11.973C130.965 8.32077 133.668 5.90173 136.586 5.90173C140.143 5.90173 142.23 8.24962 142.23 11.9019C142.23 12.3525 142.183 12.7319 142.159 12.7794H133.716C133.787 14.5344 135.163 15.7913 136.87 15.7913C138.53 15.7913 139.384 14.9138 139.763 13.7755Z" fill="white"/>
<path d="M130.595 6.25754L125.852 11.143L130.69 17.8072H127.322L123.931 13.0877L122.508 14.5819V17.8072H119.781V0.636841H122.508V10.9296L126.943 6.25754H130.595Z" fill="white"/>
<path d="M112.314 8.43935C110.63 8.43935 109.136 9.6963 109.136 12.0205C109.136 14.3446 110.63 15.649 112.362 15.649C114.164 15.649 114.994 14.3921 115.255 13.5146L117.674 14.3921C117.129 16.1945 115.397 18.1629 112.362 18.1629C108.97 18.1629 106.385 15.5304 106.385 12.0205C106.385 8.46306 108.97 5.90173 112.291 5.90173C115.397 5.90173 117.105 7.84645 117.579 9.6963L115.113 10.5975C114.852 9.57772 114.069 8.43935 112.314 8.43935Z" fill="white"/>
<path d="M104.066 17.8072H101.339V6.25751H104.066V17.8072ZM100.912 2.20208C100.912 1.206 101.718 0.399658 102.69 0.399658C103.686 0.399658 104.493 1.206 104.493 2.20208C104.493 3.19815 103.686 3.98078 102.69 3.98078C101.718 3.98078 100.912 3.19815 100.912 2.20208Z" fill="white"/>
<path d="M96.6611 2.72388V6.25756H99.0564V8.70031H96.6611V14.0601C96.6611 15.0799 97.1117 15.5068 98.1315 15.5068C98.5109 15.5068 98.9616 15.4357 99.0801 15.4119V17.6887C98.9141 17.7598 98.3924 17.9496 97.3963 17.9496C95.2619 17.9496 93.9338 16.6689 93.9338 14.5107V8.70031H91.7993V6.25756H92.3922C93.6254 6.25756 94.1709 5.47494 94.1709 4.45515V2.72388H96.6611Z" fill="white"/>
</svg>
