<svg viewBox="0 0 80 22" fill="none" xmlns="http://www.w3.org/2000/svg">
<g clip-path="url(#clip0_59491_13512)">
<path d="M77.0022 7.23901H79.1979V9.4782H77.0022V14.3914C77.0022 14.8551 77.1109 15.1957 77.3283 15.4131C77.5457 15.616 77.8862 15.7175 78.35 15.7175C78.5239 15.7175 78.6979 15.7102 78.8718 15.6957C79.0457 15.6668 79.1616 15.645 79.2196 15.6305V17.7175C79.1471 17.7465 78.9877 17.79 78.7413 17.848C78.495 17.9204 78.1399 17.9567 77.6761 17.9567C76.6906 17.9567 75.9152 17.6813 75.3499 17.1306C74.7847 16.5798 74.5021 15.8044 74.5021 14.8044V9.4782H72.5455V7.23901H73.089C73.6543 7.23901 74.0673 7.07959 74.3282 6.76074C74.5891 6.44189 74.7195 6.05057 74.7195 5.58679V3.9998H77.0022V7.23901Z" fill="currentColor"/>
<path d="M69.3333 11.3696C69.3188 11.0652 69.2536 10.7754 69.1377 10.5C69.0362 10.2101 68.8768 9.9565 68.6594 9.7391C68.442 9.5217 68.1739 9.34779 67.855 9.21735C67.5362 9.08691 67.1593 9.02169 66.7246 9.02169C66.3332 9.02169 65.9782 9.09416 65.6593 9.23909C65.355 9.36953 65.0941 9.55069 64.8767 9.78258C64.6593 9.99998 64.4854 10.2536 64.3549 10.5435C64.2245 10.8188 64.152 11.0942 64.1375 11.3696H69.3333ZM71.7464 14.8044C71.6015 15.2682 71.3913 15.703 71.116 16.1088C70.8406 16.5146 70.5 16.8697 70.0942 17.1741C69.6884 17.4784 69.2246 17.7176 68.7029 17.8915C68.1811 18.0654 67.6014 18.1524 66.9637 18.1524C66.239 18.1524 65.5506 18.0292 64.8984 17.7828C64.2462 17.5219 63.6738 17.1523 63.181 16.6741C62.6882 16.1813 62.2897 15.5871 61.9853 14.8914C61.6954 14.1812 61.5505 13.3769 61.5505 12.4783C61.5505 11.6377 61.6882 10.8768 61.9636 10.1956C62.2534 9.51446 62.6375 8.93473 63.1158 8.45646C63.594 7.96369 64.1448 7.58687 64.768 7.326C65.3912 7.05063 66.0361 6.91294 66.7028 6.91294C67.5144 6.91294 68.2391 7.04338 68.8768 7.30426C69.529 7.56513 70.0725 7.93471 70.5073 8.41298C70.9565 8.89125 71.2971 9.47098 71.529 10.1522C71.7609 10.8188 71.8769 11.5725 71.8769 12.4131C71.8769 12.616 71.8696 12.7972 71.8551 12.9566C71.8406 13.1015 71.8261 13.1885 71.8116 13.2175H64.0723C64.0868 13.6233 64.1738 13.9928 64.3332 14.3262C64.4926 14.6595 64.7028 14.9494 64.9636 15.1958C65.2245 15.4421 65.5216 15.6378 65.855 15.7827C66.2028 15.9132 66.5724 15.9784 66.9637 15.9784C67.7318 15.9784 68.3188 15.8045 68.7246 15.4566C69.1449 15.0943 69.442 14.6523 69.6159 14.1305L71.7464 14.8044Z" fill="currentColor"/>
<path d="M57.0813 11.7174L61.5162 17.8262H58.4292L55.3204 13.5L54.016 14.8696V17.8262H51.516V2.08668H54.016V11.5217L58.0813 7.23898H61.4293L57.0813 11.7174Z" fill="currentColor"/>
<path d="M44.8891 9.23909C44.4978 9.23909 44.1282 9.31156 43.7804 9.45649C43.4325 9.60142 43.1209 9.81157 42.8456 10.0869C42.5847 10.3623 42.3745 10.7029 42.2151 11.1087C42.0557 11.5145 41.976 11.9855 41.976 12.5218C41.976 13.058 42.0557 13.5363 42.2151 13.9566C42.3745 14.3624 42.5847 14.7102 42.8456 15.0001C43.1209 15.2755 43.4398 15.4856 43.8021 15.6306C44.1644 15.7755 44.5412 15.848 44.9326 15.848C45.3384 15.848 45.6935 15.7827 45.9978 15.6523C46.3167 15.5219 46.5775 15.3624 46.7804 15.174C46.9978 14.9711 47.1717 14.761 47.3022 14.5436C47.4326 14.3117 47.5268 14.0943 47.5848 13.8914L49.8022 14.6957C49.6718 15.116 49.4762 15.5291 49.2153 15.9349C48.9544 16.3407 48.6211 16.7103 48.2153 17.0436C47.8239 17.377 47.3529 17.6451 46.8022 17.848C46.2514 18.0509 45.6282 18.1524 44.9326 18.1524C44.1499 18.1524 43.4253 18.0147 42.7586 17.7393C42.0919 17.4494 41.5122 17.0509 41.0194 16.5436C40.5411 16.0364 40.1571 15.4421 39.8672 14.761C39.5918 14.0798 39.4542 13.3334 39.4542 12.5218C39.4542 11.7102 39.5918 10.9638 39.8672 10.2826C40.1426 9.58692 40.5267 8.99271 41.0194 8.49994C41.5122 7.99268 42.0847 7.60137 42.7369 7.326C43.389 7.05063 44.0992 6.91294 44.8673 6.91294C45.5775 6.91294 46.208 7.0144 46.7587 7.2173C47.3094 7.4202 47.7877 7.68832 48.1935 8.02167C48.5993 8.34052 48.9254 8.71009 49.1718 9.13039C49.4182 9.55069 49.5993 9.97099 49.7153 10.3913L47.4544 11.2174C47.3964 10.9855 47.3022 10.7536 47.1717 10.5217C47.0558 10.2753 46.8891 10.058 46.6717 9.86954C46.4688 9.68113 46.2225 9.52895 45.9326 9.41301C45.6427 9.29706 45.2949 9.23909 44.8891 9.23909Z" fill="currentColor"/>
<path d="M35.0456 17.8262V7.23896H37.5457V17.8262H35.0456ZM34.6543 3.52148C34.6543 3.0577 34.8137 2.66638 35.1326 2.34754C35.4514 2.02869 35.8355 1.86926 36.2848 1.86926C36.7485 1.86926 37.1398 2.02869 37.4587 2.34754C37.7775 2.66638 37.937 3.0577 37.937 3.52148C37.937 3.98526 37.7775 4.37657 37.4587 4.69542C37.1398 4.99978 36.7485 5.15195 36.2848 5.15195C35.8355 5.15195 35.4514 4.99978 35.1326 4.69542C34.8137 4.37657 34.6543 3.98526 34.6543 3.52148Z" fill="currentColor"/>
<path d="M30.9752 7.23901H33.1709V9.4782H30.9752V14.3914C30.9752 14.8551 31.0839 15.1957 31.3013 15.4131C31.5187 15.616 31.8593 15.7175 32.323 15.7175C32.497 15.7175 32.6709 15.7102 32.8448 15.6957C33.0187 15.6668 33.1347 15.645 33.1926 15.6305V17.7175C33.1202 17.7465 32.9607 17.79 32.7144 17.848C32.468 17.9204 32.1129 17.9567 31.6491 17.9567C30.6636 17.9567 29.8882 17.6813 29.323 17.1306C28.7577 16.5798 28.4751 15.8044 28.4751 14.8044V9.4782H26.5186V7.23901H27.062C27.6273 7.23901 28.0403 7.07959 28.3012 6.76074C28.5621 6.44189 28.6925 6.05057 28.6925 5.58679V3.9998H30.9752V7.23901Z" fill="currentColor"/>
<path d="M6.95508 9.05859C7.77388 8.62213 8.45672 8.64705 8.72754 8.79297C8.82934 8.84549 9.27817 9.12231 9.1582 9.87695L8.93262 11.2588C8.84734 11.8764 8.84837 12.2087 9.19922 12.209C9.40488 12.209 9.85727 11.9853 10.1191 11.1123C10.1715 10.9372 10.2238 10.7578 10.2471 10.5771L10.4678 8.95703C10.474 8.91159 10.514 8.87708 10.5615 8.87695H11.7021C11.759 8.87695 11.8034 8.92595 11.7969 8.98047L11.5137 11.3145C11.4284 11.9688 11.514 12.2088 11.7793 12.209C12.083 12.209 12.6383 11.96 12.8398 10.5684C12.8418 10.5555 12.9818 9.65093 12.9492 8.97363C12.9468 8.92044 12.9894 8.87662 13.0439 8.87695H14.0977C14.1487 8.87695 14.1902 8.91542 14.1924 8.96484C14.2054 9.25971 14.3436 10.1918 15.0068 10.627C15.0336 10.6444 15.0496 10.6725 15.0508 10.7021L15.0469 10.7324C14.9851 10.9274 14.8183 11.4189 14.749 11.624C14.7315 11.6756 14.6725 11.7023 14.6211 11.6807C14.4313 11.6008 14.2007 11.4493 14.085 11.3506C14.0699 11.3378 14.0461 11.3454 14.041 11.3643C13.6116 12.9013 12.6062 13.4423 11.542 13.4424C10.8311 13.4424 10.4429 13.1295 10.2959 12.6797C10.2882 12.6578 10.2588 12.6536 10.2451 12.6729C9.67511 13.4807 8.77637 13.4424 8.77637 13.4424C7.7898 13.4422 7.46341 12.679 7.61523 11.5811L7.83691 10.2422C7.84411 10.1877 7.85354 10.0481 7.77539 9.97461C7.71408 9.91739 7.61962 9.91949 7.55664 9.92578C7.51484 9.92977 7.44177 9.95227 7.36914 9.97852C7.32082 9.99613 7.26666 9.97263 7.24609 9.92676L6.91309 9.17969C6.89321 9.13515 6.91124 9.08188 6.95508 9.05859Z" fill="currentColor"/>
<path fill-rule="evenodd" clip-rule="evenodd" d="M11 0C18.9199 0 22 3.08009 22 11C22 18.9199 18.9199 22 11 22C3.08009 22 0 18.9199 0 11C0 3.08009 3.08009 0 11 0ZM5.04199 5.86719C4.33324 5.86719 3.7588 6.44164 3.75879 7.15039V12.7412C3.75875 14.7662 5.39982 16.4081 7.4248 16.4082H17.3252C17.8312 16.4081 18.241 15.9982 18.2412 15.4922V12.9688C18.2412 12.7858 18.0925 12.6402 17.915 12.5986C17.2534 12.4443 16.7608 11.8492 16.7607 11.1377C16.7607 10.4261 17.2534 9.83026 17.915 9.67578C18.0923 9.63426 18.2409 9.48936 18.2412 9.30664V6.7832C18.2411 6.27711 17.8313 5.8673 17.3252 5.86719H5.04199Z" fill="currentColor"/>
</g>
<defs>
<clipPath id="clip0_59491_13512"><rect width="80" height="22" fill="white"/>
</clipPath>
</defs>
</svg>
