<svg width="128" height="128" viewBox="0 0 128 128" fill="none" xmlns="http://www.w3.org/2000/svg">
<g clip-path="url(#clip0_81500_7444)">
<rect width="128" height="128" fill="url(#paint0_linear_81500_7444)"/>
<path d="M80.6501 62.9187C80.703 62.7493 80.6316 62.5747 80.4834 62.4768C77.7688 60.6406 77.2053 56.7063 77.1497 55.4628C77.1418 55.2538 76.9724 55.0897 76.7634 55.0897H72.4508C72.2285 55.0897 72.0539 55.2723 72.0645 55.4972C72.1994 58.3758 71.6173 62.2281 71.6173 62.2281C70.7918 68.0992 68.5217 69.1496 67.2808 69.1496C66.1934 69.1496 65.8442 68.1362 66.1934 65.374L67.3523 55.5263C67.3787 55.2961 67.1988 55.0924 66.966 55.0924H62.2988C62.103 55.0924 61.939 55.2352 61.9151 55.4284L61.0103 62.2625C60.915 63.0245 60.7007 63.7839 60.4838 64.522C59.4122 68.205 57.5628 69.1469 56.7214 69.1469C55.2821 69.1469 55.2821 67.7446 55.6313 65.1359L56.5547 59.3045C57.0442 56.1216 55.208 54.9548 54.7926 54.7325C53.684 54.1214 50.8901 54.0182 47.5405 55.8597C47.3605 55.9576 47.2865 56.1824 47.3658 56.3703L48.7284 59.5215C48.8131 59.7146 49.0327 59.8125 49.2311 59.7384C49.5275 59.6273 49.8291 59.532 49.9984 59.5162C50.2551 59.4897 50.644 59.4818 50.8953 59.7252C51.2155 60.0347 51.1784 60.6221 51.1493 60.8523L50.2418 66.5038C49.6201 71.1366 50.9562 74.3539 54.9937 74.3539C54.9937 74.3539 58.6687 74.5179 61.0023 71.1101C61.0579 71.0281 61.1796 71.0466 61.2087 71.1392C61.812 73.0363 63.3968 74.3539 66.3072 74.3539C70.6622 74.3539 74.7791 72.0732 76.5359 65.5883C76.5571 65.5089 76.6523 65.4745 76.7158 65.5301C77.1894 65.9481 78.1313 66.5884 78.9092 66.9244C79.1208 67.017 79.3616 66.9033 79.433 66.6863C79.7161 65.8211 80.3961 63.7442 80.6501 62.9213V62.9187Z" fill="white" fill-opacity="0.3"/>
</g>
<defs>
<linearGradient id="paint0_linear_81500_7444" x1="27.2898" y1="-19.2832" x2="144.001" y2="126.693" gradientUnits="userSpaceOnUse">
<stop stop-color="#17E5EF"/>
<stop offset="1" stop-color="#E69DFF"/>
</linearGradient>
<clipPath id="clip0_81500_7444">
<rect width="128" height="128" fill="white"/>
</clipPath>
</defs>
</svg>
