<svg width="96" height="96" viewBox="0 0 96 96" fill="none" xmlns="http://www.w3.org/2000/svg">
<g clip-path="url(#clip0_81500_7443)">
<rect width="96" height="96" fill="url(#paint0_linear_81500_7443)"/>
<path d="M64.6501 46.9187C64.703 46.7493 64.6316 46.5747 64.4834 46.4768C61.7688 44.6406 61.2053 40.7063 61.1497 39.4628C61.1418 39.2538 60.9724 39.0897 60.7634 39.0897H56.4508C56.2285 39.0897 56.0539 39.2723 56.0645 39.4972C56.1994 42.3758 55.6173 46.2281 55.6173 46.2281C54.7918 52.0992 52.5217 53.1496 51.2808 53.1496C50.1934 53.1496 49.8442 52.1362 50.1934 49.374L51.3523 39.5263C51.3787 39.2961 51.1988 39.0924 50.966 39.0924H46.2988C46.103 39.0924 45.939 39.2352 45.9151 39.4284L45.0103 46.2625C44.915 47.0245 44.7007 47.7839 44.4838 48.522C43.4122 52.205 41.5628 53.1469 40.7214 53.1469C39.2821 53.1469 39.2821 51.7446 39.6313 49.1359L40.5547 43.3045C41.0442 40.1216 39.208 38.9548 38.7926 38.7325C37.684 38.1214 34.8901 38.0182 31.5405 39.8597C31.3605 39.9576 31.2865 40.1824 31.3658 40.3703L32.7284 43.5215C32.8131 43.7146 33.0327 43.8125 33.2311 43.7384C33.5275 43.6273 33.8291 43.532 33.9984 43.5162C34.2551 43.4897 34.644 43.4818 34.8953 43.7252C35.2155 44.0347 35.1784 44.6221 35.1493 44.8523L34.2418 50.5038C33.6201 55.1366 34.9562 58.3539 38.9937 58.3539C38.9937 58.3539 42.6687 58.5179 45.0023 55.1101C45.0579 55.0281 45.1796 55.0466 45.2087 55.1392C45.812 57.0363 47.3968 58.3539 50.3072 58.3539C54.6622 58.3539 58.7791 56.0732 60.5359 49.5883C60.5571 49.5089 60.6523 49.4745 60.7158 49.5301C61.1894 49.9481 62.1313 50.5884 62.9092 50.9244C63.1208 51.017 63.3616 50.9033 63.433 50.6863C63.7161 49.8211 64.3961 47.7442 64.6501 46.9213V46.9187Z" fill="white" fill-opacity="0.3"/>
</g>
<defs>
<linearGradient id="paint0_linear_81500_7443" x1="20.4674" y1="-14.4624" x2="108.001" y2="95.0199" gradientUnits="userSpaceOnUse">
<stop stop-color="#17E5EF"/>
<stop offset="1" stop-color="#E69DFF"/>
</linearGradient>
<clipPath id="clip0_81500_7443">
<rect width="96" height="96" fill="white"/>
</clipPath>
</defs>
</svg>
