<svg width="16" height="16" viewBox="0 0 16 16" fill="none" xmlns="http://www.w3.org/2000/svg">
<g clip-path="url(#clip0_81500_7438)">
<rect width="16" height="16" fill="url(#paint0_linear_81500_7438)"/>
<path d="M12.995 7.67585C13.0109 7.62505 12.9895 7.57266 12.945 7.54329C12.1306 6.99244 11.9616 5.81214 11.9449 5.43908C11.9425 5.37637 11.8917 5.32716 11.829 5.32716H10.5352C10.4685 5.32716 10.4162 5.38193 10.4193 5.4494C10.4598 6.31299 10.2852 7.46868 10.2852 7.46868C10.0375 9.23 9.35651 9.54511 8.98425 9.54511C8.65802 9.54511 8.55325 9.24111 8.65802 8.41244L9.00568 5.45813C9.01362 5.38907 8.95964 5.32796 8.88979 5.32796H7.48963C7.43089 5.32796 7.38168 5.37082 7.37454 5.42876L7.10308 7.479C7.0745 7.7076 7.01021 7.9354 6.94512 8.15686C6.62366 9.26175 6.06883 9.54432 5.81642 9.54432C5.38462 9.54432 5.38462 9.12364 5.4894 8.34101L5.76641 6.5916C5.91326 5.63672 5.3624 5.28668 5.23778 5.22001C4.9052 5.03665 4.06701 5.0057 3.06213 5.55814C3.00816 5.58751 2.98593 5.65498 3.00975 5.71133L3.41852 6.65668C3.44392 6.71463 3.5098 6.74399 3.56933 6.72177C3.65823 6.68843 3.74872 6.65986 3.79952 6.65509C3.87651 6.64716 3.99319 6.64478 4.0686 6.7178C4.16464 6.81067 4.15353 6.98688 4.1448 7.05594L3.87254 8.75137C3.68601 10.1412 4.08685 11.1064 5.29811 11.1064C5.29811 11.1064 6.40061 11.1556 7.1007 10.1333C7.11736 10.1087 7.15388 10.1142 7.16261 10.142C7.34358 10.7111 7.81903 11.1064 8.69215 11.1064C9.99865 11.1064 11.2337 10.4222 11.7608 8.47674C11.7671 8.45292 11.7957 8.4426 11.8147 8.45927C11.9568 8.58468 12.2394 8.77677 12.4727 8.87758C12.5362 8.90536 12.6085 8.87123 12.6299 8.80614C12.7148 8.54658 12.9188 7.9235 12.995 7.67664V7.67585Z" fill="white" fill-opacity="0.3"/>
</g>
<defs>
<linearGradient id="paint0_linear_81500_7438" x1="3.41123" y1="-2.41041" x2="18.0001" y2="15.8367" gradientUnits="userSpaceOnUse">
<stop stop-color="#17E5EF"/>
<stop offset="1" stop-color="#E69DFF"/>
</linearGradient>
<clipPath id="clip0_81500_7438">
<rect width="16" height="16" fill="white"/>
</clipPath>
</defs>
</svg>
