<svg width="20" height="20" viewBox="0 0 20 20" fill="none" xmlns="http://www.w3.org/2000/svg">
<g clip-path="url(#clip0_81500_7445)">
<rect width="20" height="20" fill="url(#paint0_linear_81500_7445)"/>
<path d="M14.995 9.67585C15.0109 9.62505 14.9895 9.57266 14.945 9.54329C14.1306 8.99244 13.9616 7.81214 13.9449 7.43908C13.9425 7.37637 13.8917 7.32716 13.829 7.32716H12.5352C12.4685 7.32716 12.4162 7.38193 12.4193 7.4494C12.4598 8.31299 12.2852 9.46868 12.2852 9.46868C12.0375 11.23 11.3565 11.5451 10.9842 11.5451C10.658 11.5451 10.5532 11.2411 10.658 10.4124L11.0057 7.45813C11.0136 7.38907 10.9596 7.32796 10.8898 7.32796H9.48963C9.43089 7.32796 9.38168 7.37082 9.37454 7.42876L9.10308 9.479C9.0745 9.7076 9.01021 9.9354 8.94512 10.1569C8.62366 11.2617 8.06883 11.5443 7.81642 11.5443C7.38462 11.5443 7.38462 11.1236 7.4894 10.341L7.76641 8.5916C7.91326 7.63672 7.3624 7.28668 7.23778 7.22001C6.9052 7.03665 6.06701 7.0057 5.06213 7.55814C5.00816 7.58751 4.98593 7.65498 5.00975 7.71133L5.41852 8.65668C5.44392 8.71463 5.5098 8.74399 5.56933 8.72177C5.65823 8.68843 5.74872 8.65986 5.79952 8.65509C5.87651 8.64716 5.99319 8.64478 6.0686 8.7178C6.16464 8.81067 6.15353 8.98688 6.1448 9.05594L5.87254 10.7514C5.68601 12.1412 6.08685 13.1064 7.29811 13.1064C7.29811 13.1064 8.40061 13.1556 9.1007 12.1333C9.11736 12.1087 9.15388 12.1142 9.16261 12.142C9.34358 12.7111 9.81903 13.1064 10.6922 13.1064C11.9987 13.1064 13.2337 12.4222 13.7608 10.4767C13.7671 10.4529 13.7957 10.4426 13.8147 10.4593C13.9568 10.5847 14.2394 10.7768 14.4727 10.8776C14.5362 10.9054 14.6085 10.8712 14.6299 10.8061C14.7148 10.5466 14.9188 9.9235 14.995 9.67664V9.67585Z" fill="white" fill-opacity="0.3"/>
</g>
<defs>
<linearGradient id="paint0_linear_81500_7445" x1="4.26404" y1="-3.01301" x2="22.5001" y2="19.7958" gradientUnits="userSpaceOnUse">
<stop stop-color="#17E5EF"/>
<stop offset="1" stop-color="#E69DFF"/>
</linearGradient>
<clipPath id="clip0_81500_7445">
<rect width="20" height="20" fill="white"/>
</clipPath>
</defs>
</svg>
