<svg width="32" height="32" viewBox="0 0 32 32" fill="none" xmlns="http://www.w3.org/2000/svg">
<g clip-path="url(#clip0_81500_7447)">
<rect width="32" height="32" fill="url(#paint0_linear_81500_7447)"/>
<path d="M20.995 15.6758C21.0109 15.625 20.9895 15.5727 20.945 15.5433C20.1306 14.9924 19.9616 13.8121 19.9449 13.4391C19.9425 13.3764 19.8917 13.3272 19.829 13.3272H18.5352C18.4685 13.3272 18.4162 13.3819 18.4193 13.4494C18.4598 14.313 18.2852 15.4687 18.2852 15.4687C18.0375 17.23 17.3565 17.5451 16.9842 17.5451C16.658 17.5451 16.5532 17.2411 16.658 16.4124L17.0057 13.4581C17.0136 13.3891 16.9596 13.328 16.8898 13.328H15.4896C15.4309 13.328 15.3817 13.3708 15.3745 13.4288L15.1031 15.479C15.0745 15.7076 15.0102 15.9354 14.9451 16.1569C14.6237 17.2617 14.0688 17.5443 13.8164 17.5443C13.3846 17.5443 13.3846 17.1236 13.4894 16.341L13.7664 14.5916C13.9133 13.6367 13.3624 13.2867 13.2378 13.22C12.9052 13.0367 12.067 13.0057 11.0621 13.5581C11.0082 13.5875 10.9859 13.655 11.0097 13.7113L11.4185 14.6567C11.4439 14.7146 11.5098 14.744 11.5693 14.7218C11.6582 14.6884 11.7487 14.6599 11.7995 14.6551C11.8765 14.6472 11.9932 14.6448 12.0686 14.7178C12.1646 14.8107 12.1535 14.9869 12.1448 15.0559L11.8725 16.7514C11.686 18.1412 12.0869 19.1064 13.2981 19.1064C13.2981 19.1064 14.4006 19.1556 15.1007 18.1333C15.1174 18.1087 15.1539 18.1142 15.1626 18.142C15.3436 18.7111 15.819 19.1064 16.6922 19.1064C17.9987 19.1064 19.2337 18.4222 19.7608 16.4767C19.7671 16.4529 19.7957 16.4426 19.8147 16.4593C19.9568 16.5847 20.2394 16.7768 20.4727 16.8776C20.5362 16.9054 20.6085 16.8712 20.6299 16.8061C20.7148 16.5466 20.9188 15.9235 20.995 15.6766V15.6758Z" fill="white" fill-opacity="0.3"/>
</g>
<defs>
<linearGradient id="paint0_linear_81500_7447" x1="6.82246" y1="-4.82081" x2="36.0002" y2="31.6733" gradientUnits="userSpaceOnUse">
<stop stop-color="#17E5EF"/>
<stop offset="1" stop-color="#E69DFF"/>
</linearGradient>
<clipPath id="clip0_81500_7447">
<rect width="32" height="32" fill="white"/>
</clipPath>
</defs>
</svg>
