<svg width="40" height="40" viewBox="0 0 40 40" fill="none" xmlns="http://www.w3.org/2000/svg">
<g clip-path="url(#clip0_81500_7440)">
<rect width="40" height="40" fill="url(#paint0_linear_81500_7440)"/>
<path d="M24.995 19.6758C25.0109 19.625 24.9895 19.5727 24.945 19.5433C24.1306 18.9924 23.9616 17.8121 23.9449 17.4391C23.9425 17.3764 23.8917 17.3272 23.829 17.3272H22.5352C22.4685 17.3272 22.4162 17.3819 22.4193 17.4494C22.4598 18.313 22.2852 19.4687 22.2852 19.4687C22.0375 21.23 21.3565 21.5451 20.9842 21.5451C20.658 21.5451 20.5532 21.2411 20.658 20.4124L21.0057 17.4581C21.0136 17.3891 20.9596 17.328 20.8898 17.328H19.4896C19.4309 17.328 19.3817 17.3708 19.3745 17.4288L19.1031 19.479C19.0745 19.7076 19.0102 19.9354 18.9451 20.1569C18.6237 21.2617 18.0688 21.5443 17.8164 21.5443C17.3846 21.5443 17.3846 21.1236 17.4894 20.341L17.7664 18.5916C17.9133 17.6367 17.3624 17.2867 17.2378 17.22C16.9052 17.0367 16.067 17.0057 15.0621 17.5581C15.0082 17.5875 14.9859 17.655 15.0097 17.7113L15.4185 18.6567C15.4439 18.7146 15.5098 18.744 15.5693 18.7218C15.6582 18.6884 15.7487 18.6599 15.7995 18.6551C15.8765 18.6472 15.9932 18.6448 16.0686 18.7178C16.1646 18.8107 16.1535 18.9869 16.1448 19.0559L15.8725 20.7514C15.686 22.1412 16.0869 23.1064 17.2981 23.1064C17.2981 23.1064 18.4006 23.1556 19.1007 22.1333C19.1174 22.1087 19.1539 22.1142 19.1626 22.142C19.3436 22.7111 19.819 23.1064 20.6922 23.1064C21.9987 23.1064 23.2337 22.4222 23.7608 20.4767C23.7671 20.4529 23.7957 20.4426 23.8147 20.4593C23.9568 20.5847 24.2394 20.7768 24.4727 20.8776C24.5362 20.9054 24.6085 20.8712 24.6299 20.8061C24.7148 20.5466 24.9188 19.9235 24.995 19.6766V19.6758Z" fill="white" fill-opacity="0.3"/>
</g>
<defs>
<linearGradient id="paint0_linear_81500_7440" x1="8.52807" y1="-6.02601" x2="45.0002" y2="39.5916" gradientUnits="userSpaceOnUse">
<stop stop-color="#17E5EF"/>
<stop offset="1" stop-color="#E69DFF"/>
</linearGradient>
<clipPath id="clip0_81500_7440">
<rect width="40" height="40" fill="white"/>
</clipPath>
</defs>
</svg>
