<svg width="24" height="24" viewBox="0 0 24 24" fill="none" xmlns="http://www.w3.org/2000/svg">
<g clip-path="url(#clip0_81500_7439)">
<rect width="24" height="24" fill="url(#paint0_linear_81500_7439)"/>
<path d="M16.995 11.6758C17.0109 11.625 16.9895 11.5727 16.945 11.5433C16.1306 10.9924 15.9616 9.81214 15.9449 9.43908C15.9425 9.37637 15.8917 9.32716 15.829 9.32716H14.5352C14.4685 9.32716 14.4162 9.38193 14.4193 9.4494C14.4598 10.313 14.2852 11.4687 14.2852 11.4687C14.0375 13.23 13.3565 13.5451 12.9842 13.5451C12.658 13.5451 12.5532 13.2411 12.658 12.4124L13.0057 9.45813C13.0136 9.38907 12.9596 9.32796 12.8898 9.32796H11.4896C11.4309 9.32796 11.3817 9.37082 11.3745 9.42876L11.1031 11.479C11.0745 11.7076 11.0102 11.9354 10.9451 12.1569C10.6237 13.2617 10.0688 13.5443 9.81642 13.5443C9.38462 13.5443 9.38462 13.1236 9.4894 12.341L9.76641 10.5916C9.91326 9.63672 9.3624 9.28668 9.23778 9.22001C8.9052 9.03665 8.06701 9.0057 7.06213 9.55814C7.00816 9.58751 6.98593 9.65498 7.00975 9.71133L7.41852 10.6567C7.44392 10.7146 7.5098 10.744 7.56933 10.7218C7.65823 10.6884 7.74872 10.6599 7.79952 10.6551C7.87651 10.6472 7.99319 10.6448 8.0686 10.7178C8.16464 10.8107 8.15353 10.9869 8.1448 11.0559L7.87254 12.7514C7.68601 14.1412 8.08685 15.1064 9.29811 15.1064C9.29811 15.1064 10.4006 15.1556 11.1007 14.1333C11.1174 14.1087 11.1539 14.1142 11.1626 14.142C11.3436 14.7111 11.819 15.1064 12.6922 15.1064C13.9987 15.1064 15.2337 14.4222 15.7608 12.4767C15.7671 12.4529 15.7957 12.4426 15.8147 12.4593C15.9568 12.5847 16.2394 12.7768 16.4727 12.8776C16.5362 12.9054 16.6085 12.8712 16.6299 12.8061C16.7148 12.5466 16.9188 11.9235 16.995 11.6766V11.6758Z" fill="white" fill-opacity="0.3"/>
</g>
<defs>
<linearGradient id="paint0_linear_81500_7439" x1="5.11684" y1="-3.61561" x2="27.0001" y2="23.755" gradientUnits="userSpaceOnUse">
<stop stop-color="#17E5EF"/>
<stop offset="1" stop-color="#E69DFF"/>
</linearGradient>
<clipPath id="clip0_81500_7439">
<rect width="24" height="24" fill="white"/>
</clipPath>
</defs>
</svg>
