<svg width="64" height="64" viewBox="0 0 64 64" fill="none" xmlns="http://www.w3.org/2000/svg">
<g clip-path="url(#clip0_81500_7442)">
<rect width="64" height="64" fill="url(#paint0_linear_81500_7442)"/>
<path d="M41.9901 31.3512C42.0218 31.2496 41.9789 31.1448 41.89 31.0861C40.2613 29.9844 39.9232 27.6238 39.8898 26.8777C39.8851 26.7523 39.7835 26.6538 39.658 26.6538H37.0704C36.9371 26.6538 36.8323 26.7634 36.8387 26.8983C36.9196 28.6255 36.5704 30.9369 36.5704 30.9369C36.0751 34.4595 34.713 35.0897 33.9685 35.0897C33.316 35.0897 33.1065 34.4817 33.316 32.8244L34.0114 26.9158C34.0272 26.7777 33.9193 26.6554 33.7796 26.6554H30.9793C30.8618 26.6554 30.7634 26.7411 30.7491 26.857L30.2062 30.9575C30.149 31.4147 30.0204 31.8703 29.8902 32.3132C29.2473 34.523 28.1377 35.0882 27.6328 35.0882C26.7692 35.0882 26.7692 34.2468 26.9788 32.6815L27.5328 29.1827C27.8265 27.273 26.7248 26.5729 26.4756 26.4395C25.8104 26.0728 24.134 26.0109 22.1243 27.1158C22.0163 27.1745 21.9719 27.3095 22.0195 27.4222L22.837 29.3129C22.8878 29.4288 23.0196 29.4875 23.1387 29.4431C23.3165 29.3764 23.4974 29.3192 23.599 29.3097C23.753 29.2938 23.9864 29.2891 24.1372 29.4351C24.3293 29.6208 24.3071 29.9733 24.2896 30.1114L23.7451 33.5023C23.372 36.2819 24.1737 38.2123 26.5962 38.2123C26.5962 38.2123 28.8012 38.3107 30.2014 36.2661C30.2347 36.2169 30.3078 36.228 30.3252 36.2835C30.6872 37.4218 31.6381 38.2123 33.3843 38.2123C35.9973 38.2123 38.4674 36.8439 39.5215 32.953C39.5342 32.9054 39.5914 32.8847 39.6295 32.9181C39.9136 33.1689 40.4788 33.5531 40.9455 33.7547C41.0725 33.8102 41.217 33.742 41.2598 33.6118C41.4297 33.0927 41.8377 31.8465 41.9901 31.3528V31.3512Z" fill="white" fill-opacity="0.3"/>
</g>
<defs>
<linearGradient id="paint0_linear_81500_7442" x1="13.6449" y1="-9.64162" x2="72.0003" y2="63.3466" gradientUnits="userSpaceOnUse">
<stop stop-color="#17E5EF"/>
<stop offset="1" stop-color="#E69DFF"/>
</linearGradient>
<clipPath id="clip0_81500_7442">
<rect width="64" height="64" fill="white"/>
</clipPath>
</defs>
</svg>
