<svg width="24" height="24" viewBox="0 0 24 24" fill="none" xmlns="http://www.w3.org/2000/svg">
<path fill-rule="evenodd" clip-rule="evenodd" d="M19.4442 5.26021L4.55527 5.26021C3.94776 5.26021 3.45527 5.7527 3.45527 6.36021L3.45528 14.1474C3.45528 14.7549 3.94776 15.2474 4.55528 15.2474H6.13204C6.62909 15.2474 7.03204 15.6504 7.03204 16.1474C7.03204 16.6445 6.62909 17.0474 6.13204 17.0474H4.55528C2.95365 17.0474 1.65528 15.7491 1.65528 14.1474L1.65527 6.36021C1.65527 4.75859 2.95365 3.46021 4.55527 3.46021L19.4442 3.46021C21.0458 3.4602 22.3442 4.75858 22.3442 6.3602V14.1474C22.3442 15.7491 21.0458 17.0474 19.4442 17.0474H17.8674C17.3703 17.0474 16.9674 16.6445 16.9674 16.1474C16.9674 15.6504 17.3703 15.2474 17.8674 15.2474H19.4442C20.0517 15.2474 20.5442 14.7549 20.5442 14.1474V6.3602C20.5442 5.75269 20.0517 5.2602 19.4442 5.26021Z" fill="black"/>
<path d="M11.2388 14.2567C11.6356 13.8187 12.3237 13.8187 12.7207 14.2566L17.6444 19.6886C18.227 20.3313 17.771 21.3601 16.9035 21.3601H7.0573C6.18991 21.3601 5.73384 20.3314 6.31629 19.6886L11.2388 14.2567Z" fill="black"/>
</svg>
