<svg width="24" height="24" viewBox="0 0 24 24" fill="none" xmlns="http://www.w3.org/2000/svg">
<circle cx="12" cy="12" r="12" fill="black" fill-opacity="0.2"/>
<circle cx="12" cy="12" r="11" stroke="#FE5B58" stroke-width="2"/>
<path d="M14.5085 16.298C13.145 16.298 12.1466 15.6704 11.8043 14.9345C11.7244 14.7747 11.6902 14.6321 11.6902 14.4838C11.6902 14.1015 11.9469 13.8106 12.4033 13.8106C12.7513 13.8106 12.9453 13.9646 13.202 14.2499C13.5843 14.712 13.9494 14.9345 14.5712 14.9345C15.7864 14.9345 16.3455 13.7764 16.3512 12.0591V11.9679H16.317C16.0203 12.7609 15.2102 13.3028 14.1262 13.3028C12.603 13.3028 11.3936 12.2189 11.3936 10.6158C11.3936 8.90999 12.7285 7.69482 14.5655 7.69482C15.8777 7.69482 16.916 8.30526 17.515 9.51472C17.8288 10.148 17.9999 10.9638 17.9999 11.9279C17.9999 14.6663 16.6935 16.298 14.5085 16.298ZM14.5712 12.0249C15.4441 12.0249 16.1002 11.4145 16.1002 10.5758C16.1002 9.7258 15.4384 9.06973 14.5884 9.06973C13.7383 9.06973 13.0708 9.71439 13.0708 10.5473C13.0708 11.4088 13.7098 12.0249 14.5712 12.0249Z" fill="white"/>
<path d="M8.85457 16.2354C8.34683 16.2354 7.99882 15.8931 7.99882 15.374V9.48072H7.96459L6.76084 10.3194C6.6011 10.4335 6.48129 10.4734 6.30444 10.4734C5.95643 10.4734 5.69971 10.2224 5.69971 9.85725C5.69971 9.59482 5.8024 9.40085 6.07053 9.21259L7.70216 8.083C8.10151 7.80916 8.37535 7.75781 8.72906 7.75781C9.3395 7.75781 9.70462 8.12864 9.70462 8.72196V15.374C9.70462 15.8931 9.36232 16.2354 8.85457 16.2354Z" fill="white"/>
</svg>
