<svg width="24" height="24" viewBox="0 0 24 24" fill="none" xmlns="http://www.w3.org/2000/svg">
<path d="M15.6729 6.11133C16.4008 6.11133 17.0074 6.62992 17.1438 7.3178C17.1587 7.39304 17.2223 7.45117 17.299 7.45117H17.7801C17.8568 7.45117 17.9204 7.39304 17.9353 7.31779C18.0718 6.63002 18.6784 6.1115 19.4062 6.11133H21.8174C22.1484 6.11156 22.4168 6.37989 22.417 6.71094V17.8008C22.4169 18.1319 22.1485 18.4002 21.8174 18.4004H19.4062C18.6787 18.4002 18.0721 17.8823 17.9354 17.1948C17.9204 17.1196 17.8569 17.0615 17.7802 17.0615H17.2989C17.2222 17.0615 17.1587 17.1196 17.1438 17.1948C17.007 17.8824 16.4006 18.4004 15.6729 18.4004H4.86523C2.79417 18.4004 1.11523 16.7215 1.11523 14.6504V7.61133C1.11523 6.7829 1.78681 6.11133 2.61523 6.11133H15.6729ZM17.3229 14.3584C17.24 14.3584 17.1729 14.4256 17.1729 14.5084V15.4115C17.1729 15.4944 17.24 15.5615 17.3229 15.5615H17.7563C17.8391 15.5615 17.9062 15.4944 17.9062 15.4115V14.5084C17.9062 14.4256 17.8391 14.3584 17.7563 14.3584H17.3229ZM17.3229 11.6543C17.24 11.6543 17.1729 11.7215 17.1729 11.8043V12.7084C17.1729 12.7912 17.24 12.8584 17.3229 12.8584H17.7563C17.8391 12.8584 17.9062 12.7912 17.9062 12.7084V11.8043C17.9062 11.7215 17.8391 11.6543 17.7563 11.6543H17.3229ZM17.3229 8.95117C17.24 8.95117 17.1729 9.01833 17.1729 9.10117V10.0043C17.1729 10.0871 17.24 10.1543 17.3229 10.1543H17.7563C17.8391 10.1543 17.9062 10.0871 17.9062 10.0043V9.10117C17.9062 9.01833 17.8391 8.95117 17.7563 8.95117H17.3229Z" fill="url(#paint0_linear_43169_824)"/>
<path d="M1.11523 7.1228C1.11523 6.29438 1.78681 5.6228 2.61523 5.6228H15.6729C16.5013 5.6228 17.1729 6.29438 17.1729 7.1228V17.3892C17.1729 18.2176 16.5013 18.8892 15.6729 18.8892H4.86523C2.79417 18.8892 1.11523 17.2102 1.11523 15.1392V7.1228Z" fill="url(#paint1_linear_43169_824)"/>
<path d="M17.9062 7.12256C17.9062 6.29413 18.5778 5.62256 19.4062 5.62256H21.8166C22.148 5.62256 22.4166 5.89119 22.4166 6.22256V18.2889C22.4166 18.6203 22.148 18.8889 21.8166 18.8889H19.4062C18.5778 18.8889 17.9062 18.2173 17.9062 17.3889V7.12256Z" fill="url(#paint2_linear_43169_824)"/>
<path d="M10.8281 7.85718L10.959 7.87085C11.2551 7.9315 11.4775 8.1935 11.4775 8.50757C11.4775 8.82164 11.2551 9.08363 10.959 9.14429L10.8281 9.15796H4.03613C3.67715 9.15796 3.38574 8.86655 3.38574 8.50757C3.38574 8.14858 3.67715 7.85718 4.03613 7.85718H10.8281Z" fill="white"/>
<path d="M8.95312 10.4824L9.08398 10.4961C9.38012 10.5567 9.60254 10.8187 9.60254 11.1328C9.60254 11.4469 9.38012 11.7089 9.08398 11.7695L8.95312 11.7832H4.03613C3.67715 11.7832 3.38574 11.4918 3.38574 11.1328C3.38574 10.7738 3.67715 10.4824 4.03613 10.4824H8.95312Z" fill="white"/>
<path opacity="0.5" d="M7.07812 13.2244L7.20898 13.238C7.50512 13.2987 7.72754 13.5607 7.72754 13.8748C7.72754 14.1888 7.50512 14.4508 7.20898 14.5115L7.07812 14.5251H4.03613C3.67715 14.5251 3.38574 14.2337 3.38574 13.8748C3.38574 13.5158 3.67715 13.2244 4.03613 13.2244H7.07812Z" fill="white"/>
<defs>
<linearGradient id="paint0_linear_43169_824" x1="16.102" y1="7.81741" x2="22.9851" y2="17.7362" gradientUnits="userSpaceOnUse">
<stop stop-color="#37C792"/>
<stop offset="1" stop-color="#00643F"/>
</linearGradient>
<linearGradient id="paint1_linear_43169_824" x1="9.14404" y1="5.6228" x2="19.8904" y2="16.2481" gradientUnits="userSpaceOnUse">
<stop stop-color="#5AD7A9"/>
<stop offset="1" stop-color="#00AE6E"/>
</linearGradient>
<linearGradient id="paint2_linear_43169_824" x1="17.0786" y1="6.53339" x2="23.7083" y2="17.744" gradientUnits="userSpaceOnUse">
<stop stop-color="#009B62"/>
<stop offset="1" stop-color="#00492E"/>
</linearGradient>
</defs>
</svg>
