<svg width="24" height="24" viewBox="0 0 24 24" fill="none" xmlns="http://www.w3.org/2000/svg">
<path fill-rule="evenodd" clip-rule="evenodd" d="M2.20996 3.75718C2.20996 3.26012 2.6129 2.85718 3.10996 2.85718H5.44757C5.8674 2.85718 6.23146 3.14744 6.32497 3.55672L6.73512 5.35198H21.11C21.3781 5.35198 21.6324 5.47159 21.8033 5.6782C21.9743 5.88482 22.0442 6.15692 21.9941 6.42038L20.6838 13.2998C20.4233 14.6676 19.2274 15.6572 17.835 15.6572H9.32432C7.93678 15.6572 6.74365 14.6743 6.47798 13.3125L5.13696 6.43842L4.73 4.65718H3.10996C2.6129 4.65718 2.20996 4.25423 2.20996 3.75718ZM7.1101 7.15198L8.24467 12.9678C8.34545 13.4844 8.79801 13.8572 9.32432 13.8572H17.835C18.3631 13.8572 18.8167 13.4818 18.9156 12.963L20.0224 7.15198H7.1101Z" fill="black"/>
<path d="M10.5895 19.0003C10.5895 19.9668 9.80595 20.7503 8.83945 20.7503C7.87295 20.7503 7.08945 19.9668 7.08945 19.0003C7.08945 18.0338 7.87295 17.2503 8.83945 17.2503C9.80595 17.2503 10.5895 18.0338 10.5895 19.0003Z" fill="black"/>
<path d="M19.9967 19.0003C19.9967 19.9668 19.2132 20.7503 18.2467 20.7503C17.2802 20.7503 16.4967 19.9668 16.4967 19.0003C16.4967 18.0338 17.2802 17.2503 18.2467 17.2503C19.2132 17.2503 19.9967 18.0338 19.9967 19.0003Z" fill="black"/>
</svg>
