<svg width="24" height="24" viewBox="0 0 24 24" fill="none" xmlns="http://www.w3.org/2000/svg">
<path fill-rule="evenodd" clip-rule="evenodd" d="M12.2388 2.73217C12.4207 2.99074 12.4536 3.32581 12.3255 3.61485C11.9364 4.49262 11.7204 5.4615 11.7204 6.48188C11.7204 10.4457 14.9978 13.6871 19.0755 13.6871C19.5889 13.6871 20.089 13.6357 20.5712 13.5381C20.8804 13.4756 21.1996 13.5795 21.4128 13.8119C21.626 14.0443 21.702 14.3713 21.6132 14.6739C20.4272 18.7118 16.6434 21.65 12.1738 21.65C6.76367 21.65 2.34961 17.3396 2.34961 11.9878C2.34961 6.88134 6.36905 2.72244 11.4372 2.35249C11.7525 2.32948 12.0568 2.47361 12.2388 2.73217ZM10.1734 4.37165C6.70082 5.24389 4.14961 8.33347 4.14961 11.9878C4.14961 16.3145 7.72655 19.85 12.1738 19.85C15.3304 19.85 18.0528 18.0661 19.3638 15.4827C19.268 15.4856 19.1719 15.4871 19.0755 15.4871C14.0349 15.4871 9.92041 11.4708 9.92041 6.48188C9.92041 5.7557 10.008 5.04895 10.1734 4.37165Z" fill="black"/>
</svg>
