<svg width="24" height="24" viewBox="0 0 24 24" fill="none" xmlns="http://www.w3.org/2000/svg">
<path d="M22.0382 8.01714C22.0382 7.14729 21.3331 6.44214 20.4632 6.44214L5.10625 6.44214C4.2364 6.44214 3.53125 7.14729 3.53125 8.01714L3.53125 18.6751C3.53125 19.545 4.2364 20.2501 5.10625 20.2501L20.4632 20.2501C21.3331 20.2501 22.0382 19.545 22.0382 18.6751V8.01714Z" fill="#A724E5"/>
<path d="M1.96191 5.32525C1.96191 4.4554 2.66707 3.75024 3.53691 3.75024H18.6838C19.5536 3.75024 20.2588 4.4554 20.2588 5.32524V16.8463C20.2588 17.7161 19.5536 18.4213 18.6838 18.4213H3.53691C2.66706 18.4213 1.96191 17.7161 1.96191 16.8463V5.32525Z" fill="url(#paint0_linear_33256_3979)"/>
<path opacity="0.5" fill-rule="evenodd" clip-rule="evenodd" d="M4.24805 14.283C4.24805 13.9205 4.54186 13.6267 4.9043 13.6267H17.3153C17.6777 13.6267 17.9715 13.9205 17.9715 14.283C17.9715 14.6454 17.6777 14.9392 17.3153 14.9392H4.9043C4.54186 14.9392 4.24805 14.6454 4.24805 14.283Z" fill="white"/>
<path d="M5.55901 11.0077C5.45464 11.1866 5.51581 11.4149 5.69564 11.5176C5.87547 11.6203 6.10586 11.5586 6.21023 11.3797L6.56008 10.7801L6.91029 11.3803C7.01467 11.5592 7.24506 11.6209 7.42488 11.5182C7.60471 11.4155 7.66588 11.1872 7.56151 11.0083L7.21314 10.4112H7.91154C8.11865 10.4112 8.28654 10.2433 8.28654 10.0362C8.28654 9.8291 8.11865 9.66121 7.91154 9.66121H7.21292L7.56151 9.06375C7.66588 8.88487 7.60471 8.65657 7.42488 8.55383C7.24506 8.45109 7.01467 8.51282 6.91029 8.69171L6.56008 9.29194L6.21023 8.69233C6.10586 8.51344 5.87547 8.45171 5.69564 8.55445C5.51581 8.65719 5.45464 8.88549 5.55901 9.06437L5.90725 9.66121H5.20898C5.00188 9.66121 4.83398 9.8291 4.83398 10.0362C4.83398 10.2433 5.00188 10.4112 5.20898 10.4112H5.90703L5.55901 11.0077Z" fill="white"/>
<path d="M9.25542 10.0363C9.25542 9.8292 9.42332 9.6613 9.63042 9.6613H10.3287L9.98045 9.06446C9.87608 8.88558 9.93725 8.65728 10.1171 8.55454C10.2969 8.4518 10.5273 8.51353 10.6317 8.69242L10.9815 9.29203L11.3317 8.6918C11.4361 8.51292 11.6665 8.45119 11.8463 8.55392C12.0262 8.65666 12.0873 8.88496 11.983 9.06384L11.6344 9.6613H12.333C12.5401 9.6613 12.708 9.8292 12.708 10.0363C12.708 10.2434 12.5401 10.4113 12.333 10.4113H11.6346L11.983 11.0084C12.0873 11.1873 12.0262 11.4156 11.8463 11.5183C11.6665 11.621 11.4361 11.5593 11.3317 11.3804L10.9815 10.7802L10.6317 11.3798C10.5273 11.5587 10.2969 11.6204 10.1171 11.5177C9.93725 11.4149 9.87608 11.1867 9.98045 11.0078L10.3285 10.4113H9.63042C9.42332 10.4113 9.25542 10.2434 9.25542 10.0363Z" fill="white"/>
<path d="M14.0519 9.6613C13.8448 9.6613 13.6769 9.8292 13.6769 10.0363C13.6769 10.2434 13.8448 10.4113 14.0519 10.4113H14.7499L14.4019 11.0078C14.2975 11.1867 14.3587 11.4149 14.5385 11.5177C14.7184 11.6204 14.9487 11.5587 15.0531 11.3798L15.403 10.7802L15.7532 11.3804C15.8575 11.5593 16.0879 11.621 16.2678 11.5183C16.4476 11.4156 16.5088 11.1873 16.4044 11.0084L16.056 10.4113H16.7544C16.9615 10.4113 17.1294 10.2434 17.1294 10.0363C17.1294 9.8292 16.9615 9.6613 16.7544 9.6613H16.0558L16.4044 9.06384C16.5088 8.88496 16.4476 8.65666 16.2678 8.55392C16.0879 8.45119 15.8575 8.51292 15.7532 8.6918L15.403 9.29203L15.0531 8.69242C14.9487 8.51353 14.7184 8.4518 14.5385 8.55454C14.3587 8.65728 14.2975 8.88558 14.4019 9.06446L14.7501 9.6613H14.0519Z" fill="white"/>
<defs>
<linearGradient id="paint0_linear_33256_3979" x1="-1.46874" y1="2.11951" x2="13.6991" y2="24.4646" gradientUnits="userSpaceOnUse">
<stop stop-color="#E8B7FF"/>
<stop offset="1" stop-color="#C752FE"/>
</linearGradient>
</defs>
</svg>
