<svg width="64" height="64" viewBox="0 0 64 64" fill="none" xmlns="http://www.w3.org/2000/svg">
<path d="M14.8666 15.7334C15.7503 15.7334 16.4666 15.0171 16.4666 14.1334C16.4666 13.2498 15.7503 12.5334 14.8666 12.5334C13.9829 12.5334 13.2666 13.2498 13.2666 14.1334C13.2666 15.0171 13.9829 15.7334 14.8666 15.7334Z" fill="#AEAEAE"/>
<path fill-rule="evenodd" clip-rule="evenodd" d="M9.73359 5.9668H46.2669C48.6418 5.9668 50.5669 7.89197 50.5669 10.2668V25.0668C50.5669 25.8952 49.8954 26.5668 49.0669 26.5668C48.2385 26.5668 47.5669 25.8952 47.5669 25.0668V22.6501H8.43359V33.3501H24.8662C25.6946 33.3501 26.3662 34.0217 26.3662 34.8501C26.3662 35.6785 25.6946 36.3501 24.8662 36.3501H8.43359V45.7335C8.43359 46.4514 9.01562 47.0335 9.73359 47.0335L24.0003 47.0335C24.8287 47.0335 25.5003 47.705 25.5003 48.5335C25.5003 49.3619 24.8287 50.0335 24.0003 50.0335L9.73359 50.0335C7.35877 50.0335 5.43359 48.1083 5.43359 45.7335V10.2668C5.43359 7.89197 7.35877 5.9668 9.73359 5.9668ZM47.5669 10.2668V19.6501H8.43359V10.2668C8.43359 9.54883 9.01562 8.9668 9.73359 8.9668L46.2669 8.9668C46.9849 8.9668 47.5669 9.54883 47.5669 10.2668Z" fill="#AEAEAE"/>
<path d="M45.2334 38C45.2334 37.1716 44.5618 36.5 43.7334 36.5C42.905 36.5 42.2334 37.1716 42.2334 38V44.2667C42.2334 45.0951 42.905 45.7667 43.7334 45.7667C44.5618 45.7667 45.2334 45.0951 45.2334 44.2667V38Z" fill="#AEAEAE"/>
<path d="M45.3328 48.9335C45.3328 49.8171 44.6165 50.5335 43.7328 50.5335C42.8492 50.5335 42.1328 49.8171 42.1328 48.9335C42.1328 48.0498 42.8492 47.3335 43.7328 47.3335C44.6165 47.3335 45.3328 48.0498 45.3328 48.9335Z" fill="#AEAEAE"/>
<path fill-rule="evenodd" clip-rule="evenodd" d="M28.8994 44.2667C28.8994 36.0745 35.5405 29.4333 43.7327 29.4333C51.925 29.4333 58.5661 36.0745 58.5661 44.2667C58.5661 52.4589 51.925 59.1 43.7327 59.1C35.5405 59.1 28.8994 52.4589 28.8994 44.2667ZM43.7327 32.4333C37.1974 32.4333 31.8994 37.7313 31.8994 44.2667C31.8994 50.8021 37.1974 56.1 43.7327 56.1C50.2681 56.1 55.5661 50.8021 55.5661 44.2667C55.5661 37.7313 50.2681 32.4333 43.7327 32.4333Z" fill="#AEAEAE"/>
<path d="M16.4666 28.0001C16.4666 28.8838 15.7503 29.6001 14.8666 29.6001C13.9829 29.6001 13.2666 28.8838 13.2666 28.0001C13.2666 27.1165 13.9829 26.4001 14.8666 26.4001C15.7503 26.4001 16.4666 27.1165 16.4666 28.0001Z" fill="#AEAEAE"/>
<path d="M14.8666 43.3001C15.7503 43.3001 16.4666 42.5837 16.4666 41.7001C16.4666 40.8164 15.7503 40.1001 14.8666 40.1001C13.9829 40.1001 13.2666 40.8164 13.2666 41.7001C13.2666 42.5837 13.9829 43.3001 14.8666 43.3001Z" fill="#AEAEAE"/>
</svg>
