<svg width="64" height="64" viewBox="0 0 64 64" fill="none" xmlns="http://www.w3.org/2000/svg">
<path fill-rule="evenodd" clip-rule="evenodd" d="M9.73262 5.9668H46.2659C48.6408 5.9668 50.5659 7.89197 50.5659 10.2668V25.0668C50.5659 25.8952 49.8944 26.5668 49.0659 26.5668C48.2375 26.5668 47.5659 25.8952 47.5659 25.0668V17.5H8.43262V45.7335C8.43262 46.4514 9.01465 47.0335 9.73262 47.0335L23.9993 47.0335C24.8277 47.0335 25.4993 47.705 25.4993 48.5335C25.4993 49.3619 24.8277 50.0335 23.9993 50.0335L9.73262 50.0335C7.35779 50.0335 5.43262 48.1083 5.43262 45.7335V10.2668C5.43262 7.89197 7.35779 5.9668 9.73262 5.9668ZM47.5659 10.2668V14.5H8.43262V10.2668C8.43262 9.54883 9.01465 8.9668 9.73262 8.9668L46.2659 8.9668C46.9839 8.9668 47.5659 9.54883 47.5659 10.2668Z" fill="#AEAEAE"/>
<path d="M39.2062 39.7394C39.792 39.1536 40.7417 39.1536 41.3275 39.7394L43.7334 42.1453L46.1393 39.7394C46.7251 39.1536 47.6748 39.1536 48.2606 39.7394C48.8464 40.3252 48.8464 41.2749 48.2606 41.8607L45.8547 44.2666L48.2608 46.6727C48.8466 47.2585 48.8466 48.2083 48.2608 48.7941C47.6751 49.3798 46.7253 49.3798 46.1395 48.7941L43.7334 46.3879L41.3273 48.7941C40.7415 49.3798 39.7917 49.3798 39.206 48.7941C38.6202 48.2083 38.6202 47.2585 39.206 46.6727L41.6121 44.2666L39.2062 41.8607C38.6204 41.2749 38.6204 40.3252 39.2062 39.7394Z" fill="#AEAEAE"/>
<path fill-rule="evenodd" clip-rule="evenodd" d="M43.7337 29.4333C35.5415 29.4333 28.9004 36.0745 28.9004 44.2667C28.9004 52.4589 35.5415 59.1 43.7337 59.1C51.9259 59.1 58.5671 52.4589 58.5671 44.2667C58.5671 36.0745 51.9259 29.4333 43.7337 29.4333ZM31.9004 44.2667C31.9004 37.7313 37.1984 32.4333 43.7337 32.4333C50.2691 32.4333 55.5671 37.7313 55.5671 44.2667C55.5671 50.8021 50.2691 56.1 43.7337 56.1C37.1984 56.1 31.9004 50.8021 31.9004 44.2667Z" fill="#AEAEAE"/>
</svg>
