<svg width="64" height="64" viewBox="0 0 64 64" fill="none" xmlns="http://www.w3.org/2000/svg">
<path d="M32 42.3896C31.1716 42.3896 30.5 41.7181 30.5 40.8896V33.5012H23.1113C22.2829 33.5012 21.6113 32.8296 21.6113 32.0012C21.6113 31.1728 22.2829 30.5012 23.1113 30.5012H30.5V23.1118C30.5 22.2834 31.1716 21.6118 32 21.6118C32.8284 21.6118 33.5 22.2834 33.5 23.1118V30.5012H40.8892C41.7176 30.5012 42.3892 31.1728 42.3892 32.0012C42.3892 32.8296 41.7176 33.5012 40.8892 33.5012H33.5V40.8896C33.5 41.7181 32.8284 42.3896 32 42.3896Z" fill="#AEAEAE"/>
<path fill-rule="evenodd" clip-rule="evenodd" d="M3.07178 32.0003C3.07178 16.0235 16.0235 3.07178 32.0003 3.07178C47.9772 3.07178 60.9289 16.0235 60.9289 32.0003C60.9289 47.9772 47.9772 60.9289 32.0003 60.9289C16.0235 60.9289 3.07178 47.9772 3.07178 32.0003ZM32.0003 6.07178C17.6804 6.07178 6.07178 17.6804 6.07178 32.0003C6.07178 46.3203 17.6804 57.9289 32.0003 57.9289C46.3203 57.9289 57.9289 46.3203 57.9289 32.0003C57.9289 17.6804 46.3203 6.07178 32.0003 6.07178Z" fill="#AEAEAE"/>
</svg>
