<svg width="64" height="64" viewBox="0 0 64 64" fill="none" xmlns="http://www.w3.org/2000/svg">
<path fill-rule="evenodd" clip-rule="evenodd" d="M29.8952 3.91107C30.5905 3.85965 31.2927 3.8335 32.0007 3.8335C32.7086 3.8335 33.4108 3.85965 34.1061 3.91107C34.9323 3.97217 35.5525 4.69144 35.4914 5.51761C35.4303 6.34378 34.711 6.964 33.8849 6.9029C33.2631 6.85692 32.6347 6.8335 32.0007 6.8335C31.3666 6.8335 30.7382 6.85692 30.1164 6.9029C29.2903 6.964 28.571 6.34378 28.5099 5.51761C28.4488 4.69144 29.069 3.97217 29.8952 3.91107ZM42.2222 7.31687C42.5822 6.57073 43.4789 6.25768 44.225 6.61765C45.4961 7.23089 46.7139 7.93667 47.8697 8.72616C48.5538 9.19344 48.7295 10.1268 48.2622 10.8108C47.795 11.4949 46.8616 11.6707 46.1776 11.2034C45.1446 10.4978 44.0566 9.86729 42.9214 9.31964C42.1753 8.95967 41.8622 8.063 42.2222 7.31687ZM21.7791 7.31687C22.1391 8.063 21.826 8.95967 21.0799 9.31964C19.9447 9.8673 18.8567 10.4978 17.8237 11.2034C17.1397 11.6707 16.2063 11.4949 15.7391 10.8109C15.2718 10.1268 15.4475 9.19344 16.1316 8.72617C17.2874 7.93667 18.5052 7.23089 19.7763 6.61765C20.5224 6.25768 21.4191 6.57074 21.7791 7.31687ZM53.19 15.7386C53.874 15.2713 54.8074 15.447 55.2747 16.1311C56.0641 17.2869 56.7699 18.5047 57.3832 19.7758C57.7431 20.522 57.4301 21.4186 56.6839 21.7786C55.9378 22.1386 55.0411 21.8255 54.6812 21.0794C54.1335 19.9442 53.503 18.8562 52.7974 17.8233C52.3302 17.1392 52.5059 16.2058 53.19 15.7386ZM10.8113 15.7386C11.4954 16.2058 11.6711 17.1392 11.2039 17.8233C10.4983 18.8562 9.86778 19.9442 9.32013 21.0794C8.96016 21.8255 8.06349 22.1386 7.31736 21.7786C6.57122 21.4186 6.25817 20.522 6.61813 19.7758C7.23138 18.5047 7.93716 17.2869 8.72665 16.1311C9.19393 15.447 10.1273 15.2713 10.8113 15.7386ZM5.5181 28.5094C6.34427 28.5705 6.96449 29.2898 6.90339 30.1159C6.8574 30.7377 6.83398 31.3661 6.83398 32.0002C6.83398 32.6342 6.8574 33.2626 6.90339 33.8844C6.96449 34.7106 6.34427 35.4298 5.5181 35.4909C4.69193 35.552 3.97266 34.9318 3.91156 34.1056C3.86013 33.4103 3.83398 32.7081 3.83398 32.0002C3.83398 31.2922 3.86013 30.59 3.91156 29.8947C3.97266 29.0685 4.69193 28.4483 5.5181 28.5094ZM58.4832 28.5094C59.3094 28.4483 60.0286 29.0685 60.0897 29.8947C60.1412 30.59 60.1673 31.2922 60.1673 32.0002C60.1673 32.7081 60.1412 33.4103 60.0897 34.1056C60.0286 34.9318 59.3094 35.552 58.4832 35.4909C57.657 35.4298 57.0368 34.7106 57.0979 33.8844C57.1439 33.2626 57.1673 32.6342 57.1673 32.0002C57.1673 31.3661 57.1439 30.7377 57.0979 30.1159C57.0368 29.2898 57.657 28.5705 58.4832 28.5094ZM56.6839 42.2217C57.4301 42.5817 57.7431 43.4784 57.3832 44.2245C56.7699 45.4956 56.0641 46.7134 55.2747 47.8692C54.8074 48.5533 53.874 48.729 53.19 48.2618C52.5059 47.7945 52.3302 46.8611 52.7974 46.1771C53.503 45.1441 54.1335 44.0561 54.6812 42.9209C55.0411 42.1748 55.9378 41.8618 56.6839 42.2217ZM7.31736 42.2217C8.06349 41.8618 8.96016 42.1748 9.32013 42.921C9.86778 44.0561 10.4983 45.1441 11.2039 46.1771C11.6712 46.8611 11.4954 47.7945 10.8113 48.2618C10.1273 48.729 9.19393 48.5533 8.72666 47.8692C7.93716 46.7134 7.23138 45.4956 6.61814 44.2245C6.25817 43.4784 6.57122 42.5817 7.31736 42.2217ZM48.2622 53.1895C48.7295 53.8735 48.5538 54.8069 47.8697 55.2742C46.7139 56.0637 45.4961 56.7694 44.225 57.3827C43.4789 57.7426 42.5822 57.4296 42.2222 56.6835C41.8623 55.9373 42.1753 55.0407 42.9214 54.6807C44.0566 54.133 45.1446 53.5025 46.1776 52.7969C46.8616 52.3297 47.795 52.5054 48.2622 53.1895ZM15.7391 53.1895C16.2063 52.5054 17.1397 52.3297 17.8237 52.7969C18.8567 53.5025 19.9447 54.133 21.0799 54.6807C21.826 55.0407 22.1391 55.9373 21.7791 56.6835C21.4191 57.4296 20.5225 57.7426 19.7763 57.3827C18.5052 56.7694 17.2874 56.0637 16.1316 55.2742C15.4475 54.8069 15.2718 53.8735 15.7391 53.1895ZM28.5099 58.4827C28.571 57.6565 29.2903 57.0363 30.1164 57.0974C30.7382 57.1434 31.3666 57.1668 32.0007 57.1668C32.6347 57.1668 33.2631 57.1434 33.8849 57.0974C34.711 57.0363 35.4303 57.6565 35.4914 58.4827C35.5525 59.3089 34.9323 60.0282 34.1061 60.0893C33.4108 60.1407 32.7086 60.1668 32.0007 60.1668C31.2927 60.1668 30.5905 60.1407 29.8952 60.0893C29.069 60.0282 28.4488 59.3089 28.5099 58.4827Z" fill="#AEAEAE"/>
<path d="M40.5668 30.7877C41.5002 31.3265 41.5002 32.6737 40.5668 33.2125L28.7668 40.0253C27.8335 40.5641 26.6668 39.8905 26.6668 38.8128L26.6668 25.1874C26.6668 24.1096 27.8335 23.4361 28.7668 23.9749L40.5668 30.7877Z" fill="#AEAEAE"/>
</svg>
