<svg width="64" height="64" viewBox="0 0 64 64" fill="none" xmlns="http://www.w3.org/2000/svg">
<path fill-rule="evenodd" clip-rule="evenodd" d="M32.9372 10.7764C32.3505 9.75048 30.8649 9.76888 30.3039 10.809L9.3753 49.6121C8.83405 50.6156 9.56082 51.8334 10.701 51.8334H53.8155C54.9722 51.8334 55.6973 50.5836 55.1231 49.5795L32.9372 10.7764ZM27.6634 9.38492C29.3418 6.27303 33.7866 6.218 35.5415 9.28738L57.7275 48.0904C59.4451 51.0946 57.276 54.8334 53.8155 54.8334H10.701C7.28989 54.8334 5.11558 51.1903 6.73487 48.188L27.6634 9.38492Z" fill="#AEAEAE"/>
<path fill-rule="evenodd" clip-rule="evenodd" d="M31.4562 25.9522C32.2846 25.9522 32.9562 26.6238 32.9562 27.4522V36.6141C32.9562 37.4425 32.2846 38.1141 31.4562 38.1141C30.6277 38.1141 29.9562 37.4425 29.9562 36.6141V27.4522C29.9562 26.6238 30.6277 25.9522 31.4562 25.9522Z" fill="#AEAEAE"/>
<path d="M33.747 43.4856C33.747 44.7505 32.7215 45.776 31.4565 45.776C30.1915 45.776 29.166 44.7505 29.166 43.4856C29.166 42.2206 30.1915 41.1951 31.4565 41.1951C32.7215 41.1951 33.747 42.2206 33.747 43.4856Z" fill="#AEAEAE"/>
</svg>
