<svg width="24" height="24" viewBox="0 0 24 24" fill="none" xmlns="http://www.w3.org/2000/svg">
<g clip-path="url(#clip0_37280_61055)">
<path d="M10.5269 0.374321C11.4424 -0.124774 12.5568 -0.124773 13.4724 0.374321L21.8462 4.93901C22.8052 5.46172 23.3996 6.45155 23.3996 7.5256V16.4744C23.3996 17.5484 22.8052 18.5383 21.8462 19.061L13.4724 23.6257C12.5568 24.1248 11.4424 24.1248 10.5269 23.6257L2.15297 19.061C1.19404 18.5383 0.599609 17.5484 0.599609 16.4744V7.5256C0.599609 6.45155 1.19404 5.46172 2.15297 4.939L10.5269 0.374321Z" fill="url(#paint0_linear_37280_61055)"/>
<path fill-rule="evenodd" clip-rule="evenodd" d="M8.91309 7.53706C7.65074 7.53706 6.62739 8.5604 6.62739 9.82276C6.62739 10.3141 6.78151 10.767 7.0441 11.139C7.45929 11.7271 8.14168 12.1085 8.91309 12.1085C8.97123 12.1085 9.02783 12.1065 9.08293 12.1026C9.0976 12.1009 9.11232 12.0993 9.12709 12.0979C10.1774 12.003 10.9729 11.1542 11.2091 9.69481C11.5346 7.68289 12.8511 5.93506 15.0868 5.93506C17.234 5.93506 18.9745 7.67564 18.9745 9.82276C18.9745 10.6547 18.7123 11.4279 18.266 12.0609C18.2655 12.0616 18.265 12.0623 18.2645 12.0629L15.1524 16.5291L15.1425 16.5438C15.1312 16.5603 15.1165 16.5811 15.0984 16.6056C15.0622 16.6545 15.0119 16.7185 14.9468 16.7924C14.8171 16.9398 14.6263 17.1295 14.3689 17.3177C13.8485 17.6981 13.0637 18.0652 12 18.0652C10.9362 18.0652 10.1514 17.6981 9.63099 17.3177C9.37368 17.1295 9.18282 16.9398 9.05312 16.7924C8.98808 16.7185 8.93776 16.6545 8.90153 16.6056C8.88339 16.5811 8.86872 16.5603 8.85743 16.5438L8.8475 16.5291L7.80058 15.0267C7.78701 15.008 7.77378 14.989 7.7609 14.9697L5.73389 12.0608C5.28763 11.4278 5.02539 10.6547 5.02539 9.82276C5.02539 7.67564 6.76597 5.93506 8.91309 5.93506C9.43185 5.93506 9.92878 6.0371 10.3834 6.22294C10.7929 6.39033 10.9892 6.85799 10.8218 7.26748C10.6544 7.67697 10.1867 7.87323 9.77724 7.70583C9.51171 7.59729 9.22043 7.53706 8.91309 7.53706ZM9.0878 14.0718C9.06433 14.0342 9.05075 13.9902 9.05075 13.9409C9.05075 13.8196 9.1382 13.7175 9.25319 13.6961C11.2962 13.5226 12.4832 11.8499 12.7905 9.95071C13.0404 8.40622 13.9131 7.53706 15.0868 7.53706C16.3492 7.53706 17.3725 8.5604 17.3725 9.82276C17.3725 10.3141 17.2184 10.767 16.9558 11.139L16.953 11.143L13.8238 15.6337L13.8198 15.64L13.8111 15.6521C13.7993 15.668 13.7771 15.6967 13.7442 15.734C13.6781 15.8091 13.5718 15.916 13.4234 16.0244C13.1325 16.2371 12.672 16.4632 12 16.4632C11.3279 16.4632 10.8674 16.2371 10.5765 16.0244C10.4281 15.916 10.3218 15.8091 10.2557 15.734C10.2229 15.6967 10.2007 15.668 10.1888 15.6521L10.1802 15.64L10.1762 15.6337L9.0878 14.0718Z" fill="white"/>
</g>
<defs>
<linearGradient id="paint0_linear_37280_61055" x1="4.92807" y1="2.28273" x2="17.7729" y2="21.6793" gradientUnits="userSpaceOnUse">
<stop stop-color="#FFE550"/>
<stop offset="1" stop-color="#D47800"/>
</linearGradient>
<clipPath id="clip0_37280_61055">
<rect width="24" height="24" fill="white"/>
</clipPath>
</defs>
</svg>
