<svg width="24" height="24" viewBox="0 0 24 24" fill="none" xmlns="http://www.w3.org/2000/svg">
<rect x="1.25879" y="1.25903" width="21.5" height="21.5" rx="3" fill="black" fill-opacity="0.1" stroke="white" stroke-width="1.5"/>
<path d="M9.3929 7.19995V8.58412M13.0935 8.58412H5.7002M11.2429 8.58412C11.2429 9.30948 11.1032 10.0348 10.8237 10.707C10.5442 11.3791 10.1382 11.9913 9.62583 12.5037C9.11342 13.0161 8.50119 13.4287 7.82907 13.7082C7.15694 13.9877 6.43824 14.1275 5.70622 14.1275M7.86225 10.4339C8.24822 11.5119 8.95362 12.4436 9.89192 13.1024C10.584 13.5948 11.8417 14.2204 12.7867 14.2204M18.3497 16.2968L15.3018 9.70866L12.254 16.2968M13.1258 14.4137H17.478" stroke="white" stroke-width="1.5" stroke-linecap="round" stroke-linejoin="round"/>
</svg>
