<svg width="24" height="24" viewBox="0 0 24 24" fill="none" xmlns="http://www.w3.org/2000/svg">
<path fill-rule="evenodd" clip-rule="evenodd" d="M9.73181 3.86809C10.4757 1.71161 13.5255 1.71162 14.2694 3.86809L15.6133 7.76376L19.7312 7.84831C22.0016 7.89494 22.9434 10.7764 21.1389 12.155L17.8416 14.6739L19.0351 18.6493C19.69 20.8304 17.2232 22.6119 15.3586 21.3045L12.0006 18.9499L8.64258 21.3045C6.77801 22.6119 4.31122 20.8304 4.96607 18.6493L6.15964 14.6739L2.86235 12.155C1.05779 10.7764 1.99964 7.89494 4.27004 7.84831L8.38796 7.76376L9.73181 3.86809ZM12.5678 4.45507C12.3818 3.91595 11.6194 3.91595 11.4334 4.45507L9.68014 9.5376L4.307 9.64794C3.73939 9.65959 3.50393 10.38 3.95507 10.7246L8.24158 13.9993L6.69005 19.1669C6.52634 19.7122 7.14303 20.1575 7.60917 19.8307L12.0006 16.7515L16.392 19.8307C16.8582 20.1575 17.4749 19.7122 17.3112 19.1669L15.7596 13.9993L20.0461 10.7246C20.4973 10.38 20.2618 9.65959 19.6942 9.64794L14.3211 9.5376L12.5678 4.45507Z" fill="black"/>
</svg>
