<svg width="24" height="24" viewBox="0 0 24 24" fill="none" xmlns="http://www.w3.org/2000/svg">
<path d="M8.73534 12.5197C9.18091 12.3828 9.65187 12.6089 9.82909 13.0294L9.86034 13.1154L9.90819 13.2492C10.1831 13.9092 10.9671 14.4796 12 14.4796C13.1014 14.4796 13.9156 13.8361 14.1406 13.1173L14.1728 13.0314C14.3522 12.6119 14.8238 12.3884 15.2685 12.5275C15.7429 12.676 16.0079 13.1811 15.8594 13.6554L15.7529 13.9455C15.1629 15.3628 13.6547 16.2804 12 16.2804C10.3457 16.2804 8.82883 15.3572 8.24413 13.9357L8.13964 13.6447L8.11718 13.5548C8.02807 13.1076 8.29013 12.6566 8.73534 12.5197Z" fill="black"/>
<path d="M9.58706 10.8566C10.2047 10.8566 10.7055 10.3559 10.7055 9.7382C10.7055 9.12051 10.2047 8.61978 9.58706 8.61978C8.96937 8.61978 8.46864 9.12051 8.46864 9.7382C8.46864 10.3559 8.96937 10.8566 9.58706 10.8566Z" fill="black"/>
<path d="M14.4128 10.8566C15.0305 10.8566 15.5312 10.3559 15.5312 9.7382C15.5312 9.12051 15.0305 8.61978 14.4128 8.61978C13.7951 8.61978 13.2944 9.12051 13.2944 9.7382C13.2944 10.3559 13.7951 10.8566 14.4128 10.8566Z" fill="black"/>
<path d="M22.4191 14.1002C23.0459 14.845 23.0108 15.9601 22.3074 16.6637L17.2007 21.7713C17.0319 21.9401 16.8025 22.0349 16.5638 22.035L14.4311 22.0346C14.1925 22.0346 13.9639 21.94 13.7951 21.7714C13.6263 21.6027 13.5314 21.3735 13.5314 21.1348L13.531 19.0284C13.531 18.7897 13.6262 18.5606 13.7949 18.3918L18.9031 13.2842C19.6366 12.551 20.8229 12.5408 21.5683 13.2619L22.2851 13.9566L22.4191 14.1002ZM15.3315 19.3994L15.3313 20.2348L16.1898 20.2343L21.0341 15.3918C21.0636 15.3622 21.0713 15.3189 21.0562 15.2827L21.0327 15.2495L20.3167 14.5555C20.2774 14.5176 20.2144 14.5183 20.1758 14.5569L15.3315 19.3994Z" fill="black"/>
<path d="M2.60295 12.2286C2.47632 7.03869 6.58132 2.72836 11.7712 2.60173C16.2304 2.49293 20.0383 5.50721 21.1041 9.64864L21.1552 9.8623C21.1631 9.89583 21.1699 9.92599 21.1749 9.94778C21.1774 9.95871 21.18 9.96781 21.1814 9.974C21.1821 9.97682 21.1822 9.97917 21.1826 9.98081L21.1836 9.98274L21.1995 10.0742C21.2554 10.5271 20.9601 10.9577 20.5056 11.0611C20.051 11.1645 19.5982 10.904 19.4528 10.4714L19.4282 10.3831L19.4281 10.3811C19.4278 10.3797 19.4266 10.3771 19.426 10.3744C19.4247 10.3688 19.4228 10.3609 19.4206 10.351C19.4159 10.3307 19.4102 10.3024 19.403 10.2714L19.3606 10.0975C18.4989 6.74931 15.4184 4.31406 11.8152 4.40198C7.61906 4.50436 4.30081 7.98858 4.4032 12.1847C4.4907 15.7712 7.04944 18.7186 10.4119 19.4338L10.7396 19.4952L10.83 19.5155C11.2699 19.6356 11.5564 20.0717 11.48 20.5312C11.4033 20.9908 10.9904 21.3113 10.5351 21.282L10.444 21.2715L10.0377 21.1945C5.87791 20.3098 2.71124 16.6666 2.60295 12.2286Z" fill="black"/>
</svg>
