<svg width="24" height="24" viewBox="0 0 24 24" fill="none" xmlns="http://www.w3.org/2000/svg">
<path d="M4.79848 2.56978C6.60114 1.42013 9.00737 0.957642 12.0001 0.957642C15.7201 0.957642 18.5459 1.67354 20.4166 3.54161C22.2876 5.41001 23.0047 8.23263 23.0047 11.948C23.0047 15.6634 22.2876 18.486 20.4166 20.3544C18.5459 22.2225 15.7201 22.9384 12.0001 22.9384C8.53283 22.9384 5.84448 22.3171 3.97834 20.7193C2.09147 19.1038 1.22771 16.6506 1.03724 13.4279C1.00791 12.9317 1.38638 12.5057 1.88257 12.4764C2.37876 12.4471 2.80478 12.8255 2.8341 13.3217C3.01072 16.3099 3.79001 18.1885 5.14901 19.352C6.52875 20.5333 8.6891 21.1384 12.0001 21.1384C15.5554 21.1384 17.7819 20.4416 19.1447 19.0807C20.5072 17.7202 21.2047 15.4976 21.2047 11.948C21.2047 8.39841 20.5072 6.17584 19.1447 4.8153C17.7819 3.45444 15.5554 2.75764 12.0001 2.75764C9.15073 2.75764 7.14822 3.20613 5.76635 4.08742C4.7414 4.74107 3.99129 5.67624 3.50007 7.00049C3.49033 7.03522 2.9732 8.89036 3.54576 9.26285C3.99209 9.55322 4.79249 9.21242 5.74952 8.80492C5.97614 8.70843 6.21157 8.60819 6.45312 8.51172L6.45386 8.51437C7.49756 8.12352 8.33185 8.18924 8.7044 8.39307C8.87563 8.48399 9.63254 8.96132 9.43077 10.2634L9.05013 12.649C8.90617 13.7162 8.90617 14.2899 9.49948 14.2899C9.84631 14.2899 10.6087 13.9046 11.0504 12.3979C11.1398 12.0959 11.2282 11.7853 11.2674 11.4735L11.6404 8.67774C11.6502 8.59873 11.7179 8.54028 11.7986 8.54028H13.7225C13.8185 8.54028 13.8926 8.62362 13.8817 8.71779L13.404 12.7464C13.2601 13.8764 13.404 14.291 13.8523 14.291C14.3638 14.291 15.2996 13.8613 15.6399 11.4595C15.6399 11.4595 15.8798 9.88351 15.8242 8.70588C15.8198 8.61388 15.8918 8.53919 15.9834 8.53919H17.7612C17.8473 8.53919 17.9171 8.6063 17.9204 8.69181C17.9433 9.20053 18.1756 10.81 19.2946 11.5612C19.3557 11.6013 19.3852 11.6727 19.3633 11.742V11.743C19.2608 12.0726 18.99 12.894 18.8692 13.2604L18.8616 13.2833C18.8322 13.372 18.7329 13.4186 18.6457 13.3807C18.325 13.2432 17.9368 12.9813 17.7415 12.8103C17.7154 12.7875 17.6761 12.8016 17.6674 12.8341C16.9432 15.487 15.2461 16.42 13.4509 16.42C12.2512 16.42 11.5979 15.881 11.3492 15.1049C11.3372 15.067 11.2871 15.0595 11.2642 15.093C10.3022 16.4871 8.78729 16.42 8.78729 16.42C7.12295 16.42 6.57217 15.1038 6.82848 13.2086L7.20257 10.8966C7.21457 10.8025 7.22984 10.5622 7.09787 10.4355C7.05936 10.3985 7.01302 10.3757 6.96455 10.3622L6.96484 10.3633C6.78797 10.3178 6.6576 10.3614 6.37249 10.4566C5.97127 10.5906 5.26361 10.827 3.68865 11.0619C2.79109 11.1957 1.9303 10.7665 1.52732 10.1885C1.18342 9.69531 1.16195 8.9161 1.35378 7.98769L1.35664 7.97357C1.86667 5.55685 2.95614 3.74472 4.79848 2.56978Z" fill="#282828"/>
</svg>
