<svg width="24" height="24" viewBox="0 0 24 24" fill="none" xmlns="http://www.w3.org/2000/svg">
<path fill-rule="evenodd" clip-rule="evenodd" d="M11.9974 22.001L11.9998 22.001L12.0023 22.001C12.2703 22.001 12.5271 21.8934 12.715 21.7024C13.4896 20.9156 14.4712 20.004 15.5176 19.0324C16.1503 18.4448 16.8069 17.835 17.4555 17.2178C19.1121 15.6413 20.7607 13.9759 21.5154 12.686L21.5167 12.6839C23.4299 9.39595 22.5189 5.16884 18.987 3.56095C17.4321 2.85165 15.9256 2.84445 14.5641 3.36908C13.5998 3.74063 12.7448 4.36376 12.0041 5.12697H11.9956C11.2549 4.36376 10.3999 3.74063 9.43565 3.36908C8.07408 2.84445 6.56762 2.85165 5.01275 3.56095C1.48078 5.16884 0.569839 9.39595 2.48303 12.6839L2.48426 12.686C3.23903 13.9759 4.88762 15.6413 6.54422 17.2178C7.19276 17.835 7.84936 18.4448 8.48213 19.0324C9.52846 20.004 10.5101 20.9156 11.2847 21.7024C11.4726 21.8934 11.7294 22.001 11.9974 22.001Z" fill="#FF3C7D"/>
<path fill-rule="evenodd" clip-rule="evenodd" d="M11.9974 22.001L11.9998 22.001L12.0023 22.001C12.2703 22.001 12.5271 21.8934 12.715 21.7024C13.4896 20.9156 14.4712 20.004 15.5176 19.0324C16.1503 18.4448 16.8069 17.835 17.4555 17.2178C19.1121 15.6413 20.7607 13.9759 21.5154 12.686L21.5167 12.6839C23.4299 9.39595 22.5189 5.16884 18.987 3.56095C17.4321 2.85165 15.9256 2.84445 14.5641 3.36908C13.5998 3.74063 12.7448 4.36376 12.0041 5.12697H11.9956C11.2549 4.36376 10.3999 3.74063 9.43565 3.36908C8.07408 2.84445 6.56762 2.85165 5.01275 3.56095C1.48078 5.16884 0.569839 9.39595 2.48303 12.6839L2.48426 12.686C3.23903 13.9759 4.88762 15.6413 6.54422 17.2178C7.19276 17.835 7.84936 18.4448 8.48213 19.0324C9.52846 20.004 10.5101 20.9156 11.2847 21.7024C11.4726 21.8934 11.7294 22.001 11.9974 22.001Z" fill="url(#paint0_linear_15084_434)"/>
<defs>
<linearGradient id="paint0_linear_15084_434" x1="22.4968" y1="2.99927" x2="1.50293" y2="2.99927" gradientUnits="userSpaceOnUse">
<stop stop-color="white" stop-opacity="0"/>
<stop offset="1" stop-color="white" stop-opacity="0.4"/>
</linearGradient>
</defs>
</svg>
