<svg width="24" height="24" viewBox="0 0 24 24" fill="none" xmlns="http://www.w3.org/2000/svg">
<path d="M12.6379 11.3652C12.6379 11.3652 12.6379 11.3651 12 12C11.3621 11.3651 11.3622 11.3652 11.3622 11.3652C11.5311 11.1955 11.7606 11.1001 12 11.1001C12.2395 11.1001 12.469 11.1955 12.6379 11.3652Z" fill="black"/>
<path fill-rule="evenodd" clip-rule="evenodd" d="M12.5736 2.15715L12.5777 2.15565C12.8538 2.05386 13.1623 2.09351 13.4037 2.26181C13.6451 2.43011 13.789 2.70581 13.789 3.0001C13.789 3.7758 14.0955 4.36677 14.6527 4.95334C15.1241 5.44968 15.7133 5.88468 16.4042 6.39468C16.5908 6.53241 16.7847 6.67562 16.9858 6.82698C18.8204 8.20797 20.9001 10.049 20.9001 13.706C20.9001 18.3079 16.8354 21.9001 12.0001 21.9001C7.16481 21.9001 3.1001 18.3079 3.1001 13.706C3.1001 9.59563 5.56473 6.68706 7.88815 4.85966C9.05771 3.93978 10.2223 3.26772 11.0925 2.82573C11.5288 2.60416 11.8939 2.43893 12.1527 2.3281C12.2822 2.27265 12.3852 2.23072 12.4575 2.20207C12.4936 2.18775 12.522 2.17674 12.5423 2.16901L12.5663 2.15988L12.5736 2.15715ZM13.3475 6.19296C12.8397 5.65824 12.4148 5.03976 12.1817 4.29432C12.0946 4.3367 12.0031 4.38211 11.9077 4.43058C11.1112 4.83512 10.0536 5.44654 9.00093 6.27448C6.87991 7.9427 4.9001 10.3871 4.9001 13.706C4.9001 15.8971 6.14641 17.8807 8.07884 19.0388C7.88321 18.5124 7.77673 17.942 7.77673 17.353C7.77673 16.6313 8.06445 15.8891 8.39833 15.2501C8.74263 14.5912 9.19122 13.9398 9.62346 13.3745C10.0581 12.8061 10.4906 12.3064 10.8133 11.9495C10.9751 11.7706 11.1104 11.6264 11.2061 11.5262C11.254 11.476 11.292 11.4367 11.3186 11.4095L11.3496 11.3779L11.3582 11.3691L11.3622 11.3652L12 12L12.6379 11.3652L12.6418 11.3691L12.6505 11.3779L12.6815 11.4095C12.7081 11.4367 12.7461 11.476 12.7939 11.5262C12.8896 11.6264 13.025 11.7706 13.1868 11.9495C13.5095 12.3064 13.942 12.8061 14.3766 13.3745C14.8089 13.9398 15.2574 14.5912 15.6017 15.2501C15.9356 15.8891 16.2233 16.6313 16.2233 17.353C16.2233 17.942 16.1168 18.5125 15.9212 19.0389C17.8537 17.8809 19.1001 15.8972 19.1001 13.706C19.1001 10.9341 17.6243 9.56056 15.9033 8.26508C15.7415 8.14329 15.5738 8.01976 15.4031 7.8941C14.6962 7.37342 13.9393 6.816 13.3475 6.19296ZM12.9468 14.468C12.6127 14.0312 12.2772 13.6351 12 13.3225C11.7229 13.6351 11.3873 14.0312 11.0533 14.468C10.6547 14.9892 10.2725 15.5501 9.99367 16.0837C9.70443 16.6372 9.57673 17.0677 9.57673 17.353C9.57673 18.9508 10.7386 20.1001 12 20.1001C13.2615 20.1001 14.4233 18.9508 14.4233 17.353C14.4233 17.0677 14.2956 16.6372 14.0064 16.0837C13.7276 15.5501 13.3454 14.9892 12.9468 14.468Z" fill="black"/>
</svg>
