<svg width="24" height="24" viewBox="0 0 24 24" fill="none" xmlns="http://www.w3.org/2000/svg">
<g clip-path="url(#clip0_26746_7352)">
<path d="M0 12C0 3.3601 3.3601 0 12 0C20.6399 0 24 3.3601 24 12C24 20.6399 20.6399 24 12 24C3.3601 24 0 20.6399 0 12Z" fill="#00CBD5"/>
<path d="M13.2071 5.32153C14.9543 4.7064 16.8386 5.79428 17.1795 7.61501L17.2194 7.82787C17.346 8.50441 17.7 9.11741 18.2225 9.56538L18.3869 9.70634C19.7933 10.9119 19.7933 13.0877 18.3869 14.2933L18.2225 14.4342C17.7 14.8822 17.346 15.4952 17.2194 16.1718L17.1795 16.3846C16.8386 18.2054 14.9543 19.2932 13.2071 18.6781L13.0028 18.6062C12.3536 18.3776 11.6457 18.3776 10.9965 18.6062L10.7922 18.6781C9.04497 19.2932 7.16072 18.2054 6.8198 16.3846L6.77994 16.1718C6.65327 15.4952 6.29935 14.8822 5.77679 14.4342L5.61237 14.2933C4.20603 13.0877 4.20603 10.9119 5.61237 9.70634L5.77679 9.56538C6.29935 9.11741 6.65327 8.50441 6.77994 7.82787L6.8198 7.61501C7.16072 5.79428 9.04497 4.7064 10.7922 5.32153L10.9965 5.39344C11.6457 5.62201 12.3536 5.62201 13.0028 5.39344L13.2071 5.32153Z" fill="white"/>
<path d="M12.2882 8.60671C12.2882 8.08047 12.6593 7.69141 13.177 7.69141C13.6947 7.69141 14.0775 8.06868 14.0775 8.60671V12.6677C14.0775 14.5326 13.1317 15.8477 11.2643 15.8477C10.308 15.8477 8.90039 15.5155 8.90039 14.3944C8.90039 13.9142 9.18191 13.5819 9.64268 13.5819C10.1825 13.5819 10.4303 14.0857 11.0724 14.0857C12.0066 14.0857 12.2882 13.4791 12.2882 12.6666V8.60671Z" fill="#01D5DF"/>
</g>
<defs>
<clipPath id="clip0_26746_7352">
<rect width="24" height="24" fill="white"/>
</clipPath>
</defs>
</svg>
