<svg width="24" height="24" viewBox="0 0 24 24" fill="none" xmlns="http://www.w3.org/2000/svg">
<path d="M19.4612 5.38978C17.6369 3.48432 14.688 3.4922 12.8745 5.40903L11.959 6.38146L10.936 5.31275C9.16587 3.46331 6.3036 3.47119 4.54259 5.33114L4.34933 5.53507C2.58915 7.39502 2.59665 10.4024 4.36682 12.2528L5.40644 13.3398L5.39977 13.3468L11.5225 19.7442C11.7891 20.0225 12.2197 20.0208 12.4838 19.7398L19.4787 12.3105C21.2922 10.3937 21.2847 7.29524 19.4604 5.38978H19.4612Z" fill="#FF73BD"/>
<path d="M7.75002 5.06851C8.66468 5.06851 9.52519 5.44138 10.1741 6.11971L11.1971 7.18841L11.6669 7.67944C11.8327 7.85274 12.1001 7.85099 12.2642 7.67681L12.7298 7.18141L13.6437 6.21074C14.385 5.42737 15.3972 5.03 16.4593 5.1149C17.1457 5.16917 17.8071 5.43525 18.3519 5.87726C20.0871 7.28557 20.2095 9.92625 18.7101 11.5105L12.3883 18.2255C12.1742 18.4531 11.8252 18.454 11.6094 18.229L6.93116 13.3407L6.93782 13.3337L6.17227 12.5337L5.17848 11.4956C4.53205 10.8208 4.13636 9.914 4.11887 8.95645C4.10138 7.99891 4.45708 7.03699 5.1185 6.33853L5.31176 6.13459C5.96152 5.4475 6.82786 5.06939 7.74918 5.06939M7.75002 3.93066C6.58878 3.93066 5.42755 4.39806 4.54455 5.33109L4.35128 5.53503C2.59111 7.39497 2.5986 10.4024 4.36878 12.2527L5.40839 13.3398L5.40173 13.3468L11.5244 19.7441C11.6569 19.8824 11.8302 19.9516 12.0026 19.9516C12.175 19.9516 12.3525 19.8807 12.4849 19.7398L19.4798 12.3105C21.2933 10.3936 21.2858 7.29519 19.4615 5.38974C18.5543 4.44007 17.3664 3.96567 16.1785 3.96567C14.9907 3.96567 13.7861 4.44707 12.8756 5.40899L12.25 6.07332C12.0901 6.244 11.8285 6.24487 11.6661 6.07595L10.9363 5.31359C10.055 4.39105 8.90209 3.93066 7.75002 3.93066Z" fill="#FFA0D2"/>
<path d="M7.35883 7.91144L7.64123 6.77885C7.67205 6.65456 7.84032 6.65368 7.87198 6.77885L8.16104 7.90969C8.2585 8.29131 8.54256 8.58803 8.90659 8.68868L9.98452 8.9854C10.1028 9.01778 10.1036 9.19459 9.98452 9.22785L8.90826 9.53157C8.54506 9.63397 8.26266 9.93244 8.16687 10.3149L7.88447 11.4475C7.85365 11.5718 7.68538 11.5727 7.65372 11.4475L7.36467 10.3167C7.2672 9.93506 6.98314 9.63835 6.61911 9.53769L5.54118 9.24098C5.42289 9.20859 5.42206 9.03179 5.54118 8.99853L6.61744 8.69481C6.98064 8.5924 7.26304 8.29394 7.35883 7.91144Z" fill="white"/>
</svg>
