<svg width="24" height="24" viewBox="0 0 24 24" fill="none" xmlns="http://www.w3.org/2000/svg">
<path fill-rule="evenodd" clip-rule="evenodd" d="M12.0002 0.649902C12.4696 0.649902 12.8502 1.03046 12.8502 1.4999V3.42539C12.8502 3.89483 12.4696 4.27539 12.0002 4.27539C11.5307 4.27539 11.1502 3.89483 11.1502 3.42539V1.4999C11.1502 1.03046 11.5307 0.649902 12.0002 0.649902Z" fill="black"/>
<path fill-rule="evenodd" clip-rule="evenodd" d="M12.0002 19.7244C11.5308 19.7244 11.1502 20.105 11.1502 20.5744V22.4999C11.1502 22.9694 11.5308 23.3499 12.0002 23.3499C12.4696 23.3499 12.8502 22.9694 12.8502 22.4999V20.5744C12.8502 20.105 12.4696 19.7244 12.0002 19.7244Z" fill="black"/>
<path fill-rule="evenodd" clip-rule="evenodd" d="M23.3504 11.9999C23.3504 12.4693 22.9698 12.8499 22.5004 12.8499H20.5749C20.1055 12.8499 19.7249 12.4693 19.7249 11.9999C19.7249 11.5305 20.1055 11.1499 20.5749 11.1499H22.5004C22.9698 11.1499 23.3504 11.5305 23.3504 11.9999Z" fill="black"/>
<path fill-rule="evenodd" clip-rule="evenodd" d="M4.27587 11.9999C4.27587 11.5305 3.89532 11.1499 3.42587 11.1499H1.50039C1.03095 11.1499 0.650391 11.5305 0.650391 11.9999C0.650391 12.4693 1.03095 12.8499 1.50039 12.8499H3.42587C3.89532 12.8499 4.27587 12.4693 4.27587 11.9999Z" fill="black"/>
<path fill-rule="evenodd" clip-rule="evenodd" d="M20.0257 3.97391C20.3577 4.30586 20.3577 4.84405 20.0257 5.176L18.6642 6.53753C18.3323 6.86947 17.7941 6.86947 17.4621 6.53753C17.1302 6.20558 17.1302 5.66739 17.4621 5.33544L18.8237 3.97391C19.1556 3.64197 19.6938 3.64197 20.0257 3.97391Z" fill="black"/>
<path fill-rule="evenodd" clip-rule="evenodd" d="M6.53795 17.4617C6.206 17.1298 5.66781 17.1298 5.33587 17.4617L3.97435 18.8233C3.6424 19.1552 3.6424 19.6934 3.97435 20.0253C4.30629 20.3573 4.84448 20.3573 5.17642 20.0253L6.53795 18.6638C6.86989 18.3319 6.86989 17.7937 6.53795 17.4617Z" fill="black"/>
<path fill-rule="evenodd" clip-rule="evenodd" d="M20.026 20.0257C19.694 20.3576 19.1558 20.3576 18.8239 20.0257L17.4624 18.6642C17.1304 18.3322 17.1304 17.794 17.4624 17.4621C17.7943 17.1301 18.3325 17.1301 18.6644 17.4621L20.026 18.8236C20.3579 19.1555 20.3579 19.6937 20.026 20.0257Z" fill="black"/>
<path fill-rule="evenodd" clip-rule="evenodd" d="M6.53839 6.53786C6.87033 6.20591 6.87033 5.66772 6.53839 5.33578L5.17687 3.97425C4.84492 3.6423 4.30673 3.6423 3.97479 3.97425C3.64284 4.30619 3.64284 4.84439 3.97479 5.17633L5.33631 6.53786C5.66825 6.86981 6.20644 6.86981 6.53839 6.53786Z" fill="black"/>
<path fill-rule="evenodd" clip-rule="evenodd" d="M15.2333 15.2337C17.0191 13.4478 17.0191 10.5524 15.2332 8.76655C13.4474 6.98068 10.552 6.98067 8.76614 8.76649C6.98033 10.5523 6.98034 13.4477 8.7662 15.2336C10.5521 17.0195 13.4475 17.0195 15.2333 15.2337ZM16.506 7.49375C18.9948 9.98255 18.9949 14.0177 16.5061 16.5065C14.0173 18.9952 9.9822 18.9952 7.49341 16.5064C5.00463 14.0176 5.00458 9.98248 7.49336 7.49369C9.98213 5.00491 14.0172 5.00496 16.506 7.49375Z" fill="black"/>
</svg>
