<svg width="17" height="16" viewBox="0 0 17 16" fill="none" xmlns="http://www.w3.org/2000/svg">
<path d="M11.5479 1.00488C11.855 1.0146 12.1645 1.03251 12.4678 1.08691C12.775 1.14137 13.0618 1.23303 13.3418 1.375C13.6157 1.51493 13.8683 1.69748 14.0859 1.91504C14.3037 2.13285 14.4869 2.38595 14.627 2.66016C14.7689 2.94016 14.8606 3.22794 14.915 3.53516C14.9695 3.83848 14.9883 4.14786 14.9961 4.45508C15 4.595 15.002 4.73702 15.002 4.87695V5.37891L14.9961 10.6201C14.9961 10.7873 14.998 10.9548 14.9961 11.1221C14.9961 11.262 14.9941 11.404 14.9902 11.5439C14.9805 11.8512 14.9636 12.1605 14.9092 12.4639C14.8547 12.773 14.763 13.0589 14.6211 13.3389C14.4811 13.615 14.2979 13.8662 14.0801 14.084C13.8625 14.3015 13.6098 14.4841 13.3359 14.624C13.0578 14.766 12.7692 14.8577 12.4619 14.9121C12.1587 14.9665 11.8491 14.9864 11.542 14.9941C11.4021 14.998 11.26 15 11.1201 15H4.87598C4.73604 15 4.59404 14.998 4.4541 14.9941C4.14689 14.9844 3.83751 14.9665 3.53418 14.9121C3.22696 14.8577 2.94113 14.7659 2.66113 14.624C2.387 14.484 2.13379 14.3017 1.91602 14.084C1.6982 13.8662 1.51502 13.6131 1.375 13.3389C1.2331 13.0589 1.14234 12.771 1.08789 12.4639C1.03344 12.1605 1.01364 11.8512 1.00586 11.5439C1.00197 11.404 1 11.262 1 11.1221V4.87695C1.00194 4.73703 1.00392 4.59696 1.00586 4.45703C1.01558 4.14981 1.03345 3.84044 1.08789 3.53711C1.14234 3.22803 1.2331 2.94205 1.375 2.66211C1.51502 2.38596 1.70016 2.1348 1.91797 1.91699C2.13573 1.69927 2.38702 1.51693 2.66309 1.37695C2.94114 1.23309 3.22892 1.1433 3.53613 1.08691C3.83945 1.03249 4.14885 1.01266 4.45605 1.00488C4.59599 1.001 4.73799 0.999023 4.87793 0.999023H11.124C11.2639 1.00097 11.406 1.00294 11.5479 1.00488ZM7.54199 5.30469C5.36253 5.30469 3.59778 7.07098 3.59766 9.24902C3.59766 11.4272 5.36384 13.1943 7.54199 13.1943C9.72012 13.1943 11.4863 11.4272 11.4863 9.24902C11.4862 7.071 9.72004 5.30471 7.54199 5.30469ZM7.54199 7.52734C8.49102 7.52737 9.26453 8.30001 9.26465 9.24902C9.26465 10.1981 8.4911 10.9717 7.54199 10.9717C6.59286 10.9717 5.81934 10.1982 5.81934 9.24902C5.81946 8.3 6.59294 7.52734 7.54199 7.52734ZM11.4463 2.5498C10.6276 2.54989 9.96402 3.21353 9.96387 4.03223C9.96387 4.85106 10.6275 5.51456 11.4463 5.51465C12.2652 5.51465 12.9287 4.85111 12.9287 4.03223C12.9286 3.21347 12.2651 2.5498 11.4463 2.5498Z" fill="white"/>
</svg>
