<svg width="24" height="24" viewBox="0 0 24 24" fill="none" xmlns="http://www.w3.org/2000/svg">
<path fill-rule="evenodd" clip-rule="evenodd" d="M4.79961 11.1C4.30255 11.1 3.89961 11.503 3.89961 12C3.89961 12.4971 4.30255 12.9 4.79961 12.9C5.29667 12.9 5.69961 12.4971 5.69961 12C5.69961 11.503 5.29667 11.1 4.79961 11.1ZM2.09961 12C2.09961 10.5089 3.30844 9.30005 4.79961 9.30005C6.29078 9.30005 7.49961 10.5089 7.49961 12C7.49961 13.4912 6.29078 14.7 4.79961 14.7C3.30844 14.7 2.09961 13.4912 2.09961 12ZM11.9996 11.1C11.5026 11.1 11.0996 11.503 11.0996 12C11.0996 12.4971 11.5026 12.9 11.9996 12.9C12.4967 12.9 12.8996 12.4971 12.8996 12C12.8996 11.503 12.4967 11.1 11.9996 11.1ZM9.29961 12C9.29961 10.5089 10.5084 9.30005 11.9996 9.30005C13.4908 9.30005 14.6996 10.5089 14.6996 12C14.6996 13.4912 13.4908 14.7 11.9996 14.7C10.5084 14.7 9.29961 13.4912 9.29961 12ZM19.2 11.1C18.7029 11.1 18.3 11.503 18.3 12C18.3 12.4971 18.7029 12.9 19.2 12.9C19.6971 12.9 20.1 12.4971 20.1 12C20.1 11.503 19.6971 11.1 19.2 11.1ZM16.5 12C16.5 10.5089 17.7088 9.30005 19.2 9.30005C20.6912 9.30005 21.9 10.5089 21.9 12C21.9 13.4912 20.6912 14.7 19.2 14.7C17.7088 14.7 16.5 13.4912 16.5 12Z" fill="black"/>
</svg>
