<svg width="24" height="24" viewBox="0 0 24 24" fill="none" xmlns="http://www.w3.org/2000/svg">
<path d="M17.5752 1.01025C18.0579 1.02553 18.5439 1.05362 19.0205 1.13916C19.503 1.22471 19.9518 1.36839 20.3916 1.59131C20.8224 1.81128 21.2203 2.09778 21.5625 2.43994C21.9047 2.78215 22.1921 3.18002 22.4121 3.61084C22.6351 4.05071 22.7787 4.50321 22.8643 4.98584C22.9498 5.46238 22.98 5.94851 22.9922 6.43115C22.9983 6.65102 23.001 6.87437 23.001 7.09424V7.88232L22.9922 16.1167C22.9922 16.3794 22.9952 16.6421 22.9922 16.9048C22.9922 17.1248 22.9895 17.3479 22.9834 17.5679C22.9681 18.0506 22.94 18.5365 22.8545 19.0132C22.7689 19.499 22.6254 19.9482 22.4023 20.3882C22.1824 20.822 21.8949 21.2159 21.5527 21.5581C21.2105 21.9003 20.8136 22.1877 20.3828 22.4077C19.9459 22.6307 19.4935 22.7743 19.0107 22.8599C18.5342 22.9454 18.0481 22.9765 17.5654 22.9888C17.3456 22.9949 17.1222 22.9976 16.9023 22.9976H7.0918C6.87184 22.9976 6.64867 22.9949 6.42871 22.9888C5.94595 22.9735 5.46005 22.9454 4.9834 22.8599C4.50064 22.7743 4.05131 22.6308 3.61133 22.4077C3.18057 22.1877 2.78358 21.9003 2.44141 21.5581C2.09923 21.2159 1.81178 20.819 1.5918 20.3882C1.36875 19.9482 1.2252 19.4959 1.13965 19.0132C1.0541 18.5365 1.02394 18.0506 1.01172 17.5679C1.00561 17.3479 1.00195 17.1248 1.00195 16.9048V7.09424C1.00501 6.87433 1.00866 6.65399 1.01172 6.43408C1.02699 5.95138 1.05412 5.46537 1.13965 4.98877C1.22519 4.503 1.36878 4.05372 1.5918 3.61377C1.81174 3.17998 2.10222 2.78601 2.44434 2.44385C2.78646 2.10172 3.18052 1.81421 3.61426 1.59424C4.05113 1.36817 4.50364 1.22777 4.98633 1.13916C5.46297 1.05361 5.94889 1.02248 6.43164 1.01025C6.65163 1.00414 6.87473 1.00146 7.09473 1.00146H16.9092C17.1291 1.00452 17.3523 1.0072 17.5752 1.01025ZM11.2812 7.76514C7.85697 7.76514 5.08311 10.5403 5.08301 13.9624C5.08301 17.3846 7.85908 20.1606 11.2812 20.1606C14.7034 20.1606 17.4785 17.3846 17.4785 13.9624C17.4784 10.5403 14.7033 7.76515 11.2812 7.76514ZM11.2812 11.2563C12.7724 11.2564 13.9872 12.4713 13.9873 13.9624C13.9873 15.4536 12.7724 16.6684 11.2812 16.6685C9.79004 16.6685 8.5752 15.4536 8.5752 13.9624C8.5753 12.4713 9.7901 11.2563 11.2812 11.2563ZM17.416 3.43701C16.1297 3.43727 15.0871 4.47982 15.0869 5.76611C15.0869 7.05253 16.1297 8.09593 17.416 8.09619C18.7026 8.09619 19.7461 7.05269 19.7461 5.76611C19.746 4.47965 18.7025 3.43701 17.416 3.43701Z" fill="white"/>
</svg>
