<svg width="24" height="24" viewBox="0 0 24 24" fill="none" xmlns="http://www.w3.org/2000/svg">
<path d="M11.9999 2.1001C9.15561 2.1001 6.84988 4.40583 6.84988 7.2501V11.2499C6.84988 14.0942 9.15561 16.3999 11.9999 16.3999C14.8441 16.3999 17.1499 14.0942 17.1499 11.2499V7.2501C17.1499 4.40583 14.8441 2.1001 11.9999 2.1001Z" fill="black"/>
<path fill-rule="evenodd" clip-rule="evenodd" d="M4.40049 12.1055C4.89452 12.0507 5.33942 12.4068 5.3942 12.9008C5.51424 13.9832 6.21237 15.2902 7.40357 16.3389C8.57991 17.3745 10.1739 18.1 11.9996 18.1C13.8254 18.1 15.4194 17.3745 16.5958 16.3389C17.7871 15.2902 18.4853 13.9831 18.6053 12.9008C18.6601 12.4068 19.105 12.0507 19.599 12.1055C20.093 12.1603 20.4491 12.6052 20.3943 13.0992C20.2143 14.722 19.2335 16.415 17.7852 17.69C16.5151 18.8081 14.8359 19.6504 12.8996 19.8531V21.7431C12.8996 22.2402 12.4967 22.6431 11.9996 22.6431C11.5026 22.6431 11.0996 22.2402 11.0996 21.7431V19.8531C9.16342 19.6504 7.48424 18.8081 6.21415 17.69C4.76591 16.415 3.78514 14.722 3.60517 13.0992C3.55039 12.6052 3.90646 12.1603 4.40049 12.1055Z" fill="black"/>
</svg>
