<svg width="24" height="24" viewBox="0 0 24 24" fill="none" xmlns="http://www.w3.org/2000/svg">
<path d="M11.9991 8.36905C13.3241 8.36905 14.3984 9.44303 14.3985 10.7685C14.3985 11.7753 13.7781 12.6358 12.8995 12.9921V21.5966C12.8994 22.0948 12.4961 22.4989 11.9991 22.4989C11.5023 22.4986 11.0997 22.0946 11.0997 21.5966V12.9921C10.2209 12.6358 9.60063 11.7753 9.60063 10.7685C9.60069 9.44319 10.6743 8.36932 11.9991 8.36905Z" fill="black"/>
<path d="M5.01762 3.76358C5.36896 3.41213 5.93873 3.41215 6.29009 3.76358C6.64141 4.11503 6.64136 4.68457 6.29009 5.03604C2.96902 8.35827 2.96904 13.745 6.29009 17.0673C6.64141 17.4187 6.64137 17.9883 6.29009 18.3398C5.93874 18.6912 5.36897 18.6912 5.01762 18.3398C0.994161 14.3146 0.99409 7.78869 5.01762 3.76358Z" fill="black"/>
<path d="M17.71 3.76358C18.0614 3.41223 18.6312 3.41215 18.9825 3.76358C23.0059 7.78868 23.0058 14.3146 18.9825 18.3398C18.6311 18.6912 18.0614 18.6912 17.71 18.3398C17.3587 17.9883 17.3587 17.4188 17.71 17.0673C21.031 13.7451 21.031 8.35825 17.71 5.03604C17.3587 4.68457 17.3587 4.11505 17.71 3.76358Z" fill="black"/>
<path d="M14.7823 6.32218C15.1336 5.97071 15.7034 5.97073 16.0547 6.32218C18.666 8.9344 18.666 13.1699 16.0547 15.7821C15.7034 16.1334 15.1335 16.1335 14.7823 15.7821C14.4309 15.4307 14.4309 14.8602 14.7823 14.5087C16.6908 12.5994 16.6909 9.5039 14.7823 7.59464C14.4312 7.2432 14.4312 6.67358 14.7823 6.32218Z" fill="black"/>
<path d="M7.94536 6.32218C8.29671 5.9707 8.86647 5.9707 9.21782 6.32218C9.5687 6.67363 9.56888 7.24329 9.21782 7.59464C7.30922 9.50391 7.30922 12.5994 9.21782 14.5087C9.56882 14.8601 9.56876 15.4297 9.21782 15.7812C8.86648 16.1326 8.29671 16.1326 7.94536 15.7812C5.33408 13.169 5.33413 8.9344 7.94536 6.32218Z" fill="black"/>
</svg>
