<svg width="24" height="24" viewBox="0 0 24 24" fill="none" xmlns="http://www.w3.org/2000/svg">
<path d="M11.9897 2.10986C14.1569 2.10986 15.9616 2.85222 17.2658 4.1931L15.9928 5.4661C15.0538 4.49155 13.7244 3.90986 11.9897 3.90986C10.1462 3.90986 8.7737 4.57554 7.84743 5.6724C6.90531 6.78803 6.35176 8.43873 6.35176 10.5151V15.1072L4.5518 16.9071L4.55176 16.8985V10.5151C4.55176 8.1361 5.18595 6.03419 6.47219 4.51105C7.77429 2.96914 9.67082 2.10986 11.9897 2.10986Z" fill="black"/>
<path fill-rule="evenodd" clip-rule="evenodd" d="M19.1045 7.4361L21.6526 4.88796C22.0041 4.53649 22.0041 3.96664 21.6526 3.61517C21.3012 3.26369 20.7313 3.26369 20.3799 3.61517L3.61517 20.3799C3.26369 20.7313 3.26369 21.3012 3.61517 21.6526C3.96664 22.0041 4.53649 22.0041 4.88796 21.6526L7.63074 18.9099H8.62796C8.84423 20.5792 10.2713 21.8687 11.9996 21.8687C13.7279 21.8687 15.155 20.5792 15.3713 18.9099H19.4101C20.1501 18.9099 20.5865 18.3599 20.754 17.9386C20.9251 17.5085 20.9585 16.9014 20.6119 16.3921C20.0482 15.564 19.5126 14.3577 19.5113 12.9183L19.5386 10.6447L19.5387 10.6339C19.5387 9.49445 19.3944 8.41778 19.1045 7.4361ZM17.6045 8.93614L9.43074 17.1099H18.9321C18.2915 16.0762 17.7113 14.6336 17.7113 12.9131V12.9022L17.7387 10.6286C17.7384 10.0289 17.6924 9.46389 17.6045 8.93614ZM13.538 18.9099H10.4612C10.6527 19.579 11.269 20.0688 11.9996 20.0688C12.7303 20.0688 13.3465 19.579 13.538 18.9099Z" fill="black"/>
</svg>
