<svg width="24" height="24" viewBox="0 0 24 24" fill="none" xmlns="http://www.w3.org/2000/svg">
<path d="M11.0849 0.507323C11.6465 0.163575 12.3535 0.163575 12.9151 0.507323L13.9103 1.11636C14.237 1.31628 14.6201 1.40373 15.0012 1.36534L16.162 1.2484C16.8172 1.1824 17.4541 1.48913 17.8111 2.04254L18.4434 3.02304C18.651 3.34489 18.9582 3.58993 19.3182 3.72067L20.4148 4.11899C21.0338 4.3438 21.4746 4.89651 21.556 5.54997L21.7003 6.70774C21.7477 7.08779 21.9182 7.44186 22.1858 7.71585L23.001 8.55053C23.4611 9.02164 23.6184 9.71085 23.4083 10.3349L23.036 11.4407C22.9138 11.8036 22.9138 12.1966 23.036 12.5596L23.4083 13.6653C23.6184 14.2894 23.4611 14.9786 23.001 15.4497L22.1858 16.2844C21.9182 16.5584 21.7477 16.9125 21.7003 17.2925L21.556 18.4503C21.4746 19.1037 21.0338 19.6564 20.4149 19.8813L19.3182 20.2796C18.9582 20.4103 18.651 20.6554 18.4434 20.9772L17.8111 21.9577C17.4541 22.5111 16.8172 22.8179 16.162 22.7518L15.0012 22.6349C14.6201 22.5965 14.237 22.684 13.9103 22.8839L12.9151 23.4929C12.3535 23.8367 11.6465 23.8367 11.0849 23.4929L10.0897 22.8839C9.76303 22.684 9.37989 22.5965 8.99883 22.6349L7.83798 22.7518C7.18278 22.8179 6.54585 22.5111 6.18894 21.9577L5.55659 20.9772C5.34902 20.6554 5.04176 20.4103 4.68178 20.2796L3.58515 19.8813C2.9662 19.6564 2.52543 19.1037 2.44398 18.4503L2.29968 17.2925C2.25231 16.9125 2.08179 16.5584 1.81419 16.2844L0.998986 15.4497C0.53887 14.9786 0.381563 14.2894 0.591707 13.6653L0.964031 12.5596C1.08625 12.1966 1.08625 11.8036 0.964031 11.4407L0.591707 10.3349C0.381562 9.71085 0.538871 9.02164 0.998986 8.55053L1.8142 7.71585C2.08179 7.44186 2.25231 7.08779 2.29968 6.70774L2.44398 5.54997C2.52543 4.89651 2.9662 4.3438 3.58515 4.11899L4.68178 3.72067C5.04176 3.58992 5.34902 3.34489 5.55659 3.02304L6.18894 2.04254C6.54585 1.48913 7.18278 1.1824 7.83798 1.2484L8.99883 1.36534C9.37989 1.40373 9.76303 1.31628 10.0897 1.11636L11.0849 0.507323Z" fill="#00CBD5"/>
<path d="M14.6718 14.7365L13.3594 9.77881H14.4347L15.2181 13.3313H15.2387L16.1526 9.77881H17.063L17.9769 13.3313H17.9975L18.7843 9.77881H19.8597L18.5438 14.7365H17.5303L16.6198 11.4142H16.5992L15.6853 14.7365H14.6718Z" fill="white"/>
<path d="M9.59082 14.7365V9.77881H12.8753V10.6343H10.6284V11.823H12.7482V12.6339H10.6284V13.881H12.8753V14.7365H9.59082Z" fill="white"/>
<path d="M4.56152 14.7365V9.77881H5.46854L7.70861 13.0015H7.72922V9.77881H8.76336V14.7365H7.86321L5.61628 11.4898H5.59566V14.7365H4.56152Z" fill="white"/>
</svg>
