<svg width="24" height="24" viewBox="0 0 24 24" fill="none" xmlns="http://www.w3.org/2000/svg">
<path d="M17.9996 7.5001C17.9996 8.32852 17.328 9.0001 16.4996 9.0001C15.6712 9.0001 14.9996 8.32852 14.9996 7.5001C14.9996 6.67167 15.6712 6.0001 16.4996 6.0001C17.328 6.0001 17.9996 6.67167 17.9996 7.5001Z" fill="black"/>
<path fill-rule="evenodd" clip-rule="evenodd" d="M2.59961 5.5001C2.59961 3.89847 3.89798 2.6001 5.49961 2.6001H18.4996C20.1012 2.6001 21.3996 3.89847 21.3996 5.5001V18.5001C21.3996 20.1017 20.1012 21.4001 18.4996 21.4001H5.49961C3.89798 21.4001 2.59961 20.1017 2.59961 18.5001V5.5001ZM5.49961 4.4001C4.8921 4.4001 4.39961 4.89258 4.39961 5.5001V12.7824L8.45099 9.97758C9.36921 9.34189 10.5709 9.28995 11.5405 9.84403L19.5996 14.4492V5.5001C19.5996 4.89258 19.1071 4.4001 18.4996 4.4001H5.49961ZM19.5996 16.5224L10.6475 11.4069C10.2797 11.1967 9.82386 11.2164 9.47557 11.4575L4.39961 14.9717V18.5001C4.39961 19.1076 4.8921 19.6001 5.49961 19.6001H18.4996C19.1071 19.6001 19.5996 19.1076 19.5996 18.5001V16.5224Z" fill="black"/>
</svg>
