<svg width="24" height="24" viewBox="0 0 24 24" fill="none" xmlns="http://www.w3.org/2000/svg">
<path d="M9.41643 15.923V19.5725C9.41643 20.0925 9.83795 20.514 10.3579 20.514C10.8779 20.514 11.2994 20.0925 11.2994 19.5725L11.2994 13.6517C11.2994 13.1317 10.8779 12.7102 10.3579 12.7102H4.43001C3.91003 12.7102 3.48851 13.1317 3.48851 13.6517C3.48851 14.1717 3.91003 14.5932 4.43001 14.5932L8.08326 14.5932L3.02592 19.6445C2.65803 20.0119 2.65803 20.6077 3.02592 20.9751C3.39382 21.3426 3.9903 21.3426 4.3582 20.9751L9.41643 15.923Z" fill="black"/>
<path d="M14.5842 8.07685V4.42766C14.5842 3.90768 14.1627 3.48616 13.6427 3.48616C13.1227 3.48616 12.7012 3.90768 12.7012 4.42766V10.3485C12.7012 10.8684 13.1227 11.29 13.6427 11.29H19.5706C20.0906 11.29 20.5121 10.8684 20.5121 10.3485C20.5121 9.82849 20.0906 9.40697 19.5706 9.40697H15.9171L20.9747 4.35537C21.3426 3.98791 21.3426 3.39215 20.9747 3.02469C20.6068 2.65724 20.0103 2.65723 19.6424 3.02469L14.5842 8.07685Z" fill="black"/>
</svg>
