<svg width="24" height="24" viewBox="0 0 24 24" fill="none" xmlns="http://www.w3.org/2000/svg">
<path fill-rule="evenodd" clip-rule="evenodd" d="M11.9996 3.2751C7.18092 3.2751 3.27461 7.18141 3.27461 12.0001C3.27461 16.8188 7.18092 20.7251 11.9996 20.7251C16.8183 20.7251 20.7246 16.8188 20.7246 12.0001C20.7246 7.18141 16.8183 3.2751 11.9996 3.2751ZM1.47461 12.0001C1.47461 6.1873 6.18681 1.4751 11.9996 1.4751C17.8124 1.4751 22.5246 6.1873 22.5246 12.0001C22.5246 17.8129 17.8124 22.5251 11.9996 22.5251C6.18681 22.5251 1.47461 17.8129 1.47461 12.0001ZM14.2475 6.37743C14.619 6.70766 14.6525 7.27652 14.3223 7.64803L11.2538 11.1001H14.7496C15.104 11.1001 15.4254 11.308 15.5706 11.6313C15.7158 11.9545 15.6578 12.3329 15.4224 12.5978L11.0249 17.5478C10.6948 17.9194 10.126 17.9531 9.75436 17.6229C9.38277 17.2928 9.34914 16.724 9.67927 16.3524L12.7462 12.9001H9.24961C8.8952 12.9001 8.57378 12.6921 8.42859 12.3688C8.28341 12.0455 8.34148 11.6671 8.57694 11.4022L12.9769 6.45217C13.3072 6.08067 13.876 6.0472 14.2475 6.37743Z" fill="black"/>
</svg>
