<svg width="24" height="24" viewBox="0 0 24 24" fill="none" xmlns="http://www.w3.org/2000/svg">
<path fill-rule="evenodd" clip-rule="evenodd" d="M19.4996 4.20117L4.49961 4.20118C2.89798 4.20118 1.59961 5.49956 1.59961 7.10118V17.1012C1.59961 18.7028 2.89798 20.0012 4.49961 20.0012H19.4996C21.1012 20.0012 22.3996 18.7028 22.3996 17.1012V7.10117C22.3996 5.49955 21.1012 4.20117 19.4996 4.20117ZM5.96082 15.4607C5.60893 15.1096 5.61775 14.5496 5.9805 14.2098L8.20547 12.1255L6.04737 9.97248C5.69549 9.62142 5.7043 9.06136 6.06706 8.72155C6.42981 8.38173 7.00914 8.39085 7.36103 8.7419L10.1563 11.5306C10.5082 11.8816 10.4993 12.4417 10.1366 12.7815L7.25479 15.481C6.89204 15.8209 6.31271 15.8117 5.96082 15.4607ZM18.0381 8.74183C18.39 9.09289 18.3812 9.65295 18.0184 9.99276L15.7935 12.077L17.9515 14.23C18.3034 14.5811 18.2946 15.1412 17.9319 15.481C17.5691 15.8208 16.9898 15.8117 16.6379 15.4606L13.8427 12.672C13.4908 12.3209 13.4996 11.7608 13.8623 11.421L16.7441 8.72147C17.1069 8.38166 17.6862 8.39077 18.0381 8.74183Z" fill="black"/>
</svg>
