<svg width="24" height="24" viewBox="0 0 24 24" fill="none" xmlns="http://www.w3.org/2000/svg">
<path d="M12.001 2.09961C15.1073 2.09961 17.8779 3.53109 19.6924 5.76758V4.28027C19.6924 3.78329 20.0948 3.37994 20.5918 3.37988C21.0888 3.37988 21.4921 3.78326 21.4922 4.28027V8.28027C21.4922 8.77733 21.0889 9.18066 20.5918 9.18066H16.5918C16.0948 9.18061 15.6924 8.7773 15.6924 8.28027C15.6924 7.78329 16.0948 7.37994 16.5918 7.37988H18.6543C17.1905 5.27598 14.756 3.90039 12.001 3.90039C7.52755 3.90044 3.90142 7.52657 3.90137 12C3.90137 16.4735 7.52751 20.1005 12.001 20.1006C16.3676 20.1006 19.9274 16.6445 20.0947 12.3193C20.1139 11.8227 20.5326 11.4359 21.0293 11.4551C21.5258 11.4744 21.9127 11.8922 21.8936 12.3887C21.689 17.6764 17.3384 21.9004 12.001 21.9004C6.5334 21.9003 2.10059 17.4676 2.10059 12C2.10064 6.53246 6.53343 2.09966 12.001 2.09961Z" fill="black"/>
</svg>
