<svg width="24" height="24" viewBox="0 0 24 24" fill="none" xmlns="http://www.w3.org/2000/svg">
<path fill-rule="evenodd" clip-rule="evenodd" d="M15.6671 5.33994C16.2274 5.33994 18.2777 5.39243 19.6275 7.38756C19.5129 7.47944 17.4754 8.6739 17.4754 11.3253C17.4754 14.3836 20.0605 15.4731 20.1496 15.4993C20.1241 15.565 19.7294 16.9826 18.7743 18.4264C17.9211 19.6865 17.017 20.9728 15.6671 20.9728C14.2918 20.9728 13.948 20.1459 12.3816 20.1459C10.8408 20.1459 10.2932 20.9991 9.05797 20.9991C7.81 20.9991 6.94407 19.8177 5.95078 18.3739C4.79196 16.6675 3.84961 14.0292 3.84961 11.5353C3.84961 7.51882 6.38375 5.39243 8.87969 5.39243C10.1913 5.39243 11.2992 6.28499 12.1397 6.28499C12.9165 6.28499 14.1517 5.33994 15.6671 5.33994ZM15.974 0.352295C15.9994 0.470428 16.0122 0.614816 16.0122 0.759192C16.0122 1.82239 15.5665 2.88558 14.9552 3.64689C14.2803 4.48694 13.1469 5.11698 12.2428 5.11698C12.1409 5.11698 12.0391 5.10386 11.9754 5.09073C11.9626 5.03822 11.9372 4.88072 11.9372 4.7232C11.9372 3.64689 12.4593 2.59682 13.0323 1.9274C13.7582 1.04797 14.968 0.391676 15.974 0.352295Z" fill="#8E8E8E"/>
</svg>
