<svg width="24" height="24" viewBox="0 0 24 24" fill="none" xmlns="http://www.w3.org/2000/svg">
<path fill-rule="evenodd" clip-rule="evenodd" d="M2.34961 3.5001C2.34961 3.00304 2.75255 2.6001 3.24961 2.6001H20.7496C21.2467 2.6001 21.6496 3.00304 21.6496 3.5001V16.5001C21.6496 19.2063 19.4558 21.4001 16.7496 21.4001H7.24961C4.54341 21.4001 2.34961 19.2063 2.34961 16.5001V3.5001ZM4.14961 4.4001V16.5001C4.14961 18.2122 5.53753 19.6001 7.24961 19.6001H16.7496C18.4617 19.6001 19.8496 18.2122 19.8496 16.5001V4.4001H4.14961ZM8.24961 6.60791C8.74667 6.60791 9.14961 7.01085 9.14961 7.50791V8.75791C9.14961 10.3319 10.4256 11.6079 11.9996 11.6079C13.5736 11.6079 14.8496 10.3319 14.8496 8.75791V7.50791C14.8496 7.01085 15.2526 6.60791 15.7496 6.60791C16.2467 6.60791 16.6496 7.01085 16.6496 7.50791V8.75791C16.6496 11.326 14.5677 13.4079 11.9996 13.4079C9.43148 13.4079 7.34961 11.326 7.34961 8.75791V7.50791C7.34961 7.01085 7.75255 6.60791 8.24961 6.60791Z" fill="black"/>
</svg>
