<svg width="24" height="24" viewBox="0 0 24 24" fill="none" xmlns="http://www.w3.org/2000/svg">
<path fill-rule="evenodd" clip-rule="evenodd" d="M12.1393 4.82197C9.28639 4.82197 6.77733 6.87282 5.86627 9.85587C5.72109 10.3313 5.21802 10.5989 4.74264 10.4537C4.26726 10.3086 3.99958 9.80548 4.14477 9.33011C5.24879 5.71524 8.37116 3.02197 12.1393 3.02197C14.5432 3.02197 16.6364 4.07286 18.1341 5.7445C18.4657 6.11471 18.4345 6.6837 18.0643 7.01537C17.6941 7.34705 17.1251 7.31581 16.7934 6.9456C15.6082 5.62264 13.9895 4.82197 12.1393 4.82197Z" fill="black"/>
<path fill-rule="evenodd" clip-rule="evenodd" d="M19.4469 12.5132C19.9221 12.6589 20.1892 13.1623 20.0435 13.6375C18.935 17.2533 15.8102 19.9447 12.022 19.9447C9.69565 19.9447 7.69272 19.0019 6.21761 17.4691C5.87294 17.1109 5.88387 16.5412 6.24202 16.1965C6.60017 15.8519 7.16991 15.8628 7.51458 16.2209C8.66927 17.4208 10.2116 18.1447 12.022 18.1447C14.8982 18.1447 17.4083 16.092 18.3226 13.1099C18.4683 12.6347 18.9716 12.3675 19.4469 12.5132Z" fill="black"/>
<path d="M5.638 13.6175L8.16794 10.4495C8.48174 10.0565 8.20196 9.47505 7.6991 9.47505L2.63921 9.47505C2.13635 9.47505 1.85657 10.0565 2.17037 10.4495L4.70031 13.6175C4.94051 13.9183 5.3978 13.9183 5.638 13.6175Z" fill="black"/>
<path d="M18.4984 9.94869L15.9685 13.1167C15.6547 13.5097 15.9345 14.0912 16.4373 14.0912H21.4972C22.0001 14.0912 22.2799 13.5097 21.9661 13.1167L19.4361 9.94869C19.1959 9.64791 18.7387 9.64791 18.4984 9.94869Z" fill="black"/>
</svg>
