<svg width="24" height="24" viewBox="0 0 24 24" fill="none" xmlns="http://www.w3.org/2000/svg">
<rect x="5" y="4.12451" width="14" height="15.75" fill="url(#paint0_linear_19503_11030)"/>
<path opacity="0.5" d="M8.9375 15.4998H15.0625" stroke="white" stroke-width="1.3125" stroke-linecap="round" stroke-linejoin="round"/>
<path d="M12 7.62476V12.8748" stroke="white" stroke-width="1.3125" stroke-linecap="round"/>
<path d="M12 12.8743L10.0312 11.1243H13.9688L12 12.8743Z" fill="white" stroke="white" stroke-width="1.3125" stroke-linecap="round" stroke-linejoin="round"/>
<path d="M3.25 19.8745C2.2835 19.8745 1.5 19.091 1.5 18.1245L1.5 5.87451C1.5 4.90801 2.2835 4.12451 3.25 4.12451L5 4.12451L5 19.8745L3.25 19.8745ZM4.125 7.09912C4.12479 6.90613 3.96838 6.74972 3.77539 6.74951L2.72461 6.74951C2.53162 6.74972 2.37521 6.90613 2.375 7.09912L2.375 8.1499C2.37521 8.34289 2.53162 8.4993 2.72461 8.49951L3.77539 8.49951C3.96838 8.4993 4.12478 8.34289 4.125 8.1499L4.125 7.09912ZM4.125 11.4741C4.12492 11.281 3.96846 11.1247 3.77539 11.1245L2.72461 11.1245C2.53154 11.1247 2.37507 11.281 2.375 11.4741L2.375 12.5239C2.375 12.7171 2.53149 12.8743 2.72461 12.8745L3.77539 12.8745C3.96851 12.8743 4.125 12.7171 4.125 12.5239L4.125 11.4741ZM4.125 15.8501C4.125 15.6569 3.96851 15.4997 3.77539 15.4995L2.72461 15.4995C2.53149 15.4997 2.375 15.6569 2.375 15.8501L2.375 16.8999C2.37508 17.093 2.53154 17.2493 2.72461 17.2495L3.77539 17.2495C3.96846 17.2493 4.12492 17.093 4.125 16.8999L4.125 15.8501Z" fill="#593DC9"/>
<path d="M20.752 4.12451C21.7185 4.12451 22.502 4.90801 22.502 5.87451L22.502 18.1245C22.502 19.091 21.7185 19.8745 20.752 19.8745H19.002L19.002 4.12451H20.752ZM19.8789 16.8999C19.879 17.0931 20.0353 17.2494 20.2285 17.2495H21.2783C21.4716 17.2495 21.6289 17.0932 21.6289 16.8999V15.8501C21.6289 15.6568 21.4716 15.4995 21.2783 15.4995H20.2285C20.0353 15.4996 19.8789 15.6568 19.8789 15.8501V16.8999ZM19.8789 12.5239C19.8789 12.7172 20.0353 12.8744 20.2285 12.8745H21.2783C21.4716 12.8745 21.6289 12.7172 21.6289 12.5239V11.4741C21.6288 11.2809 21.4716 11.1245 21.2783 11.1245H20.2285C20.0353 11.1246 19.879 11.281 19.8789 11.4741V12.5239ZM19.8789 8.1499C19.8791 8.34299 20.0354 8.49943 20.2285 8.49951H21.2783C21.4715 8.49951 21.6287 8.34304 21.6289 8.1499V7.09912C21.6287 6.90602 21.4715 6.74951 21.2783 6.74951H20.2285C20.0354 6.74959 19.8791 6.90607 19.8789 7.09912L19.8789 8.1499Z" fill="#593DC9"/>
<defs>
<linearGradient id="paint0_linear_19503_11030" x1="2.375" y1="2.37384" x2="19.875" y2="20.7488" gradientUnits="userSpaceOnUse">
<stop stop-color="#B6BAFF"/>
<stop offset="1" stop-color="#627DF9"/>
</linearGradient>
</defs>
</svg>
