<svg width="24" height="24" viewBox="0 0 24 24" fill="none" xmlns="http://www.w3.org/2000/svg">
<path fill-rule="evenodd" clip-rule="evenodd" d="M9.32795 3.01648C9.67208 2.44736 10.2887 2.09961 10.9538 2.09961H13.0458C13.7109 2.09961 14.3275 2.44736 14.6717 3.01648L15.9987 5.2111H18.8226C19.4878 5.2111 20.1045 5.55899 20.4486 6.12829L21.458 7.79837C21.8231 8.40239 21.8233 9.15901 21.4585 9.76321L20.1058 12.0036L21.4515 14.2287C21.8172 14.8334 21.8171 15.5911 21.4512 16.1957L20.4368 17.872C20.0926 18.4407 19.4761 18.7882 18.8113 18.7882H16.0086L14.6841 20.9818C14.3401 21.5515 13.7231 21.8997 13.0576 21.8997H10.943C10.2775 21.8997 9.66046 21.5515 9.31647 20.9818L7.99196 18.7882H5.18834C4.52351 18.7882 3.90704 18.4407 3.56282 17.872L2.54839 16.1957C2.18251 15.5911 2.1824 14.8334 2.5481 14.2287L3.89425 12.0029L2.54202 9.76321C2.17723 9.15901 2.17741 8.40239 2.54249 7.79837L3.5519 6.12829C3.89599 5.55899 4.51276 5.2111 5.17796 5.2111H8.00091L9.32795 3.01648ZM12 15.5C13.933 15.5 15.5 13.933 15.5 12C15.5 10.067 13.933 8.5 12 8.5C10.067 8.5 8.5 10.067 8.5 12C8.5 13.933 10.067 15.5 12 15.5Z" fill="black"/>
</svg>
