<svg width="24" height="24" viewBox="0 0 24 24" fill="none" xmlns="http://www.w3.org/2000/svg">
<path fill-rule="evenodd" clip-rule="evenodd" d="M1.75098 12C1.75098 6.33908 6.34006 1.75 12.001 1.75C17.6619 1.75 22.251 6.33908 22.251 12C22.251 12.4971 21.848 12.9 21.351 12.9C20.8539 12.9 20.451 12.4971 20.451 12C20.451 7.33319 16.6678 3.55 12.001 3.55C7.33417 3.55 3.55098 7.33319 3.55098 12C3.55098 16.6668 7.33417 20.45 12.001 20.45C12.498 20.45 12.901 20.8529 12.901 21.35C12.901 21.8471 12.498 22.25 12.001 22.25C6.34006 22.25 1.75098 17.6609 1.75098 12ZM11.9996 7.30029C12.4967 7.30029 12.8996 7.70324 12.8996 8.20029V11.1001H14.9996C15.4967 11.1001 15.8996 11.503 15.8996 12.0001C15.8996 12.4972 15.4967 12.9001 14.9996 12.9001H11.9996C11.5026 12.9001 11.0996 12.4972 11.0996 12.0001V8.20029C11.0996 7.70324 11.5026 7.30029 11.9996 7.30029ZM18.6165 14.6285C18.8107 14.1709 19.3391 13.9575 19.7966 14.1517L21.3155 14.7964C21.773 14.9906 21.9865 15.519 21.7923 15.9765C21.5981 16.4341 21.0697 16.6475 20.6122 16.4533L19.0933 15.8086C18.6358 15.6144 18.4223 15.086 18.6165 14.6285ZM17.0138 17.0358C17.3653 16.6844 17.9352 16.6844 18.2866 17.0358L19.4534 18.2026C19.8048 18.554 19.8048 19.1239 19.4534 19.4753C19.1019 19.8268 18.532 19.8268 18.1806 19.4753L17.0138 18.3086C16.6624 17.9571 16.6624 17.3873 17.0138 17.0358ZM14.6509 18.6199C15.1118 18.4337 15.6363 18.6563 15.8225 19.1172L16.4406 20.6471C16.6268 21.1079 16.4042 21.6325 15.9433 21.8187C15.4825 22.0049 14.9579 21.7822 14.7717 21.3213L14.1536 19.7915C13.9674 19.3306 14.1901 18.8061 14.6509 18.6199Z" fill="black"/>
</svg>
