<svg width="24" height="24" viewBox="0 0 24 24" fill="none" xmlns="http://www.w3.org/2000/svg">
<path d="M11.999 14.4517C12.6617 14.4517 13.1991 14.9892 13.1992 15.6519C13.1992 16.3146 12.6618 16.8521 11.999 16.8521C11.3364 16.8519 10.7988 16.3145 10.7988 15.6519C10.7989 14.9892 11.3364 14.4518 11.999 14.4517Z" fill="black"/>
<path d="M11.999 7.14795C12.496 7.148 12.8994 7.55132 12.8994 8.04834V12.3237C12.8994 12.8208 12.496 13.2241 11.999 13.2241C11.502 13.2241 11.0986 12.8208 11.0986 12.3237V8.04834C11.0986 7.55128 11.502 7.14795 11.999 7.14795Z" fill="black"/>
<path fill-rule="evenodd" clip-rule="evenodd" d="M12 2.1001C17.4674 2.10031 21.8994 6.533 21.8994 12.0005C21.8992 17.4678 17.4673 21.8997 12 21.8999C6.53251 21.8999 2.09982 17.4679 2.09961 12.0005C2.09961 6.53287 6.53238 2.1001 12 2.1001ZM12 3.8999C7.52649 3.8999 3.89941 7.52698 3.89941 12.0005C3.89963 16.4738 7.52662 20.1001 12 20.1001C16.4732 20.0999 20.0994 16.4737 20.0996 12.0005C20.0996 7.52711 16.4733 3.90011 12 3.8999Z" fill="black"/>
</svg>
