<svg width="24" height="24" viewBox="0 0 24 24" fill="none" xmlns="http://www.w3.org/2000/svg">
<path d="M13.534 3.41695L14.7543 5.68564C15.5666 7.19556 16.8044 8.43421 18.3144 9.24571L20.583 10.466C21.8057 11.1232 21.8057 12.8761 20.583 13.534L18.3144 14.7543C16.8044 15.5666 15.5658 16.8044 14.7543 18.3144L13.534 20.583C12.8768 21.8057 11.1239 21.8057 10.466 20.583L9.24571 18.3144C8.43344 16.8044 7.19556 15.5658 5.68564 14.7543L3.41695 13.534C2.19435 12.8768 2.19435 11.1239 3.41695 10.466L5.68564 9.24571C7.19556 8.43344 8.43421 7.19556 9.24571 5.68564L10.466 3.41695C11.1232 2.19435 12.8761 2.19435 13.534 3.41695Z" fill="url(#paint0_radial_75476_2895)"/>
<defs>
<radialGradient id="paint0_radial_75476_2895" cx="0" cy="0" r="1" gradientUnits="userSpaceOnUse" gradientTransform="translate(5.69174 7.18078) rotate(27.017) scale(17.7447)">
<stop stop-color="#4FF0FF"/>
<stop offset="0.230769" stop-color="#96FAFF"/>
<stop offset="0.557692" stop-color="#14D4C8"/>
<stop offset="1" stop-color="#FD76FF"/>
</radialGradient>
</defs>
</svg>
