<svg width="24" height="24" viewBox="0 0 24 24" fill="none" xmlns="http://www.w3.org/2000/svg">
<path fill-rule="evenodd" clip-rule="evenodd" d="M12.0006 21.9001C17.4682 21.9001 21.9006 17.4677 21.9006 12.0001C21.9006 6.53248 17.4682 2.1001 12.0006 2.1001C6.53297 2.1001 2.10059 6.53248 2.10059 12.0001C2.10059 17.4677 6.53297 21.9001 12.0006 21.9001ZM13.3246 15.809C13.3246 15.0786 12.7325 14.4865 12.0022 14.4865C11.2718 14.4865 10.6797 15.0786 10.6797 15.809C10.6797 16.5393 11.2718 17.1314 12.0022 17.1314C12.7325 17.1314 13.3246 16.5393 13.3246 15.809ZM10.9447 11.7756C10.9447 12.3598 11.4184 12.8335 12.0027 12.8335C12.587 12.8335 13.0606 12.3598 13.0606 11.7756V7.94045C13.0606 7.35616 12.587 6.88249 12.0027 6.88249C11.4184 6.88249 10.9447 7.35616 10.9447 7.94045V11.7756Z" fill="black"/>
</svg>
