<svg width="24" height="24" viewBox="0 0 24 24" fill="none" xmlns="http://www.w3.org/2000/svg">
<path fill-rule="evenodd" clip-rule="evenodd" d="M11.0918 4.31781C7.69683 4.08041 4.7575 6.63138 4.52128 10.0094C4.28507 13.3874 6.84077 16.3226 10.2358 16.56C11.7949 16.6691 13.2566 16.1907 14.4064 15.3134C14.4948 15.246 14.5813 15.1762 14.6658 15.1042C15.8778 14.0717 16.6868 12.5768 16.8063 10.8684C17.0425 7.49043 14.4868 4.55522 11.0918 4.31781ZM2.72567 9.88383C3.03159 5.50897 6.83586 2.21581 11.2174 2.5222C15.5989 2.82859 18.9078 6.61915 18.6019 10.994C18.4702 12.8772 17.6891 14.5614 16.4938 15.8428L20.5619 20.4786C20.8897 20.8522 20.8526 21.4208 20.479 21.7486C20.1054 22.0765 19.5368 22.0394 19.209 21.6658L15.1254 17.0123C13.7027 17.9737 11.9571 18.4848 10.1102 18.3556C5.72867 18.0493 2.41975 14.2587 2.72567 9.88383Z" fill="black"/>
<path fill-rule="evenodd" clip-rule="evenodd" d="M10.6644 14.078C10.1673 14.078 9.76434 13.675 9.76433 13.178L9.76427 11.3279H7.91435C7.41729 11.3279 7.01435 10.925 7.01435 10.4279C7.01435 9.93085 7.41729 9.52791 7.91435 9.52791H9.76421L9.76415 7.67799C9.76414 7.18093 10.1671 6.77798 10.6641 6.77796C11.1612 6.77794 11.5641 7.18087 11.5642 7.67793L11.5642 9.52791H13.4144C13.9114 9.52791 14.3144 9.93085 14.3144 10.4279C14.3144 10.925 13.9114 11.3279 13.4144 11.3279H11.5643L11.5643 13.1779C11.5643 13.675 11.1614 14.0779 10.6644 14.078Z" fill="black"/>
</svg>
