<svg width="24" height="24" viewBox="0 0 24 24" fill="none" xmlns="http://www.w3.org/2000/svg">
<path d="M11.3364 8.43799C11.5609 7.74701 12.5387 7.74701 12.7632 8.43799L13.2651 9.98193C13.3655 10.2909 13.6532 10.5004 13.978 10.5005H15.6021C16.3284 10.5005 16.6306 11.4297 16.0435 11.8569L14.729 12.812C14.4663 13.003 14.3562 13.342 14.4565 13.6509L14.9585 15.1948C15.183 15.8858 14.392 16.4607 13.8042 16.0337L12.4907 15.0786C12.2279 14.8877 11.8717 14.8877 11.6089 15.0786L10.2954 16.0337C9.70763 16.4607 8.9166 15.8858 9.14111 15.1948L9.64307 13.6509C9.74346 13.3419 9.63338 13.003 9.37061 12.812L8.05713 11.8569C7.46934 11.4299 7.77102 10.5005 8.49756 10.5005H10.1216C10.4465 10.5004 10.7341 10.2909 10.8345 9.98193L11.3364 8.43799Z" fill="black"/>
<path fill-rule="evenodd" clip-rule="evenodd" d="M12.0005 2.6001C17.1917 2.60031 21.3997 6.80832 21.3999 11.9995V19.5503C21.3997 20.5718 20.5718 21.3998 19.5503 21.3999H12.0005C6.80901 21.3999 2.6001 17.191 2.6001 11.9995C2.60028 6.80819 6.80913 2.6001 12.0005 2.6001ZM12.0005 4.3999C7.80324 4.3999 4.40009 7.8023 4.3999 11.9995C4.3999 16.1969 7.80312 19.6001 12.0005 19.6001H19.5503C19.5777 19.6 19.5999 19.5776 19.6001 19.5503V11.9995C19.5999 7.80243 16.1976 4.40011 12.0005 4.3999Z" fill="black"/>
</svg>
