<svg width="17" height="16" viewBox="0 0 17 16" fill="none" xmlns="http://www.w3.org/2000/svg">
<path fill-rule="evenodd" clip-rule="evenodd" d="M15.0017 5.37908C15.0017 5.21183 15.0017 5.04458 15.0017 4.87733C15.0017 4.73731 14.9997 4.59534 14.9958 4.45532C14.9881 4.14805 14.9686 3.83884 14.9142 3.53546C14.8597 3.22819 14.7683 2.94037 14.6263 2.66032C14.4863 2.38611 14.3035 2.1333 14.0857 1.91549C13.8679 1.69768 13.6151 1.51487 13.3409 1.37485C13.0608 1.23288 12.7749 1.14148 12.4677 1.08703C12.1643 1.03257 11.8551 1.01507 11.5478 1.00535C11.4058 1.0034 11.2639 1.00146 11.1239 0.999512C10.9566 0.999512 10.7894 0.999512 10.6221 0.999512H5.37908C5.21183 0.999512 5.04458 0.999512 4.87733 0.999512C4.73731 0.999512 4.59534 1.00146 4.45532 1.00535C4.14805 1.01312 3.83884 1.03257 3.53546 1.08703C3.22819 1.14342 2.94037 1.23288 2.66227 1.37679C2.38611 1.51681 2.13524 1.69962 1.91743 1.91743C1.69962 2.13524 1.51487 2.38611 1.37485 2.66227C1.23288 2.94231 1.14148 3.22819 1.08703 3.5374C1.03257 3.84078 1.01507 4.15 1.00535 4.45727C1.0034 4.59729 1.00146 4.73731 0.999512 4.87733C0.999512 5.04458 0.999512 5.21183 0.999512 5.37908V10.6202C0.999512 10.7874 0.999512 10.9547 0.999512 11.1219C0.999512 11.2619 1.00146 11.4039 1.00535 11.5439C1.01312 11.8512 1.03257 12.1604 1.08703 12.4638C1.14148 12.7711 1.23288 13.0589 1.37485 13.3389C1.51487 13.6131 1.69767 13.8659 1.91549 14.0838C2.1333 14.3016 2.38611 14.4844 2.66032 14.6244C2.94037 14.7664 3.22624 14.8578 3.53351 14.9122C3.83689 14.9667 4.14611 14.9842 4.45338 14.9939C4.5934 14.9978 4.73537 14.9997 4.87539 14.9997C5.04264 15.0017 5.20988 14.9997 5.37713 14.9997H10.6182C10.7855 14.9997 10.9527 14.9997 11.12 14.9997C11.26 14.9997 11.4019 14.9978 11.542 14.9939C11.8492 14.9861 12.1585 14.9667 12.4618 14.9122C12.7691 14.8578 13.0569 14.7664 13.335 14.6244C13.6092 14.4844 13.8621 14.3016 14.0799 14.0838C14.2977 13.8659 14.4805 13.6151 14.6205 13.3389C14.7625 13.0589 14.8539 12.773 14.9083 12.4638C14.9628 12.1604 14.9803 11.8512 14.99 11.5439C14.9939 11.4039 14.9958 11.2619 14.9958 11.1219C14.9978 10.9547 14.9958 10.7874 14.9958 10.6202L15.0017 5.37908Z" fill="url(#paint0_linear_35938_3680)"/>
<path fill-rule="evenodd" clip-rule="evenodd" d="M10.8986 3.13843C10.8655 3.14232 10.5641 3.19483 10.5272 3.20261L6.36541 4.04274H6.36346C6.25456 4.06607 6.16899 4.10497 6.10481 4.15942C6.02508 4.22554 5.98229 4.32083 5.96479 4.42974C5.9609 4.45308 5.95507 4.49975 5.95507 4.56976C5.95507 4.56976 5.95507 8.82097 5.95507 9.77779C5.95507 9.90031 5.94534 10.017 5.86367 10.1181C5.78199 10.2192 5.67891 10.2484 5.56029 10.2737C5.46888 10.2912 5.37942 10.3106 5.28802 10.3282C4.9438 10.3982 4.72016 10.4448 4.5179 10.5226C4.32343 10.5985 4.17952 10.6938 4.06283 10.8143C3.83335 11.0535 3.74 11.3803 3.77306 11.6856C3.80029 11.9462 3.91698 12.1951 4.11923 12.3779C4.25536 12.5024 4.42455 12.5977 4.62486 12.6366C4.83295 12.6774 5.05271 12.6638 5.37553 12.5977C5.54667 12.5627 5.70809 12.5082 5.86172 12.4188C6.01341 12.3293 6.14371 12.2107 6.24484 12.0648C6.34596 11.919 6.41208 11.7575 6.44903 11.5845C6.48598 11.4075 6.49571 11.2461 6.49571 11.0691V6.5534C6.49571 6.31225 6.56377 6.24808 6.76019 6.19946C6.76019 6.19946 10.2199 5.50129 10.3813 5.47018C10.6069 5.42739 10.7119 5.49157 10.7119 5.72689V8.81125C10.7119 8.93377 10.71 9.05629 10.6283 9.15741C10.5466 9.25854 10.4435 9.28771 10.3249 9.31299C10.2335 9.3305 10.144 9.34994 10.0526 9.36745C9.70843 9.43746 9.48478 9.48413 9.28253 9.56192C9.08805 9.63777 8.94414 9.73306 8.82746 9.85363C8.59798 10.0928 8.49685 10.4196 8.52991 10.7249C8.55714 10.9855 8.6816 11.2344 8.88385 11.4172C9.01999 11.5417 9.18918 11.6331 9.38949 11.6739C9.59757 11.7148 9.81733 11.7011 10.1402 11.635C10.3113 11.6 10.4727 11.5494 10.6263 11.458C10.778 11.3686 10.9083 11.25 11.0095 11.1041C11.1106 10.9582 11.1767 10.7968 11.2137 10.6238C11.2506 10.4468 11.2526 10.2854 11.2526 10.1084V3.50599C11.2506 3.26678 11.1242 3.11898 10.8986 3.13843Z" fill="white"/>
<defs>
<linearGradient id="paint0_linear_35938_3680" x1="8.00059" y1="14.9474" x2="8.00059" y2="1.3013" gradientUnits="userSpaceOnUse">
<stop stop-color="#FA233B"/>
<stop offset="1" stop-color="#FB5C74"/>
</linearGradient>
</defs>
</svg>
