<svg width="24" height="24" viewBox="0 0 24 24" fill="none" xmlns="http://www.w3.org/2000/svg">
<path d="M12 0.5C16.274 0.5 19.1078 1.33435 20.8867 3.11328C22.6657 4.89221 23.5 7.72595 23.5 12C23.5 16.274 22.6657 19.1078 20.8867 20.8867C19.1078 22.6657 16.274 23.5 12 23.5C7.72595 23.5 4.89221 22.6657 3.11328 20.8867C1.33435 19.1078 0.5 16.274 0.5 12C0.5 7.72595 1.33435 4.89221 3.11328 3.11328C4.89221 1.33435 7.72595 0.5 12 0.5Z" stroke="white" stroke-opacity="0.2"/>
<path d="M11.9993 7.6001C12.4964 7.60008 12.8993 8.00301 12.8994 8.50007L12.8994 11.1H15.4996C15.9967 11.1 16.3996 11.503 16.3996 12C16.3996 12.4971 15.9967 12.9 15.4996 12.9H12.8995L12.8996 15.5001C12.8996 15.9971 12.4967 16.4001 11.9996 16.4001C11.5026 16.4001 11.0996 15.9972 11.0996 15.5001L11.0995 12.9H8.49961C8.00255 12.9 7.59961 12.4971 7.59961 12C7.59961 11.503 8.00255 11.1 8.49961 11.1H11.0994L11.0994 8.50013C11.0993 8.00307 11.5023 7.60011 11.9993 7.6001Z" fill="white"/>
</svg>
