<svg width="24" height="24" viewBox="0 0 24 24" fill="none" xmlns="http://www.w3.org/2000/svg">
<path fill-rule="evenodd" clip-rule="evenodd" d="M8.27107 7.711C8.65406 7.09416 9.56846 7.09421 9.95174 7.711L10.025 7.8526L11.609 11.543L11.6539 11.6348C11.7668 11.8427 11.9436 12.0095 12.1597 12.1085L15.6324 13.6963L15.7701 13.7725C16.3714 14.1659 16.3606 15.073 15.7506 15.4522L15.6109 15.5255L12.1842 16.9942C11.9225 17.1064 11.7141 17.3166 11.6041 17.5801L10.0387 21.3331C9.72123 22.0936 8.69716 22.1483 8.28279 21.4874L8.20955 21.3458L6.5992 17.627C6.49069 17.3767 6.29321 17.1757 6.04549 17.0635L2.63142 15.5206C1.84896 15.1668 1.84956 14.0501 2.6324 13.6973L6.03963 12.1622L6.13045 12.1163C6.33778 11.9985 6.50239 11.8154 6.59724 11.5938L8.19881 7.8526L8.27107 7.711ZM8.24178 12.3047C7.99193 12.8883 7.55913 13.3712 7.01326 13.6817L6.77205 13.8038L4.98103 14.6104L6.77889 15.4229C7.43307 15.7186 7.95461 16.2493 8.2408 16.9102L9.10701 18.9112L9.95369 16.8848L10.0738 16.6309C10.3824 16.0553 10.8776 15.5987 11.481 15.3399L13.2476 14.5821L11.4185 13.7462C10.7669 13.448 10.249 12.9166 9.96541 12.2559L9.11189 10.2686L8.24178 12.3047Z" fill="black"/>
<path fill-rule="evenodd" clip-rule="evenodd" d="M16.4732 2.49518C16.8561 1.89388 17.7466 1.89028 18.1344 2.48834L18.2086 2.62506L19.2496 4.91608L21.3267 5.89459L21.4625 5.97174C22.0529 6.36697 22.0421 7.26125 21.442 7.64166L21.3053 7.7149L19.2496 8.62213L18.2183 10.9561C17.8915 11.6944 16.8955 11.7434 16.481 11.0997L16.4068 10.962L15.3717 8.66119L13.3121 7.711C12.5398 7.35424 12.541 6.24908 13.314 5.89362L15.3687 4.9483L16.4 2.63287L16.4732 2.49518ZM16.94 5.82135C16.8192 6.09282 16.6157 6.31737 16.3609 6.46393L16.2486 6.52154L15.6344 6.80377L16.2515 7.08795L16.3629 7.14557C16.5796 7.27045 16.7594 7.4522 16.8824 7.67096L16.9381 7.78326L17.3043 8.59674L17.6803 7.74908L17.7379 7.63287C17.885 7.36931 18.114 7.15965 18.3912 7.03717L18.982 6.77545L18.3609 6.48346C18.0998 6.36045 17.8835 6.15956 17.7418 5.90924L17.6861 5.79889L17.3131 4.98053L16.94 5.82135Z" fill="black"/>
</svg>
