<svg width="24" height="24" viewBox="0 0 24 24" fill="none" xmlns="http://www.w3.org/2000/svg">
<g clip-path="url(#clip0_66910_6326)">
<path d="M3.5 5.17272C3.5 4.07442 4.39034 3.18408 5.48864 3.18408H18.5114C19.6097 3.18408 20.5 4.07442 20.5 5.17272V19.5294C20.5 20.7936 19.1276 21.5803 18.0367 20.9414L12.827 17.8904C12.3162 17.5912 11.6838 17.5912 11.173 17.8904L5.96332 20.9414C4.87244 21.5803 3.5 20.7936 3.5 19.5294V5.17272Z" fill="url(#paint0_linear_66910_6326)"/>
<path d="M11.1207 7.95098C11.4532 8.07889 11.7472 8.29667 12.0008 8.56429C12.2552 8.2967 12.5498 8.07889 12.8823 7.95098C13.3359 7.77647 13.838 7.77849 14.3578 8.0152C15.5357 8.5505 15.843 9.9596 15.2016 11.0601L15.2012 11.0607C14.9478 11.4931 14.3919 12.0544 13.8285 12.5897C13.609 12.7982 13.3865 13.0045 13.1717 13.2036C12.8159 13.5335 12.4815 13.8435 12.218 14.1107C12.1606 14.169 12.0821 14.2018 12.0002 14.2018C11.9183 14.2018 11.8399 14.169 11.7824 14.1107C11.519 13.8435 11.1846 13.5335 10.8288 13.2037C10.614 13.0046 10.3914 12.7982 10.1719 12.5897C9.60855 12.0544 9.0526 11.4931 8.79918 11.0607L8.7988 11.0601C8.15783 9.96037 8.46055 8.55068 9.64279 8.01513C10.164 7.77864 10.6669 7.77641 11.1207 7.95098Z" fill="white"/>
</g>
<defs>
<linearGradient id="paint0_linear_66910_6326" x1="3.5" y1="3.703" x2="24.2292" y2="13.2449" gradientUnits="userSpaceOnUse">
<stop stop-color="#FFD15A"/>
<stop offset="1" stop-color="#FFA800"/>
</linearGradient>
<clipPath id="clip0_66910_6326">
<rect width="24" height="24" fill="white"/>
</clipPath>
</defs>
</svg>
