<svg width="24" height="24" viewBox="0 0 24 24" fill="none" xmlns="http://www.w3.org/2000/svg">
<path fill-rule="evenodd" clip-rule="evenodd" d="M11.9498 4.3498C7.75244 4.3498 4.3498 7.75244 4.3498 11.9498C4.3498 16.1472 7.75244 19.5498 11.9498 19.5498H19.4998C19.5274 19.5498 19.5498 19.5274 19.5498 19.4998V11.9498C19.5498 7.75244 16.1472 4.3498 11.9498 4.3498ZM2.5498 11.9498C2.5498 6.75833 6.75833 2.5498 11.9498 2.5498C17.1413 2.5498 21.3498 6.75833 21.3498 11.9498V19.4998C21.3498 20.5215 20.5215 21.3498 19.4998 21.3498H11.9498C6.75833 21.3498 2.5498 17.1413 2.5498 11.9498Z" fill="black"/>
<path fill-rule="evenodd" clip-rule="evenodd" d="M15.926 10.2184C15.926 9.7213 15.523 9.31836 15.026 9.31836H9.52598C9.02892 9.31836 8.62598 9.7213 8.62598 10.2184C8.62598 10.7154 9.02892 11.1184 9.52598 11.1184H15.026C15.523 11.1184 15.926 10.7154 15.926 10.2184ZM14.0066 14.2184C14.0066 13.7213 13.6037 13.3184 13.1066 13.3184H9.52598C9.02892 13.3184 8.62598 13.7213 8.62598 14.2184C8.62598 14.7154 9.02892 15.1184 9.52598 15.1184H13.1066C13.6037 15.1184 14.0066 14.7154 14.0066 14.2184Z" fill="black"/>
</svg>
