<svg width="24" height="24" viewBox="0 0 24 24" fill="none" xmlns="http://www.w3.org/2000/svg">
<path fill-rule="evenodd" clip-rule="evenodd" d="M3.59961 6.0001C3.59961 4.39847 4.89798 3.1001 6.49961 3.1001H17.4996C19.1012 3.1001 20.3996 4.39847 20.3996 6.0001V21.0001C20.3996 21.3278 20.2215 21.6296 19.9346 21.788C19.6477 21.9464 19.2974 21.9363 19.0201 21.7617L11.9996 17.3414L4.97914 21.7617C4.70182 21.9363 4.35152 21.9464 4.06463 21.788C3.77773 21.6296 3.59961 21.3278 3.59961 21.0001V6.0001ZM6.49961 4.9001C5.8921 4.9001 5.39961 5.39258 5.39961 6.0001V19.3699L11.5201 15.5163C11.8131 15.3317 12.1861 15.3317 12.4791 15.5163L18.5996 19.3699V6.0001C18.5996 5.39258 18.1071 4.9001 17.4996 4.9001H6.49961Z" fill="black"/>
</svg>
