<svg width="24" height="24" viewBox="0 0 24 24" fill="none" xmlns="http://www.w3.org/2000/svg">
<path fill-rule="evenodd" clip-rule="evenodd" d="M2.09961 4.0001C2.09961 2.95076 2.95027 2.1001 3.99961 2.1001H19.9996C21.0489 2.1001 21.8996 2.95076 21.8996 4.0001V9.0001C21.8996 10.0494 21.049 10.9001 19.9996 10.9001H3.99961C2.95027 10.9001 2.09961 10.0494 2.09961 9.0001V4.0001ZM3.99961 3.9001C3.94438 3.9001 3.89961 3.94487 3.89961 4.0001V9.0001C3.89961 9.05533 3.94438 9.1001 3.99961 9.1001H19.9996C20.0548 9.1001 20.0996 9.05533 20.0996 9.0001V4.0001C20.0996 3.94487 20.0548 3.9001 19.9996 3.9001H3.99961Z" fill="black"/>
<path fill-rule="evenodd" clip-rule="evenodd" d="M3.99961 14.9001C3.94438 14.9001 3.89961 14.9449 3.89961 15.0001V20.0001C3.89961 20.0553 3.94438 20.1001 3.99961 20.1001H12.9996C13.4967 20.1001 13.8996 20.503 13.8996 21.0001C13.8996 21.4972 13.4967 21.9001 12.9996 21.9001H3.99961C2.95027 21.9001 2.09961 21.0494 2.09961 20.0001V15.0001C2.09961 13.9508 2.95027 13.1001 3.99961 13.1001H12.9996C13.4967 13.1001 13.8996 13.503 13.8996 14.0001C13.8996 14.4972 13.4967 14.9001 12.9996 14.9001H3.99961Z" fill="black"/>
<path fill-rule="evenodd" clip-rule="evenodd" d="M21.8645 15.8655L19.219 12.6293C19.0782 12.457 18.8292 12.457 18.6884 12.6293L16.0429 15.8655C15.8413 16.1121 16.0035 16.5001 16.3082 16.5001H21.5992C21.9039 16.5001 22.0661 16.1121 21.8645 15.8655Z" fill="black"/>
<path d="M16.0429 19.1347L18.6884 22.3709C18.8292 22.5432 19.0782 22.5432 19.219 22.3709L21.8645 19.1347C22.0661 18.8881 21.9039 18.5001 21.5992 18.5001H16.3082C16.0035 18.5001 15.8413 18.8881 16.0429 19.1347Z" fill="black"/>
</svg>
