<svg width="30" height="30" viewBox="0 0 30 30" fill="none" xmlns="http://www.w3.org/2000/svg">
<g filter="url(#filter0_dd_14612_15306)">
<path d="M7.5364 6.2636C7.18492 5.91213 6.61508 5.91213 6.2636 6.2636C5.91213 6.61508 5.91213 7.18492 6.2636 7.5364L13.3772 14.65L6.2636 21.7636C5.91213 22.1151 5.91213 22.6849 6.2636 23.0364C6.61508 23.3879 7.18492 23.3879 7.5364 23.0364L14.65 15.9228L21.7636 23.0364C22.1151 23.3879 22.6849 23.3879 23.0364 23.0364C23.3879 22.6849 23.3879 22.1151 23.0364 21.7636L15.9228 14.65L23.0364 7.5364C23.3879 7.18492 23.3879 6.61508 23.0364 6.2636C22.6849 5.91213 22.1151 5.91213 21.7636 6.2636L14.65 13.3772L7.5364 6.2636Z" fill="white"/>
</g>
<defs>
<filter id="filter0_dd_14612_15306" x="0" y="0" width="29.2998" height="29.3" filterUnits="userSpaceOnUse" color-interpolation-filters="sRGB">
<feFlood flood-opacity="0" result="BackgroundImageFix"/>
<feColorMatrix in="SourceAlpha" type="matrix" values="0 0 0 0 0 0 0 0 0 0 0 0 0 0 0 0 0 0 127 0" result="hardAlpha"/>
<feOffset/>
<feGaussianBlur stdDeviation="3"/>
<feComposite in2="hardAlpha" operator="out"/>
<feColorMatrix type="matrix" values="0 0 0 0 0 0 0 0 0 0 0 0 0 0 0 0 0 0 0.16 0"/>
<feBlend mode="normal" in2="BackgroundImageFix" result="effect1_dropShadow_14612_15306"/>
<feColorMatrix in="SourceAlpha" type="matrix" values="0 0 0 0 0 0 0 0 0 0 0 0 0 0 0 0 0 0 127 0" result="hardAlpha"/>
<feOffset/>
<feGaussianBlur stdDeviation="0.5"/>
<feComposite in2="hardAlpha" operator="out"/>
<feColorMatrix type="matrix" values="0 0 0 0 0 0 0 0 0 0 0 0 0 0 0 0 0 0 0.12 0"/>
<feBlend mode="normal" in2="effect1_dropShadow_14612_15306" result="effect2_dropShadow_14612_15306"/>
<feBlend mode="normal" in="SourceGraphic" in2="effect2_dropShadow_14612_15306" result="shape"/>
</filter>
</defs>
</svg>
