<svg width="24" height="24" viewBox="0 0 24 24" fill="none" xmlns="http://www.w3.org/2000/svg">
<path d="M9.41504 5.03784C9.41504 6.60444 10.5723 7.87443 11.9998 7.87443C13.4274 7.87443 14.5846 6.60444 14.5846 5.03784C14.5846 3.9969 13.4434 2.50114 12.6776 1.61454C12.3154 1.19522 11.6843 1.19522 11.3221 1.61454C10.5562 2.50114 9.41504 3.9969 9.41504 5.03784Z" fill="black"/>
<path d="M20.7089 16.486C20.1866 16.7179 19.6061 16.8484 18.9935 16.8484C17.6096 16.8484 16.3863 16.186 15.6391 15.1748C15.5607 15.0677 15.396 15.0677 15.3177 15.1748C14.5705 16.186 13.3472 16.8484 11.9633 16.8484C10.5793 16.8484 9.35608 16.186 8.60887 15.1748C8.53053 15.0677 8.36582 15.0677 8.28748 15.1748C7.54027 16.186 6.31701 16.8484 4.93306 16.8484C4.3606 16.8484 3.81626 16.7335 3.32013 16.5289C3.18756 16.4744 3.04093 16.5679 3.04093 16.7082L4.20795 20.0073C4.6157 20.9639 5.41915 21.297 6.46766 21.297H17.5573C18.7344 21.297 19.6463 20.5138 19.9295 19.6683L20.9901 16.6633C20.9901 16.5211 20.8394 16.4276 20.7069 16.486H20.7089Z" fill="black"/>
<path d="M20.4802 10.4166C20.4802 10.4166 21.0526 11.2719 21.3359 12.2071L21.3379 12.2091C21.6211 13.1443 21.5628 13.8885 20.9261 14.4029C20.4119 14.8393 19.737 15.1082 18.9958 15.1082C17.5817 15.1082 16.4006 14.1379 16.1375 12.8559C16.0752 12.5461 15.8061 12.3182 15.4807 12.3182C15.1553 12.3182 14.8861 12.5461 14.8239 12.8559C14.5607 14.1379 13.3797 15.1082 11.9656 15.1082C10.5515 15.1082 9.37042 14.1379 9.10729 12.8559C9.04502 12.5461 8.77587 12.3182 8.45047 12.3182C8.12507 12.3182 7.85591 12.5461 7.79364 12.8559C7.53051 14.1379 6.34944 15.1082 4.93536 15.1082C4.2484 15.1082 3.61769 14.8763 3.11955 14.4944C2.48482 13.9801 2.36029 13.2787 2.64351 12.3435C2.84236 11.683 3.21597 10.9953 3.41884 10.6485C3.43692 10.6154 3.457 10.5822 3.47709 10.5491C3.52731 10.4653 3.55743 10.4166 3.55743 10.4166V10.4205C4.12789 9.55938 5.12417 8.98853 6.25704 8.98853H17.7786C18.9134 8.98853 19.9097 9.56133 20.4802 10.4225V10.4166Z" fill="black"/>
</svg>
