<svg width="24" height="24" viewBox="0 0 24 24" fill="none" xmlns="http://www.w3.org/2000/svg">
<path d="M12.2121 1.4211L12.2696 1.44356L17.752 3.97969C18.1387 4.1594 18.0819 4.72401 17.6672 4.82539L12.7192 6.03237C12.6297 6.05418 12.5668 6.13446 12.5668 6.22669V6.83257C12.5668 6.89233 12.5934 6.949 12.6396 6.98671C13.6665 7.82352 14.8452 8.56356 16.1782 9.36934C17.6555 10.2623 18.923 10.9478 20.3159 11.425C20.5756 11.5141 20.7696 11.7378 20.8099 12.01C20.9152 12.7205 21.0471 13.4738 20.7388 14.1223C20.6612 14.2854 20.5645 14.4422 20.4474 14.591C20.1302 14.9941 19.736 15.2918 19.2654 15.4845C19.1853 15.5173 19.1314 15.595 19.1342 15.6816C19.1649 16.6291 19.2417 17.574 19.3648 18.5158C19.4341 19.0467 19.4808 19.5696 19.5528 20.0842C19.6456 20.748 19.1517 21.4004 18.4829 21.4006H14.3105C14.2047 21.4006 14.1173 21.3179 14.1112 21.2121L13.858 16.7932C13.8007 15.7963 12.9774 15.0169 11.9811 15.0168C10.9849 15.0168 10.1618 15.7956 10.1043 16.7922L9.84911 21.2121C9.843 21.3179 9.75561 21.4006 9.64987 21.4006H5.4784C4.8094 21.4006 4.31595 20.7482 4.40842 20.0842C4.48012 19.5696 4.52615 19.0467 4.59552 18.5158C4.71859 17.574 4.79628 16.6291 4.827 15.6816C4.82981 15.595 4.7759 15.5173 4.69585 15.4845C4.22501 15.2919 3.83012 14.9942 3.51287 14.591C3.39625 14.4428 3.29993 14.2867 3.22247 14.1242C2.91294 13.4748 3.04538 12.7199 3.15134 12.008C3.19171 11.7367 3.38545 11.5147 3.64442 11.426C5.03761 10.9487 6.30426 10.2626 7.78207 9.36934C9.22167 8.49914 10.4834 7.70815 11.566 6.78633C11.6019 6.75575 11.6274 6.71398 11.6274 6.66673L11.6264 1.85078C11.627 1.54291 11.9276 1.33231 12.2121 1.4211Z" fill="black"/>
</svg>
