<svg width="24" height="24" viewBox="0 0 24 24" fill="none" xmlns="http://www.w3.org/2000/svg">
<path d="M4.34922 5.94853C4.54612 5.76128 4.82229 5.64875 5.11905 5.64875H18.8819C19.1786 5.64875 19.4548 5.76128 19.6517 5.94853C19.8471 6.13434 19.948 6.37656 19.948 6.61912V17.3706C19.948 17.6131 19.8471 17.8553 19.6517 18.0411C19.4548 18.2284 19.1786 18.3409 18.8819 18.3409H14.3C13.8029 18.3409 13.4 18.7436 13.4 19.2404C13.4 19.7371 13.8029 20.1398 14.3 20.1398H18.8819C19.628 20.1398 20.352 19.8584 20.8925 19.3443C21.4346 18.8288 21.748 18.1198 21.748 17.3706V6.61912C21.748 5.86986 21.4346 5.16088 20.8925 4.64538C20.352 4.13132 19.628 3.84985 18.8819 3.84985H5.11905C4.37291 3.84985 3.6489 4.13132 3.10837 4.64538C2.56631 5.16089 2.25293 5.86986 2.25293 6.61912V8.14312C2.25293 8.63987 2.65587 9.04257 3.15293 9.04257C3.64999 9.04257 4.05293 8.63987 4.05293 8.14312V6.61912C4.05293 6.37656 4.15383 6.13434 4.34922 5.94853Z" fill="black"/>
<path d="M3.15293 10.8441C2.65587 10.8441 2.25293 11.2468 2.25293 11.7435C2.25293 12.2403 2.65587 12.643 3.15293 12.643C6.80435 12.643 9.76442 15.6012 9.76442 19.2504C9.76442 19.7471 10.1674 20.1498 10.6644 20.1498C11.1615 20.1498 11.5644 19.7471 11.5644 19.2504C11.5644 14.6077 7.79847 10.8441 3.15293 10.8441Z" fill="black"/>
<path d="M3.15293 14.3976C2.65587 14.3976 2.25293 14.8003 2.25293 15.297C2.25293 15.7938 2.65587 16.1964 3.15293 16.1964C4.84062 16.1964 6.20877 17.5638 6.20877 19.2504C6.20877 19.7472 6.61171 20.1499 7.10877 20.1499C7.60583 20.1499 8.00877 19.7472 8.00877 19.2504C8.00877 16.5703 5.83474 14.3976 3.15293 14.3976Z" fill="black"/>
<path d="M4.5583 18.9861C4.5583 19.6209 4.04343 20.1354 3.4083 20.1354C2.77317 20.1354 2.2583 19.6209 2.2583 18.9861C2.2583 18.3514 2.77317 17.8368 3.4083 17.8368C4.04343 17.8368 4.5583 18.3514 4.5583 18.9861Z" fill="black"/>
</svg>
