<svg width="24" height="24" viewBox="0 0 24 24" fill="none" xmlns="http://www.w3.org/2000/svg">
<path d="M1.93555 5.69849H19.8637C21.0606 5.69849 22.0155 6.69733 21.9616 7.89301L21.4569 19.093C21.4063 20.2148 20.482 21.0984 19.359 21.0984H4.637C3.51397 21.0984 2.58969 20.2148 2.53914 19.093L1.93555 5.69849Z" fill="url(#paint0_linear_19503_11031)"/>
<path d="M9.98553 10.5991C9.45616 10.5991 8.98454 10.8116 8.62842 11.1441C8.28192 11.4767 8.06055 11.9293 8.06055 12.4466C8.06055 12.9547 8.28192 13.4073 8.62842 13.7491L11.4258 16.4339C11.6967 16.6938 12.1244 16.6938 12.3952 16.4339L15.1926 13.7491C15.5391 13.4166 15.7605 12.9639 15.7605 12.4466C15.7605 11.9386 15.5391 11.4859 15.1926 11.1441C14.8461 10.8116 14.3745 10.5991 13.8355 10.5991C13.3061 10.5991 12.8345 10.8116 12.4784 11.1441C12.1319 11.4767 11.9105 11.9293 11.9105 12.4466C11.9105 11.9386 11.6891 11.4859 11.3426 11.1441C10.9961 10.8116 10.5245 10.5991 9.98553 10.5991Z" fill="white"/>
<path d="M1.93555 4.99916C1.93555 3.83937 2.87574 2.89917 4.03553 2.89917H9.73761C10.533 2.89917 11.2602 3.34857 11.6159 4.06002L12.4355 5.69915H1.93555V4.99916Z" fill="#DA8B0D"/>
<defs>
<linearGradient id="paint0_linear_19503_11031" x1="0.478905" y1="4.99899" x2="21.9164" y2="22.499" gradientUnits="userSpaceOnUse">
<stop stop-color="#FFDD87"/>
<stop offset="1" stop-color="#FFA800"/>
</linearGradient>
</defs>
</svg>
