<svg width="24" height="24" viewBox="0 0 24 24" fill="none" xmlns="http://www.w3.org/2000/svg">
<path fill-rule="evenodd" clip-rule="evenodd" d="M2.99961 11.6189C3.49667 11.6189 3.89961 12.0218 3.89961 12.5189L3.89961 17.5189C3.89961 18.6787 4.83981 19.6189 5.99961 19.6189H17.9996C19.1594 19.6189 20.0996 18.6787 20.0996 17.5189V12.5189C20.0996 12.0218 20.5026 11.6189 20.9996 11.6189C21.4967 11.6189 21.8996 12.0218 21.8996 12.5189V17.5189C21.8996 19.6728 20.1535 21.4189 17.9996 21.4189H5.99961C3.8457 21.4189 2.09961 19.6728 2.09961 17.5189L2.09961 12.5189C2.09961 12.0218 2.50255 11.6189 2.99961 11.6189Z" fill="black"/>
<path fill-rule="evenodd" clip-rule="evenodd" d="M11.3632 3.8449C11.7147 3.49343 12.2845 3.49343 12.636 3.8449L16.5251 7.73399C16.8766 8.08546 16.8766 8.65531 16.5251 9.00678C16.1736 9.35825 15.6038 9.35825 15.2523 9.00678L12.8996 6.65409L12.8996 15.6378C12.8996 16.1348 12.4967 16.5378 11.9996 16.5378C11.5026 16.5378 11.0996 16.1348 11.0996 15.6378L11.0996 6.65409L8.74692 9.00678C8.39545 9.35825 7.8256 9.35825 7.47413 9.00678C7.12265 8.65531 7.12265 8.08546 7.47413 7.73399L11.3632 3.8449Z" fill="black"/>
</svg>
