<svg width="64" height="64" viewBox="0 0 64 64" fill="none" xmlns="http://www.w3.org/2000/svg">
<path fill-rule="evenodd" clip-rule="evenodd" d="M29.5598 6.82031C25.4374 6.82031 22.0956 10.1622 22.0956 14.2845C22.0956 18.4069 25.4374 21.7488 29.5598 21.7488C33.6822 21.7488 37.024 18.4069 37.024 14.2845C37.024 10.1622 33.6822 6.82031 29.5598 6.82031ZM19.0956 14.2845C19.0956 8.50531 23.7806 3.82031 29.5598 3.82031C35.339 3.82031 40.024 8.50531 40.024 14.2845C40.024 20.0638 35.339 24.7488 29.5598 24.7488C23.7806 24.7488 19.0956 20.0638 19.0956 14.2845Z" fill="#AEAEAE"/>
<path fill-rule="evenodd" clip-rule="evenodd" d="M10.6945 17.7703C8.87199 17.7703 7.39453 19.2478 7.39453 21.0703C7.39453 22.8929 8.87199 24.3703 10.6945 24.3703C12.5171 24.3703 13.9945 22.8929 13.9945 21.0703C13.9945 19.2478 12.5171 17.7703 10.6945 17.7703ZM4.39453 21.0703C4.39453 17.5909 7.21514 14.7703 10.6945 14.7703C14.1739 14.7703 16.9945 17.5909 16.9945 21.0703C16.9945 24.5497 14.1739 27.3703 10.6945 27.3703C7.21514 27.3703 4.39453 24.5497 4.39453 21.0703Z" fill="#AEAEAE"/>
<path fill-rule="evenodd" clip-rule="evenodd" d="M48.4247 17.7C46.6022 17.7 45.1247 19.1775 45.1247 21C45.1247 22.8225 46.6022 24.3 48.4247 24.3C50.2473 24.3 51.7247 22.8225 51.7247 21C51.7247 19.1775 50.2473 17.7 48.4247 17.7ZM42.1247 21C42.1247 17.5206 44.9453 14.7 48.4247 14.7C51.9041 14.7 54.7247 17.5206 54.7247 21C54.7247 24.4794 51.9041 27.3 48.4247 27.3C44.9453 27.3 42.1247 24.4794 42.1247 21Z" fill="#AEAEAE"/>
<path fill-rule="evenodd" clip-rule="evenodd" d="M27.3468 29.601C18.1674 29.601 10.7261 37.0423 10.7261 46.2216C10.7261 46.9645 11.3283 47.5667 12.0711 47.5667H25.6412C26.4697 47.5667 27.1412 48.2382 27.1412 49.0667C27.1412 49.8951 26.4697 50.5667 25.6412 50.5667H12.0711C9.67145 50.5667 7.72612 48.6213 7.72612 46.2216C7.72612 35.3855 16.5106 26.601 27.3468 26.601H35.8928C36.7212 26.601 37.3928 27.2726 37.3928 28.101C37.3928 28.9294 36.7212 29.601 35.8928 29.601H27.3468Z" fill="#AEAEAE"/>
<path fill-rule="evenodd" clip-rule="evenodd" d="M44.969 34.899C38.4337 34.899 33.1357 40.1969 33.1357 46.7323C33.1357 53.2677 38.4337 58.5656 44.969 58.5656C51.5044 58.5656 56.8024 53.2677 56.8024 46.7323C56.8024 40.1969 51.5044 34.899 44.969 34.899ZM30.1357 46.7323C30.1357 38.5401 36.7768 31.899 44.969 31.899C53.1613 31.899 59.8024 38.5401 59.8024 46.7323C59.8024 54.9245 53.1613 61.5656 44.969 61.5656C36.7768 61.5656 30.1357 54.9245 30.1357 46.7323Z" fill="#AEAEAE"/>
<path fill-rule="evenodd" clip-rule="evenodd" d="M50.6163 41.9856C49.9441 41.5015 49.0067 41.654 48.5226 42.3263L43.9676 48.6519L41.4596 46.1439C40.8738 45.5581 39.9241 45.5581 39.3383 46.1439C38.7525 46.7297 38.7525 47.6795 39.3383 48.2652L42.3174 51.2444C43.378 52.305 45.1363 52.1628 46.0127 50.9457L50.9571 44.0793C51.4412 43.4071 51.2886 42.4696 50.6163 41.9856Z" fill="#AEAEAE"/>
</svg>
