<svg width="24" height="24" viewBox="0 0 24 24" fill="none" xmlns="http://www.w3.org/2000/svg">
<path fill-rule="evenodd" clip-rule="evenodd" d="M18.544 3.71494C17.802 2.97295 16.5989 2.97295 15.857 3.71494L3.96714 15.6048C3.61082 15.9611 3.41064 16.4443 3.41064 16.9483V20.2742C3.41064 20.5129 3.50547 20.7418 3.67425 20.9106C3.84303 21.0793 4.07195 21.1742 4.31064 21.1742H7.63656C8.14047 21.1742 8.62374 20.974 8.98006 20.6177L20.8699 8.72786C21.6119 7.98587 21.6119 6.78285 20.8699 6.04086L18.544 3.71494ZM17.1297 4.98774C17.1688 4.94868 17.2321 4.94868 17.2712 4.98774L19.5971 7.31365C19.6361 7.3527 19.6361 7.41602 19.5971 7.45507L17.6909 9.36129L15.2235 6.89396L17.1297 4.98774Z" fill="black"/>
</svg>
