<svg width="64" height="64" viewBox="0 0 64 64" fill="none" xmlns="http://www.w3.org/2000/svg">
<path d="M12.5723 8.00903C12.5723 7.73289 12.7961 7.50903 13.0723 7.50903H25.3117C25.4678 7.50903 25.6149 7.5819 25.7095 7.70605L30.0471 13.4003C30.7091 14.2693 31.7389 14.7794 32.8313 14.7794H50.4936C50.7698 14.7794 50.9936 15.0032 50.9936 15.2794V18.1868C50.9936 19.0153 51.6652 19.6868 52.4936 19.6868C53.322 19.6868 53.9936 19.0153 53.9936 18.1868V15.2794C53.9936 13.3464 52.4266 11.7794 50.4936 11.7794H32.8313C32.6752 11.7794 32.5281 11.7065 32.4335 11.5823L28.0959 5.88814C27.434 5.01912 26.4042 4.50903 25.3117 4.50903H13.0723C11.1393 4.50903 9.57227 6.07604 9.57227 8.00903V18.1868C9.57227 19.0153 10.2438 19.6868 11.0723 19.6868C11.9007 19.6868 12.5723 19.0153 12.5723 18.1868V8.00903Z" fill="#AEAEAE"/>
<path d="M16.6094 48.1565C15.7809 48.1565 15.1094 48.8281 15.1094 49.6565C15.1094 50.4849 15.7809 51.1565 16.6094 51.1565H27.7331C28.5616 51.1565 29.2331 50.4849 29.2331 49.6565C29.2331 48.8281 28.5616 48.1565 27.7331 48.1565H16.6094Z" fill="#AEAEAE"/>
<path fill-rule="evenodd" clip-rule="evenodd" d="M7.09221 21.1707H33.0918V20.7068C33.0918 19.3261 34.2111 18.2068 35.5918 18.2068H46.8373C48.218 18.2068 49.3373 19.3261 49.3373 20.7068V21.1707H56.9066C58.9931 21.1707 60.6162 22.9847 60.3851 25.0583L56.8944 56.38C56.6969 58.152 55.1989 59.4923 53.4159 59.4923H10.5829C8.79995 59.4923 7.30196 58.152 7.10447 56.38L3.61375 25.0583C3.38265 22.9847 5.0057 21.1707 7.09221 21.1707ZM6.59529 24.726C6.56228 24.4298 6.79415 24.1707 7.09221 24.1707H33.0918V40.411C33.0918 42.5339 35.5706 43.6907 37.1976 42.3271L41.2146 38.9607L45.2315 42.3271C46.8586 43.6907 49.3373 42.5339 49.3373 40.411V24.1707H56.9066C57.2047 24.1707 57.4366 24.4298 57.4035 24.726L53.9128 56.0477C53.8846 56.3008 53.6706 56.4923 53.4159 56.4923H10.5829C10.3282 56.4923 10.1142 56.3008 10.086 56.0477L6.59529 24.726ZM36.0918 21.2068V39.3396L39.6088 36.3922C40.5377 35.6136 41.8914 35.6136 42.8204 36.3922L46.3373 39.3396V21.2068H36.0918Z" fill="#AEAEAE"/>
</svg>
