<svg width="64" height="64" viewBox="0 0 64 64" fill="none" xmlns="http://www.w3.org/2000/svg">
<path d="M44.5828 24.3876C45.1124 23.7506 45.0254 22.8048 44.3885 22.2752C43.7515 21.7455 42.8057 21.8325 42.2761 22.4694L28.5971 38.9194L21.6329 31.9552C21.0471 31.3694 20.0974 31.3694 19.5116 31.9552C18.9258 32.541 18.9258 33.4908 19.5116 34.0766L27.6385 42.2035C27.9367 42.5016 28.3467 42.6605 28.7679 42.6412C29.1892 42.6219 29.5829 42.4261 29.8525 42.1019L44.5828 24.3876Z" fill="#AEAEAE"/>
<path fill-rule="evenodd" clip-rule="evenodd" d="M31.9999 3.07153C16.0231 3.07153 3.07129 16.0233 3.07129 32.0001C3.07129 47.9769 16.0231 60.9287 31.9999 60.9287C47.9767 60.9287 60.9284 47.9769 60.9284 32.0001C60.9284 16.0233 47.9767 3.07153 31.9999 3.07153ZM6.07129 32.0001C6.07129 17.6802 17.6799 6.07153 31.9999 6.07153C46.3198 6.07153 57.9284 17.6802 57.9284 32.0001C57.9284 46.3201 46.3198 57.9287 31.9999 57.9287C17.6799 57.9287 6.07129 46.3201 6.07129 32.0001Z" fill="#AEAEAE"/>
</svg>
