<svg width="64" height="64" viewBox="0 0 64 64" fill="none" xmlns="http://www.w3.org/2000/svg">
<path d="M30.2646 3.8335C29.703 3.8335 29.1451 3.84995 28.5913 3.88243C27.7642 3.93092 27.1331 4.64066 27.1816 5.46766C27.2301 6.29467 27.9399 6.92578 28.7669 6.87728C29.2622 6.84823 29.7616 6.8335 30.2646 6.8335C30.7071 6.8335 31.1467 6.8449 31.5833 6.86742C32.4107 6.91008 33.1159 6.27399 33.1586 5.44666C33.2013 4.61933 32.5652 3.91406 31.7379 3.8714C31.2498 3.84623 30.7586 3.8335 30.2646 3.8335Z" fill="#AEAEAE"/>
<path d="M37.5563 4.78684C36.756 4.57291 35.9338 5.04828 35.7199 5.84861C35.5059 6.64894 35.9813 7.47115 36.7816 7.68509C37.6352 7.91326 38.471 8.18521 39.2863 8.4984C40.0596 8.79545 40.9273 8.40936 41.2244 7.63602C41.5215 6.86269 41.1353 5.99496 40.362 5.6979C39.4487 5.34709 38.5126 5.04245 37.5563 4.78684Z" fill="#AEAEAE"/>
<path d="M22.8897 7.93094C23.6818 7.68854 24.1275 6.84984 23.8851 6.05768C23.6427 5.26551 22.804 4.81984 22.0118 5.06225C20.9371 5.39114 19.8897 5.78253 18.8739 6.23217C18.1164 6.5675 17.7741 7.45344 18.1095 8.21096C18.4448 8.96849 19.3307 9.31074 20.0883 8.97541C20.9952 8.57393 21.9303 8.22452 22.8897 7.93094Z" fill="#AEAEAE"/>
<path d="M45.608 8.37562C44.9136 7.92379 43.9844 8.12039 43.5326 8.81475C43.0808 9.50911 43.2774 10.4383 43.9717 10.8901C44.7094 11.3702 45.4205 11.8879 46.1022 12.4406C46.7457 12.9623 47.6903 12.8636 48.212 12.2201C48.7337 11.5766 48.635 10.632 47.9915 10.1103C47.229 9.49205 46.4335 8.91281 45.608 8.37562Z" fill="#AEAEAE"/>
<path d="M14.9538 12.0249C15.611 11.5205 15.7347 10.5788 15.2302 9.92171C14.7258 9.26459 13.7841 9.14085 13.127 9.64532C12.2406 10.3258 11.3959 11.0578 10.5974 11.8368C10.0044 12.4153 9.99263 13.365 10.5711 13.958C11.1496 14.5509 12.0993 14.5627 12.6923 13.9842C13.4063 13.2877 14.1615 12.6333 14.9538 12.0249Z" fill="#AEAEAE"/>
<path d="M52.1545 14.2732C51.6328 13.6297 50.6882 13.531 50.0447 14.0528C49.4012 14.5745 49.3025 15.5191 49.8242 16.1626C50.3769 16.8443 50.8946 17.5554 51.3747 18.2931C51.8265 18.9874 52.7557 19.184 53.45 18.7322C54.1444 18.2803 54.341 17.3512 53.8892 16.6568C53.352 15.8313 52.7727 15.0358 52.1545 14.2732Z" fill="#AEAEAE"/>
<path d="M8.93845 18.6311C9.37918 17.9296 9.1678 17.0037 8.46634 16.5629C7.76487 16.1222 6.83894 16.3336 6.39822 17.0351C6.10441 17.5027 5.82394 17.9796 5.55736 18.4653C5.25271 18.9979 5.08892 19.6252 4.99983 20.2259C4.8783 21.0454 5.44408 21.8082 6.26355 21.9298C7.08301 22.0513 7.84584 21.4855 7.96737 20.6661C8.02908 20.25 8.117 20.0314 8.16244 19.9531L8.17163 19.9373L8.18042 19.9212C8.42059 19.4831 8.67342 19.0529 8.93845 18.6311Z" fill="#AEAEAE"/>
<path d="M56.5669 21.9028C56.2698 21.1294 55.4021 20.7433 54.6288 21.0404C53.8554 21.3374 53.4693 22.2052 53.7664 22.9785C54.0796 23.7938 54.3515 24.6296 54.5797 25.4832C54.7936 26.2835 55.6159 26.7589 56.4162 26.5449C57.2165 26.331 57.6919 25.5088 57.4779 24.7085C57.2223 23.7522 56.9177 22.816 56.5669 21.9028Z" fill="#AEAEAE"/>
<path d="M8.40122 25.2444C8.18555 24.4445 7.3623 23.9709 6.56244 24.1866C5.76257 24.4023 5.289 25.2255 5.50467 26.0254C5.75251 26.9446 6.08005 27.8689 6.49248 28.7383C6.84755 29.4867 7.74215 29.8057 8.49063 29.4506C9.2391 29.0955 9.55802 28.2009 9.20294 27.4524C8.87777 26.767 8.60894 26.0148 8.40122 25.2444Z" fill="#AEAEAE"/>
<path d="M58.3934 30.5269C58.3507 29.6996 57.6455 29.0635 56.8181 29.1062C55.9908 29.1489 55.3547 29.8541 55.3974 30.6814C55.4199 31.118 55.4313 31.5577 55.4313 32.0002C55.4313 32.4426 55.4199 32.8823 55.3974 33.3189C55.3547 34.1462 55.9908 34.8515 56.8181 34.8941C57.6455 34.9368 58.3507 34.3007 58.3934 33.4734C58.4186 32.9854 58.4313 32.4942 58.4313 32.0002C58.4313 31.5061 58.4186 31.015 58.3934 30.5269Z" fill="#AEAEAE"/>
<path d="M11.8623 30.3677C11.0785 30.0997 10.2257 30.5178 9.95769 31.3017C9.68964 32.0856 10.1078 32.9383 10.8917 33.2064C11.4499 33.3972 12.0431 33.5002 12.6651 33.5002H13.8232C14.6517 33.5002 15.3232 32.8286 15.3232 32.0002C15.3232 31.1717 14.6517 30.5002 13.8232 30.5002H12.6651C12.3787 30.5002 12.1133 30.4535 11.8623 30.3677Z" fill="#AEAEAE"/>
<path d="M18.4445 30.5002C17.6161 30.5002 16.9445 31.1717 16.9445 32.0002C16.9445 32.8286 17.6161 33.5002 18.4445 33.5002H19.5984C20.4269 33.5002 21.0984 32.8286 21.0984 32.0002C21.0984 31.1717 20.4262 30.5002 19.5978 30.5002H18.4445Z" fill="#AEAEAE"/>
<path d="M57.4779 39.2919C57.6919 38.4915 57.2165 37.6693 56.4162 37.4554C55.6159 37.2415 54.7936 37.7168 54.5797 38.5172C54.3515 39.3708 54.0796 40.2065 53.7664 41.0218C53.4693 41.7951 53.8554 42.6629 54.6288 42.9599C55.4021 43.257 56.2698 42.8709 56.5669 42.0976C56.9177 41.1843 57.2223 40.2481 57.4779 39.2919Z" fill="#AEAEAE"/>
<path d="M53.8892 47.3435C54.341 46.6491 54.1444 45.72 53.45 45.2681C52.7557 44.8163 51.8265 45.0129 51.3747 45.7073C50.8946 46.445 50.3769 47.156 49.8242 47.8377C49.3025 48.4812 49.4012 49.4258 50.0447 49.9476C50.6882 50.4693 51.6328 50.3706 52.1545 49.7271C52.7727 48.9646 53.352 48.169 53.8892 47.3435Z" fill="#AEAEAE"/>
<path d="M9.4103 46.0925C8.9458 45.4065 8.01318 45.227 7.32722 45.6915C6.64127 46.156 6.46174 47.0886 6.92623 47.7745C7.21209 48.1967 7.50907 48.6106 7.81678 49.016C8.31768 49.6758 9.25865 49.8046 9.91849 49.3037C10.5783 48.8028 10.7072 47.8619 10.2063 47.202C9.93121 46.8397 9.66576 46.4697 9.4103 46.0925Z" fill="#AEAEAE"/>
<path d="M13.952 51.1648C13.3214 50.6275 12.3747 50.7032 11.8374 51.3337C11.3001 51.9643 11.3757 52.911 12.0063 53.4483C12.7806 54.1081 13.5911 54.7267 14.4345 55.3007C15.1194 55.7669 16.0524 55.5896 16.5186 54.9047C16.9847 54.2199 16.8074 53.2868 16.1225 52.8207C15.3688 52.3076 14.6442 51.7547 13.952 51.1648Z" fill="#AEAEAE"/>
<path d="M47.9915 53.89C48.635 53.3683 48.7338 52.4237 48.212 51.7802C47.6903 51.1367 46.7457 51.038 46.1022 51.5597C45.4205 52.1124 44.7094 52.6302 43.9717 53.1102C43.2774 53.562 43.0808 54.4912 43.5326 55.1856C43.9844 55.8799 44.9136 56.0765 45.608 55.6247C46.4335 55.0875 47.229 54.5083 47.9915 53.89Z" fill="#AEAEAE"/>
<path d="M20.9339 55.3808C20.1645 55.0735 19.2918 55.4481 18.9845 56.2174C18.6771 56.9867 19.0517 57.8595 19.821 58.1668C20.7622 58.5427 21.7284 58.8694 22.7165 59.1436C23.5148 59.3652 24.3415 58.8976 24.563 58.0994C24.7845 57.3011 24.317 56.4744 23.5187 56.2529C22.6367 56.0081 21.7741 55.7165 20.9339 55.3808Z" fill="#AEAEAE"/>
<path d="M40.362 58.3024C41.1354 58.0054 41.5215 57.1376 41.2244 56.3643C40.9273 55.591 40.0596 55.2049 39.2863 55.5019C38.471 55.8151 37.6352 56.0871 36.7816 56.3152C35.9813 56.5292 35.5059 57.3514 35.7199 58.1517C35.9338 58.952 36.756 59.4274 37.5563 59.2135C38.5126 58.9579 39.4488 58.6532 40.362 58.3024Z" fill="#AEAEAE"/>
<path d="M28.898 57.1304C28.0707 57.0862 27.3643 57.7209 27.32 58.5482C27.2758 59.3754 27.9106 60.0819 28.7378 60.1261C29.2435 60.1531 29.7525 60.1668 30.2646 60.1668C30.7586 60.1668 31.2498 60.1541 31.7379 60.1289C32.5652 60.0863 33.2013 59.381 33.1586 58.5537C33.1159 57.7263 32.4107 57.0902 31.5833 57.1329C31.1468 57.1554 30.7071 57.1668 30.2646 57.1668C29.806 57.1668 29.3503 57.1546 28.898 57.1304Z" fill="#AEAEAE"/>
<path fill-rule="evenodd" clip-rule="evenodd" d="M26.9386 17.8236C25.2014 16.7854 23.0298 18.1982 23.2749 20.2071L24.5002 30.2495C24.6216 31.2445 25.3408 32.0633 26.3118 32.312L28.8242 32.9555L26.1716 33.8047C25.2759 34.0915 24.6256 34.8688 24.5015 35.8011L23.296 44.858C23.0297 46.8586 25.1744 48.295 26.9231 47.2873L48.4375 34.8889C50.0471 33.9613 50.0655 31.6449 48.4708 30.6919L26.9386 17.8236ZM27.4312 29.5019L26.393 20.9924L46.103 32.7717L26.4215 44.1139L27.428 36.5525L34.7015 34.2238C35.3383 34.02 35.7632 33.4192 35.7435 32.7509C35.7237 32.0826 35.264 31.508 34.6163 31.3422L27.4312 29.5019Z" fill="#AEAEAE"/>
</svg>
