<svg width="64" height="64" viewBox="0 0 64 64" fill="none" xmlns="http://www.w3.org/2000/svg">
<path d="M34.0001 41.6711C34.0001 40.4087 32.9768 39.3854 31.7144 39.3854C30.4521 39.3854 29.4287 40.4087 29.4287 41.6711C29.4287 42.9334 30.4521 43.9568 31.7144 43.9568C32.9768 43.9568 34.0001 42.9334 34.0001 41.6711Z" fill="#AEAEAE"/>
<path d="M33.2139 35.6289C33.2139 36.4573 32.5423 37.1289 31.7139 37.1289C30.8854 37.1289 30.2139 36.4573 30.2139 35.6289V20.6508C30.2139 19.8224 30.8854 19.1508 31.7139 19.1508C32.5423 19.1508 33.2139 19.8224 33.2139 20.6508V35.6289Z" fill="#AEAEAE"/>
<path fill-rule="evenodd" clip-rule="evenodd" d="M3.07129 32.0001C3.07129 16.0233 16.0231 3.07153 31.9999 3.07153C47.9767 3.07153 60.9284 16.0233 60.9284 32.0001C60.9284 47.9769 47.9767 60.9287 31.9999 60.9287C16.0231 60.9287 3.07129 47.9769 3.07129 32.0001ZM31.9999 6.07153C17.6799 6.07153 6.07129 17.6802 6.07129 32.0001C6.07129 46.3201 17.6799 57.9287 31.9999 57.9287C46.3198 57.9287 57.9284 46.3201 57.9284 32.0001C57.9284 17.6802 46.3198 6.07153 31.9999 6.07153Z" fill="#AEAEAE"/>
</svg>
