<svg width="24" height="24" viewBox="0 0 24 24" fill="none" xmlns="http://www.w3.org/2000/svg">
<path fill-rule="evenodd" clip-rule="evenodd" d="M23.4006 6.5001C23.4006 4.89847 22.1022 3.6001 20.5006 3.6001H3.50059C1.89896 3.6001 0.600586 4.89847 0.600586 6.5001V17.5001C0.600586 19.1017 1.89896 20.4001 3.50058 20.4001L20.5006 20.4001C22.1022 20.4001 23.4006 19.1017 23.4006 17.5001V6.5001ZM4.15977 14.7574V9.473H5.50376V13.6771H7.74863V14.7574H4.15977ZM8.53008 9.473V14.7574H9.87407V9.473H8.53008ZM12.2302 14.7574L10.5676 9.473H12.1021L13.0652 13.3292H13.1348L14.0942 9.473H15.6287L13.9661 14.7574H12.2302ZM16.3186 14.7574V9.473H19.9404V10.5533H17.6625V11.608H19.8049V12.5968H17.6625V13.6771H19.9404V14.7574H16.3186Z" fill="black"/>
</svg>
