<svg width="24" height="24" viewBox="0 0 24 24" fill="none" xmlns="http://www.w3.org/2000/svg">
<path fill-rule="evenodd" clip-rule="evenodd" d="M4.08789 4.5001C4.08789 3.45076 4.93855 2.6001 5.98789 2.6001L18.0113 2.6001C19.0607 2.6001 19.9113 3.45076 19.9113 4.5001V9.64281C20.9239 9.59944 21.8996 10.3865 21.8996 11.5446V19.5C21.8996 20.5493 21.0489 21.4 19.9996 21.4H3.99961C2.95027 21.4 2.09961 20.5493 2.09961 19.5L2.09961 11.5446C2.09961 10.3865 3.07536 9.59944 4.08789 9.64281L4.08789 4.5001ZM7.29207 11.6984L5.88998 10.6079C5.8886 10.6012 5.88789 10.5944 5.88789 10.5875L5.88789 4.5001C5.88789 4.44487 5.93266 4.4001 5.98789 4.4001L18.0113 4.4001C18.0666 4.4001 18.1113 4.44487 18.1113 4.5001V10.5875C18.1113 10.5944 18.1106 10.6012 18.1092 10.6079L16.7071 11.6984L12.0599 15.2101C12.0242 15.2371 11.975 15.2371 11.9393 15.2101L7.29207 11.6984ZM4.59915 11.8842L4.061 11.4657C4.03698 11.447 4.02098 11.4439 4.01058 11.443C3.99641 11.4419 3.97673 11.4445 3.95567 11.4548C3.93462 11.4651 3.92047 11.479 3.91268 11.4909C3.90698 11.4996 3.89961 11.5142 3.89961 11.5446L3.89961 19.5C3.89961 19.5552 3.94438 19.6 3.99961 19.6H19.9996C20.0548 19.6 20.0996 19.5552 20.0996 19.5V11.5446C20.0996 11.5142 20.0922 11.4996 20.0865 11.4909C20.0788 11.479 20.0646 11.4651 20.0435 11.4548C20.0225 11.4445 20.0028 11.4419 19.9886 11.443C19.9782 11.4439 19.9622 11.447 19.9382 11.4657L19.4001 11.8842C19.3261 11.9635 19.2448 12.0369 19.1568 12.1034L17.8024 13.1269L13.1661 16.7329C12.48 17.2665 11.5192 17.2665 10.8331 16.7329L6.19687 13.1269L4.84241 12.1034C4.75443 12.0369 4.67317 11.9635 4.59915 11.8842Z" fill="black"/>
<path d="M12 7.5884C12.5242 6.90307 13.2443 6.51777 14.0749 6.89675C14.9908 7.31363 15.2592 8.42531 14.7318 9.33171C14.3667 9.9556 13.1885 10.9767 12.3629 11.7624C12.1606 11.9549 11.8394 11.9549 11.6371 11.7624C10.8114 10.9767 9.63321 9.9556 9.26815 9.33171C8.74073 8.42531 9.00602 7.31363 9.92505 6.89675C10.7588 6.51777 11.4789 6.90307 12 7.5884Z" fill="black"/>
</svg>
