<svg width="24" height="24" viewBox="0 0 24 24" fill="none" xmlns="http://www.w3.org/2000/svg">
<path d="M5.96875 12C5.96875 13.1046 5.07332 14 3.96875 14C2.86418 14 1.96875 13.1046 1.96875 12C1.96875 10.8954 2.86418 10 3.96875 10C5.07332 10 5.96875 10.8954 5.96875 12Z" stroke="#282828" stroke-width="1.5"/>
<path d="M14 12C14 13.1046 13.1046 14 12 14C10.8954 14 10 13.1046 10 12C10 10.8954 10.8954 10 12 10C13.1046 10 14 10.8954 14 12Z" stroke="#282828" stroke-width="1.5"/>
<path d="M22.0312 12C22.0312 13.1046 21.1358 14 20.0312 14C18.9267 14 18.0312 13.1046 18.0312 12C18.0312 10.8954 18.9267 10 20.0312 10C21.1358 10 22.0312 10.8954 22.0312 12Z" stroke="#282828" stroke-width="1.5"/>
</svg>
