<svg width="24" height="24" viewBox="0 0 24 24" fill="none" xmlns="http://www.w3.org/2000/svg">
<path fill-rule="evenodd" clip-rule="evenodd" d="M5.72979 5.18318C5.29263 3.21597 6.78958 1.34985 8.80478 1.34985H9.04222C10.3066 1.34985 11.4339 2.059 11.9999 3.13684C12.5659 2.059 13.6932 1.34985 14.9576 1.34985H15.195C17.2102 1.34985 18.7072 3.21597 18.27 5.18318C18.218 5.41728 18.1407 5.64041 18.0414 5.84995H20.2496C21.5751 5.84995 22.6496 6.92447 22.6496 8.24995V11.25C22.6496 12.2572 22.0292 13.1195 21.1496 13.4755V20.25C21.1496 21.5754 20.0751 22.65 18.7496 22.65H5.24961C3.92413 22.65 2.84961 21.5754 2.84961 20.25L2.84961 13.4755C1.97006 13.1195 1.34961 12.2572 1.34961 11.25V8.24995C1.34961 6.92447 2.42413 5.84995 3.74961 5.84995H5.95843C5.85911 5.64041 5.78181 5.41728 5.72979 5.18318ZM13.1219 5.84985H15.195C15.8278 5.84985 16.3756 5.41039 16.5129 4.79271C16.7002 3.94962 16.0587 3.14985 15.195 3.14985H14.9576C14.2356 3.14985 13.6104 3.65133 13.4538 4.35615L13.1219 5.84985ZM10.8779 5.84985H8.80478C8.17204 5.84985 7.62419 5.41039 7.48693 4.79271C7.29957 3.94962 7.94112 3.14985 8.80478 3.14985H9.04222C9.76424 3.14985 10.3894 3.65133 10.546 4.35615L10.8779 5.84985ZM4.64961 13.65L4.64961 20.25C4.64961 20.5813 4.91824 20.85 5.24961 20.85H18.7496C19.081 20.85 19.3496 20.5813 19.3496 20.25V13.65H4.64961ZM3.74961 7.64995C3.41824 7.64995 3.14961 7.91858 3.14961 8.24995V11.25C3.14961 11.5813 3.41824 11.85 3.74961 11.85H20.2496C20.581 11.85 20.8496 11.5813 20.8496 11.25V8.24995C20.8496 7.91858 20.581 7.64995 20.2496 7.64995H3.74961Z" fill="black"/>
</svg>
