<svg width="24" height="24" viewBox="0 0 24 24" fill="none" xmlns="http://www.w3.org/2000/svg">
<path fill-rule="evenodd" clip-rule="evenodd" d="M3.25 2.5C2.69772 2.5 2.25 2.94772 2.25 3.5V16.5C2.25 19.2614 4.48858 21.5 7.25 21.5H16.75C19.5114 21.5 21.75 19.2614 21.75 16.5V3.5C21.75 2.94772 21.3023 2.5 20.75 2.5H3.25ZM8.5001 6.60779C8.99715 6.60779 9.4001 7.01073 9.4001 7.50779V8.00779C9.4001 9.44373 10.5642 10.6078 12.0001 10.6078C13.436 10.6078 14.6001 9.44373 14.6001 8.00779V7.50779C14.6001 7.01073 15.003 6.60779 15.5001 6.60779C15.9972 6.60779 16.4001 7.01073 16.4001 7.50779V8.00779C16.4001 10.4378 14.4302 12.4078 12.0001 12.4078C9.57004 12.4078 7.6001 10.4378 7.6001 8.00779V7.50779C7.6001 7.01073 8.00304 6.60779 8.5001 6.60779Z" fill="#282828"/>
</svg>
