<svg width="24" height="24" viewBox="0 0 24 24" fill="none" xmlns="http://www.w3.org/2000/svg">
<path fill-rule="evenodd" clip-rule="evenodd" d="M21.4006 4.63649C21.7521 4.28502 21.7521 3.71517 21.4006 3.3637C21.0491 3.01223 20.4793 3.01223 20.1278 3.3637L3.36312 20.1284C3.01164 20.4799 3.01164 21.0497 3.36312 21.4012C3.71459 21.7527 4.28444 21.7527 4.63591 21.4012L7.7303 18.3068C9.01414 18.7891 10.4535 19.0802 11.9996 19.0802C14.9548 19.0802 17.5214 18.0239 19.357 16.597C21.148 15.2047 22.3996 13.3246 22.3996 11.5902C22.3996 9.8732 21.1844 8.00916 19.4194 6.61766L21.4006 4.63649ZM18.136 7.90113L16.0841 9.95303C16.2876 10.4593 16.3996 11.0118 16.3996 11.5902C16.3996 14.0173 14.4267 15.9902 11.9996 15.9902C11.4213 15.9902 10.8687 15.8782 10.3624 15.6746L9.15429 16.8828C10.0357 17.1346 10.9905 17.2802 11.9996 17.2802C14.5244 17.2802 16.7078 16.3765 18.2522 15.1759C19.8413 13.9406 20.5996 12.5258 20.5996 11.5902C20.5996 10.6509 19.8494 9.23604 18.2697 8.00351C18.2257 7.96914 18.1811 7.935 18.136 7.90113ZM11.8511 14.186C11.9003 14.1888 11.9498 14.1902 11.9996 14.1902C13.4326 14.1902 14.5996 13.0231 14.5996 11.5902C14.5996 11.5404 14.5982 11.4908 14.5954 11.4417L11.8511 14.186Z" fill="black"/>
<path d="M11.9996 4.1002C13.5766 4.1002 15.0382 4.39598 16.3364 4.88634L14.9138 6.30889C14.016 6.05016 13.0384 5.9002 11.9996 5.9002C9.47662 5.9002 7.29339 6.81019 5.74796 8.01499C4.15656 9.25562 3.39961 10.6707 3.39961 11.5902C3.39961 12.5096 4.15656 13.9248 5.74796 15.1654C5.80564 15.2104 5.86421 15.2549 5.92366 15.299L4.63927 16.5834C2.85173 15.1892 1.59961 13.3101 1.59961 11.5902C1.59961 9.86965 2.85266 7.98977 4.64126 6.5954C6.47583 5.1652 9.04259 4.1002 11.9996 4.1002Z" fill="black"/>
<path d="M11.9996 7.1902C12.5997 7.1902 13.172 7.31081 13.6936 7.52907L12.223 8.99972C12.1493 8.99341 12.0748 8.9902 11.9996 8.9902C10.5667 8.9902 9.39961 10.1573 9.39961 11.5902C9.39961 11.6654 9.40283 11.7399 9.40913 11.8136L7.93848 13.2842C7.72022 12.7626 7.59961 12.1903 7.59961 11.5902C7.59961 9.16314 9.57255 7.1902 11.9996 7.1902Z" fill="black"/>
</svg>
