<svg width="24" height="24" viewBox="0 0 24 24" fill="none" xmlns="http://www.w3.org/2000/svg">
<path fill-rule="evenodd" clip-rule="evenodd" d="M6.86377 7.23539C6.86377 4.39925 9.16292 2.1001 11.9991 2.1001C14.8352 2.1001 17.1344 4.39925 17.1344 7.23539V9.41187H17.4109C19.0678 9.41187 20.4109 10.755 20.4109 12.4119V19.0001C20.4109 20.657 19.0678 22.0001 17.4109 22.0001H6.5874C4.93055 22.0001 3.5874 20.657 3.5874 19.0001V12.4119C3.5874 10.755 4.93055 9.41187 6.5874 9.41187H6.86377V7.23539ZM15.3344 7.23539V9.41187H8.66377V7.23539C8.66377 5.39336 10.157 3.9001 11.9991 3.9001C13.8411 3.9001 15.3344 5.39336 15.3344 7.23539ZM11.9995 13.747C12.4966 13.747 12.8995 14.1499 12.8995 14.647V16.7646C12.8995 17.2617 12.4966 17.6646 11.9995 17.6646C11.5025 17.6646 11.0995 17.2617 11.0995 16.7646V14.647C11.0995 14.1499 11.5025 13.747 11.9995 13.747Z" fill="black"/>
</svg>
