<svg width="24" height="24" viewBox="0 0 24 24" fill="none" xmlns="http://www.w3.org/2000/svg">
<path fill-rule="evenodd" clip-rule="evenodd" d="M1.51416 5.11416C1.51416 3.12594 3.12593 1.51416 5.11416 1.51416H18.886C20.8743 1.51416 22.486 3.12593 22.486 5.11416V18.886C22.486 20.8743 20.8743 22.486 18.886 22.486H5.11416C3.12594 22.486 1.51416 20.8743 1.51416 18.886V5.11416ZM5.11416 3.31416C4.12005 3.31416 3.31416 4.12005 3.31416 5.11416V18.886C3.31416 19.8801 4.12005 20.686 5.11416 20.686H18.886C19.8801 20.686 20.686 19.8801 20.686 18.886V5.11416C20.686 4.12005 19.8801 3.31416 18.886 3.31416H5.11416ZM6.6001 7.5001C6.6001 7.00304 7.00304 6.6001 7.5001 6.6001L16.5001 6.6001C16.9972 6.6001 17.4001 7.00304 17.4001 7.5001C17.4001 7.99716 16.9972 8.4001 16.5001 8.4001L7.5001 8.4001C7.00304 8.4001 6.6001 7.99715 6.6001 7.5001ZM6.6001 12.0001C6.6001 11.503 7.00304 11.1001 7.5001 11.1001L16.5001 11.1001C16.9972 11.1001 17.4001 11.503 17.4001 12.0001C17.4001 12.4972 16.9972 12.9001 16.5001 12.9001L7.5001 12.9001C7.00304 12.9001 6.6001 12.4972 6.6001 12.0001ZM6.6001 16.5001C6.6001 16.003 7.00304 15.6001 7.5001 15.6001L12.0001 15.6001C12.4972 15.6001 12.9001 16.003 12.9001 16.5001C12.9001 16.9972 12.4972 17.4001 12.0001 17.4001L7.5001 17.4001C7.00304 17.4001 6.6001 16.9972 6.6001 16.5001Z" fill="black"/>
</svg>
