<svg width="24" height="24" viewBox="0 0 24 24" fill="none" xmlns="http://www.w3.org/2000/svg">
<path fill-rule="evenodd" clip-rule="evenodd" d="M20.4331 3.58228C20.7867 3.28065 21.3195 3.29704 21.6538 3.6311C22.0048 3.98245 22.0047 4.55312 21.6538 4.90454L20.3999 6.15845V21.0002C20.3998 21.3076 20.2421 21.5938 19.9829 21.759C19.7236 21.9238 19.3971 21.9455 19.1186 21.8157L11.9995 18.4934L4.88035 21.8157C4.7588 21.8723 4.6276 21.8981 4.49754 21.8977C4.19407 21.9833 3.85445 21.9077 3.6157 21.6692C3.28073 21.334 3.26566 20.8001 3.5698 20.4465C3.58674 20.4319 3.60453 20.4177 3.62059 20.4016L20.3852 3.63696C20.4025 3.61971 20.4175 3.60052 20.4331 3.58228ZM8.34715 18.2102L11.6186 16.6848L11.7114 16.6477C11.9293 16.5741 12.1696 16.5867 12.3804 16.6848L18.5991 19.5862V7.95923L8.34715 18.2102Z" fill="black"/>
<path d="M17.4995 3.09985C17.7662 3.09988 18.025 3.13665 18.27 3.20435L16.5747 4.90063H6.49949C5.89237 4.9011 5.39988 5.39302 5.39988 6.00024V16.0754L3.5991 17.8762V6.00024C3.5991 4.3989 4.89826 3.10032 6.49949 3.09985H17.4995Z" fill="black"/>
</svg>
