<svg width="24" height="24" viewBox="0 0 24 24" fill="none" xmlns="http://www.w3.org/2000/svg">
<path d="M19 14.0002C17.8954 14.0002 17 13.1048 17 12.0002C17 10.8957 17.8954 10.0002 19 10.0002C20.1046 10.0002 21 10.8957 21 12.0002C21 13.1048 20.1046 14.0002 19 14.0002Z" fill="black"/>
<path d="M12 14.0002C10.8954 14.0002 10 13.1048 10 12.0002C10 10.8957 10.8954 10.0002 12 10.0002C13.1046 10.0002 14 10.8957 14 12.0002C14 13.1048 13.1046 14.0002 12 14.0002Z" fill="black"/>
<path d="M3 12.0002C3 13.1048 3.89543 14.0002 5 14.0002C6.10457 14.0002 7 13.1048 7 12.0002C7 10.8957 6.10457 10.0002 5 10.0002C3.89543 10.0002 3 10.8957 3 12.0002Z" fill="black"/>
</svg>
