<svg width="24" height="24" viewBox="0 0 24 24" fill="none" xmlns="http://www.w3.org/2000/svg">
<path fill-rule="evenodd" clip-rule="evenodd" d="M20.1045 3.33421C20.2921 3.50478 20.399 3.74656 20.399 4.0001V7.3445C20.3991 7.35163 20.3991 7.35874 20.399 7.36583V13.8446C20.3995 13.8561 20.3997 13.8677 20.3997 13.8793V16.4958C20.3997 18.4084 18.8492 19.9588 16.9367 19.9588C15.018 19.9588 13.4736 18.389 13.4736 16.4825C13.4736 14.5612 15.03 12.9793 16.9634 12.9793H18.599V7.34392L10.5197 8.11362V14.7594C10.5211 14.7796 10.5218 14.7999 10.5218 14.8204V17.437C10.5218 19.3495 8.97131 20.9 7.05873 20.9C5.1401 20.9 3.5957 19.3302 3.5957 17.4237C3.5957 15.5024 5.15208 13.9204 7.08549 13.9204H8.71973V8.30482C8.71964 8.29774 8.71964 8.29068 8.71973 8.28364V4.94129C8.71973 4.47729 9.07247 4.08935 9.53437 4.04534L19.4137 3.10416C19.6661 3.08011 19.9169 3.16364 20.1045 3.33421Z" fill="black"/>
</svg>
