<svg width="24" height="24" viewBox="0 0 24 24" fill="none" xmlns="http://www.w3.org/2000/svg">
<path fill-rule="evenodd" clip-rule="evenodd" d="M3.59961 5.0001C3.59961 4.50304 4.00255 4.1001 4.49961 4.1001H19.4996C19.9967 4.1001 20.3996 4.50304 20.3996 5.0001C20.3996 5.49715 19.9967 5.9001 19.4996 5.9001H4.49961C4.00255 5.9001 3.59961 5.49715 3.59961 5.0001ZM3.59961 12.0001C3.59961 11.503 4.00255 11.1001 4.49961 11.1001H19.4996C19.9967 11.1001 20.3996 11.503 20.3996 12.0001C20.3996 12.4972 19.9967 12.9001 19.4996 12.9001H4.49961C4.00255 12.9001 3.59961 12.4972 3.59961 12.0001ZM3.59961 19.0001C3.59961 18.503 4.00255 18.1001 4.49961 18.1001H19.4996C19.9967 18.1001 20.3996 18.503 20.3996 19.0001C20.3996 19.4972 19.9967 19.9001 19.4996 19.9001H4.49961C4.00255 19.9001 3.59961 19.4972 3.59961 19.0001Z" fill="black"/>
</svg>
