<svg width="24" height="24" viewBox="0 0 24 24" fill="none" xmlns="http://www.w3.org/2000/svg">
<path d="M16.3867 3.1001C16.8838 3.1001 17.2867 3.50304 17.2867 4.0001L17.2867 16.3872C17.2867 16.8843 16.8838 17.2872 16.3867 17.2872H3.99961C3.50255 17.2872 3.09961 16.8842 3.09961 16.3872V4.0001C3.09961 3.50304 3.50255 3.1001 3.99961 3.1001H16.3867Z" fill="black"/>
<path d="M20.5898 7.31016C20.5898 6.8131 20.1869 6.41016 19.6898 6.41016C19.1928 6.41016 18.7898 6.8131 18.7898 7.31016V18.7973L7.30275 18.7973C6.80569 18.7973 6.40275 19.2002 6.40275 19.6973C6.40275 20.1943 6.80569 20.5973 7.30275 20.5973H19.6898C20.1869 20.5973 20.5898 20.1943 20.5898 19.6973V7.31016Z" fill="black"/>
</svg>
