<svg width="24" height="24" viewBox="0 0 24 24" fill="none" xmlns="http://www.w3.org/2000/svg">
<path d="M0 6C0 2.68629 2.68629 0 6 0H18C21.3137 0 24 2.68629 24 6V18C24 21.3137 21.3137 24 18 24H6C2.68629 24 0 21.3137 0 18V6Z" fill="#DC742D"/>
<path d="M5.18255 20.2697V8.34233H3.86133L5.5707 3.73047H8.88427V20.2697H5.18255Z" fill="white"/>
<path d="M19.5746 9.38057H13.7735V6.95609H19.8366V3.73047H10.1387V12.5412H16.3528V17.1511H13.7333V14.9867H10.1406V19.9006C10.1406 20.1052 10.3069 20.2697 10.5096 20.2697H19.5765C19.7811 20.2697 19.9456 20.1033 19.9456 19.9006V9.7515C19.9456 9.54691 19.7792 9.38248 19.5765 9.38248L19.5746 9.38057Z" fill="white"/>
</svg>
