<svg width="24" height="24" viewBox="0 0 24 24" fill="none" xmlns="http://www.w3.org/2000/svg">
<g clip-path="url(#clip0_66910_6327)">
<path fill-rule="evenodd" clip-rule="evenodd" d="M3.65039 11.9999C3.65039 7.38832 7.38881 3.6499 12.0004 3.6499C16.612 3.6499 20.3504 7.38832 20.3504 11.9999V18.7066C20.3504 19.6142 19.6146 20.3499 18.707 20.3499H12.0004C7.38881 20.3499 3.65039 16.6115 3.65039 11.9999Z" fill="white"/>
<path fill-rule="evenodd" clip-rule="evenodd" d="M3.65039 11.9999C3.65039 7.38832 7.38881 3.6499 12.0004 3.6499C16.612 3.6499 20.3504 7.38832 20.3504 11.9999V18.7066C20.3504 19.6142 19.6146 20.3499 18.707 20.3499H12.0004C7.38881 20.3499 3.65039 16.6115 3.65039 11.9999ZM14.7332 9.6624C15.1747 9.6624 15.5327 10.0203 15.5327 10.4619C15.5327 10.9034 15.1747 11.2613 14.7332 11.2613H9.84757C9.40604 11.2613 9.0481 10.9034 9.0481 10.4619C9.0481 10.0203 9.40604 9.6624 9.84757 9.6624H14.7332ZM13.0282 13.2156C13.4698 13.2156 13.8277 13.5735 13.8277 14.0151C13.8277 14.4566 13.4698 14.8145 13.0282 14.8145H9.84757C9.40604 14.8145 9.0481 14.4566 9.0481 14.0151C9.0481 13.5735 9.40604 13.2156 9.84757 13.2156H13.0282Z" fill="url(#paint0_linear_66910_6327)"/>
</g>
<defs>
<linearGradient id="paint0_linear_66910_6327" x1="8.15821" y1="3.6499" x2="24.1107" y2="23.6063" gradientUnits="userSpaceOnUse">
<stop stop-color="#4AB4F6"/>
<stop offset="1" stop-color="#8295FD"/>
</linearGradient>
<clipPath id="clip0_66910_6327">
<rect width="24" height="24" fill="white"/>
</clipPath>
</defs>
</svg>
