<svg width="24" height="24" viewBox="0 0 24 24" fill="none" xmlns="http://www.w3.org/2000/svg">
<path fill-rule="evenodd" clip-rule="evenodd" d="M6.35207 10.5051C6.35207 8.42872 6.90563 6.77802 7.84775 5.66239C8.77401 4.56553 10.1465 3.89985 11.99 3.89985C13.8637 3.89985 15.2645 4.57847 16.2113 5.69777C16.3506 5.86245 16.4816 6.0385 16.6038 6.22557C16.6752 6.33495 16.8298 6.35475 16.9222 6.26247L17.928 5.25871C17.9959 5.19094 18.0064 5.08431 17.9508 5.00611C17.8354 4.84371 17.7136 4.68666 17.5856 4.53527C16.2639 2.97279 14.3402 2.09985 11.99 2.09985C9.67114 2.09985 7.77461 2.95913 6.47251 4.50104C5.18721 6.02307 4.553 8.123 4.55207 10.4998L4.5247 12.8928L4.52464 12.9031C4.52464 14.3231 3.97367 15.5189 3.38497 16.3484C3.02252 16.8591 3.05281 17.4764 3.21998 17.9099C3.3833 18.3333 3.8188 18.8999 4.57072 18.8999H8.62868C8.84489 20.5693 10.272 21.8589 12.0003 21.8589C13.7287 21.8589 15.1558 20.5693 15.372 18.8999H19.4104C20.1504 18.8999 20.5868 18.3499 20.7544 17.9286C20.9254 17.4985 20.9588 16.8914 20.6122 16.3821C20.0486 15.554 19.5129 14.3477 19.5116 12.9083L19.5251 11.7958C19.5273 11.617 19.3116 11.5254 19.1845 11.6511L17.8683 12.9523C17.77 13.0495 17.7155 13.1832 17.723 13.3212C17.8073 14.8577 18.3444 16.151 18.9325 17.0999H5.04967C5.7175 16.0681 6.32339 14.6279 6.32464 12.9084L6.35201 10.5154L6.35207 10.5051ZM13.5388 18.8999H10.4619C10.6534 19.5691 11.2697 20.0589 12.0004 20.0589C12.7311 20.0589 13.3474 19.5691 13.5388 18.8999Z" fill="black"/>
<path d="M21.6365 6.63649C21.988 6.28502 21.988 5.71517 21.6365 5.3637C21.285 5.01223 20.7152 5.01223 20.3637 5.3637L15.0001 10.7273L12.6365 8.3637C12.285 8.01223 11.7152 8.01223 11.3637 8.3637C11.0122 8.71517 11.0122 9.28502 11.3637 9.63649L14.293 12.5658C14.6835 12.9563 15.3167 12.9563 15.7072 12.5658L21.6365 6.63649Z" fill="black"/>
</svg>
