<svg width="24" height="24" viewBox="0 0 24 24" fill="none" xmlns="http://www.w3.org/2000/svg">
<path d="M17.1066 4.35201C15.8034 3.13315 14.0566 2.46436 11.9891 2.46436C9.64383 2.46436 7.71819 3.33439 6.39521 4.90102C5.08984 6.44681 4.45117 8.57377 4.45117 10.9696L4.45118 17.0075L17.1066 4.35201Z" fill="black"/>
<path fill-rule="evenodd" clip-rule="evenodd" d="M21.6526 4.88796L19.0736 7.46704C19.451 8.56324 19.6381 9.78657 19.6381 11.0884V11.1004L19.6107 13.3733C19.6121 14.7875 20.1386 15.9743 20.6939 16.7904C21.0637 17.3337 21.0264 17.9774 20.8464 18.43C20.6703 18.8729 20.22 19.4644 19.4095 19.4644H15.4586C15.1985 21.1405 13.7491 22.4233 12.0001 22.4233C10.2511 22.4233 8.80177 21.1405 8.54169 19.4644H7.07625L4.88796 21.6526C4.53649 22.0041 3.96664 22.0041 3.61517 21.6526C3.26369 21.3012 3.26369 20.7313 3.61517 20.3799L20.3799 3.61517C20.7313 3.26369 21.3012 3.26369 21.6526 3.61517C22.0041 3.96664 22.0041 4.53649 21.6526 4.88796ZM10.6007 19.4644C10.8177 20.0254 11.3625 20.4233 12.0001 20.4233C12.6378 20.4233 13.1826 20.0254 13.3996 19.4644H10.6007Z" fill="black"/>
</svg>
