<svg width="24" height="25" viewBox="0 0 24 25" fill="none" xmlns="http://www.w3.org/2000/svg">
<path fill-rule="evenodd" clip-rule="evenodd" d="M11.636 0.363702C11.9875 0.715173 11.9875 1.28502 11.636 1.63649L10.9991 2.27339C11.3287 2.24336 11.6624 2.22803 11.9996 2.22803C18.0195 2.22803 22.8996 7.10812 22.8996 13.128C22.8996 19.1479 18.0195 24.028 11.9996 24.028C5.9797 24.028 1.09961 19.1479 1.09961 13.128C1.09961 11.1477 1.62856 9.28809 2.55349 7.68584C2.80199 7.25536 3.35242 7.10784 3.78289 7.35635C4.21337 7.60485 4.36089 8.15527 4.11239 8.58575C3.34118 9.92172 2.89961 11.4719 2.89961 13.128C2.89961 18.1538 6.97382 22.228 11.9996 22.228C17.0254 22.228 21.0996 18.1538 21.0996 13.128C21.0996 8.10224 17.0254 4.02803 11.9996 4.02803C11.3666 4.02803 10.7495 4.09252 10.1541 4.2151L11.636 5.69704C11.9875 6.04851 11.9875 6.61836 11.636 6.96983C11.2845 7.3213 10.7147 7.3213 10.3632 6.96983L7.69655 4.30316C7.34508 3.95169 7.34508 3.38184 7.69655 3.03037L10.3632 0.363702C10.7147 0.0122297 11.2845 0.0122297 11.636 0.363702Z" fill="black"/>
<path d="M15.5859 10.3225C15.7566 10.3225 15.905 10.3767 16.0107 10.4788C16.1167 10.5811 16.1738 10.7258 16.1738 10.8938C16.1738 11.0611 16.118 11.2054 16.0127 11.3079C15.9073 11.4102 15.7585 11.4641 15.5859 11.4641H13.2998L13.1826 12.8381C13.4663 12.5287 13.9193 12.3469 14.4541 12.3469C15.042 12.3469 15.5489 12.5541 15.9092 12.9114C16.2694 13.2689 16.4794 13.7733 16.4795 14.3596C16.4795 15.0153 16.2352 15.5692 15.8125 15.9583C15.3901 16.3468 14.7941 16.5667 14.0986 16.5667C13.1942 16.5666 12.3828 16.1705 12.0264 15.5715L11.9609 15.4495C11.8957 15.3103 11.8546 15.1714 11.8545 15.009C11.8545 14.8342 11.9094 14.6855 12.0166 14.5813C12.1236 14.4774 12.2745 14.4251 12.4502 14.425C12.5829 14.425 12.6978 14.4486 12.7998 14.5061C12.8762 14.5492 12.9425 14.6094 13.002 14.6868L13.0596 14.7708L13.0635 14.7766H13.0625C13.1653 14.9822 13.2994 15.1431 13.4678 15.2532C13.6358 15.3629 13.8428 15.425 14.0986 15.425C14.706 15.425 15.1396 14.9918 15.1396 14.3889C15.1396 13.8048 14.7123 13.3899 14.1025 13.3899C13.7699 13.39 13.4901 13.5326 13.291 13.7239V13.7249C13.1681 13.8394 13.0685 13.9188 12.9609 13.968C12.8514 14.0181 12.739 14.0344 12.5947 14.0344C12.3718 14.0344 12.1988 13.9554 12.085 13.8235C11.9725 13.693 11.9247 13.5182 11.9336 13.3362C11.9336 13.3194 11.9332 13.3011 11.9385 13.2747L12.1113 11.0979C12.1329 10.8347 12.2126 10.6361 12.3633 10.5051C12.5131 10.3749 12.7201 10.3225 12.9707 10.3225H15.5859Z" fill="black" stroke="black" stroke-width="0.15"/>
<path d="M9.76074 10.2317C9.99679 10.2318 10.1938 10.3041 10.332 10.4417C10.4704 10.5794 10.542 10.7748 10.542 11.0051V15.8225C10.542 16.0272 10.4743 16.2034 10.3506 16.3284C10.2268 16.4533 10.0525 16.5216 9.85156 16.5217C9.65048 16.5217 9.4754 16.4532 9.35059 16.3284C9.22574 16.2035 9.15625 16.0277 9.15625 15.8225V11.6809L8.37793 12.2239L8.37695 12.2229C8.3157 12.2666 8.25924 12.299 8.19824 12.3196C8.13655 12.3403 8.07392 12.3489 8.00391 12.3489C7.71024 12.3487 7.49125 12.1326 7.49121 11.8274C7.49121 11.722 7.51215 11.6255 7.5625 11.5364C7.61245 11.4481 7.68899 11.3714 7.79199 11.2991L8.97363 10.4807H8.97461C9.12398 10.3783 9.25283 10.3154 9.37988 10.2786C9.50701 10.2418 9.62895 10.2317 9.76074 10.2317Z" fill="black" stroke="black" stroke-width="0.15"/>
</svg>
