<svg width="24" height="24" viewBox="0 0 24 24" fill="none" xmlns="http://www.w3.org/2000/svg">
<path d="M19.6111 15.2893L19.1511 14.8893C18.4811 14.2893 17.4711 13.3993 15.9911 13.6193C15.0411 13.7593 14.4611 14.3793 14.0511 14.8393C13.7311 15.1893 13.5211 15.3993 13.2711 15.4493C12.9011 15.5293 12.2611 14.9893 11.9511 14.7393C10.9511 13.9193 10.1111 12.9693 9.39106 11.8493C9.21106 11.5693 8.75106 10.8393 8.89106 10.3193C8.92106 10.2193 9.22106 9.98935 9.38105 9.86935C9.51105 9.76935 9.64106 9.67935 9.75106 9.57935L9.96105 9.40935C10.3711 9.07935 10.9211 8.63935 11.1111 7.85935C11.4511 6.46935 10.7011 5.29935 10.1011 4.36935L10.0211 4.23935C9.44106 3.33935 8.49106 1.84935 6.89106 2.14935C6.26105 2.26935 5.83105 2.64935 5.52105 2.92935L5.12106 3.26935C4.85106 3.49935 4.56106 3.72935 4.35106 3.97935C2.71106 5.83935 2.27106 8.65935 3.20106 11.3393C3.83106 13.1593 4.98105 15.0093 6.59105 16.8193C7.73105 18.0993 9.31105 19.7193 11.4111 20.8393C12.3511 21.3393 13.5211 21.8594 15.0211 21.9093C15.1111 21.9093 15.2011 21.9093 15.2911 21.9093C16.6611 21.9093 17.8811 21.5694 18.9011 20.8994C19.2211 20.6894 19.5011 20.4293 19.7611 20.1793C19.8711 20.0693 19.9911 19.9594 20.1111 19.8594L20.1911 19.7894C20.6011 19.4394 21.2111 18.9093 21.2811 18.0293C21.3811 16.7393 20.3211 15.8593 19.6111 15.2793V15.2893Z" fill="black"/>
</svg>
