<svg width="24" height="24" viewBox="0 0 24 24" fill="none" xmlns="http://www.w3.org/2000/svg">
<path d="M5.94947 3.25C4.45859 3.25 3.25 4.45859 3.25 5.94947V18.0505C3.25 19.5414 4.45859 20.75 5.94947 20.75H18.0505C19.5414 20.75 20.75 19.5414 20.75 18.0505V5.94947C20.75 4.45859 19.5414 3.25 18.0505 3.25H5.94947Z" fill="url(#paint0_linear_37107_8331)"/>
<path d="M17.8756 7.85699C17.8756 8.55102 17.313 9.11364 16.619 9.11364C15.9249 9.11364 15.3623 8.55102 15.3623 7.85699C15.3623 7.16296 15.9249 6.60034 16.619 6.60034C17.313 6.60034 17.8756 7.16296 17.8756 7.85699Z" fill="white"/>
<path fill-rule="evenodd" clip-rule="evenodd" d="M10.7235 11.4799C10.3936 11.2913 9.98475 11.309 9.67233 11.5253L4.87427 14.847L4.87257 14.8482L3.41161 15.8546C3.36041 15.8898 3.30615 15.9189 3.25098 15.9419V13.8398L3.87815 13.4082L3.87985 13.407L8.67622 10.0865C9.54273 9.48657 10.6767 9.43756 11.5918 9.96044L19.6037 14.5387L20.7433 15.2144V17.2424L18.7229 16.0509L10.7235 11.4799Z" fill="white" fill-opacity="0.5"/>
<defs>
<linearGradient id="paint0_linear_37107_8331" x1="-0.0312499" y1="1.30481" x2="19.1694" y2="23.9855" gradientUnits="userSpaceOnUse">
<stop stop-color="#FBD4EE"/>
<stop offset="1" stop-color="#F562C6"/>
</linearGradient>
</defs>
</svg>
