<svg width="24" height="25" viewBox="0 0 24 25" fill="none" xmlns="http://www.w3.org/2000/svg">
<path d="M14.7303 4.44438C15.2045 4.59332 15.7097 4.32963 15.8586 3.85542C16.0076 3.3812 15.7439 2.87603 15.2697 2.72709L15 3.58573L14.7303 4.44438ZM21.4461 7.68574C21.1976 7.25527 20.6472 7.10775 20.2167 7.35625C19.7862 7.60475 19.6387 8.15517 19.8872 8.58565L20.6667 8.1357L21.4461 7.68574ZM13.6364 0.36336C13.2849 0.0118879 12.7151 0.0118879 12.3636 0.36336C12.0121 0.714832 12.0121 1.28468 12.3636 1.63615L13 0.999756L13.6364 0.36336ZM15.6667 3.66642L16.3031 4.30282C16.4718 4.13404 16.5667 3.90512 16.5667 3.66642C16.5667 3.42773 16.4718 3.19881 16.3031 3.03003L15.6667 3.66642ZM12.3636 5.69669C12.0121 6.04816 12.0121 6.61801 12.3636 6.96949C12.7151 7.32096 13.2849 7.32096 13.6364 6.96949L13 6.33309L12.3636 5.69669ZM22 13.1279H21.1C21.1 18.1537 17.0258 22.2279 12 22.2279V23.1279V24.0279C18.0199 24.0279 22.9 19.1478 22.9 13.1279H22ZM12 23.1279V22.2279C6.97421 22.2279 2.9 18.1537 2.9 13.1279H2H1.1C1.1 19.1478 5.9801 24.0279 12 24.0279V23.1279ZM2 13.1279H2.9C2.9 8.10214 6.97421 4.02793 12 4.02793V3.12793V2.22793C5.9801 2.22793 1.1 7.10803 1.1 13.1279H2ZM12 3.12793V4.02793C12.9527 4.02793 13.8695 4.17402 14.7303 4.44438L15 3.58573L15.2697 2.72709C14.2364 2.40255 13.1377 2.22793 12 2.22793V3.12793ZM20.6667 8.1357L19.8872 8.58565C20.6584 9.92162 21.1 11.4718 21.1 13.1279H22H22.9C22.9 11.1476 22.371 9.288 21.4461 7.68574L20.6667 8.1357ZM13 0.999756L12.3636 1.63615L15.0303 4.30282L15.6667 3.66642L16.3031 3.03003L13.6364 0.36336L13 0.999756ZM15.6667 3.66642L15.0303 3.03003L12.3636 5.69669L13 6.33309L13.6364 6.96949L16.3031 4.30282L15.6667 3.66642Z" fill="black"/>
<path d="M15.5859 10.3225C15.7566 10.3225 15.905 10.3767 16.0107 10.4788C16.1167 10.5811 16.1738 10.7258 16.1738 10.8938C16.1738 11.0611 16.118 11.2054 16.0127 11.3079C15.9073 11.4102 15.7585 11.4641 15.5859 11.4641H13.2998L13.1826 12.8381C13.4663 12.5287 13.9193 12.3469 14.4541 12.3469C15.042 12.3469 15.5489 12.5541 15.9092 12.9114C16.2694 13.2689 16.4794 13.7733 16.4795 14.3596C16.4795 15.0153 16.2352 15.5692 15.8125 15.9583C15.3901 16.3468 14.7941 16.5667 14.0986 16.5667C13.1942 16.5666 12.3828 16.1705 12.0264 15.5715L11.9609 15.4495C11.8957 15.3103 11.8546 15.1714 11.8545 15.009C11.8545 14.8342 11.9094 14.6855 12.0166 14.5813C12.1236 14.4774 12.2745 14.4251 12.4502 14.425C12.5829 14.425 12.6978 14.4486 12.7998 14.5061C12.8762 14.5492 12.9425 14.6094 13.002 14.6868L13.0596 14.7708L13.0635 14.7766H13.0625C13.1653 14.9822 13.2994 15.1431 13.4678 15.2532C13.6358 15.3629 13.8428 15.425 14.0986 15.425C14.706 15.425 15.1396 14.9918 15.1396 14.3889C15.1396 13.8048 14.7123 13.3899 14.1025 13.3899C13.7699 13.39 13.4901 13.5326 13.291 13.7239V13.7249C13.1681 13.8394 13.0685 13.9188 12.9609 13.968C12.8514 14.0181 12.739 14.0344 12.5947 14.0344C12.3718 14.0344 12.1988 13.9554 12.085 13.8235C11.9725 13.693 11.9247 13.5182 11.9336 13.3362C11.9336 13.3194 11.9332 13.3011 11.9385 13.2747L12.1113 11.0979C12.1329 10.8347 12.2126 10.6361 12.3633 10.5051C12.5131 10.3749 12.7201 10.3225 12.9707 10.3225H15.5859Z" fill="black" stroke="black" stroke-width="0.15"/>
<path d="M9.76074 10.2317C9.99679 10.2318 10.1938 10.3041 10.332 10.4417C10.4704 10.5794 10.542 10.7748 10.542 11.0051V15.8225C10.542 16.0272 10.4743 16.2034 10.3506 16.3284C10.2268 16.4533 10.0525 16.5216 9.85156 16.5217C9.65048 16.5217 9.4754 16.4532 9.35059 16.3284C9.22574 16.2035 9.15625 16.0277 9.15625 15.8225V11.6809L8.37793 12.2239L8.37695 12.2229C8.3157 12.2666 8.25924 12.299 8.19824 12.3196C8.13655 12.3403 8.07392 12.3489 8.00391 12.3489C7.71024 12.3487 7.49125 12.1326 7.49121 11.8274C7.49121 11.722 7.51215 11.6255 7.5625 11.5364C7.61245 11.4481 7.68899 11.3714 7.79199 11.2991L8.97363 10.4807H8.97461C9.12398 10.3783 9.25283 10.3154 9.37988 10.2786C9.50701 10.2418 9.62895 10.2317 9.76074 10.2317Z" fill="black" stroke="black" stroke-width="0.15"/>
</svg>
