<svg width="24" height="24" viewBox="0 0 24 24" fill="none" xmlns="http://www.w3.org/2000/svg">
<path fill-rule="evenodd" clip-rule="evenodd" d="M7.25 6.30005V5.94995C7.25 3.3266 9.37665 1.19995 12 1.19995C14.6234 1.19995 16.75 3.3266 16.75 5.94995V6.30005H16.8497C18.54 6.30005 19.9481 7.59571 20.0885 9.28016L20.7718 17.4802C20.9297 19.375 19.4344 21 17.533 21H6.46702C4.56564 21 3.07035 19.375 3.22825 17.4802L3.91158 9.28015C4.05195 7.5957 5.46007 6.30005 7.15035 6.30005H7.25ZM9.05 5.94995C9.05 4.32071 10.3708 2.99995 12 2.99995C13.6292 2.99995 14.95 4.32071 14.95 5.94995V6.30005H9.05V5.94995ZM13.85 11.45C13.85 12.4717 13.0217 13.3 12 13.3C10.9783 13.3 10.15 12.4717 10.15 11.45V11.0571C10.15 10.56 9.74706 10.1571 9.25 10.1571C8.75294 10.1571 8.35 10.56 8.35 11.0571V11.45C8.35 13.4658 9.98416 15.1 12 15.1C14.0158 15.1 15.65 13.4658 15.65 11.45V11.0571C15.65 10.56 15.2471 10.1571 14.75 10.1571C14.2529 10.1571 13.85 10.56 13.85 11.0571V11.45Z" fill="black"/>
</svg>
