<svg width="24" height="24" viewBox="0 0 24 24" fill="none" xmlns="http://www.w3.org/2000/svg">
<path fill-rule="evenodd" clip-rule="evenodd" d="M11.9996 3.9001C7.5261 3.9001 3.89961 7.52659 3.89961 12.0001C3.89961 16.4736 7.5261 20.1001 11.9996 20.1001C16.4731 20.1001 20.0996 16.4736 20.0996 12.0001C20.0996 7.52659 16.4731 3.9001 11.9996 3.9001ZM2.09961 12.0001C2.09961 6.53248 6.53199 2.1001 11.9996 2.1001C17.4672 2.1001 21.8996 6.53248 21.8996 12.0001C21.8996 17.4677 17.4672 21.9001 11.9996 21.9001C6.53199 21.9001 2.09961 17.4677 2.09961 12.0001Z" fill="black"/>
<path d="M11.7249 14.0576C11.2097 14.0576 10.9249 13.6915 10.9249 13.1966V13.0678C10.9249 12.2271 11.3453 11.6712 12.1927 11.1695C13.0334 10.661 13.3182 10.2881 13.3182 9.63729C13.3182 8.8983 12.7419 8.38305 11.908 8.38305C11.1554 8.38305 10.6537 8.75593 10.4368 9.44068C10.2876 9.86102 10.0368 10.0305 9.66392 10.0305C9.19612 10.0305 8.91816 9.74576 8.91816 9.29153C8.91816 9 8.97917 8.74915 9.10799 8.49153C9.52833 7.56949 10.586 7 11.9826 7C13.8199 7 15.0809 8.04407 15.0809 9.57627C15.0809 10.6136 14.5656 11.3254 13.6436 11.8746C12.7554 12.3898 12.5385 12.7153 12.4843 13.3322C12.4165 13.7797 12.186 14.0576 11.7249 14.0576ZM11.7385 17C11.1893 17 10.7487 16.5729 10.7487 16.0373C10.7487 15.5017 11.1893 15.0814 11.7385 15.0814C12.2876 15.0814 12.7215 15.5017 12.7215 16.0373C12.7215 16.5729 12.2876 17 11.7385 17Z" fill="black"/>
<path fill-rule="evenodd" clip-rule="evenodd" d="M11.9826 7.05C10.598 7.05 9.56298 7.61401 9.15348 8.51227L9.15274 8.5139C9.02732 8.76474 8.96816 9.00793 8.96816 9.29153C8.96816 9.50839 9.03431 9.67934 9.15097 9.796C9.26761 9.91264 9.44025 9.98051 9.66392 9.98051C9.84259 9.98051 9.98723 9.94002 10.1045 9.85306C10.2219 9.76594 10.317 9.62836 10.3894 9.42475C10.5005 9.0745 10.6856 8.80065 10.9422 8.61461C11.1989 8.42845 11.5233 8.33305 11.908 8.33305C12.3352 8.33305 12.7002 8.46511 12.959 8.69572C13.2184 8.92671 13.3682 9.25402 13.3682 9.63729C13.3682 9.97118 13.2947 10.2381 13.1109 10.4865C12.9287 10.7327 12.6404 10.9571 12.2186 11.2123C11.7983 11.4611 11.4876 11.7213 11.2822 12.0199C11.0775 12.3175 10.9749 12.6566 10.9749 13.0678V13.1966C10.9749 13.4348 11.0434 13.6373 11.1692 13.7796C11.2942 13.9211 11.48 14.0076 11.7249 14.0076C11.9447 14.0076 12.1038 13.9418 12.2165 13.8276C12.3299 13.7126 12.4015 13.5431 12.4346 13.3262C12.4623 13.0128 12.5321 12.7673 12.7116 12.5347C12.8898 12.3039 13.173 12.0898 13.6182 11.8315C14.0746 11.5596 14.4273 11.2493 14.666 10.8813C14.9044 10.5138 15.0309 10.0861 15.0309 9.57627C15.0309 8.82501 14.7222 8.19505 14.1888 7.75202C13.6546 7.30839 12.892 7.05 11.9826 7.05ZM9.06286 8.46997C9.49429 7.52465 10.5743 6.95 11.9826 6.95C12.9104 6.95 13.697 7.21364 14.2526 7.67509C14.809 8.13716 15.1309 8.79533 15.1309 9.57627C15.1309 10.1038 14.9997 10.5507 14.7499 10.9357C14.5005 11.3202 14.1347 11.6403 13.6692 11.9175C13.2264 12.1744 12.9567 12.3809 12.7908 12.5958C12.6265 12.8086 12.5607 13.0339 12.5341 13.3366L12.5338 13.3397C12.499 13.5695 12.4214 13.7623 12.2876 13.8978C12.1528 14.0345 11.9662 14.1076 11.7249 14.1076C11.4546 14.1076 11.2404 14.0111 11.0943 13.8458C10.9488 13.6813 10.8749 13.4533 10.8749 13.1966V13.0678C10.8749 12.6383 10.9826 12.2791 11.1998 11.9632C11.4164 11.6483 11.74 11.3794 12.1671 11.1266C12.5858 10.8733 12.8602 10.6571 13.0305 10.427C13.1992 10.1991 13.2682 9.95424 13.2682 9.63729C13.2682 9.28157 13.1298 8.98177 12.8925 8.77039C12.6548 8.55862 12.3147 8.43305 11.908 8.43305C11.5401 8.43305 11.2374 8.52409 11.0009 8.69556C10.7645 8.867 10.5903 9.12168 10.4845 9.45578L10.4839 9.45741C10.4072 9.6737 10.3024 9.83079 10.164 9.93338C10.0254 10.0362 9.85813 10.0805 9.66392 10.0805C9.4198 10.0805 9.21955 10.006 9.08026 9.86671C8.94099 9.72744 8.86816 9.5289 8.86816 9.29153C8.86816 8.99237 8.93093 8.7341 9.06286 8.46997ZM11.7385 15.1314C11.2151 15.1314 10.7987 15.5311 10.7987 16.0373C10.7987 16.5439 11.2156 16.95 11.7385 16.95C12.2609 16.95 12.6715 16.5444 12.6715 16.0373C12.6715 15.5307 12.2614 15.1314 11.7385 15.1314ZM10.6987 16.0373C10.6987 15.4723 11.1636 15.0314 11.7385 15.0314C12.3139 15.0314 12.7715 15.4727 12.7715 16.0373C12.7715 16.6014 12.3143 17.05 11.7385 17.05C11.1631 17.05 10.6987 16.6018 10.6987 16.0373Z" fill="black"/>
</svg>
