<svg width="24" height="24" viewBox="0 0 24 24" fill="none" xmlns="http://www.w3.org/2000/svg">
<path fill-rule="evenodd" clip-rule="evenodd" d="M11.9928 7.42139C12.4898 7.42139 12.8928 7.82433 12.8928 8.32139V11.698L15.2408 13.9315C15.601 14.2741 15.6152 14.8437 15.2726 15.2039C14.9301 15.564 14.3604 15.5783 14.0002 15.2357L11.3725 12.7362C11.1939 12.5663 11.0928 12.3306 11.0928 12.0841V8.32139C11.0928 7.82433 11.4957 7.42139 11.9928 7.42139Z" fill="black"/>
<path fill-rule="evenodd" clip-rule="evenodd" d="M3.40197 9.18037C2.90491 9.18037 2.50197 8.77743 2.50197 8.28037L2.50197 4.28037C2.50197 3.78331 2.90491 3.38037 3.40197 3.38037C3.89902 3.38037 4.30197 3.78331 4.30197 4.28037L4.30197 7.38037H7.40197C7.89902 7.38037 8.30197 7.78331 8.30197 8.28037C8.30197 8.77743 7.89902 9.18037 7.40197 9.18037H3.40197Z" fill="black"/>
<path fill-rule="evenodd" clip-rule="evenodd" d="M11.9928 3.9001C8.71257 3.9001 5.88586 5.84998 4.61212 8.65772L2.97291 7.91409C4.52771 4.48681 7.98057 2.1001 11.9928 2.1001C17.4604 2.1001 21.8928 6.53248 21.8928 12.0001C21.8928 17.4677 17.4604 21.9001 11.9928 21.9001C6.65536 21.9001 2.30481 17.6766 2.10029 12.3889C2.08108 11.8922 2.46815 11.474 2.96484 11.4548C3.46152 11.4355 3.87974 11.8226 3.89895 12.3193C4.06624 16.6445 7.62618 20.1001 11.9928 20.1001C16.4663 20.1001 20.0928 16.4736 20.0928 12.0001C20.0928 7.52659 16.4663 3.9001 11.9928 3.9001Z" fill="black"/>
</svg>
