<svg width="26" height="26" viewBox="0 0 26 26" fill="none" xmlns="http://www.w3.org/2000/svg">
<g filter="url(#filter0_f_14581_25524)">
<path fill-rule="evenodd" clip-rule="evenodd" d="M11.25 4.5C7.52208 4.5 4.5 7.52208 4.5 11.25C4.5 14.9779 7.52208 18 11.25 18C14.9779 18 18 14.9779 18 11.25C18 7.52208 14.9779 4.5 11.25 4.5ZM3 11.25C3 6.69365 6.69365 3 11.25 3C15.8063 3 19.5 6.69365 19.5 11.25C19.5 13.1268 18.8733 14.8572 17.8178 16.2434L22.7544 21.1801C23.0473 21.473 23.0473 21.9479 22.7544 22.2408C22.4615 22.5336 21.9867 22.5336 21.6938 22.2408L16.8038 17.3507C15.3379 18.6859 13.389 19.5 11.25 19.5C6.69365 19.5 3 15.8063 3 11.25Z" fill="black" fill-opacity="0.2"/>
<path fill-rule="evenodd" clip-rule="evenodd" d="M11.25 4.5C7.52208 4.5 4.5 7.52208 4.5 11.25C4.5 14.9779 7.52208 18 11.25 18C14.9779 18 18 14.9779 18 11.25C18 7.52208 14.9779 4.5 11.25 4.5ZM3 11.25C3 6.69365 6.69365 3 11.25 3C15.8063 3 19.5 6.69365 19.5 11.25C19.5 13.1268 18.8733 14.8572 17.8178 16.2434L22.7544 21.1801C23.0473 21.473 23.0473 21.9479 22.7544 22.2408C22.4615 22.5336 21.9867 22.5336 21.6938 22.2408L16.8038 17.3507C15.3379 18.6859 13.389 19.5 11.25 19.5C6.69365 19.5 3 15.8063 3 11.25Z" stroke="black" stroke-opacity="0.03" stroke-width="4"/>
</g>
<path d="M21.5877 22.3996C21.9392 22.751 22.509 22.751 22.8605 22.3996C23.212 22.0481 23.212 21.4782 22.8605 21.1268L22.2241 21.7632L21.5877 22.3996ZM18.75 11.3027H17.85C17.85 14.9478 14.8951 17.9027 11.25 17.9027V18.8027V19.7027C15.8892 19.7027 19.65 15.9419 19.65 11.3027H18.75ZM11.25 18.8027V17.9027C7.60492 17.9027 4.65 14.9478 4.65 11.3027H3.75H2.85C2.85 15.9419 6.61081 19.7027 11.25 19.7027V18.8027ZM3.75 11.3027H4.65C4.65 7.65766 7.60492 4.70273 11.25 4.70273V3.80273V2.90273C6.61081 2.90273 2.85 6.66354 2.85 11.3027H3.75ZM11.25 3.80273V4.70273C14.8951 4.70273 17.85 7.65766 17.85 11.3027H18.75H19.65C19.65 6.66354 15.8892 2.90273 11.25 2.90273V3.80273ZM16.75 16.2891L16.1136 16.9255L21.5877 22.3996L22.2241 21.7632L22.8605 21.1268L17.3864 15.6527L16.75 16.2891Z" fill="white"/>
<defs>
<filter id="filter0_f_14581_25524" x="0" y="0" width="25.9736" height="25.4604" filterUnits="userSpaceOnUse" color-interpolation-filters="sRGB">
<feFlood flood-opacity="0" result="BackgroundImageFix"/>
<feBlend mode="normal" in="SourceGraphic" in2="BackgroundImageFix" result="shape"/>
<feGaussianBlur stdDeviation="0.5" result="effect1_foregroundBlur_14581_25524"/>
</filter>
</defs>
</svg>
