<svg width="24" height="24" viewBox="0 0 24 24" fill="none" xmlns="http://www.w3.org/2000/svg">
<path d="M12.4363 1.00884C6.36567 0.767546 1.24914 5.49298 1.00884 11.5637C0.767544 17.6343 5.49398 22.7499 11.5636 22.9912C17.6343 23.2325 22.7499 18.507 22.9912 12.4363C23.2314 6.36568 18.506 1.24914 12.4363 1.00884ZM17.0793 17.1236C16.9426 17.3649 16.6762 17.4855 16.4168 17.4493C16.3373 17.4383 16.2579 17.4121 16.1835 17.3699C14.7297 16.5424 13.1452 16.0035 11.4742 15.7683C9.80317 15.533 8.13118 15.6145 6.50543 16.0096C6.15253 16.095 5.79762 15.8789 5.71216 15.526C5.6267 15.1731 5.84286 14.8182 6.19576 14.7327C7.98338 14.2984 9.82127 14.2089 11.6572 14.4673C13.493 14.7257 15.2344 15.3179 16.834 16.2278C17.1487 16.4077 17.2593 16.8079 17.0803 17.1236H17.0793ZM18.5251 14.236C18.3009 14.6503 17.7821 14.8051 17.3679 14.5809C15.6667 13.6609 13.8248 13.0567 11.8934 12.7852C9.96203 12.5138 8.02561 12.5872 6.13644 13.0024C6.03389 13.0245 5.93234 13.0285 5.83381 13.0145C5.49097 12.9662 5.19739 12.7108 5.11896 12.3519C5.01742 11.8914 5.30899 11.436 5.76946 11.3344C7.8577 10.8749 9.99822 10.7935 12.1317 11.0931C14.2642 11.3927 16.3001 12.0603 18.1803 13.0778C18.5955 13.302 18.7493 13.8198 18.5251 14.235V14.236ZM20.1277 10.9805C19.9166 11.3867 19.4772 11.5968 19.0489 11.5365C18.9333 11.5204 18.8197 11.4842 18.7101 11.4279C16.7295 10.3974 14.596 9.71671 12.369 9.40403C10.142 9.09134 7.90295 9.1577 5.71517 9.60209C5.14611 9.71772 4.59213 9.34974 4.47651 8.78168C4.36088 8.21262 4.72886 7.65863 5.29692 7.54301C7.71996 7.05137 10.1973 6.97797 12.6616 7.32383C15.1258 7.66969 17.4865 8.42375 19.6803 9.56489C20.1951 9.83233 20.3952 10.4667 20.1277 10.9815V10.9805Z" fill="white"/>
</svg>
