<svg width="24" height="24" viewBox="0 0 24 24" fill="none" xmlns="http://www.w3.org/2000/svg">
<path d="M22.8947 11.5043C22.7888 8.69659 21.6082 6.03268 19.5876 4.07258C17.5745 2.12006 14.8727 1.01514 12.065 1H12.012C10.1201 1 8.25835 1.49192 6.6161 2.42277C4.97386 3.3612 3.5965 4.70829 2.6278 6.3354C1.6591 7.97007 1.13692 9.81665 1.09908 11.7086C1.0688 13.6006 1.52288 15.4699 2.43103 17.1348L1.46991 22.9016C1.46991 22.9016 1.46991 22.9243 1.46991 22.9395C1.46991 22.9546 1.47747 22.9622 1.48504 22.9697C1.49261 22.9773 1.50018 22.9849 1.51531 22.9924C1.52288 22.9924 1.53802 23 1.55315 23H1.56829L7.27451 21.7286C8.75026 22.44 10.3622 22.8032 11.9969 22.8032H12.3072C13.7451 22.7654 15.1603 22.44 16.4771 21.8421C17.7864 21.2518 18.9746 20.4042 19.9584 19.3523C20.9422 18.3003 21.7066 17.0667 22.2136 15.7196C22.7207 14.3726 22.9477 12.9346 22.8947 11.4967V11.5043ZM12.2618 20.9112H12.0045C10.559 20.9112 9.13623 20.5707 7.84968 19.9047L7.55453 19.7534L3.68731 20.6691L4.3987 16.7565L4.2322 16.4764C3.43757 15.1293 3.01376 13.5931 2.99106 12.0265C2.96836 10.4599 3.36189 8.91606 4.11868 7.54627C4.87548 6.17647 5.9804 5.02614 7.31992 4.21637C8.65945 3.39904 10.1806 2.95253 11.7472 2.90712H12.012C14.3732 2.90712 16.6436 3.84555 18.3237 5.51049C20.0038 7.17544 20.9649 9.43069 20.9952 11.7919C21.0255 14.1531 20.1324 16.4386 18.4978 18.1414C16.8631 19.8517 14.6306 20.8507 12.2618 20.9188H12.2542L12.2618 20.9112Z" fill="#25D366"/>
<path d="M8.21364 6.63794C8.07742 6.63794 7.94877 6.66821 7.82011 6.72876C7.69902 6.78173 7.5855 6.86498 7.49469 6.96336C7.23738 7.22824 6.51086 7.87151 6.46545 9.21861C6.42004 10.5657 7.36603 11.8977 7.49469 12.0869C7.62334 12.2761 9.29586 15.1821 12.043 16.3627C13.655 17.059 14.3664 17.1801 14.8205 17.1801C15.0097 17.1801 15.1534 17.1574 15.3048 17.1498C15.8043 17.1195 16.947 16.5368 17.1892 15.9011C17.4314 15.2654 17.4541 14.7129 17.386 14.607C17.3179 14.4935 17.1438 14.4178 16.8714 14.274C16.5989 14.1302 15.2745 13.4264 15.0324 13.328C14.9415 13.2826 14.8432 13.2599 14.7372 13.2523C14.6691 13.2523 14.6086 13.275 14.548 13.3129C14.4875 13.3431 14.4421 13.3961 14.4118 13.4491C14.1923 13.7215 13.6853 14.3194 13.5112 14.4935C13.4734 14.5389 13.428 14.5691 13.375 14.5918C13.322 14.6145 13.269 14.6297 13.2085 14.6297C13.1025 14.6297 13.0041 14.5994 12.9058 14.5464C12.1036 14.2059 11.3695 13.7215 10.7489 13.1085C10.1662 12.5334 9.67426 11.8825 9.28829 11.1636C9.13693 10.8836 9.28829 10.7398 9.42451 10.6111C9.56074 10.4825 9.7121 10.3008 9.84832 10.1419C9.96184 10.0057 10.0602 9.86188 10.1359 9.70296C10.1737 9.62728 10.1964 9.54403 10.1889 9.46078C10.1813 9.37753 10.1662 9.29429 10.1208 9.21861C10.0527 9.08238 9.56831 7.71259 9.34127 7.16013C9.15207 6.69092 8.9326 6.67578 8.7434 6.66064C8.58447 6.65308 8.40284 6.64551 8.22121 6.63794H8.19851" fill="#25D366"/>
</svg>
