<svg width="24" height="24" viewBox="0 0 24 24" fill="none" xmlns="http://www.w3.org/2000/svg">
<path fill-rule="evenodd" clip-rule="evenodd" d="M3.59961 4.0001C3.59961 3.50304 4.00255 3.1001 4.49961 3.1001H19.4996C19.9967 3.1001 20.3996 3.50304 20.3996 4.0001C20.3996 4.49715 19.9967 4.9001 19.4996 4.9001H4.49961C4.00255 4.9001 3.59961 4.49715 3.59961 4.0001ZM11.3632 7.3637C11.7147 7.01223 12.2845 7.01223 12.636 7.3637L18.636 13.3637C18.9875 13.7152 18.9875 14.285 18.636 14.6365C18.2845 14.988 17.7147 14.988 17.3632 14.6365L12.8996 10.1729V21.4001C12.8996 21.8971 12.4967 22.3001 11.9996 22.3001C11.5026 22.3001 11.0996 21.8971 11.0996 21.4001V10.1729L6.63601 14.6365C6.28453 14.988 5.71469 14.988 5.36321 14.6365C5.01174 14.285 5.01174 13.7152 5.36321 13.3637L11.3632 7.3637Z" fill="black"/>
</svg>
