<svg width="24" height="24" viewBox="0 0 24 24" fill="none" xmlns="http://www.w3.org/2000/svg">
<path d="M23.1771 10.4207C23.1771 5.41918 18.163 1.3501 11.9997 1.3501C5.83633 1.3501 0.822266 5.41918 0.822266 10.4207C0.822266 14.9046 4.79916 18.6594 10.1705 19.3697C10.534 19.4483 11.0296 19.6096 11.1553 19.9208C11.2684 20.2037 11.2286 20.6458 11.1919 20.9318C11.1919 20.9318 11.061 21.7207 11.0327 21.8883C10.9835 22.1712 10.8085 22.9936 12.0007 22.4907C13.194 21.9878 18.4375 18.7003 20.7822 16.0015C22.4018 14.2247 23.1781 12.4227 23.1781 10.4207H23.1771Z" fill="white"/>
<path d="M8.05171 13.0953C8.05171 13.2137 7.95532 13.309 7.83798 13.309H4.69712C4.57873 13.309 4.4834 13.2137 4.4834 13.0953V8.21641C4.4834 8.09802 4.57873 8.00269 4.69712 8.00269H5.49019C5.60753 8.00269 5.70391 8.09907 5.70391 8.21641V12.0885H7.83798C7.95532 12.0885 8.05171 12.1849 8.05171 12.3023V13.0953Z" fill="#06C755"/>
<path d="M16.3081 13.3091H19.4479V13.3122C19.5663 13.3122 19.6617 13.2169 19.6617 13.0985V12.3054C19.6617 12.1881 19.5653 12.0917 19.4479 12.0917H17.3139V11.2682H19.4479C19.5663 11.2682 19.6617 11.1729 19.6617 11.0545V10.2614C19.6617 10.1441 19.5653 10.0477 19.4479 10.0477H17.3139V9.22425H19.4479C19.5663 9.22425 19.6617 9.12892 19.6617 9.01053V8.21746C19.6617 8.10012 19.5653 8.00374 19.4479 8.00374H16.3081C16.1897 8.00374 16.0944 8.09908 16.0944 8.21746V13.0953C16.0944 13.2137 16.1897 13.3091 16.3081 13.3091Z" fill="#06C755"/>
<path d="M9.72835 8.00374H8.93632C8.81828 8.00374 8.7226 8.09943 8.7226 8.21746V13.0953C8.7226 13.2134 8.81828 13.3091 8.93632 13.3091H9.72835C9.84638 13.3091 9.94207 13.2134 9.94207 13.0953V8.21746C9.94207 8.09943 9.84638 8.00374 9.72835 8.00374Z" fill="#06C755"/>
<path d="M14.3298 8.00374H15.1229L15.1239 8.00479C15.2423 8.00479 15.3377 8.10117 15.3377 8.21851V13.0964C15.3377 13.2148 15.2413 13.3101 15.1239 13.3101H14.3361C14.3172 13.3101 14.2984 13.307 14.2806 13.3028H14.2774C14.2722 13.3017 14.268 13.3007 14.2628 13.2986L14.2565 13.2965L14.2546 13.2959C14.2518 13.295 14.2485 13.294 14.246 13.2923L14.2292 13.2839C14.224 13.2808 14.2198 13.2787 14.2156 13.2755L14.2135 13.2734C14.1926 13.2598 14.1737 13.242 14.158 13.22L11.9233 10.2017V13.0985C11.9233 13.2169 11.828 13.3122 11.7096 13.3122H10.9166C10.7982 13.3122 10.7028 13.2158 10.7028 13.0985V8.2206C10.7028 8.10222 10.7992 8.00688 10.9166 8.00688H11.7232C11.7253 8.00688 11.729 8.00741 11.729 8.00741C11.729 8.00741 11.7327 8.00793 11.7348 8.00793C11.7379 8.00898 11.7411 8.00898 11.7442 8.00898L11.7484 8.01026C11.7512 8.01119 11.754 8.01212 11.7568 8.01212C11.7589 8.01317 11.762 8.01422 11.7641 8.01422C11.7662 8.01474 11.7683 8.01552 11.7704 8.01631C11.7725 8.0171 11.7746 8.01788 11.7767 8.01841L11.7811 8.01961L11.784 8.0205C11.7882 8.02155 11.7924 8.02364 11.7966 8.02573L11.8029 8.02888C11.805 8.02993 11.8068 8.03098 11.8086 8.03203C11.8105 8.03307 11.8123 8.03412 11.8144 8.03517L11.8207 8.03936C11.8249 8.04145 11.8291 8.04355 11.8322 8.04669L11.8385 8.05088C11.8406 8.05245 11.8424 8.05403 11.8442 8.0556C11.8461 8.05717 11.8479 8.05874 11.85 8.06031L11.8542 8.06345C11.8563 8.06555 11.8584 8.06791 11.8605 8.07027C11.8626 8.07262 11.8647 8.07498 11.8668 8.07707L11.8678 8.07812C11.8704 8.08179 11.8733 8.08546 11.8762 8.08912C11.8791 8.09279 11.882 8.09646 11.8846 8.10012L14.1161 11.1142V8.21746C14.1161 8.09908 14.2114 8.00374 14.3298 8.00374Z" fill="#06C755"/>
</svg>
