<svg width="24" height="24" viewBox="0 0 24 24" fill="none" xmlns="http://www.w3.org/2000/svg">
<path d="M6.67283 2.19238C6.45683 2.19451 6.23976 2.2184 6.02108 2.2667C5.13828 2.46259 4.40485 2.98762 3.95512 3.74463C3.50539 4.50217 3.3802 5.44392 3.61877 6.2641L4.78473 10.365C4.2587 10.9261 3.96103 11.672 3.96103 12.4444V15.0785C4.06527 18.9151 7.20638 21.8078 11.2684 21.8078C12.9722 21.8078 14.5605 21.2881 15.8614 20.3049C17.0897 19.3754 17.9725 18.0694 18.3604 16.6106C19.0981 16.2746 19.5747 15.6593 19.8541 14.691L20.3651 12.9137C20.5548 12.2427 20.5967 11.2547 20.141 10.4956C19.5349 9.48432 18.6559 9.04423 17.4582 9.15571C17.2557 8.6429 16.7323 7.87262 15.6846 7.66823L16.0752 6.29383C16.331 5.49807 16.2181 4.56162 15.7722 3.78763C15.3198 3.00195 14.5761 2.461 13.6783 2.2667C12.0336 1.90943 10.377 2.92232 9.90582 4.57224L9.85209 4.81219L9.79836 4.57012C9.39162 3.14953 8.1139 2.20353 6.7228 2.19238H6.67283ZM10.7064 9.14191L11.8783 5.13071C12.0534 4.51862 12.6547 4.13481 13.242 4.26646C14.1253 4.46394 14.2349 5.30642 14.1092 5.7051L12.7348 10.5434C12.4752 10.4372 12.1958 10.3794 11.9127 10.3794H6.92107L5.59338 5.70457C5.4295 5.12912 5.74866 4.41882 6.46006 4.26646C7.0511 4.13959 7.64966 4.51862 7.82375 5.12912L8.99616 9.14244C9.21968 9.82991 9.85102 9.81133 9.85102 9.81133H9.86123C9.94397 9.81133 10.4958 9.78744 10.7059 9.14244L10.7064 9.14191ZM13.7277 15.018C13.4467 14.958 13.1345 14.7446 12.99 14.3921C13.5993 14.003 14.0216 13.3113 14.0496 12.5214C14.0657 12.0664 13.9254 11.629 13.6546 11.2611L13.9394 10.2705C14.0807 9.77841 14.5842 9.32983 15.1779 9.46945C15.9296 9.64676 16.0757 10.347 15.9511 10.7892L14.9662 14.218C14.8238 14.7096 14.3934 15.0409 13.9324 15.0409C13.8647 15.0409 13.7965 15.034 13.7277 15.0186V15.018ZM16.9306 14.8816C16.2971 14.7367 16.1032 14.0922 16.2117 13.7445C16.2187 13.7243 16.7511 11.8594 16.7603 11.835C16.9091 11.4289 17.318 11.0658 17.8569 11.1794C18.5436 11.3232 18.6763 12.0463 18.5581 12.3765L18.0477 14.1522C17.951 14.4893 17.6092 14.9039 17.1278 14.9039C17.0649 14.9039 16.9994 14.897 16.9317 14.8811H16.9311L16.9306 14.8816ZM6.01248 15.043V12.4439C6.01248 11.8514 6.50465 11.4432 7.01564 11.4432H11.9127C12.1023 11.4432 12.9835 11.5616 12.9835 12.5516C12.9835 13.5417 12.1002 13.6606 11.8767 13.6606H9.07407C8.78016 13.6606 8.54106 13.899 8.54106 14.1925C8.54106 14.4861 8.78016 14.725 9.07407 14.725H9.37281C10.1353 14.725 10.7322 15.345 10.7322 16.1366V16.694C10.7322 16.9881 10.9713 17.2264 11.2658 17.2264C11.5602 17.2264 11.7988 16.9881 11.7988 16.694V16.1366C11.7988 15.6083 11.6451 15.1231 11.3786 14.725H11.9766C12.2716 15.5277 12.9314 15.9285 13.502 16.0585C14.3891 16.2608 15.1978 15.8186 15.6035 15.2989C15.8221 15.5558 16.1026 15.7204 16.4202 15.8372C15.9688 18.1294 13.9039 19.7602 11.2539 19.7602C7.72488 19.7602 6.01409 16.9928 6.01409 15.043H6.01248Z" fill="#484848"/>
</svg>
