<svg width="24" height="24" viewBox="0 0 24 24" fill="none" xmlns="http://www.w3.org/2000/svg">
<path d="M12.0057 3.46961C14.7861 3.46961 15.1153 3.48181 16.2088 3.53059C17.225 3.5753 17.7738 3.74603 18.1396 3.8883C18.6233 4.07528 18.9729 4.30291 19.3347 4.66469C19.7005 5.03053 19.9241 5.37604 20.1111 5.85976C20.2534 6.2256 20.4241 6.77843 20.4688 7.79058C20.5176 8.8881 20.5298 9.21736 20.5298 11.9937C20.5298 14.774 20.5176 15.1033 20.4688 16.1968C20.4241 17.213 20.2534 17.7617 20.1111 18.1276C19.9241 18.6113 19.6965 18.9609 19.3347 19.3227C18.9688 19.6885 18.6233 19.9121 18.1396 20.099C17.7738 20.2413 17.221 20.412 16.2088 20.4568C15.1113 20.5055 14.782 20.5177 12.0057 20.5177C9.22533 20.5177 8.89607 20.5055 7.80262 20.4568C6.7864 20.412 6.23764 20.2413 5.8718 20.099C5.38808 19.9121 5.0385 19.6844 4.67672 19.3227C4.31089 18.9568 4.08732 18.6113 3.90033 18.1276C3.75806 17.7617 3.58734 17.2089 3.54262 16.1968C3.49384 15.0992 3.48165 14.77 3.48165 11.9937C3.48165 9.21329 3.49384 8.88404 3.54262 7.79058C3.58734 6.77436 3.75806 6.2256 3.90033 5.85976C4.08732 5.37604 4.31495 5.02646 4.67672 4.66469C5.04256 4.29885 5.38808 4.07528 5.8718 3.8883C6.23764 3.74603 6.79046 3.5753 7.80262 3.53059C8.89607 3.48181 9.22533 3.46961 12.0057 3.46961ZM12.0057 1.5957C9.18061 1.5957 8.82697 1.6079 7.71726 1.65668C6.61161 1.70545 5.85148 1.88431 5.19296 2.1404C4.506 2.40868 3.92472 2.76232 3.34751 3.3436C2.76623 3.92082 2.41259 4.50209 2.1443 5.18499C1.88822 5.84757 1.70936 6.60364 1.66058 7.70929C1.6118 8.82306 1.59961 9.17671 1.59961 12.0018C1.59961 14.8269 1.6118 15.1805 1.66058 16.2902C1.70936 17.3959 1.88822 18.156 2.1443 18.8145C2.41259 19.5015 2.76623 20.0828 3.34751 20.66C3.92472 21.2372 4.506 21.5949 5.1889 21.8591C5.85148 22.1152 6.60754 22.2941 7.71319 22.3429C8.8229 22.3916 9.17655 22.4038 12.0016 22.4038C14.8267 22.4038 15.1804 22.3916 16.2901 22.3429C17.3957 22.2941 18.1559 22.1152 18.8144 21.8591C19.4973 21.5949 20.0786 21.2372 20.6558 20.66C21.233 20.0828 21.5907 19.5015 21.8549 18.8186C22.111 18.156 22.2899 17.4 22.3386 16.2943C22.3874 15.1846 22.3996 14.831 22.3996 12.0059C22.3996 9.18077 22.3874 8.82713 22.3386 7.71742C22.2899 6.61177 22.111 5.85163 21.8549 5.19312C21.5988 4.50209 21.2452 3.92082 20.6639 3.3436C20.0867 2.76639 19.5054 2.40868 18.8225 2.14446C18.1599 1.88837 17.4039 1.70952 16.2982 1.66074C15.1844 1.6079 14.8308 1.5957 12.0057 1.5957Z" fill="url(#paint0_linear_36902_2121)"/>
<path d="M12.0057 3.46961C14.7861 3.46961 15.1153 3.48181 16.2088 3.53059C17.225 3.5753 17.7738 3.74603 18.1396 3.8883C18.6233 4.07528 18.9729 4.30291 19.3347 4.66469C19.7005 5.03053 19.9241 5.37604 20.1111 5.85976C20.2534 6.2256 20.4241 6.77843 20.4688 7.79058C20.5176 8.8881 20.5298 9.21736 20.5298 11.9937C20.5298 14.774 20.5176 15.1033 20.4688 16.1968C20.4241 17.213 20.2534 17.7617 20.1111 18.1276C19.9241 18.6113 19.6965 18.9609 19.3347 19.3227C18.9688 19.6885 18.6233 19.9121 18.1396 20.099C17.7738 20.2413 17.221 20.412 16.2088 20.4568C15.1113 20.5055 14.782 20.5177 12.0057 20.5177C9.22533 20.5177 8.89607 20.5055 7.80262 20.4568C6.7864 20.412 6.23764 20.2413 5.8718 20.099C5.38808 19.9121 5.0385 19.6844 4.67672 19.3227C4.31089 18.9568 4.08732 18.6113 3.90033 18.1276C3.75806 17.7617 3.58734 17.2089 3.54262 16.1968C3.49384 15.0992 3.48165 14.77 3.48165 11.9937C3.48165 9.21329 3.49384 8.88404 3.54262 7.79058C3.58734 6.77436 3.75806 6.2256 3.90033 5.85976C4.08732 5.37604 4.31495 5.02646 4.67672 4.66469C5.04256 4.29885 5.38808 4.07528 5.8718 3.8883C6.23764 3.74603 6.79046 3.5753 7.80262 3.53059C8.89607 3.48181 9.22533 3.46961 12.0057 3.46961ZM12.0057 1.5957C9.18061 1.5957 8.82697 1.6079 7.71726 1.65668C6.61161 1.70545 5.85148 1.88431 5.19296 2.1404C4.506 2.40868 3.92472 2.76232 3.34751 3.3436C2.76623 3.92082 2.41259 4.50209 2.1443 5.18499C1.88822 5.84757 1.70936 6.60364 1.66058 7.70929C1.6118 8.82306 1.59961 9.17671 1.59961 12.0018C1.59961 14.8269 1.6118 15.1805 1.66058 16.2902C1.70936 17.3959 1.88822 18.156 2.1443 18.8145C2.41259 19.5015 2.76623 20.0828 3.34751 20.66C3.92472 21.2372 4.506 21.5949 5.1889 21.8591C5.85148 22.1152 6.60754 22.2941 7.71319 22.3429C8.8229 22.3916 9.17655 22.4038 12.0016 22.4038C14.8267 22.4038 15.1804 22.3916 16.2901 22.3429C17.3957 22.2941 18.1559 22.1152 18.8144 21.8591C19.4973 21.5949 20.0786 21.2372 20.6558 20.66C21.233 20.0828 21.5907 19.5015 21.8549 18.8186C22.111 18.156 22.2899 17.4 22.3386 16.2943C22.3874 15.1846 22.3996 14.831 22.3996 12.0059C22.3996 9.18077 22.3874 8.82713 22.3386 7.71742C22.2899 6.61177 22.111 5.85163 21.8549 5.19312C21.5988 4.50209 21.2452 3.92082 20.6639 3.3436C20.0867 2.76639 19.5054 2.40868 18.8225 2.14446C18.1599 1.88837 17.4039 1.70952 16.2982 1.66074C15.1844 1.6079 14.8308 1.5957 12.0057 1.5957Z" fill="url(#paint1_linear_36902_2121)"/>
<path d="M12.0057 3.46961C14.7861 3.46961 15.1153 3.48181 16.2088 3.53059C17.225 3.5753 17.7738 3.74603 18.1396 3.8883C18.6233 4.07528 18.9729 4.30291 19.3347 4.66469C19.7005 5.03053 19.9241 5.37604 20.1111 5.85976C20.2534 6.2256 20.4241 6.77843 20.4688 7.79058C20.5176 8.8881 20.5298 9.21736 20.5298 11.9937C20.5298 14.774 20.5176 15.1033 20.4688 16.1968C20.4241 17.213 20.2534 17.7617 20.1111 18.1276C19.9241 18.6113 19.6965 18.9609 19.3347 19.3227C18.9688 19.6885 18.6233 19.9121 18.1396 20.099C17.7738 20.2413 17.221 20.412 16.2088 20.4568C15.1113 20.5055 14.782 20.5177 12.0057 20.5177C9.22533 20.5177 8.89607 20.5055 7.80262 20.4568C6.7864 20.412 6.23764 20.2413 5.8718 20.099C5.38808 19.9121 5.0385 19.6844 4.67672 19.3227C4.31089 18.9568 4.08732 18.6113 3.90033 18.1276C3.75806 17.7617 3.58734 17.2089 3.54262 16.1968C3.49384 15.0992 3.48165 14.77 3.48165 11.9937C3.48165 9.21329 3.49384 8.88404 3.54262 7.79058C3.58734 6.77436 3.75806 6.2256 3.90033 5.85976C4.08732 5.37604 4.31495 5.02646 4.67672 4.66469C5.04256 4.29885 5.38808 4.07528 5.8718 3.8883C6.23764 3.74603 6.79046 3.5753 7.80262 3.53059C8.89607 3.48181 9.22533 3.46961 12.0057 3.46961ZM12.0057 1.5957C9.18061 1.5957 8.82697 1.6079 7.71726 1.65668C6.61161 1.70545 5.85148 1.88431 5.19296 2.1404C4.506 2.40868 3.92472 2.76232 3.34751 3.3436C2.76623 3.92082 2.41259 4.50209 2.1443 5.18499C1.88822 5.84757 1.70936 6.60364 1.66058 7.70929C1.6118 8.82306 1.59961 9.17671 1.59961 12.0018C1.59961 14.8269 1.6118 15.1805 1.66058 16.2902C1.70936 17.3959 1.88822 18.156 2.1443 18.8145C2.41259 19.5015 2.76623 20.0828 3.34751 20.66C3.92472 21.2372 4.506 21.5949 5.1889 21.8591C5.85148 22.1152 6.60754 22.2941 7.71319 22.3429C8.8229 22.3916 9.17655 22.4038 12.0016 22.4038C14.8267 22.4038 15.1804 22.3916 16.2901 22.3429C17.3957 22.2941 18.1559 22.1152 18.8144 21.8591C19.4973 21.5949 20.0786 21.2372 20.6558 20.66C21.233 20.0828 21.5907 19.5015 21.8549 18.8186C22.111 18.156 22.2899 17.4 22.3386 16.2943C22.3874 15.1846 22.3996 14.831 22.3996 12.0059C22.3996 9.18077 22.3874 8.82713 22.3386 7.71742C22.2899 6.61177 22.111 5.85163 21.8549 5.19312C21.5988 4.50209 21.2452 3.92082 20.6639 3.3436C20.0867 2.76639 19.5054 2.40868 18.8225 2.14446C18.1599 1.88837 17.4039 1.70952 16.2982 1.66074C15.1844 1.6079 14.8308 1.5957 12.0057 1.5957Z" fill="url(#paint2_linear_36902_2121)"/>
<path d="M12.0057 3.46961C14.7861 3.46961 15.1153 3.48181 16.2088 3.53059C17.225 3.5753 17.7738 3.74603 18.1396 3.8883C18.6233 4.07528 18.9729 4.30291 19.3347 4.66469C19.7005 5.03053 19.9241 5.37604 20.1111 5.85976C20.2534 6.2256 20.4241 6.77843 20.4688 7.79058C20.5176 8.8881 20.5298 9.21736 20.5298 11.9937C20.5298 14.774 20.5176 15.1033 20.4688 16.1968C20.4241 17.213 20.2534 17.7617 20.1111 18.1276C19.9241 18.6113 19.6965 18.9609 19.3347 19.3227C18.9688 19.6885 18.6233 19.9121 18.1396 20.099C17.7738 20.2413 17.221 20.412 16.2088 20.4568C15.1113 20.5055 14.782 20.5177 12.0057 20.5177C9.22533 20.5177 8.89607 20.5055 7.80262 20.4568C6.7864 20.412 6.23764 20.2413 5.8718 20.099C5.38808 19.9121 5.0385 19.6844 4.67672 19.3227C4.31089 18.9568 4.08732 18.6113 3.90033 18.1276C3.75806 17.7617 3.58734 17.2089 3.54262 16.1968C3.49384 15.0992 3.48165 14.77 3.48165 11.9937C3.48165 9.21329 3.49384 8.88404 3.54262 7.79058C3.58734 6.77436 3.75806 6.2256 3.90033 5.85976C4.08732 5.37604 4.31495 5.02646 4.67672 4.66469C5.04256 4.29885 5.38808 4.07528 5.8718 3.8883C6.23764 3.74603 6.79046 3.5753 7.80262 3.53059C8.89607 3.48181 9.22533 3.46961 12.0057 3.46961ZM12.0057 1.5957C9.18061 1.5957 8.82697 1.6079 7.71726 1.65668C6.61161 1.70545 5.85148 1.88431 5.19296 2.1404C4.506 2.40868 3.92472 2.76232 3.34751 3.3436C2.76623 3.92082 2.41259 4.50209 2.1443 5.18499C1.88822 5.84757 1.70936 6.60364 1.66058 7.70929C1.6118 8.82306 1.59961 9.17671 1.59961 12.0018C1.59961 14.8269 1.6118 15.1805 1.66058 16.2902C1.70936 17.3959 1.88822 18.156 2.1443 18.8145C2.41259 19.5015 2.76623 20.0828 3.34751 20.66C3.92472 21.2372 4.506 21.5949 5.1889 21.8591C5.85148 22.1152 6.60754 22.2941 7.71319 22.3429C8.8229 22.3916 9.17655 22.4038 12.0016 22.4038C14.8267 22.4038 15.1804 22.3916 16.2901 22.3429C17.3957 22.2941 18.1559 22.1152 18.8144 21.8591C19.4973 21.5949 20.0786 21.2372 20.6558 20.66C21.233 20.0828 21.5907 19.5015 21.8549 18.8186C22.111 18.156 22.2899 17.4 22.3386 16.2943C22.3874 15.1846 22.3996 14.831 22.3996 12.0059C22.3996 9.18077 22.3874 8.82713 22.3386 7.71742C22.2899 6.61177 22.111 5.85163 21.8549 5.19312C21.5988 4.50209 21.2452 3.92082 20.6639 3.3436C20.0867 2.76639 19.5054 2.40868 18.8225 2.14446C18.1599 1.88837 17.4039 1.70952 16.2982 1.66074C15.1844 1.6079 14.8308 1.5957 12.0057 1.5957Z" fill="url(#paint3_linear_36902_2121)"/>
<path d="M12.0057 3.46961C14.7861 3.46961 15.1153 3.48181 16.2088 3.53059C17.225 3.5753 17.7738 3.74603 18.1396 3.8883C18.6233 4.07528 18.9729 4.30291 19.3347 4.66469C19.7005 5.03053 19.9241 5.37604 20.1111 5.85976C20.2534 6.2256 20.4241 6.77843 20.4688 7.79058C20.5176 8.8881 20.5298 9.21736 20.5298 11.9937C20.5298 14.774 20.5176 15.1033 20.4688 16.1968C20.4241 17.213 20.2534 17.7617 20.1111 18.1276C19.9241 18.6113 19.6965 18.9609 19.3347 19.3227C18.9688 19.6885 18.6233 19.9121 18.1396 20.099C17.7738 20.2413 17.221 20.412 16.2088 20.4568C15.1113 20.5055 14.782 20.5177 12.0057 20.5177C9.22533 20.5177 8.89607 20.5055 7.80262 20.4568C6.7864 20.412 6.23764 20.2413 5.8718 20.099C5.38808 19.9121 5.0385 19.6844 4.67672 19.3227C4.31089 18.9568 4.08732 18.6113 3.90033 18.1276C3.75806 17.7617 3.58734 17.2089 3.54262 16.1968C3.49384 15.0992 3.48165 14.77 3.48165 11.9937C3.48165 9.21329 3.49384 8.88404 3.54262 7.79058C3.58734 6.77436 3.75806 6.2256 3.90033 5.85976C4.08732 5.37604 4.31495 5.02646 4.67672 4.66469C5.04256 4.29885 5.38808 4.07528 5.8718 3.8883C6.23764 3.74603 6.79046 3.5753 7.80262 3.53059C8.89607 3.48181 9.22533 3.46961 12.0057 3.46961ZM12.0057 1.5957C9.18061 1.5957 8.82697 1.6079 7.71726 1.65668C6.61161 1.70545 5.85148 1.88431 5.19296 2.1404C4.506 2.40868 3.92472 2.76232 3.34751 3.3436C2.76623 3.92082 2.41259 4.50209 2.1443 5.18499C1.88822 5.84757 1.70936 6.60364 1.66058 7.70929C1.6118 8.82306 1.59961 9.17671 1.59961 12.0018C1.59961 14.8269 1.6118 15.1805 1.66058 16.2902C1.70936 17.3959 1.88822 18.156 2.1443 18.8145C2.41259 19.5015 2.76623 20.0828 3.34751 20.66C3.92472 21.2372 4.506 21.5949 5.1889 21.8591C5.85148 22.1152 6.60754 22.2941 7.71319 22.3429C8.8229 22.3916 9.17655 22.4038 12.0016 22.4038C14.8267 22.4038 15.1804 22.3916 16.2901 22.3429C17.3957 22.2941 18.1559 22.1152 18.8144 21.8591C19.4973 21.5949 20.0786 21.2372 20.6558 20.66C21.233 20.0828 21.5907 19.5015 21.8549 18.8186C22.111 18.156 22.2899 17.4 22.3386 16.2943C22.3874 15.1846 22.3996 14.831 22.3996 12.0059C22.3996 9.18077 22.3874 8.82713 22.3386 7.71742C22.2899 6.61177 22.111 5.85163 21.8549 5.19312C21.5988 4.50209 21.2452 3.92082 20.6639 3.3436C20.0867 2.76639 19.5054 2.40868 18.8225 2.14446C18.1599 1.88837 17.4039 1.70952 16.2982 1.66074C15.1844 1.6079 14.8308 1.5957 12.0057 1.5957Z" fill="url(#paint4_linear_36902_2121)"/>
<path d="M12.0057 3.46961C14.7861 3.46961 15.1153 3.48181 16.2088 3.53059C17.225 3.5753 17.7738 3.74603 18.1396 3.8883C18.6233 4.07528 18.9729 4.30291 19.3347 4.66469C19.7005 5.03053 19.9241 5.37604 20.1111 5.85976C20.2534 6.2256 20.4241 6.77843 20.4688 7.79058C20.5176 8.8881 20.5298 9.21736 20.5298 11.9937C20.5298 14.774 20.5176 15.1033 20.4688 16.1968C20.4241 17.213 20.2534 17.7617 20.1111 18.1276C19.9241 18.6113 19.6965 18.9609 19.3347 19.3227C18.9688 19.6885 18.6233 19.9121 18.1396 20.099C17.7738 20.2413 17.221 20.412 16.2088 20.4568C15.1113 20.5055 14.782 20.5177 12.0057 20.5177C9.22533 20.5177 8.89607 20.5055 7.80262 20.4568C6.7864 20.412 6.23764 20.2413 5.8718 20.099C5.38808 19.9121 5.0385 19.6844 4.67672 19.3227C4.31089 18.9568 4.08732 18.6113 3.90033 18.1276C3.75806 17.7617 3.58734 17.2089 3.54262 16.1968C3.49384 15.0992 3.48165 14.77 3.48165 11.9937C3.48165 9.21329 3.49384 8.88404 3.54262 7.79058C3.58734 6.77436 3.75806 6.2256 3.90033 5.85976C4.08732 5.37604 4.31495 5.02646 4.67672 4.66469C5.04256 4.29885 5.38808 4.07528 5.8718 3.8883C6.23764 3.74603 6.79046 3.5753 7.80262 3.53059C8.89607 3.48181 9.22533 3.46961 12.0057 3.46961ZM12.0057 1.5957C9.18061 1.5957 8.82697 1.6079 7.71726 1.65668C6.61161 1.70545 5.85148 1.88431 5.19296 2.1404C4.506 2.40868 3.92472 2.76232 3.34751 3.3436C2.76623 3.92082 2.41259 4.50209 2.1443 5.18499C1.88822 5.84757 1.70936 6.60364 1.66058 7.70929C1.6118 8.82306 1.59961 9.17671 1.59961 12.0018C1.59961 14.8269 1.6118 15.1805 1.66058 16.2902C1.70936 17.3959 1.88822 18.156 2.1443 18.8145C2.41259 19.5015 2.76623 20.0828 3.34751 20.66C3.92472 21.2372 4.506 21.5949 5.1889 21.8591C5.85148 22.1152 6.60754 22.2941 7.71319 22.3429C8.8229 22.3916 9.17655 22.4038 12.0016 22.4038C14.8267 22.4038 15.1804 22.3916 16.2901 22.3429C17.3957 22.2941 18.1559 22.1152 18.8144 21.8591C19.4973 21.5949 20.0786 21.2372 20.6558 20.66C21.233 20.0828 21.5907 19.5015 21.8549 18.8186C22.111 18.156 22.2899 17.4 22.3386 16.2943C22.3874 15.1846 22.3996 14.831 22.3996 12.0059C22.3996 9.18077 22.3874 8.82713 22.3386 7.71742C22.2899 6.61177 22.111 5.85163 21.8549 5.19312C21.5988 4.50209 21.2452 3.92082 20.6639 3.3436C20.0867 2.76639 19.5054 2.40868 18.8225 2.14446C18.1599 1.88837 17.4039 1.70952 16.2982 1.66074C15.1844 1.6079 14.8308 1.5957 12.0057 1.5957Z" fill="url(#paint5_linear_36902_2121)"/>
<path d="M12.0057 3.46961C14.7861 3.46961 15.1153 3.48181 16.2088 3.53059C17.225 3.5753 17.7738 3.74603 18.1396 3.8883C18.6233 4.07528 18.9729 4.30291 19.3347 4.66469C19.7005 5.03053 19.9241 5.37604 20.1111 5.85976C20.2534 6.2256 20.4241 6.77843 20.4688 7.79058C20.5176 8.8881 20.5298 9.21736 20.5298 11.9937C20.5298 14.774 20.5176 15.1033 20.4688 16.1968C20.4241 17.213 20.2534 17.7617 20.1111 18.1276C19.9241 18.6113 19.6965 18.9609 19.3347 19.3227C18.9688 19.6885 18.6233 19.9121 18.1396 20.099C17.7738 20.2413 17.221 20.412 16.2088 20.4568C15.1113 20.5055 14.782 20.5177 12.0057 20.5177C9.22533 20.5177 8.89607 20.5055 7.80262 20.4568C6.7864 20.412 6.23764 20.2413 5.8718 20.099C5.38808 19.9121 5.0385 19.6844 4.67672 19.3227C4.31089 18.9568 4.08732 18.6113 3.90033 18.1276C3.75806 17.7617 3.58734 17.2089 3.54262 16.1968C3.49384 15.0992 3.48165 14.77 3.48165 11.9937C3.48165 9.21329 3.49384 8.88404 3.54262 7.79058C3.58734 6.77436 3.75806 6.2256 3.90033 5.85976C4.08732 5.37604 4.31495 5.02646 4.67672 4.66469C5.04256 4.29885 5.38808 4.07528 5.8718 3.8883C6.23764 3.74603 6.79046 3.5753 7.80262 3.53059C8.89607 3.48181 9.22533 3.46961 12.0057 3.46961ZM12.0057 1.5957C9.18061 1.5957 8.82697 1.6079 7.71726 1.65668C6.61161 1.70545 5.85148 1.88431 5.19296 2.1404C4.506 2.40868 3.92472 2.76232 3.34751 3.3436C2.76623 3.92082 2.41259 4.50209 2.1443 5.18499C1.88822 5.84757 1.70936 6.60364 1.66058 7.70929C1.6118 8.82306 1.59961 9.17671 1.59961 12.0018C1.59961 14.8269 1.6118 15.1805 1.66058 16.2902C1.70936 17.3959 1.88822 18.156 2.1443 18.8145C2.41259 19.5015 2.76623 20.0828 3.34751 20.66C3.92472 21.2372 4.506 21.5949 5.1889 21.8591C5.85148 22.1152 6.60754 22.2941 7.71319 22.3429C8.8229 22.3916 9.17655 22.4038 12.0016 22.4038C14.8267 22.4038 15.1804 22.3916 16.2901 22.3429C17.3957 22.2941 18.1559 22.1152 18.8144 21.8591C19.4973 21.5949 20.0786 21.2372 20.6558 20.66C21.233 20.0828 21.5907 19.5015 21.8549 18.8186C22.111 18.156 22.2899 17.4 22.3386 16.2943C22.3874 15.1846 22.3996 14.831 22.3996 12.0059C22.3996 9.18077 22.3874 8.82713 22.3386 7.71742C22.2899 6.61177 22.111 5.85163 21.8549 5.19312C21.5988 4.50209 21.2452 3.92082 20.6639 3.3436C20.0867 2.76639 19.5054 2.40868 18.8225 2.14446C18.1599 1.88837 17.4039 1.70952 16.2982 1.66074C15.1844 1.6079 14.8308 1.5957 12.0057 1.5957Z" fill="url(#paint6_linear_36902_2121)"/>
<path d="M12.0065 6.65649C9.05535 6.65649 6.66113 9.05071 6.66113 12.0018C6.66113 14.9529 9.05535 17.3471 12.0065 17.3471C14.9576 17.3471 17.3518 14.9529 17.3518 12.0018C17.3518 9.05071 14.9576 6.65649 12.0065 6.65649ZM12.0065 15.4692C10.0919 15.4692 8.53911 13.9164 8.53911 12.0018C8.53911 10.0873 10.0919 8.53447 12.0065 8.53447C13.921 8.53447 15.4738 10.0873 15.4738 12.0018C15.4738 13.9164 13.921 15.4692 12.0065 15.4692Z" fill="url(#paint7_linear_36902_2121)"/>
<path d="M12.0065 6.65649C9.05535 6.65649 6.66113 9.05071 6.66113 12.0018C6.66113 14.9529 9.05535 17.3471 12.0065 17.3471C14.9576 17.3471 17.3518 14.9529 17.3518 12.0018C17.3518 9.05071 14.9576 6.65649 12.0065 6.65649ZM12.0065 15.4692C10.0919 15.4692 8.53911 13.9164 8.53911 12.0018C8.53911 10.0873 10.0919 8.53447 12.0065 8.53447C13.921 8.53447 15.4738 10.0873 15.4738 12.0018C15.4738 13.9164 13.921 15.4692 12.0065 15.4692Z" fill="url(#paint8_linear_36902_2121)"/>
<path d="M12.0065 6.65649C9.05535 6.65649 6.66113 9.05071 6.66113 12.0018C6.66113 14.9529 9.05535 17.3471 12.0065 17.3471C14.9576 17.3471 17.3518 14.9529 17.3518 12.0018C17.3518 9.05071 14.9576 6.65649 12.0065 6.65649ZM12.0065 15.4692C10.0919 15.4692 8.53911 13.9164 8.53911 12.0018C8.53911 10.0873 10.0919 8.53447 12.0065 8.53447C13.921 8.53447 15.4738 10.0873 15.4738 12.0018C15.4738 13.9164 13.921 15.4692 12.0065 15.4692Z" fill="url(#paint9_linear_36902_2121)"/>
<path d="M18.8113 6.4447C18.8113 7.13573 18.2503 7.69262 17.5633 7.69262C16.8723 7.69262 16.3154 7.13166 16.3154 6.4447C16.3154 5.75367 16.8764 5.19678 17.5633 5.19678C18.2503 5.19678 18.8113 5.75773 18.8113 6.4447Z" fill="#EA33B7"/>
<defs>
<linearGradient id="paint0_linear_36902_2121" x1="10.1146" y1="14.3677" x2="7.74959" y2="24.3008" gradientUnits="userSpaceOnUse">
<stop stop-color="#F8D749"/>
<stop offset="0.834782" stop-color="#F8D749"/>
</linearGradient>
<linearGradient id="paint1_linear_36902_2121" x1="7.74959" y1="14.3677" x2="-0.291485" y2="15.3138" gradientUnits="userSpaceOnUse">
<stop stop-color="#EC5C4A" stop-opacity="0"/>
<stop offset="1" stop-color="#F3A24D"/>
</linearGradient>
<linearGradient id="paint2_linear_36902_2121" x1="6.33058" y1="14.8407" x2="14.3717" y2="9.6377" gradientUnits="userSpaceOnUse">
<stop stop-color="#EA4D64" stop-opacity="0"/>
<stop offset="1" stop-color="#EA4D64"/>
</linearGradient>
<linearGradient id="paint3_linear_36902_2121" x1="1.60053" y1="20.9898" x2="3.96556" y2="8.69169" gradientUnits="userSpaceOnUse">
<stop offset="0.331094" stop-color="#E43AC7" stop-opacity="0"/>
<stop offset="1" stop-color="#E43AC7"/>
</linearGradient>
<linearGradient id="paint4_linear_36902_2121" x1="14.8447" y1="17.2058" x2="18.6287" y2="12.9487" gradientUnits="userSpaceOnUse">
<stop stop-color="#EA4D64" stop-opacity="0"/>
<stop offset="1" stop-color="#EA4D64"/>
</linearGradient>
<linearGradient id="paint5_linear_36902_2121" x1="19.5747" y1="12.4757" x2="20.5207" y2="4.90766" gradientUnits="userSpaceOnUse">
<stop stop-color="#E43AC7" stop-opacity="0"/>
<stop offset="1" stop-color="#E43AC7"/>
</linearGradient>
<linearGradient id="paint6_linear_36902_2121" x1="6.80358" y1="8.21869" x2="5.38457" y2="3.96165" gradientUnits="userSpaceOnUse">
<stop stop-color="#5E1FF5" stop-opacity="0"/>
<stop offset="1" stop-color="#5E1FF5"/>
</linearGradient>
<linearGradient id="paint7_linear_36902_2121" x1="13.2987" y1="6.65649" x2="10.7142" y2="17.3471" gradientUnits="userSpaceOnUse">
<stop stop-color="#EF8A3B"/>
<stop offset="0.996324" stop-color="#EF8A3B"/>
</linearGradient>
<linearGradient id="paint8_linear_36902_2121" x1="10.5884" y1="15.7868" x2="12.0074" y2="11.0567" gradientUnits="userSpaceOnUse">
<stop stop-color="#EB436C" stop-opacity="0"/>
<stop offset="1" stop-color="#EB436C"/>
</linearGradient>
<linearGradient id="paint9_linear_36902_2121" x1="12.4804" y1="11.0567" x2="12.9534" y2="6.32668" gradientUnits="userSpaceOnUse">
<stop stop-color="#EA34B1" stop-opacity="0"/>
<stop offset="1" stop-color="#EA34B1"/>
</linearGradient>
</defs>
</svg>
