<svg width="24" height="24" viewBox="0 0 24 24" fill="none" xmlns="http://www.w3.org/2000/svg">
<path d="M6.2251 9.13184C6.519 9.13219 6.75711 9.3702 6.75732 9.66309V19.7207C6.75732 20.0138 6.51913 20.2516 6.2251 20.252H3.6665C3.05003 20.2517 2.55035 19.754 2.55029 19.1397V10.2451C2.55048 9.6309 3.05009 9.1321 3.6665 9.13184H6.2251Z" fill="black"/>
<path d="M12.0269 2.78223C12.6826 2.337 13.6369 2.40933 13.9946 2.61133C14.1988 2.72674 14.389 2.90759 14.4888 3.06934C14.6218 3.2853 14.727 3.54997 14.6899 3.97461L14.396 7.11328C14.3387 7.90344 14.4778 8.20015 14.8569 8.53906C15.3756 9.00262 16.0593 9.0506 16.8472 9.05078H19.4419C20.757 9.0509 21.7237 10.2625 21.3804 11.5049L21.3813 11.5059L19.5239 18.8096L19.5229 18.8135C19.2849 19.6646 18.4883 20.2519 17.5845 20.252H9.01221C8.6646 20.2514 8.38238 19.9705 8.38232 19.624V10.1055C8.38234 9.54182 8.46649 8.97787 8.65674 8.44238C8.91102 7.72707 9.28182 6.93155 9.65479 6.23828C10.1802 5.26165 10.2771 5.16388 10.7769 4.35938C11.023 3.96322 11.2117 3.64575 11.436 3.36524C11.6677 3.07576 11.9053 2.86518 12.0269 2.78223Z" fill="black"/>
</svg>
