<svg width="24" height="24" viewBox="0 0 24 24" fill="none" xmlns="http://www.w3.org/2000/svg">
<path d="M12.8996 7.84605C12.8996 7.34899 12.4967 6.94604 11.9996 6.94604C11.5026 6.94604 11.0996 7.34899 11.0996 7.84605V12.3727L14.1324 15.4055C14.4839 15.757 15.0538 15.757 15.4052 15.4055C15.7567 15.054 15.7567 14.4842 15.4052 14.1327L12.8996 11.6271V7.84605Z" fill="black"/>
<path fill-rule="evenodd" clip-rule="evenodd" d="M11.9996 2.09985C6.53199 2.09985 2.09961 6.53223 2.09961 11.9999C2.09961 17.4675 6.53199 21.8999 11.9996 21.8999C17.4672 21.8999 21.8996 17.4675 21.8996 11.9999C21.8996 6.53223 17.4672 2.09985 11.9996 2.09985ZM3.89961 11.9999C3.89961 7.52635 7.5261 3.89985 11.9996 3.89985C16.4731 3.89985 20.0996 7.52635 20.0996 11.9999C20.0996 16.4734 16.4731 20.0999 11.9996 20.0999C7.5261 20.0999 3.89961 16.4734 3.89961 11.9999Z" fill="black"/>
</svg>
