<svg width="24" height="24" viewBox="0 0 24 24" fill="none" xmlns="http://www.w3.org/2000/svg">
<g clip-path="url(#clip0_59491_13514)">
<path d="M0 12C0 3.3601 3.3601 0 12 0C20.6399 0 24 3.3601 24 12C24 20.6399 20.6399 24 12 24C3.3601 24 0 20.6399 0 12Z" fill="#00CBD5"/>
<path fill-rule="evenodd" clip-rule="evenodd" d="M18.9006 6.40015C19.4529 6.40015 19.9006 6.84786 19.9006 7.40015V10.1522C19.9006 10.352 19.7376 10.5107 19.5439 10.5559C18.8221 10.7244 18.2848 11.3739 18.2848 12.1501C18.2848 12.9264 18.8221 13.5753 19.5439 13.7437C19.7376 13.7888 19.9006 13.9476 19.9006 14.1474V16.9001C19.9006 17.4524 19.4529 17.9001 18.9006 17.9001H8.10061C5.89143 17.9001 4.10054 16.1092 4.10059 13.9001L4.10072 7.80016C4.10073 7.02698 4.72753 6.40019 5.50072 6.40019L18.9006 6.40015Z" fill="white"/>
<path d="M7.55607 9.89573C8.45338 9.41751 9.20172 9.44479 9.49846 9.60472C9.61022 9.66241 10.1015 9.96546 9.97014 10.7922L9.72307 12.3069C9.62953 12.9842 9.63099 13.3489 10.016 13.3489C10.2416 13.3486 10.736 13.1029 11.0229 12.1467C11.0803 11.9548 11.138 11.7579 11.1635 11.5598L11.4057 9.7844C11.4125 9.73467 11.4562 9.69762 11.5082 9.69749H12.7582C12.8206 9.69749 12.8689 9.75004 12.8617 9.8098L12.5522 12.3674C12.4586 13.0852 12.5521 13.3489 12.8432 13.3489C13.176 13.3489 13.7834 13.0757 14.0043 11.551C14.0043 11.551 14.1605 10.5496 14.1244 9.80198C14.1221 9.7439 14.1694 9.69615 14.2289 9.69651H15.3842C15.4399 9.69675 15.4854 9.73912 15.4877 9.79319C15.502 10.1164 15.6534 11.1385 16.3803 11.6155C16.419 11.641 16.438 11.6862 16.4242 11.7297C16.3567 11.9431 16.174 12.4822 16.0981 12.7073C16.0789 12.7637 16.0138 12.7934 15.9574 12.7698C15.7495 12.6823 15.4975 12.5156 15.3705 12.4075C15.354 12.3932 15.3273 12.4023 15.3217 12.4231C14.8509 14.1075 13.7488 14.6994 12.5824 14.6994C11.8034 14.6994 11.3784 14.3574 11.2172 13.8645C11.2088 13.8403 11.1765 13.8362 11.1615 13.8576C10.5391 14.7396 9.55924 14.6997 9.55217 14.6994C8.47067 14.6994 8.11329 13.8638 8.27971 12.6604L8.52287 11.1926C8.53076 11.1327 8.54002 10.981 8.45451 10.9006C8.38742 10.8377 8.28437 10.839 8.21525 10.8459C8.16943 10.8503 8.08884 10.8748 8.0092 10.9035C7.95623 10.9229 7.89697 10.8972 7.87443 10.8469L7.5092 10.0285C7.48753 9.97976 7.50805 9.92121 7.55607 9.89573Z" fill="#01D5DF"/>
</g>
<defs>
<clipPath id="clip0_59491_13514">
<rect width="24" height="24" fill="white"/>
</clipPath>
</defs>
</svg>
