<svg width="24" height="24" viewBox="0 0 24 24" fill="none" xmlns="http://www.w3.org/2000/svg">
<path fill-rule="evenodd" clip-rule="evenodd" d="M12.8936 22.2532C11.9505 22.9056 10.886 22.9635 10.0332 22.472C9.20892 21.9967 8.71973 21.0847 8.71973 20.0794V20.0315L8.72461 19.9837L9.00977 17.3294C9.04621 16.9889 8.77781 16.691 8.43457 16.6907H5.61914C3.56314 16.6907 2.07036 14.7345 2.61328 12.7513L4.16211 7.09405C4.53297 5.74 5.76309 4.80031 7.16699 4.8001L16.9648 4.80768H19.2832L19.5098 4.8194C20.5524 4.92541 21.3811 5.7544 21.4873 6.79694L21.499 7.0235V13.9026C21.4989 15.1263 20.5069 16.1183 19.2832 16.1185H16.502C16.2619 16.6756 15.9288 17.425 15.5518 18.2063C15.172 18.9934 14.7396 19.8285 14.3076 20.5355C13.9023 21.1988 13.4135 21.8933 12.8936 22.2532ZM10.9326 20.9124C11.1155 21.0177 11.4318 21.0753 11.8691 20.7728C12.0396 20.6546 12.3573 20.2748 12.7715 19.597C13.1593 18.9623 13.5616 18.1869 13.9297 17.4241C14.2963 16.6644 14.6224 15.9317 14.8564 15.388C14.9732 15.1167 15.0666 14.8927 15.1309 14.7376C15.1428 14.7089 15.1542 14.6824 15.1641 14.6585V6.60088H7.16699C6.57437 6.60109 6.05502 6.99805 5.89844 7.56963L4.34961 13.2269C4.1206 14.064 4.75098 14.8899 5.61914 14.8899H8.43457C9.84727 14.8902 10.9503 16.1153 10.7998 17.5208L10.5225 20.1116C10.5321 20.5218 10.7264 20.7935 10.9326 20.9124ZM19.2832 14.3177C19.5125 14.3175 19.6981 14.1319 19.6982 13.9026V7.0235C19.6978 6.79445 19.5123 6.59861 19.2832 6.60846H16.9785V14.3177H19.2832Z" fill="black"/>
</svg>
