<svg width="24" height="24" viewBox="0 0 24 24" fill="none" xmlns="http://www.w3.org/2000/svg">
<path d="M6.31219 17.0608L11.7125 21.1301C11.9853 21.3356 12.35 21.3685 12.6547 21.215C12.9594 21.0614 13.1519 20.7478 13.1519 20.4048L13.1519 3.71674C13.1519 3.37374 12.9594 3.06016 12.6547 2.90662C12.35 2.75309 11.9853 2.78594 11.7125 2.99149L6.31223 7.06078H2.25195C1.69967 7.06078 1.25195 7.50849 1.25195 8.06078V16.0608C1.25195 16.6131 1.69967 17.0608 2.25195 17.0608H6.31219Z" fill="black"/>
<path d="M15.6887 7.18108C16.0611 6.85186 16.6299 6.88686 16.9591 7.25926C18.0775 8.52438 18.7576 10.1841 18.7576 12.0001C18.7576 13.816 18.0775 15.4757 16.9591 16.7409C16.6299 17.1133 16.0611 17.1483 15.6887 16.819C15.3163 16.4898 15.2813 15.9211 15.6105 15.5487C16.4509 14.5981 16.9576 13.358 16.9576 12.0001C16.9576 10.6422 16.4509 9.40202 15.6105 8.45147C15.2813 8.07907 15.3163 7.51029 15.6887 7.18108Z" fill="black"/>
<path d="M19.6234 4.10903C19.2836 3.74624 18.7141 3.72759 18.3513 4.06736C17.9885 4.40714 17.9699 4.97669 18.3096 5.33947C19.9498 7.09071 20.9494 9.4298 20.9494 12.0001C20.9494 14.5703 19.9498 16.9094 18.3096 18.6606C17.9699 19.0234 17.9885 19.593 18.3513 19.9328C18.7141 20.2725 19.2836 20.2539 19.6234 19.8911C21.5617 17.8215 22.7494 15.0477 22.7494 12.0001C22.7494 8.95238 21.5617 6.17861 19.6234 4.10903Z" fill="black"/>
</svg>
