<svg width="24" height="24" viewBox="0 0 24 24" fill="none" xmlns="http://www.w3.org/2000/svg">
<path fill-rule="evenodd" clip-rule="evenodd" d="M4.24961 4.9001C3.6421 4.9001 3.14961 5.39258 3.14961 6.0001V18.0001C3.14961 18.6076 3.6421 19.1001 4.24961 19.1001H15.2049V15.2001C15.2049 14.8798 15.3751 14.5837 15.6518 14.4225C15.9285 14.2612 16.2701 14.2592 16.5487 14.4172L20.7003 16.7707C20.7229 16.7835 20.7386 16.7854 20.7501 16.7851C20.7643 16.7848 20.7821 16.7805 20.7999 16.7701C20.8178 16.7597 20.8303 16.7464 20.8376 16.7341C20.8435 16.7243 20.8496 16.7097 20.8496 16.6837V7.31651C20.8496 7.29048 20.8435 7.27594 20.8376 7.26605C20.8303 7.25384 20.8178 7.24053 20.7999 7.2301C20.7821 7.21968 20.7643 7.21539 20.7501 7.21506C20.7386 7.2148 20.7229 7.21668 20.7003 7.22951L16.5487 9.58304C16.2701 9.74099 15.9285 9.73897 15.6518 9.57774C15.3751 9.41652 15.2049 9.12037 15.2049 8.8001V4.9001H4.24961ZM1.34961 6.0001C1.34961 4.39847 2.64798 3.1001 4.24961 3.1001H16.1049C16.6019 3.1001 17.0049 3.50304 17.0049 4.0001V7.25533L19.8126 5.66363C21.0792 4.94559 22.6496 5.86053 22.6496 7.31651V16.6837C22.6496 18.1397 21.0792 19.0546 19.8126 18.3366L17.0049 16.7449V20.0001C17.0049 20.4972 16.6019 20.9001 16.1049 20.9001H4.24961C2.64799 20.9001 1.34961 19.6017 1.34961 18.0001V6.0001Z" fill="black"/>
</svg>
