<svg width="24" height="24" viewBox="0 0 24 24" fill="none" xmlns="http://www.w3.org/2000/svg">
<g clip-path="url(#clip0_26810_52017)">
<path fill-rule="evenodd" clip-rule="evenodd" d="M12 0C3.3601 0 0 3.3601 0 12C0 20.6399 3.3601 24 12 24C20.6399 24 24 20.6399 24 12C24 3.3601 20.6399 0 12 0ZM20.4706 11.4565C20.5457 11.5071 20.5825 11.5973 20.5558 11.6839H20.5544C20.4258 12.1024 20.0818 13.1532 19.9333 13.6068L19.9286 13.6212C19.8918 13.7331 19.7676 13.7908 19.6593 13.7439C19.2595 13.5707 18.7744 13.2408 18.5304 13.0265C18.4987 12.9983 18.4489 13.0156 18.438 13.0568C17.5336 16.3944 15.4151 17.568 13.1739 17.568C11.6769 17.568 10.8598 16.8903 10.5502 15.9137C10.5343 15.8653 10.4722 15.8559 10.4433 15.8985C9.24297 17.6525 7.35112 17.568 7.35112 17.568C5.27305 17.568 4.58589 15.9122 4.90565 13.5281L5.37266 10.62C5.38781 10.5016 5.4073 10.1999 5.24273 10.0403C5.11353 9.91548 4.91431 9.91909 4.7815 9.9328C4.69344 9.94146 4.53969 9.99054 4.38667 10.0476C4.2849 10.0858 4.17085 10.0353 4.12754 9.93569L3.42595 8.31379C3.38409 8.21707 3.42306 8.10158 3.51545 8.05106C5.23984 7.10333 6.67768 7.15674 7.24791 7.47361C7.46228 7.58766 8.40784 8.1882 8.15521 9.8267L7.68027 12.8272C7.50054 14.1691 7.50198 14.8909 8.24183 14.8909C8.67491 14.8909 9.62625 14.4058 10.1777 12.5104C10.2881 12.13 10.3986 11.7402 10.4477 11.3475L10.9125 7.83018C10.9255 7.7313 11.0099 7.65695 11.1103 7.65695H13.5124C13.6323 7.65695 13.7247 7.76161 13.7109 7.87999L13.1155 12.9478C12.9357 14.3697 13.1155 14.8909 13.6749 14.8909C14.3144 14.8909 15.4823 14.3502 15.9067 11.3288C15.9067 11.3288 16.2069 9.34669 16.1376 7.86555C16.1326 7.75006 16.2221 7.65551 16.3369 7.65623H18.5564C18.664 7.65623 18.7513 7.73996 18.7556 7.84751C18.7831 8.48775 19.0739 10.5117 20.4706 11.4565Z" fill="white"/>
</g>
<defs>
<clipPath id="clip0_26810_52017">
<rect width="24" height="24" fill="white"/>
</clipPath>
</defs>
</svg>
