<svg width="24" height="24" viewBox="0 0 24 24" fill="none" xmlns="http://www.w3.org/2000/svg">
<g clip-path="url(#clip0_14890_1101)">
<path d="M0 12C0 3.3601 3.3601 0 12 0C20.6399 0 24 3.3601 24 12C24 20.6399 20.6399 24 12 24C3.3601 24 0 20.6399 0 12Z" fill="#00CBD5"/>
<path d="M20.5558 11.6839C20.5825 11.5973 20.5457 11.5071 20.4706 11.4565C19.074 10.5117 18.7831 8.48775 18.7556 7.84751C18.7513 7.73996 18.664 7.65623 18.5564 7.65623H16.3369C16.2221 7.65551 16.1326 7.75006 16.1376 7.86555C16.2069 9.3467 15.9067 11.3288 15.9067 11.3288C15.4823 14.3502 14.3144 14.8909 13.6749 14.8909C13.1155 14.8909 12.9357 14.3697 13.1155 12.9478L13.7109 7.87999C13.7247 7.76161 13.6323 7.65695 13.5124 7.65695H11.1103C11.0099 7.65695 10.9255 7.7313 10.9125 7.83018L10.4477 11.3475C10.3986 11.7402 10.2881 12.13 10.1777 12.5104C9.62625 14.4058 8.67491 14.8909 8.24183 14.8909C7.50198 14.8909 7.50054 14.1691 7.68027 12.8272L8.15521 9.8267C8.40785 8.1882 7.46228 7.58766 7.24791 7.47361C6.67768 7.15674 5.23984 7.10333 3.51545 8.05106C3.42306 8.10158 3.38409 8.21707 3.42595 8.31379L4.12754 9.93569C4.17085 10.0353 4.2849 10.0858 4.38667 10.0476C4.53969 9.99054 4.69344 9.94146 4.7815 9.9328C4.91431 9.91909 5.11353 9.91548 5.24273 10.0403C5.4073 10.1999 5.38781 10.5016 5.37266 10.62L4.90565 13.5281C4.58589 15.9122 5.27305 17.568 7.35112 17.568C7.35112 17.568 9.24297 17.6525 10.4433 15.8985C10.4722 15.8559 10.5343 15.8653 10.5502 15.9137C10.8598 16.8903 11.6769 17.568 13.1739 17.568C15.4151 17.568 17.5336 16.3944 18.438 13.0568C18.4489 13.0156 18.4987 12.9983 18.5304 13.0265C18.7744 13.2408 19.2595 13.5707 19.6593 13.7439C19.7676 13.7908 19.8918 13.7331 19.9286 13.6212C20.0744 13.1759 20.4244 12.1069 20.5544 11.6839H20.5558Z" fill="white"/>
</g>
<defs>
<clipPath id="clip0_14890_1101">
<rect width="24" height="24" fill="white"/>
</clipPath>
</defs>
</svg>
