<svg width="24" height="24" viewBox="0 0 24 24" fill="none" xmlns="http://www.w3.org/2000/svg">
<path d="M9.6737 2.99024C10.6709 1.13622 13.3286 1.13721 14.326 2.99024L15.5458 5.25879H15.5467C16.23 6.52895 17.2486 7.58579 18.4891 8.31251L18.7401 8.45313L21.0077 9.67286H21.0087C22.8634 10.6698 22.8629 13.3286 21.0096 14.3262L18.7411 15.5469C17.3863 16.2757 16.2745 17.3861 15.5467 18.7402L14.327 21.0088C13.3301 22.8635 10.6713 22.863 9.6737 21.0098L8.453 18.7402V18.7412C7.72419 17.3864 6.61376 16.2747 5.25964 15.5469L2.99108 14.3262V14.3272C1.13635 13.3302 1.13684 10.6714 2.99011 9.67383L5.25866 8.45313L5.51061 8.31251C6.75162 7.58502 7.7707 6.52924 8.453 5.25977L9.6737 2.99024ZM12.7411 3.84376C12.4228 3.25222 11.5761 3.25264 11.2587 3.84278V3.84376L10.038 6.11231C9.14279 7.7776 7.77686 9.14249 6.11218 10.0381L3.84362 11.2588C3.25209 11.5771 3.25251 12.4238 3.84265 12.7412H3.84362L6.11218 13.9619C7.77747 14.8571 9.14235 16.223 10.038 17.8877L11.2587 20.1563C11.577 20.7479 12.4238 20.7466 12.7411 20.1563L13.9618 17.8877C14.857 16.2224 16.2229 14.8575 17.8876 13.9619L20.1561 12.7412C20.7477 12.4229 20.7472 11.5762 20.1571 11.2588H20.1561L17.8876 10.0381C16.2223 9.14293 14.8574 7.77699 13.9618 6.11231L12.7411 3.84376Z" fill="black"/>
</svg>
