<svg width="16" height="16" viewBox="0 0 16 16" fill="none" xmlns="http://www.w3.org/2000/svg">
<path fill-rule="evenodd" clip-rule="evenodd" d="M2.40907 2.40907C2.64339 2.17476 3.02329 2.17476 3.2576 2.40907L8 7.15148L12.7424 2.40907C12.9767 2.17476 13.3566 2.17476 13.5909 2.40907C13.8252 2.64339 13.8252 3.02329 13.5909 3.2576L8.84853 8L13.5909 12.7424C13.8252 12.9767 13.8252 13.3566 13.5909 13.5909C13.3566 13.8252 12.9767 13.8252 12.7424 13.5909L8 8.84853L3.2576 13.5909C3.02329 13.8252 2.64339 13.8252 2.40907 13.5909C2.17476 13.3566 2.17476 12.9767 2.40907 12.7424L7.15148 8L2.40907 3.2576C2.17476 3.02329 2.17476 2.64339 2.40907 2.40907Z" fill="white"/>
</svg>
