<svg preserveAspectRatio="none" width="100%" height="100%" overflow="visible" style="display: block;" viewBox="0 0 142.1 20.2326" fill="none" xmlns="http://www.w3.org/2000/svg">
<g id="Vector" style="mix-blend-mode:overlay">
<path d="M104.3 4.95925C104.431 4.95279 104.558 4.95925 104.686 4.97862C105.018 5.03513 105.362 5.19497 105.4 5.61152C105.504 6.84502 105.766 8.99234 108.395 10.3905C111.737 12.1665 115.298 12.4797 115.232 13.9053C115.149 15.7604 110.935 15.7556 106.59 13.936C106.417 13.8618 106.215 13.9247 106.115 14.0846L104.08 17.8093C103.964 17.9949 104.024 18.242 104.218 18.3485C105.22 18.9168 109.06 20.3941 113.362 20.2181C118.602 20.0018 121.197 16.8196 121.357 13.1062C121.357 13.0658 121.39 13.0383 121.431 13.0416C121.91 13.0835 122.49 13.0722 122.692 13.0706C122.729 13.0706 122.758 13.0965 122.763 13.1304C123.002 15.2615 124.389 19.2478 129.823 19.9098C134.693 20.5039 138.791 19.0234 141.966 16.4967C142.1 16.3885 142.138 16.2012 142.059 16.0478L140.394 12.8107C140.293 12.6121 140.033 12.5524 139.855 12.688C137.499 14.5059 134.604 15.402 132.728 15.3471C129.025 15.2422 128.516 13.6712 128.445 13.2466C128.437 13.1901 128.482 13.1417 128.536 13.1449C136.186 13.5259 140.319 9.26358 140.278 5.51788C140.259 3.7645 139.133 0.738875 134.838 0.227071C134.441 0.173791 134.003 0.141506 133.519 0.141506C132.849 0.141506 132.172 0.215772 131.504 0.361079C131.489 0.361079 131.478 0.367535 131.463 0.36915C131.412 0.380451 131.362 0.39175 131.307 0.406281C129.755 0.761476 128.323 1.47994 127.095 2.49709C125.185 4.04542 123.704 6.30738 123.139 9.14087C123.131 9.17801 123.102 9.20545 123.063 9.20868C121.862 9.26519 119.948 9.00687 118.636 8.79698C118.182 8.7324 117.712 8.65167 117.232 8.55318C117.21 8.54995 117.199 8.54673 117.199 8.54673C115.889 8.27387 114.507 7.85894 113.181 7.23412C109.231 5.37903 113.091 2.52616 117.92 5.3758C118.093 5.47751 118.321 5.42423 118.432 5.25632L120.459 2.20971C120.581 2.02727 120.525 1.77701 120.336 1.66723C118.978 0.86642 113.12 -1.69744 107.891 1.76087C107.891 1.76087 106.228 0.280353 103.765 0.280353C100.279 0.280353 99.0019 2.33403 99.0019 2.33403L99.2942 0.588723C99.3345 0.356231 99.1521 0.143112 98.9163 0.143112H94.2335C94.0317 0.143112 93.8637 0.299726 93.8508 0.501542C93.762 1.85129 93.3567 6.68679 91.9519 9.29909C89.8156 13.379 84.7194 15.4165 81.9146 15.3406C78.212 15.2357 77.7033 13.6648 77.6323 13.2402C77.6242 13.1837 77.6694 13.1352 77.7227 13.1384C85.3734 13.5195 89.5055 9.25711 89.4652 5.51141C89.4458 3.59658 88.1007 0.156031 82.7462 0.146344C78.2071 0.139886 74.2946 3.14936 72.7509 7.75561C72.7331 7.80404 72.6717 7.82342 72.6346 7.78628C71.0457 6.30253 70.9326 1.91586 70.9375 0.528986C70.9375 0.315869 70.7679 0.144728 70.5548 0.144728H66.392C66.1788 0.144728 66.0076 0.315869 66.0076 0.528986C66.0076 1.53484 65.9592 4.14552 65.4958 6.33966C64.1911 12.5362 61.9579 14.3784 60.9034 14.267C60.2091 14.1927 59.9572 13.1949 59.8457 12.8381C59.4308 11.5029 57.4963 3.25431 56.8536 0.438573C56.8132 0.267433 56.6631 0.146344 56.4871 0.146344H51.2585C50.9904 0.146344 50.8031 0.412746 50.8968 0.666227L51.1035 1.22001C54.5558 10.7183 45.954 15.4811 41.6798 15.3616C37.9772 15.2567 37.4685 13.6858 37.3975 13.2611C37.3894 13.2046 37.4346 13.1562 37.4879 13.1594C45.1386 13.5405 49.2707 9.2781 49.2304 5.5324C49.211 3.61757 47.8659 0.159265 42.513 0.151193C37.7898 0.144734 33.7465 3.41576 32.3417 8.34006C32.3255 8.3998 32.2512 8.42241 32.2044 8.38204C29.8453 6.37357 29.6014 2.59397 29.5465 1.32656C29.5385 1.12152 29.3673 0.960062 29.1638 0.960062H24.8896C24.67 0.960062 24.494 1.13928 24.5053 1.35724C24.6425 4.21011 24.0612 8.02846 24.0612 8.02846C23.2458 13.8456 20.9948 14.8854 19.7644 14.8854C18.6873 14.8854 18.3402 13.8827 18.6873 11.1461L19.8354 1.39115C19.8612 1.1635 19.6852 0.961678 19.4543 0.961678H14.8281C14.6343 0.961678 14.4728 1.10376 14.447 1.29427L13.5524 8.06559C13.4587 8.82119 13.2456 9.57195 13.0325 10.3049C11.9699 13.9538 10.1388 14.8886 9.30722 14.8886C7.88301 14.8886 7.88139 13.4985 8.22695 10.9169L9.14252 5.1433C9.62856 1.98852 7.80711 0.832522 7.39535 0.614561C6.29248 -0.00703183 3.52479 -0.110362 0.203243 1.71405C0.0240056 1.81092 -0.0470431 2.03211 0.0320798 2.21778L1.38202 5.33705C1.46437 5.53079 1.68559 5.62443 1.88582 5.55339C2.17809 5.44522 2.47359 5.35158 2.64152 5.3322C2.89665 5.30637 3.28096 5.2983 3.53125 5.53887C3.84936 5.84563 3.80899 6.42523 3.78154 6.65288L2.88373 12.2505C2.2669 16.8389 3.591 20.0276 7.59235 20.0276C7.59235 20.0276 11.2417 20.1923 13.5524 16.8034C13.6041 16.7291 13.7171 16.7437 13.7462 16.8292C14.3404 18.7182 15.9116 20.0292 18.802 20.0292C23.1989 20.0292 27.3553 17.6962 29.0379 10.9911C29.0524 10.9346 29.1283 10.9169 29.1606 10.9685C29.6063 11.6531 30.6236 12.4684 31.6732 12.8898C31.7038 12.9011 31.7281 12.9318 31.7281 12.9673C31.7571 13.5776 32.2028 19.1073 38.7765 19.9098C45.552 20.7332 51.0615 17.3556 54.3443 12.9512L55.6409 16.2674C55.6409 16.2674 56.9505 20.0147 59.8748 20.0147C63.55 20.0147 67.2558 16.6904 69.3437 11.3479C69.4438 11.0977 69.5375 10.8474 69.6231 10.5923C69.6392 10.5391 69.7087 10.5245 69.7474 10.5633C70.3675 11.2107 71.086 11.6886 71.8902 12.0599C71.9063 12.068 71.9176 12.0858 71.9176 12.1051C71.7949 13.5308 72.4925 19.1041 79.0048 19.8968C84.1995 20.5314 88.5141 18.8054 91.7678 15.9671C91.8211 15.9219 91.9018 15.9639 91.8921 16.0333L91.4481 19.5998C91.419 19.8306 91.5982 20.0325 91.8292 20.0325H96.5749C96.7719 20.0325 96.9366 19.8839 96.956 19.6918L97.681 13.0916C98.0766 9.46539 99.2732 7.64744 100.642 6.40587C102.07 5.15622 103.738 4.98023 104.292 4.95601L104.3 4.95925ZM37.349 9.10696C37.6784 7.19537 38.7474 6.04098 39.9714 5.26278C41.9236 4.01798 43.8452 4.19235 44.3312 4.98508C44.7979 5.74714 44.6525 7.24057 42.1949 8.47084C40.7029 9.21514 39.2447 9.32816 37.4427 9.22322C37.3862 9.21999 37.3409 9.16671 37.3522 9.1102L37.349 9.10696ZM77.5806 9.10696C77.91 7.19537 78.979 6.04098 80.2029 5.26278C82.1552 4.01798 84.0767 4.19235 84.5628 4.98508C85.0294 5.74714 84.8841 7.24057 82.4232 8.47084C80.9312 9.21514 79.4731 9.32816 77.671 9.22322C77.6145 9.21999 77.5693 9.16671 77.5806 9.1102V9.10696ZM128.39 9.11827C128.72 7.20667 129.789 6.05228 131.013 5.27085C132.965 4.02605 134.887 4.19881 135.373 4.99316C135.839 5.75521 135.694 7.25187 133.233 8.47891C131.738 9.22321 130.283 9.33623 128.479 9.23129C128.423 9.22806 128.379 9.17478 128.389 9.11827H128.392H128.39Z" fill="var(--fill-0, black)"/>
</g>
</svg>
